<svg width="175" height="26" viewBox="0 0 175 26" fill="none" xmlns="http://www.w3.org/2000/svg">
<path d="M13.3945 12.7159C12.8301 11.0926 12.2657 9.4693 11.7013 7.84599C11.1369 6.20465 10.5725 4.57232 10.0081 2.94901C9.46135 4.57232 8.90577 6.19563 8.34137 7.81894C7.77697 9.44225 7.22138 11.0746 6.67462 12.7159H13.3945ZM20.8552 20.3455C20.8552 20.4537 20.8376 20.5529 20.8023 20.6431C20.7847 20.7152 20.7229 20.7513 20.6171 20.7513C20.4936 20.7513 20.185 20.7423 19.6911 20.7242C19.2149 20.7062 18.8004 20.6972 18.4477 20.6972C17.9009 20.6972 17.3542 20.6972 16.8074 20.6972C16.2783 20.6972 15.7403 20.7152 15.1936 20.7513C14.9114 20.7693 14.6203 20.7784 14.3205 20.7784C14.0383 20.7964 13.7561 20.8054 13.4739 20.8054C13.3857 20.8054 13.324 20.7784 13.2887 20.7242C13.2711 20.6521 13.2622 20.58 13.2622 20.5078L13.2887 20.2914C13.2887 20.2373 13.3063 20.1831 13.3416 20.129C13.3769 20.0569 13.4298 20.0208 13.5004 20.0208H14.7967C14.9555 20.0208 15.1318 19.9847 15.3258 19.9126C15.5375 19.8404 15.6433 19.7052 15.6433 19.5068C15.6433 19.4527 15.5816 19.2452 15.4581 18.8845C15.3347 18.5057 15.1847 18.0548 15.0084 17.5317C14.832 16.9906 14.6468 16.4495 14.4528 15.9084C14.2588 15.3673 14.0912 14.8894 13.9501 14.4745C13.809 14.0416 13.712 13.7621 13.6591 13.6358H6.43651C6.3836 13.7981 6.27777 14.0957 6.11904 14.5286C5.9603 14.9435 5.78392 15.4214 5.58991 15.9625C5.41353 16.5036 5.22834 17.0357 5.03433 17.5588C4.85795 18.0819 4.70803 18.5328 4.58457 18.9116C4.47874 19.2723 4.42583 19.4977 4.42583 19.5879C4.42583 19.8404 4.55811 20.0028 4.82267 20.0749C5.08724 20.1471 5.30771 20.1831 5.48408 20.1831C5.66046 20.1831 5.8192 20.1831 5.9603 20.1831C6.1014 20.1831 6.21604 20.1741 6.30423 20.1561C6.3395 20.1561 6.40124 20.1561 6.48942 20.1561C6.59525 20.1381 6.65698 20.129 6.67462 20.129C6.78044 20.129 6.84218 20.1922 6.85981 20.3184C6.89509 20.4447 6.90391 20.5439 6.88627 20.616C6.86863 20.6882 6.82454 20.7333 6.75399 20.7513C6.70107 20.7513 6.63934 20.7513 6.56879 20.7513C6.0573 20.7513 5.537 20.7423 5.00787 20.7242C4.47874 20.7062 3.95843 20.6972 3.44695 20.6972C3.05892 20.6972 2.67971 20.7062 2.30932 20.7242C1.93893 20.7423 1.55973 20.7513 1.1717 20.7513C1.01296 20.7513 0.933594 20.6611 0.933594 20.4807C0.933594 20.2282 1.05706 20.102 1.30398 20.102C1.39217 20.102 1.498 20.111 1.62146 20.129C1.74492 20.129 1.8772 20.129 2.0183 20.129C2.21232 20.129 2.40633 20.0749 2.60034 19.9667C2.81199 19.8404 2.98837 19.624 3.12947 19.3174C3.21766 19.155 3.39403 18.7222 3.6586 18.0187C3.92316 17.3153 4.24945 16.4405 4.63748 15.3944C5.02551 14.3302 5.43117 13.1939 5.85447 11.9854C6.29541 10.7589 6.72753 9.54145 7.15083 8.33299C7.57413 7.12452 7.95334 6.00624 8.28845 4.97815C8.64121 3.95005 8.92341 3.10232 9.13506 2.43496C9.34671 1.74957 9.45253 1.34374 9.45253 1.21748C9.45253 1.18141 9.42608 1.13632 9.37316 1.0822C9.32025 1.01006 9.2938 0.964967 9.2938 0.946929C9.2938 0.874782 9.32025 0.82969 9.37316 0.811654C9.54954 0.775581 9.73473 0.748526 9.92875 0.730489C10.1228 0.712452 10.308 0.694415 10.4843 0.676378C10.7136 0.640305 10.9429 0.61325 11.1722 0.595212C11.4015 0.559139 11.6308 0.532084 11.8601 0.514048L18.7123 19.4527C18.7828 19.633 18.9151 19.7773 19.1091 19.8855C19.3207 19.9757 19.5148 20.0208 19.6911 20.0208C19.8499 20.0208 20.0086 20.0208 20.1674 20.0208C20.3437 20.0028 20.5201 19.9938 20.6965 19.9938C20.767 19.9938 20.8111 20.0388 20.8288 20.129C20.8464 20.2192 20.8552 20.2914 20.8552 20.3455Z" fill="#6B7280"/>
<path d="M33.5388 13.0135C33.5388 12.4003 33.5035 11.76 33.4329 11.0926C33.3624 10.4072 33.2125 9.76691 32.9832 9.1717C32.7539 8.57648 32.4099 8.09851 31.9514 7.73777C31.4928 7.359 30.8667 7.16961 30.073 7.16961C29.5968 7.16961 29.0853 7.29587 28.5385 7.54839C28.0094 7.78286 27.542 8.10753 27.1363 8.52237C26.7483 8.93722 26.5278 9.41519 26.4749 9.95629C26.4396 10.5154 26.422 11.0836 26.422 11.6608C26.422 12.2379 26.422 12.8151 26.422 13.3923C26.422 13.8973 26.422 14.4114 26.422 14.9344C26.4396 15.4395 26.4573 15.9535 26.4749 16.4766C26.5278 17.3965 26.8188 18.1811 27.348 18.8304C27.8771 19.4617 28.6267 19.7773 29.5968 19.7773C30.5139 19.7773 31.2371 19.5699 31.7662 19.155C32.2953 18.7222 32.6833 18.163 32.9303 17.4776C33.1948 16.7922 33.3624 16.0617 33.4329 15.2862C33.5035 14.4925 33.5388 13.735 33.5388 13.0135ZM36.2638 13.0406C36.2638 14.4474 36.0168 15.719 35.523 16.8554C35.0291 17.9917 34.2883 18.8935 33.3006 19.5609C32.3306 20.2102 31.1136 20.5349 29.6497 20.5349C29.0853 20.5349 28.5032 20.3906 27.9036 20.102C27.3215 19.7954 26.8277 19.4436 26.422 19.0468V24.8096C26.422 25.0621 26.519 25.2064 26.713 25.2425C26.9247 25.2785 27.1187 25.2966 27.2951 25.2966C27.4538 25.2966 27.6125 25.2875 27.7713 25.2695C27.93 25.2515 28.0887 25.2425 28.2475 25.2425C28.4768 25.2425 28.5914 25.3597 28.5914 25.5942C28.5914 25.8647 28.4591 26 28.1946 26C27.6478 26 27.101 25.982 26.5543 25.9459C26.0075 25.9098 25.4608 25.8918 24.914 25.8918C24.4554 25.8918 23.9968 25.9098 23.5383 25.9459C23.0973 25.982 22.6476 26 22.189 26C22.0655 26 21.9862 25.9549 21.9509 25.8647C21.9332 25.7745 21.9244 25.6934 21.9244 25.6212C21.9244 25.3687 22.0479 25.2425 22.2948 25.2425C22.4359 25.2425 22.577 25.2425 22.7181 25.2425C22.8592 25.2605 23.0003 25.2695 23.1414 25.2695C23.2649 25.2695 23.4413 25.2515 23.6705 25.2154C23.9175 25.1793 24.0409 25.0711 24.0409 24.8907C24.0409 23.0149 24.0409 21.1301 24.0409 19.2362C24.0586 17.3424 24.0674 15.4575 24.0674 13.5817C24.0674 12.734 24.0586 11.8952 24.0409 11.0656C24.0409 10.2359 24.0321 9.40617 24.0145 8.57648C23.9968 8.17967 23.9263 7.90912 23.8028 7.76483C23.6794 7.6025 23.4148 7.52133 23.0091 7.52133C22.8328 7.52133 22.6564 7.54839 22.48 7.6025C22.3036 7.63857 22.1273 7.65661 21.9509 7.65661C21.7569 7.65661 21.6599 7.56642 21.6599 7.38606C21.6599 7.22372 21.7392 7.1155 21.898 7.06139C21.9332 7.04336 22.092 7.00728 22.3742 6.95317C22.6564 6.89906 22.9915 6.83593 23.3795 6.76379C23.7852 6.6736 24.182 6.59244 24.5701 6.52029C24.9581 6.44814 25.2844 6.38501 25.5489 6.3309C25.8135 6.27679 25.9546 6.24974 25.9722 6.24974C26.1133 6.24974 26.2103 6.33992 26.2633 6.52029C26.2985 6.62851 26.3162 6.82692 26.3162 7.1155C26.3338 7.38606 26.3426 7.66563 26.3426 7.95421C26.3426 8.22476 26.3426 8.43219 26.3426 8.57648C26.8365 7.90912 27.4626 7.359 28.221 6.92612C28.9971 6.4752 29.7996 6.24974 30.6286 6.24974C31.8455 6.24974 32.8685 6.58342 33.6975 7.25078C34.5441 7.9001 35.179 8.74783 35.6023 9.79396C36.0433 10.8221 36.2638 11.9043 36.2638 13.0406Z" fill="#6B7280"/>
<path d="M49.6347 13.0135C49.6347 12.4003 49.5995 11.76 49.5289 11.0926C49.4584 10.4072 49.3084 9.76691 49.0792 9.1717C48.8499 8.57648 48.5059 8.09851 48.0474 7.73777C47.5888 7.359 46.9627 7.16961 46.169 7.16961C45.6927 7.16961 45.1813 7.29587 44.6345 7.54839C44.1054 7.78286 43.638 8.10753 43.2323 8.52237C42.8443 8.93722 42.6238 9.41519 42.5709 9.95629C42.5356 10.5154 42.518 11.0836 42.518 11.6608C42.518 12.2379 42.518 12.8151 42.518 13.3923C42.518 13.8973 42.518 14.4114 42.518 14.9344C42.5356 15.4395 42.5533 15.9535 42.5709 16.4766C42.6238 17.3965 42.9148 18.1811 43.444 18.8304C43.9731 19.4617 44.7227 19.7773 45.6928 19.7773C46.6099 19.7773 47.333 19.5699 47.8622 19.155C48.3913 18.7222 48.7793 18.163 49.0263 17.4776C49.2908 16.7922 49.4584 16.0617 49.5289 15.2862C49.5995 14.4925 49.6347 13.735 49.6347 13.0135ZM52.3597 13.0406C52.3597 14.4474 52.1128 15.719 51.619 16.8554C51.1251 17.9917 50.3843 18.8935 49.3966 19.5609C48.4266 20.2102 47.2096 20.5349 45.7457 20.5349C45.1813 20.5349 44.5992 20.3906 43.9995 20.102C43.4175 19.7954 42.9237 19.4436 42.518 19.0468V24.8096C42.518 25.0621 42.615 25.2064 42.809 25.2425C43.0207 25.2785 43.2147 25.2966 43.391 25.2966C43.5498 25.2966 43.7085 25.2875 43.8673 25.2695C44.026 25.2515 44.1847 25.2425 44.3435 25.2425C44.5728 25.2425 44.6874 25.3597 44.6874 25.5942C44.6874 25.8647 44.5551 26 44.2906 26C43.7438 26 43.197 25.982 42.6503 25.9459C42.1035 25.9098 41.5567 25.8918 41.01 25.8918C40.5514 25.8918 40.0928 25.9098 39.6342 25.9459C39.1933 25.982 38.7436 26 38.285 26C38.1615 26 38.0821 25.9549 38.0469 25.8647C38.0292 25.7745 38.0204 25.6934 38.0204 25.6212C38.0204 25.3687 38.1439 25.2425 38.3908 25.2425C38.5319 25.2425 38.673 25.2425 38.8141 25.2425C38.9552 25.2605 39.0963 25.2695 39.2374 25.2695C39.3609 25.2695 39.5372 25.2515 39.7665 25.2154C40.0135 25.1793 40.1369 25.0711 40.1369 24.8907C40.1369 23.0149 40.1369 21.1301 40.1369 19.2362C40.1546 17.3424 40.1634 15.4575 40.1634 13.5817C40.1634 12.734 40.1546 11.8952 40.1369 11.0656C40.1369 10.2359 40.1281 9.40617 40.1105 8.57648C40.0928 8.17967 40.0223 7.90912 39.8988 7.76483C39.7754 7.6025 39.5108 7.52133 39.1051 7.52133C38.9287 7.52133 38.7524 7.54839 38.576 7.6025C38.3996 7.63857 38.2232 7.65661 38.0469 7.65661C37.8529 7.65661 37.7558 7.56642 37.7558 7.38606C37.7558 7.22372 37.8352 7.1155 37.994 7.06139C38.0292 7.04336 38.188 7.00728 38.4702 6.95317C38.7524 6.89906 39.0875 6.83593 39.4755 6.76379C39.8812 6.6736 40.278 6.59244 40.666 6.52029C41.0541 6.44814 41.3804 6.38501 41.6449 6.3309C41.9095 6.27679 42.0506 6.24974 42.0682 6.24974C42.2093 6.24974 42.3063 6.33992 42.3593 6.52029C42.3945 6.62851 42.4122 6.82692 42.4122 7.1155C42.4298 7.38606 42.4386 7.66563 42.4386 7.95421C42.4386 8.22476 42.4386 8.43219 42.4386 8.57648C42.9325 7.90912 43.5586 7.359 44.317 6.92612C45.0931 6.4752 45.8956 6.24974 46.7245 6.24974C47.9415 6.24974 48.9645 6.58342 49.7935 7.25078C50.6401 7.9001 51.275 8.74783 51.6983 9.79396C52.1393 10.8221 52.3597 11.9043 52.3597 13.0406Z" fill="#6B7280"/>
<path d="M61.7094 20.3996C61.7094 20.4898 61.6829 20.58 61.63 20.6701C61.5947 20.7423 61.5242 20.7784 61.4184 20.7784C60.8716 20.7784 60.316 20.7693 59.7516 20.7513C59.1872 20.7152 58.6228 20.6972 58.0584 20.6972H57.1324C56.762 20.6972 56.3917 20.7152 56.0213 20.7513C55.6509 20.7693 55.2805 20.7784 54.9101 20.7784C54.8395 20.7784 54.7866 20.7513 54.7514 20.6972C54.7337 20.625 54.7249 20.5619 54.7249 20.5078C54.7249 20.4537 54.7249 20.3996 54.7249 20.3455C54.7249 20.2914 54.7337 20.2373 54.7514 20.1831C54.7866 20.111 54.8836 20.0749 55.0424 20.0749C55.2188 20.0569 55.3951 20.0569 55.5715 20.0749C55.7655 20.0749 55.889 20.0749 55.9419 20.0749C56.1888 20.0749 56.4093 20.0208 56.6033 19.9126C56.7973 19.7863 56.8943 19.5789 56.8943 19.2903C56.8943 17.9015 56.9031 16.5217 56.9208 15.1509C56.9384 13.7621 56.9472 12.3822 56.9472 11.0114C56.9472 9.60458 56.9384 8.19771 56.9208 6.79084C56.9208 5.36594 56.9208 3.95005 56.9208 2.54318C56.9208 2.41693 56.912 2.28165 56.8943 2.13736C56.8767 1.97503 56.8238 1.84877 56.7356 1.75858C56.665 1.6684 56.5945 1.62331 56.5239 1.62331C56.4534 1.60527 56.3652 1.59625 56.2594 1.59625C55.9419 1.59625 55.6244 1.65036 55.3069 1.75858C55.0071 1.8668 54.7073 1.92092 54.4074 1.92092C54.2134 1.92092 54.1164 1.80368 54.1164 1.5692C54.1164 1.4249 54.2222 1.3257 54.4339 1.27159C54.6632 1.21748 54.8395 1.18141 54.963 1.16337C55.5803 1.01908 56.2506 0.856746 56.9737 0.676378C57.6968 0.496011 58.3494 0.288588 58.9315 0.0541096C58.9667 0.0541096 59.002 0.0450913 59.0373 0.0270548C59.0726 0.00901827 59.099 0 59.1167 0C59.2225 0 59.2842 0.0360736 59.3018 0.108221C59.3371 0.180367 59.3548 0.261532 59.3548 0.351717C59.3548 0.856747 59.3459 1.36178 59.3283 1.86681C59.3283 2.3538 59.3283 2.84981 59.3283 3.35484V10.9303C59.3283 12.3191 59.3371 13.717 59.3548 15.1238C59.3724 16.5127 59.3812 17.9015 59.3812 19.2903C59.3812 19.5789 59.4959 19.7863 59.7251 19.9126C59.9721 20.0208 60.2102 20.0749 60.4395 20.0749C60.6335 20.0749 60.8187 20.0659 60.9951 20.0479C61.1714 20.0298 61.3478 20.0208 61.5242 20.0208C61.6124 20.0208 61.6653 20.0749 61.6829 20.1831C61.7006 20.2733 61.7094 20.3455 61.7094 20.3996Z" fill="#6B7280"/>
<path d="M73.3159 11.2549C73.2982 10.5154 73.2365 9.812 73.1307 9.14464C73.0248 8.45924 72.7691 7.9001 72.3634 7.46722C71.9578 7.0163 71.2963 6.79084 70.3792 6.79084C69.5502 6.79084 68.8712 7.02532 68.3421 7.49428C67.8306 7.9452 67.4337 8.52237 67.1515 9.22581C66.8693 9.9112 66.6577 10.6146 66.5166 11.3361C66.9575 11.3541 67.3896 11.3722 67.8129 11.3902C68.2362 11.3902 68.6595 11.3902 69.0828 11.3902C69.7883 11.3902 70.4938 11.3812 71.1993 11.3632C71.9048 11.3271 72.6104 11.291 73.3159 11.2549ZM76.3583 17.4506C76.3583 17.5408 76.3407 17.5949 76.3054 17.6129C76.2525 17.7933 76.1202 18.0097 75.9086 18.2622C75.7146 18.5147 75.4941 18.7582 75.2472 18.9927C75.0002 19.2092 74.7974 19.3715 74.6387 19.4797C74.0566 19.8946 73.3952 20.2282 72.6544 20.4807C71.9313 20.7333 71.2082 20.8595 70.485 20.8595C69.8853 20.8595 69.2151 20.7603 68.4743 20.5619C67.7512 20.3635 67.1339 20.093 66.6224 19.7503C65.6347 19.0829 64.9116 18.2081 64.453 17.1259C63.9944 16.0437 63.7651 14.9164 63.7651 13.744C63.7651 12.4093 64.0209 11.1738 64.5323 10.0375C65.0438 8.90114 65.864 7.98127 66.9928 7.27783C67.5043 6.97121 68.0775 6.71869 68.7124 6.52029C69.3474 6.30385 69.9559 6.19563 70.5379 6.19563C71.5786 6.19563 72.4957 6.41207 73.2894 6.84495C74.0831 7.27784 74.7004 7.89109 75.1413 8.6847C75.5999 9.46028 75.8292 10.3892 75.8292 11.4714C75.8292 11.778 75.7587 11.9764 75.6176 12.0666C75.4941 12.1568 75.3001 12.2019 75.0355 12.2019C74.6828 12.2019 74.33 12.1929 73.9773 12.1748C73.6245 12.1568 73.2718 12.1387 72.919 12.1207C72.4252 12.0846 71.9313 12.0666 71.4375 12.0666C70.9612 12.0666 70.4762 12.0666 69.9824 12.0666C69.3827 12.0666 68.783 12.0666 68.1833 12.0666C67.5836 12.0666 66.984 12.0846 66.3843 12.1207C66.3667 12.4093 66.349 12.6889 66.3314 12.9594C66.3137 13.23 66.3049 13.5095 66.3049 13.7981C66.3049 14.4655 66.3843 15.1599 66.543 15.8814C66.7018 16.5848 66.9575 17.2431 67.3103 17.8564C67.663 18.4516 68.1128 18.9386 68.6595 19.3174C69.2063 19.6781 69.8677 19.8585 70.6438 19.8585C71.4375 19.8585 72.1959 19.7322 72.919 19.4797C73.6421 19.2272 74.3036 18.8214 74.9032 18.2622C75.062 18.0999 75.2031 17.9285 75.3265 17.7482C75.4676 17.5498 75.6175 17.3784 75.7763 17.2341C75.8645 17.1439 75.9615 17.0989 76.0673 17.0989C76.1555 17.0989 76.226 17.1349 76.279 17.2071C76.3319 17.2792 76.3583 17.3604 76.3583 17.4506Z" fill="#6B7280"/>
<path d="M93.9233 16.1249C93.9233 16.4495 93.8968 16.7832 93.8439 17.1259C93.791 17.4506 93.7469 17.7752 93.7116 18.0999C93.6587 18.4606 93.6234 18.8304 93.6058 19.2092C93.5882 19.5699 93.5352 19.9306 93.4471 20.2914C93.4294 20.3996 93.3765 20.5078 93.2883 20.616C93.2178 20.7062 93.1208 20.7513 92.9973 20.7513C91.1101 20.7513 89.2229 20.7423 87.3356 20.7242C85.4484 20.6882 83.5612 20.6701 81.674 20.6701C81.1096 20.6701 80.5364 20.6972 79.9543 20.7513C79.3899 20.7874 78.8255 20.8054 78.2611 20.8054C78.1729 20.8054 78.0847 20.7784 77.9966 20.7242C77.926 20.6521 77.8907 20.5709 77.8907 20.4807C77.8907 20.3725 77.9172 20.2733 77.9701 20.1831C78.023 20.0749 78.1112 20.0208 78.2347 20.0208C78.605 20.0208 78.9578 20.0028 79.2929 19.9667C79.628 19.9126 79.9014 19.7863 80.1131 19.5879C80.3424 19.3715 80.457 19.0288 80.457 18.5598V3.03018C80.457 2.61533 80.3335 2.34478 80.0866 2.21852C79.8397 2.07423 79.5398 2.00208 79.1871 2.00208C79.0107 2.00208 78.8432 2.0111 78.6844 2.02914C78.5257 2.02914 78.3669 2.02914 78.2082 2.02914C78.0671 2.02914 77.9436 1.99306 77.8378 1.92092C77.732 1.84877 77.6791 1.73153 77.6791 1.5692C77.6791 1.4249 77.7055 1.29865 77.7584 1.19043C77.8114 1.08221 77.926 1.0281 78.1024 1.0281C78.4022 1.0281 78.6932 1.03711 78.9754 1.05515C79.2753 1.07319 79.5663 1.0822 79.8485 1.0822C81.6299 1.0822 83.4113 1.07319 85.1927 1.05515C86.9741 1.01908 88.7466 1.00104 90.5104 1.00104C91.3217 1.00104 92.1242 0.973985 92.9179 0.919875C92.9885 1.44294 93.0767 1.96601 93.1825 2.48907C93.2883 3.01214 93.3765 3.53521 93.4471 4.05827C93.4823 4.16649 93.5088 4.27471 93.5264 4.38293C93.5441 4.47312 93.5529 4.57232 93.5529 4.68054C93.5529 4.86091 93.4912 4.98717 93.3677 5.05931C93.2619 5.13146 93.1296 5.16753 92.9708 5.16753C92.8297 5.16753 92.7239 5.14048 92.6534 5.08637C92.6005 5.01422 92.5475 4.906 92.4946 4.76171C92.1595 3.6795 91.7098 2.93097 91.1453 2.51613C90.5986 2.10128 89.7608 1.89386 88.632 1.89386H83.1291V10.0375C83.8169 10.0375 84.5048 10.0375 85.1927 10.0375C85.8805 10.0194 86.5772 9.99237 87.2827 9.95629C88.0059 9.92022 88.6761 9.85709 89.2934 9.76691C89.9284 9.65869 90.5986 9.54145 91.3041 9.41519H91.3306C91.4364 9.41519 91.4893 9.46028 91.4893 9.55047C91.4893 9.67673 91.4364 9.90218 91.3306 10.2268C91.2247 10.5515 91.1454 10.7679 91.0924 10.8762C91.0043 11.0926 90.8631 11.2008 90.6691 11.2008C90.2282 11.2008 89.7696 11.1738 89.2934 11.1197C88.8348 11.0475 88.3763 11.0114 87.9177 11.0114C87.6002 10.9934 87.2827 10.9934 86.9652 11.0114C86.6478 11.0114 86.3215 11.0114 85.9864 11.0114C85.8629 11.0114 85.7306 11.0114 85.5895 11.0114C85.4661 10.9934 85.3338 10.9844 85.1927 10.9844C84.9281 10.9844 84.6371 11.0114 84.3196 11.0656C84.0021 11.1016 83.7199 11.2099 83.473 11.3902C83.2437 11.5525 83.1291 11.8231 83.1291 12.2019V18.6951C83.1291 19.3084 83.279 19.6691 83.5788 19.7773C83.8787 19.8675 84.2755 19.9126 84.7694 19.9126H86.8859C87.3797 19.9126 87.9265 19.8855 88.5262 19.8314C89.1435 19.7773 89.7432 19.6601 90.3252 19.4797C90.9072 19.2993 91.3835 19.0378 91.7538 18.6951C92.1595 18.3163 92.4417 17.9015 92.6004 17.4506C92.7768 16.9816 92.9797 16.5127 93.2089 16.0437C93.2971 15.8814 93.4382 15.8002 93.6322 15.8002C93.8263 15.8002 93.9233 15.9084 93.9233 16.1249Z" fill="#6B7280"/>
<path d="M109.925 20.4807C109.925 20.6611 109.845 20.7513 109.687 20.7513H105.877C105.701 20.7513 105.568 20.6882 105.48 20.5619C105.392 20.4176 105.304 20.2643 105.216 20.102C105.127 19.9216 105.039 19.7503 104.951 19.5879C104.51 18.7402 104.025 17.9105 103.496 17.0989C102.967 16.2692 102.429 15.4575 101.882 14.6639C101.547 15.1689 101.212 15.683 100.877 16.206C100.542 16.7111 100.198 17.2251 99.8449 17.7482C99.5804 18.145 99.307 18.5328 99.0248 18.9116C98.7602 19.2903 98.5045 19.6871 98.2576 20.102C98.2223 20.1741 98.187 20.2463 98.1517 20.3184C98.1165 20.3725 98.0812 20.4357 98.0459 20.5078C98.0106 20.616 97.9577 20.6792 97.8872 20.6972L97.8343 20.7242H95.2415C95.171 20.7242 95.1093 20.6882 95.0563 20.616C95.0211 20.5258 95.0034 20.4537 95.0034 20.3996C95.0034 20.3094 95.0387 20.2553 95.1093 20.2373C95.1798 20.2012 95.2415 20.1831 95.2944 20.1831C95.6648 20.1831 95.9735 20.1471 96.2204 20.0749C96.485 20.0028 96.7584 19.8495 97.0406 19.615C97.4462 19.2542 97.7902 18.8755 98.0724 18.4787C98.6368 17.7392 99.2012 16.9997 99.7656 16.2601C100.348 15.5206 100.886 14.7541 101.379 13.9605C101.256 13.744 101.044 13.4013 100.744 12.9324C100.462 12.4454 100.136 11.9043 99.7656 11.3091C99.4128 10.7138 99.0512 10.1276 98.6809 9.55047C98.3105 8.97329 97.9754 8.47728 97.6755 8.06243C97.3933 7.64759 97.1905 7.39507 97.067 7.30489C96.9612 7.21471 96.8377 7.1606 96.6966 7.14256C96.5732 7.10649 96.4409 7.08845 96.2998 7.08845C96.1234 7.08845 95.9559 7.09747 95.7971 7.1155C95.6384 7.13354 95.4708 7.14256 95.2944 7.14256C95.1181 7.14256 95.0299 7.06139 95.0299 6.89906C95.0299 6.75477 95.1004 6.65557 95.2415 6.60146C95.365 6.54735 95.559 6.51127 95.8236 6.49324C96.0881 6.45716 96.3615 6.43011 96.6437 6.41207C96.9259 6.39403 97.1464 6.376 97.3051 6.35796C97.5168 6.32189 97.8078 6.27679 98.1782 6.22268C98.5486 6.15054 98.822 6.11446 98.9983 6.11446C99.1571 6.11446 99.2982 6.20465 99.4216 6.38502C99.6333 6.72771 99.8361 7.07041 100.03 7.41311C100.224 7.75581 100.418 8.09851 100.612 8.44121C100.983 9.10857 101.353 9.77593 101.723 10.4433C102.111 11.0926 102.499 11.751 102.887 12.4183C102.976 12.274 103.143 12.0125 103.39 11.6337C103.637 11.2369 103.919 10.795 104.237 10.308C104.554 9.82102 104.854 9.34304 105.136 8.87409C105.436 8.3871 105.683 7.97225 105.877 7.62955C106.071 7.26882 106.168 7.05238 106.168 6.98023C106.168 6.8179 106.089 6.72771 105.93 6.70968C105.771 6.6736 105.586 6.66458 105.374 6.68262C105.163 6.70066 104.977 6.70066 104.819 6.68262C104.66 6.66458 104.581 6.58342 104.581 6.43912C104.581 6.38502 104.598 6.33091 104.634 6.27679C104.669 6.20465 104.713 6.16857 104.766 6.16857C105.119 6.16857 105.463 6.17759 105.798 6.19563C106.15 6.19563 106.494 6.19563 106.829 6.19563C107.253 6.19563 107.676 6.18661 108.099 6.16857C108.523 6.15054 108.946 6.14152 109.369 6.14152C109.599 6.14152 109.713 6.24072 109.713 6.43912C109.713 6.61949 109.599 6.70968 109.369 6.70968C109.158 6.70968 108.99 6.70968 108.867 6.70968C108.655 6.70968 108.479 6.72771 108.337 6.76379C108.196 6.78182 108.046 6.86299 107.888 7.00728C107.782 7.09747 107.685 7.18765 107.597 7.27783C107.508 7.36802 107.42 7.47624 107.332 7.6025C106.679 8.50433 106.018 9.41519 105.348 10.3351C104.678 11.2369 104.007 12.1387 103.337 13.0406C104.043 14.1228 104.775 15.196 105.533 16.2601C106.291 17.3063 107.059 18.3344 107.835 19.3444C108.082 19.6691 108.355 19.8855 108.655 19.9938C108.955 20.102 109.299 20.1561 109.687 20.1561C109.845 20.1561 109.925 20.2643 109.925 20.4807Z" fill="#6B7280"/>
<path d="M122.26 13.0135C122.26 12.4003 122.225 11.76 122.155 11.0926C122.084 10.4072 121.934 9.76691 121.705 9.1717C121.476 8.57648 121.132 8.09851 120.673 7.73777C120.215 7.359 119.588 7.16961 118.795 7.16961C118.318 7.16961 117.807 7.29587 117.26 7.54839C116.731 7.78286 116.264 8.10753 115.858 8.52237C115.47 8.93722 115.25 9.41519 115.197 9.95629C115.161 10.5154 115.144 11.0836 115.144 11.6608C115.144 12.2379 115.144 12.8151 115.144 13.3923C115.144 13.8973 115.144 14.4114 115.144 14.9344C115.161 15.4395 115.179 15.9535 115.197 16.4766C115.25 17.3965 115.541 18.1811 116.07 18.8304C116.599 19.4617 117.348 19.7773 118.318 19.7773C119.236 19.7773 119.959 19.5699 120.488 19.155C121.017 18.7222 121.405 18.163 121.652 17.4776C121.917 16.7922 122.084 16.0617 122.155 15.2862C122.225 14.4925 122.26 13.735 122.26 13.0135ZM124.985 13.0406C124.985 14.4474 124.739 15.719 124.245 16.8554C123.751 17.9917 123.01 18.8935 122.022 19.5609C121.052 20.2102 119.835 20.5349 118.371 20.5349C117.807 20.5349 117.225 20.3906 116.625 20.102C116.043 19.7954 115.549 19.4436 115.144 19.0468V24.8096C115.144 25.0621 115.241 25.2064 115.435 25.2425C115.646 25.2785 115.84 25.2966 116.017 25.2966C116.176 25.2966 116.334 25.2875 116.493 25.2695C116.652 25.2515 116.81 25.2425 116.969 25.2425C117.199 25.2425 117.313 25.3597 117.313 25.5942C117.313 25.8647 117.181 26 116.916 26C116.37 26 115.823 25.982 115.276 25.9459C114.729 25.9098 114.182 25.8918 113.636 25.8918C113.177 25.8918 112.719 25.9098 112.26 25.9459C111.819 25.982 111.369 26 110.911 26C110.787 26 110.708 25.9549 110.673 25.8647C110.655 25.7745 110.646 25.6934 110.646 25.6212C110.646 25.3687 110.77 25.2425 111.017 25.2425C111.158 25.2425 111.299 25.2425 111.44 25.2425C111.581 25.2605 111.722 25.2695 111.863 25.2695C111.987 25.2695 112.163 25.2515 112.392 25.2154C112.639 25.1793 112.763 25.0711 112.763 24.8907C112.763 23.0149 112.763 21.1301 112.763 19.2362C112.78 17.3424 112.789 15.4575 112.789 13.5817C112.789 12.734 112.78 11.8952 112.763 11.0656C112.763 10.2359 112.754 9.40617 112.736 8.57648C112.719 8.17967 112.648 7.90912 112.525 7.76483C112.401 7.6025 112.137 7.52133 111.731 7.52133C111.554 7.52133 111.378 7.54839 111.202 7.6025C111.025 7.63857 110.849 7.65661 110.673 7.65661C110.479 7.65661 110.382 7.56642 110.382 7.38606C110.382 7.22372 110.461 7.1155 110.62 7.06139C110.655 7.04336 110.814 7.00728 111.096 6.95317C111.378 6.89906 111.713 6.83593 112.101 6.76379C112.507 6.6736 112.904 6.59244 113.292 6.52029C113.68 6.44814 114.006 6.38501 114.271 6.3309C114.535 6.27679 114.676 6.24974 114.694 6.24974C114.835 6.24974 114.932 6.33992 114.985 6.52029C115.02 6.62851 115.038 6.82692 115.038 7.1155C115.056 7.38606 115.064 7.66563 115.064 7.95421C115.064 8.22476 115.064 8.43219 115.064 8.57648C115.558 7.90912 116.184 7.359 116.943 6.92612C117.719 6.4752 118.521 6.24974 119.35 6.24974C120.567 6.24974 121.59 6.58342 122.419 7.25078C123.266 7.9001 123.901 8.74783 124.324 9.79396C124.765 10.8221 124.985 11.9043 124.985 13.0406Z" fill="#6B7280"/>
<path d="M137.51 8.71176C137.51 8.89213 137.439 9.06347 137.298 9.22581C137.175 9.3701 137.016 9.44225 136.822 9.44225C136.557 9.44225 136.363 9.35206 136.24 9.1717C136.134 8.99133 136.037 8.7839 135.949 8.54943C135.878 8.31495 135.764 8.10753 135.605 7.92716C135.446 7.74679 135.182 7.65661 134.811 7.65661C134.741 7.65661 134.67 7.65661 134.6 7.65661C134.547 7.65661 134.485 7.66563 134.414 7.68366C134.115 7.73777 133.788 7.92716 133.436 8.25182C133.083 8.57648 132.739 8.96427 132.404 9.41519C132.086 9.84807 131.822 10.281 131.61 10.7138C131.398 11.1467 131.284 11.5075 131.266 11.796C131.249 12.0846 131.24 12.3732 131.24 12.6618C131.24 12.9324 131.24 13.2029 131.24 13.4735C131.24 14.4474 131.24 15.4214 131.24 16.3954C131.257 17.3694 131.266 18.3344 131.266 19.2903C131.266 19.5609 131.372 19.7593 131.584 19.8855C131.813 19.9938 132.042 20.0479 132.272 20.0479C132.448 20.0479 132.624 20.0388 132.801 20.0208C132.977 20.0028 133.153 19.9938 133.33 19.9938C133.418 19.9938 133.48 20.0388 133.515 20.129C133.55 20.2012 133.568 20.2733 133.568 20.3455C133.568 20.6341 133.427 20.7784 133.145 20.7784C132.615 20.7784 132.086 20.7693 131.557 20.7513C131.028 20.7152 130.499 20.6972 129.97 20.6972C129.423 20.6972 128.867 20.7152 128.303 20.7513C127.756 20.7874 127.201 20.8054 126.636 20.8054C126.566 20.8054 126.513 20.7513 126.478 20.6431C126.46 20.5349 126.451 20.4447 126.451 20.3725C126.451 20.1922 126.522 20.093 126.663 20.0749C126.857 20.0388 127.06 20.0298 127.271 20.0479C127.483 20.0659 127.677 20.0749 127.853 20.0749C128.118 20.0749 128.33 20.0208 128.488 19.9126C128.665 19.7863 128.762 19.5789 128.779 19.2903C128.815 18.7131 128.832 18.1269 128.832 17.5317C128.85 16.9365 128.859 16.3413 128.859 15.7461V13.1217C128.841 12.3462 128.832 11.5796 128.832 10.8221C128.85 10.0465 128.823 9.27992 128.753 8.52237C128.735 8.16164 128.638 7.90912 128.462 7.76483C128.285 7.6025 128.021 7.52133 127.668 7.52133C127.527 7.52133 127.377 7.53937 127.218 7.57544C127.077 7.59348 126.927 7.6025 126.769 7.6025C126.628 7.6025 126.557 7.49428 126.557 7.27783C126.557 7.15158 126.619 7.06139 126.742 7.00728C126.919 6.95317 127.104 6.9171 127.298 6.89906C127.492 6.86299 127.677 6.83593 127.853 6.8179C128.33 6.72771 128.806 6.63753 129.282 6.54735C129.758 6.45716 130.234 6.34894 130.711 6.22268C130.869 6.27679 130.984 6.376 131.055 6.52029C131.09 6.59244 131.116 6.79084 131.134 7.1155C131.152 7.44017 131.16 7.81894 131.16 8.25182C131.16 8.66667 131.16 9.06348 131.16 9.44225C131.16 9.80298 131.16 10.0555 131.16 10.1998C131.548 9.5685 131.989 8.93722 132.483 8.30593C132.977 7.67464 133.541 7.15158 134.176 6.73673C134.811 6.32189 135.526 6.11446 136.319 6.11446C136.743 6.11446 137.016 6.24974 137.139 6.52029C137.263 6.79084 137.342 7.10649 137.378 7.46722C137.413 7.66563 137.439 7.87305 137.457 8.08949C137.492 8.30593 137.51 8.51335 137.51 8.71176Z" fill="#6B7280"/>
<path d="M148.551 11.2549C148.533 10.5154 148.472 9.812 148.366 9.14464C148.26 8.45924 148.004 7.9001 147.599 7.46722C147.193 7.0163 146.532 6.79084 145.614 6.79084C144.785 6.79084 144.106 7.02532 143.577 7.49428C143.066 7.9452 142.669 8.52237 142.387 9.22581C142.105 9.9112 141.893 10.6146 141.752 11.3361C142.193 11.3541 142.625 11.3722 143.048 11.3902C143.471 11.3902 143.895 11.3902 144.318 11.3902C145.024 11.3902 145.729 11.3812 146.435 11.3632C147.14 11.3271 147.846 11.291 148.551 11.2549ZM151.594 17.4506C151.594 17.5408 151.576 17.5949 151.541 17.6129C151.488 17.7933 151.355 18.0097 151.144 18.2622C150.95 18.5147 150.729 18.7582 150.482 18.9927C150.235 19.2092 150.033 19.3715 149.874 19.4797C149.292 19.8946 148.63 20.2282 147.89 20.4807C147.166 20.7333 146.443 20.8595 145.72 20.8595C145.121 20.8595 144.45 20.7603 143.71 20.5619C142.986 20.3635 142.369 20.093 141.858 19.7503C140.87 19.0829 140.147 18.2081 139.688 17.1259C139.23 16.0437 139 14.9164 139 13.744C139 12.4093 139.256 11.1738 139.768 10.0375C140.279 8.90114 141.099 7.98127 142.228 7.27783C142.739 6.97121 143.313 6.71869 143.948 6.52029C144.583 6.30385 145.191 6.19563 145.773 6.19563C146.814 6.19563 147.731 6.41207 148.525 6.84495C149.318 7.27784 149.936 7.89109 150.377 8.6847C150.835 9.46028 151.064 10.3892 151.064 11.4714C151.064 11.778 150.994 11.9764 150.853 12.0666C150.729 12.1568 150.535 12.2019 150.271 12.2019C149.918 12.2019 149.565 12.1929 149.212 12.1748C148.86 12.1568 148.507 12.1387 148.154 12.1207C147.66 12.0846 147.166 12.0666 146.673 12.0666C146.196 12.0666 145.711 12.0666 145.218 12.0666C144.618 12.0666 144.018 12.0666 143.419 12.0666C142.819 12.0666 142.219 12.0846 141.619 12.1207C141.602 12.4093 141.584 12.6889 141.567 12.9594C141.549 13.23 141.54 13.5095 141.54 13.7981C141.54 14.4655 141.619 15.1599 141.778 15.8814C141.937 16.5848 142.193 17.2431 142.545 17.8564C142.898 18.4516 143.348 18.9386 143.895 19.3174C144.442 19.6781 145.103 19.8585 145.879 19.8585C146.673 19.8585 147.431 19.7322 148.154 19.4797C148.877 19.2272 149.539 18.8214 150.138 18.2622C150.297 18.0999 150.438 17.9285 150.562 17.7482C150.703 17.5498 150.853 17.3784 151.011 17.2341C151.1 17.1439 151.197 17.0989 151.303 17.0989C151.391 17.0989 151.461 17.1349 151.514 17.2071C151.567 17.2792 151.594 17.3604 151.594 17.4506Z" fill="#6B7280"/>
<path d="M163.126 16.8824C163.126 17.6941 162.95 18.3614 162.597 18.8845C162.245 19.3895 161.786 19.7773 161.222 20.0479C160.657 20.3184 160.04 20.5078 159.37 20.616C158.699 20.7242 158.047 20.7784 157.412 20.7784C156.83 20.7784 156.248 20.7152 155.666 20.589C155.101 20.4627 154.528 20.3725 153.946 20.3184C153.823 19.8314 153.699 19.3444 153.576 18.8574C153.47 18.3704 153.346 17.8925 153.205 17.4235C153.188 17.3694 153.144 17.2431 153.073 17.0447C153.02 16.8463 152.994 16.7381 152.994 16.7201C152.994 16.5758 153.038 16.4766 153.126 16.4225C153.214 16.3503 153.32 16.3143 153.443 16.3143C153.567 16.3143 153.655 16.3593 153.708 16.4495C153.814 16.5758 153.902 16.7471 153.973 16.9636C154.061 17.18 154.14 17.3694 154.211 17.5317C154.352 17.8203 154.475 18.0458 154.581 18.2081C154.687 18.3524 154.854 18.5418 155.084 18.7763C155.772 19.5158 156.627 19.8855 157.65 19.8855C158.214 19.8855 158.726 19.8224 159.184 19.6961C159.661 19.5699 160.04 19.3354 160.322 18.9927C160.604 18.632 160.745 18.1179 160.745 17.4506C160.745 16.8734 160.569 16.3954 160.216 16.0166C159.863 15.6198 159.405 15.2681 158.84 14.9615C158.294 14.6549 157.712 14.3573 157.094 14.0687C156.477 13.7801 155.886 13.4644 155.322 13.1217C154.775 12.761 154.325 12.3281 153.973 11.8231C153.62 11.3181 153.443 10.7048 153.443 9.98335C153.443 9.09955 153.664 8.37808 154.105 7.81894C154.563 7.2598 155.145 6.84495 155.851 6.5744C156.556 6.28581 157.288 6.14152 158.047 6.14152C158.541 6.14152 158.982 6.20465 159.37 6.3309C159.775 6.45716 160.199 6.60146 160.64 6.76379C160.781 6.8179 160.922 6.85397 161.063 6.87201C161.204 6.89004 161.345 6.89906 161.486 6.89906C161.574 6.89906 161.654 6.89906 161.724 6.89906C161.795 6.89906 161.865 6.89004 161.936 6.87201C161.989 7.19667 162.033 7.53035 162.068 7.87305C162.121 8.19771 162.165 8.53139 162.2 8.87409C162.218 9.00035 162.236 9.15366 162.253 9.33403C162.289 9.49636 162.306 9.64967 162.306 9.79396C162.306 9.92022 162.28 10.0555 162.227 10.1998C162.174 10.326 162.068 10.3892 161.909 10.3892C161.786 10.3892 161.68 10.3802 161.592 10.3621C161.521 10.326 161.46 10.2449 161.407 10.1186C161.319 9.93826 161.239 9.74887 161.169 9.55047C161.116 9.33403 161.054 9.13562 160.983 8.95525C160.754 8.32397 160.357 7.81894 159.793 7.44017C159.229 7.04336 158.62 6.84495 157.967 6.84495C157.138 6.84495 156.512 7.09747 156.089 7.6025C155.666 8.08949 155.454 8.74783 155.454 9.57752C155.454 9.86611 155.525 10.1457 155.666 10.4162C155.824 10.6868 156.001 10.9213 156.195 11.1197C156.565 11.4804 156.997 11.76 157.491 11.9584C158.003 12.1568 158.488 12.3552 158.946 12.5536C159.546 12.8241 160.163 13.1488 160.798 13.5276C161.451 13.9063 161.998 14.3663 162.439 14.9074C162.897 15.4485 163.126 16.1068 163.126 16.8824Z" fill="#6B7280"/>
<path d="M174.934 16.8824C174.934 17.6941 174.757 18.3614 174.404 18.8845C174.052 19.3895 173.593 19.7773 173.029 20.0479C172.464 20.3184 171.847 20.5078 171.177 20.616C170.507 20.7242 169.854 20.7784 169.219 20.7784C168.637 20.7784 168.055 20.7152 167.473 20.589C166.909 20.4627 166.335 20.3725 165.753 20.3184C165.63 19.8314 165.506 19.3444 165.383 18.8574C165.277 18.3704 165.154 17.8925 165.012 17.4235C164.995 17.3694 164.951 17.2431 164.88 17.0447C164.827 16.8463 164.801 16.7381 164.801 16.7201C164.801 16.5758 164.845 16.4766 164.933 16.4225C165.021 16.3503 165.127 16.3143 165.251 16.3143C165.374 16.3143 165.462 16.3593 165.515 16.4495C165.621 16.5758 165.709 16.7471 165.78 16.9636C165.868 17.18 165.947 17.3694 166.018 17.5317C166.159 17.8203 166.282 18.0458 166.388 18.2081C166.494 18.3524 166.662 18.5418 166.891 18.7763C167.579 19.5158 168.434 19.8855 169.457 19.8855C170.022 19.8855 170.533 19.8224 170.992 19.6961C171.468 19.5699 171.847 19.3354 172.129 18.9927C172.411 18.632 172.553 18.1179 172.553 17.4506C172.553 16.8734 172.376 16.3954 172.023 16.0166C171.671 15.6198 171.212 15.2681 170.648 14.9615C170.101 14.6549 169.519 14.3573 168.902 14.0687C168.284 13.7801 167.693 13.4644 167.129 13.1217C166.582 12.761 166.132 12.3281 165.78 11.8231C165.427 11.3181 165.251 10.7048 165.251 9.98335C165.251 9.09955 165.471 8.37808 165.912 7.81894C166.371 7.2598 166.953 6.84495 167.658 6.5744C168.364 6.28581 169.096 6.14152 169.854 6.14152C170.348 6.14152 170.789 6.20465 171.177 6.3309C171.582 6.45716 172.006 6.60146 172.447 6.76379C172.588 6.8179 172.729 6.85397 172.87 6.87201C173.011 6.89004 173.152 6.89906 173.293 6.89906C173.381 6.89906 173.461 6.89906 173.531 6.89906C173.602 6.89906 173.673 6.89004 173.743 6.87201C173.796 7.19667 173.84 7.53035 173.875 7.87305C173.928 8.19771 173.972 8.53139 174.008 8.87409C174.025 9.00035 174.043 9.15366 174.061 9.33403C174.096 9.49636 174.113 9.64967 174.113 9.79396C174.113 9.92022 174.087 10.0555 174.034 10.1998C173.981 10.326 173.875 10.3892 173.717 10.3892C173.593 10.3892 173.487 10.3802 173.399 10.3621C173.329 10.326 173.267 10.2449 173.214 10.1186C173.126 9.93826 173.046 9.74887 172.976 9.55047C172.923 9.33403 172.861 9.13562 172.791 8.95525C172.561 8.32397 172.164 7.81894 171.6 7.44017C171.036 7.04336 170.427 6.84495 169.775 6.84495C168.946 6.84495 168.32 7.09747 167.896 7.6025C167.473 8.08949 167.261 8.74783 167.261 9.57752C167.261 9.86611 167.332 10.1457 167.473 10.4162C167.632 10.6868 167.808 10.9213 168.002 11.1197C168.372 11.4804 168.805 11.76 169.298 11.9584C169.81 12.1568 170.295 12.3552 170.753 12.5536C171.353 12.8241 171.97 13.1488 172.605 13.5276C173.258 13.9063 173.805 14.3663 174.246 14.9074C174.704 15.4485 174.934 16.1068 174.934 16.8824Z" fill="#6B7280"/>
</svg>
