<svg width="146" height="23" viewBox="0 0 146 23" fill="none" xmlns="http://www.w3.org/2000/svg">
<path d="M18.28 1.0744V3.36577C17.2934 2.42262 16.2164 1.70921 15.0492 1.24368C13.8819 0.766061 12.6244 0.530273 11.3024 0.530273C8.4133 0.530273 5.95629 1.56411 3.93135 3.62574C1.91286 5.69341 0.906839 8.34753 0.900391 11.582C0.900391 14.7017 1.9451 17.3135 4.02808 19.4114C6.11751 21.5093 8.59386 22.5673 11.4507 22.5673C12.7276 22.5673 13.9142 22.3497 15.004 21.9204C16.1003 21.4912 17.1902 20.7898 18.2736 19.8104V22.0292H23.8647V1.0744H18.28ZM16.8032 16.0197C15.6553 17.1744 14.2044 17.7427 12.4632 17.7427C10.722 17.7427 9.34838 17.1563 8.19404 15.9834C7.03969 14.8166 6.4593 13.3232 6.4593 11.5095C6.4593 9.69575 7.03324 8.22661 8.16179 7.0779C9.30324 5.92315 10.7284 5.35484 12.4438 5.35484C14.1592 5.35484 15.6618 5.9171 16.8097 7.04767C17.9576 8.18429 18.3316 9.47205 18.3252 11.3039C18.3252 13.1661 17.9576 14.871 16.8032 16.0197Z" fill="#6B7280"/>
<path d="M55.9156 1.0744V3.36577C54.9289 2.42262 53.8455 1.70921 52.6847 1.24368C51.511 0.766061 50.2664 0.530273 48.9315 0.530273C46.0488 0.530273 43.5918 1.56411 41.5669 3.62574C39.5484 5.69341 38.5359 8.34753 38.5359 11.582C38.5295 14.7017 39.5742 17.3135 41.6636 19.4114C43.753 21.5093 46.2229 22.5673 49.0927 22.5673C50.3631 22.5673 51.5497 22.3497 52.6331 21.9204C53.7294 21.4912 54.8193 20.7898 55.9027 19.8104V22.0292H61.4938V1.0744H55.9156ZM54.4388 16.0197C53.2844 17.1744 51.8399 17.7427 50.0987 17.7427C48.3575 17.7427 46.9775 17.1563 45.8231 15.9834C44.6688 14.8166 44.0884 13.3232 44.0948 11.5095C44.0948 9.70179 44.6623 8.22661 45.7973 7.0779C46.9388 5.92315 48.364 5.35484 50.0794 5.35484C51.7947 5.35484 53.2909 5.9171 54.4452 7.04767C55.5931 8.18429 55.9607 9.47205 55.9543 11.3039C55.9543 13.1661 55.5867 14.871 54.4388 16.0197Z" fill="#6B7280"/>
<path d="M95.1243 1.58811C93.9249 0.892837 92.5384 0.548224 90.9519 0.548224C89.4171 0.548224 88.0177 0.868653 86.7279 1.51556C85.4382 2.16246 84.3548 3.10561 83.4648 4.35105C82.7877 3.10561 81.8913 2.15641 80.7757 1.51556C79.6536 0.868653 78.4025 0.542179 77.0095 0.536133C75.6295 0.536133 74.3591 0.784012 73.1918 1.27372C72.0246 1.76344 70.967 2.50707 70.0125 3.50463V1.08026H64.4214V22.0291H70.0061V12.7306C70.0125 10.7234 70.1996 9.24817 70.5736 8.31107C70.9541 7.37396 71.5216 6.64846 72.2761 6.12852C73.037 5.61463 73.8818 5.35466 74.8105 5.35466C75.6424 5.35466 76.3582 5.56021 76.945 5.97133C77.5319 6.38245 77.9704 7.00517 78.2671 7.84554C78.5637 8.68591 78.712 10.0402 78.712 11.9144L78.6991 22.0291H84.2967V12.6036C84.3032 10.6024 84.4902 9.15748 84.8578 8.25665C85.2318 7.34978 85.7993 6.64846 86.5538 6.13457C87.3083 5.62067 88.1725 5.36675 89.1334 5.36675C90.3909 5.36675 91.3324 5.78996 91.9644 6.62428C92.5964 7.46465 92.9124 9.07284 92.9124 11.4368V22.0291H98.4971V9.76206C98.5035 7.247 98.2456 5.42721 97.7232 4.30873C97.2009 3.19025 96.3367 2.28338 95.1372 1.58811H95.1243Z" fill="#6B7280"/>
<path d="M124.227 12.0112C124.227 8.55902 123.131 5.78398 120.938 3.67399C118.746 1.57609 115.895 0.518066 112.394 0.518066C109.092 0.518066 106.345 1.57004 104.165 3.68608C101.972 5.79607 100.882 8.45019 100.882 11.6484C100.882 14.7681 101.972 17.3617 104.158 19.4355C106.344 21.5152 109.188 22.5491 112.671 22.5491C114.921 22.5551 116.856 22.1803 118.494 21.4245C120.126 20.6749 121.525 19.5141 122.699 17.9482L118.01 15.8563C116.514 17.2469 114.722 17.9482 112.645 17.9482C110.897 17.9421 109.472 17.4947 108.344 16.6C107.222 15.7112 106.538 14.5081 106.274 12.9967L124.208 13.0087L124.227 12.0112ZM106.538 8.89758C107.164 7.62191 107.847 6.72713 108.582 6.22533C109.756 5.40914 111.123 5.01012 112.677 5.01012C114.115 5.01012 115.373 5.37286 116.456 6.09232C117.546 6.81782 118.268 7.75492 118.636 8.90363H106.538V8.89758Z" fill="#6B7280"/>
<path d="M137.475 10.9471L145.026 1.07422H138.655L134.283 6.78752L129.891 1.07422H123.416L131.052 11.0015L122.61 22.0291H128.988L134.237 15.161L139.525 22.0291H146L137.475 10.9471Z" fill="#6B7280"/>
<path d="M37.3177 0.433105C36.2858 0.433105 35.383 0.61448 34.6285 0.971184C33.8869 1.32184 33.0292 1.95665 32.0683 2.89376V1.08001H26.7351V22.0288H32.3263V11.1342C32.3263 7.13793 33.4999 5.13676 36.3503 5.13676C36.8469 5.13676 37.3499 5.23954 37.8594 5.41487C38.7751 3.97596 39.8392 2.62169 41.0193 1.37625C39.7424 0.75958 38.5107 0.433105 37.3241 0.433105L37.3177 0.433105Z" fill="#6B7280"/>
</svg>
