<svg width="242" height="40" viewBox="0 0 242 40" fill="none" xmlns="http://www.w3.org/2000/svg">
<path fill-rule="evenodd" clip-rule="evenodd" d="M30.2705 0.86084V25.4806H29.2857C25.1159 25.4806 21.7357 22.1003 21.7357 17.9305L27.9727 19.5718V18.9153L22.0639 14.3196C22.0639 11.0119 21.0483 8.80275 20.0944 8.73915C19.2495 8.68282 18.453 10.3111 18.453 14.3196L12.5443 18.9153V19.5718L18.7813 17.9305C18.7813 22.1003 15.401 25.4806 11.2313 25.4806H2.36816L22.0639 0.86084H30.2705ZM26.9876 14.3194V4.30742H23.3767L22.0636 6.11286C23.1578 7.20707 24.3615 9.06723 24.6897 12.6781L26.9876 14.3194Z" fill="#6B7280"/>
<path d="M64.0746 24.2303C64.0516 24.5286 63.9254 24.781 63.696 24.9875C63.4895 25.194 63.2485 25.2973 62.9732 25.2973C62.652 25.2973 62.3881 25.194 62.1816 24.9875C61.998 24.781 61.9062 24.5286 61.9062 24.2303V2.27196C61.9062 1.97367 62.0095 1.72128 62.216 1.51477C62.4225 1.30827 62.6864 1.20501 63.0076 1.20501C63.2829 1.20501 63.5239 1.30827 63.7304 1.51477C63.9598 1.72128 64.0746 1.97367 64.0746 2.27196V24.2303Z" fill="#6B7280"/>
<path d="M78.5643 3.85516L70.2009 24.6433C70.1091 24.8728 69.9829 25.0449 69.8223 25.1596C69.6617 25.2743 69.4781 25.3317 69.2716 25.3317C68.9504 25.3317 68.7094 25.2514 68.5488 25.0908C68.3882 24.9072 68.2964 24.6892 68.2735 24.4368C68.2505 24.3221 68.262 24.1844 68.3079 24.0238L77.3941 1.79011C77.5088 1.53772 77.6465 1.36563 77.8071 1.27385C77.9907 1.15913 78.1972 1.10176 78.4266 1.10176C78.6561 1.10176 78.8511 1.1706 79.0118 1.30827C79.1953 1.42299 79.333 1.58361 79.4248 1.79011L88.4766 23.9206C88.5225 24.0582 88.5454 24.1959 88.5454 24.3336C88.5454 24.6548 88.4421 24.9072 88.2356 25.0908C88.0291 25.2514 87.7882 25.3317 87.5129 25.3317C87.2834 25.3317 87.0769 25.2743 86.8934 25.1596C86.7327 25.0219 86.6065 24.8498 86.5148 24.6433L77.9448 3.71749L78.5643 3.85516ZM72.1971 18.3449L73.0575 16.3143H83.7269L84.14 18.3449H72.1971Z" fill="#6B7280"/>
<path d="M110.214 2.99473C110.489 3.17829 110.65 3.41921 110.696 3.71749C110.742 3.99283 110.673 4.26817 110.489 4.54351C110.329 4.75002 110.122 4.86474 109.87 4.88769C109.617 4.91063 109.376 4.86474 109.147 4.75002C108.275 4.17639 107.334 3.72897 106.325 3.40774C105.338 3.08651 104.271 2.92589 103.124 2.92589C101.724 2.92589 100.416 3.17829 99.2003 3.68308C98.0072 4.16492 96.9632 4.87621 96.0683 5.81696C95.1735 6.73476 94.4736 7.82465 93.9688 9.08662C93.487 10.3486 93.2461 11.7368 93.2461 13.2511C93.2461 14.8114 93.4985 16.234 94.0033 17.5189C94.508 18.7809 95.2079 19.8708 96.1027 20.7886C97.0205 21.7064 98.076 22.4062 99.2691 22.888C100.462 23.3699 101.747 23.6108 103.124 23.6108C104.248 23.6108 105.304 23.4502 106.29 23.129C107.3 22.8077 108.241 22.3718 109.113 21.8211C109.342 21.6834 109.583 21.6375 109.835 21.6834C110.111 21.7064 110.329 21.8326 110.489 22.062C110.696 22.3144 110.765 22.5898 110.696 22.888C110.65 23.1634 110.501 23.3814 110.248 23.542C109.675 23.9091 108.998 24.2533 108.218 24.5745C107.438 24.8957 106.612 25.1481 105.74 25.3317C104.868 25.5382 103.996 25.6414 103.124 25.6414C101.472 25.6414 99.9231 25.3432 98.4775 24.7466C97.032 24.15 95.7471 23.3125 94.6228 22.2341C93.4985 21.1328 92.6151 19.8249 91.9726 18.3105C91.3531 16.7961 91.0434 15.1097 91.0434 13.2511C91.0434 11.4614 91.3531 9.82086 91.9726 8.32944C92.5921 6.81507 93.4526 5.5072 94.5539 4.40584C95.6553 3.30448 96.9402 2.44405 98.4087 1.82453C99.8772 1.20501 101.449 0.895257 103.124 0.895257C104.432 0.895257 105.694 1.07882 106.91 1.44594C108.126 1.81306 109.227 2.32932 110.214 2.99473Z" fill="#6B7280"/>
<path d="M117.281 24.2303C117.258 24.5286 117.131 24.781 116.902 24.9875C116.695 25.194 116.455 25.2973 116.179 25.2973C115.858 25.2973 115.594 25.194 115.388 24.9875C115.204 24.781 115.112 24.5286 115.112 24.2303V2.27196C115.112 1.97367 115.216 1.72128 115.422 1.51477C115.629 1.30827 115.892 1.20501 116.214 1.20501C116.489 1.20501 116.73 1.30827 116.936 1.51477C117.166 1.72128 117.281 1.97367 117.281 2.27196V24.2303Z" fill="#6B7280"/>
<path d="M145.193 13.2511C145.193 15.0638 144.906 16.7273 144.333 18.2417C143.782 19.7331 142.99 21.041 141.958 22.1653C140.925 23.2666 139.698 24.1271 138.275 24.7466C136.876 25.3432 135.338 25.6414 133.663 25.6414C131.988 25.6414 130.44 25.3432 129.017 24.7466C127.617 24.1271 126.401 23.2666 125.369 22.1653C124.336 21.041 123.533 19.7331 122.959 18.2417C122.409 16.7273 122.133 15.0638 122.133 13.2511C122.133 11.4385 122.409 9.78645 122.959 8.29502C123.533 6.78065 124.336 5.47279 125.369 4.37143C126.401 3.24712 127.617 2.38668 129.017 1.79011C130.44 1.1706 131.988 0.86084 133.663 0.86084C135.338 0.86084 136.876 1.1706 138.275 1.79011C139.698 2.38668 140.925 3.24712 141.958 4.37143C142.99 5.47279 143.782 6.78065 144.333 8.29502C144.906 9.78645 145.193 11.4385 145.193 13.2511ZM142.99 13.2511C142.99 11.209 142.589 9.41933 141.786 7.88201C141.006 6.32175 139.916 5.10567 138.516 4.23376C137.117 3.36185 135.499 2.92589 133.663 2.92589C131.851 2.92589 130.233 3.36185 128.81 4.23376C127.411 5.10567 126.309 6.32175 125.506 7.88201C124.726 9.41933 124.336 11.209 124.336 13.2511C124.336 15.2932 124.726 17.0944 125.506 18.6547C126.309 20.192 127.411 21.3966 128.81 22.2685C130.233 23.1404 131.851 23.5764 133.663 23.5764C135.499 23.5764 137.117 23.1404 138.516 22.2685C139.916 21.3966 141.006 20.192 141.786 18.6547C142.589 17.0944 142.99 15.2932 142.99 13.2511Z" fill="#6B7280"/>
<path d="M167.689 1.20501C167.988 1.20501 168.217 1.29679 168.378 1.48036C168.561 1.66392 168.653 1.89337 168.653 2.1687V24.1959C168.653 24.5401 168.538 24.8154 168.309 25.0219C168.102 25.2055 167.861 25.2973 167.586 25.2973C167.448 25.2973 167.299 25.2743 167.139 25.2284C166.978 25.1596 166.852 25.0678 166.76 24.9531L151.41 4.26817L151.995 3.95842V24.368C151.995 24.6204 151.903 24.8384 151.72 25.0219C151.536 25.2055 151.307 25.2973 151.031 25.2973C150.733 25.2973 150.492 25.2055 150.308 25.0219C150.148 24.8384 150.068 24.6204 150.068 24.368V2.23754C150.068 1.89336 150.171 1.64097 150.377 1.48036C150.584 1.29679 150.813 1.20501 151.066 1.20501C151.203 1.20501 151.352 1.23943 151.513 1.30827C151.674 1.35416 151.8 1.44594 151.892 1.58361L167.07 22.0276L166.726 22.6471V2.1687C166.726 1.89337 166.817 1.66392 167.001 1.48036C167.207 1.29679 167.437 1.20501 167.689 1.20501Z" fill="#6B7280"/>
<path d="M188.427 23.2666C188.703 23.2666 188.943 23.3699 189.15 23.5764C189.356 23.76 189.46 23.9894 189.46 24.2647C189.46 24.563 189.356 24.8154 189.15 25.0219C188.943 25.2055 188.703 25.2973 188.427 25.2973H176.14C175.842 25.2973 175.589 25.194 175.383 24.9875C175.199 24.781 175.108 24.5401 175.108 24.2647V2.23754C175.108 1.9622 175.211 1.72128 175.417 1.51477C175.624 1.30827 175.888 1.20501 176.209 1.20501C176.484 1.20501 176.725 1.30827 176.932 1.51477C177.161 1.72128 177.276 1.9622 177.276 2.23754V23.8517L176.622 23.2666H188.427Z" fill="#6B7280"/>
<path d="M195.594 24.2303C195.571 24.5286 195.445 24.781 195.215 24.9875C195.009 25.194 194.768 25.2973 194.492 25.2973C194.171 25.2973 193.907 25.194 193.701 24.9875C193.517 24.781 193.426 24.5286 193.426 24.2303V2.27196C193.426 1.97367 193.529 1.72128 193.735 1.51477C193.942 1.30827 194.206 1.20501 194.527 1.20501C194.802 1.20501 195.043 1.30827 195.25 1.51477C195.479 1.72128 195.594 1.97367 195.594 2.27196V24.2303Z" fill="#6B7280"/>
<path d="M219.652 1.20501C219.95 1.20501 220.179 1.29679 220.34 1.48036C220.523 1.66392 220.615 1.89337 220.615 2.1687V24.1959C220.615 24.5401 220.5 24.8154 220.271 25.0219C220.065 25.2055 219.824 25.2973 219.548 25.2973C219.411 25.2973 219.261 25.2743 219.101 25.2284C218.94 25.1596 218.814 25.0678 218.722 24.9531L203.372 4.26817L203.957 3.95842V24.368C203.957 24.6204 203.865 24.8384 203.682 25.0219C203.498 25.2055 203.269 25.2973 202.993 25.2973C202.695 25.2973 202.454 25.2055 202.271 25.0219C202.11 24.8384 202.03 24.6204 202.03 24.368V2.23754C202.03 1.89336 202.133 1.64097 202.34 1.48036C202.546 1.29679 202.775 1.20501 203.028 1.20501C203.166 1.20501 203.315 1.23943 203.475 1.30827C203.636 1.35416 203.762 1.44594 203.854 1.58361L219.032 22.0276L218.688 22.6471V2.1687C218.688 1.89337 218.78 1.66392 218.963 1.48036C219.17 1.29679 219.399 1.20501 219.652 1.20501Z" fill="#6B7280"/>
<path d="M228.102 1.20501H240.734C241.009 1.20501 241.25 1.30827 241.456 1.51477C241.663 1.69833 241.766 1.93926 241.766 2.23754C241.766 2.53583 241.663 2.77675 241.456 2.96031C241.25 3.14387 241.009 3.23565 240.734 3.23565H228.894L229.238 2.65055V12.3219L228.86 11.8744H239.185C239.46 11.8744 239.701 11.9777 239.908 12.1842C240.114 12.3907 240.217 12.6316 240.217 12.907C240.217 13.2053 240.114 13.4462 239.908 13.6297C239.701 13.8133 239.46 13.9051 239.185 13.9051H228.928L229.238 13.5609V23.4731L229.066 23.2666H240.734C241.009 23.2666 241.25 23.3699 241.456 23.5764C241.663 23.7829 241.766 24.0238 241.766 24.2992C241.766 24.5974 241.663 24.8384 241.456 25.0219C241.25 25.2055 241.009 25.2973 240.734 25.2973H228.102C227.827 25.2973 227.586 25.194 227.38 24.9875C227.173 24.781 227.07 24.5401 227.07 24.2647V2.23754C227.07 1.9622 227.173 1.72128 227.38 1.51477C227.586 1.30827 227.827 1.20501 228.102 1.20501Z" fill="#6B7280"/>
<path fill-rule="evenodd" clip-rule="evenodd" d="M55.425 1.34958C55.9788 1.37628 56.406 1.84684 56.3793 2.40061C56.0884 8.43444 55.2099 13.4234 52.7448 17.1952C50.2408 21.0265 46.2078 23.4482 39.981 24.5887C38.4832 24.8631 37.1641 23.6877 37.1641 22.2158V2.35225C37.1641 1.79785 37.6135 1.34841 38.1679 1.34841C38.7223 1.34841 39.1718 1.79785 39.1718 2.35225V22.2158C39.1718 22.4852 39.4044 22.6533 39.6192 22.6139C45.4807 21.5402 48.9467 19.3368 51.0642 16.0968C53.2207 12.7972 54.0863 8.26881 54.374 2.3039C54.4007 1.75014 54.8713 1.32287 55.425 1.34958Z" fill="#6B7280"/>
<path d="M125.902 39.1734C125.902 39.2579 125.87 39.3318 125.807 39.3952C125.743 39.4585 125.669 39.4902 125.584 39.4902C125.492 39.4902 125.414 39.4585 125.351 39.3952C125.294 39.3318 125.266 39.2579 125.266 39.1734V34.3155C125.266 34.231 125.294 34.1571 125.351 34.0937C125.414 34.0303 125.492 33.9986 125.584 33.9986C125.676 33.9986 125.75 34.0303 125.807 34.0937C125.87 34.1571 125.902 34.231 125.902 34.3155V39.1734ZM125.584 33.2911C125.436 33.2911 125.322 33.2594 125.245 33.196C125.174 33.1256 125.139 33.0271 125.139 32.9003V32.7947C125.139 32.668 125.178 32.5729 125.255 32.5096C125.34 32.4392 125.453 32.404 125.595 32.404C125.729 32.404 125.831 32.4392 125.902 32.5096C125.98 32.5729 126.019 32.668 126.019 32.7947V32.9003C126.019 33.0271 125.98 33.1256 125.902 33.196C125.831 33.2594 125.725 33.2911 125.584 33.2911Z" fill="#9CA3AF"/>
<path d="M130.109 33.967C130.576 33.967 130.947 34.062 131.223 34.2521C131.505 34.4352 131.707 34.6886 131.827 35.0125C131.954 35.3293 132.018 35.6813 132.018 36.0686V39.1734C132.018 39.2579 131.986 39.3318 131.922 39.3952C131.859 39.4585 131.784 39.4902 131.7 39.4902C131.601 39.4902 131.523 39.4585 131.466 39.3952C131.41 39.3318 131.382 39.2579 131.382 39.1734V36.1002C131.382 35.8186 131.336 35.5616 131.244 35.3293C131.152 35.097 131 34.9104 130.788 34.7696C130.583 34.6288 130.311 34.5584 129.972 34.5584C129.668 34.5584 129.378 34.6288 129.102 34.7696C128.834 34.9104 128.615 35.097 128.445 35.3293C128.275 35.5616 128.191 35.8186 128.191 36.1002V39.1734C128.191 39.2579 128.159 39.3318 128.095 39.3952C128.031 39.4585 127.957 39.4902 127.872 39.4902C127.774 39.4902 127.696 39.4585 127.639 39.3952C127.583 39.3318 127.554 39.2579 127.554 39.1734V34.4422C127.554 34.3577 127.583 34.2838 127.639 34.2204C127.703 34.1571 127.781 34.1254 127.872 34.1254C127.964 34.1254 128.039 34.1571 128.095 34.2204C128.159 34.2838 128.191 34.3577 128.191 34.4422V35.3293L127.947 35.7095C127.961 35.4842 128.031 35.2695 128.159 35.0653C128.293 34.8541 128.463 34.6675 128.668 34.5056C128.873 34.3366 129.099 34.2063 129.346 34.1148C129.601 34.0162 129.855 33.967 130.109 33.967Z" fill="#9CA3AF"/>
<path d="M135.645 31.7175C135.751 31.7175 135.864 31.7281 135.984 31.7492C136.111 31.7703 136.221 31.8091 136.313 31.8654C136.404 31.9147 136.45 31.9921 136.45 32.0977C136.45 32.1752 136.422 32.2456 136.366 32.3089C136.309 32.3653 136.245 32.3934 136.175 32.3934C136.104 32.3934 136.016 32.3758 135.91 32.3406C135.804 32.2984 135.691 32.2772 135.57 32.2772C135.422 32.2772 135.295 32.3125 135.189 32.3829C135.083 32.4462 135.002 32.5413 134.945 32.668C134.888 32.7877 134.86 32.9355 134.86 33.1115V39.1734C134.86 39.2579 134.828 39.3318 134.765 39.3952C134.708 39.4585 134.634 39.4902 134.542 39.4902C134.45 39.4902 134.373 39.4585 134.309 39.3952C134.252 39.3318 134.224 39.2579 134.224 39.1734V33.1115C134.224 32.661 134.355 32.316 134.616 32.0766C134.885 31.8372 135.228 31.7175 135.645 31.7175ZM136.048 34.1993C136.132 34.1993 136.203 34.2275 136.26 34.2838C136.316 34.3401 136.344 34.4105 136.344 34.495C136.344 34.5795 136.316 34.6499 136.26 34.7062C136.203 34.7625 136.132 34.7907 136.048 34.7907H133.45C133.372 34.7907 133.302 34.7625 133.238 34.7062C133.182 34.6429 133.153 34.5724 133.153 34.495C133.153 34.4035 133.182 34.3331 133.238 34.2838C133.302 34.2275 133.372 34.1993 133.45 34.1993H136.048Z" fill="#9CA3AF"/>
<path d="M142.425 36.7867C142.425 37.3218 142.305 37.804 142.064 38.2335C141.831 38.6559 141.513 38.9904 141.11 39.2368C140.707 39.4761 140.251 39.5958 139.743 39.5958C139.241 39.5958 138.785 39.4761 138.375 39.2368C137.972 38.9904 137.651 38.6559 137.41 38.2335C137.177 37.804 137.06 37.3218 137.06 36.7867C137.06 36.2446 137.177 35.7623 137.41 35.3399C137.651 34.9174 137.972 34.583 138.375 34.3366C138.785 34.0902 139.241 33.967 139.743 33.967C140.251 33.967 140.707 34.0902 141.11 34.3366C141.513 34.583 141.831 34.9174 142.064 35.3399C142.305 35.7623 142.425 36.2446 142.425 36.7867ZM141.789 36.7867C141.789 36.3572 141.7 35.977 141.524 35.6461C141.347 35.3082 141.103 35.0442 140.792 34.8541C140.488 34.6569 140.138 34.5584 139.743 34.5584C139.354 34.5584 139.004 34.6569 138.693 34.8541C138.389 35.0442 138.145 35.3082 137.962 35.6461C137.785 35.977 137.697 36.3572 137.697 36.7867C137.697 37.2162 137.785 37.5963 137.962 37.9272C138.145 38.2581 138.389 38.5222 138.693 38.7193C139.004 38.9094 139.354 39.0044 139.743 39.0044C140.138 39.0044 140.488 38.9094 140.792 38.7193C141.103 38.5222 141.347 38.2581 141.524 37.9272C141.7 37.5963 141.789 37.2162 141.789 36.7867Z" fill="#9CA3AF"/>
<path d="M144.044 39.4902C143.945 39.4902 143.867 39.4585 143.811 39.3952C143.754 39.3318 143.726 39.2579 143.726 39.1734V34.4422C143.726 34.3577 143.754 34.2838 143.811 34.2204C143.874 34.1571 143.952 34.1254 144.044 34.1254C144.136 34.1254 144.21 34.1571 144.267 34.2204C144.33 34.2838 144.362 34.3577 144.362 34.4422V36.0263L144.203 36.058C144.224 35.8116 144.284 35.5687 144.383 35.3293C144.489 35.0829 144.631 34.8576 144.807 34.6534C144.984 34.4492 145.192 34.2838 145.433 34.1571C145.68 34.0303 145.956 33.967 146.26 33.967C146.387 33.967 146.511 33.9951 146.631 34.0515C146.751 34.1007 146.811 34.1852 146.811 34.3049C146.811 34.4105 146.783 34.4915 146.726 34.5478C146.67 34.6041 146.602 34.6323 146.525 34.6323C146.461 34.6323 146.39 34.6147 146.313 34.5795C146.242 34.5443 146.147 34.5267 146.026 34.5267C145.829 34.5267 145.631 34.5865 145.433 34.7062C145.235 34.8189 145.055 34.9738 144.892 35.1709C144.729 35.368 144.599 35.5898 144.5 35.8362C144.408 36.0756 144.362 36.3185 144.362 36.5649V39.1734C144.362 39.2579 144.33 39.3318 144.267 39.3952C144.203 39.4585 144.129 39.4902 144.044 39.4902Z" fill="#9CA3AF"/>
<path d="M150.243 34.0515C150.682 34.0515 151.056 34.1676 151.367 34.4C151.678 34.6253 151.89 34.9632 152.003 35.4138L151.855 35.456L151.918 35.2659C152.01 35.0547 152.162 34.8576 152.374 34.6745C152.593 34.4844 152.841 34.3331 153.116 34.2204C153.392 34.1078 153.671 34.0515 153.954 34.0515C154.399 34.0515 154.756 34.1465 155.025 34.3366C155.3 34.5267 155.498 34.7837 155.618 35.1075C155.746 35.4243 155.809 35.7834 155.809 36.1847V39.1734C155.809 39.2579 155.777 39.3318 155.714 39.3952C155.657 39.4585 155.583 39.4902 155.491 39.4902C155.399 39.4902 155.321 39.4585 155.258 39.3952C155.201 39.3318 155.173 39.2579 155.173 39.1734V36.2164C155.173 35.9277 155.127 35.6637 155.035 35.4243C154.943 35.185 154.798 34.9949 154.601 34.8541C154.403 34.7133 154.138 34.6429 153.805 34.6429C153.516 34.6429 153.237 34.7133 152.968 34.8541C152.706 34.9949 152.491 35.185 152.321 35.4243C152.159 35.6637 152.077 35.9277 152.077 36.2164V39.1734C152.077 39.2579 152.046 39.3318 151.982 39.3952C151.925 39.4585 151.851 39.4902 151.759 39.4902C151.667 39.4902 151.59 39.4585 151.526 39.3952C151.47 39.3318 151.441 39.2579 151.441 39.1734V36.1847C151.441 35.8961 151.399 35.6356 151.314 35.4032C151.229 35.1709 151.091 34.9878 150.901 34.8541C150.71 34.7133 150.452 34.6429 150.127 34.6429C149.837 34.6429 149.561 34.7133 149.3 34.8541C149.045 34.9878 148.837 35.1709 148.674 35.4032C148.519 35.6356 148.441 35.8961 148.441 36.1847V39.1734C148.441 39.2579 148.409 39.3318 148.346 39.3952C148.282 39.4585 148.208 39.4902 148.123 39.4902C148.024 39.4902 147.946 39.4585 147.89 39.3952C147.833 39.3318 147.805 39.2579 147.805 39.1734V34.4422C147.805 34.3577 147.833 34.2838 147.89 34.2204C147.953 34.1571 148.031 34.1254 148.123 34.1254C148.215 34.1254 148.289 34.1571 148.346 34.2204C148.409 34.2838 148.441 34.3577 148.441 34.4422V35.4243L148.155 35.8151C148.176 35.6039 148.243 35.3927 148.356 35.1815C148.476 34.9702 148.632 34.7801 148.823 34.6112C149.014 34.4422 149.229 34.3084 149.469 34.2099C149.717 34.1043 149.975 34.0515 150.243 34.0515Z" fill="#9CA3AF"/>
<path d="M161.874 34.0937C161.966 34.0937 162.04 34.1254 162.097 34.1887C162.161 34.2521 162.192 34.3296 162.192 34.4211V39.1734C162.192 39.2579 162.161 39.3318 162.097 39.3952C162.033 39.4585 161.959 39.4902 161.874 39.4902C161.775 39.4902 161.698 39.4585 161.641 39.3952C161.585 39.3318 161.556 39.2579 161.556 39.1734V37.9167L161.737 37.8322C161.737 38.0293 161.68 38.23 161.567 38.4342C161.461 38.6383 161.312 38.8284 161.122 39.0044C160.931 39.1804 160.705 39.3248 160.443 39.4374C160.189 39.543 159.91 39.5958 159.606 39.5958C159.132 39.5958 158.705 39.4726 158.323 39.2262C157.948 38.9798 157.651 38.6419 157.432 38.2124C157.22 37.7829 157.114 37.3006 157.114 36.7656C157.114 36.2164 157.224 35.7341 157.443 35.3187C157.662 34.8963 157.959 34.5654 158.333 34.326C158.708 34.0867 159.129 33.967 159.595 33.967C159.899 33.967 160.182 34.0198 160.443 34.1254C160.712 34.231 160.945 34.3753 161.143 34.5584C161.341 34.7414 161.496 34.9526 161.609 35.192C161.722 35.4243 161.779 35.6672 161.779 35.9207L161.556 35.7623V34.4211C161.556 34.3296 161.585 34.2521 161.641 34.1887C161.698 34.1254 161.775 34.0937 161.874 34.0937ZM159.669 39.0044C160.044 39.0044 160.376 38.9094 160.666 38.7193C160.956 38.5222 161.182 38.2546 161.344 37.9167C161.514 37.5717 161.599 37.188 161.599 36.7656C161.599 36.3502 161.514 35.977 161.344 35.6461C161.182 35.3152 160.956 35.0512 160.666 34.8541C160.376 34.6569 160.044 34.5584 159.669 34.5584C159.302 34.5584 158.97 34.6534 158.673 34.8435C158.383 35.0336 158.153 35.2941 157.984 35.625C157.821 35.9559 157.74 36.3361 157.74 36.7656C157.74 37.188 157.821 37.5717 157.984 37.9167C158.146 38.2546 158.372 38.5222 158.662 38.7193C158.959 38.9094 159.295 39.0044 159.669 39.0044Z" fill="#9CA3AF"/>
<path d="M166.291 34.0515C166.729 34.0515 167.103 34.1676 167.414 34.4C167.725 34.6253 167.937 34.9632 168.05 35.4138L167.902 35.456L167.966 35.2659C168.057 35.0547 168.209 34.8576 168.421 34.6745C168.641 34.4844 168.888 34.3331 169.164 34.2204C169.439 34.1078 169.718 34.0515 170.001 34.0515C170.446 34.0515 170.803 34.1465 171.072 34.3366C171.348 34.5267 171.545 34.7837 171.666 35.1075C171.793 35.4243 171.856 35.7834 171.856 36.1847V39.1734C171.856 39.2579 171.825 39.3318 171.761 39.3952C171.704 39.4585 171.63 39.4902 171.538 39.4902C171.446 39.4902 171.369 39.4585 171.305 39.3952C171.249 39.3318 171.22 39.2579 171.22 39.1734V36.2164C171.22 35.9277 171.174 35.6637 171.082 35.4243C170.991 35.185 170.846 34.9949 170.648 34.8541C170.45 34.7133 170.185 34.6429 169.853 34.6429C169.563 34.6429 169.284 34.7133 169.015 34.8541C168.754 34.9949 168.538 35.185 168.368 35.4243C168.206 35.6637 168.125 35.9277 168.125 36.2164V39.1734C168.125 39.2579 168.093 39.3318 168.029 39.3952C167.973 39.4585 167.898 39.4902 167.807 39.4902C167.715 39.4902 167.637 39.4585 167.573 39.3952C167.517 39.3318 167.489 39.2579 167.489 39.1734V36.1847C167.489 35.8961 167.446 35.6356 167.361 35.4032C167.277 35.1709 167.139 34.9878 166.948 34.8541C166.757 34.7133 166.499 34.6429 166.174 34.6429C165.884 34.6429 165.609 34.7133 165.347 34.8541C165.093 34.9878 164.884 35.1709 164.722 35.4032C164.566 35.6356 164.488 35.8961 164.488 36.1847V39.1734C164.488 39.2579 164.457 39.3318 164.393 39.3952C164.329 39.4585 164.255 39.4902 164.17 39.4902C164.071 39.4902 163.994 39.4585 163.937 39.3952C163.88 39.3318 163.852 39.2579 163.852 39.1734V34.4422C163.852 34.3577 163.88 34.2838 163.937 34.2204C164.001 34.1571 164.078 34.1254 164.17 34.1254C164.262 34.1254 164.336 34.1571 164.393 34.2204C164.457 34.2838 164.488 34.3577 164.488 34.4422V35.4243L164.202 35.8151C164.223 35.6039 164.29 35.3927 164.404 35.1815C164.524 34.9702 164.679 34.7801 164.87 34.6112C165.061 34.4422 165.276 34.3084 165.517 34.2099C165.764 34.1043 166.022 34.0515 166.291 34.0515Z" fill="#9CA3AF"/>
<path d="M178.526 36.7867C178.526 37.3218 178.406 37.804 178.165 38.2335C177.932 38.6559 177.614 38.9904 177.211 39.2368C176.808 39.4761 176.353 39.5958 175.844 39.5958C175.342 39.5958 174.886 39.4761 174.476 39.2368C174.073 38.9904 173.752 38.6559 173.511 38.2335C173.278 37.804 173.162 37.3218 173.162 36.7867C173.162 36.2446 173.278 35.7623 173.511 35.3399C173.752 34.9174 174.073 34.583 174.476 34.3366C174.886 34.0902 175.342 33.967 175.844 33.967C176.353 33.967 176.808 34.0902 177.211 34.3366C177.614 34.583 177.932 34.9174 178.165 35.3399C178.406 35.7623 178.526 36.2446 178.526 36.7867ZM177.89 36.7867C177.89 36.3572 177.801 35.977 177.625 35.6461C177.448 35.3082 177.204 35.0442 176.893 34.8541C176.589 34.6569 176.24 34.5584 175.844 34.5584C175.455 34.5584 175.105 34.6569 174.794 34.8541C174.49 35.0442 174.246 35.3082 174.063 35.6461C173.886 35.977 173.798 36.3572 173.798 36.7867C173.798 37.2162 173.886 37.5963 174.063 37.9272C174.246 38.2581 174.49 38.5222 174.794 38.7193C175.105 38.9094 175.455 39.0044 175.844 39.0044C176.24 39.0044 176.589 38.9094 176.893 38.7193C177.204 38.5222 177.448 38.2581 177.625 37.9272C177.801 37.5963 177.89 37.2162 177.89 36.7867Z" fill="#9CA3AF"/>
<path d="M179.52 38.6348C179.463 38.5503 179.435 38.4694 179.435 38.3919C179.442 38.3074 179.488 38.2405 179.573 38.1913C179.629 38.142 179.693 38.1209 179.763 38.1279C179.841 38.1349 179.912 38.1701 179.975 38.2335C180.166 38.4799 180.396 38.6806 180.665 38.8355C180.94 38.9833 181.265 39.0572 181.64 39.0572C181.838 39.0572 182.032 39.0256 182.223 38.9622C182.421 38.8918 182.583 38.7897 182.711 38.6559C182.838 38.5151 182.901 38.3391 182.901 38.1279C182.901 37.9096 182.838 37.7336 182.711 37.5999C182.583 37.4661 182.417 37.3605 182.212 37.283C182.014 37.2056 181.802 37.1387 181.576 37.0824C181.336 37.019 181.103 36.9486 180.877 36.8712C180.65 36.7867 180.449 36.6846 180.272 36.5649C180.103 36.4382 179.965 36.2868 179.859 36.1108C179.753 35.9348 179.7 35.72 179.7 35.4666C179.7 35.1709 179.781 34.9104 179.944 34.6851C180.106 34.4598 180.325 34.2838 180.601 34.1571C180.884 34.0303 181.202 33.967 181.555 33.967C181.732 33.967 181.923 33.9916 182.128 34.0409C182.332 34.0831 182.534 34.1571 182.732 34.2627C182.93 34.3683 183.106 34.5126 183.262 34.6957C183.325 34.759 183.357 34.8329 183.357 34.9174C183.357 34.9949 183.322 35.0653 183.251 35.1286C183.195 35.1709 183.128 35.192 183.05 35.192C182.979 35.192 182.919 35.1638 182.87 35.1075C182.7 34.9174 182.499 34.7731 182.265 34.6745C182.032 34.576 181.781 34.5267 181.513 34.5267C181.308 34.5267 181.113 34.5619 180.93 34.6323C180.753 34.6957 180.604 34.7942 180.484 34.928C180.364 35.0618 180.304 35.2378 180.304 35.456C180.318 35.6602 180.389 35.8257 180.516 35.9524C180.65 36.0791 180.824 36.1847 181.036 36.2692C181.255 36.3537 181.498 36.4311 181.767 36.5015C181.993 36.5579 182.209 36.6248 182.414 36.7022C182.626 36.7796 182.81 36.8782 182.965 36.9979C183.128 37.1105 183.255 37.2549 183.347 37.4309C183.446 37.6069 183.495 37.8287 183.495 38.0962C183.495 38.406 183.407 38.6735 183.23 38.8988C183.06 39.1241 182.831 39.2966 182.541 39.4163C182.251 39.536 181.93 39.5958 181.576 39.5958C181.195 39.5958 180.824 39.5219 180.463 39.3741C180.11 39.2262 179.795 38.9798 179.52 38.6348Z" fill="#9CA3AF"/>
<path d="M184.881 39.4902C184.761 39.4902 184.669 39.4515 184.606 39.3741C184.542 39.2966 184.51 39.198 184.51 39.0784V38.8566C184.51 38.7299 184.542 38.6313 184.606 38.5609C184.669 38.4905 184.761 38.4553 184.881 38.4553H184.955C185.076 38.4553 185.168 38.4905 185.231 38.5609C185.295 38.6313 185.327 38.7299 185.327 38.8566V39.0784C185.327 39.198 185.295 39.2966 185.231 39.3741C185.168 39.4515 185.076 39.4902 184.955 39.4902H184.881Z" fill="#9CA3AF"/>
<path d="M190.226 39.1734C190.226 39.2579 190.194 39.3318 190.13 39.3952C190.066 39.4585 189.992 39.4902 189.907 39.4902C189.816 39.4902 189.738 39.4585 189.674 39.3952C189.618 39.3318 189.589 39.2579 189.589 39.1734V34.3155C189.589 34.231 189.618 34.1571 189.674 34.0937C189.738 34.0303 189.816 33.9986 189.907 33.9986C189.999 33.9986 190.074 34.0303 190.13 34.0937C190.194 34.1571 190.226 34.231 190.226 34.3155V39.1734ZM189.907 33.2911C189.759 33.2911 189.646 33.2594 189.568 33.196C189.498 33.1256 189.462 33.0271 189.462 32.9003V32.7947C189.462 32.668 189.501 32.5729 189.579 32.5096C189.664 32.4392 189.777 32.404 189.918 32.404C190.052 32.404 190.155 32.4392 190.226 32.5096C190.303 32.5729 190.342 32.668 190.342 32.7947V32.9003C190.342 33.0271 190.303 33.1256 190.226 33.196C190.155 33.2594 190.049 33.2911 189.907 33.2911Z" fill="#9CA3AF"/>
<path d="M194.433 33.967C194.899 33.967 195.27 34.062 195.546 34.2521C195.829 34.4352 196.03 34.6886 196.15 35.0125C196.278 35.3293 196.341 35.6813 196.341 36.0686V39.1734C196.341 39.2579 196.309 39.3318 196.246 39.3952C196.182 39.4585 196.108 39.4902 196.023 39.4902C195.924 39.4902 195.846 39.4585 195.79 39.3952C195.733 39.3318 195.705 39.2579 195.705 39.1734V36.1002C195.705 35.8186 195.659 35.5616 195.567 35.3293C195.475 35.097 195.323 34.9104 195.111 34.7696C194.906 34.6288 194.634 34.5584 194.295 34.5584C193.991 34.5584 193.701 34.6288 193.426 34.7696C193.157 34.9104 192.938 35.097 192.768 35.3293C192.599 35.5616 192.514 35.8186 192.514 36.1002V39.1734C192.514 39.2579 192.482 39.3318 192.419 39.3952C192.355 39.4585 192.281 39.4902 192.196 39.4902C192.097 39.4902 192.019 39.4585 191.963 39.3952C191.906 39.3318 191.878 39.2579 191.878 39.1734V34.4422C191.878 34.3577 191.906 34.2838 191.963 34.2204C192.026 34.1571 192.104 34.1254 192.196 34.1254C192.288 34.1254 192.362 34.1571 192.419 34.2204C192.482 34.2838 192.514 34.3577 192.514 34.4422V35.3293L192.27 35.7095C192.284 35.4842 192.355 35.2695 192.482 35.0653C192.617 34.8541 192.786 34.6675 192.991 34.5056C193.196 34.3366 193.422 34.2063 193.67 34.1148C193.924 34.0162 194.178 33.967 194.433 33.967Z" fill="#9CA3AF"/>
<path d="M200.562 33.967C201.028 33.967 201.399 34.062 201.675 34.2521C201.958 34.4352 202.159 34.6886 202.279 35.0125C202.407 35.3293 202.47 35.6813 202.47 36.0686V39.1734C202.47 39.2579 202.438 39.3318 202.375 39.3952C202.311 39.4585 202.237 39.4902 202.152 39.4902C202.053 39.4902 201.975 39.4585 201.919 39.3952C201.862 39.3318 201.834 39.2579 201.834 39.1734V36.1002C201.834 35.8186 201.788 35.5616 201.696 35.3293C201.604 35.097 201.452 34.9104 201.24 34.7696C201.035 34.6288 200.763 34.5584 200.424 34.5584C200.12 34.5584 199.83 34.6288 199.555 34.7696C199.286 34.9104 199.067 35.097 198.897 35.3293C198.728 35.5616 198.643 35.8186 198.643 36.1002V39.1734C198.643 39.2579 198.611 39.3318 198.548 39.3952C198.484 39.4585 198.41 39.4902 198.325 39.4902C198.226 39.4902 198.148 39.4585 198.092 39.3952C198.035 39.3318 198.007 39.2579 198.007 39.1734V34.4422C198.007 34.3577 198.035 34.2838 198.092 34.2204C198.155 34.1571 198.233 34.1254 198.325 34.1254C198.417 34.1254 198.491 34.1571 198.548 34.2204C198.611 34.2838 198.643 34.3577 198.643 34.4422V35.3293L198.399 35.7095C198.413 35.4842 198.484 35.2695 198.611 35.0653C198.746 34.8541 198.915 34.6675 199.12 34.5056C199.325 34.3366 199.551 34.2063 199.799 34.1148C200.053 34.0162 200.307 33.967 200.562 33.967Z" fill="#9CA3AF"/>
<path d="M209.14 36.7867C209.14 37.3218 209.02 37.804 208.779 38.2335C208.546 38.6559 208.228 38.9904 207.825 39.2368C207.422 39.4761 206.967 39.5958 206.458 39.5958C205.956 39.5958 205.5 39.4761 205.09 39.2368C204.687 38.9904 204.366 38.6559 204.125 38.2335C203.892 37.804 203.776 37.3218 203.776 36.7867C203.776 36.2446 203.892 35.7623 204.125 35.3399C204.366 34.9174 204.687 34.583 205.09 34.3366C205.5 34.0902 205.956 33.967 206.458 33.967C206.967 33.967 207.422 34.0902 207.825 34.3366C208.228 34.583 208.546 34.9174 208.779 35.3399C209.02 35.7623 209.14 36.2446 209.14 36.7867ZM208.504 36.7867C208.504 36.3572 208.415 35.977 208.239 35.6461C208.062 35.3082 207.818 35.0442 207.507 34.8541C207.203 34.6569 206.853 34.5584 206.458 34.5584C206.069 34.5584 205.719 34.6569 205.408 34.8541C205.104 35.0442 204.86 35.3082 204.677 35.6461C204.5 35.977 204.412 36.3572 204.412 36.7867C204.412 37.2162 204.5 37.5963 204.677 37.9272C204.86 38.2581 205.104 38.5222 205.408 38.7193C205.719 38.9094 206.069 39.0044 206.458 39.0044C206.853 39.0044 207.203 38.9094 207.507 38.7193C207.818 38.5222 208.062 38.2581 208.239 37.9272C208.415 37.5963 208.504 37.2162 208.504 36.7867Z" fill="#9CA3AF"/>
<path d="M210.262 33.9775C210.319 33.9775 210.375 33.9951 210.432 34.0303C210.488 34.0655 210.531 34.1183 210.559 34.1887L212.414 38.582L212.276 38.6665L214.174 34.1887C214.23 34.0479 214.333 33.981 214.481 33.9881C214.552 33.9881 214.619 34.0127 214.683 34.062C214.746 34.1043 214.778 34.1676 214.778 34.2521C214.778 34.2943 214.771 34.3296 214.757 34.3577C214.75 34.3788 214.743 34.4035 214.736 34.4316L212.658 39.2896C212.601 39.4163 212.506 39.4832 212.372 39.4902C212.308 39.4973 212.244 39.4832 212.181 39.448C212.124 39.4057 212.082 39.3529 212.054 39.2896L209.965 34.4316C209.958 34.4176 209.951 34.3964 209.944 34.3683C209.937 34.3401 209.933 34.3119 209.933 34.2838C209.933 34.2063 209.962 34.1359 210.018 34.0726C210.075 34.0092 210.156 33.9775 210.262 33.9775Z" fill="#9CA3AF"/>
<path d="M220.379 34.0937C220.471 34.0937 220.546 34.1254 220.602 34.1887C220.666 34.2521 220.698 34.3296 220.698 34.4211V39.1734C220.698 39.2579 220.666 39.3318 220.602 39.3952C220.539 39.4585 220.464 39.4902 220.379 39.4902C220.281 39.4902 220.203 39.4585 220.146 39.3952C220.09 39.3318 220.061 39.2579 220.061 39.1734V37.9167L220.242 37.8322C220.242 38.0293 220.185 38.23 220.072 38.4342C219.966 38.6383 219.818 38.8284 219.627 39.0044C219.436 39.1804 219.21 39.3248 218.948 39.4374C218.694 39.543 218.415 39.5958 218.111 39.5958C217.637 39.5958 217.21 39.4726 216.828 39.2262C216.453 38.9798 216.157 38.6419 215.937 38.2124C215.725 37.7829 215.619 37.3006 215.619 36.7656C215.619 36.2164 215.729 35.7341 215.948 35.3187C216.167 34.8963 216.464 34.5654 216.839 34.326C217.213 34.0867 217.634 33.967 218.1 33.967C218.404 33.967 218.687 34.0198 218.948 34.1254C219.217 34.231 219.45 34.3753 219.648 34.5584C219.846 34.7414 220.001 34.9526 220.114 35.192C220.228 35.4243 220.284 35.6672 220.284 35.9207L220.061 35.7623V34.4211C220.061 34.3296 220.09 34.2521 220.146 34.1887C220.203 34.1254 220.281 34.0937 220.379 34.0937ZM218.174 39.0044C218.549 39.0044 218.881 38.9094 219.171 38.7193C219.461 38.5222 219.687 38.2546 219.849 37.9167C220.019 37.5717 220.104 37.188 220.104 36.7656C220.104 36.3502 220.019 35.977 219.849 35.6461C219.687 35.3152 219.461 35.0512 219.171 34.8541C218.881 34.6569 218.549 34.5584 218.174 34.5584C217.807 34.5584 217.475 34.6534 217.178 34.8435C216.888 35.0336 216.658 35.2941 216.489 35.625C216.326 35.9559 216.245 36.3361 216.245 36.7656C216.245 37.188 216.326 37.5717 216.489 37.9167C216.651 38.2546 216.877 38.5222 217.167 38.7193C217.464 38.9094 217.8 39.0044 218.174 39.0044Z" fill="#9CA3AF"/>
<path d="M224.796 34.0515C225.234 34.0515 225.608 34.1676 225.919 34.4C226.23 34.6253 226.442 34.9632 226.556 35.4138L226.407 35.456L226.471 35.2659C226.563 35.0547 226.715 34.8576 226.927 34.6745C227.146 34.4844 227.393 34.3331 227.669 34.2204C227.944 34.1078 228.224 34.0515 228.506 34.0515C228.951 34.0515 229.308 34.1465 229.577 34.3366C229.853 34.5267 230.051 34.7837 230.171 35.1075C230.298 35.4243 230.361 35.7834 230.361 36.1847V39.1734C230.361 39.2579 230.33 39.3318 230.266 39.3952C230.21 39.4585 230.135 39.4902 230.043 39.4902C229.952 39.4902 229.874 39.4585 229.81 39.3952C229.754 39.3318 229.725 39.2579 229.725 39.1734V36.2164C229.725 35.9277 229.679 35.6637 229.588 35.4243C229.496 35.185 229.351 34.9949 229.153 34.8541C228.955 34.7133 228.69 34.6429 228.358 34.6429C228.068 34.6429 227.789 34.7133 227.52 34.8541C227.259 34.9949 227.043 35.185 226.874 35.4243C226.711 35.6637 226.63 35.9277 226.63 36.2164V39.1734C226.63 39.2579 226.598 39.3318 226.534 39.3952C226.478 39.4585 226.404 39.4902 226.312 39.4902C226.22 39.4902 226.142 39.4585 226.078 39.3952C226.022 39.3318 225.994 39.2579 225.994 39.1734V36.1847C225.994 35.8961 225.951 35.6356 225.866 35.4032C225.782 35.1709 225.644 34.9878 225.453 34.8541C225.262 34.7133 225.004 34.6429 224.679 34.6429C224.389 34.6429 224.114 34.7133 223.852 34.8541C223.598 34.9878 223.389 35.1709 223.227 35.4032C223.071 35.6356 222.993 35.8961 222.993 36.1847V39.1734C222.993 39.2579 222.962 39.3318 222.898 39.3952C222.834 39.4585 222.76 39.4902 222.675 39.4902C222.576 39.4902 222.499 39.4585 222.442 39.3952C222.386 39.3318 222.357 39.2579 222.357 39.1734V34.4422C222.357 34.3577 222.386 34.2838 222.442 34.2204C222.506 34.1571 222.583 34.1254 222.675 34.1254C222.767 34.1254 222.841 34.1571 222.898 34.2204C222.962 34.2838 222.993 34.3577 222.993 34.4422V35.4243L222.707 35.8151C222.728 35.6039 222.796 35.3927 222.909 35.1815C223.029 34.9702 223.184 34.7801 223.375 34.6112C223.566 34.4422 223.781 34.3084 224.022 34.2099C224.269 34.1043 224.527 34.0515 224.796 34.0515Z" fill="#9CA3AF"/>
<path d="M237.031 36.7867C237.031 37.3218 236.911 37.804 236.671 38.2335C236.437 38.6559 236.119 38.9904 235.716 39.2368C235.314 39.4761 234.858 39.5958 234.349 39.5958C233.847 39.5958 233.391 39.4761 232.981 39.2368C232.578 38.9904 232.257 38.6559 232.016 38.2335C231.783 37.804 231.667 37.3218 231.667 36.7867C231.667 36.2446 231.783 35.7623 232.016 35.3399C232.257 34.9174 232.578 34.583 232.981 34.3366C233.391 34.0902 233.847 33.967 234.349 33.967C234.858 33.967 235.314 34.0902 235.716 34.3366C236.119 34.583 236.437 34.9174 236.671 35.3399C236.911 35.7623 237.031 36.2446 237.031 36.7867ZM236.395 36.7867C236.395 36.3572 236.307 35.977 236.13 35.6461C235.953 35.3082 235.709 35.0442 235.398 34.8541C235.094 34.6569 234.745 34.5584 234.349 34.5584C233.96 34.5584 233.61 34.6569 233.299 34.8541C232.995 35.0442 232.752 35.3082 232.568 35.6461C232.391 35.977 232.303 36.3572 232.303 36.7867C232.303 37.2162 232.391 37.5963 232.568 37.9272C232.752 38.2581 232.995 38.5222 233.299 38.7193C233.61 38.9094 233.96 39.0044 234.349 39.0044C234.745 39.0044 235.094 38.9094 235.398 38.7193C235.709 38.5222 235.953 38.2581 236.13 37.9272C236.307 37.5963 236.395 37.2162 236.395 36.7867Z" fill="#9CA3AF"/>
<path d="M238.025 38.6348C237.968 38.5503 237.94 38.4694 237.94 38.3919C237.947 38.3074 237.993 38.2405 238.078 38.1913C238.134 38.142 238.198 38.1209 238.268 38.1279C238.346 38.1349 238.417 38.1701 238.481 38.2335C238.671 38.4799 238.901 38.6806 239.17 38.8355C239.445 38.9833 239.77 39.0572 240.145 39.0572C240.343 39.0572 240.537 39.0256 240.728 38.9622C240.926 38.8918 241.089 38.7897 241.216 38.6559C241.343 38.5151 241.407 38.3391 241.407 38.1279C241.407 37.9096 241.343 37.7336 241.216 37.5999C241.089 37.4661 240.922 37.3605 240.717 37.283C240.52 37.2056 240.308 37.1387 240.081 37.0824C239.841 37.019 239.608 36.9486 239.382 36.8712C239.155 36.7867 238.954 36.6846 238.777 36.5649C238.608 36.4382 238.47 36.2868 238.364 36.1108C238.258 35.9348 238.205 35.72 238.205 35.4666C238.205 35.1709 238.286 34.9104 238.449 34.6851C238.611 34.4598 238.83 34.2838 239.106 34.1571C239.389 34.0303 239.707 33.967 240.06 33.967C240.237 33.967 240.428 33.9916 240.633 34.0409C240.838 34.0831 241.039 34.1571 241.237 34.2627C241.435 34.3683 241.612 34.5126 241.767 34.6957C241.831 34.759 241.862 34.8329 241.862 34.9174C241.862 34.9949 241.827 35.0653 241.756 35.1286C241.7 35.1709 241.633 35.192 241.555 35.192C241.484 35.192 241.424 35.1638 241.375 35.1075C241.205 34.9174 241.004 34.7731 240.77 34.6745C240.537 34.576 240.286 34.5267 240.018 34.5267C239.813 34.5267 239.618 34.5619 239.435 34.6323C239.258 34.6957 239.11 34.7942 238.989 34.928C238.869 35.0618 238.809 35.2378 238.809 35.456C238.823 35.6602 238.894 35.8257 239.021 35.9524C239.155 36.0791 239.329 36.1847 239.541 36.2692C239.76 36.3537 240.004 36.4311 240.272 36.5015C240.498 36.5579 240.714 36.6248 240.919 36.7022C241.131 36.7796 241.315 36.8782 241.47 36.9979C241.633 37.1105 241.76 37.2549 241.852 37.4309C241.951 37.6069 242 37.8287 242 38.0962C242 38.406 241.912 38.6735 241.735 38.8988C241.566 39.1241 241.336 39.2966 241.046 39.4163C240.756 39.536 240.435 39.5958 240.081 39.5958C239.7 39.5958 239.329 39.5219 238.968 39.3741C238.615 39.2262 238.3 38.9798 238.025 38.6348Z" fill="#9CA3AF"/>
<path d="M118.205 36.7615H2" stroke="#9CA4AF" stroke-width="2.17294" stroke-linecap="round"/>
</svg>
