<svg width="111" height="42" viewBox="0 0 111 42" fill="none" xmlns="http://www.w3.org/2000/svg">
<g clip-path="url(#clip0_2736_9437)">
<path d="M0 0.777975H12.7467C13.9016 0.933642 15.0259 1.2668 16.0805 1.76585C17.1517 2.32004 18.038 3.17874 18.6295 4.23554C19.3183 3.31716 20.1653 2.53089 21.13 1.91419C22.2442 1.28471 23.4836 0.913282 24.7581 0.826903L37.1619 0.728271V3.49464L24.856 3.59327C23.8944 3.71648 22.9815 4.09135 22.2083 4.68056C21.1303 5.64426 20.3761 6.9217 20.0501 8.33617V41.7314H17.306L17.2081 8.43713C17.0565 7.23442 16.5034 6.11946 15.6396 5.27546C14.8949 4.44069 13.893 3.88287 12.7953 3.6919H0.0493336L0 0.777975Z" fill="#D1D5DB"/>
<path d="M10.8675 5.76709H0.0493165V18.9396C0.0492152 19.4932 0.157369 20.0414 0.367594 20.5529C0.57782 21.0644 0.885997 21.5292 1.27453 21.9206C1.66306 22.3121 2.12433 22.6226 2.63199 22.8344C3.13965 23.0463 3.68376 23.1552 4.23323 23.1551H15.0514V9.98265C15.0515 9.42903 14.9434 8.88081 14.7331 8.36931C14.5229 7.8578 14.2147 7.39304 13.8262 7.00157C13.4377 6.6101 12.9764 6.29959 12.4687 6.08778C11.9611 5.87596 11.417 5.76699 10.8675 5.76709ZM12.8939 21.3277H7.23087C6.91867 21.3278 6.60951 21.2659 6.32106 21.1456C6.0326 21.0253 5.7705 20.8488 5.54974 20.6264C5.32898 20.404 5.15389 20.1399 5.03447 19.8493C4.91504 19.5586 4.85362 19.2471 4.85372 18.9326V10.8556H10.5176C10.8298 10.8555 11.1389 10.9174 11.4274 11.0377C11.7158 11.158 11.9779 11.3344 12.1987 11.5569C12.4195 11.7793 12.5945 12.0434 12.714 12.334C12.8334 12.6247 12.8948 12.9362 12.8947 13.2507L12.8939 21.3277Z" fill="#6B7280"/>
<path d="M15.0514 41.7284V24.3403H4.23323C3.12358 24.3403 2.05939 24.7845 1.27475 25.575C0.490117 26.3656 0.0493164 27.4379 0.0493164 28.5559V41.7284H15.0514ZM12.8932 34.2455C12.8933 34.5601 12.8319 34.8716 12.7124 35.1622C12.593 35.4528 12.4179 35.7169 12.1972 35.9393C11.9764 36.1618 11.7143 36.3382 11.4258 36.4585C11.1374 36.5789 10.8282 36.6408 10.516 36.6407H4.85372V28.5637C4.85362 28.2491 4.91504 27.9376 5.03447 27.647C5.15389 27.3563 5.32898 27.0922 5.54974 26.8698C5.7705 26.6474 6.0326 26.471 6.32106 26.3506C6.60951 26.2303 6.91867 26.1684 7.23087 26.1685H12.8947L12.8932 34.2455Z" fill="#6B7280"/>
<path d="M22.209 9.98265V23.1551H33.0272C33.5766 23.1552 34.1208 23.0463 34.6284 22.8344C35.1361 22.6226 35.5973 22.3121 35.9859 21.9206C36.3744 21.5292 36.6826 21.0644 36.8928 20.5529C37.103 20.0414 37.2112 19.4932 37.2111 18.9396V5.76709H26.3929C25.8434 5.76699 25.2993 5.87596 24.7917 6.08778C24.284 6.29959 23.8227 6.6101 23.4342 7.00157C23.0457 7.39304 22.7375 7.8578 22.5273 8.36931C22.317 8.88081 22.2089 9.42903 22.209 9.98265ZM24.3672 13.2499C24.3671 12.9354 24.4285 12.6239 24.548 12.3332C24.6674 12.0426 24.8425 11.7785 25.0633 11.5561C25.284 11.3337 25.5461 11.1573 25.8346 11.0369C26.123 10.9166 26.4322 10.8547 26.7444 10.8548H32.4082V18.9318C32.4083 19.2464 32.3469 19.5579 32.2275 19.8485C32.108 20.1391 31.933 20.4032 31.7122 20.6256C31.4914 20.8481 31.2293 21.0245 30.9409 21.1448C30.6524 21.2652 30.3433 21.327 30.0311 21.3269H24.3672V13.2499Z" fill="#6B7280"/>
<path d="M37.2111 41.7284V28.5559C37.2111 27.4379 36.7703 26.3656 35.9856 25.575C35.201 24.7845 34.1368 24.3403 33.0272 24.3403H22.209V41.7284H37.2111ZM24.3672 26.1677H30.0311C30.3433 26.1676 30.6524 26.2295 30.9409 26.3499C31.2293 26.4702 31.4914 26.6466 31.7122 26.869C31.933 27.0915 32.108 27.3556 32.2275 27.6462C32.3469 27.9368 32.4083 28.2483 32.4082 28.5629V36.6399H26.7444C26.4322 36.64 26.123 36.5781 25.8346 36.4578C25.5461 36.3374 25.284 36.161 25.0633 35.9386C24.8425 35.7162 24.6674 35.4521 24.548 35.1614C24.4285 34.8708 24.3671 34.5593 24.3672 34.2447V26.1677Z" fill="#6B7280"/>
<path d="M41.7041 11.776H44.5145C45.0468 11.7699 45.5786 11.813 46.1031 11.9049C46.5062 11.9715 46.8935 12.1129 47.2454 12.3219C47.5423 12.5028 47.7827 12.7641 47.9391 13.076C48.104 13.4352 48.1833 13.8283 48.1704 14.2239C48.1722 14.483 48.139 14.7411 48.0717 14.9912C48.0121 15.2159 47.9143 15.4285 47.7827 15.6195C47.6579 15.7981 47.501 15.9517 47.3202 16.0723C47.1304 16.1968 46.9165 16.2791 46.6928 16.3138V16.3798C46.9249 16.4299 47.1507 16.5066 47.3657 16.6082C47.5727 16.7067 47.758 16.8462 47.9106 17.0182C48.076 17.2102 48.2011 17.434 48.2783 17.676C48.3748 17.9883 48.4201 18.3144 48.4124 18.6414C48.4189 19.0469 48.3401 19.4492 48.1812 19.8219C48.032 20.1628 47.8061 20.464 47.5214 20.7018C47.2132 20.9536 46.8584 21.1413 46.4777 21.254C46.0274 21.3877 45.5597 21.4523 45.0903 21.4458H41.6987L41.7041 11.776ZM43.7398 15.6063H44.7966C45.0109 15.6109 45.2249 15.5876 45.4333 15.5372C45.5852 15.5006 45.7268 15.4294 45.8472 15.329C45.9526 15.2362 46.031 15.1162 46.0738 14.9819C46.1224 14.8246 46.1455 14.6604 46.1424 14.4957C46.1563 14.3444 46.132 14.192 46.0717 14.0527C46.0115 13.9134 45.9173 13.7917 45.7979 13.6989C45.4648 13.5125 45.0848 13.4286 44.7049 13.4574H43.7398V15.6063ZM43.7398 17.2372V19.7574H44.9346C45.1623 19.7632 45.3896 19.732 45.6075 19.665C45.773 19.6132 45.9238 19.5224 46.0476 19.4001C46.1605 19.2832 46.2429 19.14 46.2873 18.9831C46.3375 18.8064 46.3619 18.6232 46.3598 18.4395C46.3618 18.2722 46.3373 18.1058 46.2873 17.9463C46.24 17.7998 46.1552 17.6686 46.0414 17.5657C45.9092 17.4511 45.7533 17.3676 45.5851 17.3211C45.3564 17.2585 45.1199 17.2295 44.8829 17.2349L43.7398 17.2372Z" fill="#6B7280"/>
<path d="M52.0369 17.7359V21.4467H50.002V11.776H52.6281C53.5906 11.6997 54.5505 11.9525 55.3529 12.4936C55.6567 12.7637 55.8941 13.101 56.0467 13.4791C56.1993 13.8572 56.2629 14.2659 56.2323 14.6729C56.2362 14.9778 56.192 15.2813 56.1013 15.5722C56.0202 15.8277 55.9017 16.0696 55.7498 16.2898C55.6069 16.4952 55.4368 16.68 55.2442 16.8389C55.0591 16.9921 54.8577 17.1242 54.6437 17.2327C55.1293 18.0176 55.5648 18.7189 55.9502 19.3366C56.1167 19.6011 56.2776 19.86 56.4328 20.1132L56.8497 20.7881C56.972 20.9864 57.0728 21.1451 57.1519 21.2642L57.2637 21.449H55.0052L52.9241 17.7382L52.0369 17.7359ZM52.0369 16.0693H52.588C53.0207 16.1095 53.453 15.9881 53.8028 15.7283C53.9312 15.5973 54.0305 15.4402 54.0939 15.2674C54.1573 15.0946 54.1834 14.9102 54.1705 14.7265C54.1887 14.5433 54.1623 14.3584 54.0936 14.1877C54.025 14.0171 53.9162 13.8659 53.7765 13.7471C53.4091 13.5255 52.9827 13.4238 52.5556 13.4559H52.0369V16.0693Z" fill="#6B7280"/>
<path d="M63.6104 21.4474L62.9537 19.1455H59.6446L58.9817 21.4474H56.9268L60.0454 11.7395H62.5336L65.6654 21.4474H63.6104ZM62.4811 17.4252L61.8645 15.3081C61.8383 15.2289 61.799 15.0995 61.7466 14.9198C61.6942 14.7402 61.6384 14.5405 61.5793 14.321C61.5202 14.1025 61.4645 13.8833 61.4121 13.6632C61.3597 13.4432 61.3224 13.2557 61.3003 13.1009C61.2828 13.1978 61.26 13.3124 61.2317 13.445C61.2034 13.5775 61.1706 13.7176 61.133 13.8651C61.0955 14.0127 61.0573 14.1616 61.0182 14.3117L60.9064 14.735C60.871 14.8675 60.8391 14.9843 60.8108 15.0852C60.7826 15.1862 60.7618 15.2613 60.7484 15.3105L60.1379 17.4276L62.4811 17.4252Z" fill="#6B7280"/>
<path d="M70.3974 21.4473L68.2901 13.8572H68.2307C68.2569 14.2632 68.2788 14.6556 68.2962 15.0346C68.305 15.1977 68.3127 15.3652 68.3193 15.5371C68.326 15.709 68.3327 15.8788 68.3394 16.0466C68.3461 16.2143 68.3505 16.3753 68.3525 16.5296C68.3546 16.6839 68.3546 16.8229 68.3525 16.9467V21.445H66.5342V11.7759H69.3044L71.3794 19.1717H71.4187L73.6248 11.7759H76.395V21.4473H74.4981V16.8698C74.4981 16.7554 74.4981 16.6259 74.4981 16.4815C74.4981 16.337 74.5014 16.1817 74.5081 16.0155C74.5127 15.8524 74.5181 15.687 74.5243 15.5192C74.5304 15.3515 74.5358 15.1884 74.5405 15.03C74.5579 14.6592 74.5733 14.2733 74.5867 13.872H74.5343L72.2628 21.4465L70.3974 21.4473Z" fill="#6B7280"/>
<path d="M84.7089 14.7893C84.7104 15.2026 84.6461 15.6134 84.5185 16.0062C84.3922 16.3929 84.1773 16.7441 83.8911 17.0314C83.5643 17.3492 83.1723 17.5907 82.7426 17.7389C82.1748 17.9301 81.5782 18.0197 80.9798 18.0037H80.5134V21.4435H78.4785V11.7759H81.144C81.6841 11.7654 82.2229 11.8356 82.7426 11.9841C83.1502 12.1009 83.5283 12.304 83.8518 12.5797C84.1418 12.8362 84.3641 13.1612 84.4985 13.5257C84.6439 13.9306 84.7152 14.3587 84.7089 14.7893ZM80.5134 16.327H80.9143C81.3723 16.3595 81.8281 16.2386 82.2108 15.9829C82.4834 15.6884 82.6388 15.303 82.6474 14.9003C82.6559 14.4976 82.5169 14.1058 82.257 13.7998C81.9027 13.5414 81.4681 13.4193 81.0322 13.4558H80.5134V16.327Z" fill="#6B7280"/>
<path d="M89.6844 21.4474H87.6556V13.483H85.2461V11.7744H92.087V13.483H89.6844V21.4474Z" fill="#6B7280"/>
<path d="M101.007 16.5981C101.015 17.2859 100.928 17.9715 100.748 18.6352C100.595 19.2092 100.326 19.7451 99.9576 20.2094C99.5968 20.6495 99.1364 20.9958 98.6149 21.219C97.3828 21.6953 96.0193 21.6953 94.7871 21.219C94.2662 20.9964 93.8065 20.65 93.4474 20.2094C93.0804 19.7435 92.8123 19.2066 92.6597 18.6321C92.314 17.2916 92.314 15.8843 92.6597 14.5439C92.8125 13.9728 93.0818 13.44 93.4505 12.9797C93.8122 12.5424 94.2726 12.1988 94.7933 11.9779C96.0273 11.5057 97.3902 11.5057 98.6241 11.9779C99.1434 12.1997 99.6017 12.5447 99.96 12.9836C100.327 13.4463 100.595 13.98 100.748 14.5516C100.928 15.2184 101.015 15.9071 101.007 16.5981ZM94.495 16.5981C94.4901 17.0568 94.534 17.5148 94.626 17.9642C94.6977 18.3278 94.8346 18.6752 95.0299 18.9893C95.2008 19.2592 95.4369 19.481 95.716 19.6339C96.0204 19.7908 96.3591 19.8683 96.701 19.8591C97.0484 19.869 97.3928 19.7916 97.7031 19.6339C97.9826 19.4827 98.218 19.2605 98.386 18.9893C98.577 18.674 98.7104 18.3268 98.7799 17.9642C98.9506 17.0616 98.9506 16.1346 98.7799 15.232C98.71 14.8684 98.5766 14.5203 98.386 14.2037C98.2194 13.9315 97.985 13.7079 97.7061 13.5552C97.3996 13.3979 97.0588 13.3205 96.7149 13.33C96.3711 13.3214 96.0305 13.3988 95.7236 13.5552C95.4406 13.7073 95.2016 13.9307 95.0299 14.2037C94.835 14.5192 94.6981 14.8675 94.626 15.232C94.534 15.6813 94.4901 16.1393 94.495 16.5981Z" fill="#6B7280"/>
<path d="M110.762 21.4473H108.183L104.406 14.1306H104.346C104.373 14.4703 104.394 14.8068 104.412 15.1402C104.429 15.4271 104.444 15.7282 104.455 16.0435C104.466 16.3588 104.472 16.6423 104.471 16.8939V21.445H102.653V11.7759H105.22L108.988 19.0195H109.027C109.015 18.6845 108.999 18.3537 108.982 18.027C108.977 17.8856 108.972 17.7412 108.966 17.5936C108.959 17.4461 108.954 17.2983 108.949 17.1502C108.945 17.0026 108.942 16.8605 108.939 16.7238C108.937 16.5871 108.937 16.4636 108.939 16.3534V11.7759H110.765L110.762 21.4473Z" fill="#6B7280"/>
<path d="M41.6786 24.9654H43.5339C43.8854 24.9615 44.2366 24.9901 44.583 25.0509C44.8493 25.095 45.1051 25.1884 45.3376 25.3266C45.5335 25.446 45.6922 25.6185 45.7954 25.8244C45.9049 26.0614 45.9577 26.3211 45.9496 26.5824C45.9509 26.7534 45.9291 26.9237 45.8848 27.0888C45.8457 27.2373 45.7813 27.3779 45.6944 27.5042C45.6111 27.6225 45.5066 27.7239 45.3861 27.8032C45.2609 27.8853 45.1198 27.9396 44.9722 27.9625V28.006C45.1254 28.039 45.2744 28.0896 45.4162 28.1566C45.553 28.2218 45.6754 28.314 45.7762 28.4277C45.8854 28.5546 45.9681 28.7026 46.019 28.8626C46.0827 29.0689 46.1126 29.2842 46.1076 29.5002C46.1111 29.7671 46.0586 30.0318 45.9534 30.2768C45.855 30.5019 45.7059 30.7008 45.5179 30.8578C45.3145 31.0242 45.0803 31.1483 44.8288 31.2228C44.5312 31.3112 44.2219 31.3539 43.9116 31.3494H41.6763L41.6786 24.9654ZM43.0229 27.4949H43.7212C43.8628 27.4979 44.0043 27.4825 44.1421 27.4491C44.2422 27.4249 44.3356 27.3778 44.4149 27.3116C44.485 27.2493 44.5368 27.1687 44.5645 27.0787C44.5966 26.9749 44.6119 26.8666 44.6099 26.7579C44.6188 26.6576 44.6022 26.5567 44.5618 26.4646C44.5213 26.3725 44.4583 26.2922 44.3787 26.2314C44.1588 26.1084 43.908 26.0531 43.6572 26.0721H43.0198L43.0229 27.4949ZM43.0229 28.5698V30.2341H43.8122C43.9627 30.2378 44.1129 30.2171 44.2569 30.1728C44.3661 30.1385 44.4658 30.0787 44.5475 29.998C44.6219 29.9209 44.6762 29.8265 44.7055 29.7231C44.7385 29.6067 44.7546 29.4861 44.7533 29.3651C44.7546 29.2547 44.7384 29.1449 44.7055 29.0397C44.6741 28.9431 44.618 28.8566 44.5429 28.7888C44.4555 28.7131 44.3526 28.6579 44.2415 28.6273C44.0908 28.5861 43.9351 28.567 43.779 28.5706L43.0229 28.5698Z" fill="#6B7280"/>
<path d="M52.5599 28.1503C52.5649 28.6045 52.5073 29.0572 52.3888 29.4954C52.2876 29.8747 52.1097 30.2287 51.8662 30.5354C51.6282 30.8264 51.3242 31.0555 50.9798 31.2033C50.1662 31.5178 49.2659 31.5178 48.4523 31.2033C48.1081 31.056 47.8045 30.8268 47.5675 30.5354C47.3249 30.2276 47.1478 29.8728 47.0472 29.4931C46.8189 28.6079 46.8189 27.6787 47.0472 26.7936C47.1482 26.4164 47.3261 26.0645 47.5698 25.7606C47.8084 25.4717 48.1124 25.2448 48.4562 25.0989C49.2711 24.7873 50.1711 24.7873 50.986 25.0989C51.329 25.2453 51.6319 25.4731 51.8685 25.7629C52.1106 26.0684 52.2877 26.4208 52.3888 26.7982C52.5078 27.2387 52.5654 27.6938 52.5599 28.1503ZM48.2588 28.1503C48.2556 28.4531 48.2845 28.7554 48.3452 29.052C48.3924 29.2922 48.4828 29.5217 48.6119 29.7292C48.7248 29.9074 48.8807 30.0538 49.0651 30.1548C49.2662 30.2583 49.4899 30.3093 49.7157 30.3031C49.9449 30.3098 50.1722 30.2588 50.377 30.1548C50.5617 30.0551 50.7171 29.9084 50.8279 29.7292C50.9543 29.521 51.0426 29.2916 51.0885 29.052C51.2013 28.456 51.2013 27.8439 51.0885 27.2479C51.0423 27.0076 50.9541 26.7775 50.8279 26.5683C50.718 26.3887 50.5633 26.2412 50.3793 26.1404C50.1769 26.0367 49.9519 25.9857 49.7249 25.9921C49.498 25.9864 49.2732 26.0373 49.0705 26.1404C48.8841 26.2409 48.7266 26.3884 48.6134 26.5683C48.4846 26.7768 48.3942 27.007 48.3467 27.2479C48.2855 27.5447 48.2561 27.8472 48.2588 28.1503Z" fill="#6B7280"/>
<path d="M57.1765 31.3516L56.7433 29.8317H54.5581L54.1202 31.3516H52.7598L54.8193 24.939H56.4627L58.5308 31.3516H57.1765ZM56.4311 28.6955L56.0233 27.2976C56.0059 27.2458 55.9802 27.1599 55.9463 27.0397C55.9124 26.9196 55.8756 26.7879 55.8361 26.6444C55.797 26.5005 55.7603 26.3555 55.7258 26.2095C55.6914 26.0635 55.6657 25.9398 55.6488 25.8383C55.6375 25.9025 55.6223 25.9781 55.6033 26.0651C55.5843 26.1521 55.5627 26.2445 55.5385 26.3423C55.5139 26.4402 55.4881 26.5386 55.4614 26.6374C55.4347 26.7363 55.409 26.8295 55.3844 26.917C55.3612 27.0045 55.3404 27.0822 55.3219 27.15C55.3034 27.2179 55.2898 27.2673 55.2811 27.2984L54.878 28.6963L56.4311 28.6955Z" fill="#6B7280"/>
<path d="M60.4532 28.9045V31.3547H59.1089V24.9685H60.8432C61.4787 24.9182 62.1124 25.0851 62.6422 25.4422C62.843 25.6205 63 25.8432 63.1008 26.0929C63.2017 26.3426 63.2436 26.6125 63.2234 26.8814C63.2258 27.0828 63.1964 27.2833 63.1364 27.4755C63.0831 27.6441 63.0051 27.8038 62.9051 27.9492C62.8107 28.0849 62.6985 28.2069 62.5713 28.3119C62.449 28.4132 62.3158 28.5004 62.1744 28.5721C62.495 29.0898 62.7825 29.5529 63.0369 29.9615C63.1469 30.1365 63.253 30.3068 63.3553 30.4725L63.6304 30.9183C63.7116 31.0493 63.7781 31.1528 63.83 31.2289L63.9072 31.3516H62.4157L61.0413 28.9014L60.4532 28.9045ZM60.4532 27.804H60.8178C61.1036 27.8307 61.3892 27.7505 61.6202 27.5788C61.7051 27.4922 61.7707 27.3885 61.8125 27.2743C61.8544 27.1602 61.8716 27.0384 61.863 26.9171C61.8751 26.7961 61.8577 26.674 61.8125 26.5612C61.7672 26.4485 61.6954 26.3486 61.6032 26.2701C61.3605 26.124 61.0789 26.057 60.7969 26.0783H60.4547L60.4532 27.804Z" fill="#6B7280"/>
<path d="M69.3826 28.0974C69.3916 28.5791 69.3175 29.0586 69.1637 29.5148C69.0359 29.898 68.82 30.2455 68.5338 30.5289C68.2476 30.8123 67.899 31.0236 67.5165 31.1457C67.0746 31.2889 66.6124 31.3581 66.1483 31.3507H64.4795V24.9645H66.3348C66.763 24.9585 67.189 25.0265 67.5943 25.1656C67.9542 25.2907 68.2821 25.4944 68.5548 25.7621C68.8301 26.0388 69.0408 26.3739 69.1714 26.743C69.3206 27.1783 69.3921 27.6369 69.3826 28.0974ZM68.0213 28.1324C68.0267 27.8225 67.9909 27.5132 67.915 27.2128C67.8564 26.9806 67.7514 26.7629 67.6066 26.5729C67.4763 26.4073 67.3063 26.2779 67.1126 26.197C66.8994 26.1123 66.6718 26.0708 66.4427 26.0751H65.8261V30.2339H66.3202C66.5586 30.2513 66.7978 30.213 67.0192 30.1221C67.2405 30.0311 67.4381 29.89 67.5966 29.7097C67.9148 29.249 68.0662 28.6921 68.0252 28.1324H68.0213Z" fill="#6B7280"/>
<path d="M77.9615 28.1503C77.9665 28.6045 77.9089 29.0572 77.7904 29.4954C77.6892 29.8747 77.5113 30.2287 77.2678 30.5354C77.0297 30.8264 76.7257 31.0555 76.3814 31.2033C75.5678 31.5178 74.6675 31.5178 73.8539 31.2033C73.51 31.0559 73.2066 30.8267 72.9698 30.5354C72.7273 30.2276 72.5502 29.8728 72.4495 29.4931C72.2213 28.6079 72.2213 27.6787 72.4495 26.7936C72.5505 26.4164 72.7285 26.0645 72.9721 25.7606C73.2108 25.4718 73.5148 25.2449 73.8585 25.0989C74.6735 24.7873 75.5734 24.7873 76.3883 25.0989C76.7313 25.2454 77.0341 25.4732 77.2709 25.7629C77.513 26.0684 77.6901 26.4208 77.7912 26.7982C77.9099 27.2388 77.9672 27.6938 77.9615 28.1503ZM73.6604 28.1503C73.6571 28.4531 73.6861 28.7554 73.7468 29.052C73.794 29.2922 73.8844 29.5217 74.0135 29.7292C74.1264 29.9075 74.2823 30.0539 74.4667 30.1548C74.6678 30.2583 74.8915 30.3093 75.1173 30.3031C75.3465 30.3098 75.5738 30.2588 75.7786 30.1548C75.9632 30.055 76.1186 29.9083 76.2295 29.7292C76.3559 29.521 76.4441 29.2916 76.4901 29.052C76.6027 28.456 76.6027 27.8439 76.4901 27.2479C76.4439 27.0076 76.3556 26.7775 76.2295 26.5683C76.1195 26.3887 75.9649 26.2412 75.7809 26.1404C75.5785 26.0367 75.3535 25.9857 75.1265 25.9921C74.8996 25.9863 74.6748 26.0373 74.4721 26.1404C74.2857 26.2409 74.1282 26.3883 74.015 26.5683C73.8862 26.7768 73.7959 27.007 73.7483 27.2479C73.6868 27.5446 73.6579 27.8472 73.6604 28.1503Z" fill="#6B7280"/>
<path d="M80.3741 31.3516H79.0483V24.9653H82.6811V26.0751H80.3687V27.7224H82.5193V28.8267H80.3741V31.3516Z" fill="#6B7280"/>
<path d="M88.0942 31.3516H86.7545V26.0922H85.1636V24.9653H89.6812V26.0922H88.0942V31.3516Z" fill="#6B7280"/>
<path d="M91.7784 28.9045V31.3547H90.4341V24.9685H92.1684C92.8039 24.9182 93.4376 25.0851 93.9674 25.4422C94.1682 25.6205 94.3252 25.8432 94.426 26.0929C94.5269 26.3426 94.5688 26.6125 94.5486 26.8814C94.5511 27.0828 94.5217 27.2833 94.4615 27.4755C94.4083 27.6441 94.3303 27.8038 94.2303 27.9492C94.1359 28.0849 94.0236 28.2069 93.8965 28.3119C93.7742 28.4131 93.641 28.5004 93.4996 28.5721C93.8202 29.0898 94.1077 29.5529 94.3621 29.9615C94.4721 30.1365 94.5782 30.3068 94.6805 30.4725L94.9556 30.9183C95.0363 31.0493 95.1028 31.1528 95.1552 31.2289L95.2323 31.3516H93.7408L92.3665 28.9014L91.7784 28.9045ZM91.7784 27.804H92.1429C92.4285 27.8305 92.7138 27.7503 92.9446 27.5788C93.0295 27.4922 93.095 27.3885 93.1369 27.2743C93.1788 27.1602 93.196 27.0384 93.1874 26.9171C93.1995 26.7961 93.1822 26.674 93.1369 26.5612C93.0917 26.4485 93.0198 26.3486 92.9276 26.2701C92.6849 26.1239 92.4033 26.0569 92.1214 26.0783H91.7791L91.7784 27.804Z" fill="#6B7280"/>
<path d="M99.4216 31.3516L98.9877 29.8317H96.8025L96.3647 31.3516H95.0073L97.0669 24.939H98.7102L100.778 31.3516H99.4216ZM98.6756 28.6955L98.2678 27.2976C98.2503 27.2458 98.2247 27.1599 98.1907 27.0397C98.1568 26.9196 98.1198 26.7879 98.0797 26.6444C98.0407 26.5005 98.004 26.3555 97.9695 26.2095C97.9351 26.0635 97.9094 25.9398 97.8925 25.8383C97.8806 25.9025 97.8654 25.9781 97.8469 26.0651C97.8284 26.1521 97.8069 26.2445 97.7822 26.3423C97.7575 26.4402 97.7318 26.5386 97.7051 26.6374C97.6784 26.7363 97.6527 26.8295 97.6281 26.917C97.6049 27.0045 97.5841 27.0822 97.5656 27.15C97.5471 27.2179 97.5335 27.2673 97.5248 27.2984L97.1217 28.6963L98.6756 28.6955Z" fill="#6B7280"/>
<path d="M106.257 28.0974C106.266 28.5791 106.192 29.0587 106.038 29.5148C105.91 29.898 105.695 30.2455 105.408 30.5289C105.122 30.8123 104.773 31.0236 104.391 31.1457C103.949 31.2889 103.487 31.3581 103.023 31.3507H101.354V24.9645H103.209C103.637 24.9585 104.063 25.0266 104.469 25.1656C104.829 25.2907 105.157 25.4944 105.429 25.7621C105.705 26.0388 105.915 26.3739 106.046 26.743C106.195 27.1783 106.267 27.6369 106.257 28.0974ZM104.896 28.1324C104.901 27.8224 104.865 27.5132 104.789 27.2128C104.731 26.9806 104.626 26.7629 104.481 26.5729C104.351 26.4072 104.181 26.2777 103.987 26.197C103.774 26.1123 103.546 26.0708 103.317 26.075H102.701V30.2339H103.195C103.433 30.2512 103.672 30.2129 103.894 30.122C104.115 30.0311 104.313 29.89 104.471 29.7097C104.788 29.2485 104.938 28.6916 104.896 28.1324Z" fill="#6B7280"/>
<path d="M111 31.3516H107.349V24.9653H111V26.0751H108.693V27.477H110.839V28.5868H108.693V30.234H111V31.3516Z" fill="#6B7280"/>
</g>
<defs>
<clipPath id="clip0_2736_9437">
<rect width="111" height="41" fill="white" transform="translate(0 0.728271)"/>
</clipPath>
</defs>
</svg>
