<svg width="115" height="51" viewBox="0 0 115 51" fill="none" xmlns="http://www.w3.org/2000/svg">
<g clip-path="url(#clip0_2736_9412)">
<path d="M7.42303 13.0259H2.73395L2.71817 10.0893H6.87045C7.5125 10.0893 8.05982 9.96297 8.51242 9.71036C8.96501 9.45775 9.30709 9.08936 9.53865 8.60519C9.78073 8.12102 9.90177 7.53686 9.90177 6.85271C9.90177 6.09488 9.79652 5.47914 9.58601 5.00549C9.3755 4.52132 9.04395 4.16872 8.59136 3.94769C8.14929 3.72665 7.58092 3.61614 6.88624 3.61614H3.8707V23.3829H0.0341797V0.395353H6.88624C7.95983 0.395353 8.91765 0.521658 9.75968 0.774269C10.6122 1.01635 11.3332 1.39001 11.9227 1.89523C12.5121 2.40045 12.9594 3.04776 13.2647 3.83717C13.5804 4.61605 13.7383 5.54229 13.7383 6.61588C13.7383 7.55265 13.5383 8.41573 13.1383 9.20514C12.7384 9.98402 12.1437 10.6261 11.3543 11.1313C10.5754 11.626 9.60706 11.9207 8.44926 12.0154L7.42303 13.0259ZM7.28094 23.3829H1.4709L3.23917 20.1779H7.28094C7.96509 20.1779 8.5282 20.0306 8.97027 19.7358C9.41234 19.4411 9.74389 19.0306 9.96493 18.5044C10.186 17.9781 10.2965 17.3624 10.2965 16.6571C10.2965 15.9204 10.2017 15.2783 10.0123 14.731C9.82283 14.1837 9.5176 13.7627 9.09658 13.4679C8.67556 13.1732 8.11771 13.0259 7.42303 13.0259H3.55494L3.58651 10.0893H8.5282L9.41234 11.2102C10.5175 11.2313 11.4174 11.5049 12.1121 12.0312C12.8068 12.547 13.3173 13.2153 13.6436 14.0363C13.9699 14.8573 14.133 15.7362 14.133 16.6729C14.133 18.136 13.8593 19.3674 13.312 20.3674C12.7647 21.3568 11.9805 22.1093 10.9596 22.6251C9.94914 23.1303 8.72293 23.3829 7.28094 23.3829Z" fill="#9CA3AF"/>
<path d="M26.576 0.395353H30.4125V16.3572C30.4125 18.1149 30.0809 19.5306 29.4178 20.6042C28.7652 21.6778 27.8811 22.4619 26.7654 22.9566C25.6602 23.4513 24.4288 23.6987 23.071 23.6987C21.6606 23.6987 20.4028 23.4513 19.2976 22.9566C18.1924 22.4619 17.3241 21.6778 16.6926 20.6042C16.061 19.5306 15.7453 18.1149 15.7453 16.3572V0.395353H19.566V16.3572C19.566 17.4518 19.7029 18.2991 19.9765 18.8991C20.2607 19.499 20.6607 19.9148 21.1764 20.1463C21.7027 20.3779 22.3342 20.4937 23.071 20.4937C23.8078 20.4937 24.434 20.3779 24.9498 20.1463C25.4761 19.9148 25.876 19.499 26.1497 18.8991C26.4339 18.2991 26.576 17.4518 26.576 16.3572V0.395353Z" fill="#9CA3AF"/>
<path d="M42.3186 17.4466C42.3186 16.9729 42.266 16.5519 42.1608 16.1835C42.066 15.8046 41.8818 15.4625 41.6082 15.1573C41.3345 14.852 40.9451 14.5521 40.4399 14.2573C39.9452 13.9626 39.3031 13.6627 38.5137 13.3574C37.6085 13.0101 36.7612 12.6312 35.9718 12.2207C35.1929 11.7997 34.5035 11.326 33.9036 10.7997C33.3141 10.2629 32.851 9.63668 32.5142 8.92095C32.1774 8.20522 32.009 7.37372 32.009 6.42643C32.009 5.48966 32.1721 4.6371 32.4984 3.86875C32.8352 3.08986 33.3089 2.4215 33.9193 1.86365C34.5403 1.29528 35.2771 0.858472 36.1297 0.553234C36.9822 0.237471 37.9243 0.0795898 38.9558 0.0795898C40.4399 0.0795898 41.7082 0.395353 42.7607 1.02688C43.8238 1.65841 44.6342 2.5057 45.1921 3.56877C45.7605 4.63184 46.0446 5.81069 46.0446 7.10532H42.2239C42.2239 6.35801 42.1081 5.69491 41.8766 5.11601C41.645 4.53711 41.2871 4.08452 40.803 3.75823C40.3188 3.43194 39.6925 3.2688 38.9242 3.2688C38.219 3.2688 37.6348 3.40563 37.1717 3.67929C36.7191 3.95295 36.3823 4.3266 36.1613 4.80025C35.9508 5.27389 35.8455 5.81595 35.8455 6.42643C35.8455 6.84744 35.935 7.23162 36.1139 7.57896C36.2928 7.91578 36.5507 8.22628 36.8875 8.51046C37.2243 8.79465 37.6348 9.06305 38.119 9.31566C38.6032 9.56827 39.161 9.81035 39.7925 10.0419C40.8661 10.4314 41.8029 10.8629 42.6028 11.3365C43.4028 11.8102 44.0606 12.3417 44.5763 12.9311C45.1026 13.51 45.4921 14.1679 45.7447 14.9047C46.0078 15.6414 46.1394 16.4782 46.1394 17.415C46.1394 18.3623 45.9762 19.2254 45.6499 20.0042C45.3342 20.7726 44.8711 21.4304 44.2606 21.9778C43.6501 22.5251 42.9133 22.9514 42.0502 23.2566C41.1872 23.5513 40.2188 23.6987 39.1452 23.6987C38.1558 23.6987 37.2033 23.5513 36.2876 23.2566C35.3824 22.9619 34.5719 22.5146 33.8562 21.9146C33.1405 21.3041 32.5721 20.541 32.1511 19.6253C31.7406 18.7096 31.5353 17.636 31.5353 16.4045H35.3719C35.3719 17.1413 35.4613 17.7728 35.6403 18.2991C35.8192 18.8149 36.0771 19.2411 36.4139 19.578C36.7612 19.9042 37.1664 20.1463 37.6296 20.3042C38.1032 20.4516 38.6295 20.5252 39.2084 20.5252C39.9241 20.5252 40.5083 20.3989 40.9609 20.1463C41.424 19.8832 41.7661 19.5201 41.9871 19.0569C42.2081 18.5938 42.3186 18.057 42.3186 17.4466Z" fill="#9CA3AF"/>
<path d="M51.6355 0.395353V23.3829H47.799V0.395353H51.6355Z" fill="#9CA3AF"/>
<path d="M69.7149 0.395353V23.3829H65.9573L57.8422 7.46844V23.3829H54.132V0.395353H57.8422L66.0204 16.4203V0.395353H69.7149Z" fill="#9CA3AF"/>
<path d="M84.9208 20.1779V23.3829H74.9426V20.1779H84.9208ZM75.9531 0.395353V23.3829H72.1166V0.395353H75.9531ZM83.5788 9.96297V13.1206H74.9426V9.96297H83.5788ZM84.826 0.395353V3.61614H74.9426V0.395353H84.826Z" fill="#9CA3AF"/>
<path d="M96.0375 17.4466C96.0375 16.9729 95.9849 16.5519 95.8796 16.1835C95.7849 15.8046 95.6007 15.4625 95.327 15.1573C95.0534 14.852 94.6639 14.5521 94.1587 14.2573C93.664 13.9626 93.022 13.6627 92.2326 13.3574C91.3274 13.0101 90.4801 12.6312 89.6907 12.2207C88.9118 11.7997 88.2224 11.326 87.6224 10.7997C87.033 10.2629 86.5699 9.63668 86.2331 8.92095C85.8963 8.20522 85.7278 7.37372 85.7278 6.42643C85.7278 5.48966 85.891 4.6371 86.2173 3.86875C86.5541 3.08986 87.0277 2.4215 87.6382 1.86365C88.2592 1.29528 88.996 0.858472 89.8486 0.553234C90.7011 0.237471 91.6431 0.0795898 92.6746 0.0795898C94.1587 0.0795898 95.427 0.395353 96.4796 1.02688C97.5426 1.65841 98.3531 2.5057 98.9109 3.56877C99.4793 4.63184 99.7635 5.81069 99.7635 7.10532H95.9428C95.9428 6.35801 95.827 5.69491 95.5954 5.11601C95.3639 4.53711 95.006 4.08452 94.5218 3.75823C94.0377 3.43194 93.4114 3.2688 92.6431 3.2688C91.9379 3.2688 91.3537 3.40563 90.8906 3.67929C90.438 3.95295 90.1012 4.3266 89.8801 4.80025C89.6696 5.27389 89.5644 5.81595 89.5644 6.42643C89.5644 6.84744 89.6538 7.23162 89.8328 7.57896C90.0117 7.91578 90.2696 8.22628 90.6064 8.51046C90.9432 8.79465 91.3537 9.06305 91.8379 9.31566C92.322 9.56827 92.8799 9.81035 93.5114 10.0419C94.585 10.4314 95.5218 10.8629 96.3217 11.3365C97.1216 11.8102 97.7795 12.3417 98.2952 12.9311C98.8215 13.51 99.2109 14.1679 99.4635 14.9047C99.7267 15.6414 99.8582 16.4782 99.8582 17.415C99.8582 18.3623 99.6951 19.2254 99.3688 20.0042C99.053 20.7726 98.5899 21.4304 97.9795 21.9778C97.369 22.5251 96.6322 22.9514 95.7691 23.2566C94.906 23.5513 93.9377 23.6987 92.8641 23.6987C91.8747 23.6987 90.9221 23.5513 90.0064 23.2566C89.1012 22.9619 88.2908 22.5146 87.5751 21.9146C86.8593 21.3041 86.291 20.541 85.8699 19.6253C85.4594 18.7096 85.2542 17.636 85.2542 16.4045H89.0907C89.0907 17.1413 89.1802 17.7728 89.3591 18.2991C89.5381 18.8149 89.7959 19.2411 90.1327 19.578C90.4801 19.9042 90.8853 20.1463 91.3484 20.3042C91.8221 20.4516 92.3483 20.5252 92.9272 20.5252C93.643 20.5252 94.2271 20.3989 94.6797 20.1463C95.1428 19.8832 95.4849 19.5201 95.706 19.0569C95.927 18.5938 96.0375 18.057 96.0375 17.4466Z" fill="#9CA3AF"/>
<path d="M111.243 17.4466C111.243 16.9729 111.191 16.5519 111.086 16.1835C110.991 15.8046 110.807 15.4625 110.533 15.1573C110.259 14.852 109.87 14.5521 109.365 14.2573C108.87 13.9626 108.228 13.6627 107.438 13.3574C106.533 13.0101 105.686 12.6312 104.897 12.2207C104.118 11.7997 103.428 11.326 102.828 10.7997C102.239 10.2629 101.776 9.63668 101.439 8.92095C101.102 8.20522 100.934 7.37372 100.934 6.42643C100.934 5.48966 101.097 4.6371 101.423 3.86875C101.76 3.08986 102.234 2.4215 102.844 1.86365C103.465 1.29528 104.202 0.858472 105.054 0.553234C105.907 0.237471 106.849 0.0795898 107.881 0.0795898C109.365 0.0795898 110.633 0.395353 111.685 1.02688C112.749 1.65841 113.559 2.5057 114.117 3.56877C114.685 4.63184 114.969 5.81069 114.969 7.10532H111.149C111.149 6.35801 111.033 5.69491 110.801 5.11601C110.57 4.53711 110.212 4.08452 109.728 3.75823C109.244 3.43194 108.617 3.2688 107.849 3.2688C107.144 3.2688 106.56 3.40563 106.096 3.67929C105.644 3.95295 105.307 4.3266 105.086 4.80025C104.876 5.27389 104.77 5.81595 104.77 6.42643C104.77 6.84744 104.86 7.23162 105.039 7.57896C105.218 7.91578 105.475 8.22628 105.812 8.51046C106.149 8.79465 106.56 9.06305 107.044 9.31566C107.528 9.56827 108.086 9.81035 108.717 10.0419C109.791 10.4314 110.728 10.8629 111.528 11.3365C112.328 11.8102 112.985 12.3417 113.501 12.9311C114.027 13.51 114.417 14.1679 114.669 14.9047C114.933 15.6414 115.064 16.4782 115.064 17.415C115.064 18.3623 114.901 19.2254 114.575 20.0042C114.259 20.7726 113.796 21.4304 113.185 21.9778C112.575 22.5251 111.838 22.9514 110.975 23.2566C110.112 23.5513 109.144 23.6987 108.07 23.6987C107.081 23.6987 106.128 23.5513 105.212 23.2566C104.307 22.9619 103.497 22.5146 102.781 21.9146C102.065 21.3041 101.497 20.541 101.076 19.6253C100.665 18.7096 100.46 17.636 100.46 16.4045H104.297C104.297 17.1413 104.386 17.7728 104.565 18.2991C104.744 18.8149 105.002 19.2411 105.339 19.578C105.686 19.9042 106.091 20.1463 106.554 20.3042C107.028 20.4516 107.554 20.5252 108.133 20.5252C108.849 20.5252 109.433 20.3989 109.886 20.1463C110.349 19.8832 110.691 19.5201 110.912 19.0569C111.133 18.5938 111.243 18.057 111.243 17.4466Z" fill="#9CA3AF"/>
<path d="M8.95359 41.3316V43.5254H2.19613V41.3316H8.95359ZM2.88043 27.7906V43.5254H0.282227V27.7906H2.88043ZM8.04475 34.3396V36.5009H2.19613V34.3396H8.04475ZM8.88944 27.7906V29.9952H2.19613V27.7906H8.88944Z" fill="#6B7280"/>
<path d="M18.1715 41.3316V43.5254H11.7028V41.3316H18.1715ZM12.3871 27.7906V43.5254H9.78886V27.7906H12.3871Z" fill="#6B7280"/>
<path d="M21.6371 27.7906V43.5254H19.0389V27.7906H21.6371Z" fill="#6B7280"/>
<path d="M28.6631 27.7906V43.5254H26.0756V27.7906H28.6631ZM32.6299 27.7906V29.9952H22.1516V27.7906H32.6299Z" fill="#6B7280"/>
<path d="M42.0404 41.3316V43.5254H35.2829V41.3316H42.0404ZM35.9672 27.7906V43.5254H33.369V27.7906H35.9672ZM41.1315 34.3396V36.5009H35.2829V34.3396H41.1315ZM41.9762 27.7906V29.9952H35.2829V27.7906H41.9762Z" fill="#6B7280"/>
<path d="M54.1999 38.3921H56.7874C56.7375 39.5305 56.5094 40.4995 56.1031 41.2992C55.6968 42.0917 55.1123 42.6969 54.3496 43.1147C53.594 43.5326 52.671 43.7415 51.5803 43.7415C50.7535 43.7415 50.0122 43.5902 49.3564 43.2876C48.7077 42.9851 48.1553 42.5492 47.6991 41.98C47.2429 41.4036 46.8936 40.7012 46.6512 39.8727C46.416 39.0441 46.2984 38.1039 46.2984 37.0521V34.2639C46.2984 33.212 46.4196 32.2718 46.6619 31.4433C46.9114 30.6148 47.2678 29.9123 47.7312 29.336C48.1945 28.7596 48.7576 28.3237 49.4205 28.0284C50.0906 27.7258 50.8461 27.5745 51.6873 27.5745C52.7636 27.5745 53.6689 27.7834 54.4031 28.2013C55.1373 28.6191 55.704 29.2315 56.1031 30.0384C56.5023 30.8453 56.734 31.8288 56.7981 32.9887H54.2106C54.175 32.2034 54.0681 31.5766 53.8899 31.1083C53.7188 30.6328 53.455 30.2906 53.0986 30.0817C52.7494 29.8727 52.2789 29.7683 51.6873 29.7683C51.1954 29.7683 50.7713 29.8619 50.4149 30.0492C50.0656 30.2366 49.7769 30.5175 49.5488 30.8922C49.3279 31.2596 49.1604 31.7243 49.0463 32.2863C48.9394 32.841 48.8859 33.493 48.8859 34.2423V37.0521C48.8859 37.7725 48.9323 38.4101 49.0249 38.9649C49.1176 39.5196 49.2673 39.9915 49.474 40.3806C49.6807 40.7624 49.9551 41.0542 50.2973 41.256C50.6394 41.4505 51.0671 41.5477 51.5803 41.5477C52.1934 41.5477 52.6816 41.4505 53.0452 41.256C53.4158 41.0614 53.6903 40.7336 53.8685 40.2725C54.0467 39.8114 54.1572 39.1846 54.1999 38.3921Z" fill="#6B7280"/>
<path d="M63.1292 29.952L59.3655 43.5254H56.6497L61.5895 27.7906H63.2789L63.1292 29.952ZM66.1337 43.5254L62.3594 29.952L62.1776 27.7906H63.899L68.8602 43.5254H66.1337ZM66.1978 37.6789V39.8835H58.9485V37.6789H66.1978Z" fill="#6B7280"/>
<path d="M79.8744 27.7906V43.5254H77.3297L71.8339 32.6321V43.5254H69.3213V27.7906H71.8339L77.3725 38.7596V27.7906H79.8744Z" fill="#6B7280"/>
<path d="M87.0609 29.952L83.2972 43.5254H80.5814L85.5212 27.7906H87.2106L87.0609 29.952ZM90.0654 43.5254L86.291 29.952L86.1093 27.7906H87.8307L92.7919 43.5254H90.0654ZM90.1295 37.6789V39.8835H82.8802V37.6789H90.1295Z" fill="#6B7280"/>
<path d="M97.07 43.5254H94.3649L94.3863 41.3316H97.07C97.904 41.3316 98.5705 41.1767 99.0695 40.8669C99.5685 40.5499 99.9284 40.0672 100.149 39.4188C100.37 38.7704 100.481 37.9418 100.481 36.9332V34.372C100.481 33.5939 100.417 32.9311 100.288 32.3835C100.167 31.8288 99.9748 31.3785 99.711 31.0327C99.4544 30.6796 99.1158 30.4203 98.6953 30.2546C98.2747 30.0817 97.7686 29.9952 97.177 29.9952H94.3115V27.7906H97.177C98.068 27.7906 98.8735 27.9347 99.5934 28.2229C100.313 28.5111 100.93 28.9361 101.443 29.4981C101.964 30.0528 102.363 30.7409 102.641 31.5622C102.919 32.3835 103.058 33.3273 103.058 34.3936V36.9332C103.058 37.9995 102.919 38.9433 102.641 39.7646C102.363 40.5787 101.964 41.2668 101.443 41.8287C100.923 42.3835 100.296 42.8049 99.5613 43.0931C98.8271 43.3813 97.9967 43.5254 97.07 43.5254ZM95.8511 27.7906V43.5254H93.2529V27.7906H95.8511Z" fill="#6B7280"/>
<path d="M109.517 29.952L105.753 43.5254H103.038L107.977 27.7906H109.667L109.517 29.952ZM112.522 43.5254L108.747 29.952L108.565 27.7906H110.287L115.248 43.5254H112.522ZM112.586 37.6789V39.8835H105.336V37.6789H112.586Z" fill="#6B7280"/>
<path d="M102.995 50.3285C102.907 50.3285 102.831 50.2991 102.768 50.2403C102.705 50.1815 102.674 50.1101 102.674 50.026C102.674 49.9168 102.724 49.817 102.823 49.7267C102.923 49.6364 103.029 49.5912 103.141 49.5912C103.232 49.5912 103.308 49.6196 103.369 49.6763C103.431 49.733 103.463 49.8023 103.463 49.8842C103.463 49.9977 103.414 50.1006 103.317 50.193C103.219 50.2834 103.112 50.3285 102.995 50.3285Z" fill="#6B7280"/>
<path d="M105.216 50.3237C104.954 50.3237 104.724 50.2764 104.524 50.1818C104.325 50.0871 104.17 49.9452 104.059 49.7559C103.948 49.5623 103.893 49.3214 103.893 49.0331C103.893 48.7836 103.919 48.547 103.973 48.3233C104.03 48.0953 104.112 47.8845 104.219 47.6909C104.325 47.4973 104.454 47.3295 104.604 47.1876C104.755 47.0456 104.926 46.9359 105.116 46.8584C105.311 46.7767 105.524 46.7358 105.755 46.7358C105.91 46.7358 106.065 46.7509 106.22 46.781C106.375 46.8111 106.515 46.852 106.639 46.9036L106.473 47.3747C106.384 47.336 106.278 47.2994 106.154 47.265C106.034 47.2306 105.903 47.2134 105.761 47.2134C105.611 47.2134 105.469 47.2456 105.336 47.3102C105.207 47.3704 105.09 47.4564 104.983 47.5683C104.881 47.6801 104.793 47.8135 104.717 47.9684C104.646 48.1189 104.591 48.2846 104.551 48.4653C104.511 48.6416 104.491 48.8288 104.491 49.0267C104.491 49.1988 104.522 49.3472 104.584 49.4719C104.646 49.5967 104.735 49.6913 104.85 49.7559C104.97 49.8204 105.112 49.8527 105.276 49.8527C105.431 49.8527 105.577 49.8312 105.715 49.7881C105.857 49.7451 105.996 49.6956 106.134 49.6397V50.1172C106.01 50.1775 105.87 50.2269 105.715 50.2657C105.564 50.3044 105.398 50.3237 105.216 50.3237Z" fill="#6B7280"/>
<path d="M107.97 50.3108C107.695 50.3108 107.458 50.2571 107.258 50.1495C107.059 50.0419 106.906 49.8892 106.8 49.6913C106.693 49.4891 106.64 49.2525 106.64 48.9815C106.64 48.7707 106.664 48.5599 106.713 48.3491C106.762 48.134 106.833 47.9318 106.926 47.7425C107.023 47.5532 107.143 47.3854 107.285 47.2392C107.427 47.0886 107.593 46.9703 107.784 46.8843C107.974 46.7982 108.187 46.7552 108.422 46.7552C108.701 46.7552 108.939 46.809 109.134 46.9165C109.333 47.0241 109.486 47.1789 109.593 47.3811C109.699 47.579 109.752 47.8156 109.752 48.091C109.752 48.3018 109.728 48.5126 109.679 48.7234C109.63 48.9342 109.557 49.1364 109.46 49.33C109.366 49.5193 109.249 49.687 109.107 49.8333C108.965 49.9796 108.799 50.0957 108.608 50.1818C108.418 50.2678 108.205 50.3108 107.97 50.3108ZM108.003 49.8398C108.132 49.8398 108.251 49.8139 108.362 49.7623C108.478 49.7107 108.584 49.6354 108.682 49.5365C108.779 49.4332 108.861 49.3085 108.928 49.1622C108.999 49.0116 109.054 48.8417 109.094 48.6524C109.134 48.4631 109.154 48.2545 109.154 48.0264C109.154 47.8974 109.129 47.7726 109.081 47.6522C109.036 47.5274 108.961 47.4263 108.854 47.3489C108.748 47.2671 108.606 47.2263 108.429 47.2263C108.283 47.2263 108.147 47.2564 108.023 47.3166C107.899 47.3768 107.788 47.4629 107.691 47.5747C107.593 47.6823 107.509 47.8113 107.438 47.9619C107.371 48.1082 107.321 48.2695 107.285 48.4459C107.25 48.6223 107.232 48.8073 107.232 49.0009C107.232 49.2676 107.298 49.4741 107.431 49.6204C107.569 49.7666 107.759 49.8398 108.003 49.8398Z" fill="#6B7280"/>
<path d="M109.988 50.2592L110.746 46.8004H111.225L111.152 47.4392H111.185C111.265 47.3317 111.358 47.2241 111.464 47.1166C111.575 47.009 111.702 46.9187 111.843 46.8455C111.99 46.7724 112.154 46.7358 112.336 46.7358C112.579 46.7358 112.766 46.8047 112.894 46.9423C113.027 47.0757 113.107 47.2628 113.134 47.5038H113.16C113.249 47.3747 113.353 47.2521 113.473 47.1359C113.597 47.0198 113.734 46.9251 113.885 46.852C114.036 46.7746 114.202 46.7358 114.384 46.7358C114.659 46.7358 114.871 46.809 115.022 46.9552C115.173 47.1015 115.248 47.3123 115.248 47.5876C115.248 47.6909 115.242 47.7877 115.228 47.878C115.215 47.9641 115.197 48.0566 115.175 48.1555L114.716 50.2592H114.124L114.603 48.091C114.625 47.992 114.641 47.9081 114.65 47.8393C114.659 47.7705 114.663 47.7038 114.663 47.6393C114.663 47.5102 114.625 47.407 114.55 47.3295C114.479 47.2521 114.366 47.2134 114.211 47.2134C114.104 47.2134 113.991 47.2435 113.872 47.3037C113.752 47.3596 113.634 47.4478 113.519 47.5683C113.404 47.6887 113.3 47.8436 113.207 48.0329C113.114 48.2179 113.038 48.4394 112.981 48.6976L112.641 50.2592H112.056L112.528 48.091C112.551 47.992 112.566 47.9103 112.575 47.8458C112.584 47.7769 112.588 47.7167 112.588 47.6651C112.588 47.5231 112.555 47.4134 112.488 47.336C112.422 47.2542 112.311 47.2134 112.156 47.2134C112.05 47.2134 111.934 47.2413 111.81 47.2973C111.69 47.3532 111.573 47.4435 111.458 47.5683C111.342 47.6887 111.236 47.8479 111.139 48.0458C111.041 48.2437 110.961 48.4846 110.899 48.7685L110.573 50.2592H109.988Z" fill="#6B7280"/>
</g>
<defs>
<clipPath id="clip0_2736_9412">
<rect width="114.966" height="50.2975" fill="white" transform="translate(0.0341797 0.0795898)"/>
</clipPath>
</defs>
</svg>
