<svg width="152" height="48" viewBox="0 0 152 48" fill="none" xmlns="http://www.w3.org/2000/svg">
<g clip-path="url(#clip0_2736_9417)">
<path d="M3.52075 29.6609C3.69805 33.8398 6.48425 36.5497 10.7902 36.5497C14.4629 36.5497 17.8317 33.8398 17.8317 29.9395C17.8317 24.8236 12.4113 23.5066 10.0303 22.8228C6.86419 21.9364 0.962506 20.67 0.962506 14.0598C0.962506 8.89326 5.26846 5.11963 10.7902 5.11963C16.312 5.11963 20.4659 9.29848 20.4659 14.1612H16.9705C16.9705 10.7927 14.083 8.13347 10.7902 8.13347C6.7882 8.13347 4.45792 11.046 4.45792 13.9332C4.45792 17.9854 8.1813 18.9225 12.7659 20.1888C21.3524 22.3922 21.3018 28.8251 21.3018 29.8129C21.3018 34.9288 16.9452 39.5635 10.7649 39.5635C6.23096 39.5635 0.126646 37.0056 0 29.6609M23.1255 38.981H26.4436V25.4314C26.3929 22.2403 27.4314 19.9862 28.8499 18.6946C30.6482 17.023 33.0038 16.5672 34.4729 16.5672C35.942 16.5672 38.2976 17.023 40.096 18.6946C41.5144 19.9862 42.5529 22.2403 42.5529 25.4314V38.981H45.871V25.4314C45.871 21.3792 44.6046 18.5426 42.6542 16.7444C40.2986 14.4904 37.6391 13.7306 34.4729 13.7306C30.091 13.7306 27.5327 16.0353 26.5449 17.5042H26.4436V5.67681H23.1255M48.3533 38.981H51.6714V14.3891H48.3533V38.981ZM48.3533 11.3752H51.6714V5.70214H48.3533V11.3752ZM67.9074 16.5925C73.5811 16.5925 78.4949 20.4928 78.4949 26.7484C78.4949 32.2442 74.2396 36.727 67.9074 36.727C62.335 36.727 57.5731 32.4468 57.5731 26.6977C57.5478 21.3032 61.955 16.5925 67.9074 16.5925ZM54.4323 47.6173H57.7504V34.6755H57.8517C60.7392 38.6771 65.2225 39.5889 67.9074 39.5889C76.038 39.5889 81.7877 33.6878 81.7877 26.6471C81.7877 20.0875 76.3673 13.7813 67.9074 13.7813C65.1212 13.7813 60.8152 14.693 57.8517 18.7199H57.7504V14.3891H54.4323V47.6173ZM96.8332 16.5925C102.507 16.5925 107.421 20.4928 107.421 26.7484C107.421 32.2442 103.165 36.727 96.8332 36.727C91.2608 36.727 86.4989 32.4468 86.4989 26.6977C86.4989 21.3032 90.9062 16.5925 96.8332 16.5925ZM83.3835 47.6173H86.7016V34.6755H86.8029C89.6904 38.6771 94.1737 39.5889 96.8585 39.5889C104.989 39.5889 110.739 33.6878 110.739 26.6471C110.739 20.0875 105.318 13.7813 96.8585 13.7813C94.0723 13.7813 89.7664 14.693 86.8029 18.7199H86.7016V14.3891H83.3835V47.6173ZM115.45 25.0009C116.387 19.2011 121.453 16.5925 125.506 16.5925C129.558 16.5925 134.574 19.2011 135.612 25.0009M138.981 27.8374C139.133 25.4567 138.753 22.7215 137.005 20.0622C135.156 16.9977 131.154 13.8066 125.48 13.7559C117.958 13.8826 112.056 19.733 112.056 26.6977C112.056 33.6625 118.287 39.5635 125.506 39.5635C131.458 39.5635 136.423 35.8406 138.221 30.9272H134.726C133.535 33.9917 130.192 36.651 125.48 36.727C120.44 36.727 115.703 32.6241 115.475 27.8121H138.981V27.8374ZM141.235 38.981H144.553V24.5956C144.553 22.6202 145.212 20.8726 146.352 19.505C147.618 18.0614 149.619 17.251 151.924 17.0737V13.7559C149.138 13.9332 146.2 14.4651 144.655 17.9348H144.553V14.3891H141.235" fill="#6B7280"/>
<path d="M92.0461 6.33518C91.4888 8.3613 89.5385 9.7036 87.2589 9.7036C84.2954 9.7036 82.269 7.57618 82.269 5.27148C82.269 3.09341 84.1434 0.839355 87.2336 0.839355C90.3237 0.839355 91.7928 2.91612 92.0461 4.23309H89.5132C89.2346 3.59993 88.5253 2.73884 87.2082 2.73884C85.5872 2.73884 84.6753 4.03048 84.6753 5.22082C84.6753 6.51247 85.6378 7.75346 87.2336 7.75346C88.8293 7.75346 89.3612 6.61377 89.5132 6.30986M96.7826 3.65059H96.8333L97.8211 6.56312H95.8201M98.429 8.28532L98.8849 9.52631H101.519L97.7451 0.991314H95.8201L92.0208 9.52631H94.6297L95.1362 8.28532H98.429ZM102.355 9.52631H104.685L104.609 4.3344L104.635 4.30907L108.257 9.50099H110.359V0.965987H108.029L108.13 6.30986L108.105 6.33518L104.432 0.965987H102.33M115.957 3.65059H116.007L116.97 6.56312H114.969M117.603 8.28532L118.059 9.52631H120.693L116.919 0.991314H114.994L111.195 9.52631H113.804L114.31 8.28532H117.603ZM123.961 2.89079H124.999C126.088 2.89079 126.57 3.29602 126.848 3.67591C127.203 4.15711 127.304 4.76495 127.304 5.24615C127.304 6.46182 126.798 7.57618 124.974 7.57618H123.935M121.555 9.52631H124.873C128.469 9.52631 129.761 7.57618 129.761 5.22082C129.761 4.28375 129.533 3.372 128.875 2.56155C127.633 0.965987 125.759 0.965987 124.695 0.965987H121.555V9.52631ZM130.648 9.52631H133.079V0.991314H130.648V9.52631ZM138.424 3.65059H138.474L139.437 6.56312H137.461M140.095 8.28532L140.551 9.52631H143.186L139.412 0.991314H137.487L133.687 9.52631H136.296L136.803 8.28532H140.095ZM143.996 9.52631H146.326L146.25 4.3344L146.276 4.30907L149.898 9.50099H152V0.965987H149.67L149.771 6.30986L149.746 6.33518L146.073 0.965987H143.996" fill="#9CA3AF"/>
</g>
<defs>
<clipPath id="clip0_2736_9417">
<rect width="152" height="46.7779" fill="white" transform="translate(0 0.839355)"/>
</clipPath>
</defs>
</svg>
