<svg width="138" height="35" viewBox="0 0 138 35" fill="none" xmlns="http://www.w3.org/2000/svg">
<path d="M0.575928 34.1001H137.045V0.899414H0.575928V34.1001Z" fill="#9CA3AF"/>
<path d="M55.5498 17.5576C55.5498 17.3963 55.5498 17.235 55.5498 17.0737H0.552734V17.9032H55.5498C55.5498 17.788 55.5498 17.6728 55.5498 17.5576Z" fill="white"/>
<path d="M82.0244 17.0737C82.0244 17.235 82.0244 17.3963 82.0244 17.5576C82.0244 17.6728 82.0244 17.788 82.0244 17.9032H137.044V17.0737H82.0244Z" fill="white"/>
<path d="M82.0248 17.5342C82.0248 25.0452 76.1112 31.1508 68.7873 31.1508C61.4862 31.1508 55.5498 25.0683 55.5498 17.5342C55.5498 10.0001 61.4635 3.91748 68.7873 3.91748C76.1112 3.91748 82.0248 10.0231 82.0248 17.5342Z" fill="#6B7280"/>
<path d="M64.6028 19.3082L65.5354 18.3405L76.0207 17.8566L76.4984 17.3728H66.1495L60.5315 10.6221L79.3187 17.0502L73.0412 23.5015H60.5315L61.7825 22.2112L72.2678 21.7274L72.7227 21.2435H62.715L63.6475 20.2759L74.1329 19.792L74.6106 19.3082H64.6028Z" fill="white"/>
<path d="M87.0747 6.9126H88.5076C89.7359 6.9126 90.8504 7.28124 90.8504 8.66364C90.8504 10.023 89.8951 10.5068 88.6896 10.5068H88.212V12.6957H87.0747V6.9126ZM88.212 9.58525H88.5986C89.1672 9.58525 89.6676 9.40093 89.6676 8.73276C89.6676 8.0646 89.1672 7.8342 88.5986 7.8342H88.212V9.58525Z" fill="white"/>
<path d="M96.1496 6.8208C97.9237 6.8208 98.9017 8.04192 98.9017 9.79297C98.9017 11.544 97.9237 12.8112 96.1496 12.8112C94.33 12.8112 93.3975 11.5671 93.3975 9.79297C93.3975 8.01888 94.3755 6.8208 96.1496 6.8208ZM96.1496 11.8896C97.2868 11.8896 97.719 10.8298 97.719 9.79297C97.719 8.7792 97.2641 7.7424 96.1496 7.7424C95.0351 7.7424 94.5574 8.7792 94.5574 9.79297C94.5802 10.8298 95.0123 11.8896 96.1496 11.8896Z" fill="white"/>
<path d="M104.975 7.97271C104.611 7.81143 104.224 7.71927 103.815 7.71927C103.428 7.71927 102.928 7.88055 102.928 8.52567C102.928 9.53943 105.384 9.10168 105.384 11.037C105.384 12.3042 104.406 12.7881 103.269 12.7881C102.655 12.7881 102.382 12.6959 101.813 12.5577L101.927 11.5209C102.314 11.7513 102.746 11.8895 103.201 11.8895C103.633 11.8895 104.202 11.6591 104.202 11.1522C104.202 10.0463 101.745 10.5071 101.745 8.59479C101.745 7.30455 102.723 6.84375 103.701 6.84375C104.202 6.84375 104.634 6.91287 105.043 7.05111L104.975 7.97271Z" fill="white"/>
<path d="M109.478 7.8342H107.863V6.9126H112.207V7.8342H110.592V12.6957H109.478V7.8342Z" fill="white"/>
<path d="M114.937 6.9126H118.257V7.8342H116.074V9.26269H118.075V10.1612H116.074V11.7971H118.28V12.6957H114.937V6.9126Z" fill="white"/>
<path d="M124.467 7.97271C124.126 7.81143 123.717 7.71927 123.33 7.71927C122.943 7.71927 122.443 7.88055 122.443 8.52567C122.443 9.53943 124.899 9.10168 124.899 11.037C124.899 12.3042 123.921 12.7881 122.784 12.7881C122.17 12.7881 121.897 12.6959 121.351 12.5577L121.442 11.5209C121.829 11.7513 122.284 11.8895 122.716 11.8895C123.148 11.8895 123.717 11.6591 123.717 11.1522C123.717 10.0463 121.26 10.5071 121.26 8.59479C121.26 7.30455 122.238 6.84375 123.216 6.84375C123.694 6.84375 124.149 6.91287 124.558 7.05111L124.467 7.97271Z" fill="white"/>
<path d="M91.2596 27.9946C90.8501 28.0867 90.418 28.1789 89.9858 28.1789C88.1663 28.1789 86.9153 27.2342 86.9153 25.2758C86.9153 23.2944 88.098 22.1885 89.9858 22.1885C90.3498 22.1885 90.8501 22.2576 91.2596 22.4189L91.1913 23.3866C90.7592 23.1331 90.3725 23.087 89.9631 23.087C88.8031 23.087 88.0753 24.0086 88.0753 25.1837C88.0753 26.3587 88.7804 27.2342 89.9858 27.2342C90.418 27.2342 90.9639 27.1421 91.2141 27.0038L91.2596 27.9946Z" fill="white"/>
<path d="M95.717 22.3037H96.9907L99.1969 28.0868H97.9459L97.4683 26.7735H95.1938L94.6934 28.0868H93.5334L95.717 22.3037ZM96.3538 23.4557L95.535 25.8519H97.1726L96.3538 23.4557Z" fill="white"/>
<path d="M101.881 22.3037H103.268L105.406 26.6122H105.429V22.3037H106.521V28.0637H105.133L102.995 23.7552H102.972V28.0637H101.881V22.3037Z" fill="white"/>
<path d="M111.388 22.3037H112.662L114.868 28.0868H113.617L113.14 26.7735H110.865L110.365 28.0868H109.205L111.388 22.3037ZM112.002 23.4557L111.161 25.8519H112.799L112.002 23.4557Z" fill="white"/>
<path d="M117.598 22.3037H119.145C120.873 22.3037 122.397 22.9028 122.397 25.1837C122.397 27.4877 120.873 28.0637 119.145 28.0637H117.598V22.3037ZM118.735 27.1652H119.372C120.305 27.1652 121.214 26.4509 121.214 25.1837C121.214 23.9165 120.305 23.2023 119.372 23.2023H118.735V27.1652Z" fill="white"/>
<path d="M127.038 22.3037H128.311L130.517 28.0868H129.267L128.789 26.7735H126.514L126.014 28.0868H124.854L127.038 22.3037ZM127.674 23.4557L126.856 25.8519H128.493L127.674 23.4557Z" fill="white"/>
<path d="M11.7664 12.6268C11.357 12.719 10.9021 12.8111 10.4927 12.8111C8.67313 12.8111 7.39941 11.8665 7.39941 9.93112C7.39941 7.94967 8.58215 6.84375 10.4927 6.84375C10.8566 6.84375 11.357 6.91287 11.7664 7.07415L11.6982 8.04183C11.266 7.78839 10.8794 7.74231 10.4927 7.74231C9.33273 7.74231 8.60489 8.64087 8.60489 9.83896C8.60489 11.014 9.30998 11.9126 10.5155 11.9126C10.9476 11.9126 11.4707 11.8204 11.7437 11.6591L11.7664 12.6268Z" fill="white"/>
<path d="M16.2241 6.9126H17.4978L19.704 12.6957H18.4531L17.9754 11.3824H15.7009L15.2006 12.6957H14.0178L16.2241 6.9126ZM16.8382 8.08764L16.0194 10.4608H17.657L16.8382 8.08764Z" fill="white"/>
<path d="M22.3879 6.9126H23.7526L25.9134 11.2441V6.9126H27.0051V12.6957H25.6177L23.4797 8.38716H23.4569V12.6957H22.3879V6.9126Z" fill="white"/>
<path d="M31.8725 6.9126H33.1462L35.3524 12.6957H34.1015L33.6238 11.3824H31.3493L30.849 12.6957H29.689L31.8725 6.9126ZM32.5093 8.08764L31.6678 10.4608H33.3054L32.5093 8.08764Z" fill="white"/>
<path d="M38.1042 6.9126H39.6509C41.3795 6.9126 42.9034 7.51164 42.9034 9.81565C42.9034 12.1197 41.3795 12.6957 39.6509 12.6957H38.1042V6.9126ZM39.2187 11.7971H39.8556C40.7881 11.7971 41.6979 11.0828 41.6979 9.81565C41.6979 8.54844 40.7881 7.8342 39.8556 7.8342H39.2187V11.7971Z" fill="white"/>
<path d="M47.5439 6.9126H48.8176L51.0238 12.6957H49.7729L49.2952 11.3824H47.0207L46.5203 12.6957H45.3604L47.5439 6.9126ZM48.158 8.08764L47.3164 10.4608H48.954L48.158 8.08764Z" fill="white"/>
<path d="M7.58105 22.3037H8.99124C10.2195 22.3037 11.334 22.6723 11.334 24.0547C11.334 25.4141 10.3787 25.898 9.17319 25.898H8.69555V28.0868H7.58105V22.3037ZM8.69555 24.9764H9.08222C9.65084 24.9764 10.1512 24.792 10.1512 24.1239C10.1512 23.4557 9.65084 23.2253 9.08222 23.2253H8.69555V24.9764Z" fill="white"/>
<path d="M16.6335 22.1885C18.4076 22.1885 19.3856 23.4096 19.3856 25.1606C19.3856 26.9117 18.4303 28.1789 16.6335 28.1789C14.8366 28.1789 13.8813 26.9347 13.8813 25.1606C13.8813 23.3866 14.8594 22.1885 16.6335 22.1885ZM16.6335 27.2573C17.7935 27.2573 18.2256 26.2205 18.2256 25.1606C18.2256 24.1469 17.7707 23.1101 16.6335 23.1101C15.519 23.1101 15.0641 24.1469 15.0641 25.1606C15.0641 26.2205 15.4962 27.2573 16.6335 27.2573Z" fill="white"/>
<path d="M25.4585 23.3635C25.0946 23.2022 24.7079 23.1101 24.3212 23.1101C23.9346 23.1101 23.4342 23.2714 23.4342 23.9165C23.4342 24.9072 25.8906 24.4925 25.8906 26.4278C25.8906 27.695 24.9126 28.1789 23.7754 28.1789C23.1613 28.1789 22.8883 28.0867 22.3424 27.9485L22.4334 26.9117C22.8201 27.119 23.275 27.2573 23.7071 27.2573C24.1393 27.2573 24.7079 27.0269 24.7079 26.52C24.7079 25.4141 22.2515 25.8749 22.2515 23.9626C22.2515 22.6723 23.2295 22.1885 24.2075 22.1885C24.6852 22.1885 25.1401 22.2576 25.5495 22.3958L25.4585 23.3635Z" fill="white"/>
<path d="M29.9621 23.2023H28.3472V22.3037H32.6914V23.2023H31.0993V28.0637H29.9621V23.2023Z" fill="white"/>
</svg>
