<svg width="145" height="35" viewBox="0 0 145 35" fill="none" xmlns="http://www.w3.org/2000/svg">
<path d="M26.8504 20.6392C26.3415 22.8739 24.1588 29.473 12.5357 29.473C4.44769 29.473 0.537598 25.3584 0.537598 19.4956C0.537598 12.4102 6.17509 6.521 15.6691 6.521C21.8824 6.521 27.4396 8.63742 27.6002 15.2101H19.4721C19.5524 13.1595 18.2937 11.9895 15.6423 11.9895C10.8752 11.9895 9.14783 16.2881 9.14783 19.3904C9.14783 21.2045 9.69685 24.0176 13.6471 24.0176C16.352 24.0176 17.8652 22.5716 18.4142 20.6392H26.8504ZM29.9436 17.8392C31.1622 13.6064 35.3401 12.6205 40.308 12.6205C43.9905 12.6205 50.1636 12.9886 50.1636 16.8533C50.1636 19.3378 47.6997 26.4889 47.6997 27.5274C47.6997 28.1058 47.8202 28.5659 48.0077 28.934H40.4152C40.2143 28.4476 40.1072 27.9218 40.1473 27.396H40.067C38.7011 28.6842 36.0766 29.3284 33.8135 29.3284C30.3319 29.3284 27.2387 28.1321 27.2387 25.0955C27.2387 20.889 31.2291 19.7585 37.0541 19.4167C39.2502 19.2984 42.7184 19.535 42.7184 17.5763C42.7184 16.4721 41.473 16.1961 40.2946 16.1961C38.7279 16.1961 37.6299 16.6299 37.2014 17.8261H29.9436V17.8392ZM37.4558 25.7528C40.0804 25.7528 41.1383 24.2542 41.6069 21.888C40.3616 22.3744 38.9154 22.5059 37.496 22.5979C36.2105 22.6899 34.9919 23.2157 34.9919 24.3725C34.9919 25.4767 36.1971 25.7528 37.4558 25.7528ZM54.7432 13.028H62.2152L61.6261 15.0524H61.7064C63.1928 13.6064 65.5361 12.6336 68 12.6336C71.562 12.6336 74.6151 13.8036 74.6151 16.9322C74.6151 17.6421 74.374 18.7989 74.066 19.9688L71.6021 28.9603H63.8623L65.8575 21.6514C66.0986 20.7312 66.4869 19.6533 66.4869 19.0092C66.4869 17.997 65.5495 17.4712 64.2908 17.4712C61.8269 17.4712 61.0101 18.8514 60.5414 20.5078L58.2516 28.9471H50.5118L54.7432 13.028ZM79.034 13.028H86.5462L86.0775 14.8421H86.1579C87.4835 13.3698 89.2109 12.6336 91.5945 12.6336C97.2989 12.6336 98.9862 16.3407 98.9862 19.1669C98.9862 23.8861 95.9732 29.3547 89.0904 29.3547C86.8676 29.3547 84.6715 29.1443 82.9843 27.0279L81.1497 34.1002H73.4099L79.034 13.028ZM91.2329 19.8636C91.2329 18.2993 90.6839 17.0374 88.4209 17.0374C84.9795 17.0374 84.3501 20.9021 84.3501 22.3087C84.3501 22.8871 84.6179 24.9115 87.1622 24.9115C90.2554 24.9246 91.2329 21.9275 91.2329 19.8636ZM101.919 17.8392C103.137 13.6064 107.315 12.6205 112.283 12.6205C115.966 12.6205 122.139 12.9886 122.139 16.8533C122.139 19.3378 119.675 26.4889 119.675 27.5274C119.675 28.1058 119.795 28.5659 119.983 28.934H112.39C112.189 28.4476 112.082 27.9218 112.122 27.396H112.042C110.676 28.6842 108.052 29.3284 105.789 29.3284C102.307 29.3284 99.2138 28.1321 99.2138 25.0955C99.2138 20.889 103.204 19.7585 109.029 19.4167C111.225 19.2984 114.693 19.535 114.693 17.5763C114.693 16.4721 113.448 16.1961 112.27 16.1961C110.703 16.1961 109.605 16.6299 109.176 17.8261H101.919V17.8392ZM109.431 25.7528C112.056 25.7528 113.113 24.2542 113.582 21.888C112.337 22.3744 110.891 22.5059 109.471 22.5979C108.186 22.6899 106.967 23.2157 106.967 24.3725C106.967 25.4767 108.186 25.7528 109.431 25.7528ZM126.759 13.028H134.271L133.601 15.5125H133.682C135.047 13.8299 137.592 12.6336 139.587 12.6336C140.872 12.6336 141.622 12.6994 142.319 12.8834L140.872 18.2467C139.935 17.9707 138.877 17.8524 137.9 17.8524C134.619 17.8524 132.972 18.9566 132.075 22.2955L130.32 28.9471H122.581L126.759 13.028Z" fill="#6B7280"/>
<path d="M32.3003 11.2928C32.3003 11.2928 57.4213 1.68345 92.6389 0.960448C123.96 0.31632 144.407 4.98296 144.407 4.98296L143.175 9.38668C143.175 9.38668 123.812 4.58859 92.6389 4.02334C60.0459 3.44494 32.3003 11.2928 32.3003 11.2928Z" fill="#9CA3AF"/>
</svg>
