<svg width="101" height="33" viewBox="0 0 101 33" fill="none" xmlns="http://www.w3.org/2000/svg">
<path d="M63.9708 0.922363H34.5144V31.5339H63.9708V0.922363Z" fill="#4B5563"/>
<path d="M16.3206 32.1117C25.0928 32.1117 32.204 25.0005 32.204 16.2283C32.204 7.4562 25.0928 0.344971 16.3206 0.344971C7.54848 0.344971 0.437256 7.4562 0.437256 16.2283C0.437256 25.0005 7.54848 32.1117 16.3206 32.1117Z" fill="#6B7280"/>
<path d="M65.126 0.922363L83.0394 32.1115L100.936 0.922363H65.126Z" fill="#BBC0C9"/>
<path d="M22.9813 20.2419C21.6499 22.6008 19.2063 24.1851 16.4257 24.1851C12.2294 24.1851 8.8084 20.6116 8.8084 16.2284C8.8084 11.8452 12.2294 8.27172 16.4257 8.27172C19.2232 8.27172 21.6836 9.87361 23.015 12.2148L25.2732 10.8594C23.5037 7.69081 20.1838 5.54321 16.4425 5.54321C10.797 5.54321 6.21313 10.3313 6.21313 16.2284C6.21313 22.1255 10.7633 26.9136 16.4425 26.9136C20.2175 26.9136 23.5037 24.766 25.2732 21.5974L22.9813 20.2419Z" fill="#F3F4F6"/>
<path d="M58.7727 6.12061H39.7126V8.7446H47.8641V25.7582H50.6041V8.7446H58.7727V6.12061Z" fill="#F3F4F6"/>
<path d="M94.5824 6.12061H91.4778L83.3281 20.4595L75.1784 6.12061H72.0569L83.3281 25.7582L94.5824 6.12061Z" fill="#F3F4F6"/>
</svg>