<svg width="123" height="45" viewBox="0 0 123 45" fill="none" xmlns="http://www.w3.org/2000/svg">
<g clip-path="url(#clip0_2736_9498)">
<path fill-rule="evenodd" clip-rule="evenodd" d="M68.5262 40.6468H72.4854C78.8746 40.6468 83.7536 37.5175 83.7536 26.9308C83.7536 18.4242 79.618 15.0788 73.0731 15.0788H68.5262V40.6468ZM77.4252 12.4475C87.3568 12.8108 91.4465 19.5608 91.4465 26.9748C91.4465 37.2095 84.0727 43.2728 74.5559 43.2728H61.5767V12.4475H77.4252Z" fill="#6B7280"/>
<path fill-rule="evenodd" clip-rule="evenodd" d="M122.14 38.0448L121.132 41.9061C118.355 43.2975 115.096 43.8395 112.015 43.8395C102.162 43.8395 94.7085 37.9148 94.7085 28.7001C94.7085 16.9881 103.002 11.6301 113.034 11.6301C116.067 11.6301 119.765 12.4028 122.419 13.8448C122.015 15.3728 121.728 16.8955 121.357 18.4628H120.724C119.019 16.0428 116.067 14.3368 113.074 14.3368C105.435 14.3368 102.358 21.4721 102.358 28.0748C102.358 35.7588 106.212 41.1441 113.313 41.1441C116.156 41.1441 119.471 39.7048 121.553 37.7848L122.14 38.0448Z" fill="#6B7280"/>
<path fill-rule="evenodd" clip-rule="evenodd" d="M40.9605 40.1636V27.8916C38.5962 28.4336 36.3726 29.0676 34.27 29.7656V43.2976H55.262C55.165 42.6923 55.0283 42.0283 55.0283 41.4216C55.0283 40.8189 55.165 40.1636 55.262 39.5569C52.5246 39.8936 45.5327 40.1249 40.9605 40.1636Z" fill="#6B7280"/>
<path fill-rule="evenodd" clip-rule="evenodd" d="M5.22529 42.7643L4.70459 43.2617H12.9558L13.0413 43.1897C18.9603 37.849 31.9737 28.7097 52.499 27.445L52.5331 26.8577C39.2997 24.8243 19.5445 28.9397 5.22529 42.7643Z" fill="#6B7280"/>
<path fill-rule="evenodd" clip-rule="evenodd" d="M55.7291 12.4475H34.293V25.5542C36.6225 25.0635 38.7558 24.8102 41.0033 24.6182V15.6728C45.7033 15.5955 52.9288 15.9455 55.7291 16.3068C55.6492 15.6728 55.4982 15.0175 55.4982 14.3808C55.4982 13.7502 55.6492 13.0748 55.7291 12.4475Z" fill="#6B7280"/>
<path fill-rule="evenodd" clip-rule="evenodd" d="M13.1015 30.2956L13.3864 23.2702L13.2436 23.1429L12.9498 23.0096H12.4004L6.52166 24.1102L7.28768 22.3122V21.4842L6.99726 21.0649L0.0703125 15.9842L1.62831 15.4289L1.77045 15.2929L2.0472 14.8816V14.4676L0.779613 10.4796L4.17441 11.0189H4.6015L5.01765 10.8856L5.43653 10.3322L5.94015 8.9649L8.91128 12.4302L9.08211 12.5722L9.24133 12.6529L9.41011 12.6942L9.62331 12.6776L9.7716 12.6162L9.90826 12.5136L9.94858 12.3916L9.99095 12.2082L9.9397 11.9749L8.45276 4.4049L10.3982 5.65824L11.1075 5.80024L11.5257 5.50824L11.8223 5.25024L13.9413 0.55957L15.9407 5.25024L16.2195 5.50824L16.65 5.80024L17.3621 5.65824L19.2959 4.4049L17.8206 11.9749L17.7611 12.2082L17.8069 12.3916L17.8547 12.5136L17.9914 12.6162L18.1253 12.6776L18.3502 12.6942L18.521 12.6529L18.6583 12.5722L18.8463 12.4302L21.8174 8.9649L22.3183 10.3322L22.7255 10.8856L23.1533 11.0189H23.5831L26.967 10.4796L25.7103 14.4676V14.8816L25.9837 15.2929L26.1265 15.4289L27.6879 15.9842L20.763 21.0649L20.4699 21.4842V22.3122L21.2359 24.1102L15.3606 23.0096H14.8071L14.5139 23.1429L14.3656 23.2702L14.6622 30.2956H13.1015Z" fill="#9CA3AF"/>
</g>
<defs>
<clipPath id="clip0_2736_9498">
<rect width="123" height="44" fill="white" transform="translate(0 0.228271)"/>
</clipPath>
</defs>
</svg>
