<svg width="140" height="40" viewBox="0 0 140 40" fill="none" xmlns="http://www.w3.org/2000/svg">
<path d="M52.9218 14.8995C49.835 14.8995 47.3545 17.2045 47.3545 20.5595C47.3545 23.9145 49.835 26.1895 52.8763 26.1895C55.2255 26.1895 57.1452 25.1245 58.095 22.9045L55.5488 22.3695C54.7708 23.6745 53.7149 23.7795 52.8763 23.7795C51.5577 23.7795 50.4564 22.8395 50.1785 21.2995H58.3779V20.3395C58.2718 17.0945 55.7913 14.8945 52.9218 14.8945V14.8995ZM50.2695 19.3195C50.613 17.9945 51.8457 17.3545 52.9218 17.3545C54.0635 17.3545 55.0992 17.9545 55.4679 19.3195H50.2695Z" fill="#472F92"/>
<path d="M67.2596 17.5846L64.1577 16.9646C63.0362 16.7496 62.7128 16.2396 62.7128 15.5146C62.7128 14.5546 63.5919 13.7446 65.062 13.7446C66.5321 13.7446 67.6941 14.6196 67.9113 15.9646L70.8415 15.3646C70.2807 12.8246 68.0578 11.2446 65.1277 11.2446C61.7429 11.2446 59.6261 13.0396 59.6261 15.5996C59.6261 18.3946 61.6924 19.3346 63.4201 19.6996L66.4816 20.2746C67.7749 20.5296 68.1639 21.0196 68.1639 21.8346C68.1639 22.8596 67.2798 23.6496 65.5975 23.6496C63.9152 23.6496 62.7482 22.9446 62.3592 21.3246L59.2725 21.9446C59.6413 24.8046 62.2935 26.1896 65.3146 26.1896C68.7449 26.1896 71.0536 24.4596 71.0536 21.6846C71.0536 19.4646 69.6088 18.0746 67.2546 17.5846H67.2596Z" fill="#472F92"/>
<path d="M125.039 14.8995C121.957 14.8995 119.472 17.2045 119.472 20.5595C119.472 23.9145 121.952 26.1895 124.993 26.1895C127.348 26.1895 129.267 25.1245 130.217 22.9045L127.671 22.3695C126.898 23.6745 125.837 23.7795 124.999 23.7795C123.68 23.7795 122.584 22.8395 122.301 21.2995H130.5V20.3395C130.394 17.0945 127.914 14.8945 125.039 14.8945V14.8995ZM122.387 19.3195C122.73 17.9945 123.963 17.3545 125.039 17.3545C126.186 17.3545 127.221 17.9545 127.585 19.3195H122.387Z" fill="#472F92"/>
<path d="M83.4307 19.3795C83.4307 16.7345 81.703 14.8995 79.1164 14.8995C77.6917 14.8995 76.5702 15.3445 75.7265 16.1795V10.4995H71.2656L71.8112 11.6345C71.988 12.0045 72.468 12.3045 72.8823 12.3045V24.0795H72.2002V25.8745H76.4085V24.0795H75.7316V21.1595C75.7316 18.5545 76.7925 17.4845 78.4091 17.4845C79.7226 17.4845 80.5865 18.4895 80.5865 19.9795V24.0745H79.9095V25.8695H84.1178V24.0745H83.4358V19.3795H83.4307Z" fill="#472F92"/>
<path d="M99.4807 14.8994C98.0156 14.8994 96.8234 15.3244 95.9191 16.0744V15.2194H91.4531L91.9987 16.3544C92.1756 16.7194 92.6605 17.0194 93.0698 17.0194V27.7044H92.3877V29.5044H96.596V27.7044H95.914V25.0394C96.8183 25.7694 98.0055 26.1944 99.4756 26.1944C102.214 26.1944 104.76 23.9144 104.76 20.5644C104.76 17.2144 102.214 14.9044 99.4756 14.9044L99.4807 14.8994ZM98.9805 23.7394C97.4448 23.7394 95.9191 22.5244 95.9191 20.5594C95.9191 18.5944 97.4498 17.3544 98.9805 17.3544C100.703 17.3544 102.002 18.5944 102.002 20.5594C102.002 22.5244 100.703 23.7394 98.9805 23.7394Z" fill="#472F92"/>
<path d="M112.782 14.8994C111.317 14.8994 110.13 15.3244 109.226 16.0744V15.2194H104.76L105.305 16.3544C105.487 16.7194 105.967 17.0194 106.376 17.0194V27.7044H105.694V29.5044H109.903V27.7044H109.226V25.0394C110.13 25.7694 111.317 26.1944 112.782 26.1944C115.52 26.1944 118.067 23.9144 118.067 20.5644C118.067 17.2144 115.52 14.9044 112.782 14.9044V14.8994ZM112.287 23.7394C110.756 23.7394 109.226 22.5244 109.226 20.5594C109.226 18.5944 110.756 17.3544 112.287 17.3544C114.01 17.3544 115.308 18.5944 115.308 20.5594C115.308 22.5244 114.01 23.7394 112.287 23.7394Z" fill="#472F92"/>
<path d="M139.24 15.0645C137.492 15.0645 136.239 15.9195 135.38 17.1595V15.2145H130.914L131.465 16.3495C131.642 16.7145 132.121 17.0145 132.531 17.0145V24.0745H131.854V25.8695H136.057V24.0745H135.38V22.4295C135.38 19.4645 136.587 17.8645 139.219 17.8645H139.846L139.997 15.1545C139.74 15.0645 139.523 15.0645 139.245 15.0645H139.24Z" fill="#472F92"/>
<path d="M88.2248 13.8295C89.2201 13.8295 89.9476 13.1245 89.9476 12.1845C89.9476 11.2445 89.215 10.4995 88.2248 10.4995C87.2347 10.4995 86.4971 11.2895 86.4971 12.1845C86.4971 13.1245 87.2094 13.8295 88.2248 13.8295Z" fill="#472F92"/>
<path d="M89.6495 15.2146H85.1836L85.7343 16.3496C85.9111 16.7146 86.391 17.0146 86.8002 17.0146V24.0746H86.1182V25.8696H90.3265V24.0746H89.6445V15.2146H89.6495Z" fill="#472F92"/>
<path d="M5.91837 5.8593C-1.97279 13.6693 -1.97279 26.3343 5.91837 34.1443C13.8095 41.9543 26.6062 41.9543 34.4973 34.1443C42.3885 26.3343 42.3885 13.6693 34.4973 5.8593C26.6011 -1.9557 13.8095 -1.9557 5.91837 5.8593Z" fill="#472F92"/>
<path d="M21.5638 9.96447C21.3011 9.96447 21.0384 9.86447 20.8363 9.66447C20.4322 9.26447 20.4322 8.61947 20.8363 8.22447L22.4277 6.64947L20.8363 5.07447C20.4322 4.67947 20.4322 4.02947 20.8363 3.63447C21.2354 3.23447 21.8922 3.23447 22.2913 3.63447L24.6101 5.92947C25.0143 6.32447 25.0143 6.96947 24.6101 7.36947L22.2913 9.66447C22.0892 9.86447 21.8265 9.96447 21.5638 9.96447Z" fill="white"/>
<path d="M18.8358 36.6647C18.5731 36.6647 18.3104 36.5647 18.1083 36.3647L15.7894 34.0697C15.3853 33.6697 15.3853 33.0247 15.7894 32.6297L18.1083 30.3347C18.5074 29.9347 19.1642 29.9347 19.5633 30.3347C19.9674 30.7297 19.9674 31.3747 19.5633 31.7747L17.9719 33.3497L19.5633 34.9247C19.9674 35.3247 19.9674 35.9697 19.5633 36.3647C19.3612 36.5647 19.0985 36.6647 18.8358 36.6647Z" fill="white"/>
<path d="M34.1234 15.9045C33.8658 15.0545 33.1989 14.4145 32.33 14.1995C31.461 13.9845 30.5668 14.2245 29.9353 14.8495L27.0961 17.6595C26.8486 17.9045 26.7425 18.2545 26.8183 18.5945C27.3083 20.8345 26.6213 23.1395 24.9844 24.7595C22.5898 27.1295 18.8362 27.3445 16.1889 25.4195L24.939 16.7545C25.5907 16.1095 25.8938 15.1845 25.7523 14.2845C25.6058 13.3795 25.0551 12.6195 24.2367 12.2095C20.8115 10.4745 16.684 11.1245 13.9661 13.8145C10.7682 16.9795 10.5358 21.9895 13.279 25.4195L11.3492 27.3295C11.1168 27.5595 10.849 27.5745 10.7076 27.5645C10.455 27.5445 10.2276 27.4145 10.0761 27.2095C6.48413 22.2795 7.03479 15.5745 11.3845 11.2695C13.5417 9.13452 16.4011 7.85952 19.4374 7.67452C20.0032 7.63952 20.4377 7.15952 20.4023 6.59452C20.3669 6.03452 19.8718 5.59952 19.3111 5.63952C15.7696 5.85452 12.4404 7.33952 9.92957 9.82452C4.86245 14.8395 4.22085 22.6495 8.40387 28.3945C8.90907 29.0845 9.68707 29.5195 10.5358 29.5895C10.6116 29.5945 10.6924 29.5995 10.7682 29.5995C11.526 29.5995 12.2535 29.3045 12.7991 28.7695L14.7087 26.8795C18.1744 29.5895 23.2314 29.3695 26.4293 26.2045C28.4248 24.2295 29.3342 21.4695 28.9199 18.7295L31.3752 16.2995C31.5318 16.1445 31.7136 16.1595 31.8046 16.1845C31.9006 16.2095 32.0673 16.2795 32.1329 16.4995C33.4414 20.8545 32.239 25.5495 28.9957 28.7595C26.8435 30.8895 23.9841 32.1695 20.9428 32.3545C20.377 32.3895 19.9426 32.8745 19.9779 33.4345C20.0133 33.9745 20.4629 34.3895 21.0035 34.3895C21.0237 34.3895 21.0489 34.3895 21.0691 34.3895C24.6106 34.1745 27.9398 32.6845 30.4506 30.2045C34.2295 26.4695 35.6289 20.9945 34.1032 15.9245L34.1234 15.9045ZM15.4211 15.2495C16.7295 13.9545 18.4573 13.2795 20.2103 13.2795C21.2561 13.2795 22.317 13.5195 23.2971 14.0195C23.6052 14.1745 23.6962 14.4495 23.7164 14.5995C23.7568 14.8645 23.676 15.1245 23.484 15.3145L14.7441 23.9645C13.8903 22.8195 13.4306 21.4445 13.4306 19.9945C13.4306 18.2045 14.1379 16.5195 15.416 15.2495H15.4211Z" fill="white"/>
</svg>
