<svg width="140" height="42" viewBox="0 0 140 42" fill="none" xmlns="http://www.w3.org/2000/svg">
<path d="M52.9228 15.8444C49.836 15.8444 47.3555 18.1734 47.3555 21.5633C47.3555 24.9533 49.836 27.2519 52.8774 27.2519C55.2266 27.2519 57.1464 26.1759 58.0961 23.9327L55.5499 23.3922C54.7719 24.7108 53.716 24.8169 52.8774 24.8169C51.5588 24.8169 50.4574 23.8671 50.1796 22.311H58.3791V21.341C58.273 18.0623 55.7924 15.8394 52.9228 15.8394V15.8444ZM50.2705 20.3104C50.614 18.9716 51.8467 18.325 52.9228 18.325C54.0646 18.325 55.1003 18.9312 55.4691 20.3104H50.2705Z" fill="white"/>
<path d="M67.2607 18.5623L64.1588 17.9358C63.0372 17.7186 62.7139 17.2033 62.7139 16.4707C62.7139 15.5007 63.5929 14.6823 65.0631 14.6823C66.5332 14.6823 67.6952 15.5664 67.9124 16.9254L70.8426 16.3191C70.2819 13.7527 68.059 12.1562 65.1288 12.1562C61.7439 12.1562 59.6271 13.9699 59.6271 16.5566C59.6271 19.3807 61.6934 20.3305 63.4212 20.6993L66.4827 21.2803C67.776 21.5379 68.165 22.033 68.165 22.8565C68.165 23.8922 67.2809 24.6904 65.5986 24.6904C63.9163 24.6904 62.7493 23.9781 62.3602 22.3412L59.2734 22.9676C59.6422 25.8574 62.2946 27.2568 65.3157 27.2568C68.746 27.2568 71.0548 25.5088 71.0548 22.7049C71.0548 20.4618 69.6099 19.0574 67.2557 18.5623H67.2607Z" fill="white"/>
<path d="M125.041 15.8444C121.959 15.8444 119.474 18.1734 119.474 21.5633C119.474 24.9533 121.954 27.2519 124.996 27.2519C127.35 27.2519 129.27 26.1759 130.219 23.9327L127.673 23.3922C126.9 24.7108 125.839 24.8169 125.001 24.8169C123.682 24.8169 122.586 23.8671 122.303 22.311H130.502V21.341C130.396 18.0623 127.916 15.8394 125.041 15.8394V15.8444ZM122.389 20.3104C122.732 18.9716 123.965 18.325 125.041 18.325C126.188 18.325 127.223 18.9312 127.587 20.3104H122.389Z" fill="white"/>
<path d="M83.4319 20.376C83.4319 17.7035 81.7041 15.8494 79.1175 15.8494C77.6928 15.8494 76.5713 16.299 75.7276 17.1427V11.4036H71.2666L71.8122 12.5504C71.989 12.9242 72.469 13.2273 72.8833 13.2273V25.1249H72.2012V26.9386H76.4096V25.1249H75.7326V22.1745C75.7326 19.5424 76.7935 18.4613 78.4102 18.4613C79.7237 18.4613 80.5876 19.4767 80.5876 20.9823V25.1199H79.9107V26.9336H84.119V25.1199H83.437V20.376H83.4319Z" fill="white"/>
<path d="M99.4828 15.8442C98.0177 15.8442 96.8254 16.2737 95.9211 17.0315V16.1676H91.4551L92.0007 17.3144C92.1775 17.6832 92.6625 17.9863 93.0717 17.9863V28.7825H92.3897V30.6013H96.5981V28.7825H95.916V26.0898C96.8204 26.8274 98.0076 27.2568 99.4777 27.2568C102.216 27.2568 104.762 24.9531 104.762 21.5682C104.762 18.1833 102.216 15.8493 99.4777 15.8493L99.4828 15.8442ZM98.9826 24.7763C97.4468 24.7763 95.9211 23.5486 95.9211 21.5632C95.9211 19.5777 97.4519 18.3248 98.9826 18.3248C100.705 18.3248 102.004 19.5777 102.004 21.5632C102.004 23.5486 100.705 24.7763 98.9826 24.7763Z" fill="white"/>
<path d="M112.784 15.8442C111.319 15.8442 110.132 16.2737 109.228 17.0315V16.1676H104.762L105.307 17.3144C105.489 17.6832 105.969 17.9863 106.378 17.9863V28.7825H105.696V30.6013H109.905V28.7825H109.228V26.0898C110.132 26.8274 111.319 27.2568 112.784 27.2568C115.523 27.2568 118.069 24.9531 118.069 21.5682C118.069 18.1833 115.523 15.8493 112.784 15.8493V15.8442ZM112.289 24.7763C110.759 24.7763 109.228 23.5486 109.228 21.5632C109.228 19.5777 110.759 18.3248 112.289 18.3248C114.012 18.3248 115.31 19.5777 115.31 21.5632C115.31 23.5486 114.012 24.7763 112.289 24.7763Z" fill="white"/>
<path d="M139.242 16.0161C137.494 16.0161 136.241 16.88 135.382 18.1329V16.1677H130.916L131.467 17.3145C131.644 17.6833 132.123 17.9864 132.533 17.9864V25.1199H131.856V26.9336H136.059V25.1199H135.382V23.4578C135.382 20.4619 136.589 18.8453 139.222 18.8453H139.848L140 16.107C139.742 16.0161 139.525 16.0161 139.247 16.0161H139.242Z" fill="white"/>
<path d="M88.2268 14.7682C89.2221 14.7682 89.9496 14.0559 89.9496 13.1061C89.9496 12.1563 89.217 11.4036 88.2268 11.4036C87.2366 11.4036 86.499 12.2018 86.499 13.1061C86.499 14.0559 87.2114 14.7682 88.2268 14.7682Z" fill="white"/>
<path d="M89.6516 16.1677H85.1855L85.7362 17.3145C85.913 17.6833 86.393 17.9865 86.8022 17.9865V25.12H86.1202V26.9337H90.3285V25.12H89.6465V16.1677H89.6516Z" fill="white"/>
<path d="M5.91848 6.71023C-1.97283 14.6015 -1.97283 27.3984 5.91848 35.2897C13.8098 43.181 26.6066 43.181 34.498 35.2897C42.3893 27.3984 42.3893 14.6015 34.498 6.71023C26.6066 -1.18108 13.8098 -1.18108 5.91848 6.71023Z" fill="white"/>
<path d="M21.5648 10.858C21.3021 10.858 21.0394 10.7569 20.8373 10.5549C20.4331 10.1507 20.4331 9.49897 20.8373 9.09986L22.4287 7.50846L20.8373 5.91705C20.4331 5.51794 20.4331 4.86622 20.8373 4.46206C21.2364 4.05789 21.8932 4.05789 22.2923 4.46206L24.6112 6.78097C25.0154 7.18008 25.0154 7.83178 24.6112 8.23594L22.2923 10.5549C22.0902 10.7569 21.8275 10.858 21.5648 10.858Z" fill="#2FB5C0"/>
<path d="M18.8368 37.836C18.5741 37.836 18.3114 37.7349 18.1093 37.5329L15.7904 35.214C15.3863 34.8098 15.3863 34.1581 15.7904 33.759L18.1093 31.4401C18.5084 31.0359 19.1652 31.0359 19.5643 31.4401C19.9685 31.8392 19.9685 32.4909 19.5643 32.8951L17.9729 34.4865L19.5643 36.0779C19.9685 36.482 19.9685 37.1337 19.5643 37.5329C19.3622 37.7349 19.0995 37.836 18.8368 37.836Z" fill="#2FB5C0"/>
<path d="M34.1239 16.8598C33.8663 16.0009 33.1994 15.3543 32.3305 15.137C31.4615 14.9198 30.5673 15.1623 29.9358 15.7938L27.0965 18.6331C26.849 18.8806 26.7429 19.2343 26.8187 19.5778C27.3087 21.8411 26.6216 24.1701 24.9848 25.807C22.5901 28.2017 18.8364 28.4189 16.1891 26.4739L24.9393 17.7187C25.591 17.0669 25.8941 16.1323 25.7527 15.2229C25.6062 14.3085 25.0555 13.5406 24.2371 13.1263C20.8118 11.3733 16.6842 12.03 13.9662 14.748C10.7683 17.946 10.5359 23.0081 13.2792 26.4739L11.3493 28.4037C11.1169 28.6361 10.8491 28.6513 10.7077 28.6412C10.4551 28.621 10.2277 28.4896 10.0762 28.2825C6.48414 23.3012 7.03482 16.5264 11.3846 12.1765C13.5419 10.0193 16.4013 8.73105 19.4376 8.54412C20.0034 8.50876 20.4379 8.02376 20.4026 7.45288C20.3672 6.88705 19.8721 6.44751 19.3113 6.48793C15.7698 6.70517 12.4405 8.20563 9.92964 10.7165C4.86243 15.7837 4.22082 23.675 8.40392 29.4798C8.90913 30.177 9.68715 30.6165 10.5359 30.6873C10.6117 30.6923 10.6925 30.6974 10.7683 30.6974C11.5261 30.6974 12.2536 30.3993 12.7992 29.8587L14.7089 27.9491C18.1746 30.6873 23.2317 30.465 26.4297 27.267C28.4252 25.2715 29.3346 22.4827 28.9203 19.7142L31.3756 17.2589C31.5322 17.1023 31.7141 17.1175 31.805 17.1427C31.901 17.168 32.0677 17.2387 32.1334 17.461C33.4419 21.8613 32.2395 26.6052 28.9961 29.8486C26.8439 32.0008 23.9845 33.2941 20.9431 33.4811C20.3773 33.5164 19.9428 34.0065 19.9782 34.5723C20.0135 35.1179 20.4632 35.5372 21.0037 35.5372C21.024 35.5372 21.0492 35.5372 21.0694 35.5372C24.6109 35.32 27.9402 33.8145 30.4511 31.3087C34.23 27.5348 35.6294 22.0028 34.1037 16.88L34.1239 16.8598ZM15.4212 16.198C16.7297 14.8895 18.4575 14.2075 20.2106 14.2075C21.2563 14.2075 22.3173 14.45 23.2974 14.9552C23.6056 15.1118 23.6965 15.3897 23.7167 15.5412C23.7571 15.809 23.6763 16.0717 23.4843 16.2637L14.7443 25.0037C13.8905 23.8468 13.4307 22.4575 13.4307 20.9924C13.4307 19.1837 14.138 17.4812 15.4162 16.198H15.4212Z" fill="#472F92"/>
</svg>
