<svg width="154" height="35" viewBox="0 0 154 35" fill="none" xmlns="http://www.w3.org/2000/svg">
<path d="M110.043 26.9917C110.799 26.9917 111.487 26.9104 112.106 26.748C112.748 26.5652 113.287 26.3215 113.723 26.0168C114.182 25.6919 114.537 25.3264 114.789 24.9202C115.041 24.4937 115.168 24.0368 115.168 23.5494C115.168 22.9401 115.019 22.4324 114.72 22.0262C114.445 21.5997 114.055 21.2646 113.551 21.0209C113.047 20.7772 112.439 20.6046 111.728 20.5031C111.017 20.4015 110.249 20.3507 109.423 20.3507H107.497V18.1879L113.276 11.943H104.574V8.59207H118.607V11.3642L112.554 17.4872H113.345C114.147 17.4872 114.927 17.6091 115.684 17.8528C116.44 18.0965 117.105 18.462 117.679 18.9495C118.275 19.4369 118.745 20.0461 119.089 20.7772C119.456 21.5083 119.639 22.3511 119.639 23.3056C119.639 24.4632 119.364 25.4787 118.814 26.3519C118.286 27.2252 117.575 27.9665 116.681 28.5757C115.81 29.1647 114.801 29.6115 113.654 29.9161C112.508 30.2004 111.327 30.3426 110.111 30.3426C109.079 30.3426 108.048 30.2613 107.016 30.0989C105.984 29.9364 104.986 29.6826 104.023 29.3373L105.227 26.0473C105.433 26.1489 105.709 26.2504 106.053 26.3519C106.42 26.4535 106.821 26.555 107.256 26.6566C107.715 26.7581 108.174 26.8393 108.632 26.9003C109.114 26.9612 109.584 26.9917 110.043 26.9917Z" fill="#9CA3AF"/>
<path d="M137.842 23.3056C137.842 24.3008 137.624 25.2248 137.188 26.0778C136.776 26.9307 136.202 27.672 135.469 28.3016C134.735 28.9311 133.852 29.4287 132.82 29.7942C131.811 30.1598 130.722 30.3426 129.552 30.3426C128.36 30.3426 127.236 30.1801 126.182 29.8552C125.15 29.5099 124.244 29.0022 123.464 28.332C122.685 27.6618 122.066 26.819 121.607 25.8036C121.148 24.7882 120.919 23.6103 120.919 22.2699C120.919 20.2594 121.309 18.4316 122.088 16.7866C122.891 15.1416 123.911 13.72 125.15 12.5218C126.388 11.3033 127.775 10.3285 129.312 9.59734C130.848 8.84593 132.373 8.36867 133.886 8.16559L134.884 11.3033C133.669 11.5064 132.533 11.8414 131.479 12.3085C130.424 12.7553 129.484 13.3037 128.658 13.9535C127.833 14.6034 127.133 15.3244 126.56 16.1164C126.01 16.9084 125.631 17.7309 125.425 18.5839C125.884 18.0762 126.571 17.6497 127.489 17.3045C128.406 16.9389 129.415 16.7561 130.516 16.7561C131.547 16.7561 132.511 16.9084 133.405 17.2131C134.299 17.4974 135.067 17.9239 135.709 18.4925C136.374 19.0408 136.89 19.7212 137.257 20.5335C137.647 21.3459 137.842 22.2699 137.842 23.3056ZM133.508 23.458C133.508 22.3613 133.13 21.5286 132.373 20.96C131.639 20.3914 130.642 20.107 129.38 20.107C128.463 20.107 127.638 20.2898 126.904 20.6554C126.17 21.0209 125.631 21.4474 125.287 21.9348C125.241 22.1582 125.207 22.4121 125.184 22.6964C125.184 22.9604 125.184 23.1736 125.184 23.3361C125.184 23.8235 125.276 24.2906 125.459 24.7374C125.643 25.1842 125.906 25.5802 126.25 25.9255C126.617 26.2504 127.053 26.5144 127.557 26.7175C128.062 26.9003 128.647 26.9917 129.312 26.9917C129.839 26.9917 130.355 26.9104 130.859 26.748C131.364 26.5652 131.811 26.3215 132.201 26.0168C132.591 25.7122 132.9 25.3467 133.13 24.9202C133.382 24.4734 133.508 23.986 133.508 23.458Z" fill="#9CA3AF"/>
<path d="M143.752 26.8393C144.508 26.8393 145.208 26.7581 145.85 26.5956C146.492 26.4332 147.042 26.1996 147.501 25.895C147.982 25.5904 148.349 25.2147 148.601 24.7679C148.877 24.3211 149.014 23.8134 149.014 23.2447C149.014 22.1278 148.51 21.2545 147.501 20.6249C146.515 19.975 145.024 19.6501 143.029 19.6501C142.777 19.6501 142.479 19.6603 142.135 19.6806C141.814 19.6806 141.504 19.6907 141.206 19.711C140.862 19.7313 140.507 19.7415 140.14 19.7415V8.59207H152.591V12.2476H143.992V16.421C144.176 16.421 144.359 16.4109 144.543 16.3906C144.703 16.3906 144.852 16.3906 144.99 16.3906C145.15 16.3703 145.288 16.3601 145.403 16.3601C146.549 16.3601 147.615 16.5124 148.601 16.8171C149.587 17.1014 150.447 17.538 151.181 18.127C151.915 18.7159 152.477 19.4369 152.867 20.2898C153.279 21.1225 153.486 22.0465 153.486 23.0619C153.486 24.2602 153.233 25.3162 152.729 26.2301C152.224 27.1237 151.537 27.8751 150.665 28.4843C149.794 29.0936 148.785 29.5607 147.638 29.8856C146.492 30.1903 145.265 30.3426 143.958 30.3426C143.453 30.3426 142.915 30.2918 142.341 30.1903C141.768 30.109 141.206 30.0075 140.656 29.8856C140.106 29.7435 139.59 29.5912 139.108 29.4287C138.649 29.2662 138.26 29.1139 137.939 28.9717L139.383 25.8036C139.773 26.0067 140.369 26.2301 141.172 26.4738C141.997 26.7175 142.857 26.8393 143.752 26.8393Z" fill="#9CA3AF"/>
<path d="M36.992 30.3426C35.7114 30.3426 34.4412 30.2086 33.1813 29.9406C31.9421 29.695 30.9198 29.36 30.1143 28.9357V25.2845C31.1469 25.8204 32.2313 26.2224 33.3672 26.4904C34.5032 26.7583 35.6185 26.8923 36.7131 26.8923C38.0969 26.8923 39.1503 26.6132 39.8732 26.0549C40.596 25.4966 40.9575 24.7262 40.9575 23.7436C40.9575 23.0513 40.7923 22.4818 40.4618 22.0352C40.1313 21.5662 39.646 21.1643 39.0057 20.8293C38.3654 20.472 37.3844 20.0142 36.0625 19.4559C34.0385 18.5626 32.5721 17.5689 31.6633 16.4746C30.7545 15.3804 30.3001 14.0181 30.3001 12.3879C30.3001 11.115 30.6203 9.98725 31.2605 9.00466C31.9008 8.02207 32.7992 7.26279 33.9559 6.72683C35.1125 6.19087 36.4446 5.92289 37.9524 5.92289C39.1916 5.92289 40.2862 6.03454 41.2363 6.25786C42.207 6.45885 43.1571 6.78266 44.0865 7.22929V10.78C42.2896 9.8421 40.4721 9.37313 38.6339 9.37313C37.3121 9.37313 36.2897 9.64111 35.5669 10.1771C34.844 10.6907 34.4825 11.4276 34.4825 12.3879C34.4825 13.0802 34.6478 13.6496 34.9782 14.0963C35.3087 14.5206 35.7424 14.8891 36.2794 15.2017C36.8371 15.492 37.8284 15.961 39.2535 16.6086C40.6993 17.2562 41.8353 17.8927 42.6614 18.518C43.5082 19.1432 44.1382 19.8802 44.5512 20.7288C44.985 21.5551 45.2018 22.5712 45.2018 23.7771C45.2018 25.8539 44.5099 27.473 43.1261 28.6342C41.7423 29.7731 39.6976 30.3426 36.992 30.3426Z" fill="#4B5563"/>
<path d="M54.8177 30.3426C52.0501 30.3426 49.8608 29.5945 48.2498 28.0982C46.6388 26.602 45.8333 24.514 45.8333 21.8342C45.8333 19.1991 46.5459 17.1111 47.971 15.5702C49.3961 14.0293 51.4305 13.2588 54.0742 13.2588C55.8091 13.2588 57.2858 13.6162 58.5044 14.3308C59.7436 15.0454 60.673 16.028 61.2926 17.2785C61.9123 18.5068 62.2221 19.9137 62.2221 21.4992V23.4421H49.551C49.8195 25.8316 51.7403 27.0263 55.3134 27.0263C56.2635 27.0263 57.2342 26.937 58.2256 26.7583C59.2169 26.5797 60.0844 26.334 60.8279 26.0214V29.2707C60.1257 29.5833 59.2169 29.8401 58.1016 30.0411C57.007 30.2421 55.9123 30.3426 54.8177 30.3426ZM58.5354 20.5613C58.4941 19.2884 58.0707 18.3058 57.2652 17.6135C56.4803 16.9212 55.396 16.5751 54.0122 16.5751C52.649 16.5751 51.5751 16.9324 50.7902 17.647C50.0054 18.3616 49.5923 19.3331 49.551 20.5613H58.5354Z" fill="#4B5563"/>
<path d="M63.4729 5.08545H67.3765V29.8401H63.4729V5.08545Z" fill="#4B5563"/>
<path d="M69.2382 5.08545H73.1418V29.8401H69.2382V5.08545Z" fill="#4B5563"/>
<path d="M83.3683 30.3426C80.6007 30.3426 78.4114 29.5945 76.8004 28.0982C75.1894 26.602 74.3839 24.514 74.3839 21.8342C74.3839 19.1991 75.0965 17.1111 76.5216 15.5702C77.9467 14.0293 79.9811 13.2588 82.6247 13.2588C84.3597 13.2588 85.8364 13.6162 87.055 14.3308C88.2942 15.0454 89.2236 16.028 89.8432 17.2785C90.4629 18.5068 90.7727 19.9137 90.7727 21.4992V23.4421H78.1016C78.3701 25.8316 80.2909 27.0263 83.864 27.0263C84.8141 27.0263 85.7848 26.937 86.7762 26.7583C87.1302 26.6945 87.4685 26.6222 87.7909 26.5413C88.3713 26.3957 88.9005 26.2224 89.3785 26.0214V29.2707C88.6763 29.5833 87.7675 29.8401 86.6522 30.0411C85.5576 30.2421 84.4629 30.3426 83.3683 30.3426ZM87.086 20.5613C87.0447 19.2884 86.6213 18.3058 85.8158 17.6135C85.0309 16.9212 83.9466 16.5751 82.5628 16.5751C81.1996 16.5751 80.1256 16.9324 79.3408 17.647C78.556 18.3616 78.1429 19.3331 78.1016 20.5613H87.086Z" fill="#4B5563"/>
<path d="M92.0235 13.7613H95.8031V16.3406C96.4021 15.4697 97.2489 14.8221 98.3436 14.3978C99.4589 13.9735 100.729 13.7613 102.154 13.7613V16.9771C100.646 16.9771 99.3349 17.2339 98.2196 17.7475C97.125 18.2388 96.3608 19.0204 95.9271 20.0923V29.8401H92.0235V13.7613Z" fill="#4B5563"/>
<path d="M0.755371 24.9997L24.0696 34.2283L23.5839 1.19971L0.755371 24.9997Z" fill="#4B5563"/>
<path d="M0 24.0285L23.3143 33.2571L22.8286 0.228516L0 24.0285Z" fill="#9CA3AF"/>
<path fill-rule="evenodd" clip-rule="evenodd" d="M23.1949 25.1592C22.7624 25.7286 22.3139 26.2329 21.8494 26.6721C21.2724 27.1942 20.5754 27.682 19.7586 28.1356C18.7877 28.6748 17.8708 28.821 17.0079 28.5743C16.1605 28.3191 15.4517 27.7145 14.8817 26.7607L23.0188 22.242L22.0945 20.5776C21.4098 19.3447 20.601 18.4329 19.668 17.842C18.7349 17.2511 17.7205 16.9676 16.6247 16.9914C15.5443 17.0066 14.4185 17.3394 13.2473 17.9898C12.0606 18.6488 11.1573 19.4731 10.5373 20.4626C9.91734 21.4521 9.62693 22.5813 9.66609 23.85C9.7121 25.0948 10.1459 26.4569 10.9675 27.9363C11.0759 28.1316 11.1869 28.3196 11.3005 28.5003L19.1487 31.6069C19.7686 31.4124 20.3929 31.1406 21.0217 30.7914C21.933 30.2854 22.6777 29.783 23.2556 29.2845L23.1949 25.1592ZM13.3262 21.9989C13.5335 21.3192 13.9685 20.7954 14.6311 20.4274C15.1705 20.1278 15.6816 19.9952 16.1645 20.0295C16.6473 20.0639 17.0847 20.2343 17.4768 20.5409C17.8842 20.8389 18.2291 21.2421 18.5116 21.7507L13.6802 24.4337C13.2523 23.4816 13.1343 22.6701 13.3262 21.9989Z" fill="white"/>
</svg>
