<svg
    width="40"
    height="40"
    viewBox="0 0 40 40"
    fill="none"
    xmlns="http://www.w3.org/2000/svg"
>
    <path
    d="M5.85781 5.85781C-1.9526 13.6682 -1.9526 26.3318 5.85781 34.1422C13.6682 41.9526 26.3318 41.9526 34.1422 34.1422C41.9526 26.3318 41.9526 13.6682 34.1422 5.85781C26.3318 -1.9526 13.6682 -1.9526 5.85781 5.85781V5.85781Z"
    fill="#472F92"
    />
    <path
    d="M21.3425 9.96167C21.0812 9.96167 20.8226 9.863 20.6226 9.66301C20.2253 9.26569 20.2253 8.62038 20.6226 8.22306L22.1959 6.64711L20.6226 5.07116C20.2253 4.67384 20.2253 4.02853 20.6226 3.63121C21.0199 3.23389 21.6652 3.23389 22.0625 3.63121L24.3585 5.92714C24.7558 6.32446 24.7558 6.96977 24.3585 7.36709L22.0625 9.66301C21.8625 9.863 21.6039 9.96167 21.3425 9.96167Z"
    fill="white"
    />
    <path
    d="M18.6441 36.6621C18.3828 36.6621 18.1214 36.5635 17.9241 36.3635L15.6282 34.0702C15.2309 33.6729 15.2309 33.0276 15.6282 32.6303L17.9241 30.3343C18.3214 29.937 18.9667 29.937 19.3641 30.3343C19.7614 30.7317 19.7614 31.377 19.3641 31.7743L17.7908 33.3502L19.3641 34.9235C19.7614 35.3208 19.7614 35.9661 19.3641 36.3635C19.1641 36.5635 18.9054 36.6621 18.6441 36.6621Z"
    fill="white"
    />
    <path
    d="M33.7769 15.9002C33.5235 15.0495 32.8596 14.4095 32.0009 14.1935C31.1423 13.9749 30.257 14.2202 29.633 14.8442L26.8224 17.6521C26.5771 17.8974 26.4731 18.2494 26.5478 18.5881C27.0304 20.828 26.3531 23.1319 24.7345 24.7532C22.3639 27.1238 18.652 27.3371 16.0281 25.4145L24.6892 16.7535C25.3345 16.1081 25.6358 15.1828 25.4918 14.2815C25.3505 13.3749 24.8012 12.6176 23.9905 12.2043C20.6013 10.471 16.5188 11.1163 13.8255 13.8096C10.6576 16.9748 10.4336 21.9853 13.1456 25.4145L11.239 27.3211C11.0096 27.5504 10.7456 27.5664 10.607 27.5558C10.359 27.5344 10.1323 27.4064 9.983 27.2011C6.42845 22.2706 6.9751 15.5668 11.279 11.263C13.4122 9.12971 16.2415 7.85508 19.2467 7.66842C19.8093 7.63376 20.236 7.15111 20.2013 6.58846C20.1667 6.02581 19.6787 5.59383 19.1214 5.63382C15.6175 5.84982 12.3216 7.3351 9.83634 9.82035C4.8205 14.8362 4.18586 22.6439 8.32705 28.3904C8.8257 29.081 9.59634 29.5157 10.439 29.585C10.5163 29.5904 10.591 29.5957 10.6683 29.5957C11.4176 29.5957 12.1403 29.2997 12.6762 28.7637L14.5695 26.8705C17.9987 29.5824 23.0039 29.361 26.1718 26.1958C28.1477 24.2199 29.049 21.46 28.6384 18.7214L31.0703 16.2895C31.2276 16.1321 31.4063 16.1481 31.497 16.1721C31.5903 16.1961 31.7583 16.2681 31.8223 16.4841C33.1156 20.8387 31.9263 25.5345 28.7184 28.7424C26.5878 30.873 23.7585 32.1503 20.748 32.3369C20.188 32.3716 19.7587 32.8543 19.7933 33.4169C19.828 33.9582 20.276 34.3715 20.8093 34.3715C20.8306 34.3715 20.852 34.3715 20.8733 34.3715C24.3772 34.1555 27.6757 32.6676 30.1583 30.185C33.8969 26.4491 35.2808 20.9773 33.7742 15.9082L33.7769 15.9002ZM15.2682 15.2442C16.5614 13.9509 18.2707 13.2736 20.0093 13.2736C21.0466 13.2736 22.0946 13.5162 23.0652 14.0122C23.3719 14.1695 23.4572 14.4442 23.4812 14.5935C23.5239 14.8602 23.4386 15.1188 23.2492 15.3082L14.5988 23.9559C13.7562 22.8119 13.3002 21.4333 13.3002 19.9853C13.3002 18.1934 13.9989 16.5081 15.2655 15.2415L15.2682 15.2442Z"
    fill="white"
    />
</svg>