              <svg
                width="140"
                height="40"
                viewBox="0 0 196 56"
                fill="none"
                xmlns="http://www.w3.org/2000/svg"
              >
                <path
                  d="M74.0885 20.8615C69.7671 20.8615 66.2945 24.0884 66.2945 28.7853C66.2945 33.4822 69.7671 36.6671 74.0248 36.6671C77.3135 36.6671 80.0011 35.1761 81.3308 32.0682L77.7662 31.3192C76.677 33.1462 75.1988 33.2932 74.0248 33.2932C72.1789 33.2932 70.637 31.9772 70.2481 29.8213H81.7268V28.4773C81.5783 23.9344 78.1057 20.8545 74.0885 20.8545V20.8615ZM70.3754 27.0493C70.8563 25.1944 72.582 24.2984 74.0885 24.2984C75.6869 24.2984 77.1367 25.1384 77.653 27.0493H70.3754V27.0493Z"
                  fill="#472F92"
                />
                <path
                  d="M94.1604 24.6204L89.8179 23.7524C88.2478 23.4514 87.7951 22.7374 87.7951 21.7225C87.7951 20.3785 89.0257 19.2445 91.0838 19.2445C93.142 19.2445 94.7686 20.4695 95.0728 22.3525L99.1749 21.5125C98.3898 17.9566 95.2779 15.7446 91.1758 15.7446C86.4372 15.7446 83.4738 18.2576 83.4738 21.8415C83.4738 25.7544 86.3665 27.0703 88.7853 27.5813L93.0712 28.3863C94.8818 28.7433 95.4264 29.4293 95.4264 30.5702C95.4264 32.0052 94.1887 33.1112 91.8335 33.1112C89.4784 33.1112 87.8446 32.1242 87.3 29.8563L82.9787 30.7242C83.495 34.7281 87.2081 36.6671 91.4375 36.6671C96.2397 36.6671 99.4719 34.2451 99.4719 30.3602C99.4719 27.2523 97.4492 25.3064 94.1533 24.6204H94.1604Z"
                  fill="#472F92"
                />
                <path
                  d="M175.049 20.8615C170.735 20.8615 167.255 24.0884 167.255 28.7853C167.255 33.4822 170.728 36.6671 174.986 36.6671C178.281 36.6671 180.969 35.1761 182.299 32.0682L178.734 31.3192C177.652 33.1462 176.167 33.2932 174.993 33.2932C173.147 33.2932 171.612 31.9772 171.216 29.8213H182.695V28.4773C182.546 23.9344 179.074 20.8545 175.049 20.8545V20.8615ZM171.336 27.0493C171.817 25.1944 173.543 24.2984 175.049 24.2984C176.655 24.2984 178.105 25.1384 178.614 27.0493H171.336Z"
                  fill="#472F92"
                />
                <path
                  d="M116.8 27.1333C116.8 23.4304 114.381 20.8615 110.76 20.8615C108.765 20.8615 107.195 21.4845 106.014 22.6534V14.7017H99.7689L100.533 16.2906C100.78 16.8086 101.452 17.2286 102.032 17.2286V33.7132H101.077V36.2261H106.969V33.7132H106.021V29.6253C106.021 25.9784 107.506 24.4804 109.77 24.4804C111.608 24.4804 112.818 25.8874 112.818 27.9733V33.7062H111.87V36.2191H117.762V33.7062H116.807V27.1333H116.8Z"
                  fill="#472F92"
                />
                <path
                  d="M139.269 20.8613C137.218 20.8613 135.549 21.4563 134.283 22.5063V21.3093H128.031L128.795 22.8983C129.042 23.4093 129.721 23.8292 130.294 23.8292V38.7878H129.339V41.3078H135.231V38.7878H134.276V35.0569C135.542 36.0789 137.204 36.6739 139.262 36.6739C143.095 36.6739 146.66 33.482 146.66 28.7921C146.66 24.1022 143.095 20.8683 139.262 20.8683L139.269 20.8613ZM138.569 33.237C136.419 33.237 134.283 31.536 134.283 28.7851C134.283 26.0342 136.426 24.2982 138.569 24.2982C140.981 24.2982 142.798 26.0342 142.798 28.7851C142.798 31.536 140.981 33.237 138.569 33.237Z"
                  fill="#472F92"
                />
                <path
                  d="M157.891 20.8613C155.84 20.8613 154.178 21.4563 152.912 22.5063V21.3093H146.66L147.424 22.8983C147.678 23.4093 148.35 23.8292 148.923 23.8292V38.7878H147.968V41.3078H153.86V38.7878H152.912V35.0569C154.178 36.0789 155.84 36.6739 157.891 36.6739C161.725 36.6739 165.289 33.482 165.289 28.7921C165.289 24.1022 161.725 20.8683 157.891 20.8683V20.8613ZM157.198 33.237C155.055 33.237 152.912 31.536 152.912 28.7851C152.912 26.0342 155.055 24.2982 157.198 24.2982C159.61 24.2982 161.428 26.0342 161.428 28.7851C161.428 31.536 159.61 33.237 157.198 33.237Z"
                  fill="#472F92"
                />
                <path
                  d="M194.93 21.0923C192.483 21.0923 190.729 22.2893 189.527 24.0252V21.3023H183.275L184.046 22.8912C184.293 23.4022 184.965 23.8222 185.538 23.8222V33.7059H184.59V36.2189H190.475V33.7059H189.527V31.403C189.527 27.2521 191.217 25.0122 194.902 25.0122H195.779L195.991 21.2183C195.63 21.0923 195.326 21.0923 194.937 21.0923H194.93Z"
                  fill="#472F92"
                />
                <path
                  d="M123.512 19.3635C124.905 19.3635 125.923 18.3766 125.923 17.0606C125.923 15.7446 124.898 14.7017 123.512 14.7017C122.125 14.7017 121.093 15.8076 121.093 17.0606C121.093 18.3766 122.09 19.3635 123.512 19.3635Z"
                  fill="#472F92"
                />
                <path
                  d="M125.506 21.3022H119.254L120.025 22.8912C120.272 23.4022 120.944 23.8222 121.517 23.8222V33.7059H120.562V36.2188H126.454V33.7059H125.499V21.3022H125.506Z"
                  fill="#472F92"
                />
                <path
                  d="M8.2855 8.20553C-2.76183 19.1392 -2.76183 36.8698 8.2855 47.8035C19.3328 58.7372 37.2476 58.7372 48.295 47.8035C59.3423 36.8698 59.3423 19.1392 48.295 8.20553C37.2406 -2.73518 19.3328 -2.73518 8.2855 8.20553Z"
                  fill="#472F92"
                />
                <path
                  d="M30.1885 13.9527C29.8208 13.9527 29.453 13.8127 29.1701 13.5327C28.6043 12.9727 28.6043 12.0697 29.1701 11.5167L31.3979 9.31177L29.1701 7.10683C28.6043 6.55385 28.6043 5.64387 29.1701 5.09089C29.7288 4.5309 30.6482 4.5309 31.207 5.09089L34.4533 8.3038C35.0191 8.85679 35.0191 9.75976 34.4533 10.3197L31.207 13.5327C30.9241 13.8127 30.5563 13.9527 30.1885 13.9527Z"
                  fill="white"
                />
                <path
                  d="M26.3694 51.332C26.0016 51.332 25.6339 51.1921 25.351 50.9121L22.1047 47.6991C21.5388 47.1392 21.5388 46.2362 22.1047 45.6832L25.351 42.4703C25.9097 41.9103 26.8291 41.9103 27.3879 42.4703C27.9537 43.0233 27.9537 43.9262 27.3879 44.4862L25.16 46.6912L27.3879 48.8961C27.9537 49.4561 27.9537 50.3591 27.3879 50.9121C27.105 51.1921 26.7372 51.332 26.3694 51.332V51.332Z"
                  fill="white"
                />
                <path
                  d="M47.7715 22.2682C47.4108 21.0783 46.4772 20.1823 45.2608 19.8813C44.0443 19.5803 42.7924 19.9163 41.9084 20.7913L37.9336 24.7252C37.587 25.0682 37.4385 25.5581 37.5446 26.0341C38.2306 29.17 37.2688 32.397 34.9773 34.6649C31.6249 37.9828 26.3699 38.2838 22.6639 35.5889L34.9136 23.4582C35.826 22.5552 36.2503 21.2603 36.0523 20.0003C35.8472 18.7333 35.0763 17.6694 33.9305 17.0954C29.1353 14.6664 23.357 15.5764 19.552 19.3423C15.0751 23.7732 14.7497 30.787 18.5901 35.5889L15.8884 38.2628C15.5631 38.5848 15.1882 38.6058 14.9902 38.5918C14.6366 38.5638 14.3183 38.3818 14.1061 38.0948C9.07754 31.193 9.84845 21.8062 15.9379 15.7794C18.9579 12.7905 22.961 11.0055 27.2116 10.7465C28.0037 10.6975 28.6119 10.0256 28.5624 9.23458C28.5129 8.4506 27.8198 7.84162 27.0348 7.89762C22.0769 8.19861 17.4161 10.2776 13.901 13.7565C6.80725 20.7773 5.90903 31.711 11.7651 39.7538C12.4724 40.7197 13.5615 41.3287 14.7497 41.4267C14.8558 41.4337 14.969 41.4407 15.0751 41.4407C16.136 41.4407 17.1544 41.0277 17.9182 40.2788L20.5917 37.6328C25.4434 41.4267 32.5231 41.1187 37 36.6878C39.7937 33.9229 41.0667 30.059 40.4868 26.2231L43.924 22.8212C44.1433 22.6042 44.3979 22.6252 44.5252 22.6602C44.6596 22.6952 44.893 22.7932 44.9849 23.1012C46.8167 29.198 45.1335 35.7709 40.5929 40.2648C37.58 43.2467 33.5769 45.0386 29.3192 45.2976C28.5271 45.3466 27.9188 46.0256 27.9683 46.8096C28.0179 47.5656 28.6473 48.1465 29.4041 48.1465C29.4324 48.1465 29.4677 48.1465 29.496 48.1465C34.4539 47.8455 39.1147 45.7596 42.6298 42.2877C47.92 37.0588 49.8791 29.394 47.7432 22.2962L47.7715 22.2682ZM21.5889 21.3513C23.4207 19.5383 25.8395 18.5933 28.2937 18.5933C29.7577 18.5933 31.2429 18.9293 32.615 19.6293C33.0464 19.8463 33.1738 20.2313 33.202 20.4413C33.2586 20.8123 33.1455 21.1763 32.8767 21.4423L20.6412 33.5519C19.4459 31.949 18.8023 30.024 18.8023 27.9941C18.8023 25.4881 19.7925 23.1292 21.5818 21.3513H21.5889Z"
                  fill="white"
                />
              </svg>