<svg width="111" height="32" viewBox="0 0 111 32" fill="none" xmlns="http://www.w3.org/2000/svg">
<g clip-path="url(#clip0_819_1239)">
<path d="M28.0549 4.7683C21.8506 -1.43448 11.7911 -1.43448 5.58679 4.7683C-0.617472 10.9718 -0.617472 21.0286 5.58679 27.231C11.7911 33.4338 21.8502 33.4338 28.0549 27.231C34.2591 21.0286 34.2595 10.9711 28.0549 4.7683V4.7683ZM17.3153 4.14674C16.9991 3.83104 16.9991 3.31885 17.3153 3.00279C17.6307 2.68673 18.1437 2.68673 18.4595 3.00279L20.2827 4.82553C20.5984 5.14123 20.5984 5.65342 20.2827 5.96912L18.4595 7.79186C18.3016 7.94971 18.0945 8.02881 17.8874 8.02881C17.6803 8.02881 17.4732 7.95007 17.3153 7.79186C16.9991 7.47616 16.9991 6.9636 17.3153 6.64791L18.5663 5.39678L17.3153 4.14601V4.14674ZM16.3162 27.8529C16.6323 28.169 16.6323 28.6808 16.3162 28.9969C16.1583 29.1547 15.9512 29.2338 15.7441 29.2338C15.5369 29.2338 15.3298 29.1547 15.1719 28.9969L13.3491 27.1749C13.0334 26.8588 13.0334 26.347 13.3491 26.0309L15.1723 24.2085C15.4881 23.8925 16.0008 23.8925 16.3165 24.2085C16.6327 24.5242 16.6327 25.0361 16.3165 25.3521L15.0655 26.6033L16.3162 27.8533V27.8529ZM24.892 24.0857C22.9197 26.0575 20.3005 27.2387 17.5169 27.4104C17.4998 27.4115 17.4826 27.4118 17.4662 27.4118C17.0422 27.4118 16.6859 27.0815 16.6593 26.6525C16.6319 26.2066 16.9711 25.8231 17.417 25.7954C19.8068 25.6478 22.0552 24.6343 23.7478 22.9414C26.297 20.3939 27.2417 16.6635 26.2138 13.2065C26.1628 13.0344 26.03 12.9768 25.9557 12.9579C25.8824 12.9393 25.7409 12.9269 25.6162 13.0512L23.6844 14.9818C24.0103 17.1578 23.2946 19.3491 21.7248 20.9185C19.2103 23.4324 15.2332 23.6089 12.509 21.4547L11.006 22.9574C10.5805 23.3828 10.0073 23.6187 9.41108 23.6187C9.35055 23.6187 9.29002 23.6165 9.22913 23.6114C8.55857 23.5575 7.94707 23.2119 7.55108 22.6629C4.26171 18.0998 4.76527 11.8978 8.74927 7.91471C10.723 5.94178 13.3422 4.76137 16.1247 4.5904C16.5667 4.55905 16.9547 4.90209 16.9816 5.34829C17.009 5.79413 16.6699 6.178 16.2236 6.20498C13.8356 6.35189 11.5872 7.36534 9.89313 9.05903C6.47358 12.4778 6.0404 17.8009 8.8634 21.7172C8.98118 21.8805 9.16204 21.9833 9.35858 21.999C9.46869 22.0085 9.67982 21.995 9.86141 21.8138L11.3768 20.2988C9.22111 17.5745 9.40124 13.5958 11.9169 11.0812C14.0551 8.9431 17.3 8.43055 19.9913 9.80671C20.6356 10.1359 21.0703 10.7374 21.1837 11.4563C21.2971 12.1734 21.0583 12.9076 20.5459 13.4197L13.6653 20.2995C15.7488 21.828 18.6983 21.6574 20.5809 19.7753C21.867 18.4895 22.4056 16.6595 22.022 14.8798C21.964 14.6111 22.0464 14.3315 22.2408 14.1372L24.4723 11.9072C24.969 11.4107 25.6723 11.2175 26.3538 11.3899C27.0372 11.5631 27.5648 12.0702 27.7653 12.7457C28.9624 16.7725 27.8616 21.1175 24.8924 24.0853L24.892 24.0857Z" fill="#6B7280"/>
<path d="M19.5848 11.7082C19.5662 11.5894 19.4984 11.3718 19.2541 11.2471C18.4821 10.8523 17.6504 10.6602 16.8263 10.6602C15.4466 10.6602 14.0872 11.1982 13.0604 12.2252C12.0536 13.2317 11.499 14.5696 11.499 15.9928C11.499 17.1429 11.8607 18.2366 12.5302 19.1454L19.401 12.2766C19.5509 12.1267 19.618 11.9197 19.5844 11.709L19.5848 11.7082Z" fill="#6B7280"/>
<path d="M42.543 7.46484C40.1174 7.46484 38.167 9.29414 38.167 11.9586C38.167 14.6231 40.1174 16.4316 42.5098 16.4316C44.3581 16.4316 45.867 15.5855 46.613 13.8229L44.6112 13.399C44.0008 14.4335 43.1712 14.5178 42.5098 14.5178C41.4746 14.5178 40.6093 13.7697 40.3894 12.5496H46.834V11.788C46.7487 9.20957 44.799 7.46521 42.543 7.46521V7.46484ZM40.4573 10.9751C40.7293 9.92153 41.6963 9.41481 42.543 9.41481C43.4422 9.41481 44.256 9.88982 44.5448 10.9751H40.4573V10.9751Z" fill="#6B7280"/>
<path d="M53.8153 9.59873L51.3755 9.10768C50.4942 8.93744 50.2386 8.5306 50.2386 7.95425C50.2386 7.19271 50.9314 6.54819 52.0873 6.54819C53.2432 6.54819 54.1555 7.24411 54.3254 8.31115L56.631 7.83577C56.1905 5.81873 54.4439 4.5625 52.1372 4.5625C49.475 4.5625 47.8138 5.98934 47.8138 8.02242C47.8138 10.2436 49.4397 10.9902 50.7972 11.2793L53.206 11.7372C54.224 11.9391 54.53 12.3288 54.53 12.9748C54.53 13.7874 53.8332 14.4159 52.511 14.4159C51.1888 14.4159 50.271 13.8559 49.9666 12.568L47.541 13.059C47.8309 15.3305 49.9181 16.4311 52.2904 16.4311C54.9869 16.4311 56.802 15.0589 56.802 12.8549C56.802 11.0912 55.6662 9.98843 53.8153 9.59836V9.59873Z" fill="#6B7280"/>
<path d="M99.2405 7.46484C96.8171 7.46484 94.8652 9.29414 94.8652 11.9586C94.8652 14.6231 96.8171 16.4316 99.2077 16.4316C101.058 16.4316 102.567 15.5855 103.313 13.8229L101.309 13.399C100.702 14.4335 99.8691 14.5178 99.208 14.5178C98.1732 14.5178 97.3105 13.7697 97.087 12.5496H103.533V11.788C103.448 9.20957 101.499 7.46521 99.2409 7.46521L99.2405 7.46484ZM97.1544 10.9751C97.4264 9.92153 98.3934 9.41481 99.2405 9.41481C100.142 9.41481 100.955 9.88982 101.243 10.9751H97.1544Z" fill="#6B7280"/>
<path d="M66.5281 11.0245C66.5281 8.92211 65.1702 7.46501 63.1367 7.46501C62.0161 7.46501 61.1348 7.81935 60.473 8.48137V3.96973H56.9648L57.3929 4.86943C57.5315 5.16143 57.9111 5.40131 58.2338 5.40131V14.7516H57.6963V16.177H61.0054V14.7516H60.4734V12.4323C60.4734 10.3635 61.3058 9.51559 62.5773 9.51559C63.6107 9.51559 64.29 10.3125 64.29 11.4987V14.7516H63.7573V16.177H67.0649V14.7516H66.5285V11.0241L66.5281 11.0245Z" fill="#6B7280"/>
<path d="M79.1453 7.46484C77.9916 7.46484 77.0571 7.80169 76.3457 8.39626V7.71638H72.835L73.2652 8.61864C73.4053 8.90882 73.7845 9.14577 74.1064 9.14577V17.6317H73.5701V19.0611H76.8802V17.6317H76.3457V15.5159C77.0571 16.0959 77.9916 16.4316 79.1453 16.4316C81.2981 16.4316 83.2996 14.6191 83.2996 11.9586C83.2996 9.29815 81.2981 7.46484 79.1453 7.46484V7.46484ZM78.7541 14.4838C77.5482 14.4838 76.3457 13.5174 76.3457 11.9586C76.3457 10.3998 77.5482 9.41481 78.7541 9.41481C80.1094 9.41481 81.1282 10.3995 81.1282 11.9586C81.1282 13.5178 80.1094 14.4838 78.7541 14.4838Z" fill="#6B7280"/>
<path d="M89.6055 7.46484C88.4518 7.46484 87.5191 7.80169 86.8077 8.39626V7.71638H83.2959L83.7254 8.61864C83.8673 8.90882 84.2447 9.14577 84.5667 9.14577V17.6317H84.0314V19.0611H87.3404V17.6317H86.8081V15.5159C87.5195 16.0959 88.4522 16.4316 89.6059 16.4316C91.7598 16.4316 93.7624 14.6191 93.7624 11.9586C93.7624 9.29815 91.7598 7.46484 89.6059 7.46484H89.6055ZM89.215 14.4838C88.0114 14.4838 86.8077 13.5174 86.8077 11.9586C86.8077 10.3998 88.0114 9.41481 89.215 9.41481C90.5704 9.41481 91.5895 10.3995 91.5895 11.9586C91.5895 13.5178 90.5704 14.4838 89.215 14.4838Z" fill="#6B7280"/>
<path d="M110.407 7.59766C109.033 7.59766 108.048 8.27717 107.371 9.26072V7.7165H103.859L104.291 8.61876C104.429 8.90894 104.81 9.14589 105.131 9.14589V14.7515H104.597V16.1769H107.903V14.7515H107.371V13.4457C107.371 11.0915 108.32 9.82067 110.389 9.82067H110.882L111 7.66729C110.797 7.59766 110.627 7.59766 110.407 7.59766V7.59766Z" fill="#6B7280"/>
<path d="M70.2979 6.61671C71.0785 6.61671 71.6536 6.05676 71.6536 5.30944C71.6536 4.56212 71.0789 3.96973 70.2979 3.96973C69.5168 3.96973 68.9414 4.59748 68.9414 5.30944C68.9414 6.05713 69.5019 6.61671 70.2979 6.61671Z" fill="#6B7280"/>
<path d="M71.417 7.71631H67.9062L68.3387 8.61856C68.4773 8.90874 68.8536 9.1457 69.1785 9.1457V14.7514H68.6439V16.1767H71.9515V14.7514H71.417V7.71631V7.71631Z" fill="#6B7280"/>
<path d="M77.6572 26.2697C77.3031 26.039 77.0533 25.7255 76.9082 25.3288L77.8643 24.7722C77.9645 25.023 78.1064 25.2085 78.2894 25.3288C78.4728 25.4491 78.7099 25.5097 79.0012 25.5097C79.2371 25.5097 79.4194 25.4546 79.5467 25.3441C79.6747 25.2337 79.7389 25.1105 79.7389 24.9752C79.7389 24.8742 79.7086 24.7897 79.6488 24.719C79.5883 24.649 79.4858 24.5819 79.34 24.5195C79.1948 24.4568 78.9833 24.385 78.7077 24.3048C78.2256 24.1645 77.8417 23.9734 77.5558 23.7325C77.2692 23.4919 77.1263 23.1477 77.1263 22.7012C77.1263 22.3851 77.205 22.1099 77.3636 21.8769C77.5215 21.6433 77.7326 21.4643 77.9959 21.3385C78.2599 21.2127 78.5447 21.1504 78.8506 21.1504C79.2769 21.1504 79.6513 21.2517 79.9726 21.4552C80.2935 21.6578 80.5443 21.9455 80.7252 22.3166L79.7465 22.874C79.651 22.6629 79.5307 22.5087 79.3848 22.411C79.2397 22.3133 79.0617 22.2641 78.8506 22.2641C78.6898 22.2641 78.5516 22.3086 78.4368 22.3964C78.3212 22.4843 78.2635 22.5856 78.2635 22.7012C78.2635 22.7967 78.2872 22.878 78.3354 22.9454C78.3828 23.0136 78.4707 23.077 78.5986 23.1375C78.7266 23.1981 78.9159 23.2655 79.1667 23.341C79.5029 23.4467 79.7932 23.5626 80.0368 23.6909C80.28 23.8189 80.4809 23.9935 80.6388 24.2141C80.797 24.4353 80.8762 24.7109 80.8762 25.0423C80.8762 25.3737 80.793 25.6358 80.6275 25.8742C80.4619 26.1126 80.2348 26.2956 79.946 26.4232C79.6572 26.5512 79.3327 26.6153 78.9709 26.6153C78.4491 26.6153 78.0112 26.4998 77.6572 26.269V26.2697Z" fill="#9CA3AF"/>
<path d="M84.2568 22.755H85.3255V26.5182H84.2568V26.2324C84.0912 26.3575 83.9093 26.4541 83.7106 26.5219C83.5126 26.5901 83.3131 26.624 83.1122 26.624C82.7206 26.624 82.3833 26.5387 82.1 26.3677C81.8166 26.1967 81.5993 25.9627 81.4487 25.6637C81.2981 25.3655 81.2227 25.025 81.2227 24.6437C81.2227 24.2624 81.2981 23.9197 81.4487 23.6161C81.5993 23.3124 81.8163 23.0754 82.1 22.9045C82.3833 22.7342 82.7209 22.6489 83.1122 22.6489C83.3179 22.6489 83.5191 22.6839 83.7149 22.7546C83.9107 22.8246 84.0916 22.9223 84.2572 23.0481V22.7546L84.2568 22.755ZM83.9633 25.3291C84.1536 25.149 84.2491 24.9153 84.2491 24.6295C84.2491 24.3437 84.1536 24.1272 83.9633 23.9518C83.7722 23.7765 83.5363 23.6886 83.2551 23.6886C82.974 23.6886 82.7432 23.7765 82.5623 23.9518C82.3822 24.1272 82.2914 24.3587 82.2914 24.6445C82.2914 24.9303 82.3822 25.1614 82.5623 25.3371C82.7432 25.5125 82.974 25.6003 83.2551 25.6003C83.5363 25.6003 83.7722 25.5103 83.9633 25.3294V25.3291Z" fill="#9CA3AF"/>
<path d="M91.2656 22.7921C91.4917 22.8876 91.6842 23.0553 91.845 23.2966C92.0059 23.5372 92.0864 23.8609 92.0864 24.2674V26.5181H91.017V24.2674C91.017 24.0268 90.9495 23.8536 90.8135 23.7479C90.6782 23.6429 90.5174 23.5901 90.3318 23.5901C90.1757 23.5901 90.0419 23.6364 89.9293 23.7293C89.8159 23.8219 89.7418 23.9659 89.7068 24.162V26.5177H88.6304V24.267C88.6304 24.0264 88.5622 23.8533 88.427 23.7475C88.2913 23.6426 88.1305 23.5897 87.9449 23.5897C87.7896 23.5897 87.6536 23.6371 87.5387 23.7326C87.4231 23.8281 87.3506 23.9812 87.3203 24.1916V26.5177H86.2432V22.7545H87.3203V22.9951C87.596 22.7644 87.895 22.6488 88.2158 22.6488C88.4372 22.6488 88.6614 22.6962 88.89 22.7917C89.1183 22.8872 89.3054 23.0454 89.4505 23.266C89.581 23.0906 89.7469 22.9434 89.9475 22.8252C90.1484 22.7071 90.3643 22.6484 90.5951 22.6484C90.8259 22.6484 91.0392 22.6958 91.2653 22.7913L91.2656 22.7921Z" fill="#9CA3AF"/>
<path d="M95.5533 22.9201C95.8414 23.0954 96.0664 23.3338 96.2272 23.6353C96.388 23.9364 96.4678 24.2704 96.4678 24.6364C96.4678 24.7767 96.4576 24.905 96.4376 25.0206H93.6518C93.7473 25.2513 93.8753 25.423 94.0361 25.5357C94.1962 25.6491 94.4051 25.7052 94.6607 25.7052C94.8168 25.7052 94.9684 25.6728 95.1161 25.6075C95.2645 25.5423 95.3812 25.4544 95.4665 25.3443L96.2797 25.8259C96.1036 26.0822 95.8771 26.2775 95.5982 26.4128C95.3196 26.5484 94.9998 26.6162 94.6381 26.6162C94.2319 26.6162 93.8731 26.5298 93.5617 26.3567C93.2503 26.1835 93.0096 25.9462 92.8386 25.6451C92.668 25.3443 92.583 25.0082 92.583 24.6364C92.583 24.2645 92.6665 23.9291 92.835 23.6277C93.0027 23.3265 93.2375 23.0892 93.5391 22.9168C93.8403 22.7436 94.1838 22.6572 94.5706 22.6572C94.9371 22.6572 95.2645 22.7451 95.5533 22.9204V22.9201ZM95.4589 24.1847C95.4239 23.9937 95.3247 23.8457 95.1617 23.7407C94.998 23.6349 94.7989 23.5824 94.5626 23.5824C94.3263 23.5824 94.1035 23.6419 93.9227 23.7593C93.7425 23.8774 93.647 24.0188 93.6368 24.185H95.4589V24.1847Z" fill="#9CA3AF"/>
<path d="M100.748 21.5986C101.162 21.8316 101.491 22.1506 101.735 22.5545C101.978 22.9588 102.1 23.4064 102.1 23.8982C102.1 24.39 101.98 24.8358 101.738 25.2346C101.498 25.6331 101.169 25.9466 100.752 26.1752C100.336 26.4041 99.8812 26.5178 99.3897 26.5178H97.2285V21.249H99.3897C99.8812 21.249 100.334 21.3653 100.748 21.599V21.5986ZM99.3897 25.4413C99.6756 25.4413 99.9399 25.3721 100.184 25.2343C100.427 25.0961 100.619 24.9094 100.76 24.6732C100.9 24.4374 100.971 24.1763 100.971 23.8905C100.971 23.6047 100.9 23.3408 100.76 23.1002C100.619 22.8589 100.427 22.6686 100.184 22.5279C99.9403 22.3875 99.6756 22.3168 99.3897 22.3168H98.3578V25.441H99.3897V25.4413Z" fill="#9CA3AF"/>
<path d="M105.549 22.755H106.618V26.5182H105.549V26.2324C105.383 26.3575 105.201 26.4541 105.003 26.5219C104.805 26.5901 104.605 26.624 104.404 26.624C104.013 26.624 103.675 26.5387 103.392 26.3677C103.109 26.1971 102.891 25.9627 102.741 25.6637C102.59 25.3655 102.515 25.025 102.515 24.6437C102.515 24.2624 102.59 23.9197 102.741 23.6161C102.891 23.3124 103.108 23.0754 103.392 22.9045C103.675 22.7342 104.013 22.6489 104.404 22.6489C104.61 22.6489 104.811 22.6839 105.007 22.7546C105.203 22.8246 105.384 22.9223 105.549 23.0481V22.7546L105.549 22.755ZM105.255 25.3291C105.446 25.149 105.541 24.9153 105.541 24.6295C105.541 24.3437 105.446 24.1272 105.255 23.9518C105.064 23.7765 104.828 23.6886 104.547 23.6886C104.266 23.6886 104.035 23.7765 103.854 23.9518C103.674 24.1272 103.583 24.3587 103.583 24.6445C103.583 24.9303 103.674 25.1614 103.854 25.3371C104.035 25.5125 104.266 25.6003 104.547 25.6003C104.828 25.6003 105.064 25.5103 105.255 25.3294V25.3291Z" fill="#9CA3AF"/>
<path d="M109.848 22.7549H110.97L109.705 26.4656C109.495 27.0077 109.21 27.4113 108.851 27.6777C108.491 27.9435 108.064 28.0591 107.567 28.0241V26.9851C107.597 26.9898 107.643 26.9928 107.703 26.9928C107.913 26.9928 108.089 26.9377 108.229 26.8269C108.37 26.7164 108.488 26.5637 108.583 26.3679L106.957 22.7552H108.117L109.103 24.9152L109.849 22.7552L109.848 22.7549Z" fill="#9CA3AF"/>
</g>
<defs>
<clipPath id="clip0_819_1239">
<rect width="110.066" height="31.7671" fill="white" transform="translate(0.933594 0.116211)"/>
</clipPath>
</defs>
</svg>
