<svg width="90" height="27" viewBox="0 0 90 27" fill="none" xmlns="http://www.w3.org/2000/svg">
<path d="M74.2432 9.6875L77.9052 13.5298L81.4307 9.6875H88.9588L81.6016 17.5642L89.0596 25.5052H81.2278L77.6002 21.6325L74.0059 25.5052H66.4434L73.8362 17.5969L66.4434 9.6875H74.2432Z" fill="#6B7280"/>
<path d="M66.4439 9.68729V15.0317H58.071V19.9359H66.4439V25.505H51.9177V0.588379H66.4439V6.14232H58.071V9.68729H66.4439Z" fill="#6B7280"/>
<path d="M45.7901 0.588379V10.7854H45.7225C44.3649 9.30095 42.6704 8.78466 40.7042 8.78466C36.6757 8.78466 33.6409 11.393 32.576 14.8397C31.3598 11.0418 28.2266 8.71324 23.5809 8.71324C19.8082 8.71324 16.8287 10.3253 15.2744 12.9525V9.68729H7.47579V6.14232H15.9864V0.588379H0.524414V25.505H7.47579V15.0317H14.405C14.1984 15.8008 14.0878 16.625 14.0878 17.4949C14.0878 22.6918 18.2588 26.3398 23.5809 26.3398C28.0569 26.3398 31.0069 24.339 32.5661 20.6922H26.6084C25.8029 21.7891 25.1918 22.1134 23.5809 22.1134C21.713 22.1134 20.1021 20.5622 20.1021 18.723H32.2329C32.7592 22.851 36.1371 26.4112 40.7718 26.4112C42.7713 26.4112 44.6022 25.4746 45.7213 23.8941H45.7889V25.5074H51.9164V0.588379H45.7901ZM20.2964 15.1054C20.6825 13.5226 21.9725 12.4888 23.5821 12.4888C25.3541 12.4888 26.5776 13.491 26.8998 15.1054C27.0351 15.1054 20.2964 15.1054 20.2964 15.1054ZM42.0703 21.7119C39.8114 21.7119 38.4071 19.7076 38.4071 17.6155C38.4071 15.3794 39.6282 13.2287 42.0703 13.2287C44.6022 13.2287 45.6106 15.3794 45.6106 17.6155C45.6106 19.7357 44.542 21.7119 42.0703 21.7119Z" fill="#9CA3AF"/>
</svg>
