<svg width="153" height="28" viewBox="0 0 153 28" fill="none" xmlns="http://www.w3.org/2000/svg">
<path d="M107.225 8.29446C106.94 5.87038 105.628 4.18218 103.352 3.36366C102.364 3.00556 101.335 2.90718 100.294 2.9544C97.5715 3.06852 95.261 4.10741 93.53 6.30325C91.5664 8.79029 90.8687 11.722 91.0174 14.8584C91.1241 17.0699 92.043 18.8683 94.0485 19.9151C95.1695 20.5014 96.3819 20.6864 97.583 20.651C100.778 20.651 103.382 19.3956 105.121 16.9125C106.92 14.3389 107.595 11.419 107.225 8.29446V8.29446ZM102.044 15.8146C100.694 17.4753 98.9098 17.9632 96.8967 17.5067C95.4859 17.1841 94.5747 15.9287 94.4565 14.3074C94.4374 14.0438 94.4527 13.7762 94.4527 13.5086C94.5328 11.541 94.8873 9.6521 96.0807 8.0426C97.339 6.34654 99.0547 5.76413 101.053 6.09075C102.677 6.35834 103.668 7.48774 103.832 9.40024C104.03 11.7456 103.554 13.9651 102.044 15.8146V15.8146Z" fill="#6B7280"/>
<path d="M119.566 10.6319C119.383 8.97523 118.51 7.77893 116.893 7.29491C114.297 6.51574 111.917 7.10208 109.779 8.69583C108.616 9.56158 108.067 10.8917 107.815 12.3005C107.064 16.4678 106.366 20.647 105.638 24.8183C105.596 25.0505 105.676 25.082 105.863 25.078C106.29 25.0662 106.717 25.082 107.144 25.078C108.234 25.0544 108.989 24.3579 109.176 23.2442C109.424 21.7567 109.687 20.2692 109.939 18.7896C110.106 18.7817 110.099 18.9116 110.137 18.9824C110.533 19.7026 111.124 20.1669 111.902 20.3597C113.87 20.8477 115.608 20.344 117.011 18.8762C119.196 16.5898 119.917 13.7565 119.566 10.6359V10.6319ZM114.758 16.8299C114.316 17.2706 113.786 17.5264 113.18 17.6051C111.788 17.7861 110.77 16.9046 110.694 15.4014C110.625 14.0634 110.877 12.7766 111.487 11.5921C111.998 10.5926 112.794 9.95903 113.934 9.87246C115.158 9.77801 115.986 10.4194 116.226 11.6551C116.287 11.966 116.317 12.2769 116.314 12.5956C116.192 14.1618 115.921 15.669 114.758 16.8299V16.8299Z" fill="#6B7280"/>
<path d="M84.8478 10.7351C84.6038 9.19642 83.8946 7.98045 82.4343 7.40591C80.0589 6.46933 76.7685 6.84318 74.8431 9.41679C73.2417 11.5615 72.7231 14.0446 73.0129 16.6772C73.2226 18.5504 74.2521 19.8805 76.086 20.3251C78.1487 20.8288 80.1047 20.4826 81.8662 19.2194C82.8995 18.4756 83.6315 17.48 84.1424 16.2325C83.3189 16.2325 82.5716 16.2247 81.8243 16.2325C81.3248 16.2365 80.852 16.3506 80.505 16.7559C79.9484 17.3974 79.2278 17.6295 78.4271 17.665C77.1384 17.72 76.3186 16.9369 76.2728 15.6108C76.269 15.4691 76.2767 15.3274 76.2728 15.1897C76.2614 14.8198 76.3644 14.6506 76.7914 14.6545C79.2583 14.6781 81.7251 14.6624 84.192 14.6703C84.417 14.6703 84.6076 14.6742 84.6572 14.3712C84.863 13.167 85.0422 11.9589 84.8478 10.7351V10.7351ZM81.5536 12.2737C81.4964 12.4784 81.3591 12.4351 81.2333 12.4351C79.7425 12.4351 78.2555 12.4351 76.738 12.4351C77.1117 10.5462 78.591 9.48762 80.2267 9.89295C81.199 10.1291 81.8395 11.2939 81.5536 12.2698V12.2737Z" fill="#6B7280"/>
<path d="M72.9676 10.7611C72.735 9.21453 72.0296 8.00249 70.5808 7.41221C68.3122 6.49531 65.0942 6.80226 63.1535 9.17911C61.3996 11.3317 60.8734 13.8856 61.1213 16.6048C61.2776 18.3284 62.1774 19.6192 63.8283 20.2173C64.8387 20.5833 65.8872 20.6069 66.9396 20.4456C69.4331 20.0599 71.187 18.6629 72.2774 16.2349C71.3929 16.2349 70.5884 16.2231 69.7839 16.2388C69.292 16.2467 68.8726 16.4435 68.5409 16.8331C68.274 17.1479 67.9385 17.3643 67.5534 17.4784C65.628 18.0569 64.263 17.262 64.3926 15.1213C64.4117 14.7907 64.5108 14.649 64.8807 14.653C67.3475 14.6766 69.8144 14.6648 72.2813 14.6648C72.5138 14.6648 72.7235 14.6884 72.7807 14.35C72.979 13.1615 73.1468 11.9731 72.9676 10.7611V10.7611ZM69.0366 12.4335C68.4304 12.4414 67.8203 12.4335 67.2141 12.4335H65.117C64.9645 12.4335 64.8349 12.4768 64.8845 12.1974C65.1933 10.521 66.9434 9.41916 68.5219 9.93073C69.2653 10.1708 69.6695 10.8004 69.6695 11.7488C69.6733 12.5673 69.7572 12.4217 69.0366 12.4296V12.4335Z" fill="#6B7280"/>
<path d="M53.3654 3.4379C54.982 3.4379 56.5948 3.45365 58.2114 3.4261C58.6346 3.41823 58.6766 3.55596 58.6041 3.92193C58.4669 4.59485 58.341 5.2717 58.2572 5.95643C58.2152 6.29092 58.0818 6.34995 57.7882 6.34601C55.2146 6.33421 52.6371 6.34601 50.0635 6.33421C49.7318 6.33421 49.5945 6.40504 49.545 6.77495C49.4229 7.68791 49.2781 8.60088 49.076 9.50204C48.9768 9.95065 49.1522 9.93884 49.4687 9.93884C51.2836 9.93097 53.0947 9.95065 54.9095 9.9231C55.3289 9.91523 55.3938 10.0648 55.3061 10.4268C55.2489 10.655 55.2222 10.8872 55.1726 11.1155C54.9362 12.178 54.1432 12.843 53.0832 12.8469C51.6801 12.8548 50.2808 12.8548 48.8777 12.843C48.5994 12.843 48.4926 12.906 48.4431 13.2169C48.0732 15.4678 47.6691 17.7148 47.2954 19.9657C47.2497 20.2333 47.1582 20.2884 46.9218 20.2845C46.0067 20.2727 45.0916 20.2687 44.1804 20.2845C43.9135 20.2884 43.8906 20.2058 43.9325 19.9618C44.779 15.0625 45.6178 10.1631 46.4566 5.26383C46.6434 4.18166 47.4975 3.44184 48.5727 3.4379C50.1741 3.4379 51.7716 3.4379 53.373 3.4379H53.3654Z" fill="#6B7280"/>
<path d="M142.903 15.9481C143.33 15.9481 143.757 15.9521 144.184 15.9481C144.386 15.9481 144.497 15.9481 144.504 16.2393C144.516 17.0815 144.844 17.4986 145.622 17.7426C146.479 18.0102 147.33 17.9826 148.169 17.6324C148.397 17.538 148.603 17.4042 148.767 17.2153C149.206 16.7116 149.137 16.1921 148.584 15.838C148.085 15.5153 147.513 15.4051 146.948 15.2831C145.995 15.0785 145.057 14.8187 144.165 14.4095C142.507 13.6461 141.965 12.4183 142.499 10.6278C142.926 9.19929 143.833 8.1722 145.156 7.58979C146.96 6.79095 148.821 6.73192 150.681 7.36155C152.271 7.89674 153.087 9.28586 152.915 11.0016C152.893 11.222 152.835 11.2967 152.618 11.2928C151.978 11.281 151.337 11.2928 150.7 11.2849C150.315 11.2771 149.945 11.1354 149.77 10.7812C149.152 9.52591 148.096 9.54952 146.983 9.71086C146.548 9.77382 146.159 9.93123 145.915 10.3444C145.629 10.8285 145.698 11.1393 146.167 11.4463C146.598 11.7257 147.082 11.8595 147.566 11.9933C148.695 12.3002 149.85 12.497 150.914 13.0243C152.206 13.6618 152.683 14.4646 152.515 15.9049C152.359 17.2507 151.772 18.3722 150.719 19.2144C149.854 19.9069 148.847 20.2336 147.78 20.391C146.396 20.5956 145.015 20.635 143.654 20.2611C141.576 19.6866 140.959 18.2266 141.203 16.2826C141.233 16.0505 141.309 15.9285 141.576 15.9442C142.019 15.9718 142.461 15.9521 142.903 15.9521V15.9481Z" fill="#6B7280"/>
<path d="M141.015 16.2282C140.061 18.4398 138.502 19.7974 136.283 20.3365C135.311 20.5726 134.323 20.6002 133.336 20.4231C131.452 20.0807 130.156 18.8333 129.904 16.7988C129.55 13.9418 130.118 11.2698 132.02 9.05039C133.366 7.48025 135.128 6.88604 137.137 6.9608C138.094 6.99622 139.013 7.16543 139.844 7.67307C141.064 8.41683 141.548 9.61312 141.739 10.9826C141.762 11.1597 141.728 11.2305 141.537 11.2266C140.561 11.2187 139.589 11.2226 138.613 11.2266C138.494 11.2266 138.403 11.2069 138.361 11.077C138.083 10.2191 137.457 9.85711 136.622 9.81775C135.646 9.77053 134.834 10.1208 134.239 10.9393C133.946 11.3446 133.736 11.7893 133.58 12.2694C133.244 13.2847 133.046 14.3235 133.092 15.3939C133.176 17.3064 134.316 17.881 135.94 17.5819C136.458 17.4874 136.923 17.2474 137.286 16.8421C137.713 16.3698 138.239 16.2085 138.849 16.2203C139.55 16.2361 140.252 16.2203 141.018 16.2203L141.015 16.2282Z" fill="#6B7280"/>
<path d="M124.992 17.712C124.859 18.5109 124.733 19.2625 124.611 20.0141C124.584 20.1912 124.515 20.2739 124.317 20.2817C123.158 20.3329 122.003 20.3486 120.855 20.1755C120.093 20.0614 119.696 19.5419 119.673 18.7431C119.643 17.6845 119.925 16.6653 120.096 15.6343C120.737 11.7975 121.408 7.96457 122.064 4.12776C122.182 3.43517 122.171 3.43123 122.864 3.43123C123.215 3.43123 123.566 3.42336 123.917 3.43123C124.752 3.44697 125.335 4.13957 125.213 4.9935C125.129 5.59559 125.023 6.19767 124.904 6.79582C124.836 7.14999 124.859 7.34281 125.293 7.29559C125.686 7.2523 126.086 7.29559 126.479 7.27985C126.712 7.27198 126.75 7.35462 126.731 7.57893C126.628 8.80671 125.926 9.56226 124.729 9.66064C124.473 9.68032 124.393 9.7787 124.355 10.0069C123.966 12.3051 123.57 14.5993 123.181 16.8935C123.097 17.3854 123.307 17.653 123.829 17.6963C124.207 17.7278 124.588 17.7002 124.988 17.7002L124.992 17.712Z" fill="#6B7280"/>
<path d="M90.2045 17.7188C90.0634 18.5255 89.9223 19.2889 89.8041 20.0563C89.7736 20.2452 89.6974 20.2727 89.5411 20.2806C88.4315 20.3396 87.3144 20.3475 86.2125 20.2019C85.1564 20.0641 84.6988 19.3125 84.8933 18.1084C85.2136 16.1329 85.5567 14.1653 85.8922 12.1938C86.365 9.42338 86.8492 6.65301 87.3106 3.87869C87.3678 3.53633 87.4669 3.39467 87.8215 3.42615C88.2447 3.46156 88.6756 3.42615 89.0988 3.43402C89.9338 3.44582 90.5057 4.06365 90.4218 4.92546C90.357 5.59444 90.2426 6.25949 90.0977 6.91273C90.0177 7.2669 90.132 7.30625 90.418 7.29444C90.8603 7.27477 91.3026 7.29444 91.741 7.28657C91.9164 7.28657 91.9774 7.32592 91.9584 7.52662C91.8287 8.83704 91.1653 9.54931 89.9071 9.66736C89.6707 9.69097 89.6135 9.77361 89.5754 9.99398C89.1941 12.2567 88.7976 14.5195 88.4163 16.7861C88.3057 17.4354 88.5192 17.6912 89.156 17.7148C89.4877 17.7306 89.8232 17.7148 90.2007 17.7148L90.2045 17.7188Z" fill="#6B7280"/>
<path d="M58.1633 20.278C57.721 20.278 57.2787 20.2583 56.8365 20.2859C56.5505 20.3016 56.4666 20.2269 56.52 19.9238C56.989 17.244 57.4465 14.5641 57.904 11.8842C58.354 9.26734 58.8115 6.65044 59.2423 4.02567C59.3148 3.58886 59.4292 3.36062 59.9134 3.42752C60.2718 3.47868 60.6416 3.43539 61.0077 3.43932C62.0333 3.44326 62.5976 4.11224 62.4222 5.1472C62.0638 7.28794 61.6901 9.42869 61.3241 11.5734C60.8475 14.3477 60.3633 17.1181 59.8981 19.8924C59.8448 20.2111 59.738 20.3056 59.4368 20.2898C59.0097 20.2662 58.5827 20.2819 58.1557 20.2819L58.1633 20.278Z" fill="#6B7280"/>
<path d="M125.103 20.2775C125.511 17.8809 125.916 15.5277 126.316 13.1784C126.632 11.3288 126.964 9.48324 127.261 7.6337C127.311 7.33069 127.406 7.24412 127.692 7.25592C128.165 7.27953 128.638 7.25592 129.107 7.26379C129.942 7.27953 130.525 7.92097 130.399 8.77097C130.167 10.349 129.888 11.9191 129.622 13.4893C129.267 15.567 128.897 17.6448 128.562 19.7265C128.493 20.1555 128.363 20.3129 127.91 20.2893C126.983 20.2421 126.057 20.2735 125.1 20.2735L125.103 20.2775Z" fill="#6B7280"/>
<path d="M129.045 3.43388C129.274 3.43388 129.503 3.42994 129.728 3.43388C130.582 3.45356 131.139 4.09499 131.07 4.96467C131.006 5.75171 130.588 6.14523 129.816 6.14523C129.164 6.14523 128.508 6.13342 127.856 6.14916C127.597 6.15703 127.513 6.09407 127.566 5.81467C127.7 5.12601 127.818 4.43342 127.924 3.74082C127.959 3.52045 128.035 3.40633 128.271 3.42601C128.527 3.44569 128.786 3.42994 129.045 3.42994V3.43388Z" fill="#6B7280"/>
<path d="M36.4763 4.99332C33.0487 1.14863 27.3447 0.534744 22.4224 3.04933H20.558C20.3521 3.04933 20.1881 3.21855 20.1881 3.43105C20.1881 3.64355 20.3521 3.81276 20.558 3.81276H21.0575C20.375 4.21415 19.7154 4.67457 19.0824 5.19795H11.6323C11.4264 5.19795 11.2624 5.36716 11.2624 5.57966C11.2624 5.79216 11.4264 5.96137 11.6323 5.96137H18.2284C17.8547 6.32341 17.4887 6.70513 17.1417 7.11439C17.0769 7.18916 17.0159 7.26786 16.9549 7.34656H13.9581C13.7522 7.34656 13.5882 7.51578 13.5882 7.72828C13.5882 7.94078 13.7522 8.10999 13.9581 8.10999H16.3677C16.0436 8.56254 15.7462 9.02295 15.4755 9.49518H12.6274C12.4215 9.49518 12.2576 9.66439 12.2576 9.87689C12.2576 10.0894 12.4215 10.2586 12.6274 10.2586H15.0676C14.8388 10.7151 14.6329 11.1794 14.4537 11.6438H1.51314C1.30725 11.6438 1.1433 11.813 1.1433 12.0255C1.1433 12.238 1.30725 12.4072 1.51314 12.4072H14.183C14.0343 12.8676 13.9123 13.332 13.8094 13.7924H4.47567C4.26978 13.7924 4.10583 13.9616 4.10583 14.1741C4.10583 14.3866 4.26978 14.5558 4.47567 14.5558H13.6645C13.5882 15.0202 13.5348 15.4806 13.5043 15.941H1.30343C1.09754 15.941 0.933594 16.1102 0.933594 16.3227C0.933594 16.5352 1.09754 16.7045 1.30343 16.7045H13.4738C13.47 17.1727 13.4891 17.6332 13.5348 18.0896H11.1175C10.9116 18.0896 10.7477 18.2589 10.7477 18.4714C10.7477 18.6839 10.9116 18.8531 11.1175 18.8531H13.634C13.7064 19.3253 13.8094 19.7857 13.9352 20.2383H9.48948C9.28359 20.2383 9.11964 20.4075 9.11964 20.62C9.11964 20.8325 9.28359 21.0017 9.48948 21.0017H14.1792C14.347 21.4778 14.549 21.9422 14.7816 22.3869H12.8447C12.6388 22.3869 12.4749 22.5561 12.4749 22.7686C12.4749 22.9811 12.6388 23.1503 12.8447 23.1503H15.2125C15.5175 23.6383 15.8568 24.1026 16.2419 24.5355H9.27596C9.07007 24.5355 8.90612 24.7047 8.90612 24.9172C8.90612 25.1297 9.07007 25.2989 9.27596 25.2989H16.9892C17.0159 25.3265 17.0426 25.354 17.0731 25.3776C23.1316 30.8436 31.6722 26.932 36.0722 21.2417C39.6295 16.6415 40.5751 9.56995 36.4802 4.97364L36.4763 4.99332Z" fill="#6B7280"/>
<path d="M35.9475 19.558C33.0727 23.2296 28.444 26.0196 23.8839 25.4687C23.617 25.4411 23.3539 25.3979 23.0908 25.3388L27.9941 13.1476L38.1208 8.01611C38.2276 8.30732 38.3229 8.60639 38.3991 8.90547C39.3561 12.5022 38.2619 16.6027 35.9475 19.558V19.558Z" fill="#9CA3AF"/>
<path d="M27.3595 13.0575L15.6695 17.8584C15.5056 17.0163 15.4446 16.1348 15.4903 15.2455V15.2376C15.5475 13.7619 15.883 12.2429 16.4855 10.7908C16.8172 9.98018 17.2328 9.18527 17.7284 8.42578L27.3595 13.0575V13.0575Z" fill="#E5E7EB"/>
<path d="M27.36 12.6041L17.9424 8.11404C18.2169 7.70871 18.5219 7.3152 18.8498 6.93348C20.0089 5.58371 21.3548 4.52514 22.7884 3.75778C23.0668 3.5925 23.3489 3.4351 23.6311 3.29736L27.36 12.6041Z" fill="#D1D5DB"/>
<path d="M29.4403 1.96481L27.7588 12.3222L23.9766 3.12569C25.7533 2.29537 27.633 1.90578 29.4403 1.96481Z" fill="#9CA3AF"/>
<path d="M27.457 13.3755C27.4303 13.5211 27.3426 13.6785 27.2892 13.8162L27.11 14.2648L26.7516 15.166L26.0387 16.9683L24.6127 20.569L23.1867 24.1697L22.9732 24.7088C22.9503 24.7639 22.794 25.248 22.7597 25.248C21.0973 24.8623 19.5417 24.0005 18.314 22.7845C17.0862 21.5686 16.1864 19.9984 15.7441 18.3023C16.907 17.8104 18.0738 17.3225 19.2366 16.8306C20.3995 16.3387 21.5663 15.8507 22.7292 15.3588C23.8921 14.8669 25.0588 14.379 26.2217 13.8871C26.4237 13.8005 26.6296 13.7139 26.8317 13.6313C27.0338 13.5486 27.2473 13.4148 27.4532 13.3755H27.457Z" fill="#F3F4F6"/>
<path d="M30.5 0L28.666 11.7505L39.3799 6.20973C39.3799 6.20973 36.7949 0.779168 30.5 0Z" fill="#6B7280"/>
</svg>
