<svg width="112" height="69" viewBox="0 0 112 69" fill="none" xmlns="http://www.w3.org/2000/svg">
<path d="M37.0279 47.053V60.4967H33.7654L28.7921 52.5003V60.4967H25.5613V47.053H28.8133L33.7971 55.0652V47.053H37.0279Z" fill="#6B7280"/>
<path d="M44.8779 57.5801V54.9588H51.3281V52.2163H44.8779V50.0012H51.9061V47.053H41.3774V60.4967H52.0533V57.5801H44.8779Z" fill="#6B7280"/>
<path d="M69.1529 47.053L67.1773 55.1181L65.1147 47.053H61.9363L59.8464 55.0124L57.9416 47.053H54.4258L58.0885 60.4967H61.49L63.5037 52.5214L65.5446 60.4967H68.8862L72.6143 47.053H69.1529Z" fill="#6B7280"/>
<path d="M85.9147 54.4843C85.5741 53.9861 85.1621 53.5789 84.7006 53.2789C84.2391 52.9843 83.7722 52.7539 83.2997 52.6307C82.4591 52.4164 79.3167 51.5913 79.0365 51.4628C78.7343 51.3235 78.619 51.2056 78.5695 51.1306C78.4981 51.0181 78.4651 50.8574 78.4651 50.6538C78.4651 50.4288 78.5091 50.2466 78.6025 50.1127C78.7069 49.9574 78.8387 49.8341 78.998 49.7323C79.1629 49.6306 79.3496 49.5555 79.5529 49.5127C79.7727 49.4698 79.9924 49.4484 80.2067 49.4484C80.5473 49.4484 80.8659 49.4805 81.1571 49.5341C81.4263 49.5877 81.668 49.6841 81.8768 49.8073C82.0746 49.9306 82.2339 50.0966 82.3548 50.3109C82.6075 50.6485 82.591 51.4253 82.591 51.4253H85.9917C85.9917 51.4253 86.1015 50.1663 85.5192 49.0787C85.206 48.5109 84.7775 48.0448 84.2391 47.6751C83.7117 47.3162 83.1019 47.0537 82.4262 46.8929C81.7614 46.7376 81.0637 46.6572 80.344 46.6572C79.7177 46.6572 79.0914 46.7376 78.4706 46.9037C77.8389 47.0697 77.2675 47.3323 76.7676 47.6805C76.2566 48.0287 75.8446 48.4734 75.5315 48.9984C75.2128 49.5341 75.0535 50.1716 75.0535 50.8842C75.0535 51.5271 75.1799 52.0842 75.4381 52.545C75.6853 53.0003 76.0204 53.3807 76.4269 53.6861C76.8225 53.9807 77.273 54.2218 77.7729 54.4093C78.2619 54.5915 78.7618 54.7415 79.2727 54.87C79.7562 55.004 80.2451 55.1272 80.7176 55.2397C81.1736 55.3468 81.5966 55.4701 81.9537 55.6094C82.2943 55.7433 82.569 55.9094 82.7723 56.0969C82.9481 56.263 83.0305 56.4772 83.0305 56.7558C83.0305 57.0344 82.9646 57.2326 82.8327 57.3934C82.6844 57.5755 82.5031 57.7148 82.2723 57.8219C82.0361 57.9291 81.7779 58.0041 81.5087 58.0416C81.223 58.0845 80.9538 58.1005 80.7011 58.1005C80.3385 58.1005 79.9814 58.0577 79.6463 57.9773C79.3167 57.8916 79.031 57.763 78.7893 57.5969C78.5585 57.4309 78.3663 57.2166 78.2289 56.954C78.0147 56.6701 78.0147 55.6844 78.0147 55.6844H74.5975C74.5975 55.6844 74.4986 57.1683 75.0755 58.1809C75.4051 58.8023 75.8666 59.3274 76.4269 59.7292C76.9873 60.131 77.6411 60.4256 78.3663 60.6131C79.0805 60.7953 79.8276 60.8917 80.5857 60.8917C81.5252 60.8917 82.3657 60.7792 83.0854 60.5649C83.8161 60.3506 84.4314 60.0399 84.9313 59.6434C85.4313 59.247 85.8213 58.7648 86.0741 58.2184C86.3268 57.6719 86.4531 57.0666 86.4531 56.429C86.4531 55.6469 86.2773 54.9879 85.9257 54.4736" fill="#6B7280"/>
<path d="M10.8767 36.0987H15.4563C15.1986 36.6409 14.8818 37.1343 14.5114 37.5627C14.3664 37.7362 14.2054 37.9042 14.0175 38.0832C13.8993 38.1916 13.7705 38.2892 13.6363 38.3814C12.8309 38.9778 11.886 39.3248 10.8767 39.3248C7.96142 39.3248 5.59914 36.4566 5.59914 32.9215C5.59914 29.3863 7.96142 26.5127 10.8767 26.5127C12.7611 26.5127 14.5919 27.5049 15.4563 29.5165H19.8426C19.6547 28.1447 19.048 26.9139 18.4038 25.8675C17.9367 25.1572 17.373 24.5445 16.718 24.0294C15.9288 23.4113 15.0322 22.9396 14.0604 22.6197C13.0886 22.3052 12.0686 22.1426 11.0324 22.1426C9.49691 22.1426 8.08491 22.4245 6.85008 22.9721C5.60988 23.5252 4.55223 24.3005 3.69321 25.2765C2.83957 26.247 2.17921 27.3965 1.72823 28.6977C1.28261 29.9882 1.04639 31.4087 1.04639 32.9106C1.04639 34.4125 1.27725 35.7734 1.72823 37.0476C2.17921 38.3272 2.83957 39.4604 3.68785 40.4146C4.54149 41.3689 5.59914 42.128 6.83934 42.6756C8.07954 43.2178 9.4808 43.4943 11.0217 43.4943C12.0203 43.4943 13.0189 43.2828 13.9852 42.8708C14.6832 42.5726 15.3436 42.1117 15.9556 41.5044V43.0768H19.9393V32.0268H10.8767V36.0987ZM77.3051 29.7767C76.8863 29.202 76.3387 28.7465 75.6837 28.4266C75.0448 28.1122 74.3361 27.9007 73.5738 27.7923C72.8329 27.6893 72.092 27.6405 71.3725 27.6405C70.5726 27.6405 69.7619 27.7218 68.9673 27.879C68.1566 28.0471 67.4104 28.3236 66.7607 28.714C66.095 29.1098 65.5366 29.6466 65.1018 30.3026C64.6615 30.9695 64.4092 31.8045 64.3555 32.7913L64.3448 33.1058H69.0425L69.0586 32.8564C69.1176 32.2003 69.3163 31.7449 69.6545 31.4846C70.0089 31.2081 70.5243 31.0726 71.1846 31.0726C71.5014 31.0726 71.802 31.0943 72.0759 31.1376C72.3175 31.1756 72.5322 31.2515 72.7094 31.3599C72.8704 31.4575 72.9993 31.5985 73.0959 31.7774C73.1979 31.9618 73.2463 32.2329 73.2463 32.5799C73.2624 32.954 73.1389 33.1004 73.0423 33.1763C72.8382 33.3444 72.5483 33.4799 72.1832 33.5721C71.7698 33.6805 71.292 33.7564 70.7551 33.8107C70.1914 33.8703 69.6062 33.9408 69.0264 34.0384C68.4358 34.1306 67.8452 34.2607 67.26 34.4179C66.6426 34.586 66.0896 34.8408 65.6172 35.1824C65.1232 35.5348 64.7152 36.0011 64.4038 36.5813C64.0924 37.1669 63.9367 37.9042 63.9367 38.7826C63.9367 39.5742 64.0709 40.2736 64.3394 40.8592C64.6078 41.4502 64.989 41.9436 65.4722 42.334C65.9447 42.719 66.503 43.0009 67.1365 43.1798C67.7486 43.3533 68.4143 43.4401 69.1176 43.4401C70.0196 43.4401 70.9162 43.3045 71.7859 43.0389C72.4248 42.8382 73.0047 42.5346 73.5254 42.1225C73.5254 42.1496 73.5415 43.0768 73.5415 43.0768H77.9655L77.9547 32.1082C77.9547 31.1539 77.7346 30.3677 77.3051 29.7767ZM69.1498 39.6989C68.9942 39.6013 68.876 39.4712 68.7848 39.2923C68.6935 39.1242 68.6452 38.891 68.6452 38.6145C68.6452 38.3217 68.6935 38.0832 68.7848 37.9042C68.8814 37.7199 69.0103 37.5681 69.1606 37.4542C69.3324 37.3241 69.5364 37.2211 69.7673 37.1506C70.0303 37.0584 70.2988 36.9934 70.5672 36.9446C70.8625 36.8903 71.1632 36.847 71.4531 36.809C71.7537 36.7765 72.0598 36.7277 72.3604 36.668C72.6503 36.6138 73.0315 36.5 73.2516 36.424C73.5254 40.3767 70.5243 40.3224 69.1498 39.6989ZM22.7579 43.0714H27.4663V22.6197H22.7579V43.0714ZM42.848 29.8147C42.1769 29.1261 41.3555 28.5839 40.4052 28.2043C39.4657 27.8302 38.3973 27.6405 37.2483 27.6405C36.0994 27.6405 35.0364 27.8302 34.1022 28.2043C33.1627 28.5785 32.3466 29.1207 31.6755 29.8147C31.0044 30.5033 30.4783 31.3491 30.1132 32.325C29.7535 33.2901 29.5709 34.3854 29.5709 35.5674C29.5709 36.7494 29.7535 37.8392 30.1132 38.7934C30.4783 39.7586 30.999 40.599 31.6755 41.2876C32.3466 41.9761 33.168 42.5129 34.1076 42.8816C35.0417 43.2503 36.0994 43.4292 37.2483 43.4292C38.3973 43.4292 39.4603 43.2449 40.3998 42.8816C41.3501 42.5075 42.1715 41.9761 42.848 41.2821C43.5191 40.5935 44.0453 39.7531 44.4103 38.788C44.77 37.8283 44.958 36.7385 44.958 35.562C44.958 34.3854 44.7754 33.2901 44.4157 32.3196C44.0506 31.3382 43.5299 30.4924 42.8534 29.8092M40.0938 37.1506C39.9972 37.6386 39.8254 38.0832 39.5945 38.4736C39.3744 38.8422 39.063 39.135 38.6872 39.3573C38.3114 39.5742 37.8282 39.6881 37.2537 39.6881C36.6792 39.6881 36.2068 39.5742 35.8363 39.3628C35.4605 39.1405 35.1599 38.8422 34.9397 38.4736C34.7035 38.0832 34.5317 37.6386 34.4351 37.156C34.3331 36.6464 34.2794 36.115 34.2794 35.5782C34.2794 35.0414 34.3331 34.5047 34.4351 33.9842C34.5317 33.4908 34.6981 33.0462 34.9344 32.672C35.1599 32.3088 35.4659 32.0106 35.8363 31.7774C36.2014 31.5551 36.6792 31.4413 37.2483 31.4413C37.8174 31.4413 38.3006 31.5551 38.6711 31.7774C39.0576 32.0106 39.3583 32.3033 39.5891 32.672C39.82 33.0516 39.9918 33.4908 40.0884 33.9842C40.1904 34.5047 40.2441 35.0414 40.2441 35.5782C40.2441 36.1096 40.1958 36.6409 40.0884 37.156M60.1839 29.5598C59.5934 28.9146 58.9115 28.4266 58.176 28.1122C57.4351 27.7977 56.6781 27.6405 55.9211 27.6405C54.9976 27.6405 54.0957 27.8248 53.242 28.1881C52.7159 28.4104 52.2488 28.714 51.8569 29.0935V22.6197H47.1484V43.0768H51.6475V42.0358C52.0233 42.4153 52.4689 42.7135 52.9951 42.9196C53.8541 43.2666 54.8419 43.4401 55.9265 43.4401C56.6835 43.4401 57.4405 43.2828 58.1814 42.9684C58.9222 42.6539 59.5987 42.1659 60.1893 41.5153C60.7799 40.8755 61.2577 40.0459 61.6228 39.0537C61.9825 38.0669 62.1704 36.8849 62.1704 35.5403C62.1704 34.1956 61.9878 33.0191 61.6281 32.0268C61.2631 31.0346 60.7852 30.205 60.1947 29.5598M57.2794 37.1831C57.1613 37.6819 56.9787 38.1265 56.7371 38.5061C56.5009 38.8748 56.2003 39.1621 55.8513 39.379C55.5131 39.5851 55.0835 39.6881 54.5789 39.6881C54.0742 39.6881 53.6662 39.5796 53.3172 39.3736C52.9629 39.1621 52.6568 38.8694 52.4206 38.5061C52.179 38.1265 51.9965 37.6819 51.8784 37.1831C51.7602 36.6735 51.6958 36.1313 51.6958 35.5782C51.6958 35.0252 51.7602 34.4613 51.8784 33.9408C51.9965 33.442 52.1736 32.9974 52.4206 32.6232C52.6568 32.2491 52.9521 31.9672 53.3172 31.7557C53.6715 31.5443 54.0957 31.4413 54.5789 31.4413C55.0621 31.4413 55.5131 31.5443 55.8513 31.7503C56.2056 31.9672 56.5009 32.2491 56.7371 32.6232C56.9787 32.9974 57.1613 33.442 57.2848 33.9408C57.4029 34.4613 57.4619 35.0089 57.4619 35.5782C57.4619 36.1475 57.4029 36.668 57.2848 37.1831M80.5586 43.0714H85.267V22.6197H80.5586V43.0714Z" fill="#6B7280"/>
<path d="M80.9175 0.187728V14.8734C80.9175 14.9324 80.9497 14.9914 80.998 15.0236L99.8107 28.5722C99.9341 28.6634 100.036 28.7868 100.095 28.9316C100.106 28.9584 100.117 28.9798 100.122 29.0013C100.122 29.0067 100.122 29.012 100.122 29.0228C100.143 29.0978 100.154 29.1783 100.154 29.2588C100.154 29.543 100.079 29.8863 99.6712 30.1545L96.237 32.6593C96.178 32.7022 96.119 32.7505 96.06 32.7934C95.7917 32.9919 95.3195 33.3405 94.7614 33.7374L91.2629 36.2905C91.22 36.3227 91.1878 36.3763 91.1878 36.43V39.9807C91.1878 40.0933 91.1878 40.2596 91.1878 40.501V41.4289C91.1878 42.8985 91.1878 45.752 91.1878 46.8301C91.1878 46.9964 91.1878 47.1787 91.1878 47.3665V49.9625C91.1878 49.9625 91.1878 50.0054 91.1878 50.0268V50.1019C91.1878 50.1663 91.1878 50.2628 91.1878 50.3594V50.4291C91.1878 50.531 91.2683 50.6115 91.3702 50.6115C91.4078 50.6115 91.4453 50.5954 91.4775 50.5793L111.288 36.1725C111.337 36.1403 111.363 36.0867 111.363 36.0277V29.7951C111.363 27.0972 111.363 24.0185 111.363 22.1358V21.9266C111.363 21.8837 111.337 21.8462 111.31 21.814C111.031 21.6102 109.7 20.6447 107.876 19.3306L93.0336 8.59258C90.7263 6.92448 88.419 5.25638 86.1116 3.58292C85.4302 3.08947 84.7112 2.56919 83.9868 2.04355L81.3146 0.112637C81.2716 0.0858185 81.2341 0.0536366 81.1911 0.0268183C81.1643 0.0107273 81.1268 0 81.0946 0C80.9926 0 80.9175 0.0804549 80.9175 0.182364" fill="#9CA3AF"/>
</svg>
