<svg width="248" height="37" viewBox="0 0 248 37" fill="none" xmlns="http://www.w3.org/2000/svg">
<path d="M224.546 21.758C224.587 21.758 224.669 21.7994 224.793 21.7994C224.917 21.7994 224.917 21.8823 224.917 21.8823L224.958 22.0481C224.958 22.0481 225.123 22.0895 225.164 22.1724C225.247 22.2552 225.123 22.2552 225.082 22.2552C225.041 22.2967 224.917 22.2552 224.917 22.2552L224.999 22.421L224.834 22.5039L224.587 22.421L224.669 22.5453L224.587 22.6282C224.587 22.6282 224.216 22.5039 224.216 22.4624C224.216 22.421 224.133 22.3795 224.133 22.3795L223.844 22.421L223.886 22.2967L224.174 22.2138C224.174 22.2138 224.381 22.1309 224.422 22.1309C224.463 22.1309 224.216 22.0481 224.216 22.0066C224.216 21.9652 224.133 21.9237 224.133 21.9237C224.133 21.9237 224.092 21.9237 224.051 21.9237C223.968 21.9652 223.886 22.0066 223.803 22.0481L223.886 22.0895L223.721 22.2552C223.721 22.2552 223.679 22.2967 223.597 22.3381C223.473 22.3795 223.39 22.3381 223.308 22.3795C223.308 22.3795 223.308 22.3795 223.267 22.3795C223.225 22.421 223.184 22.421 223.102 22.4624L223.184 22.421H223.308L223.39 22.5039L223.473 22.5453C223.473 22.5453 223.432 22.5867 223.349 22.5867C223.267 22.5867 223.184 22.5867 223.143 22.5867L222.978 22.6282L223.019 22.5453C223.019 22.5453 222.978 22.5453 222.937 22.5453C222.607 22.7525 222.277 23.0011 221.947 23.2497C221.947 23.2911 221.947 23.3326 221.947 23.3326H222.112L222.359 23.4154L222.442 23.4569H222.648L222.607 23.5398L222.565 23.6641V23.7884L222.648 23.8298L222.813 23.7055V23.5398C222.813 23.5398 222.978 23.4983 223.06 23.4569C223.143 23.4154 223.267 23.2911 223.267 23.2911C223.267 23.2497 223.225 23.1668 223.225 23.1668C223.225 23.1668 223.349 23.084 223.39 23.0425C223.432 23.0011 223.432 22.8768 223.432 22.8768C223.432 22.8768 223.39 22.7939 223.514 22.7525C223.638 22.7525 223.762 22.7525 223.803 22.7525C223.844 22.7525 223.886 22.711 223.968 22.7525C224.009 22.7525 224.051 22.7939 224.051 22.8353H224.174L224.092 22.9596L223.968 23.0425L224.092 23.084L224.174 23.1254L224.381 23.0011L224.463 22.9182V22.9596C224.917 22.4624 225.412 22.0066 225.99 21.6337L225.866 21.4265H225.453C225.288 21.468 224.917 21.5923 224.546 21.758ZM221.905 24.7L221.988 24.7414L222.277 24.7L222.524 24.6171L222.607 24.4928L222.4 24.5342L222.318 24.6171H222.277L221.988 24.6585L221.905 24.7ZM221.988 24.0784L221.864 24.037C221.864 24.037 221.74 24.037 221.74 24.0784C221.699 24.1199 221.658 24.1199 221.616 24.1613C221.575 24.1613 221.41 24.2442 221.41 24.2442L221.451 24.2856L221.616 24.2442L221.823 24.2027L221.905 24.2856L222.07 24.2442L222.194 24.2027L222.153 24.1199L221.988 24.0784ZM221.988 24.327H221.864L221.658 24.4513L221.534 24.7H221.658L221.74 24.5342L221.905 24.3685H222.029L221.864 24.4928H221.988L222.07 24.4513V24.5342L222.194 24.4928L222.277 24.327L222.194 24.2856L221.988 24.327ZM224.009 23.7884C223.927 23.7884 223.927 23.7884 223.886 23.8298C223.844 23.8712 223.803 23.9127 223.803 23.9127L223.679 23.9955H223.721L223.968 23.9541C223.968 23.9127 223.968 23.8298 224.009 23.7884ZM223.143 33.4015C223.143 33.3186 223.102 33.1943 223.06 33.1529C223.019 33.1115 223.019 33.07 222.978 33.0286L222.937 32.9457C222.937 32.9457 222.937 32.9871 222.895 32.9457C222.854 32.9043 222.772 32.8214 222.772 32.8214V32.7385L222.73 32.5313V32.4485V32.117L222.607 31.8684V31.7441V31.6198L222.689 31.454L222.648 31.4126V31.3711V31.2883C222.648 31.2883 222.648 31.2054 222.648 31.164C222.648 31.164 222.648 31.1225 222.648 31.0811C221.905 30.9982 221.163 30.9154 220.379 30.791C221.039 31.7441 221.947 32.6557 223.143 33.4015ZM219.636 27.932C219.636 28.8435 219.884 29.6723 220.296 30.4596C221.039 30.5839 221.823 30.6667 222.648 30.791V30.6253C222.648 30.6253 222.607 30.5839 222.565 30.5424C222.524 30.501 222.565 30.5424 222.524 30.501C222.483 30.4596 222.318 30.3767 222.318 30.3767C222.318 30.3767 222.153 30.2938 222.112 30.2524C222.07 30.2109 221.988 30.2109 221.947 30.1695C221.905 30.1281 221.905 30.0866 221.905 30.0866C221.905 30.0866 221.699 29.7551 221.658 29.7137C221.616 29.6723 221.575 29.6308 221.575 29.5894C221.575 29.548 221.451 29.4651 221.451 29.4237L221.328 29.3408C221.328 29.3408 221.286 29.2579 221.286 29.2165C221.286 29.175 221.328 29.1336 221.369 29.0922C221.369 29.0507 221.369 29.0093 221.369 29.0093C221.369 28.9679 221.369 28.9679 221.369 28.9264C221.369 28.885 221.369 28.885 221.369 28.8436C221.369 28.8021 221.575 28.6364 221.575 28.6364C221.575 28.5949 221.658 28.5535 221.699 28.5121C221.74 28.4706 221.782 28.3878 221.782 28.3878C221.782 28.3463 221.823 28.222 221.782 28.1806C221.74 28.1391 221.658 27.9734 221.658 27.9734L221.575 27.8905H221.493L221.451 27.932V27.9734L221.41 28.0148H221.328L221.245 27.9734L221.163 27.932L221.08 27.8491L220.874 27.8077L220.833 27.6834L220.709 27.559L220.668 27.5176H220.585H220.503L220.379 27.4762H220.296L220.214 27.3933L220.049 27.269H219.925C219.925 27.269 219.842 27.3104 219.801 27.3104H219.719C219.636 27.4762 219.636 27.6833 219.636 27.932ZM223.143 24.7C223.267 24.7 223.39 24.7 223.556 24.7C223.597 24.5757 223.679 24.4513 223.721 24.327L223.308 24.5342C223.308 24.4928 223.143 24.7 223.143 24.7ZM231.188 22.421C231.27 22.421 231.27 22.421 231.27 22.421V22.3381H231.394V22.2967L231.518 22.2552C231.477 22.2138 231.477 22.1724 231.435 22.1309L231.312 22.2138C231.312 22.2138 231.147 22.1724 231.105 22.1724L230.982 22.2138L231.023 22.2967C231.064 22.3381 231.147 22.421 231.188 22.421ZM232.137 24.7C232.013 24.6585 231.889 24.6585 231.765 24.6585L231.93 24.7H232.137ZM231.188 24.6585C231.188 24.6585 231.229 24.6585 231.27 24.6585C231.188 24.6585 231.105 24.6585 231.023 24.6585V24.7H231.188M231.807 25.9845C231.724 25.943 231.724 26.0259 231.724 26.0259L231.93 26.3574L231.972 26.4817L232.095 26.6475C232.095 26.6475 232.137 26.7303 232.137 26.7718C232.137 26.8132 232.219 26.9375 232.219 26.9375C232.219 26.9375 232.219 27.0204 232.261 27.0618C232.302 27.1032 232.467 27.3519 232.508 27.3933C232.549 27.4347 232.591 27.4347 232.714 27.4762C232.838 27.559 232.838 27.6005 232.838 27.6005V27.6419L232.962 27.7248C232.962 27.6419 232.962 27.6005 232.962 27.5176H232.921C232.838 27.5176 232.838 27.4762 232.838 27.4347C232.838 27.3933 232.756 27.3104 232.756 27.2276C232.756 27.1447 232.673 27.0204 232.673 27.0204C232.673 27.0204 232.591 26.9789 232.591 26.8961C232.591 26.8546 232.508 26.8132 232.467 26.7718C232.426 26.7303 232.384 26.7303 232.384 26.6475C232.384 26.5646 232.343 26.5231 232.302 26.4403C232.261 26.3574 232.178 26.3574 232.178 26.3574C232.178 26.3574 232.178 26.316 232.137 26.2745C232.054 26.1502 232.013 26.0673 231.93 25.943C231.848 25.9845 231.807 25.9845 231.807 25.9845ZM233.251 24.8243L233.292 24.7828L233.251 24.7414C233.086 24.7414 232.962 24.7414 232.797 24.7L232.838 24.7828L232.921 24.8243L232.838 24.8657V25.0314L232.879 25.1558C232.879 25.1558 232.921 25.1558 232.962 25.1558L233.003 25.1972C233.003 25.1972 233.086 25.2386 233.127 25.2386C233.168 25.2386 233.168 25.2386 233.168 25.2386C233.209 25.2386 233.333 25.1972 233.333 25.1972L233.292 25.1143V25.0314V24.99L233.251 24.9486V24.9071V24.8657H233.209V24.8243V24.7828C233.127 24.7828 233.251 24.8243 233.251 24.8243ZM239.109 25.5701C239.15 25.5701 239.191 25.6116 239.191 25.6116C239.191 25.6116 239.233 25.6944 239.274 25.6944C239.315 25.6944 239.357 25.7773 239.357 25.7773L239.398 25.8187H239.274H239.315L239.357 25.9016V25.943H239.398C239.398 25.943 239.398 25.9845 239.357 26.0673C239.315 26.1502 239.357 26.2745 239.274 26.3988C239.398 26.8546 239.48 27.3104 239.48 27.8077L239.522 27.7662V27.7248L239.563 27.6834V27.7662L239.522 27.8491L239.439 27.8905V27.9734C239.439 28.0563 239.439 28.1391 239.439 28.222H239.48L239.563 28.2635H239.48V28.3049H239.439C239.439 28.3463 239.439 28.3878 239.439 28.4292V28.4706L239.522 28.5121V28.5535H239.439L239.398 28.6364V28.7192L239.357 28.7607C239.315 28.9679 239.274 29.175 239.233 29.3408C239.274 29.3408 239.315 29.3408 239.357 29.3408C239.439 29.3408 239.48 29.3408 239.522 29.3408C239.563 29.3408 239.687 29.3408 239.728 29.3408C239.769 29.3408 239.769 29.3822 239.769 29.3822L239.604 29.4237L239.233 29.4651H239.191C239.109 29.7966 238.985 30.0866 238.82 30.4181C239.15 30.3767 239.439 30.2938 239.728 30.2524L239.81 30.2109C239.81 30.2109 239.852 30.1281 239.934 30.0866C240.017 30.0452 240.058 30.0038 240.099 29.9623C240.14 29.9209 240.223 29.9209 240.264 29.9209C240.305 29.9209 240.305 30.0038 240.305 30.0038L240.429 29.9623C240.429 29.9623 240.388 29.9623 240.429 29.9209C240.47 29.8795 240.553 29.7551 240.553 29.7551H240.718V29.6723L241.089 29.7551L241.007 29.8795L240.924 29.9623L241.007 30.0452C241.172 30.0038 241.296 29.9623 241.461 29.9209V29.7966L241.584 29.5894L241.626 29.6308L241.708 29.838C241.914 29.7551 242.121 29.7137 242.286 29.6723C242.533 29.1336 242.657 28.5535 242.657 28.0148C242.657 27.3933 242.533 26.7718 242.244 26.2331C241.626 26.0259 241.007 25.8602 240.388 25.7359V25.7773H240.347L240.305 25.6944C240.264 25.6944 240.264 25.6944 240.264 25.6944H240.14L240.058 25.7359L239.975 25.6944L240.017 25.653C239.934 25.653 239.852 25.6116 239.728 25.6116C239.728 25.6116 239.728 25.653 239.687 25.653C239.687 25.6944 239.522 25.6944 239.522 25.6944L239.48 25.653C239.48 25.653 239.48 25.6116 239.48 25.5701C239.315 25.5287 239.15 25.5287 239.026 25.4872L238.944 25.5701C239.026 25.5287 239.068 25.5287 239.109 25.5701ZM239.81 29.6308L239.728 29.5894L239.81 29.548L239.893 29.6308H239.81ZM242.368 29.0922H242.533L242.698 29.0093L242.657 29.0922L242.574 29.1336L242.368 29.0922ZM240.883 28.6778L241.089 28.7607V28.8021L241.172 28.885L241.213 28.9264L241.337 28.8436L241.461 28.7607L241.502 28.8021L241.749 28.8436L242.038 28.9679L242.162 29.0507V29.0922L242.368 29.1336V29.2165L242.286 29.2579H242.327L242.409 29.3822L242.492 29.4237L242.533 29.5065L242.451 29.4651L242.286 29.4237L242.203 29.2579L242.079 29.2165L241.956 29.2993L241.997 29.3408L241.914 29.3822L241.749 29.3408H241.626L241.502 29.2993L241.626 29.2579L241.584 29.175L241.502 29.0507L241.378 29.0093L241.172 28.9264L241.089 28.9679V28.885L241.172 28.8021H241.089L241.007 28.7192H240.924V28.6364L240.883 28.6778ZM239.893 28.8021L239.975 28.7192H240.017L239.934 28.8436L239.975 28.9679L240.058 29.0093V29.0922L239.934 29.0093L239.893 28.885L239.81 28.9264V29.0507V29.175H239.728V29.0507L239.645 28.9264L239.687 28.7607L239.769 28.5949L239.934 28.5535L240.058 28.5121H240.099L239.975 28.5949H239.81L239.769 28.7192L239.893 28.8021ZM239.728 27.4762H239.81V27.5176L239.769 27.559L239.728 27.5176V27.4762ZM239.975 27.7248L239.893 27.7662V27.6419V27.6005L240.017 27.6419L239.975 27.7248ZM240.017 27.7248V27.8077V27.8491H239.975V27.7662L240.017 27.7248ZM240.14 29.5894L240.099 29.548L240.305 29.4237L240.347 29.4651L240.14 29.5894ZM240.305 27.8905L240.347 27.932V28.0148L240.305 28.0563L240.264 28.0148L240.223 28.0563L240.264 28.0977L240.223 28.1391H240.182L240.099 28.0563V28.0148V27.9734H240.058H239.975L239.934 28.0563H239.893L239.934 27.9734H239.975V27.932H240.058V27.9734L240.14 27.932V27.8905L240.182 27.8491L240.14 27.8077L240.223 27.8491L240.305 27.8905ZM240.182 27.7248L240.099 27.6834L240.14 27.6419L240.099 27.6005L240.14 27.559L240.182 27.6005V27.6419L240.14 27.6834C240.182 27.6834 240.182 27.7248 240.182 27.7248ZM240.099 25.6944L240.182 25.7359L240.223 25.8187V25.943H240.14V25.8187L240.058 25.7773L240.017 25.7359L240.099 25.6944ZM239.893 27.3933L239.975 27.4347L240.058 27.5176L240.017 27.559H239.975L239.934 27.4762H239.852L239.893 27.3933ZM239.728 26.9789L239.81 27.0618L239.852 27.1447L239.81 27.2276L239.769 27.269V27.3519L239.81 27.3933V27.4762L239.769 27.5176L239.728 27.4347H239.687H239.645L239.604 27.3104H239.645V27.1447V27.1032L239.728 26.9789ZM239.563 26.4403H239.645V26.4817L239.604 26.6475L239.563 26.6889L239.48 26.606V26.5231L239.563 26.4403ZM231.848 24.3685L231.724 24.2856C231.724 24.2856 231.889 24.1199 231.848 24.1199C231.807 24.1199 231.477 24.1613 231.477 24.1613L231.518 24.2856L231.394 24.327L231.353 24.2856V24.2442H231.147L231.105 24.327L230.982 24.4513V24.5342C231.312 24.5342 231.683 24.5342 232.013 24.5757C231.972 24.4513 231.848 24.3685 231.848 24.3685ZM241.461 30.1281C241.461 30.1281 241.419 30.1281 241.378 30.1281C241.419 30.1695 241.461 30.1281 241.461 30.1281ZM223.844 21.4265C223.886 21.4265 223.927 21.4265 223.927 21.4265C223.927 21.4265 223.968 21.4265 223.968 21.3851C223.968 21.4265 223.886 21.4265 223.844 21.4265ZM224.216 21.4265L224.669 21.3851V21.468C224.958 21.3437 225.247 21.2608 225.536 21.1779L225.783 21.095C225.536 21.1365 225.288 21.1779 225.041 21.2193L224.834 21.3851L224.669 21.3022C224.587 21.3022 224.463 21.3436 224.381 21.3436L224.216 21.4265ZM218.357 23.7469C218.357 23.7055 218.316 23.4983 218.316 23.4983L218.192 23.4154L218.027 23.3326C217.986 23.3326 217.862 23.3326 217.862 23.3326H217.78C215.923 24.3685 214.644 25.6944 214.314 27.1447C214.727 26.7303 215.469 26.3574 216.46 26.0259C216.872 25.1558 217.532 24.4099 218.357 23.7469ZM216.418 29.7966C215.428 29.4651 214.727 29.0922 214.314 28.6778C214.933 31.5369 219.1 33.9402 224.711 34.8103C220.626 33.9816 217.491 32.0756 216.418 29.7966ZM218.275 24.0784L218.357 24.1199C218.357 24.1199 218.44 24.1199 218.44 24.0784C218.399 24.0784 218.357 24.037 218.357 24.037L218.399 23.9955C218.357 23.9955 218.316 24.037 218.275 24.0784ZM223.927 34.1059C223.927 34.1059 224.051 34.1888 224.051 34.2302C224.051 34.2717 224.216 34.3545 224.216 34.3545C224.216 34.3545 224.051 34.3545 223.968 34.3131C223.886 34.2717 223.556 34.0645 223.514 34.0645C223.473 34.023 223.267 33.8159 223.184 33.733C223.143 33.6916 223.143 33.6916 223.143 33.6501C221.823 32.8628 220.791 31.8269 220.131 30.6667C218.77 30.4596 217.573 30.1695 216.625 29.8795C217.903 32.3242 221.493 34.2302 226.072 34.8932C225.371 34.686 224.628 34.396 223.927 34.1059ZM241.997 30.2109C241.997 30.2524 242.038 30.2938 242.079 30.2938C242.162 30.1695 242.244 30.0038 242.327 29.838C242.203 29.8794 242.079 29.9209 241.956 29.9623V30.0038C241.997 30.0866 241.956 30.1281 241.997 30.2109ZM218.316 24.2027L218.234 24.1199C217.573 24.6585 217.078 25.2386 216.707 25.9016C217.078 25.7773 217.45 25.6944 217.862 25.5701C217.821 25.5701 217.821 25.5287 217.821 25.5287L217.78 25.2801V25.1558C217.78 25.1558 217.821 24.9071 217.945 24.8243C218.027 24.7414 218.234 24.5342 218.316 24.4513C218.399 24.3685 218.399 24.2856 218.399 24.2856H218.44L218.316 24.2027ZM218.399 25.8602C218.357 25.8187 218.316 25.8187 218.316 25.8187L218.234 25.9016C218.234 25.943 218.316 26.0673 218.316 26.0673V26.1502L218.399 26.316V26.4403L218.44 26.4817C218.44 26.5231 218.481 26.5231 218.481 26.5646L218.522 26.606H218.44L218.316 26.4817L218.275 26.4403L218.316 26.3574C218.316 26.3574 218.275 26.316 218.275 26.2745C218.275 26.2745 218.234 26.2331 218.192 26.1917C218.151 26.1502 218.068 26.1502 218.068 26.1502L218.151 26.1088V26.0673L218.11 26.0259V25.943L218.027 25.7773V25.7359C217.491 25.8602 216.996 25.9845 216.542 26.1502C216.253 26.7303 216.129 27.3104 216.129 27.932C216.129 28.5121 216.253 29.0922 216.501 29.6308C217.45 29.9623 218.646 30.2109 220.008 30.4596C219.595 29.6723 219.43 28.8435 219.389 27.9734C219.389 27.7248 219.389 27.4762 219.43 27.1861C219.347 27.1447 219.347 27.1447 219.306 27.1447C219.265 27.1447 219.182 27.1032 219.182 27.1032L219.141 27.0618C219.1 27.0618 219.059 27.0618 219.017 27.0204L218.894 26.9789L218.811 26.8961V26.8546L218.894 26.7718L218.852 26.6475C218.852 26.6475 218.687 26.5231 218.687 26.4817C218.646 26.4403 218.646 26.4403 218.605 26.3988C218.605 26.3988 218.522 26.3574 218.522 26.316C218.522 26.2745 218.522 26.316 218.522 26.2745C218.522 26.2331 218.44 26.1502 218.44 26.1502C218.44 26.1502 218.357 26.0259 218.316 25.9845C218.399 25.943 218.44 25.9016 218.399 25.8602ZM219.719 22.4624L220.049 22.3795C220.049 22.3795 220.42 22.2967 220.461 22.2967L220.503 22.3381L220.709 22.2967L220.791 22.2552H220.915C221.039 22.1724 221.204 22.1309 221.328 22.0895C221.286 22.0895 221.245 22.1309 221.163 22.1724C220.998 22.2138 221.204 22.0895 220.998 22.0895C220.956 22.0895 221.08 22.0066 221.204 21.9652C221.328 21.9237 221.286 21.9238 221.534 21.8823C221.782 21.8409 221.782 21.9237 221.782 21.9237H221.823C222.648 21.5923 223.514 21.3436 224.422 21.1365H224.463C224.463 21.1365 224.504 21.1365 224.546 21.095C222.73 21.3851 221.08 21.8409 219.677 22.421H219.719C219.636 22.4624 219.719 22.4624 219.719 22.4624ZM229.043 20.9293C229.043 20.9293 228.754 21.1365 228.713 21.1365C228.671 21.1779 228.63 21.3851 228.63 21.4265C228.63 21.468 228.589 21.5923 228.589 21.5923C228.589 21.5923 228.3 21.7166 228.176 21.758C228.052 21.7994 227.929 21.9237 227.764 22.0066C227.722 22.0481 227.681 22.0481 227.599 22.0481C227.186 22.6696 226.815 23.4983 226.567 24.4928C227.021 24.4928 227.475 24.4513 227.887 24.4513L227.846 24.327H227.929L227.97 24.2442H228.052H228.135H228.217H228.424C228.506 24.2442 228.506 24.2027 228.506 24.2027V24.037L228.465 23.9127L228.382 23.8298L228.217 23.7469V23.7055H228.3L228.341 23.7469L228.465 23.7055L228.424 23.6226H228.547L228.63 23.5812L228.754 23.4983C228.754 23.4983 228.836 23.4569 228.878 23.374C228.919 23.2911 229.084 23.2911 229.084 23.2911L229.208 23.2497L229.166 23.1668L229.125 23.084L229.084 23.0425L229.249 22.9596L229.29 23.084L229.249 23.2083H229.331V22.8353V22.7939L229.166 22.8353C229.166 22.8353 229.043 22.8353 229.001 22.8353C228.96 22.8353 228.919 22.7525 228.919 22.7525C228.919 22.7525 228.919 22.6282 228.919 22.5867C228.878 22.5038 228.96 22.5039 229.001 22.4624C229.084 22.421 229.084 22.421 229.166 22.3795C229.249 22.3381 229.331 22.2552 229.331 22.2138L229.373 22.1724V20.7635C229.29 20.7635 229.249 20.7635 229.166 20.805L229.043 20.9293ZM228.135 23.2083L228.094 23.2497L228.135 23.374V23.4154H228.052L227.97 23.4569H227.887L227.805 23.4154V23.374L227.887 23.3326V23.2911H227.846L227.887 23.2083H227.97V23.1254L228.052 23.084L228.135 23.1254H228.176V23.1668C228.135 23.1254 228.135 23.1668 228.135 23.2083ZM228.713 23.4569L228.63 23.4983L228.713 23.5398V23.5812L228.506 23.6226H228.382H228.3H228.176L228.217 23.5812L228.259 23.5398L228.3 23.4983H228.382L228.424 23.4569H228.341H228.259V23.4154L228.341 23.374V23.3326L228.3 23.2911L228.341 23.2497L228.424 23.2911L228.465 23.2083L228.424 23.1668V23.1254C228.424 23.1254 228.382 23.1668 228.341 23.1254C228.3 23.1254 228.3 23.084 228.3 23.084L228.341 23.0425C228.341 23.0425 228.341 23.0011 228.3 23.0011H228.217L228.259 22.9182L228.217 22.8768V22.7939L228.259 22.7525L228.3 22.7939L228.341 22.711H228.382H228.465V22.7525L228.3 22.8353H228.341H228.424L228.506 22.8768L228.465 22.9596L228.382 23.0011V23.0425H228.465C228.465 23.0425 228.506 23.0425 228.506 23.084C228.506 23.1254 228.506 23.1254 228.547 23.1668C228.589 23.1668 228.589 23.2083 228.589 23.2497L228.63 23.2911L228.671 23.3326V23.374V23.4154L228.713 23.4569L228.754 23.4154L228.795 23.4569H228.713ZM240.966 23.6226H241.048L241.131 23.6641L241.213 23.7055V23.7469V23.7884L241.296 23.8298V23.8712L241.254 23.9127L241.296 23.9541L241.254 23.9955L241.337 24.0784L241.296 24.1199C241.873 24.6585 242.368 25.2386 242.657 25.8602C243.647 26.1916 244.39 26.5646 244.802 26.9789C244.472 25.5701 243.276 24.327 241.502 23.2911C241.461 23.3326 241.419 23.374 241.419 23.374V23.4154L241.337 23.374C241.296 23.3326 241.172 23.374 241.172 23.374V23.4154L241.089 23.374L241.048 23.4154H240.966L241.007 23.4983C240.924 23.5812 240.966 23.6226 240.966 23.6226ZM229.208 24.4099L229.043 24.3685L228.878 24.4099V24.4513C229.043 24.4513 229.208 24.4513 229.414 24.4513V24.327L229.331 24.2856L229.208 24.4099ZM225.412 31.2468C225.371 31.2468 225.288 31.2883 225.288 31.2883C225.247 31.3297 225.041 31.4126 225.041 31.454C224.999 31.4954 225.082 31.6198 225.041 31.6612C225.041 31.7026 224.999 31.7441 224.958 31.7855L224.876 31.8269C224.876 31.8269 224.917 31.8269 224.834 31.8684C224.793 31.9098 224.752 31.9098 224.752 31.9512C224.752 31.9927 224.669 32.117 224.669 32.117C224.669 32.117 224.669 32.1584 224.628 32.1999C224.587 32.2413 224.587 32.2827 224.546 32.3242C224.504 32.3242 224.463 32.3656 224.422 32.3242H224.381C225.082 33.3186 225.99 34.1059 227.062 34.6031C227.227 34.5203 227.392 34.5203 227.557 34.5203C227.64 34.5203 227.722 34.4788 227.805 34.4788C227.145 33.7744 226.608 32.6557 226.278 31.2883C226.031 31.2468 225.701 31.2468 225.412 31.2468ZM228.63 24.7L228.671 24.8243L228.63 24.8657L228.547 24.9486L228.465 25.0314H228.3L228.217 25.1143L228.135 25.0314L228.052 24.9486H227.97L227.887 24.9071V24.8243L227.846 24.7414L227.887 24.5757C227.434 24.5757 226.98 24.6171 226.526 24.6171C226.278 25.6944 226.155 26.7718 226.155 27.8491C226.155 28.3878 226.196 28.885 226.237 29.3822C226.278 29.4237 226.32 29.5065 226.32 29.548C226.32 29.5894 226.32 29.6723 226.278 29.7137C226.32 30.1695 226.402 30.5839 226.526 30.9982C227.475 31.0397 228.465 31.0811 229.455 31.0811V28.3878C229.414 28.3878 229.373 28.222 229.29 28.1806C229.208 28.1391 228.96 28.3049 228.96 28.3049C228.96 28.3049 228.836 28.3878 228.713 28.3878C228.63 28.3878 228.589 28.3878 228.589 28.3878H228.382C228.382 28.3878 228.259 28.4706 228.217 28.4706C228.176 28.4706 228.094 28.4292 228.052 28.3463C228.052 28.3049 227.805 28.1391 227.805 28.1391C227.805 28.1391 227.681 28.0148 227.681 27.9734C227.681 27.932 227.557 27.8077 227.516 27.7662C227.516 27.7248 227.392 27.6833 227.351 27.6419C227.31 27.559 227.31 27.559 227.31 27.4762C227.31 27.3933 227.227 27.3104 227.227 27.3104L227.31 27.1861C227.31 27.1861 227.351 26.9789 227.31 26.8961C227.31 26.8132 227.269 26.8132 227.269 26.7718C227.269 26.7303 227.186 26.6889 227.186 26.5231C227.186 26.3988 227.269 26.316 227.269 26.316C227.269 26.316 227.351 26.1502 227.392 26.1088C227.434 26.0673 227.516 25.8602 227.557 25.8602C227.599 25.8602 227.764 25.8187 227.805 25.653C227.805 25.6115 227.805 25.5701 227.846 25.5701V25.4872V25.4044C227.887 25.3629 227.846 25.3629 227.887 25.3215C227.929 25.2801 227.97 25.2386 228.011 25.2386C228.052 25.2386 228.135 25.1143 228.135 25.1143V25.0314H228.217L228.3 25.0729H228.465L228.589 25.0314L228.671 24.99C228.671 24.99 228.754 24.9486 228.795 24.9071C228.836 24.9071 228.96 24.99 229.125 24.9071C229.29 24.8657 229.249 24.9071 229.249 24.9071L229.373 24.9486V24.5342C229.125 24.5342 228.878 24.5342 228.671 24.5342L228.63 24.7ZM224.339 32.6142C224.339 32.6557 224.298 32.6971 224.257 32.7385C224.174 32.7385 224.092 32.78 224.051 32.78C224.009 32.78 223.927 32.78 223.927 32.78C223.927 32.78 223.927 32.8628 223.927 32.9043C223.927 32.9457 223.968 32.9457 223.968 32.9871C223.927 33.0286 223.886 33.0286 223.886 33.0286L223.762 32.9871C223.762 32.9871 223.721 32.9872 223.721 33.0286C223.721 33.07 223.762 33.1115 223.762 33.1115L223.844 33.1529L223.803 33.1943L223.762 33.2358L223.803 33.3186V33.4015L223.721 33.4429C223.721 33.4844 223.721 33.5672 223.762 33.5672C223.803 33.5672 223.886 33.6087 223.886 33.6087L223.927 33.6916V33.7744C223.927 33.7744 223.886 33.8159 223.886 33.8573C223.886 33.8573 223.886 33.8987 223.886 33.9402C224.793 34.396 225.783 34.7275 226.773 34.9346C226.815 34.8932 226.897 34.8932 226.939 34.8518C225.907 34.2302 225.041 33.5258 224.339 32.6142ZM228.094 34.4374H228.63L229.043 34.6446L229.414 34.686V31.3297C228.424 31.3297 227.475 31.2883 226.526 31.2468C226.856 32.6557 227.434 33.7744 228.094 34.4374ZM216.294 29.5065C216.088 29.0093 215.964 28.4706 215.964 27.932C215.964 27.3519 216.088 26.7718 216.336 26.2331C215.263 26.606 214.52 27.0204 214.232 27.4762C214.232 27.6419 214.19 27.7662 214.19 27.932C214.19 28.0563 214.19 28.1806 214.19 28.2635C214.52 28.7192 215.222 29.1336 216.294 29.5065ZM230.156 30.9153C230.115 30.8739 230.156 30.791 230.156 30.7496C230.156 30.7082 230.156 30.501 230.156 30.4596C230.156 30.3767 230.239 30.2938 230.239 30.2109C230.239 30.1281 230.239 30.0866 230.198 30.0038C230.156 29.9209 230.198 29.9209 230.156 29.7966C230.115 29.7137 229.744 29.1336 229.744 29.1336L229.661 29.0507C229.661 29.0507 229.744 28.9679 229.744 28.9264C229.785 28.885 229.703 28.8435 229.703 28.8021C229.703 28.7607 229.744 28.7192 229.744 28.6778C229.785 28.5949 229.703 28.5535 229.62 28.5121C229.579 28.5121 229.579 28.5121 229.538 28.5121V31.2054C229.785 31.2054 229.991 31.2054 230.239 31.2054C230.28 31.0397 230.198 30.9153 230.156 30.9153ZM229.868 25.4872L229.991 25.5287L230.033 25.653L230.156 25.6944L230.321 25.7773L230.404 25.6944V25.6116L230.445 25.5701L230.61 25.5287L230.775 25.6116L230.899 25.653C230.899 25.653 230.982 25.653 231.023 25.653C231.064 25.653 231.188 25.6944 231.188 25.6944C231.229 25.6944 231.27 25.6944 231.27 25.6944L231.353 25.653L231.477 25.6944H231.6L231.683 25.653L231.724 25.5701L231.765 25.4458L231.807 25.3629V25.2801L231.765 25.2386V25.1972V25.1143L231.724 25.1558L231.642 25.1143L231.559 25.1972C231.559 25.1972 231.477 25.1972 231.435 25.1972C231.394 25.1972 231.394 25.1558 231.394 25.1143C231.394 25.0729 231.27 25.0729 231.27 25.0729L231.229 25.1143H231.147L231.105 25.0729H230.982L230.817 24.9486V24.8243C230.817 24.8243 230.775 24.7828 230.775 24.7414C230.775 24.7 230.734 24.6585 230.734 24.6585H230.652L230.61 24.7H230.528H230.445V24.7828L230.569 24.9071L230.528 24.99V25.1143H230.487L230.404 25.0729L230.321 24.99V24.9486L230.239 24.8657L230.156 24.7V24.6585H229.95C229.991 24.6585 230.074 24.7414 230.074 24.7414V24.7828L230.033 24.7414L229.991 24.7C229.95 24.7 229.95 24.7414 229.95 24.7414V24.7828C229.95 24.7828 229.991 24.7828 229.991 24.8243V24.8657H229.95V24.9071L229.909 24.9486H229.868V24.9071L229.909 24.8657L229.868 24.7414L229.703 24.6171H229.496V25.1972V25.2386V25.3629C229.538 25.4044 229.62 25.4872 229.661 25.4872C229.785 25.4872 229.868 25.4872 229.868 25.4872ZM231.6 25.2386V25.2801L231.559 25.3215H231.518L231.477 25.2801L231.6 25.2386ZM230.693 25.1972L230.858 25.2386L230.899 25.2801H230.94V25.3215H230.817L230.693 25.1972ZM229.991 34.686C230.115 34.6032 230.693 34.396 230.693 34.396C230.693 34.396 230.775 34.396 230.899 34.4374C231.559 33.7744 232.137 32.6557 232.467 31.2468C232.384 31.2468 232.302 31.2468 232.219 31.2468C232.219 31.2883 232.219 31.2883 232.219 31.3297C232.178 31.3711 232.137 31.3711 232.095 31.3711C232.054 31.3711 232.013 31.4955 232.013 31.4955C232.013 31.4955 232.054 31.6198 232.013 31.6612C232.013 31.7026 231.972 31.7441 231.93 31.8269C231.848 31.8684 231.683 32.0756 231.6 32.1999C231.518 32.2827 231.394 32.3656 231.229 32.3656C231.064 32.3656 230.899 32.4899 230.899 32.4899L230.775 32.2827C230.775 32.2827 230.775 32.1584 230.775 32.117C230.775 32.0756 230.652 31.9098 230.61 31.8269C230.569 31.7441 230.445 31.5783 230.445 31.5369C230.404 31.454 230.404 31.3711 230.404 31.2883C230.404 31.2883 230.404 31.2468 230.363 31.2054C230.115 31.2054 229.868 31.2054 229.579 31.2054V34.6031C229.703 34.7689 229.909 34.7689 229.991 34.686ZM230.321 34.1473L230.404 34.2717L230.115 34.396L230.033 34.1888C230.033 34.2302 230.321 34.1473 230.321 34.1473ZM229.868 24.2856C229.868 24.2856 229.744 24.1613 229.744 24.1199C229.744 24.0784 229.661 24.1199 229.661 24.1613V24.2442C229.661 24.2856 229.744 24.327 229.785 24.327C229.826 24.3685 229.826 24.3685 229.826 24.3685L229.868 24.4099H230.115L229.868 24.2856ZM225.907 30.2109L225.866 30.2938C225.866 30.2938 225.866 30.501 225.866 30.5424C225.866 30.5839 225.783 30.9568 225.742 31.0397C225.907 31.0397 226.113 31.0397 226.278 31.0811C226.196 30.7496 226.113 30.3767 226.072 30.0452C226.031 30.0866 225.99 30.1281 225.99 30.1281C225.99 30.1281 225.948 30.2109 225.907 30.2109ZM232.756 21.468L232.838 21.5094H232.797C233.086 21.7166 233.374 21.9237 233.663 22.1724V22.1309C233.663 22.1309 233.704 21.8823 233.663 21.7994C233.663 21.7166 233.787 21.758 233.911 21.7166C233.993 21.7166 234.158 21.6337 234.323 21.6337C233.416 21.2608 232.426 21.0122 231.477 20.8464C231.889 21.0122 232.302 21.1779 232.714 21.4265L232.756 21.468ZM230.156 21.7994H230.693C230.693 21.7994 230.734 21.8823 230.775 21.8823C230.858 21.8823 231.394 22.0895 231.394 22.0895L231.477 22.1309C230.94 21.3022 230.321 20.805 229.62 20.7635V21.9237C229.661 21.8823 229.661 21.8823 229.744 21.8823C229.868 21.8823 230.156 21.7994 230.156 21.7994ZM229.868 23.2497H230.033L230.156 23.2083V23.1254V23.0425L230.239 22.9596H230.28V22.8353H230.652C230.693 22.8353 230.858 22.7525 230.899 22.711C230.982 22.711 230.858 22.5867 230.858 22.5867L230.652 22.6696L230.28 22.7525L230.115 22.6696V22.5867C230.115 22.5867 230.033 22.4624 230.115 22.4624C230.198 22.421 230.28 22.2967 230.28 22.2967L230.115 22.2138L229.991 22.2552L230.033 22.3381L229.95 22.421L229.785 22.5453V22.711L229.95 22.8353L229.826 23.0011L229.661 23.1668H229.538V23.3326L229.62 23.374L229.868 23.2497ZM231.724 22.2138L231.93 22.1724C231.93 22.1724 232.302 22.1724 232.508 22.1309C232.714 22.0895 232.632 22.0066 232.632 22.0066L233.044 22.0481V21.9652C232.879 21.8409 232.714 21.7166 232.549 21.6337L232.343 21.8409L232.426 21.9652L232.302 22.0066L232.054 21.7994L232.302 21.5508H232.384C231.807 21.2193 231.147 21.0122 230.487 20.8878C230.94 21.1365 231.353 21.5923 231.724 22.2138ZM226.031 22.421V22.1724C226.031 22.1309 226.113 22.0066 226.113 22.0066C226.113 22.0066 226.155 21.8823 226.196 21.8823C226.237 21.8823 226.196 21.8409 226.155 21.7994C225.66 22.1309 225.206 22.5867 224.793 23.0425C224.793 23.084 224.793 23.1254 224.752 23.1668C224.711 23.2083 224.876 23.2497 224.876 23.2497C224.917 23.2497 224.917 23.2911 224.958 23.3326L224.793 23.374H224.834H224.958L225.041 23.4154L225.082 23.4569L225.041 23.5398L224.999 23.5812L224.793 23.6641C224.793 23.6641 224.628 23.7469 224.587 23.7469C224.546 23.7469 224.504 23.7884 224.463 23.7884H224.174C224.092 23.9127 224.009 24.0784 223.927 24.2027H224.133L224.298 24.1199L224.339 24.1613L224.174 24.2856L223.968 24.327L223.844 24.4099C223.803 24.4928 223.762 24.6171 223.679 24.7C224.546 24.6171 225.412 24.5757 226.278 24.5342C226.526 23.5812 226.856 22.7525 227.269 22.1309C227.186 22.1309 227.104 22.1309 227.104 22.1309L226.65 22.3795L226.402 22.6696L226.278 22.6282L226.072 22.5867L226.031 22.421ZM225.082 23.9541C225.082 23.9541 225.082 24.037 225.041 24.037C224.999 24.037 224.834 24.037 224.834 24.037L224.793 23.9955H224.587V23.9127L224.752 23.7884L224.876 23.6226L224.999 23.5398L225.041 23.6641L224.958 23.7055H225.082C225.082 23.7055 225.164 23.7055 225.164 23.7469C225.082 23.8298 225.082 23.9541 225.082 23.9541ZM242.244 30.4596C242.286 30.5424 242.368 30.6667 242.409 30.7496C242.451 30.791 242.492 30.7496 242.451 30.8739C242.409 30.9982 242.451 31.0397 242.327 31.1225C242.203 31.2468 241.914 31.5783 241.832 31.7026C241.749 31.8269 241.708 31.8684 241.667 31.8684C241.584 31.8684 241.461 31.9098 241.378 31.9512C241.296 31.9512 241.254 31.9513 241.172 31.9927C241.131 31.9927 241.089 32.0341 241.007 31.9927C240.924 31.9927 240.924 31.9512 240.883 31.9512C239.357 33.2358 237.046 34.2717 234.365 34.8518C236.592 34.4788 238.655 33.8987 240.388 33.07C242.863 31.8684 244.39 30.3353 244.72 28.7192C244.307 29.1336 243.606 29.5065 242.616 29.838C242.533 30.0038 242.368 30.2524 242.244 30.4596ZM241.378 32.2827C241.296 32.3242 241.213 32.407 241.172 32.4485L241.089 32.4899L241.172 32.1999H241.254L241.419 32.1584C241.378 32.1999 241.378 32.2413 241.378 32.2827ZM242.698 26.2331C242.946 26.7718 243.07 27.3519 243.07 27.932C243.07 28.4706 242.946 29.0093 242.74 29.5065C243.812 29.1336 244.514 28.7192 244.802 28.2635C244.802 28.1391 244.844 28.0148 244.844 27.932C244.844 27.7662 244.844 27.6005 244.802 27.4762C244.514 27.0204 243.771 26.606 242.698 26.2331ZM235.272 31.1225C234.447 31.2054 233.581 31.2468 232.714 31.2883C232.384 32.6557 231.807 33.8159 231.147 34.5203C231.394 34.5617 231.683 34.6031 231.807 34.6446C233.292 33.9816 234.53 32.6971 235.272 31.1225ZM223.679 24.8657C223.267 25.7773 223.06 26.8132 223.06 27.8077H223.102C223.143 27.8077 223.267 27.7662 223.267 27.7662C223.267 27.7662 223.308 27.8077 223.39 27.8077C223.432 27.8077 223.473 27.8491 223.514 27.8491V27.8905H223.597C223.597 27.8905 223.597 27.932 223.679 27.9734C223.721 27.9734 223.803 28.0563 223.803 28.0563V28.0977C223.803 28.0977 223.803 28.0563 223.886 28.1391C223.927 28.1806 223.927 28.222 224.009 28.222C224.051 28.222 224.133 28.1806 224.216 28.222C224.298 28.2634 224.463 28.3049 224.463 28.3463C224.504 28.3878 224.546 28.4292 224.546 28.4706C224.546 28.5121 224.587 28.5535 224.587 28.5535L224.669 28.6778C224.669 28.6778 224.669 28.7192 224.669 28.7607C224.669 28.8021 224.711 28.8436 224.711 28.8436C224.752 28.8436 224.834 28.885 224.834 28.885L224.876 28.9679C224.876 28.9679 225.041 28.9679 225.082 28.9679C225.123 29.0093 225.288 29.0507 225.288 29.0922C225.288 29.0922 225.33 29.1336 225.371 29.1336C225.412 29.1336 225.536 29.2165 225.577 29.2165C225.618 29.2165 225.66 29.175 225.701 29.2165C225.742 29.2579 225.783 29.2579 225.825 29.2993C225.866 29.3408 225.907 29.3822 225.99 29.4237C225.948 28.9679 225.907 28.4706 225.907 28.0148C225.907 26.8546 226.031 25.7359 226.278 24.7828C225.371 24.7414 224.504 24.7828 223.679 24.8657ZM238.614 30.7082C237.583 30.8739 236.51 30.9982 235.478 31.0811C234.777 32.6971 233.581 33.9816 232.137 34.686C232.261 34.686 232.384 34.7275 232.508 34.7689C235.272 34.1059 237.5 32.6142 238.614 30.7082ZM240.883 31.6198C240.883 31.6198 240.8 31.6612 240.759 31.6612C240.718 31.6612 240.635 31.7026 240.635 31.6612C240.635 31.6612 240.635 31.5369 240.553 31.4955C240.47 31.454 240.264 31.454 240.264 31.454C240.223 31.454 240.099 31.4955 239.975 31.4955C239.893 31.4955 239.893 31.4955 239.769 31.5783C239.645 31.6612 239.687 31.6612 239.604 31.7026C239.522 31.7026 239.48 31.6612 239.398 31.7026C239.315 31.7441 239.274 31.7441 239.191 31.7855C239.109 31.8269 238.985 31.8684 238.944 31.8269C238.903 31.7855 238.861 31.7441 238.861 31.7441C238.861 31.7441 239.068 31.6198 239.026 31.5369C239.026 31.454 239.026 31.164 239.026 31.1225C239.026 31.0397 238.985 31.0811 239.026 30.9982C239.026 30.9154 239.109 30.7082 239.15 30.6667C239.191 30.6253 239.233 30.6253 239.274 30.5839C239.15 30.6253 239.026 30.6253 238.861 30.6667C237.789 32.6142 235.643 34.1474 232.962 34.8518C236.304 34.3545 239.109 33.2358 240.883 31.7026V31.6198ZM236.18 28.222L236.139 28.1391C236.097 29.0922 235.932 30.0038 235.602 30.8739C236.675 30.791 237.706 30.6253 238.779 30.4596C238.944 30.1281 239.068 29.7966 239.191 29.4651L239.026 29.4237H238.779L238.614 29.3822V29.3408L238.531 29.2993V29.2579H238.655C238.696 29.2579 238.738 29.2993 238.738 29.2993C238.738 29.2993 238.82 29.3408 238.861 29.3408C238.903 29.3408 238.903 29.3408 238.944 29.3408L238.985 29.2993L239.15 29.3408L239.233 29.3822C239.274 29.2579 239.315 29.1336 239.315 29.0093H239.191L239.109 29.0507L239.068 29.0093H238.944L238.903 28.8436L238.82 28.7607V28.6364L238.861 28.5535L238.985 28.5949L239.068 28.4706L239.191 28.4292L239.274 28.3049L239.357 28.2635V28.222C239.357 28.1391 239.357 28.0563 239.357 27.932C239.357 27.4762 239.274 27.0204 239.191 26.5646C239.15 26.606 239.068 26.6475 239.026 26.6475C238.944 26.6475 238.738 26.7303 238.738 26.7303L238.655 26.7718V26.8546H238.614L238.573 26.7303C238.573 26.7303 238.49 26.6889 238.366 26.7718C238.284 26.8132 238.243 26.9789 238.243 26.9789L238.325 27.0618C238.325 27.0618 238.366 27.1032 238.408 27.1447C238.449 27.1861 238.573 27.269 238.573 27.269C238.573 27.269 238.655 27.3933 238.655 27.4347C238.655 27.4762 238.655 27.6419 238.655 27.6419L238.531 27.7248L238.366 27.8905H238.325V27.8077L238.366 27.7662H238.243C238.243 27.7662 238.16 27.7248 238.16 27.6834C238.16 27.6419 238.036 27.559 238.036 27.559H237.995H237.954V27.4762H237.871V27.6005L237.83 27.7662V27.8491H237.871L237.913 27.8905L237.995 28.0148L238.036 28.0563C238.036 28.0563 238.078 28.0563 238.119 28.0977C238.16 28.1391 238.201 28.222 238.243 28.222C238.284 28.222 238.284 28.4292 238.284 28.4292C238.284 28.4706 238.366 28.5121 238.366 28.5121H238.325L238.078 28.3878C238.078 28.3878 237.954 28.1806 237.954 28.0977C237.954 28.0563 237.789 27.8905 237.748 27.8491C237.706 27.8491 237.748 27.6419 237.748 27.559C237.748 27.4762 237.624 27.3104 237.624 27.269C237.624 27.2276 237.5 27.0618 237.5 27.0618C237.5 27.0618 237.5 27.1032 237.5 27.1447C237.5 27.1861 237.417 27.2276 237.417 27.2276L237.335 27.1861C237.335 27.1861 237.335 27.0204 237.335 26.9789C237.294 26.9789 237.252 26.8132 237.17 26.8132C237.087 26.7718 237.046 26.6475 237.046 26.6475C237.046 26.606 236.922 26.5646 236.922 26.5646L236.881 26.606L236.757 26.6475H236.675L236.551 26.6889V26.7718C236.551 26.7718 236.551 26.8132 236.51 26.8132C236.469 26.8546 236.345 26.9789 236.345 26.9789C236.304 27.0204 236.221 27.0618 236.221 27.1447C236.221 27.1861 236.097 27.2276 236.097 27.2276C236.097 27.3933 236.139 27.6005 236.139 27.8077C236.139 27.8077 236.262 27.9734 236.304 27.9734C236.304 28.0148 236.304 28.0148 236.304 28.0563V28.0977L236.18 28.222ZM238.696 27.0618L238.614 27.0204C238.573 27.0204 238.614 26.9375 238.614 26.9375L238.655 26.8546H238.738H238.779L238.738 26.9789L238.696 27.0618ZM237.541 28.222L237.624 28.2635H237.748L237.789 28.3463L237.954 28.4292L238.078 28.5121L238.201 28.5949L238.284 28.6364L238.366 28.6778L238.325 28.7607H238.366L238.449 28.8436L238.573 28.885V29.175H238.49C238.49 29.175 238.325 29.0093 238.284 29.0093C238.243 28.9679 238.201 28.9264 238.16 28.885C238.16 28.8436 238.078 28.8021 238.078 28.8021L237.995 28.7192L237.954 28.5535C237.913 28.5121 237.913 28.5121 237.871 28.4706L237.789 28.3878C237.789 28.3878 237.624 28.222 237.624 28.1806C237.5 28.222 237.541 28.222 237.541 28.222ZM240.842 25.3629L240.883 25.4872C241.419 25.6115 241.873 25.7359 242.286 25.8602C241.791 24.9486 240.965 24.1199 239.852 23.4154H239.81H239.728C239.728 23.4154 239.687 23.4154 239.645 23.4154C239.563 23.4154 239.48 23.374 239.357 23.374C239.274 23.374 239.274 23.374 239.274 23.374L239.191 23.6226L239.109 23.7469H239.15L239.274 23.7884L239.315 23.8712H239.398V23.8298C239.398 23.8298 239.563 23.9127 239.604 23.9127C239.645 23.9127 239.728 23.9541 239.728 23.9541C239.728 23.9541 239.769 23.9955 239.769 24.037L239.852 24.1613C239.893 24.2027 239.975 24.3685 239.975 24.3685V24.4099C239.975 24.4099 239.975 24.4928 240.017 24.4928C240.017 24.4928 239.975 24.5756 239.975 24.6171C239.975 24.6585 239.934 24.7414 239.934 24.7414L239.852 24.8243H239.769L239.728 24.7828L239.687 24.8243C239.687 24.8657 239.604 24.9071 239.604 24.9071L239.687 24.99L239.604 25.0729H239.563L239.604 25.1558C239.604 25.1558 239.728 25.1972 239.769 25.2386C240.058 25.2801 240.305 25.3215 240.553 25.4044L240.635 25.3629L240.677 25.1972L240.594 25.1143V25.0314H240.677L240.718 25.0729L240.842 25.1558L240.8 25.2801L240.842 25.3629ZM240.347 24.4928L240.264 24.3685L240.182 24.2856L240.058 24.1613L239.893 23.9955L239.852 23.9127L240.099 24.0784L240.305 24.2442V24.3685L240.429 24.5342L240.388 24.5757L240.347 24.4928ZM240.8 24.8657L240.759 24.99L240.635 24.9486H240.594V24.99H240.553L240.429 24.9071C240.429 24.9071 240.429 24.8243 240.47 24.8243C240.512 24.8243 240.47 24.7828 240.47 24.7828L240.388 24.6585V24.6171L240.594 24.7414L240.8 24.7828L240.842 24.8657H240.8ZM233.003 24.1613L232.962 24.1199H232.921H232.838H232.756L232.673 24.1613L232.591 24.2442C232.591 24.327 232.632 24.3685 232.632 24.4513C232.714 24.4513 232.797 24.4513 232.879 24.4513L232.797 24.3685V24.327L232.838 24.3685L232.879 24.327L232.838 24.2856L232.879 24.2442H233.044V24.2027L232.962 24.1613C233.003 24.2856 233.003 24.1613 233.003 24.1613ZM239.398 25.1972C239.398 25.1558 239.357 25.1143 239.357 25.1143C239.357 25.1143 239.233 25.1143 239.191 25.1143C239.15 25.1143 239.109 25.1558 239.109 25.1558C239.233 25.1558 239.315 25.1558 239.398 25.1972ZM221.121 22.421H221.369L221.534 22.3795H221.616L221.575 22.421C221.575 22.421 221.575 22.4624 221.616 22.4624C221.658 22.4624 221.699 22.3795 221.699 22.3795V22.3381L221.947 22.2967H222.153H222.194V22.2552C222.194 22.2138 222.029 22.2552 222.029 22.2552C222.029 22.2552 221.575 22.3381 221.534 22.2967C221.493 22.2967 221.451 22.2552 221.451 22.2138C221.493 22.1724 221.616 22.1724 221.616 22.1309C221.616 22.1309 221.616 22.1309 221.575 22.1309C221.451 22.1724 221.328 22.2138 221.204 22.2967H221.286V22.3381L221.121 22.421ZM235.313 21.7166C235.478 21.758 235.685 21.7994 235.52 21.8409C235.396 21.8823 235.685 21.9652 235.685 21.9652L236.139 22.0481C236.139 22.0481 236.51 22.0066 236.634 22.0066C236.757 22.0066 237.046 22.1724 237.046 22.1724L237.5 22.2552H237.748V22.2138C236.345 21.5923 234.695 21.1779 232.879 20.8878C233.581 21.095 234.241 21.3022 234.86 21.5923C235.025 21.7166 235.19 21.7166 235.313 21.7166ZM220.585 25.943C220.544 25.943 220.42 25.943 220.42 25.943C220.42 25.943 220.255 25.9845 220.173 25.9845C220.09 25.9845 220.049 26.0259 219.966 26.1088C219.884 26.316 219.842 26.5231 219.76 26.7718C219.801 26.9375 219.966 27.0204 220.09 27.0204C220.296 26.9789 220.42 26.9375 220.42 26.8961C220.42 26.8546 220.544 26.7718 220.544 26.7718L220.75 26.7303H220.833C220.833 26.7303 220.874 26.7718 220.833 26.8132C220.791 26.8961 220.668 26.9789 220.668 26.9789C220.668 26.9789 220.585 27.0618 220.585 27.1032C220.585 27.1447 220.503 27.1861 220.461 27.2276C220.42 27.269 220.626 27.269 220.626 27.269L220.915 27.2276L221.08 27.269C221.08 27.3104 220.998 27.559 220.998 27.6419C220.998 27.7248 221.121 27.8077 221.204 27.8491C221.204 27.8491 221.245 27.8905 221.328 27.8491C221.41 27.8077 221.534 27.8077 221.534 27.8077L221.658 27.8491L221.74 27.9734L221.782 27.8905L221.864 27.8491L221.905 27.8077C221.905 27.8077 221.864 27.7662 221.947 27.7248C222.029 27.6833 221.947 27.6834 222.029 27.6834C222.112 27.6834 222.112 27.6833 222.194 27.6419C222.277 27.6005 222.318 27.6005 222.318 27.6005L222.359 27.6419L222.318 27.7248V27.7662C222.318 27.8077 222.277 27.8491 222.318 27.8491H222.4L222.359 27.7662V27.7248L222.565 27.6419L222.689 27.6834V27.7248C222.689 27.7248 222.689 27.7248 222.813 27.7248C222.813 27.4762 222.813 27.2276 222.854 26.9789V26.9375C222.937 26.1916 223.102 25.4872 223.39 24.8657C223.102 24.9071 222.813 24.9071 222.565 24.9486C222.565 24.9486 222.565 24.99 222.524 24.99C222.483 25.0315 222.442 25.0729 222.359 25.1143V25.1972L222.07 25.4044C221.988 25.4458 221.905 25.4458 221.864 25.4872C221.823 25.4872 221.699 25.6115 221.699 25.653C221.658 25.6944 221.658 25.9016 221.658 25.9016C221.658 25.943 221.699 26.0259 221.699 26.0673C221.699 26.1088 221.74 26.1088 221.699 26.1502C221.658 26.1917 221.616 26.2331 221.575 26.2331H221.534C221.534 26.2331 221.493 26.1088 221.493 26.0673C221.493 26.0259 221.451 25.9845 221.451 25.9845V25.9016L221.41 25.8602C221.41 25.8602 221.328 25.8187 221.286 25.8187C221.245 25.8602 221.204 25.8602 221.204 25.8602C221.204 25.8602 221.121 25.7773 221.039 25.7773C220.956 25.7773 220.75 25.6944 220.75 25.7773C220.75 25.8602 220.874 25.8602 220.75 25.8602C220.626 25.943 220.626 25.943 220.585 25.943ZM221.947 27.0618H221.823L221.782 27.0204V26.9789L221.947 27.0618ZM222.318 26.8961V26.8546L222.442 26.8961L222.565 26.8546C222.565 26.8546 222.648 26.8961 222.648 26.9375L222.772 26.9789V27.0204H222.648L222.565 27.0618H222.524L222.442 27.1447L222.4 27.1032H222.153V26.9789H222.277L222.318 26.8961ZM221.369 26.5231H221.534H221.616L221.699 26.5646L221.823 26.606L221.947 26.6475L222.029 26.6889L222.153 26.7303V26.7718L222.112 26.8132H221.988H221.823H221.782L221.864 26.7718H221.823L221.74 26.7303L221.699 26.6475H221.616L221.493 26.606L221.41 26.5646L221.369 26.5231L221.286 26.5646L221.163 26.606H221.121L221.369 26.5231ZM240.182 23.374C240.347 23.4983 240.512 23.5812 240.635 23.7055L240.594 23.6641V23.5812C240.594 23.5812 240.677 23.5812 240.677 23.5398C240.677 23.4983 240.677 23.4569 240.677 23.4154C240.677 23.374 240.677 23.3326 240.677 23.3326L240.718 23.2911V23.2497L240.635 23.2083V23.1668H240.553L240.594 23.2083H240.553L240.512 23.2911L240.429 23.2497C240.429 23.2083 240.388 23.2083 240.264 23.2083C240.099 23.2497 240.182 23.374 240.182 23.374ZM235.025 26.5646C235.025 26.5646 234.942 26.606 234.942 26.5646C234.942 26.5231 234.818 26.4817 234.818 26.4817L234.695 26.316H234.612L234.323 26.3574C234.2 26.316 234.117 26.316 233.993 26.2745C233.869 26.2745 233.911 26.2331 233.869 26.1917C233.869 26.1502 233.828 26.1088 233.787 26.1088C233.704 26.1088 233.663 26.1502 233.663 26.1502C233.622 26.1502 233.498 26.0673 233.457 26.0673C233.416 26.0673 233.333 26.0259 233.292 25.9845C233.251 25.943 233.168 25.7773 233.127 25.7773C233.086 25.7773 233.003 25.7773 232.962 25.7773C232.921 25.8187 232.962 25.8602 233.003 25.9016C233.044 25.943 233.086 26.0259 233.127 26.0673C233.168 26.1088 233.168 26.1502 233.168 26.1917C233.168 26.2331 233.209 26.2745 233.209 26.2745H233.251V26.1917L233.292 26.1502L233.333 26.1917L233.374 26.316L233.416 26.3574C233.457 26.3574 233.457 26.3574 233.498 26.3574C233.539 26.3574 233.581 26.3574 233.581 26.316C233.622 26.2745 233.746 26.1502 233.746 26.1502C233.746 26.1502 233.746 26.1916 233.746 26.2745C233.746 26.3574 233.869 26.3988 233.911 26.3988C233.952 26.3988 233.952 26.3988 233.993 26.4403C234.035 26.4403 234.035 26.4817 234.076 26.5231C234.076 26.5646 234.117 26.5646 234.117 26.5646C234.117 26.5646 234.117 26.6474 234.035 26.7303C233.952 26.8132 233.993 26.8961 233.993 26.8961C233.993 26.8961 233.952 26.8961 233.911 26.9375C233.911 26.9789 233.911 26.9789 233.869 26.9789C233.828 26.9789 233.787 27.0204 233.746 27.0618C233.704 27.1032 233.663 27.1032 233.581 27.1032C233.498 27.1447 233.539 27.2276 233.539 27.2276C233.416 27.269 233.251 27.3519 233.086 27.3933C233.086 27.4762 233.086 27.559 233.086 27.6419C233.127 27.6419 233.127 27.6419 233.168 27.6419C233.209 27.6419 233.209 27.6419 233.251 27.6419C233.292 27.6419 233.292 27.6419 233.333 27.6419L233.457 27.559H233.498C233.498 27.559 233.539 27.7248 233.457 27.8077C233.416 27.8905 233.416 28.0977 233.333 28.222C233.251 28.3049 233.168 28.4292 233.127 28.5121L233.086 28.5535C233.044 29.3822 232.962 30.2109 232.756 30.9982C233.622 30.9568 234.488 30.9153 235.355 30.8325C235.726 29.9209 235.932 28.9679 235.932 27.932H235.891C235.891 27.932 235.809 27.8491 235.767 27.7662C235.726 27.6833 235.685 27.6419 235.602 27.4762C235.52 27.3104 235.437 27.2275 235.437 27.1447L235.313 26.8132C235.313 26.8132 235.313 26.7718 235.313 26.7303C235.313 26.6889 235.313 26.6889 235.313 26.6889L235.272 26.6475L235.231 26.7303C235.231 26.7303 235.148 26.7718 235.107 26.7718C235.066 26.7718 234.942 26.606 234.942 26.606C234.942 26.606 234.983 26.606 235.025 26.5646ZM238.944 24.99L238.903 25.1143C238.944 25.1143 238.985 25.1143 239.026 25.1558V25.1143V25.0314L238.944 24.99ZM238.779 22.3795C239.068 22.421 238.944 22.3795 239.274 22.5039C239.398 22.5453 239.687 22.5867 239.975 22.6282C238.366 21.9237 236.469 21.3851 234.365 21.0536C235.809 21.3437 237.129 21.7994 238.284 22.3381C238.408 22.3381 238.614 22.3795 238.779 22.3795ZM232.549 31.0811C232.714 30.3767 232.838 29.6308 232.879 28.8021C232.838 28.8435 232.797 28.885 232.756 28.9264C232.632 29.0922 232.508 29.4651 232.508 29.4651L232.591 29.548C232.591 29.548 232.632 29.6308 232.632 29.6723C232.632 29.7137 232.632 29.838 232.632 29.838C232.632 29.838 232.714 29.8795 232.714 29.9623C232.714 30.0038 232.714 30.0038 232.714 30.1281C232.714 30.2524 232.714 30.2524 232.714 30.3767C232.714 30.501 232.508 30.6253 232.426 30.6667C232.343 30.7082 232.343 30.7496 232.302 30.791C232.261 30.8325 232.219 30.9153 232.219 30.9153C232.219 30.9153 232.261 30.9568 232.261 31.0811C232.343 31.0811 232.426 31.0811 232.549 31.0811ZM223.721 21.5508C223.803 21.5094 223.638 21.5094 223.638 21.5094L223.39 21.5923H223.349C222.895 21.7166 222.483 21.8409 222.07 22.0066C222.112 22.0066 222.112 22.0066 222.112 22.0066C222.112 22.0066 222.194 21.9652 222.277 21.9237C222.318 21.9237 222.442 21.9237 222.442 21.9237L222.318 22.0481L222.4 22.0895L222.318 22.3381H222.4C222.4 22.3381 222.565 22.2967 222.565 22.3381C222.565 22.3795 222.565 22.2552 222.565 22.2552L222.772 22.2138H222.854L222.978 22.1309L222.937 22.0895L222.854 22.0481L223.019 21.9652L223.143 21.8409L223.267 21.7166L223.432 21.6751V21.7166L223.225 21.8409L223.143 21.9237L223.102 21.9652L223.184 22.0481C223.184 22.0481 223.225 22.0066 223.267 22.0066H223.308C223.39 21.9652 223.473 21.9238 223.556 21.8823C223.308 21.8823 223.514 21.7994 223.514 21.7994L223.679 21.6751L223.886 21.5508L224.216 21.5094L224.381 21.4265L223.803 21.468C223.844 21.6337 223.679 21.5923 223.721 21.5508ZM222.813 21.9652L222.689 21.8409L222.937 21.758L223.019 21.7994L222.813 21.9652ZM221.905 15.6669C221.864 15.6669 221.864 15.7084 221.864 15.7498C221.864 15.7912 221.947 15.7912 221.988 15.7912C222.029 15.7498 222.112 15.6669 222.153 15.6255C222.112 15.6255 221.947 15.6669 221.905 15.6669Z" fill="#6B7280"/>
<path d="M247.938 1.74436C247.897 1.74436 247.856 1.70293 247.773 1.74436C247.608 1.82723 247.03 2.28303 246.824 2.40733C246.824 2.3659 246.824 2.3659 246.865 2.32446L246.907 2.24159C247.03 1.95154 247.443 1.16426 247.443 0.667025C247.443 0.542717 247.443 0.459846 247.402 0.376974C247.402 0.376974 247.402 0.294104 247.319 0.294104C247.237 0.252668 247.154 0.294099 247.03 0.418407C246.824 0.625586 245.504 1.86866 245.463 1.86866L245.422 1.9101C245.422 1.9101 245.422 1.86867 245.422 1.82723L245.504 1.53718C245.545 1.33 245.628 1.08139 245.628 0.915643C245.628 0.832771 245.628 0.749899 245.587 0.708463C245.587 0.667027 245.545 0.625586 245.504 0.625586C245.422 0.625586 245.339 0.667023 245.298 0.749895C245.174 0.957075 243.441 2.78026 243.111 3.02887C243.07 3.07031 243.07 3.07031 243.07 3.07031C243.07 2.98744 243.152 2.86313 243.235 2.65595C243.276 2.53164 243.648 1.70293 243.648 1.33C243.648 1.28857 243.647 1.24713 243.606 1.20569C243.606 1.16426 243.524 1.12282 243.482 1.12282C243.235 1.12282 242.74 1.66149 241.543 3.02887C241.543 3.02887 240.595 4.10621 240.553 4.14764C240.553 4.10621 240.553 4.06478 240.553 4.02334C240.553 3.81616 240.512 3.4018 240.388 3.19462C240.306 3.11175 240.265 3.07031 240.182 3.07031C240.058 3.07031 239.976 3.19462 239.811 3.5261C239.646 3.89903 238.326 5.26641 236.84 6.42662L236.799 6.46806C235.438 7.54539 234.53 8.24981 233.499 9.82437C232.673 11.026 231.271 11.6476 230.239 12.1448C229.951 12.2691 229.662 12.3934 229.414 12.5177C229.332 12.5177 228.342 12.3934 227.228 12.4348C227.145 11.979 226.856 10.6945 225.371 9.78293C223.886 8.82991 221.699 7.42109 220.173 6.09514C219.224 5.26642 218.605 4.47913 218.234 3.9819C217.986 3.69185 217.904 3.56754 217.863 3.56754C217.78 3.5261 217.698 3.56754 217.656 3.60898C217.615 3.65042 217.615 3.69185 217.615 3.81616C217.615 3.94047 217.656 4.14764 217.78 4.47913L217.698 4.4377C217.491 4.31339 216.955 4.06477 216.336 3.19462C215.717 2.32447 215.263 1.08138 215.263 1.08138C215.263 1.03995 215.222 0.998514 215.181 0.998514C215.098 0.998514 215.057 1.08138 215.057 1.16425C215.016 1.33 214.975 1.53718 214.975 1.86866C214.975 2.15872 215.016 2.57308 215.14 3.11174C215.057 3.07031 214.232 2.28303 213.407 0.915643C213.366 0.874207 213.283 0.749898 213.159 0.791334C213.118 0.791334 213.077 0.832768 213.077 0.874204C213.077 0.91564 213.036 0.957074 213.036 1.03995C213.036 1.37143 213.283 2.03441 213.696 2.90456C213.159 2.40733 212.706 1.86867 212.252 1.28856C212.211 1.24713 212.087 1.03995 211.963 1.03995C211.922 1.03995 211.88 1.03995 211.839 1.08138C211.798 1.12282 211.798 1.16425 211.798 1.24713C211.798 1.53718 211.963 2.11728 212.334 2.90456C212.046 2.69738 211.798 2.4902 211.509 2.28302C211.509 2.28302 211.385 2.20016 211.303 2.24159C211.262 2.28303 211.22 2.3659 211.22 2.4902C211.22 2.73882 211.427 3.19462 211.509 3.36036C211.468 3.36036 211.427 3.31892 211.427 3.31892C211.344 3.27749 211.179 3.19462 211.097 3.19462C211.055 3.19462 211.014 3.19462 210.973 3.23605C210.973 3.27749 210.973 3.27749 210.973 3.31892C210.973 3.48467 211.097 3.73329 211.179 3.89903C211.303 4.10621 211.88 4.64488 212.087 4.85206C211.88 4.76919 211.468 4.68631 211.427 4.64488C211.427 4.64488 211.262 4.60344 211.179 4.68631C211.138 4.72775 211.138 4.72775 211.138 4.76918C211.138 4.76918 211.138 4.81062 211.138 4.85206C211.22 5.05924 211.922 5.5979 213.242 6.34375C212.994 6.30231 212.871 6.34375 212.829 6.38519L212.788 6.42662C212.788 6.46806 212.788 6.46806 212.788 6.46806C212.871 6.67524 213.654 7.0896 214.315 7.29678C214.315 7.29678 214.273 7.29678 214.232 7.29678C214.067 7.29678 213.985 7.29678 213.943 7.33821V7.37965V7.42109C213.985 7.54539 214.026 7.71113 215.511 8.29124C215.305 8.29124 215.181 8.29124 215.14 8.37411V8.41555V8.45698C215.222 8.62273 215.924 9.07852 217.285 9.49288C217.161 9.53432 217.079 9.53432 217.037 9.57575V9.61719C217.12 9.90724 218.481 10.4045 219.719 10.7774C219.595 10.7774 219.513 10.8188 219.472 10.8603C219.43 10.8603 219.43 10.9017 219.43 10.9431C219.43 11.0674 219.802 11.4818 222.648 12.2277C222.69 12.2277 222.69 12.2277 222.731 12.2277H222.689C222.648 12.2691 222.566 12.2691 222.566 12.352C222.566 12.4348 222.648 12.5177 222.855 12.642C223.267 12.8906 223.968 13.1392 224.175 13.2221C223.308 13.6779 222.442 14.1751 221.617 14.7138L221.576 14.7552V14.7967C221.576 14.8796 221.534 15.211 221.204 15.3768C220.998 15.5011 220.709 15.7083 220.627 16.1226C220.627 16.1641 220.627 16.2055 220.627 16.2469C220.627 16.5784 220.833 16.9928 221.246 17.4071C221.328 17.49 221.411 17.49 221.411 17.4486C221.452 17.4071 221.452 17.3243 221.452 17.2828C221.452 17.2828 221.369 17.0757 221.452 16.9513C221.493 16.8685 221.534 16.827 221.617 16.827C221.864 16.7442 222.112 16.827 222.236 16.8685L222.359 16.9099C222.524 16.9514 222.855 16.9513 223.102 16.7856C223.308 16.6613 223.968 16.7027 224.34 16.7442H224.464H224.587C224.505 16.8685 224.381 16.9928 224.299 17.0757L224.092 17.2414C223.886 17.4071 223.762 17.49 223.597 17.6972C223.556 17.6972 222.442 17.9044 222.442 17.9044C222.442 17.9044 222.401 17.9044 222.401 17.9458C222.401 17.9458 222.112 18.4845 221.699 18.8574C221.287 19.2303 220.833 19.3961 220.833 19.3961C220.833 19.3961 220.668 19.6447 220.627 20.1834C220.627 20.2248 220.627 20.2662 220.627 20.3491C220.627 20.3905 220.627 20.3905 220.627 20.432V20.4734C220.627 20.4734 220.709 20.5977 220.792 20.6392C220.833 20.6392 220.957 20.7635 221.122 20.8463C221.122 20.8463 221.246 20.8878 221.369 20.9292H221.411C220.214 21.2607 219.1 21.675 218.069 22.1723C214.892 23.7054 213.118 25.7772 213.118 28.0562C213.118 30.3352 214.851 32.407 218.069 33.9401C221.081 35.3903 225.082 36.1776 229.332 36.1776C233.581 36.1776 237.583 35.3903 240.595 33.9401C243.771 32.407 245.545 30.3352 245.545 28.0562C245.545 25.7772 243.813 23.7054 240.595 22.1723C238.697 21.2607 236.428 20.5977 233.952 20.2662C233.952 20.2662 233.952 20.2662 233.994 20.2662C234.117 20.2248 234.159 20.1419 234.2 20.0176C234.365 20.1005 234.777 20.3077 235.108 20.2248C235.561 20.1005 235.685 19.7276 235.685 19.6447C235.685 19.6032 235.726 19.6033 235.768 19.6033L235.85 19.6447C235.974 19.6861 236.221 19.769 236.469 19.6861C236.634 19.6033 236.758 19.4375 236.799 19.3546C236.84 19.2718 236.882 19.2303 236.923 19.2303C236.964 19.1889 237.005 19.1889 237.088 19.1889C237.212 19.1475 237.418 19.1475 237.5 19.0231C237.5 19.0231 237.583 18.8574 237.583 18.7331C237.583 18.6917 237.583 18.5674 237.665 18.5259C237.665 18.5259 238.325 18.2773 238.449 17.8215C238.449 17.8215 238.491 17.6972 238.449 17.5729C238.408 17.4486 238.284 17.4071 238.119 17.3657L232.962 15.9983C232.962 15.9983 232.797 15.9154 232.632 15.7083C233.086 15.7083 234.777 15.7083 235.85 15.3768C235.891 15.3768 235.974 15.2939 235.974 15.2525C235.974 15.211 235.933 15.1696 235.891 15.1282C235.809 15.0867 235.768 15.0453 235.726 15.0453H235.768C235.974 15.0039 237.418 14.6724 237.748 14.5066C237.913 14.4238 237.954 14.3409 237.954 14.2994C237.954 14.2166 237.83 14.1751 237.748 14.1751C237.707 14.1751 237.583 14.1751 237.5 14.1337C237.542 14.1337 237.624 14.0923 237.624 14.0923C238.037 14.0094 239.151 13.7608 239.811 13.4707C239.852 13.4293 239.976 13.3879 239.976 13.305C239.976 13.2636 239.976 13.2221 239.893 13.1807C239.769 13.0978 239.192 13.0978 239.109 13.0978C239.109 13.0978 239.151 13.0978 239.151 13.0564C239.192 13.0564 239.357 12.9735 239.522 12.9321C240.265 12.6835 241.626 12.2277 241.997 11.7304C242.039 11.689 242.039 11.6475 242.039 11.6061C242.039 11.5647 241.997 11.5232 241.915 11.4818C241.75 11.4818 241.585 11.4818 241.42 11.4818L241.461 11.4404L241.585 11.3989C242.039 11.1918 243.4 10.4873 244.101 9.8658C244.143 9.82437 244.225 9.70006 244.225 9.61719L244.184 9.53432C244.184 9.53432 244.101 9.45144 243.895 9.45144H243.854C243.854 9.45144 243.895 9.41001 243.936 9.41001L244.019 9.36857C244.926 8.91278 245.545 8.45698 245.875 8.08406C245.875 8.08406 245.917 8.00119 245.917 7.95975C245.917 7.91832 245.917 7.91832 245.917 7.91832C245.917 7.87688 245.875 7.83544 245.793 7.83544C245.628 7.83544 245.215 7.87688 245.133 7.91832C245.133 7.91832 245.133 7.87688 245.215 7.83544L245.339 7.75257C245.669 7.54539 246.37 7.04816 246.742 6.42662C246.742 6.38518 246.742 6.26088 246.659 6.21944C246.618 6.21944 246.577 6.178 246.535 6.21944L246.164 6.30232C246.164 6.30232 246.164 6.30231 246.205 6.26088C246.205 6.26088 247.402 5.0178 247.649 4.31339C247.732 4.10621 247.773 3.9819 247.773 3.89903C247.773 3.85759 247.773 3.81616 247.732 3.81616C247.691 3.77472 247.567 3.81616 247.484 3.89903L247.443 3.94046L246.618 4.4377C246.618 4.4377 246.659 4.39626 246.7 4.35482L246.865 4.14764C247.196 3.73328 247.856 2.98744 247.938 2.3659V2.32446C248.021 1.86867 248.021 1.7858 247.938 1.74436ZM241.502 4.64488C242.492 3.94047 243.73 2.98744 244.803 1.86866C244.803 1.9101 244.803 1.95154 244.72 2.03441C244.514 2.3659 243.235 3.60898 241.42 4.85206C241.502 4.81062 241.502 4.72775 241.502 4.64488ZM246.205 1.78579H246.247L246.288 1.82723C246.288 1.86867 246.247 2.03441 246.04 2.28302C245.793 2.57308 243.524 4.72775 240.842 6.21944C240.966 6.0537 241.048 5.88795 241.131 5.72221C242.492 4.89349 244.225 3.65041 246.205 1.78579ZM241.131 4.93493C241.131 4.97636 241.048 5.10067 240.718 5.39072C240.347 5.63934 239.976 5.84652 239.563 6.0537C239.604 5.97083 239.646 5.92939 239.687 5.84652C239.728 5.80508 240.306 5.4736 241.131 4.93493ZM238.862 10.1973C238.119 10.4459 237.377 10.6945 236.634 10.8603H236.593V10.8188L236.923 10.2802C236.923 10.2802 236.923 10.2387 236.964 10.2387C237.789 10.0316 238.573 9.82437 239.357 9.53432C239.357 9.53432 239.357 9.53432 239.357 9.57575V9.61719C239.357 9.65863 239.357 9.65863 239.357 9.70006C239.233 9.90724 239.068 10.073 238.862 10.1973ZM238.862 10.7774C238.862 10.8188 238.821 10.8188 238.821 10.8603C238.738 10.9846 238.532 11.1503 238.119 11.3161C237.377 11.5647 236.593 11.8133 235.809 11.979C235.768 11.979 235.768 11.979 235.768 11.9376V11.8962L236.098 11.4818C236.098 11.4818 236.098 11.4818 236.139 11.4818C236.469 11.3989 237.459 11.1918 238.821 10.736C238.862 10.6945 238.862 10.736 238.862 10.7774ZM239.233 8.99565C238.614 9.24427 237.954 9.41001 237.377 9.57575C237.335 9.57575 237.335 9.57575 237.335 9.57575V9.53432L237.583 8.99565L237.624 8.95421C237.995 8.87134 238.697 8.66416 239.646 8.33267C239.687 8.33267 239.687 8.37411 239.687 8.37411C239.687 8.41555 239.687 8.45698 239.687 8.49842C239.604 8.62272 239.481 8.82991 239.233 8.99565ZM239.563 7.75257C239.027 7.95975 238.491 8.12549 237.954 8.29124H237.913V8.2498L238.078 7.87688C238.078 7.87688 238.078 7.83544 238.119 7.83544C238.656 7.71114 239.192 7.50396 239.728 7.29678C239.728 7.29678 239.769 7.29678 239.769 7.33821V7.42109C239.728 7.50396 239.687 7.6697 239.563 7.75257ZM238.738 7.21391C238.697 7.21391 238.697 7.21391 238.656 7.21391C238.656 7.21391 238.656 7.17247 238.656 7.13103L238.862 6.88242C239.439 6.6338 240.017 6.38519 240.553 6.0537C240.388 6.30231 240.141 6.55093 239.893 6.71668C239.522 6.88242 239.151 7.04816 238.738 7.21391ZM218.275 4.60344C218.316 4.64488 218.44 4.85206 218.44 4.85206C218.853 5.51503 219.843 6.75811 221.452 7.79401C223.061 8.82991 223.35 8.87134 224.959 10.1144C226.568 11.3575 226.444 12.1448 226.444 12.2691C226.444 12.3934 226.32 12.3934 226.32 12.3934C225.99 12.4763 225.247 12.7249 225.124 12.8078C225 12.8906 225.041 12.7249 225.041 12.7249C225.247 12.4348 225.289 12.0619 225.289 12.0619C225.33 10.5288 222.813 9.70006 220.627 7.87688C218.399 6.0537 218.316 5.22498 218.234 4.93493C218.151 4.60344 218.234 4.562 218.275 4.60344ZM218.564 7.83544C219.1 7.91832 219.595 8.00118 220.132 8.08406H220.173L220.627 8.37411V8.41555C220.627 8.41555 220.627 8.45698 220.585 8.41555L220.338 8.37411C220.049 8.33268 219.76 8.29124 219.43 8.2498C218.935 8.1255 218.564 7.95975 218.523 7.87688C218.564 7.87688 218.564 7.87688 218.564 7.83544ZM217.904 7.21391C217.863 7.17247 217.863 7.13103 217.863 7.13103L218.358 7.25534L219.265 7.42109L219.719 7.71114C219.719 7.71114 219.76 7.75257 219.719 7.75257L219.678 7.79401C219.43 7.75257 219.142 7.71114 218.894 7.62827C218.358 7.42109 217.945 7.29678 217.904 7.21391ZM219.595 8.78847C219.967 8.87135 220.338 8.91278 220.751 8.95421L221.493 9.03708L221.947 9.2857C221.947 9.2857 221.988 9.32714 221.947 9.32714L221.906 9.36857L220.957 9.24426C220.792 9.24426 220.627 9.20283 220.462 9.16139C219.802 9.03709 219.595 8.82991 219.595 8.78847ZM220.792 9.65862C220.957 9.70006 221.081 9.70006 221.204 9.70006C221.617 9.7415 222.029 9.78294 222.442 9.82437L222.607 9.94868C222.607 9.94868 222.648 9.99011 222.607 9.99011L222.566 10.0316H222.524C222.359 9.99012 222.112 9.99011 221.864 9.99011C221.287 9.94868 220.792 9.78293 220.751 9.7415C220.751 9.70006 220.792 9.65862 220.792 9.65862ZM218.069 6.5095H218.11L218.193 6.55093L218.646 6.88242C218.646 6.88242 218.688 6.92386 218.646 6.92386L218.605 6.96529L218.193 6.84098C218.11 6.84098 218.028 6.79954 217.945 6.75811C217.45 6.59236 217.368 6.46806 217.326 6.38519C217.326 6.38519 217.326 6.34375 217.285 6.34375C217.285 6.34375 217.285 6.34375 217.285 6.30232C217.574 6.38519 217.821 6.46806 218.069 6.5095ZM217.698 5.97083C217.698 5.97083 217.656 6.01226 217.656 5.97083C217.368 5.88796 217.079 5.80508 216.79 5.72221C216.542 5.5979 216.295 5.43216 216.089 5.26642C216.047 5.22498 216.047 5.22498 216.047 5.22498C216.419 5.34929 216.872 5.51503 217.326 5.63934L217.698 5.88796C217.698 5.92939 217.698 5.97083 217.698 5.97083ZM215.428 2.44877C216.254 3.9819 217.161 4.47913 217.244 4.52057C217.45 4.64488 217.574 5.0178 217.656 5.18354V5.22498C217.574 5.18354 216.212 4.35482 215.841 3.56754C215.511 2.98744 215.428 2.61452 215.428 2.44877ZM215.263 4.18908C215.635 4.39626 216.006 4.60344 216.419 4.76918L216.749 5.05924V5.10067C216.749 5.10067 216.707 5.14211 216.707 5.10067L216.377 4.97636C216.377 4.97636 216.336 4.93493 216.171 4.89349C216.006 4.81062 215.882 4.72775 215.717 4.68631C215.47 4.52057 215.346 4.43769 215.305 4.35482C215.305 4.31339 215.263 4.31339 215.263 4.27195C215.263 4.23052 215.263 4.23052 215.263 4.18908ZM212.541 2.03441H212.582C212.664 2.15872 212.912 2.49021 213.448 2.98744L213.489 3.02887C213.654 3.19462 213.861 3.31893 214.067 3.48467C214.315 3.65041 214.521 3.81615 214.768 3.94046C214.81 4.02333 214.81 4.10621 214.851 4.18908C214.521 3.9819 214.191 3.77472 213.902 3.5261C213.572 3.27749 213.283 2.98744 212.994 2.69738L212.706 2.40733L212.623 2.28302C212.582 2.24159 212.499 2.15872 212.499 2.07584L212.541 2.03441ZM212.293 3.27749C212.293 3.23605 212.293 3.23605 212.293 3.23605H212.334C212.376 3.27749 212.541 3.4018 212.747 3.60898C213.159 3.89903 213.943 4.39626 215.263 4.97636C215.346 5.10067 215.428 5.18354 215.552 5.30785C214.603 4.89349 213.489 4.35482 212.623 3.65041L212.417 3.48467C212.376 3.4018 212.334 3.31893 212.293 3.27749ZM212.623 4.4377L212.499 4.35482V4.31339V4.27195C212.499 4.27195 212.541 4.23052 212.541 4.27195C212.747 4.4377 213.489 4.93493 214.892 5.4736C215.222 5.59791 215.594 5.76365 215.924 5.88796C216.171 5.97083 216.46 6.0537 216.707 6.17801C216.79 6.21944 216.872 6.26088 216.914 6.34375V6.38519V6.42662C216.914 6.46806 216.914 6.5095 216.914 6.5095C216.501 6.38519 216.089 6.26088 215.717 6.09514C214.48 5.63934 213.531 5.14211 212.788 4.60344C212.829 4.562 212.623 4.4377 212.623 4.4377ZM213.201 5.55647C213.201 5.55647 213.077 5.4736 213.036 5.4736C213.036 5.4736 213.036 5.47359 213.036 5.43216V5.39072C213.036 5.39072 213.077 5.34928 213.077 5.39072L213.324 5.51503C213.737 5.72221 214.191 5.92939 214.645 6.09514C215.387 6.38519 216.254 6.67524 217.12 6.92386L217.285 6.96529C217.326 7.00672 217.45 7.0896 217.45 7.17247C217.45 7.2139 217.45 7.21391 217.45 7.21391C217.409 7.21391 217.368 7.2139 217.202 7.17247L216.749 7.04816L215.965 6.79955H215.924L215.635 6.71668L215.222 6.59237C214.48 6.26088 213.737 5.92939 213.201 5.55647ZM214.81 7.00673C214.81 7.00673 214.727 6.96529 214.397 6.79955L214.273 6.75811V6.71668C214.273 6.67524 214.315 6.67524 214.315 6.67524C214.768 6.84098 215.263 7.00672 215.759 7.17247C216.46 7.37965 217.161 7.54539 217.904 7.71114C217.986 7.75257 218.151 7.91832 218.193 7.95975C218.234 8.00119 218.193 8.00119 218.193 8.04262C217.78 7.95975 217.326 7.83544 216.914 7.71114C216.501 7.58683 216.089 7.46252 215.676 7.29678C215.346 7.25534 215.098 7.13103 214.81 7.00673ZM216.047 7.95975C216.006 7.91832 216.006 7.95975 216.047 7.95975L216.006 7.91832C216.006 7.87688 216.047 7.87688 216.047 7.87688C216.419 8.00118 217.45 8.37411 218.976 8.66416C219.059 8.7056 219.307 8.91278 219.348 8.95421C219.348 8.95421 219.389 8.99565 219.348 8.99565C219.307 8.99565 219.307 8.99565 219.265 8.95421C218.028 8.7056 216.955 8.37411 216.047 7.95975ZM217.821 9.11996C217.821 9.07852 217.821 9.07852 217.821 9.11996L217.78 9.07852L217.821 9.03708C218.564 9.24426 219.307 9.41001 220.049 9.57575C220.132 9.61719 220.255 9.70006 220.297 9.7415C220.338 9.7415 220.338 9.78294 220.338 9.82437C220.255 9.82437 220.214 9.78293 220.173 9.78293C219.389 9.57575 218.605 9.36857 217.821 9.11996ZM219.43 10.1144C219.389 10.1144 219.389 10.073 219.389 10.073L219.43 10.0316C219.884 10.1559 220.544 10.2802 221.328 10.4045C221.369 10.4045 221.411 10.4459 221.452 10.4459C221.534 10.4873 221.741 10.6117 221.741 10.6531C220.998 10.5288 220.214 10.363 219.43 10.1144ZM222.731 11.4404C222.483 11.3989 222.194 11.3575 221.823 11.3161C221.782 11.3161 221.782 11.2746 221.782 11.2746C221.782 11.2332 221.782 11.2332 221.823 11.2332C222.112 11.2746 222.401 11.2746 222.689 11.3161C222.689 11.3161 222.772 11.3161 222.855 11.3575C222.937 11.3989 223.102 11.4818 223.102 11.5232C222.978 11.4818 222.855 11.4818 222.731 11.4404ZM223.143 10.8188C222.607 10.7774 222.153 10.6117 222.112 10.5702C222.071 10.5288 222.071 10.5288 222.071 10.5288C222.483 10.5702 222.855 10.6117 223.267 10.6117C223.267 10.6117 223.308 10.6531 223.35 10.6531C223.473 10.6945 223.597 10.8188 223.143 10.8188ZM224.092 11.5232C224.01 11.5232 223.803 11.4818 223.721 11.4404L223.68 11.3989C223.597 11.3575 223.638 11.3161 223.638 11.3161H223.721H224.051H224.092C224.092 11.3161 224.175 11.3989 224.175 11.4404C224.133 11.4818 224.133 11.4818 224.092 11.5232ZM224.216 12.0205C224.133 11.979 224.175 11.979 224.175 11.979H224.216H224.381C224.381 11.979 224.422 12.0205 224.422 12.0619C224.422 12.0619 224.422 12.0619 224.381 12.1033C224.422 12.0619 224.298 12.0619 224.216 12.0205ZM224.422 17.5315L225.412 16.7856C225.495 16.7027 225.536 16.7027 225.536 16.7027H226.155C226.155 16.7027 225.247 17.2414 224.959 17.3657C224.711 17.49 224.464 17.5729 224.422 17.5315ZM229.29 16.2884C229.29 16.2055 229.125 15.9155 228.507 15.7911C228.507 15.7911 228.465 15.7497 228.548 15.7497C228.63 15.7083 229.084 15.6254 229.744 15.8326H229.786C229.786 15.7911 229.662 15.5425 229.373 15.4597C229.373 15.4597 229.332 15.4182 229.373 15.4182C229.414 15.4182 230.528 15.2525 230.528 16.8685C230.528 16.8685 230.487 16.9099 230.446 16.8685C230.404 16.827 230.157 16.4956 230.033 16.3298C229.868 16.1641 229.868 16.3298 229.868 16.5784C229.868 16.827 229.744 17.6972 229.662 17.5729C229.579 17.4071 229.497 17.0757 229.373 17.2414C229.249 17.4071 229.125 17.7801 228.548 18.1116C228.548 18.1116 228.507 18.153 228.507 18.0701C228.507 17.9873 228.589 17.5315 228.589 17.5315V17.4486C228.589 17.4486 228.012 17.9458 227.351 18.2359C227.351 18.2359 227.269 18.2773 227.269 18.1944C227.31 18.1116 227.516 17.5729 227.516 17.5729C227.516 17.5729 226.98 17.9044 225.99 17.9458C225.99 17.9458 225.949 17.9458 225.949 17.9044C225.949 17.8629 225.907 17.5315 225.742 17.4071C225.742 17.4071 226.279 17.2 226.774 16.8685C227.021 16.7027 227.269 16.537 227.434 16.3712C227.846 16.2469 228.424 16.1641 229.249 16.2469C229.249 16.3298 229.332 16.3713 229.29 16.2884ZM232.385 19.3961L232.343 19.4789C232.302 19.4789 232.261 19.4789 232.137 19.4375L231.188 18.0287V17.9872C231.229 17.9872 231.229 17.9872 231.229 17.9872L232.385 19.3961ZM231.601 17.49C231.642 17.49 231.642 17.49 231.601 17.49L233.787 19.4375V19.4789C233.787 19.5204 233.746 19.5618 233.705 19.5618C233.664 19.6033 233.581 19.6033 233.499 19.5618L233.416 19.5204L232.467 18.4845L231.807 17.7386L231.601 17.49C231.601 17.5315 231.601 17.5315 231.601 17.49ZM231.271 18.8988C231.229 18.8988 231.229 18.8988 231.229 18.8988L230.858 18.153V18.1116H230.899L231.271 18.8574C231.312 18.8574 231.312 18.8988 231.271 18.8988ZM231.395 15.7083H231.353C231.147 15.5011 230.941 15.2939 230.693 15.1696L230.652 15.1282C230.652 15.1282 230.693 15.0867 230.693 15.1282C230.693 15.1282 231.064 15.3353 231.395 15.7083C231.395 15.6668 231.395 15.6668 231.395 15.7083ZM231.023 16.0812C231.023 16.1226 231.023 16.1641 230.982 16.2055C230.941 16.2055 230.899 16.2055 230.899 16.1641C230.652 15.5425 230.281 15.2939 230.281 15.2939C230.239 15.2525 230.239 15.211 230.239 15.1696C230.281 15.1282 230.322 15.1282 230.363 15.1282C230.322 15.1696 230.734 15.4182 231.023 16.0812ZM222.153 19.0231C222.318 18.7745 222.855 18.1944 222.855 18.1944C222.855 18.1944 223.597 18.1116 224.01 18.0287C224.422 17.9458 225.247 17.8215 225.247 17.8215V17.9044C225.247 17.9873 225.082 17.9872 225.082 17.9872C224.67 18.0287 224.546 18.2359 224.505 18.443C224.505 18.6502 224.381 18.8988 224.381 18.8988C224.381 18.816 224.298 18.5259 224.092 18.443C223.845 18.3602 223.35 18.5259 223.102 18.816C222.896 19.1475 223.102 19.6033 223.102 19.6033C222.689 19.4375 222.648 19.1475 222.689 19.0646C222.689 18.9403 222.813 18.7331 222.813 18.6917C222.813 18.6502 222.772 18.6502 222.772 18.6502C222.772 18.6502 222.442 18.9403 222.401 19.0646C222.401 19.1889 222.524 19.5618 222.524 19.5618C222.524 19.5618 222.194 19.3132 222.071 19.1889C222.029 19.106 222.153 19.0231 222.153 19.0231ZM222.401 20.5977C222.359 20.5563 222.359 20.5148 222.318 20.5148L222.112 20.2662C222.112 20.2662 222.112 20.2662 222.071 20.2248V20.1834V20.1419C222.112 20.059 222.153 20.0176 222.194 19.9762C222.277 20.0591 222.607 20.2662 223.102 20.3491H223.143V20.3077C223.143 20.3077 223.143 20.1834 223.143 20.1419C223.226 20.1419 223.432 20.1834 223.68 20.1834C223.68 20.1834 223.721 20.1834 223.762 20.1419C223.762 20.1419 223.762 20.1005 223.762 20.059V19.9347C223.68 19.8519 223.473 19.6033 223.473 19.3961C223.473 19.2718 223.597 19.1475 223.803 19.0646C223.968 19.0231 224.133 19.106 224.216 19.2303C224.464 19.6447 224.299 19.8104 224.299 19.8104C224.299 19.8104 224.299 19.8519 224.299 19.8933L224.34 19.9347C224.34 19.9347 224.752 19.8104 224.752 19.3961V19.1475C224.752 18.9403 224.752 18.8574 224.876 18.6917C224.876 18.6917 225 18.6088 225.082 18.7331C225.124 18.7745 225.289 19.0231 226.114 18.8988C226.073 18.9817 225.99 19.106 225.949 19.1475C225.949 19.1475 225.907 19.1889 225.907 19.2303C225.907 19.2718 225.949 19.2718 225.99 19.3132C226.114 19.3132 227.021 19.3546 227.805 18.9817C227.805 19.0232 227.764 19.1475 227.723 19.2303C227.681 19.2718 227.681 19.2718 227.723 19.3132C227.723 19.3546 227.764 19.3546 227.805 19.3546C227.888 19.3546 228.672 19.1475 229.455 18.1944C229.455 18.2359 229.538 18.3602 229.621 18.4845C229.662 18.5259 229.703 18.5674 229.744 18.5259C229.744 18.5259 229.786 18.5259 230.157 18.0287C230.157 18.0287 230.157 18.0287 230.198 18.0701C230.239 18.1116 230.611 18.8574 230.817 19.3132C230.817 19.3132 231.023 19.6447 231.271 19.6447H231.436C231.56 19.6447 231.601 19.6447 231.683 19.6861L231.807 19.769C231.89 19.8104 231.972 19.8933 232.096 19.9347C231.23 19.8519 230.363 19.8104 229.455 19.8104C227.021 19.8104 224.587 20.0591 222.401 20.5977ZM241.378 22.9181C241.543 23.001 241.667 23.0839 241.832 23.1667C244.06 24.5341 245.256 26.1916 245.256 27.9319C245.256 30.0037 243.606 31.9097 240.595 33.36C237.624 34.7688 233.705 35.5561 229.538 35.5561C225.371 35.5561 221.452 34.7688 218.481 33.36C215.47 31.9097 213.82 30.0037 213.82 27.9319C213.82 26.3573 214.768 24.8242 216.584 23.5811C217.12 23.2082 217.78 22.8353 218.481 22.5038C218.564 22.4623 218.646 22.4209 218.688 22.4209C221.617 21.0535 225.454 20.3077 229.497 20.3077C233.664 20.3077 237.583 21.095 240.553 22.5038C240.842 22.6281 241.09 22.7524 241.378 22.9181ZM232.632 19.9347C232.797 19.8933 232.921 19.769 232.921 19.769C232.921 19.769 232.921 19.769 232.962 19.769L233.086 19.8519L233.292 19.9762C233.045 19.9762 232.838 19.9762 232.632 19.9347ZM235.314 19.4789C235.273 19.5204 235.19 19.6032 234.943 19.4375L231.89 17.1585L231.807 17.0757C231.807 17.0757 231.807 17.0757 231.807 17.0342H231.848L232.013 17.1171L235.149 19.106C235.149 19.106 235.314 19.2303 235.355 19.3132V19.3546C235.355 19.4375 235.355 19.4375 235.314 19.4789ZM236.428 18.8574V18.8988C236.386 18.9817 236.263 19.0231 236.18 19.0231H236.139L236.056 18.9817L235.974 18.9403L233.581 17.5729L232.178 16.7442L232.137 16.7027C232.137 16.7027 232.137 16.7027 232.137 16.6613C232.137 16.6613 232.137 16.6613 232.178 16.6613L232.261 16.7027L236.386 18.7331V18.7745L236.428 18.8574ZM237.212 18.4016C237.17 18.4845 237.047 18.5674 236.964 18.5259H236.923L232.302 16.3712V16.3298L232.343 16.2884L236.304 17.8215L237.294 18.1944C237.253 18.2773 237.212 18.3187 237.212 18.4016ZM237.542 17.6143C237.583 17.6143 237.624 17.6558 237.665 17.7386C237.665 17.7801 237.665 17.8215 237.665 17.8629C237.583 17.9458 237.459 17.9044 237.459 17.9044L232.715 16.1226L232.632 16.0812C232.632 16.0812 232.632 16.0398 232.673 16.0398H232.756L237.542 17.6143ZM233.127 13.305C231.848 14.2166 229.29 14.5481 228.754 14.5481C228.218 14.5481 227.805 15.211 227.021 15.7497C226.238 16.3298 225.412 16.1641 225.412 16.1641C225.619 15.874 225.577 15.4597 225.577 15.4597C225.371 15.8326 225 16.1226 224.587 16.2469C224.257 16.3298 224.133 16.3298 223.68 16.3298C223.267 16.3298 222.937 16.4956 222.731 16.537C222.524 16.5784 222.194 16.4956 222.194 16.4956C222.318 16.4127 222.566 16.3298 222.689 16.3298C222.813 16.3298 223.226 16.2055 223.226 16.2055C222.772 16.0812 222.153 16.3298 222.153 16.3298C221.823 16.4541 221.658 16.3298 221.658 16.3298C221.204 16.4541 221.246 16.827 221.246 16.827C221.246 16.827 221.081 16.5784 221.081 16.1641C221.081 15.7497 222.029 15.2939 222.029 15.2939C222.524 15.211 222.772 15.4597 222.772 15.4597C222.896 15.7083 223.102 15.8326 223.267 15.6668C223.432 15.5425 223.473 15.3353 223.597 15.3353C223.721 15.3353 223.845 15.3353 223.845 15.3353L224.01 15.211C224.01 15.1696 223.968 15.1696 223.968 15.1696C223.968 15.1696 223.721 15.2525 223.02 15.2525C222.318 15.2939 222.071 14.8381 222.071 14.8381C223.35 14.4238 224.629 13.2221 225.99 12.9321C227.351 12.642 228.795 12.8906 228.795 12.8906C228.424 13.3464 228.3 13.6779 228.3 13.6779C231.436 11.6061 233.375 10.9846 233.375 10.9846C234.695 8.58129 236.139 7.50396 237.294 6.75811C238.408 6.01226 239.811 4.27195 239.893 4.06477C240.017 3.81616 240.099 3.81616 240.099 3.81616C240.058 4.68631 239.233 5.59791 238.532 6.30232C237.83 6.96529 236.799 7.71114 236.799 7.71114C236.717 7.79401 236.799 7.83544 236.799 7.83544C236.799 7.83544 237.005 7.87688 237.047 7.87688C237.088 7.87688 237.088 7.95975 237.088 7.95975C236.882 8.29124 236.469 8.58129 236.428 8.62273C236.386 8.7056 236.428 8.7056 236.428 8.7056C236.428 8.7056 236.51 8.7056 236.593 8.74704C236.675 8.78847 236.593 8.87134 236.593 8.87134L235.933 9.49288C235.891 9.53432 235.891 9.57575 235.891 9.57575C235.891 9.57575 236.18 9.53432 236.221 9.53432C236.263 9.53432 236.263 9.61719 236.263 9.61719C236.139 9.94868 235.726 10.3216 235.685 10.363C235.644 10.4459 235.644 10.4459 235.644 10.4459C235.644 10.4459 235.933 10.4459 235.974 10.4459C236.015 10.4459 235.974 10.4874 235.974 10.4874C235.438 11.2746 234.365 11.8962 234.365 11.8962C234.365 11.8962 234.695 12.0205 234.695 12.0619C234.736 12.1033 234.695 12.1033 234.695 12.1033C233.994 12.6006 232.88 12.9735 232.88 12.9735C232.88 12.9735 233.127 13.0978 233.127 13.1392C233.169 13.2221 233.127 13.305 233.127 13.305ZM234.406 14.1337C233.994 14.1751 233.334 14.1337 233.334 14.1337C233.292 14.1337 233.251 14.0923 233.251 14.0508C233.251 14.0094 233.292 13.968 233.334 13.968C233.334 13.968 233.994 13.968 234.406 13.968C234.447 13.968 234.489 14.0094 234.489 14.0508C234.489 14.0923 234.447 14.1337 234.406 14.1337ZM236.675 12.9321L236.593 12.9735C236.345 13.0564 236.139 13.1392 235.891 13.2221C235.685 13.2635 235.479 13.305 235.314 13.3464C235.231 13.3464 235.149 13.3879 235.108 13.3879C234.777 13.4293 234.489 13.4707 234.2 13.5122C233.911 13.5536 234.159 13.3879 234.2 13.3464H234.241C234.53 13.305 235.396 13.2221 236.717 12.9321C236.675 12.8492 236.717 12.8906 236.675 12.9321ZM234.901 12.8078C234.86 12.7663 234.86 12.8078 234.901 12.8078L235.108 12.6006C235.19 12.5177 235.273 12.5177 235.273 12.5177C235.603 12.4763 236.634 12.2691 238.078 11.8133C238.078 11.8133 238.119 11.8133 238.078 11.8547L238.037 11.8962C237.954 11.979 237.624 12.1033 237.129 12.2691C236.428 12.4763 235.685 12.642 234.901 12.8078ZM240.43 11.7719C240.43 11.7719 240.388 11.7719 240.388 11.8133C240.265 11.8547 239.192 12.3934 237.377 12.8906C237.5 12.8078 237.624 12.7249 237.748 12.6006C238.491 12.3934 239.357 12.1033 240.347 11.7719C240.388 11.7719 240.43 11.7719 240.43 11.7304C240.471 11.689 240.471 11.7304 240.43 11.7719ZM242.74 10.0316C242.699 10.073 242.534 10.1559 242.204 10.3216C242.039 10.4045 241.832 10.4873 241.626 10.6117C241.543 10.6531 241.461 10.6945 241.337 10.736C240.76 10.9846 240.058 11.2746 239.274 11.5647C239.027 11.6475 238.779 11.7304 238.532 11.8547C238.573 11.7719 238.656 11.689 238.697 11.6476C238.944 11.5647 239.151 11.4818 239.398 11.3989C240.265 11.1089 241.172 10.7774 242.162 10.3216C242.369 10.1559 242.575 10.073 242.74 10.0316C242.822 9.90724 242.74 9.99012 242.74 10.0316ZM243.895 8.62273C243.895 8.66416 243.895 8.66416 243.895 8.7056C243.854 8.74703 243.689 8.82991 243.4 8.99565L242.575 9.45144L242.245 9.61719C241.708 9.90724 241.131 10.1559 240.553 10.4045C240.141 10.5702 239.687 10.7774 239.192 10.9431C239.274 10.8188 239.316 10.6945 239.398 10.5702C239.728 10.4459 240.017 10.363 240.347 10.2387C241.213 9.90724 242.121 9.45145 243.276 8.87134C243.4 8.78847 243.813 8.62273 243.895 8.58129C243.854 8.53986 243.854 8.58129 243.895 8.62273ZM245.71 6.67524C245.71 6.84098 243.936 7.87688 242.369 8.66416L241.255 9.20283C240.677 9.45145 240.141 9.70006 239.604 9.90724C239.687 9.7415 239.728 9.53432 239.769 9.36857C241.791 8.66416 243.73 7.71114 245.587 6.59237C245.587 6.59237 245.669 6.55093 245.71 6.55093C245.71 6.59236 245.71 6.59237 245.71 6.67524ZM246.494 4.85206C246.453 5.0178 243.235 7.33821 239.934 8.74704C239.976 8.53986 239.976 8.37411 240.017 8.20837C242.245 7.37965 244.349 6.21944 246.247 4.81062C246.37 4.72775 246.412 4.68631 246.494 4.72775C246.535 4.72775 246.494 4.81062 246.494 4.85206ZM247.196 2.73882C247.072 2.90457 243.648 5.97083 240.017 7.54539C240.017 7.46252 240.017 7.42109 240.017 7.33821C240.017 7.25534 240.017 7.17247 240.017 7.13103C243.813 5.55647 247.072 2.61452 247.072 2.57308C247.154 2.53164 247.196 2.49021 247.237 2.53164C247.319 2.61451 247.278 2.65595 247.196 2.73882ZM17.4415 26.6888C17.4415 24.4927 16.1626 24.4513 15.2137 24.4513H14.0998V23.0424C15.8738 23.1253 17.7303 23.2496 19.8756 23.2496C22.0209 23.2496 23.9187 23.1667 25.7752 23.0424V24.4513H25.1976C24.29 24.4513 22.9698 24.5341 22.9698 26.6888V33.1528C21.1545 33.6915 16.8227 34.6445 13.4397 34.6445C6.01364 34.6445 0.485352 30.2109 0.485352 22.1308C0.485352 15.874 4.32215 9.61719 13.6047 9.61719C16.8227 9.61719 20.2469 10.4045 23.0111 11.3161L22.8048 18.1116H20.577C20.5357 14.1751 17.8541 11.8133 14.1823 11.8133C8.15894 11.8133 6.4262 16.3712 6.4262 22.1308C6.4262 27.6833 9.31411 32.6141 14.6361 32.6141C15.6675 32.6141 16.6989 32.407 17.4415 32.2412V26.6888ZM28.4156 13.5536C28.4156 12.1448 28.2093 11.4818 25.8577 11.4404V10.0316C27.508 10.1144 29.3645 10.2387 31.221 10.2387C33.0362 10.2387 34.934 10.1559 36.7905 10.0316V11.4404C34.2327 11.4818 34.0264 12.1448 34.0264 13.5536V26.3988C34.0264 30.2109 36.3367 31.6197 39.6784 31.6197C44.1753 31.6197 45.6605 29.2578 45.6605 24.4927V13.5536C45.6605 12.1448 45.4543 11.4818 42.8551 11.4404V10.0316C44.0103 10.1144 45.2892 10.2387 46.6094 10.2387C47.6821 10.2387 48.8372 10.1559 49.8686 10.0316V11.4404C47.9709 11.4818 47.7646 12.1448 47.7646 13.5536V24.7413C47.7646 32.6141 43.1027 34.6445 38.3582 34.6445C32.4587 34.6445 28.4156 32.9871 28.4156 25.943V13.5536ZM51.3951 32.7799C54.1592 32.7384 54.3655 32.0755 54.3655 30.6666V13.5536C54.3655 12.1448 54.1592 11.4818 51.5601 11.4404V10.0316C53.4166 10.1144 55.3144 10.2387 57.1297 10.2387C58.9449 10.2387 60.8427 10.1559 63.2768 10.0316V11.4404C60.1413 11.4818 59.8938 12.1448 59.8938 13.5536V30.9981C59.8938 31.9926 59.9351 32.3655 61.7916 32.3655C65.6696 32.3655 69.0526 31.6197 69.919 27.1032H71.4867C70.9504 29.4236 70.4553 31.7854 70.1253 34.1473C67.4436 34.0644 64.432 33.9401 61.049 33.9401C57.4597 33.9401 54.2005 34.023 51.3538 34.1473V32.7799H51.3951ZM72.1468 32.7799C74.911 32.7384 75.1172 32.0755 75.1172 30.6666V13.5536C75.1172 12.1448 74.911 11.4818 72.3531 11.4404V10.0316C75.2823 10.1144 78.2527 10.2387 81.2231 10.2387C84.2348 10.2387 87.2052 10.1559 90.2169 10.0316C90.2169 12.0205 90.3407 14.5895 90.4644 16.1226H88.8554C88.6492 11.979 86.4213 11.8547 83.0796 11.8547C81.6357 11.8547 80.6868 11.8547 80.6868 12.8906V21.3436H83.4509C86.0088 21.3436 86.9164 21.0121 86.9164 18.2359H88.2779C88.1541 19.6447 88.0716 21.0535 88.0716 22.4623C88.0716 24.0783 88.1541 25.6529 88.2779 26.7302H86.9164V25.7358C86.8752 23.3739 85.8438 22.9596 83.6985 22.9596H80.6868V30.6666C80.6868 32.0755 80.8931 32.7384 84.1935 32.7799V34.1887C82.0895 34.1058 79.8204 33.9815 78.0051 33.9815C76.2311 33.9815 74.1684 34.0644 72.1468 34.1887V32.7799ZM105.647 12.4763C105.028 11.6476 103.996 11.4404 103.295 11.4404H102.924V10.0316C104.285 10.1144 105.688 10.2387 107.008 10.2387C108.369 10.2387 109.772 10.1559 111.175 10.0316L123.015 25.3629H123.098V13.5122C123.098 12.1033 122.892 11.4404 120.045 11.3989V9.99011C121.53 10.073 123.015 10.1973 124.17 10.1973C125.326 10.1973 126.811 10.1144 127.636 9.99011V11.3989C125.449 11.4404 125.243 12.1033 125.243 13.5122V34.1473H122.603L107.833 14.8381H107.751V30.6666C107.751 32.0755 107.957 32.7384 110.845 32.7799V34.1887C109.36 34.1058 107.874 33.9815 106.719 33.9815C105.564 33.9815 104.079 34.0644 102.594 34.1887V32.7799C105.44 32.7384 105.688 32.0755 105.688 30.6666L105.647 12.4763ZM128.997 32.7799C131.844 32.7384 132.092 32.0755 132.092 30.6666V13.5536C132.092 12.1448 131.885 11.4818 129.286 11.4404V10.0316C132.215 10.1144 135.186 10.2387 138.156 10.2387C141.168 10.2387 144.138 10.1559 147.15 10.0316C147.15 12.0205 147.274 14.5895 147.398 16.2055H145.789C145.582 11.979 143.354 11.8547 140.013 11.8547H138.693C137.867 11.8547 137.62 12.1448 137.62 12.8492V20.9292H140.178C142.736 20.9292 143.643 20.2662 143.643 17.6972H145.005C144.881 19.0232 144.798 20.3905 144.798 21.7165C144.798 23.3325 144.881 24.9071 145.005 25.943H143.643C143.643 23.1667 142.736 22.5038 140.178 22.5038H137.62V30.8324C137.62 31.7854 138.074 32.1169 138.981 32.1169H140.384C144.097 32.1169 146.82 31.5782 147.604 27.5175H149.13C148.553 29.7136 148.223 31.9097 147.893 34.1058C144.798 34.023 141.704 33.8987 138.61 33.8987C135.392 33.8987 132.174 33.9815 128.956 34.1058L128.997 32.7799ZM148.553 10.0316C150.203 10.1144 151.812 10.2387 153.462 10.2387C155.03 10.2387 156.556 10.1559 158.124 10.0316V11.4404H157.464C156.598 11.5647 156.556 11.979 156.556 12.3934C156.556 12.7663 156.721 13.5122 156.928 14.2994L160.806 28.0147H160.888L164.395 16.6199L163.57 13.305C163.157 11.6476 162.91 11.4404 161.507 11.4404H160.764V10.0316C162.415 10.1144 164.147 10.2387 165.798 10.2387C167.613 10.2387 169.469 10.1559 171.326 10.0316V11.4404H170.748C169.634 11.4404 169.016 11.7304 169.016 12.352C169.016 12.8906 169.181 13.5122 169.428 14.7552L172.44 28.5534H172.522L177.019 14.4238C177.267 13.595 177.473 12.9735 177.473 12.3105C177.473 11.5647 176.772 11.3989 175.699 11.3989H174.915V9.99011C176.194 10.073 177.721 10.1973 178.711 10.1973C179.783 10.1973 180.856 10.1144 181.929 9.99011V11.3989C180.443 11.3989 179.742 12.5177 179.206 14.1751L172.605 34.3544H169.016L165.385 20.4734H165.303L160.806 34.3544H157.216L151.111 14.0508C150.409 11.7719 150.244 11.4818 148.47 11.4818L148.553 10.0316ZM196.987 17.1585H195.048C194.966 13.7608 193.975 11.6061 190.139 11.6061C188.282 11.6061 186.467 12.3934 186.467 14.7967C186.467 19.6447 198.555 17.8629 198.555 26.6474C198.555 32.2827 194.347 34.6031 189.437 34.6031C186.921 34.6031 183.744 33.8158 181.557 32.4898C181.681 30.5423 181.722 27.7247 181.722 25.7772H184.033C184.033 29.4236 185.477 32.407 189.231 32.407C191.583 32.407 193.728 31.4539 193.728 29.2164C193.728 23.5397 181.846 25.3214 181.846 16.7442C181.846 12.1862 185.188 9.57575 190.221 9.57575C192.573 9.57575 194.966 10.073 197.276 10.5288L196.987 17.1585Z" fill="#6B7280"/>
</svg>
