<svg width="116" height="49" viewBox="0 0 116 49" fill="none" xmlns="http://www.w3.org/2000/svg">
<path fill-rule="evenodd" clip-rule="evenodd" d="M113.915 7.82812H73.064V15.4283H113.915V7.82812ZM79.714 9.29575H77.7276V11.2822H79.714V9.29575ZM82.3913 9.29575H80.4049V11.2822H82.3913V9.29575ZM77.7276 11.9731H79.714V13.9595H77.7276V11.9731ZM82.3913 11.9731H80.4049V13.9595H82.3913V11.9731ZM83.0823 9.29575H85.0687V11.2822H83.0823V9.29575ZM85.0687 11.9731H83.0823V13.9595H85.0687V11.9731ZM85.5869 9.29575H87.5733V11.2822H85.5869V9.29575ZM95.4326 9.29575H93.4462V11.2822H95.4326V9.29575ZM88.2642 9.29575H90.2506V11.2822H88.2642V9.29575ZM98.1099 9.29575H96.1235V11.2822H98.1099V9.29575ZM85.5869 11.9731H87.5733V13.9595H85.5869V11.9731ZM95.4326 11.9731H93.4462V13.9595H95.4326V11.9731ZM88.2642 11.9731H90.2506V13.9595H88.2642V11.9731ZM98.1099 11.9731H96.1235V13.9595H98.1099V11.9731ZM90.9416 9.29575H92.928V11.2822H90.9416V9.29575ZM92.928 11.9731H90.9416V13.9595H92.928V11.9731ZM76.3457 11.6276C76.3457 12.2 75.8817 12.664 75.3093 12.664C74.7369 12.664 74.2729 12.2 74.2729 11.6276C74.2729 11.0552 74.7369 10.5912 75.3093 10.5912C75.8817 10.5912 76.3457 11.0552 76.3457 11.6276ZM111.324 12.664C111.896 12.664 112.36 12.2 112.36 11.6276C112.36 11.0552 111.896 10.5912 111.324 10.5912C110.752 10.5912 110.288 11.0552 110.288 11.6276C110.288 12.2 110.752 12.664 111.324 12.664Z" fill="#9CA3AF"/>
<path fill-rule="evenodd" clip-rule="evenodd" d="M113.915 16.9836H73.064V24.5838H93.4895H100.183L111.497 33.3932L108.809 24.5838H113.915V16.9836ZM79.714 18.538H77.7276V20.5245H79.714V18.538ZM82.3913 18.538H80.4049V20.5245H82.3913V18.538ZM77.7276 21.2154H79.714V23.2018H77.7276V21.2154ZM82.3913 21.2154H80.4049V23.2018H82.3913V21.2154ZM83.0823 18.538H85.0687V20.5245H83.0823V18.538ZM85.0687 21.2154H83.0823V23.2018H85.0687V21.2154ZM85.5869 18.538H87.5733V20.5245H85.5869V18.538ZM95.4326 18.538H93.4462V20.5245H95.4326V18.538ZM88.2642 18.538H90.2506V20.5245H88.2642V18.538ZM98.1099 18.538H96.1235V20.5245H98.1099V18.538ZM85.5869 21.2154H87.5733V23.2018H85.5869V21.2154ZM95.4326 21.2154H93.4462V23.2018H95.4326V21.2154ZM88.2642 21.2154H90.2506V23.2018H88.2642V21.2154ZM98.1099 21.2154H96.1235V23.2018H98.1099V21.2154ZM90.9416 18.538H92.928V20.5245H90.9416V18.538ZM92.928 21.2154H90.9416V23.2018H92.928V21.2154ZM76.3457 20.8699C76.3457 21.4423 75.8817 21.9063 75.3093 21.9063C74.7369 21.9063 74.2729 21.4423 74.2729 20.8699C74.2729 20.2975 74.7369 19.8335 75.3093 19.8335C75.8817 19.8335 76.3457 20.2975 76.3457 20.8699ZM111.324 21.9063C111.896 21.9063 112.36 21.4423 112.36 20.8699C112.36 20.2975 111.896 19.8335 111.324 19.8335C110.752 19.8335 110.288 20.2975 110.288 20.8699C110.288 21.4423 110.752 21.9063 111.324 21.9063Z" fill="#9CA3AF"/>
<path d="M110.667 5.5616H76L85.2782 0.228271H101.304L110.667 5.5616Z" fill="#9CA3AF"/>
<path d="M0 27.1021V26.0084L1.45044 25.7654V15.8098L0 15.5668V14.4645H4.65385V15.5668L3.20342 15.8098V20.1757H9.39669V15.8098L7.94625 15.5668V14.4645H12.6001V15.5668L11.1497 15.8098V25.7654L12.6001 26.0084V27.1021H7.94625V26.0084L9.39669 25.7654V21.521H3.20342V25.7654L4.65385 26.0084V27.1021H0Z" fill="#6B7280"/>
<path d="M18.3307 27.2844C17.4408 27.2844 16.6726 27.0818 16.026 26.6768C15.3853 26.2659 14.89 25.7018 14.54 24.9842C14.1899 24.2609 14.0149 23.4364 14.0149 22.5105V22.3196C14.0149 21.3937 14.1899 20.5721 14.54 19.8545C14.89 19.1312 15.3853 18.5642 16.026 18.1533C16.6726 17.7425 17.4349 17.5371 18.3129 17.5371C19.2027 17.5371 19.968 17.7425 20.6086 18.1533C21.2553 18.5642 21.7536 19.1283 22.1036 19.8459C22.4536 20.5634 22.6286 21.388 22.6286 22.3196V22.5105C22.6286 23.4421 22.4536 24.2696 22.1036 24.9929C21.7536 25.7104 21.2582 26.2717 20.6175 26.6768C19.9769 27.0818 19.2146 27.2844 18.3307 27.2844ZM18.3307 25.9477C18.8883 25.9477 19.354 25.8001 19.7277 25.505C20.1074 25.2041 20.3921 24.7962 20.582 24.2812C20.7777 23.7604 20.8756 23.1702 20.8756 22.5105V22.3196C20.8756 21.6599 20.7777 21.0726 20.582 20.5576C20.3921 20.0368 20.1074 19.6289 19.7277 19.3338C19.348 19.0329 18.8764 18.8824 18.3129 18.8824C17.7552 18.8824 17.2866 19.0329 16.9069 19.3338C16.5273 19.6289 16.2425 20.0368 16.0527 20.5576C15.8628 21.0726 15.7679 21.6599 15.7679 22.3196V22.5105C15.7679 23.1702 15.8628 23.7604 16.0527 24.2812C16.2425 24.7962 16.5273 25.2041 16.9069 25.505C17.2925 25.8001 17.7671 25.9477 18.3307 25.9477Z" fill="#6B7280"/>
<path d="M27.8786 27.2844C27.232 27.2844 26.6269 27.2207 26.0634 27.0934C25.4998 26.9661 24.9006 26.7694 24.2659 26.5032L24.2481 24.2725H25.5739L25.9032 25.6179C26.2354 25.7509 26.5557 25.8493 26.8642 25.913C27.1786 25.9708 27.5168 25.9998 27.8786 25.9998C28.5905 25.9998 29.1007 25.8667 29.4091 25.6005C29.7176 25.3343 29.8719 25.0045 29.8719 24.611C29.8719 24.2407 29.7147 23.9282 29.4002 23.6736C29.0918 23.4132 28.5282 23.1933 27.7096 23.0139C26.5468 22.7536 25.6896 22.4064 25.1379 21.9724C24.5922 21.5326 24.3193 20.9482 24.3193 20.2191C24.3193 19.7099 24.4705 19.2556 24.7731 18.8564C25.0756 18.4513 25.4968 18.1302 26.0367 17.8929C26.5765 17.6557 27.2053 17.5371 27.9231 17.5371C28.6528 17.5371 29.2757 17.6181 29.7918 17.7801C30.3138 17.9421 30.7676 18.1591 31.1532 18.4311L31.2422 20.575H29.9253L29.6405 19.3251C29.4329 19.1746 29.1867 19.0589 28.9019 18.9779C28.6172 18.8969 28.2909 18.8564 27.9231 18.8564C27.3773 18.8564 26.9324 18.9808 26.5884 19.2296C26.2502 19.4784 26.0812 19.7909 26.0812 20.167C26.0812 20.3869 26.1286 20.5778 26.2235 20.7399C26.3244 20.9019 26.5142 21.0494 26.793 21.1825C27.0718 21.3098 27.4812 21.4371 28.021 21.5644C29.3617 21.8711 30.296 22.2617 30.824 22.7362C31.3579 23.2107 31.6248 23.7951 31.6248 24.4895C31.6248 25.2822 31.3223 25.9477 30.7172 26.4858C30.118 27.0182 29.1719 27.2844 27.8786 27.2844Z" fill="#6B7280"/>
<path d="M36.4745 27.2496C35.7626 27.2496 35.1961 27.0471 34.7749 26.6421C34.3596 26.2312 34.152 25.5773 34.152 24.6804V18.9779H32.6304V17.7107H34.152V15.4453H35.905V17.7107H37.9961V18.9779H35.905V24.6804C35.905 25.1318 35.9969 25.4645 36.1808 25.6786C36.3647 25.8927 36.6109 25.9998 36.9194 25.9998C37.127 25.9998 37.3584 25.9824 37.6135 25.9477C37.8685 25.9072 38.0673 25.8725 38.2096 25.8435L38.4499 26.9632C38.1948 27.0384 37.8804 27.105 37.5067 27.1628C37.1389 27.2207 36.7948 27.2496 36.4745 27.2496Z" fill="#6B7280"/>
<path d="M39.5088 27.1021V26.0084L40.9592 25.7654V19.056L39.5088 18.813V17.7107H42.7122V25.7654L44.1627 26.0084V27.1021H39.5088ZM40.8703 15.3932V13.5618H42.7122V15.3932H40.8703Z" fill="#6B7280"/>
<path d="M45.3728 27.1021V26.0084L46.8233 25.7654V19.056L45.3728 18.813V17.7107H48.3894L48.514 19.1081C48.8343 18.6105 49.2347 18.2257 49.7152 17.9537C50.2017 17.6759 50.7534 17.5371 51.3703 17.5371C52.4085 17.5371 53.2123 17.8351 53.7818 18.4311C54.3513 19.0213 54.6361 19.9356 54.6361 21.1739V25.7654L56.0865 26.0084V27.1021H51.4326V26.0084L52.8831 25.7654V21.2086C52.8831 20.3811 52.714 19.7938 52.3759 19.4466C52.0437 19.0994 51.5335 18.9258 50.8453 18.9258C50.3411 18.9258 49.8932 19.0444 49.5017 19.2817C49.1161 19.5189 48.8076 19.843 48.5763 20.2538V25.7654L50.0267 26.0084V27.1021H45.3728Z" fill="#6B7280"/>
<path d="M61.47 30.8951C61.0073 30.8951 60.506 30.8315 59.9662 30.7041C59.4263 30.5826 58.9518 30.4148 58.5424 30.2007L58.9963 28.8727C59.3225 29.0405 59.7081 29.1794 60.153 29.2894C60.598 29.3993 61.031 29.4543 61.4522 29.4543C62.2353 29.4543 62.8077 29.2402 63.1696 28.812C63.5374 28.3838 63.7213 27.7733 63.7213 26.9806V26.0866C63.4069 26.48 63.0302 26.778 62.5912 26.9806C62.1522 27.1831 61.648 27.2844 61.0785 27.2844C60.2954 27.2844 59.6191 27.0963 59.0496 26.7202C58.4802 26.3383 58.0412 25.8088 57.7327 25.1318C57.4301 24.449 57.2789 23.6591 57.2789 22.7622V22.58C57.2789 21.5731 57.4301 20.6907 57.7327 19.9327C58.0412 19.1746 58.4802 18.5873 59.0496 18.1707C59.6191 17.7483 60.3014 17.5371 61.0963 17.5371C61.7014 17.5371 62.2323 17.6528 62.6891 17.8843C63.1459 18.1157 63.5285 18.4513 63.837 18.8911L63.9971 17.7107H65.4743V26.9806C65.4743 27.7907 65.3171 28.4879 65.0027 29.0724C64.6942 29.6568 64.2404 30.1053 63.6412 30.4177C63.048 30.736 62.3243 30.8951 61.47 30.8951ZM61.5145 25.8956C62.0425 25.8956 62.4844 25.7799 62.8404 25.5484C63.1963 25.3112 63.4899 24.9784 63.7213 24.5503V20.2278C63.4959 19.8285 63.2022 19.5131 62.8404 19.2817C62.4785 19.0444 62.0425 18.9258 61.5323 18.9258C60.9747 18.9258 60.509 19.082 60.1353 19.3945C59.7675 19.707 59.4916 20.1381 59.3077 20.6878C59.1238 21.2317 59.0319 21.8624 59.0319 22.58V22.7622C59.0319 23.7054 59.2365 24.4635 59.6458 25.0363C60.0552 25.6092 60.6781 25.8956 61.5145 25.8956ZM65.2073 19.1081L64.5222 17.7107H66.6667V18.8043L65.2073 19.1081Z" fill="#6B7280"/>
<path d="M17.3335 48.051V46.9884L18.2781 46.8619L22.7299 35.7719H24.2081L28.5812 46.8619L29.517 46.9884V48.051H25.8611V46.9884L26.8232 46.8282L25.9836 44.568H20.8845L20.0186 46.8282L20.9807 46.9884V48.051H17.3335ZM21.418 43.1765H25.4588L23.5871 38.1838L23.4821 37.9055H23.4296L23.3247 38.1838L21.418 43.1765Z" fill="#9CA3AF"/>
<path d="M34.24 48.2281C33.4704 48.2281 32.8086 48.0454 32.2546 47.6799C31.7065 47.3089 31.2867 46.7944 30.9952 46.1366C30.7036 45.4788 30.5579 44.7113 30.5579 43.8343V43.6572C30.5579 42.6789 30.7036 41.8215 30.9952 41.085C31.2867 40.3484 31.7094 39.7778 32.2634 39.373C32.8173 38.9625 33.482 38.7573 34.2575 38.7573C34.8173 38.7573 35.31 38.8585 35.7356 39.0609C36.1671 39.2577 36.5345 39.5444 36.8377 39.9211V36.202L35.412 35.9658V34.8948H38.5607V46.7522L39.9863 46.9884V48.051H37.0651L36.9251 46.9631C36.6161 47.3791 36.2371 47.694 35.7881 47.9076C35.345 48.1213 34.829 48.2281 34.24 48.2281ZM34.6773 46.8788C35.1905 46.8788 35.6219 46.7663 35.9718 46.5414C36.3216 46.3165 36.6103 45.9989 36.8377 45.5884V41.3548C36.6161 40.9725 36.3275 40.6689 35.9718 40.444C35.6161 40.2191 35.1905 40.1067 34.6948 40.1067C34.1467 40.1067 33.6949 40.2585 33.3392 40.5621C32.9835 40.8601 32.7182 41.2761 32.5433 41.8102C32.3683 42.3387 32.2809 42.9544 32.2809 43.6572V43.8343C32.2809 44.7507 32.4762 45.4872 32.8669 46.0438C33.2575 46.6004 33.861 46.8788 34.6773 46.8788Z" fill="#9CA3AF"/>
<path d="M45.1029 48.051L41.7356 40.1235L40.756 39.997V38.926H44.7268V39.997L43.4936 40.1657L45.5927 45.3607L45.8376 46.0944H45.8901L46.1699 45.3607L48.1204 40.1657L46.8522 39.997V38.926H50.8142V39.997L49.8171 40.1235L46.616 48.051H45.1029Z" fill="#9CA3AF"/>
<path d="M51.6626 48.051V46.9884L53.0882 46.7522V40.2332L51.6626 39.997V38.926H54.8113V46.7522L56.2369 46.9884V48.051H51.6626ZM53.0008 36.6742V34.8948H54.8113V36.6742H53.0008Z" fill="#9CA3AF"/>
<path d="M61.7033 48.2281C60.8462 48.2281 60.0998 48.037 59.4643 47.6546C58.8287 47.2667 58.336 46.7298 57.9862 46.0438C57.6363 45.3579 57.4614 44.5652 57.4614 43.6656V43.3114C57.4614 42.4456 57.6305 41.6697 57.9687 40.9837C58.3069 40.2978 58.7937 39.7553 59.4293 39.3561C60.0649 38.9569 60.8229 38.7573 61.7033 38.7573C62.4672 38.7573 63.1348 38.8782 63.7062 39.1199C64.2835 39.3617 64.7674 39.6934 65.1581 40.1151L65.2018 42.3078H63.8549L63.5575 40.7139C63.3593 40.5171 63.1115 40.3597 62.8141 40.2416C62.5167 40.1235 62.1669 40.0645 61.7645 40.0645C61.2514 40.0645 60.7995 40.2107 60.4089 40.503C60.024 40.7954 59.7237 41.1862 59.508 41.6753C59.2923 42.1644 59.1844 42.7098 59.1844 43.3114V43.6656C59.1844 44.329 59.2835 44.9053 59.4818 45.3945C59.6858 45.8836 59.9745 46.2631 60.3476 46.533C60.7267 46.7972 61.1756 46.9294 61.6946 46.9294C62.2777 46.9294 62.7616 46.7747 63.1465 46.4655C63.5313 46.1563 63.7674 45.7318 63.8549 45.1921H65.403L65.4205 45.2427C65.3913 45.7655 65.231 46.2547 64.9394 46.7101C64.6479 47.1655 64.231 47.5338 63.6887 47.8149C63.1523 48.0904 62.4905 48.2281 61.7033 48.2281Z" fill="#9CA3AF"/>
<path d="M71.3067 48.2281C70.4321 48.2281 69.6712 48.037 69.0239 47.6546C68.3767 47.2667 67.8753 46.7298 67.5196 46.0438C67.1697 45.3579 66.9948 44.5652 66.9948 43.6656V43.2945C66.9948 42.4287 67.1785 41.6556 67.5458 40.9753C67.919 40.2894 68.4117 39.7496 69.0239 39.3561C69.642 38.9569 70.3155 38.7573 71.0443 38.7573C71.8956 38.7573 72.607 38.926 73.1784 39.2633C73.7557 39.6007 74.1901 40.0757 74.4816 40.6886C74.7732 41.2958 74.9189 42.0126 74.9189 42.8391V43.8764H68.7791L68.7528 43.9186C68.7645 44.5033 68.8694 45.0234 69.0677 45.4788C69.2718 45.9286 69.5633 46.2828 69.9423 46.5414C70.3213 46.8 70.7761 46.9294 71.3067 46.9294C71.8898 46.9294 72.4 46.8506 72.8373 46.6932C73.2805 46.5302 73.6624 46.3081 73.9831 46.027L74.6565 47.1065C74.3184 47.4213 73.8694 47.6884 73.3096 47.9076C72.7557 48.1213 72.0881 48.2281 71.3067 48.2281ZM68.8315 42.5777H73.1959V42.3584C73.1959 41.9199 73.1143 41.5291 72.951 41.1862C72.7936 40.8376 72.5545 40.5649 72.2338 40.3681C71.919 40.1657 71.5225 40.0645 71.0443 40.0645C70.6595 40.0645 70.3097 40.1741 69.9948 40.3934C69.6799 40.6071 69.4204 40.8994 69.2164 41.2705C69.0123 41.6416 68.8782 42.0632 68.814 42.5355L68.8315 42.5777Z" fill="#9CA3AF"/>
<path d="M76.8868 48.051V46.3474H78.6099V48.051H76.8868Z" fill="#9CA3AF"/>
<path d="M84.8634 48.2281C84.0063 48.2281 83.26 48.037 82.6244 47.6546C81.9888 47.2667 81.4961 46.7298 81.1463 46.0438C80.7964 45.3579 80.6215 44.5652 80.6215 43.6656V43.3114C80.6215 42.4456 80.7906 41.6697 81.1288 40.9837C81.467 40.2978 81.9538 39.7553 82.5894 39.3561C83.225 38.9569 83.983 38.7573 84.8634 38.7573C85.6273 38.7573 86.2949 38.8782 86.8663 39.1199C87.4436 39.3617 87.9276 39.6934 88.3182 40.1151L88.362 42.3078H87.015L86.7177 40.7139C86.5194 40.5171 86.2716 40.3597 85.9742 40.2416C85.6768 40.1235 85.327 40.0645 84.9247 40.0645C84.4116 40.0645 83.9597 40.2107 83.569 40.503C83.1842 40.7954 82.8839 41.1862 82.6681 41.6753C82.4524 42.1644 82.3445 42.7098 82.3445 43.3114V43.6656C82.3445 44.329 82.4436 44.9053 82.6419 45.3945C82.846 45.8836 83.1346 46.2631 83.5078 46.533C83.8868 46.7972 84.3358 46.9294 84.8547 46.9294C85.4378 46.9294 85.9217 46.7747 86.3066 46.4655C86.6914 46.1563 86.9276 45.7318 87.015 45.1921H88.5631L88.5806 45.2427C88.5515 45.7655 88.3911 46.2547 88.0996 46.7101C87.808 47.1655 87.3911 47.5338 86.8488 47.8149C86.3124 48.0904 85.6506 48.2281 84.8634 48.2281Z" fill="#9CA3AF"/>
<path d="M94.4319 48.2281C93.5572 48.2281 92.8021 48.0313 92.1666 47.6378C91.5368 47.2386 91.05 46.6904 90.7059 45.9932C90.3619 45.2904 90.1899 44.4893 90.1899 43.5897V43.4042C90.1899 42.5046 90.3619 41.7062 90.7059 41.009C91.05 40.3063 91.5368 39.7553 92.1666 39.3561C92.8021 38.9569 93.5514 38.7573 94.4144 38.7573C95.289 38.7573 96.0412 38.9569 96.6709 39.3561C97.3065 39.7553 97.7963 40.3034 98.1403 41.0006C98.4843 41.6978 98.6563 42.499 98.6563 43.4042V43.5897C98.6563 44.4949 98.4843 45.2989 98.1403 46.0017C97.7963 46.6988 97.3094 47.2442 96.6796 47.6378C96.0499 48.0313 95.3007 48.2281 94.4319 48.2281ZM94.4319 46.9294C94.98 46.9294 95.4377 46.786 95.805 46.4992C96.1782 46.2069 96.4581 45.8105 96.6447 45.3101C96.8371 44.8041 96.9333 44.2306 96.9333 43.5897V43.4042C96.9333 42.7632 96.8371 42.1925 96.6447 41.6922C96.4581 41.1862 96.1782 40.7898 95.805 40.503C95.4319 40.2107 94.9683 40.0645 94.4144 40.0645C93.8663 40.0645 93.4056 40.2107 93.0325 40.503C92.6593 40.7898 92.3794 41.1862 92.1928 41.6922C92.0062 42.1925 91.9129 42.7632 91.9129 43.4042V43.5897C91.9129 44.2306 92.0062 44.8041 92.1928 45.3101C92.3794 45.8105 92.6593 46.2069 93.0325 46.4992C93.4115 46.786 93.8779 46.9294 94.4319 46.9294Z" fill="#9CA3AF"/>
<path d="M99.9857 48.051V46.9884L101.411 46.7522V40.2332L99.9857 39.997V38.926H102.959L103.073 40.1151C103.376 39.6822 103.767 39.3477 104.245 39.1115C104.723 38.8754 105.277 38.7573 105.907 38.7573C106.537 38.7573 107.076 38.8979 107.525 39.179C107.98 39.4601 108.321 39.8818 108.548 40.444C108.846 39.9268 109.239 39.5163 109.729 39.2127C110.219 38.9091 110.79 38.7573 111.443 38.7573C112.411 38.7573 113.175 39.0778 113.735 39.7187C114.295 40.354 114.575 41.3127 114.575 42.5945V46.7522L116 46.9884V48.051H111.417V46.9884L112.843 46.7522V42.5777C112.843 41.6781 112.682 41.0428 112.362 40.6717C112.041 40.295 111.566 40.1067 110.936 40.1067C110.335 40.1067 109.852 40.3119 109.484 40.7223C109.123 41.1271 108.913 41.6387 108.854 42.2572V46.7522L110.28 46.9884V48.051H105.706V46.9884L107.131 46.7522V42.5777C107.131 41.7231 106.965 41.099 106.633 40.7054C106.306 40.3063 105.831 40.1067 105.207 40.1067C104.682 40.1067 104.251 40.2107 103.913 40.4187C103.575 40.6267 103.315 40.9191 103.134 41.2958V46.7522L104.56 46.9884V48.051H99.9857Z" fill="#9CA3AF"/>
</svg>
