<svg width="149" height="18" viewBox="0 0 149 18" fill="none" xmlns="http://www.w3.org/2000/svg">
<path d="M19.191 17.547H24.6123L27.5188 0.930176H22.0975L21.0256 6.88092H16.3258L17.3976 0.930176H11.9763L9.06982 17.547H14.4912L15.5837 11.3285H20.2835L19.191 17.547Z" fill="#6B7280"/>
<path d="M30.5903 0.909507L28.9412 10.1548C28.7969 10.8755 28.7351 11.5756 28.7351 12.2345C28.7351 17.1351 33.0227 17.8763 35.5994 17.8763C41.0001 17.8763 43.3294 16.0849 44.1746 11.2461L45.9885 0.888916H40.5672L39.0212 9.57825C38.5265 12.2962 38.1761 13.717 36.1559 13.717C34.8367 13.717 34.1977 13.0169 34.1977 11.5756C34.1977 11.0196 34.2801 10.3401 34.445 9.49588L36.0116 0.888916H30.5903V0.909507Z" fill="#6B7280"/>
<path d="M74.6414 17.5473H80.0627L80.8254 13.2644H83.3815C88.1019 13.2644 90.7198 10.7111 90.7198 6.05762C90.7198 2.78368 88.4524 0.909912 84.474 0.909912H77.5478L74.6414 17.5473ZM83.0929 9.16683H81.5262L82.2477 5.25458H83.7113C84.9068 5.25458 85.5459 5.85171 85.5459 6.94302C85.5459 8.32261 84.6183 9.16683 83.0929 9.16683Z" fill="#6B7280"/>
<path d="M101.253 0.55957C95.3577 0.55957 91.8328 4.36887 91.8328 10.7726C91.8328 15.2202 94.6362 17.897 99.3361 17.897C105.231 17.897 108.756 14.0877 108.756 7.684C108.777 3.21579 105.974 0.55957 101.253 0.55957ZM99.6659 13.5936C98.2642 13.5936 97.4396 12.5846 97.4396 10.8962C97.4396 10.2578 97.5015 9.7019 97.6251 9.06358C98.0374 6.88095 98.7383 4.88364 100.944 4.88364C102.346 4.88364 103.17 5.89259 103.17 7.58104C103.17 8.21936 103.108 8.77531 102.985 9.41362C102.572 11.5757 101.872 13.5936 99.6659 13.5936Z" fill="#6B7280"/>
<path d="M127.618 17.547H133.039L135.183 5.37779H139.264L140.048 0.930176H126.175L125.391 5.37779H129.72L127.618 17.547Z" fill="#6B7280"/>
<path d="M118.63 7.06627C116.919 6.53091 116.219 6.30441 116.219 5.50137C116.219 4.96601 116.569 4.32769 117.6 4.32769C118.362 4.32769 119.001 4.7601 119.249 5.39841L124.031 4.10119C123.475 1.75384 121.454 0.55957 117.971 0.55957C111.416 0.55957 110.9 4.94542 110.9 6.28382C110.9 9.00181 112.343 10.6697 115.477 11.5345C116.301 11.761 117.249 12.0081 117.249 12.9141C117.249 13.6347 116.713 14.0877 115.786 14.0877C114.941 14.0877 114.034 13.5936 113.724 12.7287L109.004 14.0054C109.519 16.4763 111.849 17.8765 115.497 17.8765C118.28 17.8765 122.939 17.1352 122.939 12.111C122.959 9.59894 121.537 7.95168 118.63 7.06627Z" fill="#6B7280"/>
<path d="M6.03973 17.547L8.96684 0.930176H0V17.547H6.03973Z" fill="#9CA3AF"/>
<path d="M142.377 0.930176L139.47 17.547H148.437V0.930176H142.377Z" fill="#9CA3AF"/>
<path d="M52.4612 12.6467H57.0167L57.7588 8.46675H53.2032L53.7186 5.37812H60.0881L60.8714 0.909912H49.0806L46.1741 17.5473H51.5954L52.4612 12.6467Z" fill="#6B7280"/>
<path d="M66.6639 12.6467H71.2401L71.9822 8.46675H67.4266L67.942 5.37812H74.3115L75.0948 0.909912H63.304L60.3975 17.5473H65.8188L66.6639 12.6467Z" fill="#6B7280"/>
</svg>
