<svg width="160" height="45" viewBox="0 0 160 45" fill="none" xmlns="http://www.w3.org/2000/svg">
<path d="M75.8424 24.8778C75.8424 21.4106 76.5626 20.57 77.8429 20.57C79.1233 20.57 79.8435 21.4106 79.8435 24.8778V29.4221C79.8435 32.9419 79.2834 33.7824 77.8429 33.7824C76.4025 33.7824 75.8424 32.9419 75.8424 29.4221M71.2544 29.7635C71.2544 33.8612 72.6148 37.1709 77.8429 37.1709C83.0711 37.1709 84.4315 33.8612 84.4315 29.7635V24.5889C84.4315 20.4912 83.0711 17.1816 77.8429 17.1816C72.6148 17.1816 71.2544 20.4912 71.2544 24.5889V29.7635ZM90.1665 24.9566C90.1665 21.8571 90.8867 20.7539 92.087 20.7539C92.9139 20.7539 94.1676 21.5419 94.1676 25.3769V28.7391C94.1676 32.5741 93.0473 33.3621 92.007 33.3621C90.5399 33.3621 90.1398 32.2064 90.1398 28.0036V24.9566H90.1665ZM85.5785 29.2907C85.5785 33.2045 86.2987 36.7243 90.2198 36.7243C92.087 36.7243 93.074 36.3303 94.0876 34.5704H94.1676V37.2234C94.1676 39.7976 93.7675 41.0059 91.8736 41.0059C91.3401 41.0059 90.7266 40.6907 90.3799 39.8501C90.0864 39.1672 89.4463 38.5893 88.4593 38.5893C87.2056 38.5893 86.272 39.2985 86.272 40.4805C86.272 42.9759 88.7527 44.0529 92.007 44.0529C96.3816 44.0529 98.5689 42.1616 98.5689 37.8013V19.782C98.5689 18.0221 97.7153 17.2078 96.4883 17.2078C95.1279 17.2078 94.3276 18.0221 94.3276 19.782H94.2476C93.5541 18.1272 91.927 17.2078 90.2465 17.2078C86.5654 17.2078 85.6052 20.7276 85.6052 24.3525V29.2907H85.5785ZM100.009 34.5967C100.009 36.3566 100.863 37.1709 102.197 37.1709C103.53 37.1709 104.384 36.3566 104.384 34.5967V19.7557C104.384 17.9958 103.53 17.1816 102.197 17.1816C100.863 17.1816 100.009 17.9958 100.009 19.7557V34.5967ZM99.6892 13.2152C99.6892 14.5811 100.809 15.6843 102.197 15.6843C103.584 15.6843 104.704 14.5811 104.704 13.2152C104.704 11.8493 103.584 10.7461 102.197 10.7461C100.809 10.7461 99.6892 11.823 99.6892 13.2152ZM111.746 29.8161C112.973 30.7354 113.293 31.2608 113.293 32.2064C113.293 33.3359 112.733 33.9663 111.586 33.9663C110.226 33.9663 109.772 33.2308 109.692 32.4165C109.559 30.6303 108.999 29.7635 107.398 29.7635C106.358 29.7635 105.317 30.2889 105.317 31.9174C105.317 34.1501 106.651 37.1709 111.319 37.1709C114.894 37.1709 117.668 35.3059 117.668 31.576C117.668 29.0018 116.227 27.741 113.506 25.7184L110.812 23.6958C110.092 23.1705 109.852 22.4875 109.852 21.8571C109.852 20.9378 110.466 20.3862 111.346 20.3862C112.466 20.3862 113.16 21.0166 113.24 22.3299C113.32 23.3806 113.853 23.9847 115.027 23.9847C116.787 23.9847 117.321 23.1442 117.321 21.8571C117.321 20.3073 116.094 17.1553 111.453 17.1553C107.932 17.1553 105.478 18.8364 105.478 22.3037C105.478 24.3262 105.904 25.5082 108.412 27.347L111.746 29.8161ZM119.722 33.4147C119.722 35.2008 120.762 36.9345 124.123 36.9345C125.99 36.9345 126.87 36.3829 126.87 34.9119C126.87 33.7824 126.257 33.4409 125.27 33.3884C124.256 33.3096 124.096 32.8631 124.096 32.0488V20.8327H125.11C126.39 20.8327 127.03 20.4124 127.03 19.2567C127.03 18.0484 126.39 17.6281 125.11 17.6281H124.096V14.3447C124.096 12.5848 123.243 11.7705 121.909 11.7705C120.575 11.7705 119.722 12.5848 119.722 14.3447V17.6281H119.268C117.988 17.6281 117.348 18.0484 117.348 19.2567C117.348 20.4124 117.988 20.8327 119.268 20.8327H119.722V33.4147ZM128.097 34.5967C128.097 36.3566 128.951 37.1709 130.285 37.1709C131.618 37.1709 132.472 36.3566 132.472 34.5967V19.7557C132.472 17.9958 131.618 17.1816 130.285 17.1816C128.951 17.1816 128.097 17.9958 128.097 19.7557V34.5967ZM127.777 13.2152C127.777 14.5811 128.898 15.6843 130.285 15.6843C131.672 15.6843 132.792 14.5811 132.792 13.2152C132.792 11.8493 131.672 10.7461 130.285 10.7461C128.898 10.7461 127.777 11.823 127.777 13.2152ZM133.912 28.923C133.912 33.5197 134.472 37.1709 140.314 37.1709C145.462 37.1709 146.369 33.152 146.369 31.2608C146.369 29.6847 145.516 28.7654 144.209 28.7654C142.821 28.7654 142.101 29.4483 141.995 31.8649C141.968 33.3884 141.168 33.8087 140.341 33.8087C138.954 33.8087 138.474 32.469 138.474 29.2907V25.0617C138.474 22.5138 138.58 20.5963 140.341 20.5963C141.274 20.5963 141.995 21.2267 141.995 22.435C141.995 24.1949 142.741 24.8778 144.209 24.8778C145.436 24.8778 146.369 24.1424 146.369 22.435C146.369 20.7014 145.329 17.2078 140.314 17.2078C134.472 17.2078 133.912 20.8852 133.912 25.4557V28.923ZM153.918 29.8161C155.145 30.7354 155.465 31.2608 155.465 32.2064C155.465 33.3359 154.905 33.9663 153.758 33.9663C152.398 33.9663 151.944 33.2308 151.864 32.4165C151.731 30.6303 151.171 29.7635 149.57 29.7635C148.53 29.7635 147.489 30.2889 147.489 31.9174C147.489 34.1501 148.823 37.1709 153.518 37.1709C157.092 37.1709 159.866 35.3059 159.866 31.576C159.866 29.0018 158.426 27.741 155.705 25.7184L153.011 23.6958C152.291 23.1705 152.051 22.4875 152.051 21.8571C152.051 20.9378 152.664 20.3862 153.545 20.3862C154.665 20.3862 155.358 21.0166 155.438 22.3299C155.518 23.3806 156.052 23.9847 157.226 23.9847C158.986 23.9847 159.52 23.1442 159.52 21.8571C159.52 20.3073 158.293 17.1553 153.651 17.1553C150.13 17.1553 147.676 18.8364 147.676 22.3037C147.676 24.3262 148.103 25.5082 150.61 27.347L153.918 29.8161Z" fill="#6B7280"/>
<path d="M69.9193 34.5304V2.80028C69.9193 1.04187 69.0596 0.228271 67.7162 0.228271C66.3729 0.228271 65.5132 1.04187 65.5132 2.80028V25.0822L67.3132 26.5782L65.5132 28.0742V34.5567C65.5132 36.3151 66.3729 37.1287 67.7162 37.1287C69.0596 37.1024 69.9193 36.2888 69.9193 34.5304Z" fill="#6B7280"/>
<path d="M0 35.5483C0 36.7057 0.853296 37.4421 1.86659 37.4421C2.85321 37.4421 3.73317 36.7057 3.73317 35.5483V18.9509C3.73317 17.7935 2.87988 17.0571 1.86659 17.0571C0.879962 17.0571 0 17.7935 0 18.9509M5.67976 35.5483C5.67976 36.7057 6.53305 37.4421 7.54634 37.4421C8.53297 37.4421 9.41293 36.7057 9.41293 35.5483V24.6587H9.46626L13.8661 35.5746C14.4794 37.1002 15.1193 37.4421 16.6393 37.4421C17.6259 37.4421 18.5059 36.7057 18.5059 35.3905V18.9509C18.5059 17.7935 17.6526 17.0571 16.6393 17.0571C15.6527 17.0571 14.7727 17.7935 14.7727 18.9509V29.6827H14.7194L10.3196 18.9246C9.65292 17.3464 8.90628 17.0571 7.733 17.0571C6.42639 17.0571 5.67976 17.7935 5.67976 18.9509V35.5483ZM25.8122 29.4196C27.1722 30.3665 27.7055 30.9978 27.7055 32.3393C27.7055 33.6019 27.0122 34.6277 25.5456 34.6277C24.0523 34.6277 23.4123 33.5229 23.3323 32.2078C23.2257 30.4718 22.6657 29.8405 21.4924 29.8405C19.9191 29.8405 19.5992 31.0241 19.5992 32.313C19.5992 33.2599 20.2125 37.5211 25.0923 37.5211C29.3587 37.5211 31.412 35.3905 31.412 31.9974C31.412 29.1303 30.1854 27.7099 28.1854 26.3947L25.4389 24.6324C23.599 23.4225 23.439 22.6071 23.439 21.7127C23.439 20.5291 24.2656 19.8189 25.4122 19.8189C26.4522 19.8189 27.2522 20.2924 27.4121 21.6601C27.5721 23.0542 27.8121 23.7381 29.3054 23.7381C30.3454 23.7381 31.1453 23.1068 31.1453 21.8706C31.1453 19.8452 29.7854 16.9255 25.6256 16.9255C22.479 16.9255 19.7591 18.5826 19.7591 22.0547C19.7591 24.0537 20.3458 25.553 22.2657 26.9208L25.8122 29.4196ZM32.6919 35.5483C32.6919 36.7057 33.5452 37.4421 34.5585 37.4421C35.5451 37.4421 36.4251 36.7057 36.4251 35.5483V18.9509C36.4251 17.7935 35.5718 17.0571 34.5585 17.0571C33.5719 17.0571 32.6919 17.7935 32.6919 18.9509V35.5483ZM42.1048 20.2924H43.9448C46.238 20.2924 46.7446 21.9495 46.7446 26.2632V27.8414C46.7446 32.918 45.7847 34.1542 43.8381 34.1542H42.1315V20.2924H42.1048ZM38.3717 35.1011C38.3717 36.4689 39.0116 37.0739 40.3716 37.0739H45.0381C48.5579 37.0739 50.5845 34.4436 50.5845 28.5516V26.0002C50.5845 20.0556 49.0379 17.399 45.2247 17.399H40.3716C39.0116 17.399 38.3717 18.004 38.3717 19.3717V35.1011ZM63.4373 19.0035C63.4373 19.9241 62.8773 20.6343 61.4907 20.6343H55.9709V25.1585H60.2641L61.8907 26.7104L60.2641 28.4201H55.9709V33.7071H61.6773C63.0639 33.7071 63.6239 34.4173 63.6239 35.3379C63.6239 36.2585 63.0639 36.9687 61.6773 36.9687H54.2643C52.9044 36.9687 52.2644 36.3637 52.2644 34.9959V19.2665C52.2644 17.8988 52.9044 17.2938 54.2643 17.2938H61.4907C62.8773 17.3727 63.4373 18.0829 63.4373 19.0035ZM7.70633 42.0715V41.9663C7.70633 40.6775 8.18631 40.0988 8.77295 40.0988C8.95961 40.0988 9.03961 40.1251 9.17294 40.1777V40.5459C9.03961 40.467 8.93295 40.4144 8.79962 40.4144C8.39964 40.4144 8.07965 40.8879 8.07965 41.94V42.0452C8.07965 43.0974 8.39964 43.5708 8.79962 43.5708C8.93295 43.5708 9.03961 43.5445 9.1996 43.4393V43.7812C9.06627 43.8602 8.93295 43.8865 8.77295 43.8865C8.15965 43.9391 7.70633 43.3341 7.70633 42.0715ZM10.9062 40.0988H11.3062L12.1328 43.9391H11.7595L11.5462 42.9395H10.6395L10.4529 43.9391H10.1062L10.9062 40.0988ZM11.4928 42.6239L11.0929 40.7038L10.6929 42.6239H11.4928ZM13.1194 40.0988H13.4661L14.5327 42.9659V40.0988H14.8794V43.9128H14.5327L13.4394 40.9668V43.9128H13.0928V40.0988H13.1194ZM16.6926 40.0988H17.0926L17.9192 43.9391H17.5459L17.3326 42.9395H16.426L16.2393 43.9391H15.8926L16.6926 40.0988ZM17.2793 42.6239L16.8793 40.7038L16.4793 42.6239H17.2793ZM18.9058 40.0988H19.4125C20.1591 40.0988 20.6924 40.7301 20.6924 41.9663V42.0715C20.6924 43.2815 20.1858 43.9128 19.4125 43.9128H18.9058V40.0988ZM19.4392 43.5971C19.9458 43.5971 20.3191 43.1237 20.3191 42.0715V41.9663C20.3191 40.9142 19.9191 40.4407 19.4392 40.4407H19.2792V43.6234H19.4392V43.5971ZM22.2657 40.0988H22.6657L23.4923 43.9391H23.119L22.9057 42.9395H21.9991L21.8124 43.9391H21.4391L22.2657 40.0988ZM22.8523 42.6239L22.4524 40.7038L22.0524 42.6239H22.8523ZM24.1056 41.0983C24.3723 40.9931 24.4523 40.8353 24.4256 40.6248H24.2123V40.0988H24.6656V40.5459C24.6656 40.9405 24.5056 41.1509 24.1323 41.2824L24.1056 41.0983ZM25.7056 43.7812V43.3867C25.9722 43.5445 26.1855 43.6234 26.3722 43.6234C26.6655 43.6234 26.8522 43.4393 26.8522 43.1237C26.8522 42.8343 26.7455 42.6502 26.3455 42.1504C25.8389 41.5192 25.7056 41.2824 25.7056 40.9142C25.7056 40.4144 26.0522 40.0725 26.5055 40.0725C26.7455 40.0725 26.9055 40.1251 27.0922 40.2303V40.6248C26.8788 40.4933 26.6922 40.4144 26.5322 40.4144C26.2655 40.4144 26.0522 40.5985 26.0522 40.8879C26.0522 41.1509 26.1589 41.335 26.5589 41.8085C27.0388 42.3872 27.1988 42.6765 27.1988 43.0974C27.1988 43.6234 26.8255 43.9391 26.3722 43.9391C26.1322 43.9654 25.9189 43.8865 25.7056 43.7812ZM29.6521 43.7812V43.3867C29.9187 43.5445 30.132 43.6234 30.3187 43.6234C30.612 43.6234 30.7987 43.4393 30.7987 43.1237C30.7987 42.8343 30.692 42.6502 30.292 42.1504C29.7854 41.5192 29.6521 41.2824 29.6521 40.9142C29.6521 40.4144 29.9987 40.0725 30.452 40.0725C30.692 40.0725 30.852 40.1251 31.0387 40.2303V40.6248C30.8253 40.4933 30.6387 40.4144 30.4787 40.4144C30.212 40.4144 29.9987 40.5985 29.9987 40.8879C29.9987 41.1509 30.1054 41.335 30.5054 41.8085C30.9853 42.3872 31.1453 42.6765 31.1453 43.0974C31.1453 43.6234 30.772 43.9391 30.3187 43.9391C30.0787 43.9654 29.8654 43.8865 29.6521 43.7812ZM32.1853 42.9132V40.0988H32.5319V42.9132C32.5319 43.3867 32.7186 43.6234 33.0386 43.6234C33.3586 43.6234 33.5452 43.3867 33.5452 42.9132V40.0988H33.8919V42.9132C33.8919 43.5971 33.5452 43.9654 33.0119 43.9654C32.4786 43.9654 32.1853 43.5708 32.1853 42.9132ZM35.0918 40.0988H35.5985C36.2918 40.0988 36.7451 40.5459 36.7451 41.3087C36.7451 42.0715 36.3184 42.545 35.5985 42.545H35.4385V43.8865H35.0918V40.0988ZM35.6251 42.2557C36.1051 42.2557 36.3984 41.94 36.3984 41.3613C36.3984 40.7827 36.1051 40.467 35.6251 40.467H35.4385V42.282H35.6251V42.2557ZM37.7317 40.0988H38.2383C38.9316 40.0988 39.385 40.5459 39.385 41.3087C39.385 42.0715 38.9583 42.545 38.2383 42.545H38.0784V43.8865H37.7317V40.0988ZM38.265 42.2557C38.745 42.2557 39.0383 41.94 39.0383 41.3613C39.0383 40.7827 38.745 40.467 38.265 40.467H38.105V42.282H38.265V42.2557ZM40.3983 40.0988H40.7449V43.5971H41.6515V43.9391H40.3983V40.0988ZM42.8781 42.3083L42.1048 40.0988H42.4782L43.0648 41.8611L43.6514 40.0988H44.0248L43.2515 42.3083V43.9128H42.9048V42.3083H42.8781ZM46.3447 42.0715V41.9663C46.3447 40.6775 46.8246 40.0988 47.4113 40.0988C47.5979 40.0988 47.6779 40.1251 47.8113 40.1777V40.5459C47.6779 40.467 47.5713 40.4144 47.438 40.4144C47.038 40.4144 46.718 40.8879 46.718 41.94V42.0452C46.718 43.0974 47.038 43.5708 47.438 43.5708C47.5713 43.5708 47.6779 43.5445 47.8379 43.4393V43.7812C47.7046 43.8602 47.5713 43.8865 47.4113 43.8865C46.8246 43.9391 46.3447 43.3341 46.3447 42.0715ZM48.9046 40.0988H49.2512V41.8348H50.2912V40.0988H50.6378V43.9128H50.2912V42.1504H49.2512V43.9128H48.9046V40.0988ZM52.4777 40.0988H52.8777L53.7043 43.9391H53.331L53.1177 42.9395H52.2111L52.0244 43.9391H51.6778L52.4777 40.0988ZM53.0377 42.6239L52.6377 40.7038L52.2377 42.6239H53.0377ZM54.691 40.0988H55.0376V43.9128H54.691V40.0988ZM56.2642 40.0988H56.6109L57.6775 42.9659V40.0988H58.0242V43.9128H57.7042L56.6109 40.9668V43.9128H56.2642V40.0988ZM60.6907 40.0988H61.0907L61.7307 42.0452L62.3706 40.0988H62.7706V43.9128H62.424V40.8879L61.7307 42.8869H61.704L61.0107 40.8879V43.9128H60.664V40.0988H60.6907ZM64.6105 40.0988H65.0105L65.8372 43.9391H65.4638L65.2505 42.9395H64.3439L64.1572 43.9391H63.8106L64.6105 40.0988ZM65.1972 42.6239L64.7972 40.7038L64.3972 42.6239H65.1972ZM66.5838 42.0715V41.9663C66.5838 40.7301 67.1438 40.0725 67.7837 40.0725C67.9971 40.0725 68.1304 40.1251 68.2637 40.204V40.5722C68.1037 40.467 67.9437 40.4144 67.7837 40.4144C67.3304 40.4144 66.9304 40.9142 66.9304 41.94V42.0715C66.9304 43.15 67.3038 43.6234 67.7837 43.6234C67.8637 43.6234 67.9171 43.6234 67.9971 43.5971V42.2294H67.4904V41.9137H68.3437V43.8339C68.1304 43.9391 67.9971 43.9654 67.7837 43.9654C67.1171 43.9654 66.5838 43.3341 66.5838 42.0715ZM70.1303 40.0988H70.5303L71.3569 43.9391H70.9836L70.7703 42.9395H69.8636L69.677 43.9391H69.3303L70.1303 40.0988ZM70.7169 42.6239L70.317 40.7038L69.917 42.6239H70.7169ZM72.2102 43.676L73.3835 40.4144H72.2635V40.0988H73.7835V40.3355L72.6102 43.5971H73.7835V43.9128H72.2102V43.676ZM74.8501 40.0988H75.1968V43.9128H74.8501V40.0988ZM76.3967 40.0988H76.7433L77.81 42.9659V40.0988H78.1566V43.9128H77.81L76.7167 40.9668V43.9128H76.37V40.0988H76.3967ZM79.3299 40.0988H80.6898V40.4407H79.6766V41.8348H80.5832V42.1768H79.6766V43.5971H80.6898V43.9391H79.3032V40.0988H79.3299Z" fill="#4B5563"/>
<path d="M0.741533 39.1514C0.741533 39.1514 0 39.1514 0 39.9144V43.4653C0 43.4653 -4.07989e-07 44.2283 0.741533 44.2283H4.39216C4.39216 44.2283 5.13369 44.2283 5.13369 43.4653V39.9144C5.13369 39.9144 5.13369 39.1514 4.39216 39.1514" fill="#6B7280"/>
<path d="M2.68231 43.7899H2.52513L2.55133 43.2318L1.47726 43.3381L1.58205 42.966L0.53418 42.0358L0.796147 41.8764L0.612771 41.1588L1.24149 41.2651L1.37247 40.9461L1.9488 41.5308L1.76542 40.2551L2.18457 40.4412L2.60372 39.6704L2.99667 40.4412L3.41582 40.2551L3.25864 41.5308L3.83497 40.9196L3.93975 41.2651L4.59467 41.1322L4.3851 41.9029L4.67326 42.0624L3.62539 42.966L3.73018 43.3381L2.68231 43.2318" fill="white"/>
</svg>
