<svg width="105" height="24" viewBox="0 0 105 24" fill="none" xmlns="http://www.w3.org/2000/svg">
<g clip-path="url(#clip0_819_1217)">
<path d="M4.55011 4.59766C4.19942 4.59766 3.89258 4.87971 3.89258 5.24854V22.6053C3.89258 22.9524 4.17751 23.2562 4.55011 23.2562C4.90079 23.2562 5.20764 22.9741 5.20764 22.6053V5.24854C5.20764 4.9014 4.92271 4.59766 4.55011 4.59766Z" fill="#6B7280"/>
<path d="M1.59113 4.59766C1.24044 4.59766 0.933594 4.87971 0.933594 5.24854V22.6053C0.933594 22.9524 1.21853 23.2562 1.59113 23.2562C1.96373 23.2562 2.24866 22.9741 2.24866 22.6053V5.24854C2.24866 4.9014 1.94181 4.59766 1.59113 4.59766Z" fill="#6B7280"/>
<path d="M8.62718 4.59766H8.53944C8.21073 4.59766 7.92578 4.85801 7.92578 5.20515V22.6704C7.92578 22.9958 8.18878 23.2779 8.53944 23.2779H8.62718C8.95589 23.2779 9.24084 23.0175 9.24084 22.6704V5.20515C9.21895 4.87971 8.95589 4.59766 8.62718 4.59766Z" fill="#6B7280"/>
<path d="M14.6984 4.33984C13.5149 4.33984 12.3313 4.62189 11.2135 5.18598C11.0163 5.29446 10.8848 5.48973 10.8848 5.72838C10.8848 5.94534 10.9944 6.14061 11.1916 6.24909C11.3669 6.35754 11.608 6.35754 11.7834 6.24909C12.6163 5.79347 13.5807 5.57651 14.6984 5.57651C18.0081 5.57651 20.156 7.63762 20.156 10.8486V22.6729C20.156 22.9984 20.419 23.2804 20.7697 23.2804H20.8573C21.1861 23.2804 21.4711 23.02 21.4711 22.6729V10.8486C21.4711 6.89994 18.7971 4.33984 14.6984 4.33984Z" fill="#6B7280"/>
<path d="M14.6984 7.13672C12.5286 7.13672 10.8848 8.72047 10.8848 10.8467V22.671C10.8848 22.9964 11.1478 23.2785 11.4984 23.2785H11.5862C11.9149 23.2785 12.1998 23.0182 12.1998 22.671V10.8467C12.1998 9.50154 13.3395 8.37335 14.6984 8.37335C16.0573 8.37335 17.1971 9.50154 17.1971 10.8467V22.671C17.1971 22.9964 17.4601 23.2785 17.8108 23.2785H17.8984C18.2272 23.2785 18.5122 23.0182 18.5122 22.671V10.8467C18.5122 8.72047 16.8683 7.13672 14.6984 7.13672Z" fill="#6B7280"/>
<path d="M29.9304 22.0431H28.44C26.5332 22.0431 25.0865 20.6763 25.0865 18.8755V0.65088C25.0865 0.303743 24.8017 0 24.429 0C24.0783 0 23.7715 0.282047 23.7715 0.65088V18.8538C23.7715 21.2837 25.766 23.258 28.2208 23.258H29.9304C30.2811 23.258 30.5441 22.976 30.5441 22.6506C30.5441 22.3251 30.2811 22.0431 29.9304 22.0431Z" fill="#6B7280"/>
<path d="M29.9305 4.59954H28.0455V0.65088C28.0455 0.303743 27.7606 0 27.388 0C27.0154 0 26.7305 0.282047 26.7305 0.65088V5.83621H29.9305C30.2811 5.83621 30.5442 5.55416 30.5442 5.22872C30.5442 4.88159 30.2811 4.59954 29.9305 4.59954Z" fill="#6B7280"/>
<path d="M29.9305 8.63684C30.2811 8.63684 30.5442 8.35484 30.5442 8.02939C30.5442 7.70394 30.2593 7.42188 29.9305 7.42188H26.7305V18.8773C26.7305 19.7669 27.4537 20.4829 28.3524 20.4829H29.9305C30.2811 20.4829 30.5442 20.2008 30.5442 19.8753C30.5442 19.5282 30.2593 19.2679 29.9305 19.2679H28.4401C28.2209 19.2679 28.0455 19.0726 28.0455 18.8773V8.63684H29.9305Z" fill="#6B7280"/>
<path d="M39.093 7.13672C36.9231 7.13672 35.2793 8.72047 35.2793 10.8467V13.1898H42.9067V10.8467C42.9067 8.72047 41.2629 7.13672 39.093 7.13672ZM36.5944 11.9532V10.8467C36.5944 9.50154 37.7341 8.37335 39.093 8.37335C40.4519 8.37335 41.5916 9.50154 41.5916 10.8467V11.9532H36.5944Z" fill="#6B7280"/>
<path d="M45.1422 17.3335C45.5367 17.3335 45.8436 17.6807 45.7997 18.0712C45.3614 21.4124 42.819 23.5169 39.0929 23.5169C34.9724 23.5169 32.3203 20.9568 32.3203 17.0298V10.8465C32.3203 6.89782 34.9724 4.35938 39.0929 4.35938C43.2135 4.35938 45.8655 6.89782 45.8655 10.8465V15.2941C45.8655 15.6847 45.5587 15.9884 45.1641 15.9884H36.5943V16.943C36.5943 18.0712 37.3175 19.0692 38.3696 19.3947C39.1148 19.6333 39.9258 19.5031 40.5614 19.0258C40.9998 18.7004 41.3066 18.2665 41.4819 17.7891C41.5696 17.5288 41.8107 17.3335 42.0956 17.3335H42.1176C42.5559 17.3335 42.8847 17.7675 42.7532 18.1797C42.271 19.6767 40.8682 20.7181 39.1148 20.7181C36.9449 20.7181 35.3012 19.1343 35.3012 17.0081V14.7518H44.5505V10.8465C44.5505 7.63544 42.4025 5.57434 39.0929 5.57434C35.7833 5.57434 33.6354 7.63544 33.6354 10.8465V17.0298C33.6354 20.2408 35.7833 22.3019 39.0929 22.3019C42.0957 22.3019 44.134 20.6097 44.5066 17.9193C44.5505 17.5939 44.8135 17.3335 45.1422 17.3335Z" fill="#6B7280"/>
<path d="M48.8451 0C48.4943 0 48.1875 0.282047 48.1875 0.65088V22.6072C48.1875 22.9543 48.4724 23.258 48.8451 23.258C49.2176 23.258 49.5026 22.976 49.5026 22.6072V0.65088C49.5026 0.282047 49.2176 0 48.8451 0Z" fill="#6B7280"/>
<path d="M51.8274 0C51.4768 0 51.1699 0.282047 51.1699 0.65088V22.6072C51.1699 22.9543 51.4548 23.258 51.8274 23.258C52.1781 23.258 52.485 22.976 52.485 22.6072V0.65088C52.485 0.282047 52.1781 0 51.8274 0Z" fill="#6B7280"/>
<path d="M64.7355 12.0183C65.086 12.0183 65.3929 11.7363 65.3929 11.3674V10.8467C65.3929 8.74219 63.7492 7.13672 61.5793 7.13672C59.4095 7.13672 57.7656 8.72047 57.7656 10.8467V17.03C57.7656 19.1346 59.4095 20.74 61.5793 20.74C63.7492 20.74 65.3929 19.1562 65.3929 17.03V16.5094C65.3929 16.1622 65.1083 15.8584 64.7355 15.8584C64.3629 15.8584 64.078 16.1405 64.078 16.5094V17.03C64.078 18.3752 62.9383 19.5033 61.5793 19.5033C60.2204 19.5033 59.0807 18.3752 59.0807 17.03V10.8467C59.0807 9.50154 60.2204 8.37335 61.5793 8.37335C62.9383 8.37335 64.078 9.50154 64.078 10.8467V11.3674C64.078 11.7145 64.3848 12.0183 64.7355 12.0183Z" fill="#6B7280"/>
<path d="M61.5793 4.33984C57.4587 4.33984 54.8066 6.89994 54.8066 10.8269V17.0103C54.8066 20.9589 57.4587 23.4974 61.5793 23.4974C65.6998 23.4974 68.3515 20.9372 68.3515 17.0103V16.4896C68.3515 16.1425 68.067 15.8387 67.6943 15.8387C67.3217 15.8387 67.0365 16.1207 67.0365 16.4896V17.0103C67.0365 20.2213 64.8889 22.2824 61.5793 22.2824C58.2697 22.2824 56.1217 20.2213 56.1217 17.0103V10.8486C56.1217 7.63762 58.2697 5.57651 61.5793 5.57651C64.8889 5.57651 67.0365 7.63762 67.0365 10.8486V11.3693C67.0365 11.7165 67.3217 12.0202 67.6943 12.0202C68.067 12.0202 68.3515 11.7381 68.3515 11.3693V10.8486C68.3515 6.89994 65.6998 4.33984 61.5793 4.33984Z" fill="#6B7280"/>
<path d="M77.0104 4.33984C72.89 4.33984 70.2383 6.89994 70.2383 10.8703V16.9886C70.2383 20.9589 72.89 23.5191 77.0104 23.5191C81.1315 23.5191 83.7832 20.9589 83.7832 16.9886V10.8703C83.7832 6.89994 81.1092 4.33984 77.0104 4.33984ZM82.4682 10.8703V16.9886C82.4682 20.2213 80.3199 22.3041 77.0104 22.3041C73.7009 22.3041 71.5533 20.2213 71.5533 16.9886V10.8703C71.5533 7.63762 73.7009 5.55481 77.0104 5.55481C80.3199 5.57651 82.4682 7.65935 82.4682 10.8703Z" fill="#6B7280"/>
<path d="M77.0095 7.13672C74.8612 7.13672 73.1953 8.78558 73.1953 10.8684V16.9866C73.1953 19.0912 74.8612 20.7184 77.0095 20.7184C79.1571 20.7184 80.823 19.0695 80.823 16.9866V10.8684C80.823 8.78558 79.1354 7.13672 77.0095 7.13672ZM79.508 10.8684V16.9866C79.508 18.3318 78.3462 19.5033 77.0095 19.5033C75.6722 19.5033 74.5103 18.3318 74.5103 16.9866V10.8684C74.5103 9.52327 75.6722 8.35169 77.0095 8.35169C78.3245 8.35169 79.508 9.54493 79.508 10.8684Z" fill="#6B7280"/>
<path d="M98.8193 4.33984C97.4379 4.33984 96.2327 4.77376 95.2246 5.6416C94.2165 4.77376 92.9889 4.33984 91.5859 4.33984C90.4246 4.33984 89.4165 4.88224 89.0439 5.1209C88.8901 5.22938 88.8027 5.38125 88.8027 5.57651C88.8027 5.77177 88.9125 5.94534 89.0656 6.05382C89.2411 6.1623 89.4382 6.1623 89.6137 6.07552C90.2275 5.75008 90.907 5.57651 91.5859 5.57651C93.0763 5.57651 94.4577 6.22739 95.1365 7.24712L95.2246 7.37728L95.312 7.24712C96.0796 6.22739 97.4162 5.57651 98.8193 5.57651C101.559 5.57651 103.268 7.20373 103.268 9.82895V22.6078C103.268 22.955 103.554 23.2587 103.926 23.2587C104.299 23.2587 104.583 22.9767 104.583 22.6078V9.82895C104.562 6.44438 102.37 4.33984 98.8193 4.33984Z" fill="#6B7280"/>
<path d="M86.4775 4.59766C86.1272 4.59766 85.8203 4.87971 85.8203 5.24854V22.6053C85.8203 22.9524 86.1049 23.2562 86.4775 23.2562C86.8284 23.2562 87.1353 22.9741 87.1353 22.6053V5.24854C87.1353 4.9014 86.8501 4.59766 86.4775 4.59766Z" fill="#6B7280"/>
<path d="M94.5762 9.85974C94.5762 8.32443 93.2924 7.07422 91.7165 7.07422C90.1405 7.07422 88.8574 8.32443 88.8574 9.85974V22.6907C88.8574 23.0417 89.1496 23.3487 89.5325 23.3487C89.893 23.3487 90.2081 23.0636 90.2081 22.6907V9.85974C90.2081 9.04822 90.8838 8.39024 91.7165 8.39024C92.5497 8.39024 93.2248 9.04822 93.2248 9.85974V22.6907C93.2248 23.0417 93.5176 23.3487 93.9005 23.3487C94.2603 23.3487 94.5762 23.0636 94.5762 22.6907V9.85974Z" fill="#6B7280"/>
<path d="M101.723 9.85973C101.723 8.32443 100.439 7.07422 98.863 7.07422C97.287 7.07422 96.0039 8.32443 96.0039 9.85973V22.6907C96.0039 23.0417 96.2968 23.3487 96.6789 23.3487C97.0394 23.3487 97.3546 23.0636 97.3546 22.6907V9.85973C97.3546 9.04822 98.0303 8.39024 98.863 8.39024C99.6962 8.39024 100.371 9.04822 100.371 9.85973V22.6907C100.371 23.0417 100.664 23.3487 101.047 23.3487C101.407 23.3487 101.723 23.0636 101.723 22.6907V9.85973Z" fill="#6B7280"/>
</g>
<defs>
<clipPath id="clip0_819_1217">
<rect width="104" height="24" fill="white" transform="translate(0.933594)"/>
</clipPath>
</defs>
</svg>
