<svg width="132" height="55" viewBox="0 0 132 55" fill="none" xmlns="http://www.w3.org/2000/svg">
<path d="M0 54.0636V7.646H132L115.222 54.0636H0Z" fill="#6B7280"/>
<path d="M24.7318 14.0587C28.146 14.0587 30.0278 16.0195 30.0278 19.4812V27.1307H26.7212V19.7475C26.7212 17.6414 25.9415 16.7216 24.221 16.7216C22.2048 16.7216 21.5058 17.6414 21.5058 19.7475V27.1307H18.1722V19.7475C18.1722 17.7383 17.3389 16.7216 15.699 16.7216C13.6827 16.7216 12.9569 17.6899 12.9569 19.7959V27.1307H9.65021V14.325H12.1235C12.3654 14.325 12.6343 14.5187 12.6343 14.785V15.7048C13.5483 14.6155 14.7581 14.0587 16.2366 14.0587C18.2798 14.0587 19.7315 14.7366 20.6186 16.0922C21.6402 14.7366 23.0113 14.0587 24.7318 14.0587Z" fill="white"/>
<path d="M44.9298 24.2985L44.9567 24.3227C45.1987 24.3953 45.3062 24.6374 45.3062 25.0489V27.1549H44.9298C43.3168 27.1549 42.1877 26.6224 41.5156 25.5815C40.3865 26.7676 38.6929 27.3728 36.4347 27.3728C33.6388 27.3728 31.8376 25.9204 31.8376 23.6207C31.8376 21.3694 33.585 19.8443 36.9992 19.457C37.9133 19.3602 38.666 19.2391 39.2843 19.1181C39.9026 18.9971 40.279 18.876 40.4672 18.8034C40.6554 18.7066 40.8436 18.5855 41.0855 18.4161V18.3435C41.0855 17.3994 39.9833 16.6489 38.3972 16.6489C37.4563 16.6489 36.7304 16.8184 36.1927 17.1089C35.9777 17.2057 35.8164 17.2783 35.7357 17.351C35.5475 17.4478 35.1174 17.7867 35.0367 17.8109C34.4991 18.1014 33.8808 18.0288 33.5582 17.6656L32.4291 16.4795C32.9398 15.8743 33.6657 15.3175 34.6604 14.8092C35.6551 14.3008 36.8111 14.0345 38.1552 14.0345C42.134 14.0345 44.3653 15.7533 44.3653 19.1181V23.4028C44.3653 23.8627 44.5535 24.1774 44.9298 24.2985ZM36.8917 24.831C39.6876 24.831 41.0855 23.6449 41.0855 21.2968V20.8852C40.3597 21.442 39.2306 21.7809 37.6444 21.8777C35.8164 22.0472 35.0367 22.5071 35.0367 23.4996C35.0367 24.2985 35.7357 24.831 36.8917 24.831Z" fill="white"/>
<path d="M54.5982 14.325H54.867V16.1164C54.867 16.5763 54.5444 16.8668 54.0336 16.8668H53.7917C51.4528 16.8668 50.1893 18.2708 50.1893 20.5705V27.1307H46.8827V14.325H49.3559C49.6517 14.325 49.8936 14.5187 49.8936 14.785V16.189C51.0496 14.9544 52.6088 14.325 54.5982 14.325Z" fill="white"/>
<path d="M57.8605 12.7758C56.7583 12.7758 55.9787 12.0495 55.9787 11.0812C55.9787 10.0887 56.7852 9.38672 57.8605 9.38672C58.9628 9.38672 59.7424 10.0887 59.7424 11.0812C59.7424 12.0495 58.9628 12.7758 57.8605 12.7758ZM59.5273 27.1307H56.1938V14.325H59.5273V27.1307Z" fill="white"/>
<path d="M71.0158 14.325V16.9636H66.6875V22.7976C66.6875 23.7659 67.3327 24.3953 68.3812 24.3953H70.1824C70.6394 24.3953 71.0158 24.7584 71.0158 25.1699V27.1792H68.1661C65.1821 27.1792 63.354 25.5088 63.354 22.7976V16.9636H61.9292C61.4184 16.9636 61.0958 16.6731 61.0958 16.2132V14.325H63.354V10.0403H66.6875V14.325H71.0158Z" fill="white"/>
<path d="M74.8086 12.7758C73.7064 12.7758 72.9268 12.0495 72.9268 11.0812C72.9268 10.0887 73.7333 9.38672 74.8086 9.38672C75.9109 9.38672 76.6905 10.0887 76.6905 11.0812C76.6905 12.0495 75.9109 12.7758 74.8086 12.7758ZM76.4754 27.1307H73.1419V14.325H76.4754V27.1307Z" fill="white"/>
<path d="M94.846 14.0587C98.2602 14.0587 100.142 16.0195 100.142 19.4812V27.1307H96.8354V19.7475C96.8354 17.6414 96.0558 16.7216 94.3352 16.7216C92.319 16.7216 91.62 17.6414 91.62 19.7475V27.1307H88.2865V19.7475C88.2865 17.7383 87.4531 16.7216 85.8132 16.7216C83.7969 16.7216 83.0711 17.6899 83.0711 19.7959V27.1307H79.7644V14.325H82.2377C82.4796 14.325 82.7485 14.5187 82.7485 14.785V15.7048C83.6625 14.6155 84.8723 14.0587 86.3509 14.0587C88.394 14.0587 89.8457 14.7366 90.7328 16.0922C91.7544 14.7366 93.1255 14.0587 94.846 14.0587Z" fill="white"/>
<path d="M116.334 20.8852V21.321C116.334 21.5872 116.092 21.7809 115.797 21.7809H105.447C105.85 23.5965 107.167 24.7584 109.183 24.7584C110.689 24.7584 111.818 24.0806 112.356 23.0397C112.517 22.8218 112.732 22.7492 113.001 22.8218L115.77 23.6449C114.802 25.993 112.409 27.4212 109.183 27.4212C107.006 27.4212 105.258 26.816 103.941 25.6057C102.651 24.3711 102.006 22.7734 102.006 20.7642C102.006 18.755 102.651 17.1331 103.968 15.8985C105.285 14.6639 107.006 14.0345 109.183 14.0345C111.361 14.0345 113.082 14.6639 114.372 15.9227C115.689 17.1815 116.334 18.8276 116.334 20.8852ZM109.183 16.6974C107.329 16.6974 106.011 17.6414 105.554 19.2633H112.786C112.329 17.6899 111.012 16.6974 109.183 16.6974Z" fill="white"/>
<path d="M13.7096 43.8043H17.312C20.6186 43.8043 22.2854 44.8694 22.2854 46.9754C22.2854 49.1783 19.9734 50.5823 15.242 50.5823C10.9137 50.5823 8.41357 49.1299 8.41357 46.9754C8.41357 45.7166 9.24696 44.7241 10.1341 44.4094C9.70398 44.3126 9.03189 43.6348 9.03189 42.7875C9.03189 41.8919 9.48891 41.2383 10.4298 40.7783C9.40826 39.9069 8.89748 38.8175 8.89748 37.5103C8.89748 34.5328 11.2363 32.8625 14.8118 32.8625C16.2366 32.8625 17.3926 33.1046 18.3335 33.5887C18.7368 33.2982 19.2207 33.153 19.7853 33.153H21.5864V34.9443C21.5864 35.3317 21.2638 35.6222 20.8337 35.6222H20.3498C20.5918 36.1547 20.7262 36.7841 20.7262 37.5103C20.7262 40.4394 18.3335 42.1339 14.5968 42.1339H13.5214C12.5267 42.1339 12.0159 42.4002 12.0159 42.9328C12.0159 43.5138 12.5805 43.8043 13.7096 43.8043ZM14.8118 39.5922C16.5324 39.5922 17.6346 38.7933 17.6346 37.5103C17.6346 36.8567 17.3657 36.3484 16.855 35.9853C16.3442 35.6222 15.6452 35.4527 14.8118 35.4527C13.9784 35.4527 13.2795 35.6222 12.7687 35.9853C12.2579 36.3484 12.0159 36.8567 12.0159 37.5103C12.0159 38.8417 13.1719 39.5922 14.8118 39.5922ZM15.2688 48.0405C17.9303 48.0405 19.2745 47.6532 19.2745 46.8786C19.2745 46.2976 18.6293 46.0071 17.312 46.0071H13.5752C12.2041 46.0071 11.532 46.2976 11.532 46.8786C11.532 47.5564 13.0106 48.0405 15.2688 48.0405Z" fill="white"/>
<path d="M35.3474 43.1264L35.3743 43.1507C35.6162 43.2233 35.7237 43.4654 35.7237 43.8769V45.9829H35.3474C33.7344 45.9829 32.6053 45.4504 31.9332 44.4094C30.8041 45.5956 29.1104 46.2008 26.8522 46.2008C24.0564 46.2008 22.2552 44.7483 22.2552 42.4486C22.2552 40.1973 24.0026 38.6723 27.4168 38.285C28.3308 38.1881 29.0835 38.0671 29.7019 37.9461C30.3202 37.825 30.6965 37.704 30.8847 37.6314C31.0729 37.5345 31.2611 37.4135 31.503 37.244V37.1714C31.503 36.2273 30.4008 35.4769 28.8147 35.4769C27.8738 35.4769 27.1479 35.6464 26.6103 35.9368C26.3952 36.0337 26.2339 36.1063 26.1533 36.1789C25.9651 36.2758 25.5349 36.6147 25.4543 36.6389C24.9166 36.9294 24.2983 36.8567 23.9757 36.4936L22.8466 35.3075C23.3574 34.7023 24.0832 34.1455 25.0779 33.6371C26.0726 33.1288 27.2286 32.8625 28.5728 32.8625C32.5515 32.8625 34.7828 34.5812 34.7828 37.9461V42.2308C34.7828 42.6907 34.971 43.0054 35.3474 43.1264ZM27.3092 43.659C30.1051 43.659 31.503 42.4728 31.503 40.1247V39.7132C30.7772 40.27 29.6481 40.6089 28.062 40.7057C26.2339 40.8752 25.4543 41.3351 25.4543 42.3276C25.4543 43.1264 26.1533 43.659 27.3092 43.659Z" fill="white"/>
<path d="M45.9029 33.153V35.7916H41.5747V41.6256C41.5747 42.5939 42.2199 43.2233 43.2683 43.2233H45.0695C45.5265 43.2233 45.9029 43.5864 45.9029 43.9979V46.0071H43.0532C40.0692 46.0071 38.2411 44.3368 38.2411 41.6256V35.7916H36.8163C36.3055 35.7916 35.9829 35.5011 35.9829 35.0412V33.153H38.2411V28.8683H41.5747V33.153H45.9029Z" fill="white"/>
<path d="M61.2518 39.7132V40.1489C61.2518 40.4152 61.0099 40.6089 60.7142 40.6089H50.3641C50.7673 42.4244 52.0846 43.5864 54.1009 43.5864C55.6063 43.5864 56.7354 42.9086 57.2731 41.8677C57.4344 41.6498 57.6495 41.5772 57.9183 41.6498L60.6873 42.4728C59.7195 44.821 57.3269 46.2492 54.1009 46.2492C51.9233 46.2492 50.1759 45.644 48.8586 44.4336C47.5682 43.1991 46.923 41.6014 46.923 39.5922C46.923 37.583 47.5682 35.9611 48.8855 34.7265C50.2028 33.4919 51.9233 32.8625 54.1009 32.8625C56.2784 32.8625 57.9989 33.4919 59.2894 34.7507C60.6066 36.0095 61.2518 37.6556 61.2518 39.7132ZM54.1009 35.5253C52.2459 35.5253 50.9286 36.4694 50.4716 38.0913H57.7032C57.2462 36.5178 55.9289 35.5253 54.1009 35.5253Z" fill="white"/>
<path d="M75.6172 41.2141L78.198 33.153H81.5316L77.284 45.9587H73.7085L71.3697 38.6239C71.3428 38.5755 71.3428 38.5028 71.3428 38.3818L71.3697 37.8976C71.3697 37.825 71.3159 37.7766 71.2352 37.7766H71.1546L68.3587 45.9587H65.0252L60.7507 33.153H64.2187L66.6382 40.4152V41.093C66.6382 41.1656 66.6919 41.2141 66.7726 41.2141H66.8264L69.5685 33.153H72.8482L75.3484 40.4636C75.3753 40.4878 75.3753 40.5605 75.3753 40.6815L75.3484 41.093C75.3484 41.1656 75.4022 41.2141 75.4828 41.2141H75.6172Z" fill="white"/>
<path d="M94.368 43.1264L94.3949 43.1507C94.6368 43.2233 94.7443 43.4654 94.7443 43.8769V45.9829H94.368C92.755 45.9829 91.6259 45.4504 90.9538 44.4094C89.8247 45.5956 88.131 46.2008 85.8728 46.2008C83.077 46.2008 81.2758 44.7483 81.2758 42.4486C81.2758 40.1973 83.0232 38.6723 86.4374 38.285C87.3514 38.1881 88.1041 38.0671 88.7225 37.9461C89.3408 37.825 89.7172 37.704 89.9053 37.6314C90.0935 37.5345 90.2817 37.4135 90.5237 37.244V37.1714C90.5237 36.2273 89.4214 35.4769 87.8353 35.4769C86.8944 35.4769 86.1685 35.6464 85.6309 35.9368C85.4158 36.0337 85.2545 36.1063 85.1739 36.1789C84.9857 36.2758 84.5555 36.6147 84.4749 36.6389C83.9372 36.9294 83.3189 36.8567 82.9963 36.4936L81.8672 35.3075C82.378 34.7023 83.1038 34.1455 84.0985 33.6371C85.0932 33.1288 86.2492 32.8625 87.5934 32.8625C91.5721 32.8625 93.8034 34.5812 93.8034 37.9461V42.2308C93.8034 42.6907 93.9916 43.0054 94.368 43.1264ZM86.3298 43.659C89.1257 43.659 90.5237 42.4728 90.5237 40.1247V39.7132C89.7978 40.27 88.6687 40.6089 87.0826 40.7057C85.2545 40.8752 84.4749 41.3351 84.4749 42.3276C84.4749 43.1264 85.1739 43.659 86.3298 43.659Z" fill="white"/>
<path d="M101.018 42.0129L104.62 33.153H108.303L102.308 47.2659C101.368 49.372 99.9158 50.4129 97.9265 50.4129H96.2597V48.089C96.2597 47.8227 96.5016 47.629 96.7974 47.629H97.7383C98.3566 47.629 98.8136 47.3385 99.0556 46.7576L99.405 45.9345L94.0284 33.153H97.4963L100.803 41.4803C100.83 41.5772 100.857 41.6498 100.857 41.7224V41.8919C100.857 41.9645 100.911 42.0129 100.991 42.0129H101.018Z" fill="white"/>
<path d="M2.6666 3.67688C2.6666 4.04518 2.5327 4.33416 2.2649 4.54381C1.9971 4.75346 1.62769 4.85828 1.15666 4.85828C0.685642 4.85828 0.300087 4.78557 0 4.64013V3.99985C0.189928 4.08862 0.391253 4.15851 0.603972 4.2095C0.818592 4.2605 1.01802 4.286 1.20225 4.286C1.47195 4.286 1.67042 4.235 1.79767 4.13301C1.92682 4.03102 1.9914 3.89408 1.9914 3.72221C1.9914 3.56733 1.93252 3.43606 1.81477 3.32841C1.69701 3.22075 1.4539 3.09326 1.08544 2.94594C0.705584 2.79295 0.437785 2.61824 0.282044 2.42181C0.126302 2.22538 0.0484318 1.98929 0.0484318 1.71354C0.0484318 1.3679 0.171885 1.09592 0.418792 0.897603C0.665699 0.699286 0.997124 0.600127 1.41307 0.600127C1.81192 0.600127 2.20887 0.687009 2.60392 0.860773L2.3874 1.41323C2.01704 1.25835 1.68656 1.18091 1.39597 1.18091C1.17566 1.18091 1.00852 1.22908 0.894563 1.3254C0.780606 1.41984 0.723627 1.54544 0.723627 1.7022C0.723627 1.80986 0.746419 1.90241 0.792002 1.97985C0.837584 2.0554 0.912606 2.12717 1.01707 2.19516C1.12153 2.26316 1.30956 2.35287 1.58115 2.46431C1.88694 2.59086 2.11105 2.7089 2.2535 2.81845C2.39595 2.92799 2.50041 3.05171 2.56688 3.18958C2.63336 3.32746 2.6666 3.48989 2.6666 3.67688Z" fill="#6B7280"/>
<path d="M5.84634 3.22925C5.84634 3.7411 5.71434 4.14056 5.45034 4.42765C5.18634 4.71474 4.81883 4.85828 4.3478 4.85828C4.05341 4.85828 3.79321 4.79218 3.5672 4.65997C3.34118 4.52775 3.1674 4.33794 3.04584 4.09051C2.92429 3.84309 2.86351 3.556 2.86351 3.22925C2.86351 2.72118 2.99456 2.32454 3.25666 2.03934C3.51877 1.75414 3.88818 1.61155 4.3649 1.61155C4.82073 1.61155 5.18159 1.75792 5.44749 2.05068C5.71339 2.34154 5.84634 2.7344 5.84634 3.22925ZM3.55295 3.22925C3.55295 3.95263 3.8217 4.31433 4.3592 4.31433C4.891 4.31433 5.1569 3.95263 5.1569 3.22925C5.1569 2.51342 4.8891 2.1555 4.3535 2.1555C4.07241 2.1555 3.86823 2.24805 3.74098 2.43315C3.61563 2.61824 3.55295 2.88361 3.55295 3.22925Z" fill="#6B7280"/>
<path d="M8.49049 4.80162L8.39647 4.39082H8.36228C8.26922 4.53625 8.13627 4.65052 7.96343 4.73363C7.7925 4.81673 7.59687 4.85828 7.37655 4.85828C6.9948 4.85828 6.70991 4.76385 6.52188 4.57497C6.33385 4.3861 6.23983 4.09996 6.23983 3.71654V1.66821H6.91503V3.60038C6.91503 3.84025 6.96441 4.02063 7.06317 4.14151C7.16194 4.2605 7.31673 4.31999 7.52755 4.31999C7.80864 4.31999 8.01471 4.23689 8.14576 4.07068C8.27872 3.90258 8.34519 3.6221 8.34519 3.22925V1.66821H9.01754V4.80162H8.49049Z" fill="#6B7280"/>
<path d="M10.7956 4.31999C10.9589 4.31999 11.1223 4.2945 11.2856 4.2435V4.74496C11.2116 4.77707 11.1156 4.80351 10.9979 4.82429C10.882 4.84695 10.7614 4.85828 10.6361 4.85828C10.0017 4.85828 9.68453 4.52587 9.68453 3.86103V2.1725H9.25434V1.87786L9.71587 1.63421L9.94378 0.971264H10.3569V1.66821H11.2543V2.1725H10.3569V3.8497C10.3569 4.01024 10.3968 4.12923 10.4765 4.20667C10.5582 4.28222 10.6646 4.31999 10.7956 4.31999Z" fill="#6B7280"/>
<path d="M14.34 4.80162H13.6677V2.87511C13.6677 2.63335 13.6183 2.45298 13.5195 2.33399C13.4227 2.215 13.2679 2.1555 13.0551 2.1555C12.7741 2.1555 12.567 2.23955 12.4341 2.40765C12.303 2.57386 12.2375 2.85339 12.2375 3.24625V4.80162H11.568V0.393311H12.2375V1.51239C12.2375 1.69182 12.2261 1.88352 12.2033 2.08751H12.2461C12.3372 1.93641 12.4635 1.81931 12.625 1.7362C12.7883 1.6531 12.9782 1.61155 13.1947 1.61155C13.9583 1.61155 14.34 1.99401 14.34 2.75895V4.80162Z" fill="#6B7280"/>
<path d="M18.7423 4.80162L18.3263 3.65138H16.7338L16.3264 4.80162H15.6085L17.1668 0.642624H17.9076L19.4659 4.80162H18.7423ZM18.1469 3.06776L17.7566 1.94019C17.7281 1.86464 17.6882 1.74565 17.6369 1.58321C17.5875 1.42078 17.5533 1.30179 17.5343 1.22624C17.4831 1.45856 17.408 1.71259 17.3093 1.98835L16.9332 3.06776H18.1469Z" fill="#6B7280"/>
<path d="M21.7112 3.90919C21.7112 4.21517 21.5992 4.45032 21.375 4.61464C21.1509 4.77707 20.8299 4.85828 20.4121 4.85828C19.9924 4.85828 19.6552 4.79501 19.4007 4.66846V4.09334C19.7711 4.26333 20.1158 4.34832 20.4349 4.34832C20.847 4.34832 21.0531 4.22461 21.0531 3.97719C21.0531 3.89786 21.0303 3.83175 20.9847 3.77887C20.9392 3.72599 20.8641 3.67121 20.7597 3.61455C20.6552 3.55789 20.5099 3.49367 20.3238 3.4219C19.961 3.28213 19.7151 3.14237 19.5859 3.0026C19.4587 2.86283 19.395 2.68151 19.395 2.45864C19.395 2.19044 19.5033 1.98268 19.7198 1.83536C19.9382 1.68615 20.2345 1.61155 20.6087 1.61155C20.979 1.61155 21.3295 1.68615 21.6599 1.83536L21.4434 2.33682C21.1034 2.19705 20.8176 2.12717 20.5859 2.12717C20.2326 2.12717 20.056 2.22727 20.056 2.42748C20.056 2.52569 20.1016 2.6088 20.1927 2.67679C20.2858 2.74479 20.4871 2.83828 20.7967 2.95727C21.0569 3.05737 21.2459 3.14898 21.3636 3.23208C21.4814 3.31519 21.5688 3.41151 21.6257 3.52106C21.6827 3.62872 21.7112 3.75809 21.7112 3.90919Z" fill="#6B7280"/>
<path d="M22.7571 4.80162H22.0876V1.66821H22.7571V4.80162ZM22.0477 0.838108C22.0477 0.719118 22.08 0.627514 22.1446 0.563297C22.2111 0.49908 22.3051 0.466971 22.4266 0.466971C22.5444 0.466971 22.6356 0.49908 22.7001 0.563297C22.7666 0.627514 22.7998 0.719118 22.7998 0.838108C22.7998 0.951432 22.7666 1.04115 22.7001 1.10725C22.6356 1.17147 22.5444 1.20358 22.4266 1.20358C22.3051 1.20358 22.2111 1.17147 22.1446 1.10725C22.08 1.04115 22.0477 0.951432 22.0477 0.838108Z" fill="#6B7280"/>
<path d="M25.3386 4.80162L25.2047 4.36532H25.1819C25.0299 4.55609 24.8771 4.68641 24.7232 4.75629C24.5694 4.82429 24.3718 4.85828 24.1306 4.85828C23.8211 4.85828 23.5789 4.77518 23.4042 4.60897C23.2313 4.44276 23.1449 4.20761 23.1449 3.90353C23.1449 3.58055 23.2655 3.33691 23.5067 3.17259C23.7479 3.00827 24.1154 2.91855 24.6093 2.90344L25.1534 2.88644V2.71929C25.1534 2.51908 25.1059 2.36987 25.011 2.27166C24.9179 2.17156 24.7726 2.1215 24.5751 2.1215C24.4136 2.1215 24.2588 2.14511 24.1107 2.19233C23.9625 2.23955 23.8201 2.29527 23.6834 2.35948L23.4668 1.88352C23.6378 1.79475 23.8249 1.7277 24.0281 1.68237C24.2313 1.63515 24.4231 1.61155 24.6036 1.61155C25.0043 1.61155 25.3063 1.69843 25.5095 1.87219C25.7146 2.04595 25.8172 2.31888 25.8172 2.69096V4.80162H25.3386ZM24.3415 4.34832C24.5846 4.34832 24.7792 4.28127 24.9255 4.14717C25.0736 4.01118 25.1477 3.82137 25.1477 3.57772V3.30574L24.7432 3.32274C24.4279 3.33407 24.1981 3.38696 24.0537 3.48139C23.9113 3.57394 23.84 3.71654 23.84 3.90919C23.84 4.04896 23.8818 4.15756 23.9654 4.235C24.049 4.31055 24.1743 4.34832 24.3415 4.34832Z" fill="#6B7280"/>
<path d="M26.9628 0.659622L26.846 2.1555H26.4187L26.3019 0.659622H26.9628Z" fill="#6B7280"/>
<path d="M29.587 3.90919C29.587 4.21517 29.475 4.45032 29.2508 4.61464C29.0267 4.77707 28.7057 4.85828 28.2879 4.85828C27.8682 4.85828 27.531 4.79501 27.2765 4.66846V4.09334C27.6469 4.26333 27.9916 4.34832 28.3107 4.34832C28.7228 4.34832 28.9289 4.22461 28.9289 3.97719C28.9289 3.89786 28.9061 3.83175 28.8605 3.77887C28.815 3.72599 28.7399 3.67121 28.6355 3.61455C28.531 3.55789 28.3857 3.49367 28.1996 3.4219C27.8368 3.28213 27.5909 3.14237 27.4617 3.0026C27.3345 2.86283 27.2708 2.68151 27.2708 2.45864C27.2708 2.19044 27.3791 1.98268 27.5956 1.83536C27.814 1.68615 28.1103 1.61155 28.4845 1.61155C28.8548 1.61155 29.2053 1.68615 29.5357 1.83536L29.3192 2.33682C28.9792 2.19705 28.6934 2.12717 28.4617 2.12717C28.1084 2.12717 27.9318 2.22727 27.9318 2.42748C27.9318 2.52569 27.9774 2.6088 28.0685 2.67679C28.1616 2.74479 28.3629 2.83828 28.6725 2.95727C28.9327 3.05737 29.1217 3.14898 29.2394 3.23208C29.3572 3.31519 29.4446 3.41151 29.5015 3.52106C29.5585 3.62872 29.587 3.75809 29.587 3.90919Z" fill="#6B7280"/>
<path d="M33.958 1.91185C33.958 2.34438 33.8155 2.67585 33.5306 2.90627C33.2457 3.1367 32.8402 3.25191 32.3141 3.25191H31.8811V4.80162H31.2002V0.659622H32.3996C32.92 0.659622 33.3093 0.765392 33.5676 0.97693C33.8279 1.18847 33.958 1.50011 33.958 1.91185ZM31.8811 2.68246H32.2429C32.5924 2.68246 32.8488 2.62202 33.0121 2.50114C33.1754 2.38026 33.2571 2.19139 33.2571 1.93452C33.2571 1.69654 33.184 1.519 33.0378 1.4019C32.8915 1.28479 32.6636 1.22624 32.354 1.22624H31.8811V2.68246Z" fill="#6B7280"/>
<path d="M35.9668 1.61155C36.1016 1.61155 36.2127 1.62099 36.3001 1.63988L36.2346 2.26033C36.1396 2.23766 36.0409 2.22633 35.9383 2.22633C35.6705 2.22633 35.453 2.31321 35.2859 2.48697C35.1207 2.66074 35.038 2.88644 35.038 3.16409V4.80162H34.3685V1.66821H34.8927L34.9811 2.22066H35.0152C35.1197 2.03368 35.2555 1.88541 35.4226 1.77587C35.5917 1.66632 35.7731 1.61155 35.9668 1.61155Z" fill="#6B7280"/>
<path d="M37.9129 4.85828C37.4229 4.85828 37.0393 4.71663 36.762 4.43332C36.4866 4.14812 36.3489 3.75621 36.3489 3.25758C36.3489 2.74573 36.4771 2.34343 36.7335 2.05068C36.9899 1.75792 37.3422 1.61155 37.7904 1.61155C38.2064 1.61155 38.535 1.73715 38.7762 1.98835C39.0174 2.23955 39.138 2.58519 39.138 3.02526V3.38507H37.0383C37.0478 3.68916 37.1304 3.92336 37.2862 4.08768C37.4419 4.25011 37.6613 4.33133 37.9443 4.33133C38.1304 4.33133 38.3032 4.31433 38.4628 4.28033C38.6242 4.24444 38.7971 4.18589 38.9813 4.10468V4.6458C38.818 4.72324 38.6527 4.77801 38.4856 4.81012C38.3184 4.84223 38.1276 4.85828 37.9129 4.85828ZM37.7904 2.11584C37.5777 2.11584 37.4068 2.18289 37.2776 2.31699C37.1504 2.45109 37.0744 2.64657 37.0497 2.90344H38.4799C38.4761 2.64468 38.4134 2.4492 38.2919 2.31699C38.1703 2.18289 38.0032 2.11584 37.7904 2.11584Z" fill="#6B7280"/>
<path d="M42.2038 4.80162H41.5314V2.86944C41.5314 2.62957 41.4858 2.45109 41.3947 2.33399C41.3035 2.215 41.1611 2.1555 40.9673 2.1555C40.709 2.1555 40.5191 2.23955 40.3975 2.40765C40.2779 2.57386 40.2181 2.8515 40.2181 3.24058V4.80162H39.5486V1.66821H40.0728L40.1668 2.07901H40.201C40.2883 1.9298 40.4146 1.81458 40.5799 1.73337C40.747 1.65215 40.9303 1.61155 41.1297 1.61155C41.614 1.61155 41.935 1.77587 42.0927 2.10451H42.1382C42.2313 1.94963 42.3624 1.82875 42.5314 1.74187C42.7004 1.65499 42.8942 1.61155 43.1126 1.61155C43.4886 1.61155 43.7621 1.70598 43.9331 1.89486C44.1059 2.08373 44.1923 2.37176 44.1923 2.75895V4.80162H43.5228V2.86944C43.5228 2.62957 43.4763 2.45109 43.3832 2.33399C43.2921 2.215 43.1496 2.1555 42.9559 2.1555C42.6957 2.1555 42.5048 2.23672 42.3833 2.39915C42.2636 2.55969 42.2038 2.80712 42.2038 3.14142V4.80162Z" fill="#6B7280"/>
<path d="M45.4462 4.80162H44.7767V1.66821H45.4462V4.80162ZM44.7368 0.838108C44.7368 0.719118 44.7691 0.627514 44.8337 0.563297C44.9002 0.49908 44.9942 0.466971 45.1157 0.466971C45.2335 0.466971 45.3246 0.49908 45.3892 0.563297C45.4557 0.627514 45.4889 0.719118 45.4889 0.838108C45.4889 0.951432 45.4557 1.04115 45.3892 1.10725C45.3246 1.17147 45.2335 1.20358 45.1157 1.20358C44.9942 1.20358 44.9002 1.17147 44.8337 1.10725C44.7691 1.04115 44.7368 0.951432 44.7368 0.838108Z" fill="#6B7280"/>
<path d="M47.4322 4.85828C46.9422 4.85828 46.5586 4.71663 46.2813 4.43332C46.0059 4.14812 45.8682 3.75621 45.8682 3.25758C45.8682 2.74573 45.9964 2.34343 46.2528 2.05068C46.5092 1.75792 46.8615 1.61155 47.3097 1.61155C47.7257 1.61155 48.0543 1.73715 48.2955 1.98835C48.5367 2.23955 48.6573 2.58519 48.6573 3.02526V3.38507H46.5576C46.5671 3.68916 46.6497 3.92336 46.8055 4.08768C46.9612 4.25011 47.1806 4.33133 47.4636 4.33133C47.6497 4.33133 47.8225 4.31433 47.9821 4.28033C48.1435 4.24444 48.3164 4.18589 48.5006 4.10468V4.6458C48.3372 4.72324 48.172 4.77801 48.0049 4.81012C47.8377 4.84223 47.6469 4.85828 47.4322 4.85828ZM47.3097 2.11584C47.097 2.11584 46.9261 2.18289 46.7969 2.31699C46.6697 2.45109 46.5937 2.64657 46.569 2.90344H47.9992C47.9954 2.64468 47.9327 2.4492 47.8111 2.31699C47.6896 2.18289 47.5225 2.11584 47.3097 2.11584Z" fill="#6B7280"/>
<path d="M50.6661 1.61155C50.801 1.61155 50.9121 1.62099 50.9994 1.63988L50.9339 2.26033C50.8389 2.23766 50.7402 2.22633 50.6376 2.22633C50.3698 2.22633 50.1524 2.31321 49.9852 2.48697C49.82 2.66074 49.7374 2.88644 49.7374 3.16409V4.80162H49.0679V1.66821H49.5921L49.6804 2.22066H49.7146C49.819 2.03368 49.9548 1.88541 50.122 1.77587C50.291 1.66632 50.4724 1.61155 50.6661 1.61155Z" fill="#6B7280"/>
<path d="M54.8747 3.67688C54.8747 4.04518 54.7408 4.33416 54.473 4.54381C54.2052 4.75346 53.8357 4.85828 53.3647 4.85828C52.8937 4.85828 52.5081 4.78557 52.2081 4.64013V3.99985C52.398 4.08862 52.5993 4.15851 52.812 4.2095C53.0267 4.2605 53.2261 4.286 53.4103 4.286C53.68 4.286 53.8785 4.235 54.0057 4.13301C54.1349 4.03102 54.1995 3.89408 54.1995 3.72221C54.1995 3.56733 54.1406 3.43606 54.0228 3.32841C53.9051 3.22075 53.662 3.09326 53.2935 2.94594C52.9136 2.79295 52.6458 2.61824 52.4901 2.42181C52.3344 2.22538 52.2565 1.98929 52.2565 1.71354C52.2565 1.3679 52.3799 1.09592 52.6269 0.897603C52.8738 0.699286 53.2052 0.600127 53.6211 0.600127C54.02 0.600127 54.4169 0.687009 54.812 0.860773L54.5955 1.41323C54.2251 1.25835 53.8946 1.18091 53.604 1.18091C53.3837 1.18091 53.2166 1.22908 53.1026 1.3254C52.9887 1.41984 52.9317 1.54544 52.9317 1.7022C52.9317 1.80986 52.9545 1.90241 53.0001 1.97985C53.0456 2.0554 53.1207 2.12717 53.2251 2.19516C53.3296 2.26316 53.5176 2.35287 53.7892 2.46431C54.095 2.59086 54.3191 2.7089 54.4616 2.81845C54.604 2.92799 54.7085 3.05171 54.7749 3.18958C54.8414 3.32746 54.8747 3.48989 54.8747 3.67688Z" fill="#6B7280"/>
<path d="M58.0316 4.80162H57.3593V2.87511C57.3593 2.63335 57.3099 2.45298 57.2111 2.33399C57.1143 2.215 56.9595 2.1555 56.7467 2.1555C56.4656 2.1555 56.2586 2.23955 56.1257 2.40765C55.9946 2.57386 55.9291 2.85339 55.9291 3.24625V4.80162H55.2596V0.393311H55.9291V1.51239C55.9291 1.69182 55.9177 1.88352 55.8949 2.08751H55.9376C56.0288 1.93641 56.1551 1.81931 56.3166 1.7362C56.4799 1.6531 56.6698 1.61155 56.8863 1.61155C57.6499 1.61155 58.0316 1.99401 58.0316 2.75895V4.80162Z" fill="#6B7280"/>
<path d="M59.2826 4.80162H58.6131V1.66821H59.2826V4.80162ZM58.5732 0.838108C58.5732 0.719118 58.6055 0.627514 58.6701 0.563297C58.7366 0.49908 58.8306 0.466971 58.9522 0.466971C59.0699 0.466971 59.1611 0.49908 59.2257 0.563297C59.2921 0.627514 59.3254 0.719118 59.3254 0.838108C59.3254 0.951432 59.2921 1.04115 59.2257 1.10725C59.1611 1.17147 59.0699 1.20358 58.9522 1.20358C58.8306 1.20358 58.7366 1.17147 58.6701 1.10725C58.6055 1.04115 58.5732 0.951432 58.5732 0.838108Z" fill="#6B7280"/>
<path d="M61.4909 4.85828C61.092 4.85828 60.7825 4.71568 60.5621 4.43048H60.5223C60.5488 4.69491 60.5621 4.85545 60.5621 4.91211V6.19551H59.8926V1.66821H60.4339C60.4491 1.72676 60.4805 1.86652 60.528 2.08751H60.5621C60.7711 1.7702 61.0844 1.61155 61.5023 1.61155C61.8954 1.61155 62.2012 1.7532 62.4196 2.03651C62.64 2.31982 62.7501 2.7174 62.7501 3.22925C62.7501 3.7411 62.6381 4.14056 62.4139 4.42765C62.1917 4.71474 61.884 4.85828 61.4909 4.85828ZM61.3285 2.1555C61.0626 2.1555 60.8679 2.23294 60.7445 2.38782C60.6229 2.54269 60.5621 2.79012 60.5621 3.13009V3.22925C60.5621 3.61077 60.6229 3.88747 60.7445 4.05935C60.866 4.22933 61.0645 4.31433 61.3399 4.31433C61.5716 4.31433 61.7501 4.21989 61.8755 4.03102C62.0009 3.84214 62.0635 3.573 62.0635 3.22358C62.0635 2.87228 62.0009 2.60691 61.8755 2.42748C61.752 2.24616 61.5697 2.1555 61.3285 2.1555Z" fill="#6B7280"/>
<path d="M64.776 4.85828C64.3772 4.85828 64.0676 4.71568 63.8473 4.43048H63.8074C63.834 4.69491 63.8473 4.85545 63.8473 4.91211V6.19551H63.1778V1.66821H63.7191C63.7343 1.72676 63.7656 1.86652 63.8131 2.08751H63.8473C64.0562 1.7702 64.3696 1.61155 64.7874 1.61155C65.1806 1.61155 65.4864 1.7532 65.7048 2.03651C65.9251 2.31982 66.0353 2.7174 66.0353 3.22925C66.0353 3.7411 65.9232 4.14056 65.6991 4.42765C65.4769 4.71474 65.1692 4.85828 64.776 4.85828ZM64.6137 2.1555C64.3478 2.1555 64.1531 2.23294 64.0296 2.38782C63.9081 2.54269 63.8473 2.79012 63.8473 3.13009V3.22925C63.8473 3.61077 63.9081 3.88747 64.0296 4.05935C64.1512 4.22933 64.3497 4.31433 64.6251 4.31433C64.8568 4.31433 65.0353 4.21989 65.1607 4.03102C65.286 3.84214 65.3487 3.573 65.3487 3.22358C65.3487 2.87228 65.286 2.60691 65.1607 2.42748C65.0372 2.24616 64.8549 2.1555 64.6137 2.1555Z" fill="#6B7280"/>
<path d="M67.1324 4.80162H66.463V1.66821H67.1324V4.80162ZM66.4231 0.838108C66.4231 0.719118 66.4554 0.627514 66.5199 0.563297C66.5864 0.49908 66.6804 0.466971 66.802 0.466971C66.9197 0.466971 67.0109 0.49908 67.0755 0.563297C67.1419 0.627514 67.1752 0.719118 67.1752 0.838108C67.1752 0.951432 67.1419 1.04115 67.0755 1.10725C67.0109 1.17147 66.9197 1.20358 66.802 1.20358C66.6804 1.20358 66.5864 1.17147 66.5199 1.10725C66.4554 1.04115 66.4231 0.951432 66.4231 0.838108Z" fill="#6B7280"/>
<path d="M70.5145 4.80162H69.8421V2.87511C69.8421 2.63335 69.7927 2.45298 69.694 2.33399C69.5971 2.215 69.4423 2.1555 69.2296 2.1555C68.9466 2.1555 68.7396 2.23861 68.6085 2.40481C68.4775 2.57102 68.412 2.84961 68.412 3.24058V4.80162H67.7425V1.66821H68.2667L68.3607 2.07901H68.3949C68.4898 1.9298 68.6247 1.81458 68.7994 1.73337C68.9741 1.65215 69.1679 1.61155 69.3806 1.61155C70.1365 1.61155 70.5145 1.99401 70.5145 2.75895V4.80162Z" fill="#6B7280"/>
<path d="M73.7569 1.66821V2.03368L73.2184 2.13284C73.2678 2.19894 73.3087 2.28016 73.3409 2.37648C73.3732 2.47281 73.3894 2.5748 73.3894 2.68246C73.3894 3.00543 73.2773 3.25947 73.0532 3.44456C72.8291 3.62966 72.5205 3.72221 72.1273 3.72221C72.0266 3.72221 71.9355 3.71465 71.8538 3.69954C71.7095 3.78831 71.6373 3.89219 71.6373 4.01118C71.6373 4.08296 71.6705 4.13679 71.737 4.17267C71.8054 4.20856 71.9298 4.2265 72.1102 4.2265H72.66C73.0076 4.2265 73.2716 4.30016 73.452 4.44748C73.6325 4.5948 73.7227 4.80729 73.7227 5.08493C73.7227 5.44001 73.5755 5.71388 73.2811 5.90653C72.9867 6.09918 72.5613 6.19551 72.0048 6.19551C71.5756 6.19551 71.2479 6.11996 71.0219 5.96886C70.7959 5.81776 70.6829 5.60244 70.6829 5.32291C70.6829 5.13026 70.7437 4.96783 70.8652 4.83562C70.9887 4.7053 71.1606 4.61464 71.3809 4.56364C71.2916 4.52587 71.2175 4.46543 71.1587 4.38232C71.1017 4.29733 71.0732 4.20856 71.0732 4.11601C71.0732 3.99891 71.1064 3.89975 71.1729 3.81853C71.2394 3.73732 71.3382 3.65705 71.4692 3.57772C71.3059 3.50784 71.1729 3.39451 71.0704 3.23775C70.9697 3.07909 70.9194 2.894 70.9194 2.68246C70.9194 2.34249 71.0267 2.07901 71.2413 1.89202C71.4578 1.70504 71.7655 1.61155 72.1643 1.61155C72.2536 1.61155 72.3467 1.61816 72.4435 1.63138C72.5423 1.64271 72.6164 1.65499 72.6657 1.66821H73.7569ZM71.2812 5.28891C71.2812 5.43246 71.3457 5.54295 71.4749 5.62039C71.6059 5.69783 71.7892 5.73655 72.0247 5.73655C72.3894 5.73655 72.661 5.6846 72.8395 5.58072C73.0181 5.47684 73.1073 5.33897 73.1073 5.16709C73.1073 5.0311 73.0579 4.93383 72.9592 4.87528C72.8623 4.81862 72.6809 4.79029 72.415 4.79029H71.9079C71.7161 4.79029 71.5632 4.83467 71.4493 4.92344C71.3372 5.0141 71.2812 5.13593 71.2812 5.28891ZM71.5689 2.68246C71.5689 2.87889 71.6192 3.02999 71.7199 3.13576C71.8225 3.24152 71.9687 3.29441 72.1586 3.29441C72.5461 3.29441 72.7398 3.08854 72.7398 2.67679C72.7398 2.47281 72.6914 2.31604 72.5945 2.2065C72.4996 2.09506 72.3543 2.03934 72.1586 2.03934C71.9649 2.03934 71.8177 2.09412 71.7171 2.20366C71.6183 2.31321 71.5689 2.47281 71.5689 2.68246Z" fill="#6B7280"/>
<path d="M75.9655 1.55205C75.9655 1.67104 75.9968 1.78342 76.0595 1.88919C76.1241 1.99496 76.2133 2.10734 76.3273 2.22633C76.5419 2.10545 76.692 1.99307 76.7774 1.88919C76.8648 1.78342 76.9085 1.66537 76.9085 1.53505C76.9085 1.41228 76.8667 1.31407 76.7831 1.24041C76.7015 1.16675 76.5922 1.12992 76.4555 1.12992C76.3055 1.12992 76.1858 1.16864 76.0965 1.24607C76.0092 1.32162 75.9655 1.42362 75.9655 1.55205ZM76.39 4.286C76.7375 4.286 77.0348 4.18495 77.2817 3.98285L76.1906 2.91477C75.9892 3.04321 75.8506 3.16409 75.7746 3.27741C75.6986 3.38885 75.6607 3.51634 75.6607 3.65988C75.6607 3.84498 75.7262 3.99607 75.8572 4.11318C75.9902 4.22839 76.1678 4.286 76.39 4.286ZM74.9541 3.70521C74.9541 3.45778 75.0149 3.24247 75.1365 3.05926C75.258 2.87417 75.4774 2.69096 75.7945 2.50964C75.6141 2.29999 75.4907 2.12339 75.4242 1.97985C75.3596 1.83442 75.3273 1.68426 75.3273 1.52939C75.3273 1.2423 75.4299 1.01565 75.635 0.84944C75.842 0.683232 76.1193 0.600127 76.4669 0.600127C76.8031 0.600127 77.0671 0.681343 77.2589 0.843774C77.4507 1.00432 77.5466 1.22152 77.5466 1.49539C77.5466 1.7107 77.4821 1.90619 77.3529 2.08184C77.2257 2.25749 77.012 2.43315 76.7119 2.6088L77.6976 3.55505C77.8515 3.35296 77.9797 3.05643 78.0822 2.66546H78.7717C78.6387 3.20186 78.426 3.6391 78.1335 3.97719L78.991 4.80162H78.1278L77.7033 4.39082C77.5096 4.5457 77.3026 4.6628 77.0823 4.74213C76.8638 4.81956 76.6217 4.85828 76.3558 4.85828C75.919 4.85828 75.5761 4.75535 75.3273 4.54947C75.0785 4.3436 74.9541 4.06218 74.9541 3.70521Z" fill="#6B7280"/>
<path d="M80.3649 4.80162V0.659622H81.0458V4.22083H82.8093V4.80162H80.3649Z" fill="#6B7280"/>
<path d="M85.9007 3.22925C85.9007 3.7411 85.7687 4.14056 85.5047 4.42765C85.2407 4.71474 84.8732 4.85828 84.4022 4.85828C84.1078 4.85828 83.8476 4.79218 83.6216 4.65997C83.3956 4.52775 83.2218 4.33794 83.1002 4.09051C82.9787 3.84309 82.9179 3.556 82.9179 3.22925C82.9179 2.72118 83.049 2.32454 83.3111 2.03934C83.5732 1.75414 83.9426 1.61155 84.4193 1.61155C84.8751 1.61155 85.236 1.75792 85.5019 2.05068C85.7678 2.34154 85.9007 2.7344 85.9007 3.22925ZM83.6073 3.22925C83.6073 3.95263 83.8761 4.31433 84.4136 4.31433C84.9454 4.31433 85.2113 3.95263 85.2113 3.22925C85.2113 2.51342 84.9435 2.1555 84.4079 2.1555C84.1268 2.1555 83.9226 2.24805 83.7954 2.43315C83.67 2.61824 83.6073 2.88361 83.6073 3.22925Z" fill="#6B7280"/>
<path d="M88.9836 1.66821V2.03368L88.4452 2.13284C88.4945 2.19894 88.5354 2.28016 88.5677 2.37648C88.6 2.47281 88.6161 2.5748 88.6161 2.68246C88.6161 3.00543 88.504 3.25947 88.2799 3.44456C88.0558 3.62966 87.7472 3.72221 87.354 3.72221C87.2534 3.72221 87.1622 3.71465 87.0805 3.69954C86.9362 3.78831 86.864 3.89219 86.864 4.01118C86.864 4.08296 86.8972 4.13679 86.9637 4.17267C87.0321 4.20856 87.1565 4.2265 87.3369 4.2265H87.8868C88.2343 4.2265 88.4983 4.30016 88.6788 4.44748C88.8592 4.5948 88.9494 4.80729 88.9494 5.08493C88.9494 5.44001 88.8022 5.71388 88.5078 5.90653C88.2134 6.09918 87.788 6.19551 87.2315 6.19551C86.8023 6.19551 86.4746 6.11996 86.2486 5.96886C86.0226 5.81776 85.9096 5.60244 85.9096 5.32291C85.9096 5.13026 85.9704 4.96783 86.0919 4.83562C86.2154 4.7053 86.3873 4.61464 86.6076 4.56364C86.5183 4.52587 86.4443 4.46543 86.3854 4.38232C86.3284 4.29733 86.2999 4.20856 86.2999 4.11601C86.2999 3.99891 86.3332 3.89975 86.3996 3.81853C86.4661 3.73732 86.5649 3.65705 86.6959 3.57772C86.5326 3.50784 86.3996 3.39451 86.2971 3.23775C86.1964 3.07909 86.1461 2.894 86.1461 2.68246C86.1461 2.34249 86.2534 2.07901 86.468 1.89202C86.6845 1.70504 86.9922 1.61155 87.3911 1.61155C87.4803 1.61155 87.5734 1.61816 87.6702 1.63138C87.769 1.64271 87.8431 1.65499 87.8925 1.66821H88.9836ZM86.5079 5.28891C86.5079 5.43246 86.5725 5.54295 86.7016 5.62039C86.8327 5.69783 87.0159 5.73655 87.2515 5.73655C87.6161 5.73655 87.8877 5.6846 88.0663 5.58072C88.2448 5.47684 88.3341 5.33897 88.3341 5.16709C88.3341 5.0311 88.2847 4.93383 88.1859 4.87528C88.089 4.81862 87.9077 4.79029 87.6418 4.79029H87.1347C86.9428 4.79029 86.7899 4.83467 86.676 4.92344C86.5639 5.0141 86.5079 5.13593 86.5079 5.28891ZM86.7956 2.68246C86.7956 2.87889 86.846 3.02999 86.9466 3.13576C87.0492 3.24152 87.1954 3.29441 87.3854 3.29441C87.7728 3.29441 87.9665 3.08854 87.9665 2.67679C87.9665 2.47281 87.9181 2.31604 87.8212 2.2065C87.7263 2.09506 87.581 2.03934 87.3854 2.03934C87.1916 2.03934 87.0444 2.09412 86.9438 2.20366C86.845 2.31321 86.7956 2.47281 86.7956 2.68246Z" fill="#6B7280"/>
<path d="M89.8899 4.80162H89.2204V1.66821H89.8899V4.80162ZM89.1805 0.838108C89.1805 0.719118 89.2128 0.627514 89.2774 0.563297C89.3439 0.49908 89.4379 0.466971 89.5594 0.466971C89.6772 0.466971 89.7683 0.49908 89.8329 0.563297C89.8994 0.627514 89.9326 0.719118 89.9326 0.838108C89.9326 0.951432 89.8994 1.04115 89.8329 1.10725C89.7683 1.17147 89.6772 1.20358 89.5594 1.20358C89.4379 1.20358 89.3439 1.17147 89.2774 1.10725C89.2128 1.04115 89.1805 0.951432 89.1805 0.838108Z" fill="#6B7280"/>
<path d="M92.6167 3.90919C92.6167 4.21517 92.5046 4.45032 92.2805 4.61464C92.0564 4.77707 91.7354 4.85828 91.3176 4.85828C90.8978 4.85828 90.5607 4.79501 90.3062 4.66846V4.09334C90.6766 4.26333 91.0213 4.34832 91.3403 4.34832C91.7525 4.34832 91.9586 4.22461 91.9586 3.97719C91.9586 3.89786 91.9358 3.83175 91.8902 3.77887C91.8446 3.72599 91.7696 3.67121 91.6651 3.61455C91.5607 3.55789 91.4154 3.49367 91.2292 3.4219C90.8665 3.28213 90.6205 3.14237 90.4914 3.0026C90.3641 2.86283 90.3005 2.68151 90.3005 2.45864C90.3005 2.19044 90.4088 1.98268 90.6253 1.83536C90.8437 1.68615 91.14 1.61155 91.5141 1.61155C91.8845 1.61155 92.2349 1.68615 92.5654 1.83536L92.3489 2.33682C92.0089 2.19705 91.7231 2.12717 91.4913 2.12717C91.1381 2.12717 90.9614 2.22727 90.9614 2.42748C90.9614 2.52569 91.007 2.6088 91.0982 2.67679C91.1913 2.74479 91.3926 2.83828 91.7022 2.95727C91.9624 3.05737 92.1513 3.14898 92.2691 3.23208C92.3869 3.31519 92.4742 3.41151 92.5312 3.52106C92.5882 3.62872 92.6167 3.75809 92.6167 3.90919Z" fill="#6B7280"/>
<path d="M94.1668 4.31999C94.3302 4.31999 94.4935 4.2945 94.6568 4.2435V4.74496C94.5828 4.77707 94.4869 4.80351 94.3691 4.82429C94.2532 4.84695 94.1326 4.85828 94.0073 4.85828C93.3729 4.85828 93.0557 4.52587 93.0557 3.86103V2.1725H92.6256V1.87786L93.0871 1.63421L93.315 0.971264H93.7281V1.66821H94.6255V2.1725H93.7281V3.8497C93.7281 4.01024 93.768 4.12923 93.8477 4.20667C93.9294 4.28222 94.0358 4.31999 94.1668 4.31999Z" fill="#6B7280"/>
<path d="M95.6087 4.80162H94.9392V1.66821H95.6087V4.80162ZM94.8993 0.838108C94.8993 0.719118 94.9316 0.627514 94.9962 0.563297C95.0627 0.49908 95.1567 0.466971 95.2783 0.466971C95.396 0.466971 95.4872 0.49908 95.5517 0.563297C95.6182 0.627514 95.6515 0.719118 95.6515 0.838108C95.6515 0.951432 95.6182 1.04115 95.5517 1.10725C95.4872 1.17147 95.396 1.20358 95.2783 1.20358C95.1567 1.20358 95.0627 1.17147 94.9962 1.10725C94.9316 1.04115 94.8993 0.951432 94.8993 0.838108Z" fill="#6B7280"/>
<path d="M97.4894 4.85828C97.0126 4.85828 96.6499 4.72041 96.4011 4.44465C96.1542 4.16701 96.0307 3.76943 96.0307 3.25191C96.0307 2.72496 96.1599 2.31982 96.4182 2.03651C96.6784 1.7532 97.0535 1.61155 97.5435 1.61155C97.8759 1.61155 98.175 1.67293 98.4409 1.7957L98.2386 2.33115C97.9556 2.22161 97.722 2.16683 97.5378 2.16683C96.9927 2.16683 96.7201 2.52664 96.7201 3.24625C96.7201 3.59755 96.7876 3.86197 96.9224 4.03952C97.0592 4.21517 97.2586 4.30299 97.5207 4.30299C97.8189 4.30299 98.1009 4.22933 98.3668 4.08201V4.6628C98.2472 4.73268 98.119 4.78273 97.9822 4.81295C97.8474 4.84317 97.6831 4.85828 97.4894 4.85828Z" fill="#6B7280"/>
<path d="M100.874 3.90919C100.874 4.21517 100.762 4.45032 100.538 4.61464C100.314 4.77707 99.993 4.85828 99.5751 4.85828C99.1554 4.85828 98.8182 4.79501 98.5637 4.66846V4.09334C98.9341 4.26333 99.2788 4.34832 99.5979 4.34832C100.01 4.34832 100.216 4.22461 100.216 3.97719C100.216 3.89786 100.193 3.83175 100.148 3.77887C100.102 3.72599 100.027 3.67121 99.9227 3.61455C99.8182 3.55789 99.6729 3.49367 99.4868 3.4219C99.124 3.28213 98.8781 3.14237 98.7489 3.0026C98.6217 2.86283 98.558 2.68151 98.558 2.45864C98.558 2.19044 98.6663 1.98268 98.8828 1.83536C99.1012 1.68615 99.3975 1.61155 99.7717 1.61155C100.142 1.61155 100.492 1.68615 100.823 1.83536L100.606 2.33682C100.266 2.19705 99.9806 2.12717 99.7489 2.12717C99.3956 2.12717 99.219 2.22727 99.219 2.42748C99.219 2.52569 99.2646 2.6088 99.3557 2.67679C99.4488 2.74479 99.6501 2.83828 99.9597 2.95727C100.22 3.05737 100.409 3.14898 100.527 3.23208C100.644 3.31519 100.732 3.41151 100.789 3.52106C100.846 3.62872 100.874 3.75809 100.874 3.90919Z" fill="#6B7280"/>
<path d="M105.957 4.80162H105.123L103.074 1.50105H103.051L103.066 1.68521C103.092 2.03651 103.106 2.3576 103.106 2.64846V4.80162H102.487V0.659622H103.314L105.356 3.94319H105.373C105.37 3.89975 105.362 3.74204 105.351 3.47006C105.339 3.19619 105.333 2.98277 105.333 2.82978V0.659622H105.957V4.80162Z" fill="#6B7280"/>
<path d="M108.012 4.85828C107.522 4.85828 107.138 4.71663 106.861 4.43332C106.585 4.14812 106.448 3.75621 106.448 3.25758C106.448 2.74573 106.576 2.34343 106.832 2.05068C107.089 1.75792 107.441 1.61155 107.889 1.61155C108.305 1.61155 108.634 1.73715 108.875 1.98835C109.116 2.23955 109.237 2.58519 109.237 3.02526V3.38507H107.137C107.147 3.68916 107.229 3.92336 107.385 4.08768C107.541 4.25011 107.76 4.33133 108.043 4.33133C108.229 4.33133 108.402 4.31433 108.562 4.28033C108.723 4.24444 108.896 4.18589 109.08 4.10468V4.6458C108.917 4.72324 108.752 4.77801 108.584 4.81012C108.417 4.84223 108.226 4.85828 108.012 4.85828ZM107.889 2.11584C107.677 2.11584 107.506 2.18289 107.376 2.31699C107.249 2.45109 107.173 2.64657 107.149 2.90344H108.579C108.575 2.64468 108.512 2.4492 108.391 2.31699C108.269 2.18289 108.102 2.11584 107.889 2.11584Z" fill="#6B7280"/>
<path d="M112.231 4.80162L111.824 3.33974C111.775 3.18486 111.685 2.82506 111.556 2.26033H111.531C111.42 2.77028 111.333 3.13198 111.268 3.34541L110.85 4.80162H110.109L109.226 1.66821H109.91L110.311 3.21225C110.402 3.59377 110.467 3.92053 110.505 4.1925H110.522C110.541 4.05463 110.57 3.89692 110.608 3.71937C110.647 3.53994 110.682 3.40584 110.71 3.31707L111.189 1.66821H111.924L112.388 3.31707C112.417 3.40962 112.452 3.55128 112.494 3.74204C112.537 3.9328 112.563 4.08107 112.57 4.18684H112.593C112.622 3.95452 112.688 3.62966 112.793 3.21225L113.2 1.66821H113.872L112.984 4.80162H112.231Z" fill="#6B7280"/>
<path d="M116.183 3.90919C116.183 4.21517 116.071 4.45032 115.847 4.61464C115.623 4.77707 115.302 4.85828 114.884 4.85828C114.464 4.85828 114.127 4.79501 113.873 4.66846V4.09334C114.243 4.26333 114.588 4.34832 114.907 4.34832C115.319 4.34832 115.525 4.22461 115.525 3.97719C115.525 3.89786 115.502 3.83175 115.457 3.77887C115.411 3.72599 115.336 3.67121 115.232 3.61455C115.127 3.55789 114.982 3.49367 114.796 3.4219C114.433 3.28213 114.187 3.14237 114.058 3.0026C113.931 2.86283 113.867 2.68151 113.867 2.45864C113.867 2.19044 113.975 1.98268 114.192 1.83536C114.41 1.68615 114.707 1.61155 115.081 1.61155C115.451 1.61155 115.801 1.68615 116.132 1.83536L115.915 2.33682C115.575 2.19705 115.29 2.12717 115.058 2.12717C114.705 2.12717 114.528 2.22727 114.528 2.42748C114.528 2.52569 114.574 2.6088 114.665 2.67679C114.758 2.74479 114.959 2.83828 115.269 2.95727C115.529 3.05737 115.718 3.14898 115.836 3.23208C115.953 3.31519 116.041 3.41151 116.098 3.52106C116.155 3.62872 116.183 3.75809 116.183 3.90919Z" fill="#6B7280"/>
<path d="M120.554 1.91185C120.554 2.34438 120.412 2.67585 120.127 2.90627C119.842 3.1367 119.436 3.25191 118.91 3.25191H118.477V4.80162H117.796V0.659622H118.996C119.516 0.659622 119.906 0.765392 120.164 0.97693C120.424 1.18847 120.554 1.50011 120.554 1.91185ZM118.477 2.68246H118.839C119.189 2.68246 119.445 2.62202 119.608 2.50114C119.772 2.38026 119.853 2.19139 119.853 1.93452C119.853 1.69654 119.78 1.519 119.634 1.4019C119.488 1.28479 119.26 1.22624 118.95 1.22624H118.477V2.68246Z" fill="#6B7280"/>
<path d="M123.76 3.22925C123.76 3.7411 123.628 4.14056 123.364 4.42765C123.1 4.71474 122.732 4.85828 122.261 4.85828C121.967 4.85828 121.706 4.79218 121.48 4.65997C121.254 4.52775 121.081 4.33794 120.959 4.09051C120.837 3.84309 120.777 3.556 120.777 3.22925C120.777 2.72118 120.908 2.32454 121.17 2.03934C121.432 1.75414 121.801 1.61155 122.278 1.61155C122.734 1.61155 123.095 1.75792 123.361 2.05068C123.627 2.34154 123.76 2.7344 123.76 3.22925ZM121.466 3.22925C121.466 3.95263 121.735 4.31433 122.272 4.31433C122.804 4.31433 123.07 3.95263 123.07 3.22925C123.07 2.51342 122.802 2.1555 122.267 2.1555C121.986 2.1555 121.781 2.24805 121.654 2.43315C121.529 2.61824 121.466 2.88361 121.466 3.22925Z" fill="#6B7280"/>
<path d="M125.78 1.61155C125.915 1.61155 126.026 1.62099 126.113 1.63988L126.048 2.26033C125.953 2.23766 125.854 2.22633 125.751 2.22633C125.483 2.22633 125.266 2.31321 125.099 2.48697C124.934 2.66074 124.851 2.88644 124.851 3.16409V4.80162H124.182V1.66821H124.706L124.794 2.22066H124.828C124.933 2.03368 125.068 1.88541 125.236 1.77587C125.405 1.66632 125.586 1.61155 125.78 1.61155Z" fill="#6B7280"/>
<path d="M127.524 4.31999C127.687 4.31999 127.85 4.2945 128.014 4.2435V4.74496C127.94 4.77707 127.844 4.80351 127.726 4.82429C127.61 4.84695 127.489 4.85828 127.364 4.85828C126.73 4.85828 126.413 4.52587 126.413 3.86103V2.1725H125.982V1.87786L126.444 1.63421L126.672 0.971264H127.085V1.66821H127.982V2.1725H127.085V3.8497C127.085 4.01024 127.125 4.12923 127.205 4.20667C127.286 4.28222 127.393 4.31999 127.524 4.31999Z" fill="#6B7280"/>
<path d="M130.268 4.80162L130.134 4.36532H130.111C129.959 4.55609 129.806 4.68641 129.652 4.75629C129.498 4.82429 129.301 4.85828 129.06 4.85828C128.75 4.85828 128.508 4.77518 128.333 4.60897C128.16 4.44276 128.074 4.20761 128.074 3.90353C128.074 3.58055 128.194 3.33691 128.436 3.17259C128.677 3.00827 129.044 2.91855 129.538 2.90344L130.082 2.88644V2.71929C130.082 2.51908 130.035 2.36987 129.94 2.27166C129.847 2.17156 129.702 2.1215 129.504 2.1215C129.343 2.1215 129.188 2.14511 129.04 2.19233C128.891 2.23955 128.749 2.29527 128.612 2.35948L128.396 1.88352C128.567 1.79475 128.754 1.7277 128.957 1.68237C129.16 1.63515 129.352 1.61155 129.532 1.61155C129.933 1.61155 130.235 1.69843 130.438 1.87219C130.644 2.04595 130.746 2.31888 130.746 2.69096V4.80162H130.268ZM129.27 4.34832C129.513 4.34832 129.708 4.28127 129.854 4.14717C130.003 4.01118 130.077 3.82137 130.077 3.57772V3.30574L129.672 3.32274C129.357 3.33407 129.127 3.38696 128.983 3.48139C128.84 3.57394 128.769 3.71654 128.769 3.90919C128.769 4.04896 128.811 4.15756 128.894 4.235C128.978 4.31055 129.103 4.34832 129.27 4.34832Z" fill="#6B7280"/>
<path d="M132 4.80162H131.331V0.393311H132V4.80162Z" fill="#6B7280"/>
</svg>
