<svg width="186" height="25" viewBox="0 0 186 25" fill="none" xmlns="http://www.w3.org/2000/svg">
<path fill-rule="evenodd" clip-rule="evenodd" d="M124.167 4.32664C124.299 4.53767 124.312 4.81418 124.312 4.81418C124.365 5.42502 124.827 5.64696 124.827 5.64696C124.827 5.64696 124.568 5.66798 124.723 5.90649C124.877 6.14501 124.943 6.38797 124.943 6.38797C125.081 6.88117 125.382 6.7328 125.382 6.7328C125.346 6.92321 125.113 7.15283 124.834 7.4912C124.555 7.82916 124.668 8.18248 124.668 8.18248C124.488 8.24151 124.466 8.42059 124.466 8.42059C124.392 9.26429 125.127 8.29123 125.229 8.12548C125.331 7.95933 125.647 7.77459 125.647 7.77459C125.578 7.85625 125.45 8.31993 125.815 8.13923C126.181 7.95893 126.554 8.19785 126.554 8.19785C126.554 8.19785 127.062 8.46062 127.407 8.30983C127.751 8.15823 127.874 8.2508 127.874 8.2508C127.752 8.28395 127.42 8.72339 127.16 9.26348C126.901 9.80317 127.168 9.75102 127.168 9.75102C127.168 9.75102 127.202 9.86057 126.8 10.0942C126.399 10.3275 126.495 10.7985 126.776 10.9416C127.057 11.0851 127.225 11.3119 127.225 11.3119C127.054 11.191 126.648 11.187 126.398 11.2714C126.146 11.3551 125.683 11.2965 125.279 11.3357C124.875 11.3753 124.648 11.6806 124.908 11.9336C125.167 12.1879 125.293 12.3803 125.32 12.576C125.347 12.7725 125.487 12.8149 125.487 12.8149C125.834 12.9956 125.977 13.2083 125.977 13.2083C125.564 13.0029 124.936 13.186 124.463 13.1569C123.991 13.1286 123.997 13.7783 123.997 13.7783C123.81 13.4751 123.495 13.2349 123.281 13.0344C123.067 12.8347 122.53 12.9754 122.882 13.3683C123.236 13.7625 123.219 14.0293 123.219 14.0293C123.219 14.0293 123.097 13.7063 122.291 13.486C121.485 13.2649 120.893 12.177 120.893 12.177C120.3 12.5243 119.876 13.9367 119.876 13.9367C119.643 14.7533 118.872 15.8485 118.762 15.9637C118.651 16.0797 118.363 16.4476 118.266 16.7581C118.171 17.0686 117.952 17.149 117.952 17.149C117.653 17.0669 117.844 16.8025 117.844 16.8025C118.305 16.5426 119.475 14.9518 119.731 13.8749C119.989 12.7979 120.746 12.0019 120.746 12.0019C120.746 12.0019 120.326 12.1592 120.047 11.9094C119.769 11.6603 119.653 11.6996 119.653 11.6996C119.653 11.6996 119.138 11.6612 118.715 11.4186C118.292 11.1748 117.874 11.3191 117.874 11.3191C117.874 11.3191 118.158 11.001 118.397 10.984C118.636 10.9674 118.785 10.543 118.647 10.4872C118.508 10.4314 118.29 10.281 118.169 10.1524C118.05 10.0235 117.658 9.85774 117.658 9.85774C117.83 9.74819 117.865 9.20082 117.415 8.77432C116.964 8.34742 116.86 7.89465 116.86 7.89465C116.86 7.89465 117.262 8.15459 117.431 8.16308C117.598 8.17157 117.765 8.26051 117.765 8.26051C117.941 8.18289 118.117 8.25404 118.117 8.25404C118.358 8.35025 118.659 8.20108 118.659 8.20108C118.757 8.15378 118.852 7.92416 118.674 7.67109C118.496 7.41843 118.498 7.03802 118.498 7.03802C118.489 6.63053 118.08 6.17007 118.08 6.17007C118.401 6.42961 118.66 6.32693 118.66 6.32693C119.185 6.18543 118.923 5.60006 118.923 5.60006C119.239 5.5653 119.541 5.03571 119.603 4.69735C119.663 4.35939 119.763 4.14917 119.763 4.14917C119.773 4.24377 119.812 4.29147 119.812 4.29147C120.042 4.60477 120.057 4.70624 120.057 4.70624C120.057 4.70624 120.134 4.97548 120.318 5.08544C120.503 5.1954 120.675 5.44159 120.675 5.44159C120.906 5.79977 121.091 5.32153 121.091 5.32153C121.167 6.10943 121.396 6.47893 121.396 6.47893C121.266 6.61112 121.273 6.74331 121.273 6.74331C121.262 7.37356 121.762 6.65478 121.937 6.45144C122.111 6.24769 122.005 6.09488 122.005 6.09488C122.291 5.90124 122.215 5.12587 122.215 5.12587L122.495 5.41936C122.644 5.57015 122.87 5.42704 122.918 5.23785C122.966 5.04825 123.08 4.88331 123.08 4.88331C123.205 5.16912 123.779 4.96254 123.779 4.96254C124.038 4.86067 124.148 4.45762 124.148 4.45762L124.167 4.32664Z" fill="#4B5563"/>
<path fill-rule="evenodd" clip-rule="evenodd" d="M120.061 4.93724C120.068 5.00071 120.073 5.06417 120.078 5.12724C120.074 5.06417 120.071 5.00111 120.069 4.93845C120.069 4.93683 120.062 4.93683 120.061 4.93724ZM120.084 5.21375C120.082 5.18464 120.08 5.15513 120.078 5.12683L120.084 5.21375ZM120.834 7.17846C120.878 7.37412 120.958 7.56089 121.003 7.75777C121.089 8.13333 121.02 8.47048 120.992 8.84685C120.963 9.24343 121.07 9.63071 121.169 10.0115C121.17 10.0127 121.159 10.0139 121.159 10.0115C121.043 9.64567 120.885 9.23534 120.908 8.84523C120.933 8.4252 120.997 8.05328 120.884 7.63689C120.836 7.46306 120.785 7.29448 120.765 7.1154C120.744 6.93873 120.733 6.74671 120.651 6.585C120.496 6.27938 120.336 6.01904 120.283 5.6738C120.283 5.6738 120.284 5.6738 120.284 5.6742C120.322 5.87068 120.385 6.05825 120.483 6.23491C120.567 6.38813 120.67 6.53164 120.731 6.69699C120.787 6.8502 120.799 7.01918 120.834 7.17846ZM118.69 9.99616C118.462 9.6772 118.315 9.30407 118.031 9.02553C117.787 8.78661 117.513 8.58893 117.36 8.27563C117.36 8.27522 117.362 8.27441 117.363 8.27482C117.547 8.63097 117.891 8.83472 118.162 9.11649C118.418 9.38168 118.604 9.70226 118.846 9.97878C119.312 10.5088 119.962 10.9304 120.291 11.5679C120.306 11.597 120.236 11.6233 120.218 11.6027C119.965 11.3246 119.706 11.0525 119.434 10.7917C119.173 10.5407 118.901 10.2909 118.69 9.99616ZM120.158 11.802C120.163 11.8056 120.136 11.8117 120.129 11.8073C120.045 11.7426 119.967 11.6738 119.892 11.6015C119.883 11.6068 119.873 11.6093 119.863 11.6088C119.62 11.5906 119.439 11.4612 119.229 11.3529C118.973 11.2223 118.529 11.0573 118.256 11.211C118.255 11.2118 118.251 11.2106 118.251 11.2102C118.444 11.084 118.722 11.1596 118.931 11.198C119.248 11.2558 119.538 11.3985 119.827 11.5352C119.525 11.2231 119.284 10.8548 118.993 10.5302C118.652 10.149 118.213 9.82071 118.064 9.30973C118.064 9.30932 118.068 9.30892 118.068 9.30932C118.259 9.8199 118.702 10.1178 119.043 10.5205C119.413 10.9559 119.722 11.4277 120.158 11.802Z" fill="#F3F4F6"/>
<path fill-rule="evenodd" clip-rule="evenodd" d="M119.45 11.2825C119.212 11.1362 118.965 11.0226 118.687 10.9729C118.687 10.9724 118.689 10.9708 118.69 10.9708C118.984 10.9826 119.248 11.0856 119.483 11.2615C119.493 11.2688 119.46 11.2882 119.45 11.2825ZM123.134 9.57411C123.338 9.49164 123.56 9.43423 123.758 9.33478C124.028 9.19814 124.247 8.99238 124.491 8.81369C124.492 8.81329 124.497 8.81167 124.496 8.81248C124.167 9.08374 123.898 9.35217 123.501 9.50821C123.005 9.70307 122.459 9.81666 121.988 10.1102C121.977 10.1174 121.939 10.1267 121.964 10.1085C122.33 9.85426 122.741 9.73379 123.134 9.57411Z" fill="#F3F4F6"/>
<path fill-rule="evenodd" clip-rule="evenodd" d="M122.111 9.72737C122.082 9.75931 122.155 9.77346 122.176 9.76012C122.508 9.54545 122.937 9.47875 123.309 9.35788C123.629 9.2556 123.954 9.09106 124.183 8.84285C124.183 8.84244 124.177 8.84163 124.176 8.84244C123.868 9.066 123.455 9.18606 123.089 9.27824C122.729 9.3696 122.376 9.44762 122.111 9.72737ZM124.851 8.81495C125.189 8.64637 125.641 8.55218 125.908 8.26556C125.908 8.26556 125.908 8.26596 125.907 8.26596C125.546 8.46001 125.144 8.54814 124.806 8.79029C124.775 8.81293 124.833 8.82263 124.851 8.81495ZM125.728 10.0718C125.959 10.0108 126.187 10.0358 126.422 10.054C126.441 10.0548 126.479 10.0326 126.444 10.0269C126.257 9.99257 126.073 9.96386 125.888 9.98044C126.225 9.78235 126.559 9.56647 126.865 9.32513C126.865 9.32513 126.862 9.32473 126.862 9.32473C126.468 9.55192 126.11 9.84218 125.69 10.0197C125.18 10.2339 125.691 10.0815 125.728 10.0718ZM124.422 7.00831C124.504 6.86075 124.627 6.58343 124.824 6.5612C124.826 6.5612 124.829 6.562 124.825 6.56241C124.599 6.59798 124.443 7.04873 124.362 7.22257C124.26 7.4441 124.171 7.68181 124.037 7.88758C124.032 7.89526 123.999 7.89404 124.004 7.88515C124.163 7.60379 124.265 7.2921 124.422 7.00831ZM123.612 8.71106C123.591 8.72359 123.613 8.72601 123.626 8.71955C123.784 8.64395 123.918 8.5441 124.043 8.42363C124.164 8.3076 124.326 8.01896 124.49 7.96883C124.492 7.96843 124.497 7.96519 124.492 7.96641C124.414 7.98339 124.361 8.02583 124.308 8.08809C124.104 8.3258 123.887 8.5542 123.612 8.71106ZM120.379 5.51254C120.38 5.50324 120.383 5.51375 120.382 5.51699C120.349 5.8408 120.751 6.2107 120.871 6.46458C120.996 6.72896 121.075 7.00588 121.094 7.32242C121.096 7.3491 121.073 7.39195 121.067 7.34748C120.991 6.79082 120.74 6.32794 120.461 5.89012C120.389 5.77531 120.351 5.66616 120.379 5.51254ZM126.567 10.9377C126.574 10.9349 126.576 10.9381 126.568 10.941C126.027 11.1637 125.425 11.1047 124.857 11.0703C124.515 11.0497 124.175 11.0016 123.834 10.9915C123.496 10.9818 123.17 11.0275 122.837 11.0772C122.794 11.0841 122.764 11.0352 122.81 11.0117C123.322 10.7413 123.941 10.831 124.493 10.8892C124.78 10.9195 125.067 10.9486 125.354 10.9806C125.76 11.025 126.175 11.0853 126.567 10.9377ZM125.612 11.1738C125.613 11.1742 125.616 11.173 125.616 11.1726C125.489 11.1289 125.364 11.1342 125.236 11.154C125.366 11.1366 125.494 11.1366 125.612 11.1738ZM125.057 11.188C125.116 11.1754 125.176 11.1629 125.236 11.154C125.15 11.1645 125.063 11.1827 124.977 11.2037C125.004 11.1977 125.03 11.1928 125.057 11.188ZM124.977 11.2033C124.852 11.232 124.729 11.2648 124.614 11.283C124.337 11.3254 124.067 11.3331 123.787 11.3149C123.427 11.2911 123.118 11.3218 122.773 11.4325C122.497 11.5211 122.227 11.627 121.939 11.6686C121.899 11.6743 121.887 11.6371 121.922 11.6185C122.269 11.4321 122.644 11.3048 123.03 11.2276C123.324 11.1686 123.597 11.2256 123.89 11.2648C124.259 11.3145 124.616 11.2737 124.977 11.2033Z" fill="#F3F4F6"/>
<path fill-rule="evenodd" clip-rule="evenodd" d="M120.228 8.9071C120.203 8.51861 120.239 8.12809 120.17 7.74242C120.121 7.46712 120.028 7.20314 119.943 6.93754C119.903 6.71156 119.849 6.48841 119.795 6.27051C119.684 5.82461 119.751 5.35809 119.693 4.90532C119.693 4.90491 119.692 4.90532 119.692 4.90532C119.735 5.3395 119.679 5.7761 119.689 6.21108C119.698 6.52681 119.91 7.37091 120.062 7.98983C120.073 8.15073 120.073 8.31284 120.072 8.47454C119.978 8.21379 119.886 7.96113 119.886 7.9583C119.755 7.53302 119.59 7.10814 119.59 6.65739C119.589 6.18278 119.576 5.72678 119.51 5.25541C119.51 5.25501 119.509 5.25501 119.509 5.25501C119.529 5.4915 119.554 5.72759 119.564 5.96489C119.574 6.21432 119.545 6.46213 119.542 6.71196C119.538 7.05235 119.805 7.84187 120.072 8.52993C120.072 8.62169 120.072 8.71265 120.073 8.80401C120.026 8.70093 119.993 8.62897 119.992 8.62654C119.781 8.20247 119.548 7.65713 119.459 7.18616C119.359 6.65254 119.41 6.0801 119.389 5.53839C119.389 5.53839 119.385 5.54001 119.385 5.54082C119.381 5.81491 119.368 6.08778 119.353 6.36066C119.337 6.64364 119.305 6.9339 119.36 7.21406C119.422 7.531 119.781 8.31971 120.076 8.91195C120.078 8.9447 120.079 8.97704 120.081 9.00938C120.084 9.05385 120.089 9.09751 120.095 9.13996C120.073 9.09233 120.051 9.04516 120.028 8.99846C119.842 8.63705 119.574 8.3379 119.411 7.95951C119.265 7.62236 119.155 7.25852 119.142 6.88943C119.13 6.5357 119.208 6.18966 119.178 5.8331C119.178 5.83189 119.17 5.83229 119.17 5.83391C119.214 6.17632 119.062 6.49447 119.018 6.82879C118.973 7.17605 119.095 7.54434 119.211 7.86572C119.35 8.25139 119.566 8.57116 119.79 8.91074C119.906 9.08659 119.995 9.27255 120.074 9.46417C120.018 9.40866 119.959 9.35565 119.897 9.3053C119.486 8.70295 119.208 8.15235 119.053 7.81681C118.868 7.41659 118.848 6.9428 118.609 6.56885C118.608 6.56805 118.605 6.56885 118.605 6.56926C118.801 6.97878 118.795 7.43195 118.939 7.85643C119.059 8.2049 119.387 8.72801 119.641 9.10681C119.582 9.06395 119.525 9.02232 119.472 8.98512C119.23 8.8117 118.977 8.6605 118.816 8.40258C118.815 8.40218 118.813 8.4038 118.813 8.4038C119.043 8.84161 119.539 9.10721 119.869 9.46539C120.23 9.85712 120.392 10.3119 120.471 10.8217C120.267 10.3944 120.048 9.96627 119.771 9.58505C119.62 9.37726 119.453 9.19938 119.241 9.05506C118.973 8.87355 118.668 8.74216 118.508 8.44463C118.508 8.44422 118.506 8.44544 118.506 8.44544C118.598 8.6694 118.761 8.83636 118.947 8.98593C119.196 9.18564 119.421 9.36756 119.63 9.6089C119.997 10.0322 120.241 10.5371 120.515 11.021C120.527 11.1079 120.539 11.1952 120.554 11.2821C120.554 11.287 120.555 11.2918 120.556 11.2967C120.292 10.7162 119.755 9.9509 119.435 9.62022C119.036 9.2103 118.566 8.88042 118.178 8.4612C118.178 8.46039 118.173 8.4608 118.174 8.4608C118.534 8.9168 118.962 9.33481 119.363 9.75484C119.54 9.93999 119.74 10.1005 119.916 10.286C120.057 10.434 120.288 10.8662 120.459 11.2231C120.184 10.8225 119.773 10.4926 119.461 10.1458C118.903 9.5236 118.257 8.98998 117.703 8.36539C117.702 8.36499 117.7 8.3662 117.7 8.3662C118.211 8.95561 118.826 9.44558 119.317 10.0532C119.763 10.6038 120.263 11.0853 120.587 11.7163C120.614 11.8489 120.67 11.9427 120.768 11.9362C120.767 11.9581 120.768 11.9795 120.77 12.0021C120.776 12.0656 120.854 12.0866 120.9 12.0514C120.937 12.0236 120.975 11.9969 121.012 11.9702C121.018 11.9742 121.025 11.9763 121.037 11.9742C121.371 11.9124 121.71 11.874 122.044 11.817C122.356 11.7636 122.657 11.6577 122.972 11.6314C123.26 11.6076 123.547 11.6452 123.835 11.61C124.15 11.5712 124.44 11.456 124.763 11.4535C124.764 11.4535 124.769 11.4495 124.769 11.4487C124.461 11.4269 124.155 11.5012 123.848 11.5109C123.535 11.5207 123.224 11.4665 122.911 11.4843C122.606 11.5017 122.307 11.6104 122.008 11.6625C121.73 11.7107 121.466 11.7499 121.208 11.8437C121.449 11.6969 121.704 11.5772 121.963 11.4592C122.347 11.2854 122.691 11.0699 123.049 10.8508C123.062 10.8423 123.077 10.8346 123.091 10.8261C123.096 10.8314 123.116 10.8342 123.123 10.8326C123.577 10.6972 124.03 10.7578 124.495 10.7671C124.929 10.7752 125.369 10.7675 125.801 10.7174C125.803 10.7174 125.799 10.7166 125.798 10.7166C125.269 10.7732 124.723 10.7703 124.193 10.7352C123.83 10.7105 123.461 10.6822 123.115 10.8128C123.298 10.7065 123.491 10.6232 123.684 10.5431C123.697 10.5573 123.715 10.5674 123.738 10.5686C124.582 10.6163 125.438 10.7457 126.275 10.5476C126.288 10.5448 126.326 10.5084 126.295 10.5124C125.542 10.59 124.789 10.4866 124.037 10.4295C124.261 10.3265 124.492 10.2383 124.72 10.1437C125.045 10.0091 125.342 9.82599 125.647 9.65175C125.925 9.49288 126.196 9.32713 126.461 9.14481C126.789 8.91842 127.109 8.68395 127.485 8.54003C127.485 8.53963 127.488 8.53761 127.485 8.53842C126.857 8.75955 126.337 9.21838 125.742 9.51188C125.525 9.6182 125.306 9.7229 125.085 9.82316C125.131 9.79567 125.178 9.76858 125.223 9.74109C125.223 9.74069 125.221 9.74069 125.22 9.74109C125.127 9.79284 125.035 9.84135 124.942 9.88784C124.866 9.92018 124.792 9.95293 124.717 9.98365C124.467 10.0867 124.214 10.1773 123.969 10.2885C123.654 10.3984 123.353 10.5039 123.064 10.6612C123.12 10.6204 123.175 10.5795 123.231 10.5379C123.283 10.5153 123.336 10.4938 123.389 10.4696C123.647 10.356 123.9 10.227 124.15 10.0972C124.626 9.85105 125.089 9.5903 125.573 9.35866C126.032 9.13874 126.492 8.91397 126.916 8.6314C126.918 8.62978 126.913 8.6314 126.912 8.6318C126.436 8.93742 125.92 9.15289 125.4 9.36553C124.904 9.56766 124.427 9.79931 123.949 10.0362C123.501 10.2577 123.025 10.4271 122.592 10.6745C122.461 10.7489 122.335 10.831 122.212 10.9175C122.208 10.9175 122.205 10.9187 122.204 10.9191C122.174 10.9377 122.144 10.9567 122.113 10.9753C122.136 10.9575 122.156 10.9385 122.178 10.9203C122.335 10.8067 122.49 10.6919 122.648 10.5836C123.094 10.2788 123.548 10.0229 124.047 9.81507C124.542 9.60809 125.061 9.43668 125.534 9.182C125.939 8.9641 126.31 8.69203 126.719 8.48182C126.719 8.48182 126.717 8.48141 126.717 8.48141C126.242 8.68759 125.814 8.9827 125.346 9.2014C124.885 9.41566 124.394 9.56928 123.926 9.76899C123.515 9.94482 123.116 10.1468 122.73 10.3738C122.704 10.3867 122.677 10.4 122.651 10.4138C122.678 10.3968 122.706 10.3798 122.734 10.3628C123.048 10.1749 123.368 9.99618 123.698 9.83852C123.707 9.83448 123.704 9.83003 123.696 9.83448C123.506 9.92139 123.311 9.99699 123.118 10.0774C123.365 9.93936 123.612 9.80299 123.861 9.66833C124.288 9.43749 124.746 9.27741 125.188 9.07972C125.625 8.88406 126.041 8.64271 126.476 8.4418C126.477 8.44099 126.471 8.44018 126.471 8.44099C126.026 8.63665 125.6 8.8687 125.156 9.06476C124.688 9.27215 124.199 9.42819 123.731 9.63801C122.909 10.0063 122.141 10.4352 121.448 11.0048C121.482 10.9199 121.516 10.8358 121.555 10.7534C121.573 10.7655 121.603 10.7691 121.622 10.7586C122.308 10.3467 123.03 10.0091 123.692 9.55392C124.074 9.29034 124.5 9.13511 124.924 8.95319C125.304 8.79067 125.665 8.58976 126.043 8.4236C126.051 8.42037 126.033 8.41956 126.03 8.42118C125.625 8.59259 125.234 8.79512 124.827 8.96289C124.463 9.11408 124.095 9.24183 123.755 9.448C123.051 9.87288 122.203 10.1138 121.592 10.677C121.635 10.5832 121.682 10.4898 121.732 10.3952C121.875 10.1211 122.019 9.84741 122.166 9.57494C122.194 9.55109 122.224 9.52764 122.256 9.50541C122.33 9.45285 122.408 9.40596 122.487 9.36109C122.794 9.20706 123.158 9.15572 123.48 9.04657C123.775 8.94631 123.943 8.73408 124.161 8.52507C124.162 8.52467 124.158 8.52548 124.158 8.52629C123.992 8.66091 123.852 8.82221 123.656 8.91721C123.514 8.98674 123.343 9.01585 123.192 9.07002C123.045 9.12298 122.892 9.16623 122.745 9.2204C122.842 9.16906 122.939 9.11651 123.031 9.0587C123.294 8.89497 123.58 8.70255 123.791 8.45918C123.952 8.30354 124.1 8.13335 124.227 7.94577C124.396 7.69715 124.536 7.43963 124.745 7.21972C124.874 7.08388 125.045 7.01354 125.128 6.83648C125.128 6.83607 125.121 6.83728 125.119 6.8385C124.991 6.99899 124.761 7.0665 124.609 7.2092C124.453 7.35555 124.33 7.53625 124.211 7.71251C124.081 7.90534 123.962 8.10545 123.825 8.29222C123.725 8.42846 123.607 8.54893 123.482 8.66131C123.384 8.7268 123.281 8.78623 123.176 8.84161C123.512 8.51012 123.744 8.09332 123.994 7.69068C124.301 7.19748 124.492 6.64486 124.693 6.10193C124.693 6.10153 124.687 6.10032 124.685 6.10193C124.565 6.35015 124.408 6.57775 124.291 6.82799C124.164 7.10005 124.03 7.35838 123.867 7.61185C123.58 8.06139 123.346 8.66212 122.743 9.06032C122.615 9.12338 122.721 9.06719 122.601 9.12742C122.512 9.1727 122.419 9.22162 122.328 9.27579C122.336 9.25881 122.347 9.24183 122.356 9.22485C122.541 9.08457 122.736 8.95925 122.91 8.80361C123.188 8.5558 123.425 8.24128 123.632 7.92353C123.756 7.74525 123.87 7.55929 123.971 7.36444C124.12 7.07741 124.21 6.77139 124.254 6.45243C124.298 6.1278 124.311 5.78257 124.472 5.48988C124.474 5.48665 124.453 5.49029 124.451 5.49514C124.286 5.7482 124.216 6.02755 124.16 6.32064C124.098 6.64566 124.009 6.94441 123.862 7.24276C123.644 7.67774 123.409 8.09332 123.116 8.47293C123.02 8.56388 122.918 8.64999 122.811 8.73165C122.937 8.55378 123.051 8.36701 123.162 8.18267C123.376 7.82934 123.591 7.46631 123.778 7.09763C123.924 6.81101 123.99 6.48921 124.045 6.1743C124.104 5.82501 124.053 5.42843 124.268 5.12322C124.269 5.12281 124.265 5.122 124.265 5.12281C124.092 5.34111 124.054 5.62612 124.024 5.89495C123.984 6.24059 123.919 6.58543 123.797 6.91167C123.664 7.2658 123.432 7.59002 123.237 7.91221C123.038 8.2425 122.739 8.67384 122.522 8.992C122.493 9.01181 122.547 8.9168 122.516 8.93661C122.539 8.897 122.562 8.85778 122.585 8.81816C122.663 8.72276 122.738 8.62452 122.805 8.5178C122.959 8.2716 123.081 8.0056 123.226 7.75455C123.488 7.30218 123.685 6.77988 123.793 6.2693C123.896 5.78054 123.937 5.2352 124.224 4.81113C124.224 4.81072 124.217 4.80991 124.216 4.81113C123.946 5.23762 123.837 5.71667 123.702 6.19774C123.551 6.73662 123.326 7.26782 123.045 7.75253C123.025 7.7873 123.007 7.82287 122.988 7.85804C122.632 8.27969 122.326 8.72801 122.057 9.20989C122.157 8.91519 122.264 8.62371 122.445 8.37024C122.692 8.025 122.922 7.69876 123.086 7.30421C123.402 6.54177 123.509 5.71222 123.979 5.01649C123.979 5.01609 123.972 5.01568 123.971 5.0173C123.489 5.69242 123.274 6.50498 122.944 7.25569C122.768 7.65753 122.488 7.99105 122.301 8.3856C122.159 8.68678 122.065 9.01908 121.97 9.34532C121.931 9.38373 121.895 9.42375 121.862 9.4666C121.881 9.40839 121.896 9.36068 121.905 9.32834C121.932 9.22728 121.939 9.1254 121.934 9.02353C121.941 9.04657 121.945 9.0591 121.947 9.05344C122.007 8.9071 122.06 8.71346 122.112 8.50244C122.376 7.97366 122.701 7.4647 122.908 6.91328C123.024 6.60483 123.099 6.28628 123.246 5.98995C123.389 5.70373 123.577 5.44218 123.702 5.14626C123.702 5.14585 123.699 5.14626 123.698 5.14707C123.554 5.41833 123.382 5.67139 123.224 5.93497C123.053 6.22159 122.961 6.53732 122.848 6.84941C122.667 7.35393 122.383 7.81398 122.16 8.30071C122.269 7.82692 122.372 7.3034 122.505 6.9905C122.612 6.73783 122.719 6.48598 122.837 6.23898C123.01 5.87838 123.184 5.48099 123.513 5.23883C123.517 5.236 123.511 5.23803 123.509 5.23883C123.076 5.53395 122.823 6.11366 122.603 6.57007C122.45 6.8866 122.339 7.21931 122.218 7.54919C122.195 7.61306 122.17 7.68057 122.146 7.7497C122.201 7.38667 122.224 7.01718 122.337 6.66466C122.496 6.17066 122.815 5.7482 123.085 5.31281H123.083C122.785 5.74699 122.445 6.16823 122.261 6.66749C122.108 7.08307 122.123 7.54474 122.063 7.98498C121.991 8.1956 121.926 8.41269 121.886 8.61037C121.882 8.57934 121.878 8.54821 121.875 8.51699C121.815 7.93485 121.815 7.30461 121.952 6.73218C121.952 6.73177 121.945 6.73056 121.944 6.73218C121.834 7.32967 121.759 7.90494 121.825 8.51376C121.854 8.79027 121.927 9.04778 121.863 9.32511C121.842 9.41243 121.799 9.52805 121.746 9.65458C121.738 9.67237 121.728 9.68975 121.721 9.70835C121.72 9.71158 121.721 9.71401 121.72 9.71684C121.649 9.88218 121.567 10.0613 121.501 10.2165C121.61 9.77707 121.722 9.31743 121.683 8.87355C121.657 8.56429 121.604 8.26554 121.606 7.95385C121.608 7.66481 121.658 7.38061 121.736 7.10329C121.737 7.10288 121.732 7.1045 121.732 7.10571C121.578 7.63004 121.567 8.15235 121.624 8.69203C121.657 9.00938 121.64 9.29358 121.575 9.60688C121.514 9.89673 121.405 10.2565 121.383 10.5569C121.381 10.5662 121.377 10.5775 121.375 10.588C121.366 10.6094 121.357 10.6301 121.349 10.6507C121.273 10.8443 121.217 11.0428 121.153 11.2385C121.223 10.8989 121.235 10.4465 121.302 10.1106C121.358 9.83367 121.396 9.56726 121.411 9.28387C121.43 8.94348 121.479 8.60754 121.513 8.26837C121.529 8.10424 121.534 7.94092 121.52 7.77679C121.505 7.57829 121.453 7.39678 121.461 7.19465C121.461 7.19425 121.457 7.19425 121.457 7.19546C121.396 7.82408 121.312 8.46282 121.325 9.09427C121.332 9.47024 121.315 9.81467 121.246 10.1862C121.191 10.4785 121.176 10.7582 121.139 11.0497C121.128 10.6838 121.104 10.3188 121.039 9.95737C120.992 9.69501 120.899 9.44437 120.86 9.18119C120.86 9.17998 120.86 9.17917 120.86 9.17796C120.856 9.10196 120.851 9.02636 120.839 8.95076H120.838C120.841 8.98391 120.842 9.01666 120.843 9.04981C120.814 8.82746 120.793 8.60229 120.778 8.37994C120.743 7.84753 120.627 7.29248 120.468 6.78271C120.369 6.46577 120.236 6.15853 120.165 5.83229C120.123 5.63137 120.095 5.42197 120.079 5.21337C120.091 5.39569 120.102 5.57882 120.13 5.76114C120.174 6.04129 120.283 6.30932 120.375 6.57653C120.566 7.12835 120.734 7.78043 120.696 8.36943C120.681 8.60188 120.679 8.83999 120.732 9.0684C120.76 9.19453 120.801 9.31662 120.844 9.43871C120.843 9.486 120.842 9.5329 120.842 9.5802C120.84 9.7985 120.876 10.0107 120.905 10.2266C120.922 10.3527 120.933 10.4793 120.937 10.6058C120.888 10.4498 120.826 10.299 120.756 10.151C120.723 9.9129 120.684 9.6756 120.651 9.4379C120.605 9.09872 120.594 8.75793 120.564 8.41754C120.508 7.77072 120.375 7.13805 120.203 6.51347C120.041 5.91921 119.952 5.31564 119.913 4.70117C119.913 4.70117 119.908 4.70198 119.908 4.70319C119.938 5.27239 120.009 5.8331 120.146 6.38694C120.302 7.01758 120.452 7.63651 120.517 8.28454C120.549 8.59986 120.554 8.91761 120.58 9.23415C120.602 9.48237 120.635 9.72937 120.668 9.97597C120.653 9.94807 120.64 9.92059 120.625 9.8935C120.612 9.86884 120.596 9.84337 120.581 9.81831C120.562 9.69339 120.544 9.56928 120.526 9.44437C120.479 9.10519 120.469 8.7648 120.439 8.42441C120.382 7.77679 120.246 7.14614 120.078 6.51994C119.906 5.88201 119.867 5.21579 119.827 4.55968C119.827 4.55927 119.822 4.56008 119.822 4.56129C119.853 5.17496 119.888 5.78823 120.021 6.38936C120.162 7.02526 120.326 7.64055 120.391 8.29101C120.423 8.60714 120.427 8.92449 120.454 9.24102C120.467 9.39262 120.484 9.54381 120.504 9.69501C120.47 9.64164 120.435 9.58707 120.399 9.53209C120.388 9.50581 120.331 9.3813 120.263 9.23253C120.252 9.17311 120.242 9.11328 120.235 9.05183C120.23 9.01101 120.227 8.97002 120.225 8.92893L120.228 8.9071ZM122.696 8.47859C122.596 8.69365 122.461 8.87274 122.329 9.06355C122.313 9.07406 122.296 9.08457 122.281 9.09589C122.469 8.73367 122.67 8.37752 122.898 8.04239C122.829 8.18671 122.764 8.33265 122.696 8.47859ZM121.152 11.2567C121.15 11.2595 121.15 11.2619 121.148 11.2648C121.148 11.2563 121.148 11.2478 121.148 11.2393C121.15 11.2462 121.15 11.2526 121.152 11.2567ZM121.027 10.3438C120.992 10.1094 120.914 9.88501 120.887 9.65013C120.882 9.60809 120.88 9.56524 120.878 9.5232C120.92 9.64407 120.962 9.76454 120.995 9.88865C121.115 10.3483 121.125 10.8282 121.135 11.3032C121.123 11.3399 121.11 11.3779 121.097 11.4139C121.093 11.3953 121.089 11.3775 121.085 11.3594L121.084 11.3589C121.094 11.2672 121.087 11.1714 121.071 11.0752C121.091 10.8257 121.059 10.5569 121.027 10.3438ZM120.588 10.924C120.59 10.9466 120.593 10.968 120.596 10.9907C120.595 10.9911 120.595 10.9923 120.595 10.9931C120.593 10.9878 120.591 10.9826 120.589 10.9765C120.589 10.9591 120.588 10.9417 120.588 10.924ZM120.846 11.4786C120.842 11.4415 120.838 11.4044 120.833 11.3674C120.825 11.3015 120.816 11.2344 120.804 11.1685C120.802 11.1636 120.8 11.1588 120.798 11.154C120.812 11.2421 120.824 11.3302 120.834 11.4188C120.836 11.4265 120.837 11.4345 120.839 11.4426C120.842 11.4531 120.844 11.4657 120.846 11.4786ZM120.849 11.7001C120.852 11.6961 120.856 11.6925 120.859 11.6888C120.847 11.6864 120.85 11.6783 120.852 11.65C120.852 11.6383 120.852 11.6254 120.852 11.6128C120.851 11.6136 120.849 11.6132 120.847 11.6136C120.848 11.6427 120.849 11.6718 120.849 11.7001ZM124.242 12.6595C124.183 12.6514 124.125 12.6441 124.066 12.636C124.073 12.6384 124.08 12.6401 124.087 12.6425C124.418 12.7391 124.729 12.8757 125.03 13.0407C125.065 13.0605 125.009 13.0977 124.986 13.0928C124.654 13.0298 124.356 12.8798 124.033 12.788C123.854 12.7375 123.67 12.7165 123.489 12.6748C123.301 12.6312 123.124 12.5649 122.942 12.4994C122.577 12.368 122.21 12.3272 121.826 12.298C121.547 12.277 121.26 12.2548 120.998 12.1469C120.998 12.1469 121 12.1444 121.002 12.1448C121.321 12.2447 121.647 12.2645 121.979 12.2799C122.328 12.2964 122.66 12.3393 122.999 12.4177C123.092 12.4399 123.186 12.4585 123.281 12.4755C123.277 12.4747 123.275 12.4739 123.272 12.4731C122.911 12.3433 122.564 12.1966 122.186 12.123C121.778 12.0442 121.368 12.0134 120.955 12.0709C120.953 12.0713 120.945 12.0688 120.947 12.0676C121.312 11.994 121.692 11.9629 122.063 11.9961C122.442 12.03 122.785 12.138 123.14 12.2637C123.343 12.3356 123.546 12.4072 123.76 12.4371C123.927 12.461 124.096 12.4747 124.26 12.5111C124.431 12.5495 124.564 12.6372 124.718 12.714C124.937 12.8236 125.172 12.9048 125.406 12.976C125.432 12.9841 125.41 12.9934 125.394 12.9893C125.005 12.8923 124.641 12.7128 124.242 12.6595Z" fill="#F3F4F6"/>
<path fill-rule="evenodd" clip-rule="evenodd" d="M121.983 11.8853C121.974 11.8711 121.983 11.8497 122.009 11.8469C122.286 11.8173 122.57 11.787 122.854 11.7802C122.861 11.7785 122.868 11.7781 122.871 11.7789C122.878 11.7789 122.884 11.7789 122.891 11.7793C122.971 11.7781 123.051 11.7793 123.131 11.7826C123.437 11.7713 123.766 11.7575 123.989 11.7603C124.157 11.7628 124.514 11.6746 124.625 11.8553C124.625 11.8558 124.619 11.8582 124.617 11.8566C124.513 11.7203 124.329 11.7923 124.188 11.8024C124.041 11.8129 123.894 11.8202 123.748 11.8173C123.638 11.8153 123.529 11.8105 123.42 11.8068C123.487 11.8153 123.552 11.827 123.618 11.8412C123.797 11.88 123.964 11.9305 124.126 12.0166C124.378 12.1496 124.636 12.3215 124.935 12.2725C124.937 12.2717 124.944 12.2729 124.941 12.2738C124.514 12.3671 124.114 12.0712 123.706 11.9981C123.33 11.9301 122.947 11.9326 122.566 11.9257C122.634 11.9322 122.703 11.9402 122.771 11.9516C123.042 11.9976 123.297 12.0639 123.557 12.1501C124.132 12.3421 124.712 12.5224 125.294 12.6918C125.297 12.6922 125.287 12.6946 125.285 12.6938C124.695 12.5434 124.096 12.4488 123.51 12.2766C123.001 12.1274 122.476 12.0761 121.97 11.9099C121.949 11.9026 121.967 11.8913 121.983 11.8853ZM124.571 13.0192C124.573 13.0192 124.565 13.0241 124.563 13.0241C124.011 13.058 123.463 12.8126 122.936 12.678C122.617 12.5955 122.278 12.5402 121.949 12.5054C121.686 12.4783 121.41 12.4892 121.182 12.3356C121.144 12.3105 121.22 12.2742 121.24 12.2762C121.861 12.3473 122.505 12.3918 123.101 12.5976C123.588 12.7649 124.038 13.0394 124.571 13.0192Z" fill="#F3F4F6"/>
<path fill-rule="evenodd" clip-rule="evenodd" d="M121.078 12.3259C121.078 12.3259 121.079 12.3255 121.079 12.3259C121.285 12.5611 121.575 12.6675 121.882 12.6885C122.126 12.7051 122.357 12.6909 122.594 12.7701C122.64 12.7851 122.583 12.8199 122.561 12.8215C122.072 12.851 121.395 12.7402 121.078 12.3259Z" fill="#F3F4F6"/>
<path fill-rule="evenodd" clip-rule="evenodd" d="M122.651 13.5075C122.285 13.3608 121.656 13.2136 121.513 12.79C121.447 12.7495 121.388 12.6962 121.346 12.6218C121.345 12.6206 121.35 12.6177 121.351 12.6189C121.54 12.8284 121.82 12.7835 122.068 12.8465C122.295 12.9044 122.44 13.0628 122.6 13.2241C122.635 13.2589 122.559 13.2969 122.53 13.284C122.381 13.2201 122.3 13.0952 122.164 13.0196C122.042 12.9517 121.917 12.9436 121.787 12.9035C121.694 12.8744 121.604 12.8445 121.524 12.7968C121.742 13.2084 122.348 13.2302 122.708 13.4711C122.741 13.493 122.67 13.5152 122.651 13.5075Z" fill="#F3F4F6"/>
<path fill-rule="evenodd" clip-rule="evenodd" d="M120.911 11.9388C121.225 11.7807 121.228 11.2519 121.369 10.9496C121.792 10.0436 122.356 9.14938 122.887 8.30933" fill="#4B5563"/>
<path fill-rule="evenodd" clip-rule="evenodd" d="M123.421 7.44718C123.421 7.44759 123.419 7.44718 123.419 7.44718C123.508 7.3348 123.393 7.54299 123.375 7.5818C123.325 7.68448 123.271 7.78595 123.211 7.88338C123.09 8.08268 122.985 8.29411 122.857 8.48856C122.693 8.7396 122.51 8.97448 122.406 9.25827C122.323 9.48547 122.255 9.71832 122.154 9.93905C121.953 10.3797 121.578 10.708 121.342 11.1292C121.17 11.4364 121.117 11.8415 120.818 12.0489C120.778 12.0764 120.61 11.9891 120.64 11.9357C120.747 11.7437 120.875 11.6693 120.978 11.4732C121.084 11.2727 121.188 11.071 121.304 10.8761C121.419 10.6837 121.571 10.5155 121.71 10.3425C121.86 10.1561 121.977 9.96452 122.078 9.74864C122.279 9.32336 122.491 8.90535 122.757 8.51766C123.007 8.15343 123.274 7.7997 123.451 7.3922C123.452 7.39099 123.456 7.3918 123.456 7.39301C123.459 7.40837 123.43 7.43627 123.421 7.44718Z" fill="#4B5563"/>
<path fill-rule="evenodd" clip-rule="evenodd" d="M126.125 9.64072C126.128 9.63992 126.142 9.64032 126.136 9.64315C125.206 10.0333 124.237 10.3377 123.328 10.7771C122.884 10.9922 122.463 11.2521 122.018 11.4692C121.777 11.586 121.535 11.7016 121.3 11.8314C121.126 11.9284 120.964 12.0517 120.776 12.1205C120.726 12.1387 120.67 12.0865 120.712 12.042C120.881 11.8577 121.123 11.7433 121.342 11.6285C121.548 11.5218 121.757 11.4199 121.966 11.3184C122.41 11.1021 122.83 10.8402 123.278 10.6336C124.195 10.2111 125.19 10.0143 126.125 9.64072ZM119.876 8.35962C119.876 8.35922 119.896 8.45866 119.897 8.45947C120.247 9.1265 120.485 9.64032 120.672 10.2067C120.775 10.518 120.843 10.862 120.862 11.1894C120.872 11.3625 120.926 11.7821 120.743 11.8828C120.719 11.8961 120.661 12.0158 120.657 11.9814C120.643 11.8585 120.705 11.6083 120.712 11.4838C120.722 11.3152 120.714 11.1474 120.694 10.9796C120.66 10.6942 120.603 10.4121 120.541 10.1311C120.419 9.58332 120.326 9.16289 119.897 8.4053L119.876 8.35962Z" fill="#4B5563"/>
<path fill-rule="evenodd" clip-rule="evenodd" d="M124.525 10.392C125.252 9.974 126.5 9.32314 127.153 8.89705C127.154 8.89705 127.155 8.89624 127.155 8.89624C126.609 9.4044 125.357 10.0015 124.751 10.3827C124.744 10.3871 124.737 10.3904 124.728 10.3924C125.162 10.4502 125.632 10.202 126.041 10.2214C126.15 10.2267 126.153 10.2602 126.264 10.3205C126.271 10.3237 126.261 10.3229 126.259 10.3221C126.02 10.2149 125.636 10.43 125.411 10.4575C125.178 10.4874 124.947 10.4793 124.699 10.4138C124.681 10.409 124.49 10.4094 124.508 10.4082C124.511 10.4037 124.515 10.3973 124.525 10.392Z" fill="#F3F4F6"/>
<path fill-rule="evenodd" clip-rule="evenodd" d="M121.002 17.2484L120.726 23.8957H107.095V23.5602C107.369 23.5602 108.223 23.2861 109.505 22.6449C110.093 22.3526 110.268 22.1885 110.268 21.5781V2.85432C110.268 2.24429 110.093 2.08056 109.505 1.78747C108.223 1.14631 107.248 0.872224 106.972 0.872224V0.536687H115.942V0.872628C115.698 0.872628 114.811 1.08608 113.408 1.78788C112.821 2.08097 112.646 2.24469 112.646 2.85472V20.1458C112.646 23.0128 112.797 23.2149 114.996 23.2566L116.578 23.2639C117.98 23.2913 118.442 23.09 118.684 22.5249C119.688 20.1458 120.543 18.1326 120.634 17.2488L121.002 17.2484ZM90.2577 0.873033C89.5565 0.903352 88.5496 1.29993 87.6653 2.21397C87.1376 2.75932 86.8113 3.26666 86.8113 6.02696V24.1092H86.1396L77.2321 4.74505V18.3767C77.2321 21.1362 77.4149 21.6391 78.0255 22.2496C78.7582 22.9817 79.7036 23.4696 80.6802 23.5602V23.8957H73.0837V23.5602C73.907 23.5012 74.67 23.103 75.6765 22.2188C76.245 21.7184 76.5305 21.1661 76.5305 18.4075V4.86754C76.5305 3.58684 76.4363 3.01845 75.9826 2.42863C75.3724 1.63507 74.0295 0.903756 72.6566 0.903352V0.537091H77.8423L86.1093 18.5283V6.05688C86.1093 3.29698 85.8865 2.83289 85.3155 2.18405C84.645 1.42162 83.5152 0.963991 82.6612 0.873033V0.537091H90.2577L90.2577 0.873033ZM56.4943 23.8961H47.5262V23.5606C47.8007 23.5606 48.7757 23.1951 50.0588 22.5548C50.6459 22.2609 50.8218 22.1893 50.8218 21.5789V2.85472C50.8218 2.24429 50.6459 2.08097 50.0588 1.78707C48.7756 1.14631 47.8007 0.872628 47.5262 0.872628V0.537091H56.4943V0.873033C56.2501 0.873033 55.3661 1.08608 53.9634 1.78747C53.3746 2.08137 53.2003 2.24469 53.2003 2.85513V21.5785C53.2003 22.1889 53.3746 22.3522 53.9634 22.6453C55.3661 23.3463 56.2496 23.5606 56.4943 23.5606V23.8961ZM45.7437 6.69723H45.4097C45.3482 5.6603 44.3118 3.00834 43.6389 1.75715C43.3947 1.29912 42.907 1.14672 41.7784 1.14672H40.2536V21.5785C40.2536 22.1889 40.4278 22.3522 41.0166 22.6453C42.4189 23.3463 43.3041 23.5606 43.5488 23.5606V23.8961H34.5794V23.5606C34.8548 23.5606 35.8305 23.2873 37.1116 22.6453C37.6999 22.3522 37.8742 22.1889 37.8742 21.5785V1.14712H36.3497C35.2199 1.14712 34.7335 1.29953 34.488 1.75756C33.8167 3.00875 32.8111 5.6603 32.7193 6.69763H32.3832V0.537091H45.7437L45.7437 6.69723ZM15.197 2.21397C14.6702 2.75891 14.343 3.26666 14.343 6.02696V24.1092H13.6717L4.76503 4.74505V18.3767C4.76503 21.1346 4.94699 21.6367 5.55799 22.2496C6.29031 22.9817 7.23576 23.4696 8.21229 23.5602V23.8957H0.615414V23.5602C1.4391 23.5003 2.20174 23.103 3.20822 22.2188C3.77759 21.7184 4.06227 21.1661 4.06227 18.4058V4.86713C4.06227 3.58603 3.96767 3.01804 3.51352 2.42782C2.90373 1.63466 1.56126 0.902948 0.187988 0.902544V0.536687H5.37446L13.641 18.5283V6.05647C13.641 3.29577 13.4182 2.83208 12.8476 2.18324C12.176 1.42121 11.0474 0.963991 10.1942 0.873033V0.537091H17.7894V0.873033C17.0887 0.902948 16.081 1.29953 15.197 2.21397ZM99.4345 15.7232L96.6597 4.28823L93.9735 15.7232H99.4345ZM106.055 23.8961H97.6965V23.5606C98.001 23.5606 98.9157 23.318 100.318 22.5293C100.627 22.3555 100.776 22.0984 100.776 21.8534C100.776 21.61 100.718 21.3582 100.655 21.0897L99.5263 16.3324H93.8514L93.0891 19.809C92.9565 20.417 92.9064 20.9689 92.9064 21.2737C92.9064 21.7915 93.225 22.2868 93.7288 22.6769C94.553 23.3132 95.134 23.5606 95.5906 23.5606V23.8961H88.6665V23.5606C89.2149 23.5606 90.1845 23.0379 91.0446 22.2192C91.656 21.6395 91.9589 20.869 92.2052 19.8717L97.0544 0.263002H97.9388L103.035 21.1819C103.202 21.8744 103.353 22.1934 103.766 22.4327C105.079 23.1955 105.81 23.561 106.055 23.561V23.8961ZM68.991 12.1256C68.991 6.57554 68.3493 0.567007 65.0864 0.567007C61.8219 0.567007 61.2432 6.39241 61.2432 12.2465C61.2432 17.9191 61.8838 23.8662 65.0864 23.8662C68.2587 23.8662 68.991 18.1322 68.991 12.1256ZM71.7052 12.0335C71.7052 16.3328 70.7897 24.3234 65.0557 24.3234C59.5036 24.3234 58.5283 16.486 58.5283 12.4305C58.5283 7.91688 59.4123 0.110596 65.0864 0.110596C70.6069 0.110191 71.7052 7.85624 71.7052 12.0335ZM26.4479 15.7232L23.6719 4.28823L20.9876 15.7232H26.4479ZM33.1892 23.8961H24.7099V23.5606C25.0148 23.5606 25.8684 23.318 27.3326 22.5293C27.6444 22.3611 27.79 22.0984 27.79 21.8534C27.79 21.61 27.7318 21.3582 27.6687 21.0897L26.5393 16.3324H20.8651L20.1029 19.809C19.9703 20.417 19.9197 20.9689 19.9197 21.2737C19.9197 21.7915 20.2395 22.2868 20.7442 22.6769C21.5679 23.3132 22.147 23.5606 22.6047 23.5606V23.8961H15.6799V23.5606C16.229 23.5606 17.1983 23.0379 18.0592 22.2192C18.6702 21.6395 18.9715 20.869 19.2189 19.8717L24.069 0.262598H24.9529L30.0488 21.1815C30.2158 21.874 30.3671 22.193 30.7807 22.4323C32.0925 23.1951 32.9457 23.5606 33.1896 23.5606L33.1892 23.8961ZM170.209 18.7652C170.209 22.6688 167.859 24.3461 164.901 24.3461C163.071 24.3461 161.972 23.187 161.301 22.3033L160.172 23.9179H159.807L159.654 16.387H160.051C160.234 17.4227 160.791 19.144 161.204 20.1951C162.163 22.6364 163.163 23.8888 164.871 23.8888C166.884 23.8888 167.92 21.7244 167.92 19.7403C167.92 16.9351 166.091 14.7392 163.899 12.6047C161.726 10.49 159.624 8.29244 159.624 5.13435C159.624 1.71834 161.972 0.13283 164.444 0.13283C166.365 0.13283 167.219 0.986226 167.8 1.68762L168.775 0.55973H169.08V7.26885H168.743C168.652 6.44497 168.05 4.70543 167.675 3.70124C166.853 1.5053 166.121 0.590858 164.503 0.590858C162.765 0.590858 161.819 2.05428 161.819 4.31087C161.819 6.72027 163.69 8.67204 165.713 10.6845C167.982 12.9398 170.209 15.5631 170.209 18.7652ZM154.425 12.1467C154.425 6.59737 153.906 0.590454 150.521 0.590454C147.227 0.590454 146.677 5.95743 146.677 12.2704C146.677 18.3383 147.319 23.8901 150.521 23.8901C153.694 23.8897 154.425 18.4899 154.425 12.1467ZM157.141 12.0553C157.141 16.3562 156.225 24.3461 150.493 24.3461C144.939 24.3461 143.964 16.5078 143.964 12.4535C143.964 7.93992 144.848 0.132426 150.521 0.132426C156.042 0.132426 157.141 7.87888 157.141 12.0553ZM139.884 7.20781C139.884 2.99904 138.602 1.16895 135.065 1.16895H133.874V12.7866H135.429C138.39 12.7866 139.884 10.8061 139.884 7.20781ZM136.01 13.3979H133.874V21.6007C133.874 22.2112 134.049 22.3753 134.637 22.6692C136.04 23.3686 136.926 23.5844 137.168 23.5844V23.9184H128.201V23.5844C128.477 23.5844 129.449 23.2174 130.733 22.577C131.321 22.2831 131.496 22.2116 131.496 21.6011V2.87736C131.496 2.2641 131.321 2.10401 130.733 1.8093C129.452 1.16895 128.477 0.894458 128.201 0.894458V0.55973H135.889C139.548 0.55973 142.416 2.57255 142.416 6.81123C142.416 11.172 139.213 13.3979 136.01 13.3979ZM185.188 6.71946H184.852C184.791 5.68293 183.754 3.03058 183.082 1.77939C182.838 1.32217 182.351 1.16936 181.222 1.16936H179.697V21.6007C179.697 22.2112 179.872 22.3753 180.461 22.6692C181.863 23.3686 182.747 23.5844 182.991 23.5844V23.9192H174.023V23.5844C174.297 23.5844 175.273 23.3079 176.556 22.6692C177.143 22.3753 177.317 22.2112 177.317 21.6007V1.16976H175.793C174.665 1.16976 174.177 1.32257 173.932 1.77979C173.26 3.03098 172.254 5.68293 172.164 6.71986H171.827V0.55973H185.188L185.188 6.71946Z" fill="#6B7280"/>
</svg>
