<svg width="145" height="21" viewBox="0 0 145 21" fill="none" xmlns="http://www.w3.org/2000/svg">
<path d="M101.457 5.48828C98.976 5.48828 96.7276 6.16813 95.5231 6.68911L94.1109 9.6835C95.469 9.0697 97.325 8.45021 99.1993 8.45021C101.146 8.45021 101.234 9.41873 100.802 10.3372L100.688 10.5769C96.1688 10.5854 91.874 12.248 90.113 15.9814C88.9891 18.3706 89.8224 20.3361 92.5588 20.3361C94.1546 20.3361 95.8103 19.7599 97.2565 18.6382H97.3411L96.9285 20.052H100.897C101.144 19.1791 101.66 17.9441 102.257 16.6778L104.672 11.5556C106.159 8.40182 106.302 5.48828 101.457 5.48828ZM98.6509 15.1798C98.5346 15.4263 98.3942 15.6814 98.2273 15.8921C97.5131 16.7848 96.3789 17.352 95.442 17.352C94.565 17.352 94.0079 16.8093 94.6024 15.547C95.4621 13.7244 97.5937 13.216 99.578 13.2137L98.6509 15.1798Z" fill="#6B7280"/>
<path d="M55.7955 5.77254L51.6601 14.5502C51.465 14.963 51.2118 15.3439 50.9597 15.6092C50.4159 16.231 49.4669 16.9194 48.446 16.9194C47.0246 16.9194 47.0315 15.6838 47.9712 13.6898L51.7044 5.77254H47.2755L43.2638 14.2837C41.3071 18.4408 42.1802 20.3362 45.1709 20.3362C47.3854 20.3362 49.2626 19.1747 50.3324 18.2603H50.4164L49.7892 20.0521H52.4617H53.1333H53.7289C53.9735 19.1787 54.4788 17.9255 55.0859 16.6774C55.6959 15.4304 60.2227 5.77197 60.2227 5.77197H55.7955V5.77254Z" fill="#6B7280"/>
<path d="M73.9589 17.2819C72.2296 17.2819 72.3441 15.3409 73.4922 12.9056C74.4613 10.8507 76.1705 8.54701 78.0834 8.54701C79.8823 8.54701 79.4375 10.8433 78.4713 12.8931C77.3554 15.2595 75.5967 17.2819 73.9905 17.2819H73.9589ZM72.4949 20.3372C75.7521 20.3372 80.4221 18.3461 83.0302 12.8123C85.0997 8.42174 83.81 5.48828 79.6452 5.48828C75.5892 5.48828 71.2702 8.16324 68.9913 12.9922C66.8137 17.6133 68.4038 20.3372 72.4626 20.3372H72.4949Z" fill="#6B7280"/>
<path d="M120.833 17.2819C119.102 17.2819 119.218 15.3409 120.367 12.9056C121.335 10.8507 123.046 8.54701 124.957 8.54701C126.761 8.54701 126.312 10.8433 125.345 12.8931C124.23 15.2595 122.472 17.2819 120.865 17.2819H120.833ZM119.369 20.3372C122.63 20.3372 127.296 18.3461 129.905 12.8123C131.973 8.42174 130.685 5.48828 126.52 5.48828C122.465 5.48828 118.143 8.16324 115.867 12.9922C113.691 17.6133 115.279 20.3372 119.338 20.3372H119.369Z" fill="#6B7280"/>
<path d="M144.031 5.56515C143.76 5.50593 143.549 5.48828 143.124 5.48828C141.816 5.48828 139.845 6.33438 138.246 8.17748H138.133L139.079 5.7724H135.269C134.739 7.04782 134.106 8.49975 133.257 10.3024L128.661 20.0525H131.013C132.37 20.0525 133.422 19.3476 134.027 18.0648L136.5 12.8168C136.716 12.3556 136.962 11.9383 137.181 11.6393C138.223 10.2181 139.741 9.48308 141.084 9.48308C141.541 9.48308 141.856 9.51211 142.146 9.57361L144.031 5.56515Z" fill="#6B7280"/>
<path d="M111.54 16.8863C110.396 16.8863 110.122 16.2582 110.921 14.5666L113.634 8.80615H116.291L117.718 5.77362H115.063L116.852 1.97412H114.565C113.206 1.97412 112.157 2.683 111.549 3.96469L110.697 5.77362H108.786L107.359 8.80615H109.267L106.329 15.0398C105.331 17.1607 105.183 18.406 105.66 19.2094C106.073 19.9091 107.052 20.3043 108.42 20.3043C109.624 20.3043 110.701 20.1602 111.372 19.9792L112.889 16.7621C112.459 16.8555 112.16 16.8863 111.54 16.8863Z" fill="#6B7280"/>
<path d="M92.3888 1.97314C91.0283 1.97314 89.9792 2.6826 89.3721 3.96428L81.7896 20.0533H84.1404C85.4997 20.0533 86.5494 19.3473 87.1542 18.0656L94.7385 1.97314H92.3888Z" fill="#6B7280"/>
<path d="M71.7971 5.56515C71.5254 5.50593 71.3131 5.48828 70.8907 5.48828C69.582 5.48828 67.611 6.33438 66.0129 8.17748H65.8984L66.8456 5.7724H63.0325C62.5024 7.04782 61.8734 8.49975 61.0217 10.3024L56.4265 20.0525H58.7779C60.1361 20.0525 61.1863 19.3476 61.7912 18.0648L64.2646 12.8168C64.4815 12.3556 64.729 11.9383 64.9471 11.6393C65.9881 10.2181 67.5063 9.48308 68.8489 9.48308C69.3058 9.48308 69.62 9.51211 69.9095 9.57361L71.7971 5.56515Z" fill="#6B7280"/>
<path d="M45.143 6.66325C46.3153 3.84936 46.3204 0.663086 40.0247 0.663086H34.3988L25.2578 20.0529H27.573C28.9328 20.0529 29.9819 19.348 30.5896 18.0652L33.0268 12.8929C33.3663 12.9305 33.7893 12.9527 34.2606 12.9527C36.5534 12.9527 39.1137 12.7243 41.2343 11.3533C42.9193 10.2635 44.285 8.72157 45.143 6.66325ZM35.7212 9.67586C35.2223 9.67586 34.8655 9.65479 34.5835 9.59159L37.3682 3.69334C37.786 3.62331 38.2787 3.65918 38.9721 3.65918C41.1307 3.65918 41.6573 4.72848 40.7981 6.6251C39.9176 8.56271 38.0231 9.67586 35.7212 9.67586Z" fill="#6B7280"/>
<path d="M30.2858 0.662598H22.8086L13.6699 20.0529H19.0674C20.4272 20.0529 21.4758 19.3481 22.0823 18.0652C22.6894 16.7824 30.2858 0.662598 30.2858 0.662598Z" fill="#4B5563"/>
<path d="M19.0295 0.662598C17.6696 0.662598 16.6199 1.37148 16.0139 2.65145L7.81274 20.0529H11.257L20.3968 0.662598H19.0295Z" fill="#6B7280"/>
<path d="M9.55233 11.2407H1.04556C0.556977 11.2407 0.161621 11.6342 0.161621 12.1198C0.161621 12.3613 0.258878 12.5822 0.421739 12.7393L6.16792 18.4252L9.55233 11.2407Z" fill="#4B5563"/>
</svg>
