<svg width="150" height="34" viewBox="0 0 150 34" fill="none" xmlns="http://www.w3.org/2000/svg">
<g clip-path="url(#clip0_2736_9420)">
<path d="M0 1.35841H14.7663C16.8404 1.30676 18.9081 1.6111 20.881 2.25841C22.4089 2.77288 23.7989 3.63514 24.9433 4.77841C26.782 6.57841 27.7041 9.02255 27.7096 12.1113V12.2013C27.7096 14.63 27.1288 16.64 25.9674 18.2313C24.7697 19.8556 23.1529 21.1171 21.2932 21.8784L28.7337 32.8713H18.7394L12.4462 23.3184H8.65581V32.8713H0V1.35841ZM14.3669 16.4784C15.8541 16.4784 16.9984 16.1411 17.8003 15.467C18.1984 15.1363 18.5146 14.7166 18.7241 14.2413C18.9335 13.766 19.0304 13.248 19.0071 12.7284V12.6384C19.0071 11.3741 18.5822 10.4398 17.7578 9.82269C16.9334 9.20555 15.7776 8.90126 14.3244 8.90126H8.65581V16.4784H14.3669Z" fill="#6B7280"/>
<path d="M45.3911 33.4884C43.233 33.5049 41.0928 33.0913 39.0936 32.2712C37.1869 31.4934 35.4533 30.3394 33.9945 28.877C32.4838 27.3405 31.2899 25.5173 30.4818 23.5128C29.6736 21.5083 29.2673 19.3622 29.2863 17.1984V17.1084C29.2584 12.7605 30.939 8.57838 33.9605 5.47696C35.4456 3.97313 37.216 2.78664 39.1659 1.98838C41.2555 1.13277 43.4929 0.704478 45.748 0.728385C47.2258 0.71248 48.7004 0.870694 50.1418 1.19981C51.3907 1.49408 52.5973 1.94774 53.7325 2.54981C54.7965 3.12073 55.7857 3.8233 56.6772 4.64124C57.5473 5.44357 58.3333 6.33396 59.0228 7.29839L52.4874 12.3812C51.6703 11.3141 50.6735 10.4002 49.5427 9.68124C48.3636 8.99561 47.0192 8.65293 45.6588 8.69124C44.6184 8.67824 43.5885 8.90239 42.6461 9.34696C41.7537 9.77124 40.9574 10.3755 40.3047 11.1212C39.6319 11.9023 39.1102 12.8036 38.7665 13.7784C38.3914 14.8149 38.2028 15.9107 38.2098 17.0141V17.1041C38.2013 18.2314 38.3897 19.3513 38.7665 20.4127C39.1061 21.3946 39.6282 22.3022 40.3047 23.087C40.9548 23.8368 41.752 24.4424 42.6461 24.8655C43.5888 25.3088 44.6187 25.5315 45.6588 25.517C46.4038 25.5241 47.1466 25.4333 47.8684 25.247C48.5124 25.0775 49.1281 24.8133 49.6956 24.4627C50.2555 24.1101 50.7793 23.7024 51.2594 23.2455C51.7659 22.7581 52.2441 22.2416 52.6914 21.6984L59.2055 26.3784C58.4722 27.387 57.6593 28.3344 56.775 29.2112C55.8893 30.0939 54.8886 30.8508 53.8004 31.4612C52.6203 32.1186 51.3605 32.6185 50.0526 32.9484C48.5275 33.3255 46.9613 33.5069 45.3911 33.4884ZM75.8118 33.4884C73.6564 33.5044 71.5192 33.0907 69.5228 32.2712C67.6157 31.494 65.882 30.34 64.4237 28.877C62.9137 27.3401 61.7206 25.5168 60.9132 23.5123C60.1058 21.5078 59.7002 19.3619 59.7197 17.1984V17.1084C59.6919 12.7605 61.3725 8.57838 64.3939 5.47696C65.8765 3.97408 67.6439 2.78765 69.5908 1.98838C71.6791 1.13333 73.915 0.705047 76.1687 0.728385C77.6394 0.714146 79.1068 0.87235 80.5412 1.19981C81.7916 1.49373 82.9997 1.9474 84.1361 2.54981C85.2001 3.12073 86.1894 3.8233 87.0809 4.64124C87.951 5.44357 88.737 6.33396 89.4265 7.29839L82.9081 12.3812C82.091 11.3141 81.0942 10.4002 79.9633 9.68124C78.7796 8.99189 77.4287 8.64905 76.0625 8.69124C75.035 8.68402 74.0188 8.90803 73.088 9.34696C72.1956 9.77124 71.3993 10.3755 70.7466 11.1212C70.0739 11.9023 69.5521 12.8036 69.2084 13.7784C68.826 14.8136 68.6303 15.9094 68.6305 17.0141V17.1041C68.622 18.2314 68.8104 19.3513 69.1871 20.4127C69.5268 21.3946 70.0489 22.3022 70.7254 23.087C71.3812 23.8407 72.1859 24.448 73.088 24.8698C74.0191 25.3074 75.0353 25.5299 76.0625 25.5212C76.8075 25.5284 77.5503 25.4376 78.2721 25.2512C78.9161 25.0818 79.5318 24.8176 80.0993 24.467C80.6592 24.1144 81.183 23.7067 81.6631 23.2498C82.1755 22.7615 82.6594 22.2435 83.1121 21.6984L89.6602 26.3784C88.9269 27.387 88.114 28.3344 87.2296 29.2112C86.3439 30.0939 85.3433 30.8508 84.2551 31.4612C83.075 32.1186 81.8151 32.6185 80.5072 32.9484C78.9711 33.3283 77.3933 33.5098 75.8118 33.4884Z" fill="#9CA3AF"/>
<path d="M95.9194 1.76104H99.4931C99.9619 1.73349 100.431 1.8004 100.874 1.95787C101.317 2.11534 101.724 2.36021 102.072 2.67818C102.346 2.97571 102.557 3.32542 102.694 3.7067C102.832 4.08797 102.892 4.4931 102.871 4.89818V4.95389C102.906 5.55236 102.754 6.14677 102.438 6.65447C102.122 7.16218 101.657 7.55794 101.108 7.78675L103.13 11.3525H100.878L99.1234 8.19818H97.8869V11.3525H95.9194V1.76104ZM99.3401 6.44532C100.347 6.44532 100.891 5.87104 100.891 5.00532C100.891 4.04532 100.305 3.56961 99.3019 3.56961H97.8869V6.45818L99.3401 6.44532ZM104.163 1.76104H110.286V3.55675H106.118V5.62247H109.785V7.41818H106.118V9.56104H110.342V11.3568H104.163V1.76104ZM113.626 3.59532H111.238V1.76104H117.973V3.59532H115.581V11.3525H113.626V3.59532ZM120.718 1.70532H122.592L125.992 11.3525H123.956L123.251 9.26961H119.975L119.282 11.3525H117.298L120.718 1.70532ZM122.66 7.51247L121.628 4.39247L120.582 7.51247H122.66ZM126.842 1.76104H128.813V11.3525H126.842V1.76104ZM130.645 1.76104H132.612V9.52675H136.458V11.3525H130.645V1.76104Z" fill="#6B7280"/>
<path d="M95.4902 18.1282V18.0554C95.4902 15.8225 96.867 14.2968 98.7579 14.2968C99.1814 14.2875 99.6024 14.3635 99.9964 14.5202C100.39 14.677 100.749 14.9113 101.053 15.2097L100.322 16.1568C100.121 15.9396 99.8789 15.7646 99.6105 15.6418C99.3422 15.5189 99.0525 15.4507 98.7579 15.4411C97.6106 15.4411 96.7438 16.4954 96.7438 18.0639V18.1068C96.7438 19.7054 97.5936 20.7468 98.7579 20.7468C99.0655 20.7377 99.368 20.665 99.6465 20.533C99.925 20.401 100.174 20.2127 100.377 19.9796L101.087 20.8368C100.785 21.1727 100.415 21.4395 100.002 21.6192C99.5897 21.7988 99.1436 21.8872 98.6942 21.8782C96.8245 21.8739 95.4902 20.3825 95.4902 18.1282ZM101.558 18.1497V18.0425C101.558 15.8525 102.897 14.2839 104.805 14.2839C106.713 14.2839 108.034 15.8439 108.034 18.0211V18.1282C108.034 20.3182 106.696 21.8868 104.783 21.8868C102.871 21.8868 101.558 20.3268 101.558 18.1497ZM106.781 18.1497V18.0768C106.781 16.4954 105.931 15.4325 104.783 15.4325C103.636 15.4325 102.812 16.4739 102.812 18.0639V18.1411C102.812 19.7182 103.662 20.7811 104.805 20.7811C105.948 20.7811 106.776 19.7182 106.776 18.1282L106.781 18.1497ZM109.05 18.9597V14.3997H110.261V18.9511C110.261 20.1382 110.834 20.7597 111.778 20.7597C112.721 20.7597 113.278 20.1597 113.278 18.9897V14.3997H114.48V18.9168C114.48 20.8968 113.405 21.8868 111.757 21.8868C110.108 21.8868 109.05 20.8711 109.05 18.9597ZM115.827 14.3997H116.953L120.17 19.3197V14.3997H121.351V21.7711H120.327L117.017 16.7054V21.7711H115.827V14.3997ZM122.456 18.1282V18.0554C122.456 15.8225 123.833 14.2968 125.724 14.2968C126.148 14.2877 126.57 14.3637 126.964 14.5204C127.359 14.6771 127.719 14.9114 128.023 15.2097L127.292 16.1568C126.884 15.7187 126.32 15.4613 125.724 15.4411C124.577 15.4411 123.71 16.4954 123.71 18.0639V18.1068C123.71 19.7054 124.56 20.7468 125.724 20.7468C126.032 20.7385 126.334 20.6661 126.613 20.534C126.892 20.402 127.14 20.2133 127.343 19.9796L128.053 20.8368C127.751 21.173 127.381 21.4399 126.969 21.6196C126.556 21.7993 126.11 21.8875 125.66 21.8782C123.795 21.8739 122.456 20.3825 122.456 18.1282ZM129.234 14.3997H130.453V21.7711H129.242L129.234 14.3997ZM132.085 14.3997H133.296V20.6439H136.428V21.7711H132.085V14.3997ZM95.4902 28.7397V28.6325C95.4902 26.4425 96.8245 24.8739 98.7367 24.8739C100.649 24.8739 101.983 26.4425 101.983 28.6111V28.7182C101.983 30.9082 100.649 32.4768 98.7367 32.4768C96.8245 32.4768 95.4902 30.9168 95.4902 28.7397ZM100.708 28.7397V28.6668C100.708 27.0854 99.8585 26.0225 98.7154 26.0225C97.5724 26.0225 96.7438 27.0639 96.7438 28.6539V28.7268C96.7438 30.3082 97.5936 31.3711 98.7367 31.3711C99.8798 31.3711 100.708 30.2997 100.708 28.7182V28.7397ZM103.186 24.9897H107.766V26.1168H104.397V28.1911H107.371V29.3054H104.397V32.3611H103.186V24.9897ZM110.639 28.7182V28.6454C110.639 26.4125 112.016 24.8868 113.907 24.8868C114.33 24.8775 114.751 24.9535 115.145 25.1102C115.539 25.267 115.898 25.5013 116.201 25.7997L115.47 26.7382C115.27 26.5195 115.029 26.3429 114.76 26.2185C114.492 26.0942 114.202 26.0247 113.907 26.0139C112.759 26.0139 111.893 27.0682 111.893 28.6368V28.6754C111.893 30.2782 112.742 31.3197 113.907 31.3197C114.214 31.3108 114.517 31.2382 114.795 31.1062C115.074 30.9742 115.323 30.7857 115.526 30.5525L116.235 31.4096C115.933 31.7456 115.564 32.0124 115.151 32.1921C114.738 32.3717 114.292 32.46 113.843 32.4511C111.973 32.4639 110.639 30.9725 110.639 28.7182ZM119.282 24.9468H120.451L123.136 32.3611H121.861L121.258 30.6211H118.428L117.82 32.3611H116.601L119.282 24.9468ZM120.892 29.5368L119.83 26.5796L118.785 29.5368H120.892ZM123.973 24.9897H125.099L128.329 29.9054V24.9897H129.51V32.3611H128.486L125.163 27.2997V32.3611H123.973V24.9897ZM132.909 24.9468H134.078L136.759 32.3611H135.485L134.877 30.6211H132.038L131.435 32.3611H130.211L132.909 24.9468ZM134.516 29.5368L133.47 26.5796L132.429 29.5368H134.516ZM137.698 24.9897H139.934C142.024 24.9897 143.401 26.4639 143.401 28.6239V28.7054C143.401 30.8482 142.024 32.3611 139.934 32.3611H137.698V24.9897ZM138.909 26.0954V31.2382H139.925C141.259 31.2382 142.147 30.2782 142.147 28.7011V28.6368C142.147 27.0468 141.259 26.0654 139.925 26.0654L138.909 26.0954ZM146.125 24.9468H147.293L150 32.3611H148.725L148.122 30.6211H145.283L144.676 32.3611H143.456L146.125 24.9468ZM147.735 29.5368L146.69 26.5796L145.645 29.5368H147.735Z" fill="#9CA3AF"/>
</g>
<defs>
<clipPath id="clip0_2736_9420">
<rect width="150" height="33" fill="white" transform="translate(0 0.728271)"/>
</clipPath>
</defs>
</svg>
