<svg width="88" height="36" viewBox="0 0 88 36" fill="none" xmlns="http://www.w3.org/2000/svg">
<path d="M50.8949 14.8589H46.5586V28.7652H50.8949V14.8589Z" fill="#4B5563"/>
<path d="M62.8609 14.8594L59.9934 23.2087H59.9331L56.8887 14.8594H52.4336L58.2971 28.8573H61.3435L67.0573 14.8594H62.8609Z" fill="#4B5563"/>
<path d="M74.253 17.9775C72.3288 17.9775 71.5236 19.7124 71.5236 21.8593C71.5236 24.1539 72.5857 25.7412 74.3677 25.7412C76.2918 25.7412 77.0971 24.0044 77.0971 21.8593C77.0971 19.5648 76.0349 17.9775 74.253 17.9775M79.6534 26.8885C78.3617 28.241 76.5504 29.0654 74.3386 29.0654C72.2707 29.0654 70.5743 28.4479 69.3408 27.3287C67.9031 26.036 67.0996 24.1239 67.0996 21.947C67.0996 19.7701 67.8467 18.0054 69.1384 16.6529C70.4029 15.3284 72.183 14.5337 74.3386 14.5337C76.6653 14.5337 78.5329 15.3284 79.7974 16.7106C80.9744 18.0052 81.5775 19.7699 81.5775 21.7417C81.5775 23.7135 80.9181 25.5938 79.6534 26.8883" fill="#4B5563"/>
<path d="M44.5242 19.2881C41.8241 18.0215 38.797 19.6048 38.8085 20.7003V28.7709H34.4702V14.8585H38.8085V16.2707C40.1743 15.3984 41.4251 14.5021 44.5242 14.8585V19.2881Z" fill="#4B5563"/>
<path d="M84.2959 15.2837H83.6519V17.3651H83.3367V15.2837H82.6733V15.001H84.3913L84.2959 15.2837Z" fill="#4B5563"/>
<path d="M86.6839 17.3642V15.7588C86.6839 15.6712 86.6839 15.6174 86.6916 15.5058H86.6878C86.6487 15.6035 86.6001 15.6811 86.5613 15.7428L85.9892 16.6749H85.8083L85.1974 15.7407C85.1585 15.6809 85.1177 15.6152 85.0729 15.5077H85.0652C85.0788 15.6193 85.0788 15.673 85.0788 15.7546V17.3659H84.7695V14.9997H85.0729L85.7733 16.0653C85.8316 16.1629 85.8705 16.2245 85.8977 16.2883H85.9055C85.9345 16.2285 85.9618 16.1627 86.0242 16.0632L86.6837 14.9995H86.995V17.3638H86.6837L86.6839 17.3642Z" fill="#4B5563"/>
<path d="M31.4179 12.9532L25.6966 11.8099L22.9224 11.2563L9.55176 35.6889L31.4179 12.9532Z" fill="#4B5563"/>
<path d="M28.8261 3.99756L23.521 10.4469L28.0889 11.3571L31.6354 12.066L28.8261 3.99756Z" fill="#9CA3AF"/>
<path d="M0.138672 5.64355L16.7719 20.6254L21.9991 11.0729L0.138672 5.64355Z" fill="#9CA3AF"/>
<path d="M6.28125 0.311035L11.0708 7.13887L22.3152 10.196L6.28125 0.311035Z" fill="#9CA3AF"/>
<path d="M29.6528 3.65332L31.9757 10.3256L32.5573 11.9968L43.2608 5.62516L29.6528 3.65332Z" fill="#E5E7EB"/>
</svg>
