<svg width="97" height="36" viewBox="0 0 97 36" fill="none" xmlns="http://www.w3.org/2000/svg">
<path d="M67.8856 3.86297C67.5313 1.81372 69.4296 0.0705193 71.5171 0.535899C72.6715 0.794619 73.5806 1.7238 73.7794 2.87069C74.1337 4.92152 72.2338 6.6663 70.1463 6.19776C68.9935 5.93904 68.0844 5.00986 67.8856 3.8614V3.86297Z" fill="#6B7280"/>
<path d="M60.9494 9.01562C61.6186 9.01562 62.2878 9.27236 62.7984 9.78585C63.8197 10.8128 63.8197 12.4776 62.7984 13.5046L58.7546 17.5726L62.7984 21.639C63.8197 22.6659 63.8197 24.3307 62.7984 25.3577C61.7788 26.3847 60.1216 26.3847 59.1003 25.3577L53.2074 19.4319C52.1861 18.405 52.1861 16.7402 53.2074 15.7132L59.1003 9.78744C59.6109 9.27396 60.2801 9.01722 60.9494 9.01722V9.01562Z" fill="#6B7280"/>
<path d="M37.2294 26.1619C35.9704 25.6164 34.9776 24.8671 34.2493 23.9154C34.2426 23.9055 34.2343 23.8972 34.2276 23.8873C33.2398 22.5825 34.2008 20.7191 35.8465 20.7191H37.2311C37.9343 20.7191 38.5705 21.0921 38.9522 21.6756C39.0945 21.8945 39.282 22.0885 39.5147 22.2609C40.0438 22.6538 40.695 22.8511 41.4685 22.8511C42.1751 22.8511 42.7208 22.7151 43.1076 22.4416C43.4943 22.168 43.6869 21.8133 43.6869 21.3756C43.6869 20.8517 43.4106 20.4637 42.8581 20.2117C42.3056 19.9614 41.4116 19.6812 40.176 19.3762C38.8517 19.0695 37.7468 18.7478 36.8645 18.408C35.9805 18.0698 35.2187 17.5343 34.5792 16.8015C33.9379 16.0687 33.6182 15.0806 33.6182 13.8339C33.6182 12.7845 33.9111 11.8279 34.4954 10.9641C35.0797 10.1004 35.942 9.41731 37.0788 8.91498C38.2155 8.41264 39.5683 8.16064 41.1354 8.16064C43.4542 8.16064 45.2807 8.7293 46.6167 9.8666C47.119 10.2943 47.5409 10.7735 47.8824 11.3056C48.7396 12.6435 47.7703 14.3909 46.1714 14.3909H45.125C44.4118 14.3909 43.7321 14.0461 43.3554 13.446C43.2214 13.2337 43.0507 13.0447 42.8431 12.8823C42.3676 12.5109 41.7448 12.3252 40.9713 12.3252C40.3083 12.3252 39.801 12.4512 39.4478 12.7016C39.0945 12.9536 38.9187 13.2967 38.9187 13.7344C38.9187 14.2583 39.2 14.6529 39.7625 14.9148C40.3251 15.1768 41.2023 15.4387 42.396 15.7023C43.7639 16.0521 44.8806 16.397 45.7411 16.7352C46.6017 17.075 47.3584 17.6205 48.0097 18.3748C48.6609 19.1292 48.9975 20.1405 49.0192 21.4087C49.0192 22.4797 48.7162 23.4363 48.1085 24.2785C47.5007 25.1207 46.6285 25.7822 45.4917 26.263C44.3549 26.7438 43.0356 26.9842 41.5338 26.9842C39.9216 26.9842 38.4868 26.7106 37.2294 26.1635V26.1619Z" fill="#6B7280"/>
<path d="M73.8321 11.0446V24.1002C73.8321 25.6928 72.4912 26.9842 70.8374 26.9842C69.1837 26.9842 67.8428 25.6928 67.8428 24.1002V11.0446C67.8428 9.45197 69.1837 8.16064 70.8374 8.16064C72.4912 8.16064 73.8321 9.45197 73.8321 11.0446Z" fill="#6B7280"/>
<path d="M85.2743 8.95115C86.2534 8.42468 87.4008 8.16064 88.7149 8.16064C90.2513 8.16064 91.6439 8.54543 92.891 9.3118C94.1381 10.0798 95.1237 11.1762 95.8477 12.6026C96.5718 14.0291 96.933 15.6858 96.933 17.5711C96.933 19.4564 96.5702 21.1195 95.8477 22.5573C95.1237 23.995 94.1381 25.1027 92.891 25.8803C91.6439 26.6595 90.2513 27.0492 88.7149 27.0492C87.4236 27.0492 86.2811 26.7851 85.2906 26.2587C84.2985 25.7322 83.5254 25.0528 82.9681 24.2188V32.726C82.9681 34.2797 81.6899 35.5403 80.111 35.5403C78.5337 35.5403 77.2539 34.2813 77.2539 32.726V11.0248C77.2539 9.58871 78.4356 8.42468 79.8936 8.42468H80.3284C81.7863 8.42468 82.9681 9.58871 82.9681 11.0248C83.5238 10.1699 84.2936 9.47762 85.2727 8.95115H85.2743ZM89.9342 14.2658C89.1431 13.4656 88.169 13.0647 87.0101 13.0647C85.8513 13.0647 84.9098 13.4704 84.1204 14.2819C83.3293 15.0933 82.9337 16.2026 82.9337 17.6049C82.9337 19.0072 83.3293 20.1165 84.1204 20.9279C84.9114 21.7394 85.8742 22.1451 87.0101 22.1451C88.1461 22.1451 89.1153 21.7346 89.9162 20.9102C90.7188 20.0875 91.1192 18.975 91.1192 17.5695C91.1192 16.164 90.7237 15.0627 89.9326 14.2625L89.9342 14.2658Z" fill="#6B7280"/>
<path d="M22.5862 4.3999H4.69529C2.11264 4.3999 0 6.51267 0 9.09547V26.9858C0 29.5686 2.11264 31.6814 4.69529 31.6814H22.5862C25.1688 31.6814 27.2815 29.5686 27.2815 26.9858V9.09547C27.2815 6.51267 25.1688 4.3999 22.5862 4.3999ZM15.0034 19.385L10.467 23.9217C10.0739 24.3148 9.55902 24.5105 9.0441 24.5105C8.52917 24.5105 8.01264 24.3148 7.62123 23.9217C6.8336 23.1357 6.8336 21.8603 7.62123 21.0758L10.7332 17.962L7.62123 14.8498C6.8336 14.0638 6.8336 12.7884 7.62123 12.0023C8.40565 11.2163 9.68094 11.2163 10.467 12.0023L15.0034 16.5391C15.7879 17.3252 15.7879 18.5989 15.0034 19.385ZM20.2506 22.6384C20.2506 23.7597 19.3426 24.6677 18.2213 24.6677C17.6615 24.6677 17.1546 24.4399 16.7872 24.0741C16.4199 23.7068 16.1921 23.1982 16.1921 22.6384V13.4542C16.1921 12.3328 17.1016 11.4248 18.2213 11.4248C18.7812 11.4248 19.2897 11.651 19.657 12.0184C20.0228 12.3857 20.2506 12.8927 20.2506 13.4542V22.6384Z" fill="#9CA3AF"/>
</svg>
