<svg width="252" height="21" viewBox="0 0 252 21" fill="none" xmlns="http://www.w3.org/2000/svg">
<path d="M241.658 10.6658C241.658 10.6658 241.323 10.5825 241.282 10.916C241.282 11.0828 241.323 11.2079 241.491 11.333C241.532 11.3747 241.574 11.3747 241.616 11.3747C242.243 11.4164 242.995 10.3323 243.496 9.49837C243.705 9.12311 243.788 8.99803 243.914 8.99803C243.955 8.99803 244.123 8.95633 244.331 9.33159C244.582 9.79024 245.919 11.1245 247.59 10.7492C247.674 10.5824 247.339 10.4574 247.172 10.3323C247.172 10.3323 246.462 9.79024 247.381 9.54007C248.259 9.33159 248.718 9.66516 249.47 9.03973C249.512 8.83126 249.052 8.74786 249.052 8.74786C249.052 8.74786 248.509 8.4143 250.055 7.95565C250.807 7.74718 250.807 7.62209 250.682 7.5387C250.556 7.45531 250.18 7.28853 250.723 6.95497C251.267 6.57971 251.643 6.12105 251.601 5.95427C251.517 5.82919 251.267 5.87089 250.974 6.03767C250.64 6.20445 250.222 6.12105 249.971 5.74579C249.763 5.37054 249.512 5.45394 249.219 5.66241C248.927 5.87089 248.342 6.20445 248.05 5.66241C247.883 5.03698 247.966 5.20376 248.426 4.32816C248.885 3.49425 248.969 2.78543 248.969 2.66035C248.969 2.53526 248.885 2.45187 248.467 2.66035C248.091 2.74374 248.05 0.90915 248.05 0.658978C248.05 0.658978 248.05 0.15863 247.757 0.575582C247.507 0.867449 246.587 1.74305 246.295 1.86814C246.003 1.95153 245.585 1.70136 245.627 1.32611C245.627 0.950848 245.376 1.07593 245.292 1.32611C245.209 1.53458 244.499 3.78612 244.331 3.91121C244.164 4.03629 244.039 4.36986 243.747 3.82782C243.454 3.28578 242.911 1.95152 242.451 2.61865C242.326 2.49356 241.491 1.3678 240.78 1.32611C240.697 1.45119 240.864 1.78475 240.989 1.86814C241.115 2.03492 241.115 2.49356 240.989 2.82713C240.864 3.16069 240.864 3.57765 241.031 3.9946C241.115 4.20308 240.989 4.53664 240.446 4.57833C239.903 4.66172 239.987 4.7868 240.237 5.12037C240.446 5.41223 241.324 6.12106 241.532 6.41292C241.741 6.66309 241.491 6.99666 241.115 7.03835C240.739 7.08005 240.363 6.95497 240.237 7.16344C240.195 7.37192 240.53 7.28853 240.655 7.497C240.655 7.497 241.365 8.78956 242.326 8.74786C243.287 8.66447 243.329 8.78956 243.203 9.20651C243.12 9.45668 242.368 10.5825 241.658 10.6658ZM45.5122 16.8784C45.1362 18.1293 44.5095 18.713 43.5069 18.713H39.7469C39.7469 18.0876 39.7469 16.2113 39.7887 14.5018C39.7887 13.4177 39.8304 11.4997 39.8304 11.2079H44.5931V9.66516H39.8304V2.2017H42.7549C43.7575 2.2017 44.2171 2.57696 44.5095 3.53595L45.4704 6.78818C45.8882 6.74648 46.2642 6.74649 46.6819 6.6631V1.20101H34.3158V2.2017H36.0287V18.713H31.5585V2.2017H33.4802V1.20101H25.9603V2.2017H27.8403V9.74854H22.1585V2.2017H24.0385V1.20101H1.14443L0.935547 6.70479C1.3951 6.74649 1.72932 6.82987 2.18887 6.82987L3.14976 3.32747C3.4422 2.32679 3.73464 2.16001 4.86264 2.16001H6.7844V18.6713H4.1942V19.672H13.1346V18.6713H10.5026V2.16001H12.5079C13.6777 2.16001 13.8866 2.41018 14.179 3.32747L15.1399 6.82987C15.5995 6.78818 15.9337 6.70479 16.3932 6.70479V2.16001H18.3986V18.6713H16.2679V19.672H24.0385V18.6713H22.1585V11.1245H27.7985V18.6713H25.9185V19.672H47.3086L47.5175 13.9598L46.3059 13.7513L45.5122 16.8784ZM62.0561 13.2509H63.9778V18.3378C63.3512 18.5463 62.641 18.713 61.9307 18.713C59.3405 18.713 57.5859 16.7951 57.5859 10.2489C57.5859 5.95428 58.6721 2.11831 61.8472 2.11831C64.145 2.11831 64.9805 4.07798 65.8161 7.20513L67.1529 6.91327V1.99322C66.6098 1.65966 64.8552 0.950837 61.8054 0.950837C56.6668 0.950837 53.5752 5.99597 53.5752 10.7909C53.5752 17.0452 57.1681 20.0473 61.7219 20.0473C62.8081 20.0473 64.8134 19.6303 65.9414 19.2134L67.6543 19.0883V12.292H62.0979L62.0561 13.2509ZM79.0178 16.8367C78.5582 18.2127 78.0151 18.713 76.9707 18.713H74.2551C74.3805 18.5462 74.3805 16.7117 74.3805 2.2017H76.4276V1.20101H68.6987V2.2017H70.6205V18.713H68.6152V19.7137H80.8142L81.232 13.793C80.8142 13.7513 80.48 13.7513 80.0622 13.6679L79.0178 16.8367ZM89.0862 0.909152C83.7386 0.909152 81.3991 5.45394 81.3991 10.6658C81.3991 16.9201 84.5742 20.0056 89.0862 20.0056C94.4337 20.0056 96.815 15.4608 96.815 10.2489C96.7732 4.36986 93.8906 0.909152 89.0862 0.909152ZM89.0862 18.7547C87.415 18.7547 85.3679 17.2954 85.3679 10.4574C85.3679 4.20308 86.8719 2.2017 89.0862 2.2017C90.5901 2.2017 92.8461 3.20239 92.8461 10.4991C92.8044 17.0869 90.9661 18.7547 89.0862 18.7547ZM107.51 10.2489V10.0821C109.557 9.49838 111.103 7.497 111.103 5.99597C111.103 3.0356 109.056 1.20101 105.129 1.20101H97.4417V2.2017H99.4052V18.713H97.4417V19.7137H105.254C109.181 19.7137 111.479 17.7123 111.479 14.8354C111.479 12.6255 109.808 10.7492 107.51 10.2489ZM103.165 2.2017H105.087C106.466 2.2017 107.552 3.28578 107.552 6.28784C107.552 8.08074 106.8 9.66516 105.505 9.66516H103.165V2.2017ZM105.296 18.713H103.416C103.165 18.713 103.165 18.4629 103.165 18.0876V10.7492H105.338C107.134 10.7492 107.677 12.4587 107.677 14.7937C107.677 18.0042 106.591 18.713 105.296 18.713ZM123.678 16.8784C123.302 18.1293 122.675 18.713 121.714 18.713H117.954C117.954 18.0876 117.954 16.2113 117.996 14.5018C117.996 13.4177 118.038 11.4997 118.038 11.2079H122.801V9.66516H118.038V2.2017H120.962C121.965 2.2017 122.425 2.57696 122.717 3.53595L123.678 6.78818C124.096 6.74648 124.43 6.74649 124.89 6.6631V1.20101H112.565V2.2017H114.278V18.713H111.897V19.7137H125.474L125.683 14.0015L124.472 13.7513L123.678 16.8784ZM169.383 1.20101H156.64V2.2017C158.604 2.2017 158.938 2.70204 158.938 3.74443V12.9174C156.557 8.99803 154.217 5.12037 151.878 1.20101H146.99V2.07662C147.784 2.32679 148.368 2.91052 148.828 3.53595V16.8784C148.828 18.4629 147.992 18.6713 147.157 18.713H146.238L140.849 1.20101H138.3C137.59 3.9946 133.537 16.5866 133.537 16.5866C133.161 17.754 132.535 18.7547 131.323 18.7547H131.281V19.7137H137.214V18.713H137.005C135.376 18.5879 134.874 18.5463 134.874 17.3788C134.874 17.0035 134.916 16.6283 135 16.0862L135.961 12.7506H140.473L142.185 18.713H140.138V19.7137H152.546V18.7547C150.248 18.713 150.123 18.0876 150.123 16.9201V5.49563C153.006 10.2489 155.805 15.0021 158.688 19.7137H160.15V3.74443C160.15 2.53526 160.902 2.24339 162.239 2.2017H164.16V18.713H162.113V19.7137H169.591C175.064 19.7137 178.198 15.4191 178.198 10.2489C178.239 4.95359 174.647 1.20101 169.383 1.20101ZM136.253 11.7499L138.217 4.95359L140.18 11.7499H136.253ZM168.589 18.713C168.129 18.713 167.962 18.4212 167.962 17.8791V2.16001C171.889 2.16001 174.02 4.62003 174.02 10.4157C174.02 16.4198 172.349 18.713 168.589 18.713ZM225.323 18.713V2.2017H227.036V1.20101H219.557V2.2017H221.312V18.713H218.388L212.998 1.20101H210.45C209.781 3.9946 205.687 16.5866 205.687 16.5866C205.353 17.6706 204.768 18.5879 203.724 18.713H202.262L201.259 2.2017H203.389V1.20101H197.582L194.073 11.0411C192.903 7.78887 191.692 4.45324 190.606 1.20101H184.464V2.2017C186.386 2.2017 186.511 2.49357 186.511 4.32816V4.53663C186.344 7.83056 185.968 13.9181 185.718 17.3371C185.676 18.0876 185.049 18.713 183.378 18.7964V19.7137H189.895V18.7547C187.556 18.713 187.18 17.9208 187.18 17.3371C187.18 17.0035 187.263 14.6269 187.347 12.292C187.472 9.08142 187.556 7.03836 187.681 3.78612V3.91121C189.269 8.3309 190.94 12.834 192.486 17.2537L193.07 16.9618C194.616 12.7923 196.12 8.74786 197.708 4.62003L198.418 18.6713H196.622V19.672H209.28V18.6713H209.113C207.484 18.5462 206.982 18.5046 206.982 17.3371C206.982 16.9618 207.024 16.5866 207.108 16.0445L208.069 12.7089H212.622L214.377 18.6713H212.33V19.672H227.036V18.6713H225.323V18.713ZM208.403 11.7499L210.366 4.95359L212.33 11.7499H208.403ZM239.402 13.6679L238.357 16.8367C237.898 18.2127 237.355 18.713 236.31 18.713H233.595C233.72 18.5462 233.72 16.7117 233.72 2.2017H235.767V1.20101H228.038V2.2017H229.96V18.713H227.955V19.7137H240.154L240.572 13.793C240.154 13.7513 239.819 13.7513 239.402 13.6679Z" fill="#6B7280"/>
</svg>
