<svg width="154" height="54" viewBox="0 0 154 54" fill="none" xmlns="http://www.w3.org/2000/svg">
<path d="M62.5284 19.3568L44.2773 13.1707V23.3701L50.3867 25.6963L62.5284 19.3568Z" fill="#D1D5DB"/>
<path d="M34.7862 19.8158L28.3363 17.3638V42.6755L25.1626 44.4635V53.8117L37.9599 46.328V36.4434L34.7862 35.2429V19.8158Z" fill="#9CA3AF"/>
<path d="M34.7743 19.7829V12.3643L28.3486 14.9049V17.3439L34.7743 19.7829Z" fill="#9CA3AF"/>
<path d="M44.2779 13.1706V8.6211L34.7744 5.69824V12.3319L37.968 11.0611L44.2779 13.1706Z" fill="#9CA3AF"/>
<path d="M37.96 36.439L44.2776 38.8132V23.3935L37.96 21.0193V36.439Z" fill="#9CA3AF"/>
<path d="M37.96 11.0742V21.0095L44.2776 23.3848V13.2196L37.96 11.0742Z" fill="#ABB1BA"/>
<path d="M34.7744 19.783V35.2448L37.9602 36.4479V20.9861L34.7744 19.783Z" fill="#4B5563"/>
<path d="M37.9602 21.0194V11.0742L34.7744 12.3525V19.8178L37.9602 21.0194Z" fill="#BEC3CC"/>
<path d="M58.1012 3.14408L49.3344 0.64502L34.7744 5.66864L44.2589 8.6012L58.1012 3.14408Z" fill="#D1D5DB"/>
<path d="M28.3485 7.90108L14.7135 3.33301L0 6.57404L15.2784 12.4181L28.3485 7.90108Z" fill="#D1D5DB"/>
<path d="M28.3486 14.9003V7.90234L15.2812 12.4229V49.9411L25.1652 44.45V16.1517L28.3486 14.9003Z" fill="#9CA3AF"/>
<path d="M28.3484 17.3292L25.1626 16.1274V44.4579L28.3484 42.6681V17.3292Z" fill="#4B5563"/>
<path d="M28.3484 17.3637V14.8909L25.1626 16.1531L28.3484 17.3637Z" fill="#ABB1BA"/>
<path d="M72.7054 30.4924H73.8609C75.2732 30.4924 77.1219 30.4924 77.1219 28.7557C77.1219 27.2489 75.761 27.019 74.5028 27.019H72.7054V30.4924ZM71.4472 25.8442H74.2204C76.3003 25.8442 78.5342 26.1507 78.5342 28.7302C78.5342 30.2626 77.5071 31.2586 75.8381 31.514L78.8937 36.3666H77.3274L74.4001 31.6417H72.7568V36.3666H71.4729V25.8442H71.4472ZM85.9293 25.8442H92.7338V26.9935H87.2131V30.2881H92.3486V31.4374H87.2131V35.1918H92.9905V36.3411H85.9293V25.8442ZM109.321 35.6515C108.089 36.3155 106.677 36.622 105.29 36.622C101.926 36.622 99.5126 34.4 99.5126 31.1054C99.5126 27.7852 102.08 25.5888 105.316 25.5888C106.728 25.5888 108.114 25.9719 109.142 26.9679L108.192 27.9384C107.447 27.1723 106.343 26.7381 105.239 26.7381C102.774 26.7381 100.899 28.5514 100.899 31.1054C100.899 33.6083 102.722 35.4727 105.367 35.4727C106.24 35.4727 107.267 35.2429 108.063 34.8598V31.6417H105.572V30.4924H109.321V35.6515ZM117.153 25.8442H118.437V36.3666H117.153V25.8442ZM135.589 31.1054C135.589 28.6791 133.843 26.7381 131.327 26.7381C128.785 26.7381 127.064 28.6791 127.064 31.1054C127.064 33.5317 128.81 35.4727 131.327 35.4727C133.843 35.4727 135.589 33.5317 135.589 31.1054ZM125.652 31.1054C125.652 27.9384 128.014 25.5888 131.301 25.5888C134.588 25.5888 136.95 27.9384 136.95 31.1054C136.95 34.2723 134.588 36.622 131.301 36.622C128.04 36.622 125.652 34.2723 125.652 31.1054ZM152.074 25.8442H153.358V36.3666H151.74L145.475 27.632H145.449V36.3666H144.165V25.8442H145.783L152.048 34.5788H152.074V25.8442ZM78.6883 12.6145H75.2475V21.8089H74.015V12.6145H70.5742V11.4652H78.6626V12.6145M90.808 16.6498C90.808 14.2746 89.1389 12.3591 86.6996 12.3591C84.2602 12.3591 82.5912 14.2746 82.5912 16.6498C82.5912 19.025 84.2602 20.9405 86.6996 20.9405C89.1389 20.9405 90.808 19.025 90.808 16.6498ZM81.256 16.6498C81.256 13.5339 83.5156 11.2354 86.6739 11.2354C89.8322 11.2354 92.0918 13.5339 92.0918 16.6498C92.0918 19.7657 89.8065 22.0898 86.6739 22.0898C83.5413 22.0643 81.256 19.7657 81.256 16.6498ZM97.0476 16.0369H98.1517C99.5126 16.0369 101.284 16.0369 101.284 14.3257C101.284 12.8444 99.9748 12.6145 98.7679 12.6145H97.0476V16.0369ZM95.815 11.4652H98.4598C100.463 11.4652 102.594 11.7461 102.594 14.3001C102.594 15.807 101.618 16.7775 100 17.0329L102.953 21.7833H101.438L98.6139 17.1351H97.0219V21.7833H95.7894V11.4652H95.815ZM115.433 16.6498C115.433 14.2746 113.763 12.3591 111.324 12.3591C108.885 12.3591 107.216 14.2746 107.216 16.6498C107.216 19.025 108.885 20.9405 111.324 20.9405C113.763 20.9405 115.433 19.025 115.433 16.6498ZM105.906 16.6498C105.906 13.5339 108.166 11.2354 111.324 11.2354C114.482 11.2354 116.742 13.5339 116.742 16.6498C116.742 19.7657 114.457 22.0898 111.324 22.0898C108.192 22.0643 105.906 19.7657 105.906 16.6498ZM120.465 11.4652H122.032L128.04 20.0466H128.066V11.4652H129.298V21.7833H127.732L121.723 13.2019H121.698V21.7833H120.465V11.4652ZM140.571 12.6145H137.13V21.8089H135.897V12.6145H132.457V11.4652H140.545V12.6145M152.69 16.6498C152.69 14.2746 151.021 12.3591 148.582 12.3591C146.143 12.3591 144.474 14.2746 144.474 16.6498C144.474 19.025 146.143 20.9405 148.582 20.9405C151.021 20.9405 152.69 19.025 152.69 16.6498ZM143.164 16.6498C143.164 13.5339 145.424 11.2354 148.582 11.2354C151.74 11.2354 154 13.5339 154 16.6498C154 19.7657 151.74 22.0898 148.582 22.0898C145.424 22.0643 143.164 19.7657 143.164 16.6498ZM108.808 43.4156C108.808 44.616 109.784 45.6121 110.99 45.6121C112.197 45.6121 113.173 44.616 113.173 43.4156C113.173 42.2153 112.223 41.2192 110.99 41.2192C109.784 41.2192 108.808 42.1897 108.808 43.4156ZM114.226 43.4156C114.226 45.2034 112.762 46.6081 110.99 46.6081C109.219 46.6081 107.755 45.2034 107.755 43.4156C107.755 41.6534 109.219 40.2231 110.99 40.2231C112.762 40.2231 114.226 41.6534 114.226 43.4156ZM78.3031 43.4156C78.3031 44.616 79.2788 45.6121 80.4857 45.6121C81.6925 45.6121 82.6682 44.616 82.6682 43.4156C82.6682 42.2153 81.7182 41.2192 80.4857 41.2192C79.2788 41.2192 78.3031 42.1897 78.3031 43.4156ZM83.721 43.4156C83.721 45.2034 82.2574 46.6081 80.4857 46.6081C78.7139 46.6081 77.2503 45.2034 77.2503 43.4156C77.2503 41.6534 78.7139 40.2231 80.4857 40.2231C82.2574 40.2231 83.721 41.6534 83.721 43.4156ZM72.5 45.5099H73.5014C74.0663 45.5099 74.8367 45.4077 74.8367 44.616C74.8367 43.9775 74.4258 43.7477 73.5528 43.7477H72.5V45.5099ZM72.5 42.8282H73.5014C74.2204 42.8282 74.5799 42.5217 74.5799 42.062C74.5799 41.5257 74.2204 41.2703 73.3987 41.2703H72.5V42.8282ZM71.4216 40.3764H73.8096C74.7339 40.3764 75.684 40.785 75.684 41.9088C75.684 42.5984 75.2475 43.0581 74.6312 43.2369V43.2624C75.4016 43.339 75.9665 43.952 75.9665 44.7182C75.9665 46.0462 74.811 46.4549 73.6555 46.4549H71.4472V40.3764H71.4216ZM88.7024 44.1307L87.7524 41.6534L86.8023 44.1307H88.7024ZM87.3158 40.3764H88.2659L90.885 46.4549H89.6268L89.0619 45.0757H86.4171L85.8522 46.4549H84.6454L87.3158 40.3764ZM94.069 42.9304C94.6852 42.9304 95.4042 42.8793 95.4042 42.0876C95.4042 41.3724 94.7366 41.2703 94.1717 41.2703H93.2216V42.9304H94.069ZM92.1175 40.3764H94.2487C95.4299 40.3764 96.534 40.7595 96.534 42.1131C96.534 42.9815 96.0205 43.6455 95.1218 43.7732L96.7394 46.4549H95.4299L94.0176 43.8753H93.2216V46.4549H92.1175V40.3764ZM100.026 45.4588C101.387 45.4588 102.517 44.8714 102.517 43.3901C102.517 41.9088 101.541 41.3214 100.206 41.3214H99.2045V45.4588H100.026ZM98.126 40.3764H100.54C102.157 40.3764 103.647 41.3469 103.647 43.4156C103.647 45.4844 101.875 46.4549 100.411 46.4549H98.126V40.3764ZM115.843 40.3764H119.798V41.3469H116.947V42.9559H119.644V43.9264H116.947V46.4549H115.869V40.3764M125.447 41.3469H123.572V40.3764H128.4V41.3469H126.525V46.4549H125.447V41.3469ZM131.635 42.9304C132.251 42.9304 132.97 42.8793 132.97 42.0876C132.97 41.3724 132.303 41.2703 131.738 41.2703H130.788V42.9304H131.635ZM129.709 40.3764H131.84C133.022 40.3764 134.126 40.7595 134.126 42.1131C134.126 42.9815 133.612 43.6455 132.713 43.7732L134.331 46.4549H133.022L131.609 43.8753H130.813V46.4549H129.709V40.3764ZM139.081 44.1307L138.131 41.6534L137.181 44.1307H139.081ZM137.695 40.3764H138.645L141.29 46.4549H140.057L139.492 45.0757H136.796L136.231 46.4549H135.024L137.695 40.3764ZM144.397 45.4588C145.757 45.4588 146.887 44.8714 146.887 43.3901C146.887 41.9088 145.912 41.3214 144.576 41.3214H143.601V45.4588H144.397ZM142.496 40.3764H144.91C146.528 40.3764 148.017 41.3469 148.017 43.4156C148.017 45.4844 146.245 46.4549 144.782 46.4549H142.496V40.3764ZM149.609 40.3764H153.666V41.3469H150.713V42.8538H153.512V43.8243H150.713V45.4844H153.82V46.4549H149.609V40.3764Z" fill="#6B7280"/>
</svg>
