<svg width="257" height="28" viewBox="0 0 257 28" fill="none" xmlns="http://www.w3.org/2000/svg">
<path d="M252.981 0.719727H254.554L246.66 14.2216L254.554 27.737H252.981L245.119 14.2216L252.981 0.719727Z" fill="#F3F4F6"/>
<path d="M3.2423 0.719727H1.66943L9.56352 14.2216L1.67214 27.737H3.2423L11.1039 14.2216L3.2423 0.719727Z" fill="#F3F4F6"/>
<path d="M1.672 27.737L9.56338 14.2216L1.672 0.719727H0.188477L8.134 14.2297L0.188477 27.737H1.66929H1.672Z" fill="#6B7280"/>
<path d="M252.981 0.719727H3.24219L11.1065 14.2216L3.24489 27.737H252.981L245.119 14.2216L252.981 0.719727Z" fill="#6B7280"/>
<path d="M254.551 27.737L246.657 14.2216L254.551 0.719727H256.034L248.086 14.2297L256.032 27.737H254.551Z" fill="#6B7280"/>
<path d="M135.538 10.4913L135.021 10.5834C133.735 7.03724 132.057 5.28178 129.385 5.28178H128.186V21.0213C128.186 22.021 128.914 22.682 131.38 22.728V23.1209H121.209V22.728C123.651 22.6359 124.379 22.021 124.379 21.0213V5.28449H123.134C120.524 5.28449 118.659 7.03995 117.52 10.5861L117.002 10.494L117.544 4.68579H135.021L135.538 10.494" fill="#F3F4F6"/>
<path d="M116.605 5.07592C113.941 5.50124 113.457 6.49546 113.457 9.03925V23.557H112L99.7856 7.79309H99.7396V18.6943C99.7396 21.2354 100.3 22.3569 103.191 22.7281V23.1209H95.603V22.7281C98.2696 22.3298 98.8922 21.2381 98.8922 18.6943V8.0044C98.8922 6.44399 98.0584 5.15719 95.603 5.07592V4.68311H102.252L112.539 18.0495H112.609V9.03925C112.609 6.50358 111.857 5.44706 109.014 5.07592V4.68311H116.602V5.07321" fill="#F3F4F6"/>
<path d="M37.3255 10.4913L36.8084 10.5834C35.5225 7.03724 33.8441 5.28178 31.1721 5.28178H29.9728V21.0213C29.9728 22.021 30.7011 22.682 33.1673 22.728V23.1209H22.9965V22.728C25.4383 22.6359 26.1666 22.021 26.1666 21.0213V5.28449H24.9213C22.3116 5.28449 20.4463 7.03995 19.3066 10.5861L18.7896 10.494L19.331 4.68579H36.8084L37.3255 10.494" fill="#F3F4F6"/>
<path d="M150.996 13.9482C150.996 7.54129 149.015 4.82141 145.571 4.82141C142.128 4.82141 140.143 7.58735 140.143 13.9265C140.143 20.2657 142.125 23.0289 145.571 23.0289C149.017 23.0289 150.996 20.3551 150.996 13.9482ZM155.035 13.8805C155.035 19.7103 150.644 23.6276 145.569 23.6276C140.493 23.6276 136.102 19.8268 136.102 13.9699C136.102 8.1129 140.466 4.24438 145.569 4.24438C150.672 4.24438 155.035 8.0235 155.035 13.8778" fill="#F3F4F6"/>
<path d="M91.4226 13.9482C91.4226 7.54129 89.441 4.84579 85.9975 4.84579C82.554 4.84579 80.5723 7.58735 80.5723 13.9265C80.5723 20.2657 82.554 23.0289 85.9975 23.0289C89.441 23.0289 91.4226 20.3551 91.4226 13.9482ZM95.4617 13.8805C95.4617 19.7103 91.0707 23.6276 85.9948 23.6276C80.9188 23.6276 76.5278 19.8268 76.5278 13.9699C76.5278 8.1129 80.8918 4.24438 85.9948 4.24438C91.0978 4.24438 95.4617 8.0235 95.4617 13.8778" fill="#F3F4F6"/>
<path d="M70.6346 9.38601C70.6346 6.93432 69.3676 5.28451 65.8185 5.28451H64.0345V13.8126H65.7481C69.1077 13.8126 70.6346 12.1384 70.6346 9.38872M78.997 23.1236H72.4673C71.6931 22.3407 70.5588 21.0403 69.2485 18.9977C66.6171 14.8935 66.1488 14.4113 64.5976 14.4113H64.0345V21.0241C64.0345 22.0833 64.4189 22.6495 66.8527 22.7308V23.1236H57.2666V22.7308C59.787 22.6495 60.1551 22.0291 60.1551 21.0241V6.75824C60.1551 5.77756 59.7843 5.15719 57.2666 5.07592V4.68311H66.4033C71.6173 4.68311 74.5545 6.34104 74.5545 9.33725C74.5545 11.5316 72.4646 13.5552 68.5636 14.246V14.2921C70.0661 14.5901 71.111 15.3351 72.535 17.2422L74.1322 19.3851C75.8621 21.7068 77.0451 22.682 78.9943 22.7254V23.1182" fill="#F3F4F6"/>
<path d="M52.7561 13.9482C52.7561 7.54129 50.7745 4.82141 47.3283 4.82141C43.8821 4.82141 41.9031 7.58735 41.9031 13.9265C41.9031 20.2657 43.8848 23.0289 47.3283 23.0289C50.7718 23.0289 52.7561 20.3551 52.7561 13.9482ZM56.7952 13.8805C56.7952 19.7103 52.4042 23.6276 47.3283 23.6276C42.2523 23.6276 37.8613 19.8268 37.8613 13.9699C37.8613 8.1129 42.2253 4.24438 47.3283 4.24438C52.4313 4.24438 56.7952 8.0235 56.7952 13.8778" fill="#F3F4F6"/>
<path d="M199.912 10.4913L199.395 10.5834C198.109 7.03724 196.431 5.28178 193.756 5.28178H192.557V21.0213C192.557 22.021 193.098 22.682 195.564 22.728V23.1209H185.58V22.728C188.022 22.6359 188.751 22.021 188.751 21.0213V5.28449H187.505C184.896 5.28449 183.03 7.03995 181.891 10.5861L181.374 10.494L181.915 4.68579H199.392L199.909 10.494" fill="#F3F4F6"/>
<path d="M181.826 17.9359C181.826 21.3222 178.913 23.6276 173.699 23.6276C170.856 23.6276 168.81 22.8853 167.472 22.2216L166.557 23.3269H166.251L165.686 17.1503L166.157 17.0582C167.943 21.1597 169.798 23.0262 173.745 23.0262C176.723 23.0262 178.677 21.3439 178.677 19.3148C178.677 17.2857 177.63 16.4134 173.953 15.2133L171.346 14.36C168.539 13.4416 166.273 11.9381 166.273 9.01502C166.273 5.76416 169.256 4.24438 173.344 4.24438C175.835 4.24438 177.713 5.00563 178.748 5.626L179.381 4.63449H179.733L180.226 10.4887L179.733 10.5808C178.488 6.9155 176.655 4.84308 173.32 4.84308C170.829 4.84308 169.443 6.20303 169.443 7.74718C169.443 9.61371 170.837 10.2828 173.341 11.0901L176.419 12.0817C179.552 13.0894 181.823 14.7311 181.823 17.9359" fill="#F3F4F6"/>
<path d="M231.131 9.38601C231.131 6.93432 229.862 5.28451 226.315 5.28451H224.529V13.8126H226.242C229.602 13.8126 231.129 12.1384 231.129 9.38872M239.491 23.1236H232.961C232.185 22.3407 231.053 21.0403 229.743 18.9977C227.111 14.8935 226.64 14.4113 225.089 14.4113H224.526V21.0241C224.526 22.0833 224.91 22.6495 227.347 22.7308V23.1236H217.761V22.7308C220.278 22.6495 220.649 22.0291 220.649 21.0241V6.78262C220.649 5.80465 220.278 5.1599 217.761 5.07592V4.68311H226.897C232.111 4.68311 235.049 6.34104 235.049 9.33725C235.049 11.5316 232.959 13.5552 229.058 14.246V14.2921C230.56 14.5901 231.605 15.3351 233.026 17.2422L234.624 19.3851C236.354 21.7068 237.537 22.682 239.486 22.7254V23.1182" fill="#F3F4F6"/>
<path d="M208.862 15.7472L205.903 7.59023H205.784L202.73 15.7472H208.862ZM217.858 23.1212H208.25V22.7284C210.216 22.6309 210.884 22.3437 210.882 21.5987C210.882 21.3305 210.792 21.0054 210.646 20.6072L209.049 16.2754H202.495L201.675 18.3506C201.228 19.4775 201.063 20.3092 201.063 20.9323C201.063 22.0376 201.742 22.5225 203.364 22.7311V23.1239H196.951V22.7311C198.783 22.3843 199.801 21.2845 200.944 18.3993L206.607 4.11182H208.462L214.547 20.2442C215.159 21.8642 215.695 22.4412 217.861 22.7338V23.1266" fill="#F3F4F6"/>
</svg>
