<svg width="145" height="24" viewBox="0 0 145 24" fill="none" xmlns="http://www.w3.org/2000/svg">
<path fill-rule="evenodd" clip-rule="evenodd" d="M5.90317 0.436369H6.08327L6.38452 0.493698L6.74471 0.552612L7.70494 0.786683L9.02619 1.01916L9.74738 1.19591L10.5283 1.37027L11.3691 1.48731L12.209 1.72138L13.1103 1.83762L14.0107 2.07169L16.8931 2.59637L17.7944 2.83044L18.7554 3.0056L19.5945 3.18076L20.4966 3.35591L21.3365 3.53106L22.178 3.6481L22.8984 3.82406L23.6196 3.94029L24.2197 4.11465L24.7599 4.23249L25.2397 4.28981L25.6604 4.34873L25.9617 4.40765L26.1409 4.46576H26.2605L27.0422 4.64092L27.7626 4.75796L28.3635 4.93311L28.8432 5.04936L29.3245 5.22531L29.6847 5.34234L30.1644 5.57562L30.3445 5.69266L30.645 5.98405V6.04297L30.7064 6.10109V6.15921H33.2866L33.5281 6.21812H33.768L33.9481 6.27625H34.1282L34.3083 6.33516L34.7888 6.56764L34.8486 6.68548L35.2693 7.32718L35.3897 8.08593L35.2693 9.02142L34.9697 9.8972L34.6087 10.773L34.2477 11.4744L33.9481 11.9418L33.8286 12.1169L33.7082 12.1766L33.4078 12.2913L32.987 12.4672L32.3862 12.7005L31.7255 12.9354L30.8856 13.2849L29.9843 13.6352L28.9635 13.9863L27.8224 14.4529L26.6207 14.8621L25.4214 15.3286L22.7789 16.3812L21.3971 16.9066L20.0153 17.3748L18.6351 17.956L17.1943 18.4831L15.8125 18.9496L14.4904 19.5348L13.1103 20.0029L11.8488 20.4695L9.44613 21.4034L8.36556 21.8126L7.34475 22.1629L6.44427 22.5124L5.66414 22.8046L5.0027 23.0968L4.46323 23.2728L4.04246 23.4487L3.80179 23.5061L3.74121 23.5634H34.7888L39.8331 0.319336H5.90317V0.436369Z" fill="#4B5563"/>
<path fill-rule="evenodd" clip-rule="evenodd" d="M29.1447 7.97094L28.9638 8.02985L27.7629 8.26233H27.4625L27.2218 8.32045H26.9828L26.6209 8.38017L26.4417 8.43828L26.3213 8.4964L26.2607 8.61424V8.72968L26.3819 8.84672H26.6209L26.8616 8.90484H27.4625L27.8227 8.84672H28.1829L29.0244 8.72968H29.4452L29.9249 8.67077L30.3448 8.61424L30.7066 8.55453L31.1258 8.4964H32.7474L32.9267 8.55453L33.0479 8.61424L33.1674 8.7886V9.02188L33.1076 9.25515L33.0479 9.54734L32.9267 9.89766L32.7474 10.3069L32.6271 10.7161L32.5673 10.9494L32.6869 11.0664L32.8072 11.0075L33.0479 10.7734L33.1674 10.5991L33.3475 10.3069L33.5284 9.95657L33.7085 9.54734L33.8878 9.19783L34.0081 8.84672L34.0679 8.55453V8.20421L33.9484 7.91202L33.7683 7.73687L33.5284 7.56171L33.228 7.44467L32.867 7.38655L32.4478 7.32764H29.9249L29.8651 7.38655H29.8045L29.685 7.44467L29.5639 7.67874L29.4452 7.73687L29.3248 7.8539L29.1447 7.97094Z" fill="#6B7280"/>
<path fill-rule="evenodd" clip-rule="evenodd" d="M4.76256 5.69336L0.798828 23.5641L0.979742 23.5068L1.33993 23.2735L1.93998 23.0402L2.72175 22.631L3.62141 22.2225L4.64304 21.6971L5.84395 21.1708L6.9851 20.5864L8.186 20.061L9.32633 19.4766L10.4675 18.9503L11.5481 18.4248L12.4493 17.9567L13.2295 17.6072L13.8303 17.3166L14.2511 17.1406L14.8512 16.8484L15.3923 16.5562L16.0521 16.2633L16.7127 15.9137L17.3136 15.6215L18.0339 15.3293L18.6946 14.979L19.4149 14.6884L20.1361 14.3365L23.7389 12.8772L25.3605 12.3509L25.6004 12.292L25.8402 12.1773L26.1407 12.1176L27.2212 11.7673L28.4835 11.417L28.9035 11.3581L30.1642 11.0078L30.8854 10.8915L31.1252 10.8326L31.3053 10.7737H31.4862L31.6655 10.7164L31.7858 10.5993H31.8464V10.5396L31.7253 10.3071L31.5452 10.249L31.3053 10.1901H31.0655L30.7061 10.1328H30.3443L29.9243 10.1901L29.2039 10.249L28.423 10.3653L27.5822 10.5396L26.681 10.7164L25.7813 10.9496L24.8202 11.2418L23.919 11.534L22.9587 11.8254L22.0582 12.1773L21.1561 12.4679L20.3162 12.7601L19.5361 13.0523L18.8141 13.4026L18.214 13.6359L17.6737 13.8708L17.253 14.104L14.9715 7.21164H29.5044L29.5633 6.92025L29.3243 6.62726L28.9632 6.4521L28.423 6.27695L27.8221 6.10179L26.2602 5.86852L23.7389 5.69336H4.76256Z" fill="#6B7280"/>
<path fill-rule="evenodd" clip-rule="evenodd" d="M144.522 12.4845H42.7764L42.9221 10.998H144.669L144.522 12.4845Z" fill="#374151"/>
<path fill-rule="evenodd" clip-rule="evenodd" d="M47.3997 9.1972L46.6188 9.13828L45.8386 8.96312L45.2378 8.78797L44.6975 8.43765L44.3381 8.02922L44.0974 7.50215L44.0368 6.91937L44.0974 6.21794L44.3979 4.93293L44.6377 3.76496L44.8784 2.77135L45.0585 1.95448L45.1788 1.25385L45.2983 0.728384L45.3589 0.43699L45.4179 0.319951H47.3997L47.3391 0.552431L47.2196 1.13682L46.9789 2.0126L46.7989 3.00621L46.559 3.99983L46.2594 5.4592L46.1988 5.63436L46.1399 6.1017V6.92016L46.2594 7.21156L46.4992 7.44483L46.7989 7.61999L47.2196 7.73623L47.7001 7.79435L48.2404 7.73623L48.6612 7.67811L49.0812 7.50215L49.3816 7.21076L49.6223 6.91937L49.8629 6.56746L50.2231 5.63356L50.2821 5.16621L50.4622 4.46558L50.6439 3.5898L50.824 2.6551L51.063 1.77773L51.1842 1.01898L51.3037 0.492721L51.3643 0.318359H53.3461L52.9859 2.0118L52.8058 2.88917L52.6855 3.18057V3.29681L52.6249 3.64792L52.4448 4.5237L52.0257 6.21794L51.9651 6.56746L51.785 6.91937L51.6639 7.21076L51.4838 7.50215L51.2447 7.79435L50.7642 8.2609L50.463 8.43686L50.1036 8.61281L49.8032 8.78797L49.4438 8.9042L49.0828 8.96312L48.7218 9.07936L47.8819 9.1972H47.3997ZM139.759 1.7212H136.937L136.458 1.83744L136.098 2.07151L136.038 2.18776L135.977 2.36371V2.59698L136.038 2.83106L136.217 3.06513L136.398 3.35653L136.938 3.88199L137.297 4.11527L137.598 4.34934L137.959 4.64154L138.558 5.22592L138.8 5.51811L139.159 6.21874L139.218 6.56826L139.159 6.97748L139.039 7.38751L138.859 7.79594L138.558 8.14626L138.137 8.43845L137.658 8.67093L137.057 8.84608L136.277 8.96312L135.436 9.02124H132.374L132.734 7.61999H135.976L136.277 7.56108L136.517 7.50215L136.697 7.38592L136.878 7.15185L136.997 6.91937L136.938 6.45122L136.579 5.98387L135.978 5.51732L135.377 4.99185L134.718 4.40826L134.176 3.76496L133.817 3.12165L133.758 2.36291L133.876 1.95448L134.118 1.48793L134.358 1.13761L134.779 0.845417L135.319 0.612141L135.859 0.43699L136.58 0.319951H140.063L139.759 1.7212ZM132.793 1.7212H128.29L127.748 3.99903H131.714L131.413 5.22513H127.45L126.968 7.61999H131.472L131.172 9.02124H124.687L126.609 0.319155H133.096L132.793 1.7212ZM124.986 1.7212H122.224L120.603 9.02124H118.622L120.243 1.7212H117.42L117.781 0.319155H125.288L124.986 1.7212ZM111.175 9.02124L111.956 7.61999H114.778L113.998 2.07151L110.034 9.02124H108.052L113.216 0.319155H115.558L116.94 9.02124H111.175ZM110.814 1.7212H108.052L106.431 9.02124H104.448L106.069 1.7212H103.249L103.608 0.319155H111.113L110.814 1.7212ZM102.227 1.7212H99.4644L99.164 1.77853L98.9241 1.83744L98.7432 1.95448L98.5034 2.18696V2.59619L98.5639 2.83026L98.6834 3.06433L98.9233 3.35573L99.4636 3.8812L99.764 4.11447L100.125 4.34855L101.024 5.22513L101.265 5.51732L101.505 5.86763L101.625 6.21794L101.685 6.56746V6.97669L101.564 7.38671L101.385 7.79515L101.024 8.14546L100.664 8.43765L100.126 8.67013L99.525 8.84529L98.8038 8.96233L97.9033 9.02045H94.9006L95.1994 7.61919H98.5025L98.803 7.56108L99.0428 7.50215L99.2237 7.38592L99.403 7.15185L99.4636 6.91937L99.403 6.45122L99.0436 5.98387L98.5034 5.51732L97.9041 4.99185L97.2419 4.40826L96.7016 3.76496L96.3422 3.12165L96.2816 2.36291L96.4028 1.95448L96.5821 1.48793L96.8825 1.13761L97.3033 0.845417L97.7846 0.612141L98.3838 0.43699L99.105 0.319951H102.587L102.227 1.7212ZM84.0916 4.64074L83.1895 9.02124H87.2138L87.6936 8.96312H88.1749L89.014 8.72905L89.4953 8.55389L89.9161 8.31982L90.6373 7.85327L91.3568 7.15185L91.9577 6.33498L92.1976 5.86763L92.3785 5.40107L92.498 4.87481L92.5586 4.64154L92.6175 4.29122L92.737 3.47436L92.6781 2.71482L92.4972 2.07231L92.1967 1.48872L91.717 0.962456L91.1178 0.612141L90.336 0.378865L89.4356 0.319951H85.0519L84.0916 4.64074ZM90.6373 4.64074L90.5767 4.93293L90.3958 5.28325L90.2763 5.57544L90.1576 5.92575L89.9767 6.15823L89.7368 6.45122L89.2555 6.91937L88.6546 7.26888L88.3558 7.38592L87.9964 7.50215L87.2736 7.61919H85.4735L86.0727 4.63995L86.735 1.72041H89.3169L89.7966 1.89556L90.1576 2.12884L90.4564 2.47835L90.6373 2.82867L90.7568 3.29522V4.22992L90.6373 4.58023V4.64074ZM83.3115 1.7212H78.8664L78.3261 3.99903H82.2309L81.9894 5.22513H78.0274L77.546 7.61999H81.9894L81.7496 9.02124H75.2645L77.1866 0.319155H83.6111L83.3115 1.7212ZM75.565 1.7212H72.7424L71.1207 9.02124H69.1994L70.8203 1.7212H67.9985L68.2981 0.319155H75.8056L75.565 1.7212ZM65.0556 9.02124H63.1335L64.995 0.319155H66.9761L65.0556 9.02124ZM61.2122 9.02124H58.7498L56.5281 2.53887H56.4683L55.0873 9.02124H53.3461L55.2674 0.319155H57.7896L59.9523 6.86125L61.3342 0.319155H63.1351L61.2122 9.02124ZM44.758 20.2344H44.5182L44.3979 20.1771H44.0377L43.9181 20.1198H43.7986L43.6783 18.8929H44.1588L44.2186 18.9502H44.5796L45.0593 18.8929L45.7797 18.6596L46.0204 18.4247L46.3797 17.9566L46.5001 17.7249V17.4901L46.5598 17.1979V16.9073L46.5001 16.6724L46.3797 16.498L46.0204 16.2632H45.7797L45.5406 16.2058H43.919L42.2973 23.5067H40.3154L42.2384 14.803H46.5017L47.1623 14.8619L47.6428 15.0968L48.0628 15.3874L48.3035 15.7966L48.423 16.2058L48.4836 16.6724V17.1405L48.423 17.5498L48.2429 18.1341L47.9425 18.6596L47.5823 19.1262L47.1026 19.5354L46.6212 19.8276L45.4195 20.1771L44.758 20.2344ZM143.602 16.205H139.039L138.558 18.4829H142.522L142.221 19.7671H138.259L137.778 22.1619H142.282L141.982 23.5059H135.497L137.419 14.8022H143.904L143.602 16.205ZM135.616 16.3221L135.375 16.2632H135.195L134.716 16.1477L134.414 16.0888H134.115L133.873 16.0299H133.514L132.853 16.0888L132.252 16.2632L131.653 16.498L131.113 16.9073L130.692 17.3165L130.271 17.842L130.031 18.4845L129.792 19.1843L129.67 19.8857L129.731 20.5282L129.91 21.0537L130.152 21.4629L130.511 21.814L130.993 22.1062L131.533 22.2806L132.132 22.3379H132.491L132.852 22.2806H133.153L133.754 22.1643H133.992L134.294 22.107L134.534 22.0481L134.052 23.5083L133.813 23.5656H133.512L133.272 23.6245H132.972L132.732 23.6818H131.35L130.389 23.5656L129.968 23.4501L129.548 23.2742L129.188 23.0982L128.829 22.865L128.528 22.6317L128.228 22.3379L128.047 21.9884L127.868 21.5792L127.687 21.2296L127.626 20.7631V20.2949L127.687 19.7695L127.746 19.1851L127.927 18.6612L128.108 18.0768L128.587 17.1421L128.888 16.7329L129.609 16.0315L130.03 15.7393L130.869 15.2727L131.83 14.9216L132.311 14.8054L132.791 14.7481L133.331 14.6907H134.593L134.833 14.7481H135.074L135.314 14.8054H135.554L135.794 14.8643L135.616 16.3221ZM125.708 23.5059H123.726L125.648 14.8022H127.629L125.708 23.5059ZM119.341 23.5059H116.999L115.679 14.8022H117.661L118.562 21.8124L122.526 14.8022H124.448L119.341 23.5059ZM112.075 19.7679L113.518 23.5059H111.354L109.733 18.7759H110.876L111.235 18.7169L111.595 18.6007L111.895 18.4247L112.135 18.2504L112.375 18.0155L112.494 17.7249L112.615 17.3754L112.674 17.1405V16.9073L112.555 16.5561L112.435 16.4399L112.195 16.3237L111.595 16.2074H109.793L108.172 23.5083H106.191L108.113 14.8046H112.256L112.855 14.8635L113.397 14.9797L113.818 15.1557L114.118 15.389L114.358 15.6812L114.539 16.0904L114.598 16.5569V17.0235L114.539 17.6079L114.358 18.1349L114.118 18.6015L113.818 18.951L113.457 19.3005L112.977 19.5354L112.557 19.7114L112.075 19.7679ZM106.372 16.205H101.866L101.387 18.4829H105.29L105.05 19.7671H101.086L100.606 22.1619H105.11L104.81 23.5059H98.2643L100.186 14.8022H106.671L106.372 16.205ZM98.2029 16.205H95.6816L95.0807 16.3213L94.8409 16.3802L94.7214 16.4964L94.5404 16.6127L94.4209 16.846V17.1381L94.4815 17.373L94.601 17.6047L94.8409 17.8396L95.0807 18.1318L95.3812 18.3634L95.6816 18.6572L96.041 18.8905L96.3414 19.1811L96.7008 19.416L96.9423 19.7655L97.1821 20.0577L97.422 20.4072L97.5431 20.6994L97.6004 21.1086V21.4581L97.4817 21.9263L97.3008 22.2758L96.5796 22.9772L96.0999 23.2105L95.4376 23.3865L94.7181 23.5027H90.8149L91.1154 22.1588H94.4168L94.7173 22.1014L94.9571 21.9836L95.138 21.8674L95.3173 21.693L95.4368 21.4581L95.3173 20.9916L94.9579 20.5234L94.4176 19.9996L93.8184 19.4725L93.1562 18.947L92.6159 18.3045L92.2565 17.6031L92.1959 16.9033L92.3154 16.4351L92.4964 16.0259L92.7968 15.6764L93.2176 15.3842L93.6973 15.1509L94.2981 14.975L95.0193 14.8587L95.8584 14.7998H98.5017L98.2029 16.205ZM87.5151 23.5059H81.4492L83.3115 14.8022H85.3531L83.7306 22.1619H87.8139L87.5151 23.5059ZM74.6628 23.5059L75.443 22.1619H78.2648L77.4257 16.5546L73.5225 23.5051H71.5407L76.6455 14.8014H79.0473L80.4292 23.5051H74.6628V23.5059ZM74.3035 16.205H71.4809L69.8592 23.5059H67.8774L69.4998 16.205H66.737L67.0383 14.8022H74.5441L74.3035 16.205ZM65.7162 16.205H63.1932L62.5932 16.3213L62.4131 16.3802L62.233 16.4964L61.994 16.7297L61.9334 16.846V17.1381L61.994 17.373L62.3533 17.8396L62.5924 18.1318L62.8928 18.3634L63.1924 18.6572L63.5534 18.8905L63.9136 19.1811L64.2132 19.416L64.4539 19.7655L64.7543 20.0577L64.9344 20.4072L65.0548 20.6994L65.1743 21.1086L65.1145 21.4581L64.9942 21.9263L64.8141 22.2758L64.5145 22.6269L64.1535 22.9764L63.6132 23.2097L62.9534 23.3857L62.2322 23.5019H58.3896L58.6295 22.158H61.9932L62.2322 22.1006L62.7127 21.8658L62.8322 21.6914L62.9526 21.4565L62.892 20.99L62.5318 20.5218L61.9923 19.998L61.3309 19.4709L60.73 18.9454L60.1897 18.3029L59.8296 17.6015L59.7092 16.9017L59.8296 16.4335L60.0686 16.0243L60.3715 15.6796L60.7308 15.3874L61.2114 15.1541L61.8712 14.9782L62.5916 14.8619L63.3717 14.803H66.015L65.7162 16.205ZM49.0214 19.1827L48.9002 20.119L49.0812 21.3443L49.4422 22.0457L49.6812 22.3952L50.2223 22.9207L50.5817 23.154L50.9419 23.3299L51.3626 23.5059L51.8423 23.6221L52.3229 23.6794H53.3445L54.3047 23.5632L54.7844 23.4478L55.265 23.2718L55.6857 23.0959L56.0459 22.8626L56.4667 22.6293L56.8269 22.3355L57.1265 21.986L57.4875 21.6365L57.7265 21.2273L58.2071 20.2926L58.3872 19.7671L58.5067 19.1827L58.627 18.7161V17.8404L58.5664 17.3738L58.5067 16.9646L58.1465 16.2616L57.6692 15.6796L57.368 15.4463L57.0078 15.213L56.6476 15.0371L56.1671 14.8611L55.7463 14.7449L55.2666 14.6875H54.245L53.2847 14.803L52.805 14.9192L52.3245 15.0968L51.9037 15.2711L51.5444 15.5044L51.1236 15.7966L50.7634 16.0299L50.4032 16.381L50.1028 16.7902L49.8023 17.1397L49.5625 17.6063L49.3824 18.0744L49.2023 18.6588L49.0214 19.1827ZM56.5273 19.1827L56.3472 19.8841L56.0476 20.5266L55.7463 21.0521L55.3272 21.4613L54.8467 21.8124L54.3055 22.1046L53.7653 22.279L53.1038 22.3363L52.4424 22.279L51.9627 22.0457L51.5419 21.7535L51.2423 21.3443L51.0614 20.9351L50.9419 20.3523V19.7679L51.0614 19.1835L51.2423 18.4837L51.5419 17.8412L51.8423 17.3157L52.2631 16.9065L52.7428 16.4972L53.2839 16.2624L53.8242 16.088L54.4848 16.0291L55.0857 16.1469L55.626 16.2624L56.0467 16.6135L56.3464 16.9646L56.5264 17.4311L56.6468 17.955V18.5394L56.5273 19.1827Z" fill="#6B7280"/>
</svg>
