<svg width="111" height="28" viewBox="0 0 111 28" fill="none" xmlns="http://www.w3.org/2000/svg">
<g clip-path="url(#clip0_819_1200)">
<path fill-rule="evenodd" clip-rule="evenodd" d="M13.5098 12.3728L17.8976 9.39795V15.4458L13.5098 18.4206V12.3728Z" fill="#9CA3AF"/>
<path fill-rule="evenodd" clip-rule="evenodd" d="M8.76758 8.76366L13.1953 5.73975L17.6229 8.76366L13.1808 11.7762L8.76758 8.76366Z" fill="#9CA3AF"/>
<path fill-rule="evenodd" clip-rule="evenodd" d="M8.49512 15.4459V9.40186L12.8467 12.3729V18.4207L8.49512 15.4459Z" fill="#9CA3AF"/>
<path fill-rule="evenodd" clip-rule="evenodd" d="M13.1804 27.4999C11.481 27.4999 9.83606 27.145 8.29616 26.4466C6.93741 25.8275 5.70549 24.9668 4.63299 23.8795C3.34309 22.5695 2.33219 20.9538 1.70536 19.2096C1.19447 17.7864 0.933594 16.2801 0.933594 14.7398V4.2373L7.83237 8.94871V15.6308C7.83237 15.7478 7.88672 15.8535 7.98093 15.9177L12.9956 19.3418C13.0282 19.3606 13.0499 19.3757 13.0753 19.3833L13.1079 19.3908C13.1405 19.3984 13.155 19.4022 13.1695 19.4022C13.213 19.3984 13.2456 19.3946 13.2746 19.3871C13.3036 19.3795 13.3217 19.3682 13.3434 19.3569L18.4052 15.9252C18.4994 15.861 18.5537 15.7516 18.5537 15.6345V8.95249L25.4272 4.26373V14.7398C25.4272 16.2688 25.1699 17.7675 24.6626 19.1945C24.0322 20.9538 23.0177 22.5733 21.7278 23.8795C20.6698 24.9554 19.4487 25.8124 18.0972 26.4315C16.5392 27.1375 14.887 27.4999 13.1804 27.4999Z" fill="#6B7280"/>
<path fill-rule="evenodd" clip-rule="evenodd" d="M1.20508 3.59959L5.63276 0.575684L12.5895 5.32862L8.16545 8.35253L1.20508 3.59959Z" fill="#6B7280"/>
<path fill-rule="evenodd" clip-rule="evenodd" d="M13.7998 5.3282L20.7239 0.605469L25.1516 3.6256L18.2275 8.35211L13.7998 5.3282Z" fill="#6B7280"/>
<path fill-rule="evenodd" clip-rule="evenodd" d="M42.9925 15.6952C42.9925 17.4204 42.5504 18.7833 41.6772 19.7384C40.8112 20.6897 39.601 21.1729 38.0829 21.1729C36.6988 21.1729 35.6263 20.7652 34.8944 19.9649C34.1588 19.1608 33.7856 17.9489 33.7856 16.3596V7.04248H31.1406V16.5748C31.1406 18.889 31.753 20.6784 32.9559 21.8902C34.1588 23.102 35.8147 23.7136 37.8764 23.7136C39.1409 23.7136 40.2822 23.4305 41.2678 22.8755C41.9743 22.4754 42.583 21.9582 43.0758 21.3239V23.5626H45.6302V7.04248H42.9888V15.6952H42.9925Z" fill="#6B7280"/>
<path fill-rule="evenodd" clip-rule="evenodd" d="M98.0779 6.91797C96.7228 6.91797 95.509 7.20111 94.4763 7.75228C93.7227 8.15622 93.0814 8.68475 92.5632 9.33408V7.03877H90.0088V23.5589H92.6502V14.9062C92.6502 13.1998 93.1067 11.8521 94.0053 10.897C94.9039 9.94565 96.1467 9.45866 97.7047 9.45866C99.0852 9.45866 100.158 9.8626 100.893 10.6667C101.629 11.4708 102.002 12.6751 102.002 14.2418V23.5627H104.643V14.0266C104.643 11.7351 104.042 9.95698 102.857 8.74137C101.672 7.53332 100.063 6.91797 98.0779 6.91797Z" fill="#9CA3AF"/>
<path d="M110.441 7.03857H107.8V23.5587H110.441V7.03857Z" fill="#9CA3AF"/>
<path fill-rule="evenodd" clip-rule="evenodd" d="M109.133 4.16191C109.636 4.16191 110.068 3.98071 110.412 3.61829C110.756 3.25965 110.934 2.8104 110.934 2.28565C110.934 1.79866 110.756 1.37584 110.408 1.02475C110.064 0.677433 109.633 0.5 109.133 0.5C108.629 0.5 108.198 0.681208 107.854 1.04362C107.51 1.40227 107.332 1.83263 107.332 2.31586C107.332 2.82173 107.506 3.25965 107.854 3.61829C108.198 3.98071 108.629 4.16191 109.133 4.16191Z" fill="#9CA3AF"/>
<path fill-rule="evenodd" clip-rule="evenodd" d="M56.8631 6.91797C55.5079 6.91797 54.2941 7.20111 53.2615 7.75228C52.5078 8.15622 51.8665 8.68475 51.3484 9.33408V7.03877H48.7939V23.5589H51.439V14.9062C51.439 13.1998 51.8955 11.8521 52.7941 10.897C53.6927 9.94565 54.9355 9.45866 56.4935 9.45866C57.874 9.45866 58.9465 9.8626 59.682 10.6667C60.4175 11.4708 60.7907 12.6751 60.7907 14.2418V23.5627H63.4321V14.0266C63.4321 11.7351 62.8306 9.95698 61.6458 8.74137C60.4537 7.53332 58.8486 6.91797 56.8631 6.91797Z" fill="#6B7280"/>
<path fill-rule="evenodd" clip-rule="evenodd" d="M67.9033 0.5C67.3997 0.5 66.9685 0.681208 66.6243 1.04362C66.2801 1.40227 66.1025 1.83263 66.1025 2.31586C66.1025 2.82173 66.2765 3.25965 66.6243 3.61829C66.9685 3.97693 67.3997 4.16191 67.9033 4.16191C68.407 4.16191 68.8381 3.98071 69.1824 3.61829C69.5266 3.25965 69.7041 2.8104 69.7041 2.28565C69.7041 1.79866 69.5266 1.37584 69.1787 1.02475C68.8345 0.677433 68.407 0.5 67.9033 0.5Z" fill="#6B7280"/>
<path d="M69.2114 7.03467H66.5664V23.5624H69.2114V7.03467Z" fill="#6B7280"/>
<path fill-rule="evenodd" clip-rule="evenodd" d="M84.2112 15.6952C84.2112 17.4204 83.7692 18.7833 82.896 19.7384C82.03 20.6897 80.8198 21.1729 79.3016 21.1729C77.9175 21.1729 76.845 20.7652 76.1131 19.9649C75.3776 19.1608 75.0044 17.9489 75.0044 16.3596V7.04248H72.3594V16.5748C72.3594 18.889 72.9717 20.6784 74.1783 21.8902C75.3812 23.102 77.0371 23.7136 79.0987 23.7136C80.3633 23.7136 81.5046 23.4305 82.4901 22.8755C83.1967 22.4754 83.8018 21.9582 84.2982 21.3239V23.5626H86.8526V7.04248H84.2112V15.6952Z" fill="#9CA3AF"/>
</g>
<defs>
<clipPath id="clip0_819_1200">
<rect width="110" height="27" fill="white" transform="translate(0.933594 0.5)"/>
</clipPath>
</defs>
</svg>
