<svg width="250" height="247" viewBox="0 0 250 247" fill="none" xmlns="http://www.w3.org/2000/svg">
<g clip-path="url(#clip0_240_950)" filter="url(#filter0_d_240_950)">
<g filter="url(#filter1_i_240_950)">
<path fill-rule="evenodd" clip-rule="evenodd" d="M64.82 14C55.6469 14 48.2106 21.4363 48.2106 30.6094V216.71C48.2106 225.884 55.6469 233.32 64.82 233.32H141.072C150.246 233.32 157.682 225.884 157.682 216.71V83.4575H158.059C158.476 83.4575 158.814 83.1197 158.814 82.7025V71.0005C158.814 70.5833 158.476 70.2455 158.059 70.2455H157.682V66.4706H158.059C158.476 66.4706 158.814 66.1328 158.814 65.7156V54.0136C158.814 53.5964 158.476 53.2586 158.059 53.2586H157.682V30.6094C157.682 21.4363 150.246 14 141.072 14H64.82Z" fill="white"/>
</g>
<g filter="url(#filter2_i_240_950)">
<path fill-rule="evenodd" clip-rule="evenodd" d="M82.9397 23.0597C83.9821 23.0597 84.8271 22.2146 84.8271 21.1722C84.8271 20.1298 83.9821 19.2848 82.9397 19.2848C81.8973 19.2848 81.0522 20.1298 81.0522 21.1722C81.0522 22.2146 81.8973 23.0597 82.9397 23.0597ZM88.602 19.2848C87.5597 19.2848 86.7145 20.1298 86.7145 21.1722C86.7145 22.2146 87.5597 23.0597 88.602 23.0597H122.576C123.618 23.0597 124.463 22.2146 124.463 21.1722C124.463 20.1298 123.618 19.2848 122.576 19.2848H88.602Z" fill="black" fill-opacity="0.02"/>
</g>
<g opacity="0.8">
<mask id="mask0_240_950" style="mask-type:alpha" maskUnits="userSpaceOnUse" x="54" y="21" width="98" height="208">
<g opacity="0.8">
<path opacity="0.8" d="M151.265 21.5498H54.6284V228.035H151.265V21.5498Z" fill="white"/>
<path opacity="0.8" fill-rule="evenodd" clip-rule="evenodd" d="M76.4669 21.9271H65.9526C59.9067 21.9271 55.0055 26.8283 55.0055 32.8742V216.71C55.0055 222.756 59.9067 227.657 65.9526 227.657H139.94C145.986 227.657 150.887 222.756 150.887 216.71V32.8742C150.887 26.8283 145.986 21.9271 139.94 21.9271H129.425C128.648 24.1264 126.551 25.702 124.086 25.702H81.807C79.3416 25.702 77.2442 24.1264 76.4669 21.9271Z" fill="black"/>
</g>
</mask>
<g mask="url(#mask0_240_950)">
<path opacity="0.8" d="M76.4673 21.9273L76.8233 21.8015L76.7343 21.5498H76.4673V21.9273ZM129.426 21.9273V21.5498H129.159L129.07 21.8015L129.426 21.9273ZM65.953 22.3048H76.4673V21.5498H65.953V22.3048ZM55.3834 32.8744C55.3834 27.0369 60.1156 22.3048 65.953 22.3048V21.5498C59.6986 21.5498 54.6284 26.62 54.6284 32.8744H55.3834ZM55.3834 216.71V32.8744H54.6284V216.71H55.3834ZM65.953 227.28C60.1156 227.28 55.3834 222.548 55.3834 216.71H54.6284C54.6284 222.965 59.6986 228.035 65.953 228.035V227.28ZM139.94 227.28H65.953V228.035H139.94V227.28ZM150.51 216.71C150.51 222.548 145.778 227.28 139.94 227.28V228.035C146.195 228.035 151.265 222.965 151.265 216.71H150.51ZM150.51 32.8744V216.71H151.265V32.8744H150.51ZM139.94 22.3048C145.778 22.3048 150.51 27.0369 150.51 32.8744H151.265C151.265 26.62 146.195 21.5498 139.94 21.5498V22.3048ZM129.426 22.3048H139.94V21.5498H129.426V22.3048ZM129.07 21.8015C128.344 23.8546 126.386 25.3247 124.086 25.3247V26.0796C126.716 26.0796 128.953 24.3984 129.782 22.0531L129.07 21.8015ZM124.086 25.3247H81.8074V26.0796H124.086V25.3247ZM81.8074 25.3247C79.507 25.3247 77.5489 23.8546 76.8233 21.8015L76.1114 22.0531C76.9404 24.3984 79.1771 26.0796 81.8074 26.0796V25.3247Z" fill="#C2C2C2"/>
<g opacity="0.2">
<path opacity="0.2" d="M55.0054 36.2719H48.2106V36.6493H55.0054V36.2719Z" fill="black"/>
<path opacity="0.2" d="M55.0056 215.955H48.2108V216.333H55.0056V215.955Z" fill="black"/>
<path opacity="0.2" d="M157.682 36.272H150.887V36.6495H157.682V36.272Z" fill="black"/>
<path opacity="0.2" d="M157.682 215.955H150.887V216.333H157.682V215.955Z" fill="black"/>
</g>
</g>
</g>
<mask id="mask1_240_950" style="mask-type:alpha" maskUnits="userSpaceOnUse" x="55" y="21" width="96" height="207">
<path fill-rule="evenodd" clip-rule="evenodd" d="M76.4671 21.9271H65.9528C59.9068 21.9271 55.0057 26.8283 55.0057 32.8742L55.0057 216.71C55.0057 222.756 59.9068 227.657 65.9528 227.657H139.94C145.986 227.657 150.887 222.756 150.887 216.71V32.8742C150.887 26.8283 145.986 21.9271 139.94 21.9271H129.426C128.648 24.1264 126.551 25.702 124.086 25.702L81.8072 25.702C79.3418 25.702 77.2444 24.1264 76.4671 21.9271Z" fill="#118BD6"/>
<path fill-rule="evenodd" clip-rule="evenodd" d="M76.4671 21.9271H65.9528C59.9068 21.9271 55.0057 26.8283 55.0057 32.8742L55.0057 216.71C55.0057 222.756 59.9068 227.657 65.9528 227.657H139.94C145.986 227.657 150.887 222.756 150.887 216.71V32.8742C150.887 26.8283 145.986 21.9271 139.94 21.9271H129.426C128.648 24.1264 126.551 25.702 124.086 25.702L81.8072 25.702C79.3418 25.702 77.2444 24.1264 76.4671 21.9271Z" fill="url(#paint0_linear_240_950)" fill-opacity="0.07"/>
</mask>
<g mask="url(#mask1_240_950)">
<rect x="55.0739" y="21.7207" width="95.6511" height="205.886" fill="#F3F4F6"/>
</g>
</g>
<path d="M89.1145 105V104.674H88.7888H49.5775H5.21203C2.51344 104.674 0.32581 102.487 0.32581 99.788V46.212C0.32581 43.5134 2.51345 41.3257 5.21204 41.3257H122.788C125.487 41.3257 127.674 43.5134 127.674 46.212V99.788C127.674 102.487 125.487 104.674 122.788 104.674H99.4622C99.0735 104.674 98.7044 104.845 98.4525 105.141L90.3023 114.719C89.8958 115.196 89.1145 114.909 89.1145 114.282V105Z" fill="white" stroke="#F3F4F6" stroke-width="0.651497"/>
<path d="M11.9701 66.41L14.2801 62.5L14.3201 62.52V62.5H15.2301V69.5H14.3201V64.14L12.0801 67.91H11.8501L9.61006 64.13V69.51H8.69006V62.51H9.61006V62.52L9.66006 62.5L11.9701 66.41ZM17.2625 64.5L19.0125 68.26L20.4025 64.5H21.3125L19.4125 69.68C19.1791 70.2867 18.8591 70.7533 18.4525 71.08C18.0458 71.4067 17.5691 71.5467 17.0225 71.5V70.67C17.2291 70.69 17.4125 70.6667 17.5725 70.6C17.7391 70.5333 17.8858 70.44 18.0125 70.32C18.1458 70.2 18.2591 70.06 18.3525 69.9C18.4458 69.7467 18.5258 69.5833 18.5925 69.41L16.3225 64.5H17.2625ZM27.2494 64.38C27.6227 64.38 27.9627 64.45 28.2694 64.59C28.576 64.73 28.8394 64.92 29.0594 65.16C29.2794 65.4 29.4494 65.68 29.5694 66C29.6894 66.32 29.7494 66.6567 29.7494 67.01C29.7494 67.0767 29.746 67.1333 29.7394 67.18C29.7394 67.2267 29.7327 67.28 29.7194 67.34H25.5094C25.536 67.5533 25.5994 67.7533 25.6994 67.94C25.7994 68.12 25.926 68.28 26.0794 68.42C26.2394 68.5533 26.426 68.66 26.6394 68.74C26.8527 68.82 27.086 68.86 27.3394 68.86C27.646 68.86 27.936 68.79 28.2094 68.65C28.4827 68.51 28.686 68.3367 28.8194 68.13L29.4994 68.53C29.2794 68.87 28.9827 69.1367 28.6094 69.33C28.236 69.5233 27.806 69.62 27.3194 69.62C26.9194 69.62 26.5527 69.5533 26.2194 69.42C25.8927 69.2867 25.6127 69.1033 25.3794 68.87C25.146 68.6367 24.9627 68.36 24.8294 68.04C24.7027 67.72 24.6394 67.3733 24.6394 67C24.6394 66.6267 24.7027 66.2833 24.8294 65.97C24.956 65.65 25.1327 65.3733 25.3594 65.14C25.5927 64.9 25.8694 64.7133 26.1894 64.58C26.5094 64.4467 26.8627 64.38 27.2494 64.38ZM28.9294 66.64C28.8694 66.1733 28.6927 65.8067 28.3994 65.54C28.106 65.2733 27.7194 65.14 27.2394 65.14C26.986 65.14 26.7527 65.1833 26.5394 65.27C26.326 65.35 26.1427 65.46 25.9894 65.6C25.836 65.74 25.716 65.9 25.6294 66.08C25.5427 66.26 25.4994 66.4467 25.4994 66.64H28.9294ZM30.8031 66.02C30.8031 65.52 30.8964 65.0533 31.0831 64.62C31.2764 64.18 31.5364 63.7967 31.8631 63.47C32.1898 63.1433 32.5698 62.8867 33.0031 62.7C33.4431 62.5067 33.9131 62.41 34.4131 62.41C34.7531 62.41 35.0764 62.4567 35.3831 62.55C35.6964 62.6367 35.9864 62.7633 36.2531 62.93C36.5264 63.09 36.7731 63.2833 36.9931 63.51C37.2198 63.7367 37.4098 63.9867 37.5631 64.26L36.7631 64.69C36.5298 64.2833 36.2064 63.9533 35.7931 63.7C35.3798 63.4467 34.9198 63.32 34.4131 63.32C34.0398 63.32 33.6898 63.39 33.3631 63.53C33.0364 63.67 32.7498 63.8633 32.5031 64.11C32.2564 64.3567 32.0631 64.6433 31.9231 64.97C31.7831 65.2967 31.7131 65.6467 31.7131 66.02C31.7131 66.3933 31.7831 66.7433 31.9231 67.07C32.0631 67.3967 32.2564 67.6833 32.5031 67.93C32.7498 68.17 33.0364 68.36 33.3631 68.5C33.6898 68.64 34.0398 68.71 34.4131 68.71C34.9198 68.71 35.3798 68.5833 35.7931 68.33C36.2064 68.0767 36.5298 67.74 36.7631 67.32L37.5731 67.76C37.4198 68.04 37.2298 68.2933 37.0031 68.52C36.7831 68.7467 36.5364 68.9433 36.2631 69.11C35.9964 69.2767 35.7064 69.4067 35.3931 69.5C35.0798 69.5867 34.7531 69.63 34.4131 69.63C33.9131 69.63 33.4431 69.5367 33.0031 69.35C32.5698 69.1567 32.1898 68.8967 31.8631 68.57C31.5364 68.2433 31.2764 67.8633 31.0831 67.43C30.8964 66.99 30.8031 66.52 30.8031 66.02ZM40.8629 69.62C40.5029 69.62 40.1629 69.5533 39.8429 69.42C39.5229 69.28 39.2429 69.0933 39.0029 68.86C38.7695 68.62 38.5829 68.34 38.4429 68.02C38.3095 67.7 38.2429 67.36 38.2429 67C38.2429 66.64 38.3095 66.3033 38.4429 65.99C38.5829 65.67 38.7695 65.3933 39.0029 65.16C39.2429 64.92 39.5229 64.7333 39.8429 64.6C40.1629 64.46 40.5029 64.39 40.8629 64.39C41.2229 64.39 41.5595 64.46 41.8729 64.6C42.1929 64.7333 42.4695 64.92 42.7029 65.16C42.9429 65.3933 43.1295 65.67 43.2629 65.99C43.4029 66.3033 43.4729 66.64 43.4729 67C43.4729 67.36 43.4029 67.7 43.2629 68.02C43.1295 68.34 42.9429 68.62 42.7029 68.86C42.4695 69.0933 42.1929 69.28 41.8729 69.42C41.5595 69.5533 41.2229 69.62 40.8629 69.62ZM40.8529 68.76C41.0929 68.76 41.3195 68.7133 41.5329 68.62C41.7462 68.5267 41.9329 68.4 42.0929 68.24C42.2529 68.08 42.3795 67.8933 42.4729 67.68C42.5662 67.4667 42.6129 67.24 42.6129 67C42.6129 66.76 42.5662 66.5333 42.4729 66.32C42.3795 66.1067 42.2529 65.92 42.0929 65.76C41.9329 65.6 41.7462 65.4767 41.5329 65.39C41.3195 65.2967 41.0929 65.25 40.8529 65.25C40.6129 65.25 40.3862 65.2967 40.1729 65.39C39.9595 65.4767 39.7729 65.6 39.6129 65.76C39.4529 65.92 39.3262 66.1067 39.2329 66.32C39.1395 66.5333 39.0929 66.76 39.0929 67C39.0929 67.24 39.1395 67.4667 39.2329 67.68C39.3262 67.8933 39.4529 68.08 39.6129 68.24C39.7729 68.4 39.9595 68.5267 40.1729 68.62C40.3862 68.7133 40.6129 68.76 40.8529 68.76ZM52.2264 69.5H51.3664V66.51C51.3664 66.2367 51.3231 66.0133 51.2364 65.84C51.1497 65.6667 51.0397 65.53 50.9064 65.43C50.7797 65.3233 50.6364 65.25 50.4764 65.21C50.3164 65.17 50.1664 65.15 50.0264 65.15C49.8864 65.15 49.7431 65.1733 49.5964 65.22C49.4497 65.2667 49.3131 65.35 49.1864 65.47C49.0664 65.59 48.9664 65.75 48.8864 65.95C48.8131 66.15 48.7764 66.4033 48.7764 66.71V69.5H47.9164V66.51C47.9164 66.2367 47.8731 66.0133 47.7864 65.84C47.6997 65.6667 47.5897 65.53 47.4564 65.43C47.3297 65.3233 47.1864 65.25 47.0264 65.21C46.8664 65.17 46.7164 65.15 46.5764 65.15C46.4364 65.15 46.2931 65.1733 46.1464 65.22C45.9997 65.2667 45.8631 65.35 45.7364 65.47C45.6164 65.59 45.5164 65.75 45.4364 65.95C45.3631 66.15 45.3264 66.4033 45.3264 66.71V69.5H44.4664V64.5H45.3264V65.06C45.4864 64.8667 45.6864 64.7067 45.9264 64.58C46.1731 64.4467 46.4497 64.38 46.7564 64.38C46.8897 64.38 47.0364 64.3967 47.1964 64.43C47.3631 64.4567 47.5297 64.51 47.6964 64.59C47.8631 64.6633 48.0197 64.7667 48.1664 64.9C48.3197 65.0267 48.4464 65.1933 48.5464 65.4C48.6131 65.2733 48.6997 65.15 48.8064 65.03C48.9131 64.9033 49.0364 64.7933 49.1764 64.7C49.3231 64.6067 49.4797 64.53 49.6464 64.47C49.8197 64.41 50.0064 64.38 50.2064 64.38C50.3864 64.38 50.5931 64.41 50.8264 64.47C51.0597 64.5233 51.2797 64.63 51.4864 64.79C51.6931 64.9433 51.8664 65.16 52.0064 65.44C52.1531 65.7133 52.2264 66.07 52.2264 66.51V69.5ZM61.0936 69.5H60.2336V66.51C60.2336 66.2367 60.1902 66.0133 60.1036 65.84C60.0169 65.6667 59.9069 65.53 59.7736 65.43C59.6469 65.3233 59.5036 65.25 59.3436 65.21C59.1836 65.17 59.0336 65.15 58.8936 65.15C58.7536 65.15 58.6102 65.1733 58.4636 65.22C58.3169 65.2667 58.1802 65.35 58.0536 65.47C57.9336 65.59 57.8336 65.75 57.7536 65.95C57.6802 66.15 57.6436 66.4033 57.6436 66.71V69.5H56.7836V66.51C56.7836 66.2367 56.7402 66.0133 56.6536 65.84C56.5669 65.6667 56.4569 65.53 56.3236 65.43C56.1969 65.3233 56.0536 65.25 55.8936 65.21C55.7336 65.17 55.5836 65.15 55.4436 65.15C55.3036 65.15 55.1602 65.1733 55.0136 65.22C54.8669 65.2667 54.7302 65.35 54.6036 65.47C54.4836 65.59 54.3836 65.75 54.3036 65.95C54.2302 66.15 54.1936 66.4033 54.1936 66.71V69.5H53.3336V64.5H54.1936V65.06C54.3536 64.8667 54.5536 64.7067 54.7936 64.58C55.0402 64.4467 55.3169 64.38 55.6236 64.38C55.7569 64.38 55.9036 64.3967 56.0636 64.43C56.2302 64.4567 56.3969 64.51 56.5636 64.59C56.7302 64.6633 56.8869 64.7667 57.0336 64.9C57.1869 65.0267 57.3136 65.1933 57.4136 65.4C57.4802 65.2733 57.5669 65.15 57.6736 65.03C57.7802 64.9033 57.9036 64.7933 58.0436 64.7C58.1902 64.6067 58.3469 64.53 58.5136 64.47C58.6869 64.41 58.8736 64.38 59.0736 64.38C59.2536 64.38 59.4602 64.41 59.6936 64.47C59.9269 64.5233 60.1469 64.63 60.3536 64.79C60.5602 64.9433 60.7336 65.16 60.8736 65.44C61.0202 65.7133 61.0936 66.07 61.0936 66.51V69.5ZM64.6517 64.38C65.025 64.38 65.365 64.45 65.6717 64.59C65.9784 64.73 66.2417 64.92 66.4617 65.16C66.6817 65.4 66.8517 65.68 66.9717 66C67.0917 66.32 67.1517 66.6567 67.1517 67.01C67.1517 67.0767 67.1484 67.1333 67.1417 67.18C67.1417 67.2267 67.135 67.28 67.1217 67.34H62.9117C62.9384 67.5533 63.0017 67.7533 63.1017 67.94C63.2017 68.12 63.3284 68.28 63.4817 68.42C63.6417 68.5533 63.8284 68.66 64.0417 68.74C64.255 68.82 64.4884 68.86 64.7417 68.86C65.0484 68.86 65.3384 68.79 65.6117 68.65C65.885 68.51 66.0884 68.3367 66.2217 68.13L66.9017 68.53C66.6817 68.87 66.385 69.1367 66.0117 69.33C65.6384 69.5233 65.2084 69.62 64.7217 69.62C64.3217 69.62 63.955 69.5533 63.6217 69.42C63.295 69.2867 63.015 69.1033 62.7817 68.87C62.5484 68.6367 62.365 68.36 62.2317 68.04C62.105 67.72 62.0417 67.3733 62.0417 67C62.0417 66.6267 62.105 66.2833 62.2317 65.97C62.3584 65.65 62.535 65.3733 62.7617 65.14C62.995 64.9 63.2717 64.7133 63.5917 64.58C63.9117 64.4467 64.265 64.38 64.6517 64.38ZM66.3317 66.64C66.2717 66.1733 66.095 65.8067 65.8017 65.54C65.5084 65.2733 65.1217 65.14 64.6417 65.14C64.3884 65.14 64.155 65.1833 63.9417 65.27C63.7284 65.35 63.545 65.46 63.3917 65.6C63.2384 65.74 63.1184 65.9 63.0317 66.08C62.945 66.26 62.9017 66.4467 62.9017 66.64H66.3317ZM70.6487 65.33C70.6154 65.3167 70.5821 65.31 70.5487 65.31C70.5221 65.31 70.4921 65.31 70.4587 65.31C70.2654 65.31 70.0754 65.3367 69.8887 65.39C69.7087 65.4433 69.5487 65.53 69.4087 65.65C69.2687 65.7633 69.1554 65.9133 69.0687 66.1C68.9887 66.28 68.9487 66.5 68.9487 66.76V69.5H68.0887V64.5H68.9487V65.42C69.0621 65.1733 69.2521 64.96 69.5187 64.78C69.7854 64.5933 70.1287 64.5 70.5487 64.5C70.5754 64.5 70.6021 64.5 70.6287 64.5C70.6554 64.5 70.6854 64.5033 70.7187 64.51L70.6487 65.33ZM75.8442 68.53C75.6042 68.8633 75.3009 69.13 74.9342 69.33C74.5675 69.5233 74.1642 69.62 73.7242 69.62C73.3642 69.62 73.0242 69.5533 72.7042 69.42C72.3842 69.28 72.1042 69.0933 71.8642 68.86C71.6309 68.62 71.4442 68.34 71.3042 68.02C71.1709 67.7 71.1042 67.36 71.1042 67C71.1042 66.64 71.1709 66.3033 71.3042 65.99C71.4442 65.67 71.6309 65.3933 71.8642 65.16C72.1042 64.92 72.3842 64.7333 72.7042 64.6C73.0242 64.46 73.3642 64.39 73.7242 64.39C74.1575 64.39 74.5575 64.49 74.9242 64.69C75.2909 64.8833 75.5942 65.14 75.8342 65.46L75.1242 65.94C74.9509 65.7267 74.7442 65.56 74.5042 65.44C74.2642 65.3133 74.0042 65.25 73.7242 65.25C73.4842 65.25 73.2575 65.2967 73.0442 65.39C72.8309 65.4767 72.6442 65.6 72.4842 65.76C72.3242 65.92 72.1975 66.1067 72.1042 66.32C72.0109 66.5333 71.9642 66.76 71.9642 67C71.9642 67.24 72.0109 67.4667 72.1042 67.68C72.1975 67.8933 72.3242 68.08 72.4842 68.24C72.6442 68.4 72.8309 68.5267 73.0442 68.62C73.2575 68.7133 73.4842 68.76 73.7242 68.76C74.0109 68.76 74.2709 68.6967 74.5042 68.57C74.7442 68.4433 74.9509 68.2733 75.1242 68.06L75.8442 68.53ZM79.1048 64.38C79.4782 64.38 79.8182 64.45 80.1248 64.59C80.4315 64.73 80.6948 64.92 80.9148 65.16C81.1348 65.4 81.3048 65.68 81.4248 66C81.5448 66.32 81.6048 66.6567 81.6048 67.01C81.6048 67.0767 81.6015 67.1333 81.5948 67.18C81.5948 67.2267 81.5882 67.28 81.5748 67.34H77.3648C77.3915 67.5533 77.4548 67.7533 77.5548 67.94C77.6548 68.12 77.7815 68.28 77.9348 68.42C78.0948 68.5533 78.2815 68.66 78.4948 68.74C78.7082 68.82 78.9415 68.86 79.1948 68.86C79.5015 68.86 79.7915 68.79 80.0648 68.65C80.3382 68.51 80.5415 68.3367 80.6748 68.13L81.3548 68.53C81.1348 68.87 80.8382 69.1367 80.4648 69.33C80.0915 69.5233 79.6615 69.62 79.1748 69.62C78.7748 69.62 78.4082 69.5533 78.0748 69.42C77.7482 69.2867 77.4682 69.1033 77.2348 68.87C77.0015 68.6367 76.8182 68.36 76.6848 68.04C76.5582 67.72 76.4948 67.3733 76.4948 67C76.4948 66.6267 76.5582 66.2833 76.6848 65.97C76.8115 65.65 76.9882 65.3733 77.2148 65.14C77.4482 64.9 77.7248 64.7133 78.0448 64.58C78.3648 64.4467 78.7182 64.38 79.1048 64.38ZM80.7848 66.64C80.7248 66.1733 80.5482 65.8067 80.2548 65.54C79.9615 65.2733 79.5748 65.14 79.0948 65.14C78.8415 65.14 78.6082 65.1833 78.3948 65.27C78.1815 65.35 77.9982 65.46 77.8448 65.6C77.6915 65.74 77.5715 65.9 77.4848 66.08C77.3982 66.26 77.3548 66.4467 77.3548 66.64H80.7848ZM87.7867 69.62C87.4267 69.62 87.0867 69.5533 86.7667 69.42C86.4467 69.28 86.1667 69.0933 85.9267 68.86C85.6934 68.62 85.5067 68.34 85.3667 68.02C85.2334 67.7 85.1667 67.36 85.1667 67C85.1667 66.64 85.2334 66.3033 85.3667 65.99C85.5067 65.67 85.6934 65.3933 85.9267 65.16C86.1667 64.92 86.4467 64.7333 86.7667 64.6C87.0867 64.46 87.4267 64.39 87.7867 64.39C88.1467 64.39 88.4834 64.46 88.7967 64.6C89.1167 64.7333 89.3934 64.92 89.6267 65.16C89.8667 65.3933 90.0534 65.67 90.1867 65.99C90.3267 66.3033 90.3967 66.64 90.3967 67C90.3967 67.36 90.3267 67.7 90.1867 68.02C90.0534 68.34 89.8667 68.62 89.6267 68.86C89.3934 69.0933 89.1167 69.28 88.7967 69.42C88.4834 69.5533 88.1467 69.62 87.7867 69.62ZM87.7767 68.76C88.0167 68.76 88.2434 68.7133 88.4567 68.62C88.67 68.5267 88.8567 68.4 89.0167 68.24C89.1767 68.08 89.3034 67.8933 89.3967 67.68C89.49 67.4667 89.5367 67.24 89.5367 67C89.5367 66.76 89.49 66.5333 89.3967 66.32C89.3034 66.1067 89.1767 65.92 89.0167 65.76C88.8567 65.6 88.67 65.4767 88.4567 65.39C88.2434 65.2967 88.0167 65.25 87.7767 65.25C87.5367 65.25 87.31 65.2967 87.0967 65.39C86.8834 65.4767 86.6967 65.6 86.5367 65.76C86.3767 65.92 86.25 66.1067 86.1567 66.32C86.0634 66.5333 86.0167 66.76 86.0167 67C86.0167 67.24 86.0634 67.4667 86.1567 67.68C86.25 67.8933 86.3767 68.08 86.5367 68.24C86.6967 68.4 86.8834 68.5267 87.0967 68.62C87.31 68.7133 87.5367 68.76 87.7767 68.76ZM93.9202 65.33C93.8869 65.3167 93.8536 65.31 93.8202 65.31C93.7936 65.31 93.7636 65.31 93.7302 65.31C93.5369 65.31 93.3469 65.3367 93.1602 65.39C92.9802 65.4433 92.8202 65.53 92.6802 65.65C92.5402 65.7633 92.4269 65.9133 92.3402 66.1C92.2602 66.28 92.2202 66.5 92.2202 66.76V69.5H91.3602V64.5H92.2202V65.42C92.3336 65.1733 92.5236 64.96 92.7902 64.78C93.0569 64.5933 93.4002 64.5 93.8202 64.5C93.8469 64.5 93.8736 64.5 93.9002 64.5C93.9269 64.5 93.9569 64.5033 93.9902 64.51L93.9202 65.33ZM99.4457 69.5H98.5757V68.66C98.389 68.9467 98.149 69.18 97.8557 69.36C97.5624 69.54 97.2157 69.63 96.8157 69.63C96.4424 69.63 96.1057 69.5633 95.8057 69.43C95.5057 69.29 95.249 69.1033 95.0357 68.87C94.8224 68.6367 94.659 68.36 94.5457 68.04C94.4324 67.72 94.3757 67.3767 94.3757 67.01C94.3757 66.6367 94.4324 66.2933 94.5457 65.98C94.659 65.66 94.8224 65.3833 95.0357 65.15C95.249 64.91 95.5057 64.7233 95.8057 64.59C96.1057 64.4567 96.4424 64.39 96.8157 64.39C97.2157 64.39 97.5624 64.48 97.8557 64.66C98.149 64.8333 98.389 65.0633 98.5757 65.35V62.5H99.4457V69.5ZM96.8357 68.81C97.089 68.81 97.319 68.7633 97.5257 68.67C97.739 68.5767 97.9224 68.45 98.0757 68.29C98.2357 68.13 98.359 67.94 98.4457 67.72C98.5324 67.5 98.5757 67.26 98.5757 67C98.5757 66.7467 98.5324 66.51 98.4457 66.29C98.359 66.07 98.2357 65.88 98.0757 65.72C97.9224 65.56 97.739 65.4367 97.5257 65.35C97.319 65.2567 97.089 65.21 96.8357 65.21C96.5957 65.21 96.3757 65.2567 96.1757 65.35C95.9757 65.4433 95.8024 65.5733 95.6557 65.74C95.5157 65.9 95.4057 66.09 95.3257 66.31C95.2524 66.53 95.2157 66.7633 95.2157 67.01C95.2157 67.2567 95.2524 67.49 95.3257 67.71C95.4057 67.93 95.5157 68.1233 95.6557 68.29C95.8024 68.45 95.9757 68.5767 96.1757 68.67C96.3757 68.7633 96.5957 68.81 96.8357 68.81ZM103.001 64.38C103.375 64.38 103.715 64.45 104.021 64.59C104.328 64.73 104.591 64.92 104.811 65.16C105.031 65.4 105.201 65.68 105.321 66C105.441 66.32 105.501 66.6567 105.501 67.01C105.501 67.0767 105.498 67.1333 105.491 67.18C105.491 67.2267 105.485 67.28 105.471 67.34H101.261C101.288 67.5533 101.351 67.7533 101.451 67.94C101.551 68.12 101.678 68.28 101.831 68.42C101.991 68.5533 102.178 68.66 102.391 68.74C102.605 68.82 102.838 68.86 103.091 68.86C103.398 68.86 103.688 68.79 103.961 68.65C104.235 68.51 104.438 68.3367 104.571 68.13L105.251 68.53C105.031 68.87 104.735 69.1367 104.361 69.33C103.988 69.5233 103.558 69.62 103.071 69.62C102.671 69.62 102.305 69.5533 101.971 69.42C101.645 69.2867 101.365 69.1033 101.131 68.87C100.898 68.6367 100.715 68.36 100.581 68.04C100.455 67.72 100.391 67.3733 100.391 67C100.391 66.6267 100.455 66.2833 100.581 65.97C100.708 65.65 100.885 65.3733 101.111 65.14C101.345 64.9 101.621 64.7133 101.941 64.58C102.261 64.4467 102.615 64.38 103.001 64.38ZM104.681 66.64C104.621 66.1733 104.445 65.8067 104.151 65.54C103.858 65.2733 103.471 65.14 102.991 65.14C102.738 65.14 102.505 65.1833 102.291 65.27C102.078 65.35 101.895 65.46 101.741 65.6C101.588 65.74 101.468 65.9 101.381 66.08C101.295 66.26 101.251 66.4467 101.251 66.64H104.681ZM108.998 65.33C108.965 65.3167 108.932 65.31 108.898 65.31C108.872 65.31 108.842 65.31 108.808 65.31C108.615 65.31 108.425 65.3367 108.238 65.39C108.058 65.4433 107.898 65.53 107.758 65.65C107.618 65.7633 107.505 65.9133 107.418 66.1C107.338 66.28 107.298 66.5 107.298 66.76V69.5H106.438V64.5H107.298V65.42C107.412 65.1733 107.602 64.96 107.868 64.78C108.135 64.5933 108.478 64.5 108.898 64.5C108.925 64.5 108.952 64.5 108.978 64.5C109.005 64.5 109.035 64.5033 109.068 64.51L108.998 65.33ZM113.161 63.17C113.028 63.17 112.908 63.12 112.801 63.02C112.701 62.92 112.651 62.8 112.651 62.66C112.651 62.52 112.701 62.4 112.801 62.3C112.908 62.1933 113.028 62.14 113.161 62.14C113.301 62.14 113.421 62.1933 113.521 62.3C113.621 62.4 113.671 62.52 113.671 62.66C113.671 62.8 113.621 62.92 113.521 63.02C113.421 63.12 113.301 63.17 113.161 63.17ZM112.721 64.5H113.591V69.5H112.721V64.5ZM115.679 65.87C115.679 66.0367 115.752 66.1667 115.899 66.26C116.052 66.3467 116.239 66.42 116.459 66.48C116.686 66.5333 116.929 66.59 117.189 66.65C117.456 66.71 117.699 66.7967 117.919 66.91C118.146 67.0167 118.332 67.1633 118.479 67.35C118.632 67.53 118.709 67.78 118.709 68.1C118.709 68.34 118.656 68.5533 118.549 68.74C118.449 68.9267 118.309 69.0867 118.129 69.22C117.949 69.3467 117.736 69.4433 117.489 69.51C117.249 69.5833 116.989 69.62 116.709 69.62C116.189 69.62 115.752 69.52 115.399 69.32C115.046 69.1133 114.792 68.8333 114.639 68.48L115.349 68.11C115.462 68.39 115.636 68.5933 115.869 68.72C116.109 68.84 116.389 68.9 116.709 68.9C116.856 68.9 116.999 68.8833 117.139 68.85C117.279 68.8167 117.402 68.7667 117.509 68.7C117.616 68.6333 117.702 68.55 117.769 68.45C117.836 68.35 117.869 68.2367 117.869 68.11C117.869 67.9233 117.792 67.78 117.639 67.68C117.492 67.58 117.306 67.4967 117.079 67.43C116.852 67.3633 116.606 67.3 116.339 67.24C116.072 67.18 115.826 67.1 115.599 67C115.372 66.9 115.182 66.7633 115.029 66.59C114.882 66.4167 114.809 66.1833 114.809 65.89C114.809 65.6633 114.856 65.46 114.949 65.28C115.049 65.0933 115.182 64.9333 115.349 64.8C115.522 64.6667 115.722 64.5633 115.949 64.49C116.182 64.4167 116.432 64.38 116.699 64.38C117.119 64.38 117.489 64.47 117.809 64.65C118.136 64.83 118.386 65.08 118.559 65.4L117.849 65.76C117.756 65.5467 117.612 65.3833 117.419 65.27C117.226 65.15 116.986 65.09 116.699 65.09C116.379 65.09 116.129 65.1633 115.949 65.31C115.769 65.45 115.679 65.6367 115.679 65.87ZM8.48006 74.5H9.34006V77.05C9.50673 76.87 9.71006 76.7167 9.95006 76.59C10.1967 76.4633 10.4701 76.4 10.7701 76.4C10.9501 76.4 11.1567 76.43 11.3901 76.49C11.6234 76.5433 11.8434 76.6467 12.0501 76.8C12.2567 76.9533 12.4301 77.17 12.5701 77.45C12.7167 77.7233 12.7901 78.0767 12.7901 78.51V81.5H11.9301V78.53C11.9301 78.2567 11.8867 78.0333 11.8001 77.86C11.7134 77.6867 11.6034 77.55 11.4701 77.45C11.3434 77.3433 11.2001 77.27 11.0401 77.23C10.8801 77.19 10.7301 77.17 10.5901 77.17C10.4701 77.17 10.3467 77.1867 10.2201 77.22C10.0934 77.2533 9.97339 77.31 9.86006 77.39C9.74673 77.4633 9.64339 77.5667 9.55006 77.7C9.45673 77.8267 9.38673 77.99 9.34006 78.19V81.5H8.48006V74.5ZM16.3512 81.62C15.9912 81.62 15.6512 81.5533 15.3312 81.42C15.0112 81.28 14.7312 81.0933 14.4912 80.86C14.2578 80.62 14.0712 80.34 13.9312 80.02C13.7978 79.7 13.7312 79.36 13.7312 79C13.7312 78.64 13.7978 78.3033 13.9312 77.99C14.0712 77.67 14.2578 77.3933 14.4912 77.16C14.7312 76.92 15.0112 76.7333 15.3312 76.6C15.6512 76.46 15.9912 76.39 16.3512 76.39C16.7112 76.39 17.0478 76.46 17.3612 76.6C17.6812 76.7333 17.9578 76.92 18.1912 77.16C18.4312 77.3933 18.6178 77.67 18.7512 77.99C18.8912 78.3033 18.9612 78.64 18.9612 79C18.9612 79.36 18.8912 79.7 18.7512 80.02C18.6178 80.34 18.4312 80.62 18.1912 80.86C17.9578 81.0933 17.6812 81.28 17.3612 81.42C17.0478 81.5533 16.7112 81.62 16.3512 81.62ZM16.3412 80.76C16.5812 80.76 16.8078 80.7133 17.0212 80.62C17.2345 80.5267 17.4212 80.4 17.5812 80.24C17.7412 80.08 17.8678 79.8933 17.9612 79.68C18.0545 79.4667 18.1012 79.24 18.1012 79C18.1012 78.76 18.0545 78.5333 17.9612 78.32C17.8678 78.1067 17.7412 77.92 17.5812 77.76C17.4212 77.6 17.2345 77.4767 17.0212 77.39C16.8078 77.2967 16.5812 77.25 16.3412 77.25C16.1012 77.25 15.8745 77.2967 15.6612 77.39C15.4478 77.4767 15.2612 77.6 15.1012 77.76C14.9412 77.92 14.8145 78.1067 14.7212 78.32C14.6278 78.5333 14.5812 78.76 14.5812 79C14.5812 79.24 14.6278 79.4667 14.7212 79.68C14.8145 79.8933 14.9412 80.08 15.1012 80.24C15.2612 80.4 15.4478 80.5267 15.6612 80.62C15.8745 80.7133 16.1012 80.76 16.3412 80.76ZM21.191 81.5C21.0977 81.5133 21.0043 81.5233 20.911 81.53C20.8177 81.5433 20.7277 81.55 20.641 81.55C20.5077 81.55 20.381 81.5333 20.261 81.5C20.1477 81.4733 20.0477 81.42 19.961 81.34C19.881 81.26 19.8143 81.1533 19.761 81.02C19.7143 80.88 19.691 80.7033 19.691 80.49V74.5H20.551V80.44C20.551 80.6067 20.6043 80.7 20.711 80.72C20.8177 80.74 20.9777 80.7367 21.191 80.71V81.5ZM26.8773 81.5H26.0073V80.66C25.8207 80.9467 25.5807 81.18 25.2873 81.36C24.994 81.54 24.6473 81.63 24.2473 81.63C23.874 81.63 23.5373 81.5633 23.2373 81.43C22.9373 81.29 22.6807 81.1033 22.4673 80.87C22.254 80.6367 22.0907 80.36 21.9773 80.04C21.864 79.72 21.8073 79.3767 21.8073 79.01C21.8073 78.6367 21.864 78.2933 21.9773 77.98C22.0907 77.66 22.254 77.3833 22.4673 77.15C22.6807 76.91 22.9373 76.7233 23.2373 76.59C23.5373 76.4567 23.874 76.39 24.2473 76.39C24.6473 76.39 24.994 76.48 25.2873 76.66C25.5807 76.8333 25.8207 77.0633 26.0073 77.35V74.5H26.8773V81.5ZM24.2673 80.81C24.5207 80.81 24.7507 80.7633 24.9573 80.67C25.1707 80.5767 25.354 80.45 25.5073 80.29C25.6673 80.13 25.7907 79.94 25.8773 79.72C25.964 79.5 26.0073 79.26 26.0073 79C26.0073 78.7467 25.964 78.51 25.8773 78.29C25.7907 78.07 25.6673 77.88 25.5073 77.72C25.354 77.56 25.1707 77.4367 24.9573 77.35C24.7507 77.2567 24.5207 77.21 24.2673 77.21C24.0273 77.21 23.8073 77.2567 23.6073 77.35C23.4073 77.4433 23.234 77.5733 23.0873 77.74C22.9473 77.9 22.8373 78.09 22.7573 78.31C22.684 78.53 22.6473 78.7633 22.6473 79.01C22.6473 79.2567 22.684 79.49 22.7573 79.71C22.8373 79.93 22.9473 80.1233 23.0873 80.29C23.234 80.45 23.4073 80.5767 23.6073 80.67C23.8073 80.7633 24.0273 80.81 24.2673 80.81ZM31.2664 75.17C31.1331 75.17 31.0131 75.12 30.9064 75.02C30.8064 74.92 30.7564 74.8 30.7564 74.66C30.7564 74.52 30.8064 74.4 30.9064 74.3C31.0131 74.1933 31.1331 74.14 31.2664 74.14C31.4064 74.14 31.5264 74.1933 31.6264 74.3C31.7264 74.4 31.7764 74.52 31.7764 74.66C31.7764 74.8 31.7264 74.92 31.6264 75.02C31.5264 75.12 31.4064 75.17 31.2664 75.17ZM30.8264 76.5H31.6964V81.5H30.8264V76.5ZM37.4497 81.5H36.5897V78.51C36.5897 78.2367 36.5463 78.0133 36.4597 77.84C36.373 77.6667 36.263 77.53 36.1297 77.43C36.003 77.3233 35.8597 77.25 35.6997 77.21C35.5397 77.17 35.3897 77.15 35.2497 77.15C35.1097 77.15 34.9597 77.1733 34.7997 77.22C34.6463 77.2667 34.5063 77.35 34.3797 77.47C34.253 77.59 34.1463 77.75 34.0597 77.95C33.9797 78.15 33.9397 78.4033 33.9397 78.71V81.5H33.0797V76.5H33.9397V77.09C34.1063 76.8967 34.3163 76.73 34.5697 76.59C34.823 76.45 35.1063 76.38 35.4197 76.38C35.5997 76.38 35.8063 76.41 36.0397 76.47C36.273 76.5233 36.493 76.63 36.6997 76.79C36.913 76.9433 37.0897 77.16 37.2297 77.44C37.3763 77.7133 37.4497 78.07 37.4497 78.51V81.5ZM40.9026 74.5H41.8726L43.9526 80.25L46.0326 74.5H46.9926L44.4626 81.5H43.4426L40.9026 74.5ZM51.2615 80.66C51.0681 80.9467 50.8248 81.18 50.5315 81.36C50.2381 81.54 49.8915 81.63 49.4915 81.63C49.1181 81.63 48.7815 81.5633 48.4815 81.43C48.1815 81.29 47.9248 81.1033 47.7115 80.87C47.4981 80.6367 47.3348 80.36 47.2215 80.04C47.1081 79.72 47.0515 79.3767 47.0515 79.01C47.0515 78.6367 47.1081 78.2933 47.2215 77.98C47.3348 77.66 47.4981 77.3833 47.7115 77.15C47.9248 76.91 48.1815 76.7233 48.4815 76.59C48.7815 76.4567 49.1181 76.39 49.4915 76.39C49.8915 76.39 50.2381 76.48 50.5315 76.66C50.8248 76.84 51.0681 77.0733 51.2615 77.36V76.5H52.1215V81.5H51.2615V80.66ZM49.5115 80.81C49.7648 80.81 49.9948 80.7633 50.2015 80.67C50.4148 80.5767 50.5981 80.45 50.7515 80.29C50.9115 80.13 51.0348 79.94 51.1215 79.72C51.2081 79.5 51.2515 79.26 51.2515 79C51.2515 78.7467 51.2081 78.51 51.1215 78.29C51.0348 78.07 50.9115 77.88 50.7515 77.72C50.5981 77.56 50.4148 77.4367 50.2015 77.35C49.9948 77.2567 49.7648 77.21 49.5115 77.21C49.2715 77.21 49.0515 77.2567 48.8515 77.35C48.6515 77.4433 48.4781 77.5733 48.3315 77.74C48.1915 77.9 48.0815 78.09 48.0015 78.31C47.9281 78.53 47.8915 78.7633 47.8915 79.01C47.8915 79.2567 47.9281 79.49 48.0015 79.71C48.0815 79.93 48.1915 80.1233 48.3315 80.29C48.4781 80.45 48.6515 80.5767 48.8515 80.67C49.0515 80.7633 49.2715 80.81 49.5115 80.81ZM57.7426 81.5H56.8826V78.51C56.8826 78.2367 56.8393 78.0133 56.7526 77.84C56.666 77.6667 56.556 77.53 56.4226 77.43C56.296 77.3233 56.1526 77.25 55.9926 77.21C55.8326 77.17 55.6826 77.15 55.5426 77.15C55.4026 77.15 55.2526 77.1733 55.0926 77.22C54.9393 77.2667 54.7993 77.35 54.6726 77.47C54.546 77.59 54.4393 77.75 54.3526 77.95C54.2726 78.15 54.2326 78.4033 54.2326 78.71V81.5H53.3726V76.5H54.2326V77.09C54.3993 76.8967 54.6093 76.73 54.8626 76.59C55.116 76.45 55.3993 76.38 55.7126 76.38C55.8926 76.38 56.0993 76.41 56.3326 76.47C56.566 76.5233 56.786 76.63 56.9926 76.79C57.206 76.9433 57.3826 77.16 57.5226 77.44C57.6693 77.7133 57.7426 78.07 57.7426 78.51V81.5ZM63.4321 80.53C63.1921 80.8633 62.8888 81.13 62.5221 81.33C62.1554 81.5233 61.7521 81.62 61.3121 81.62C60.9521 81.62 60.6121 81.5533 60.2921 81.42C59.9721 81.28 59.6921 81.0933 59.4521 80.86C59.2188 80.62 59.0321 80.34 58.8921 80.02C58.7588 79.7 58.6921 79.36 58.6921 79C58.6921 78.64 58.7588 78.3033 58.8921 77.99C59.0321 77.67 59.2188 77.3933 59.4521 77.16C59.6921 76.92 59.9721 76.7333 60.2921 76.6C60.6121 76.46 60.9521 76.39 61.3121 76.39C61.7454 76.39 62.1454 76.49 62.5121 76.69C62.8788 76.8833 63.1821 77.14 63.4221 77.46L62.7121 77.94C62.5388 77.7267 62.3321 77.56 62.0921 77.44C61.8521 77.3133 61.5921 77.25 61.3121 77.25C61.0721 77.25 60.8454 77.2967 60.6321 77.39C60.4188 77.4767 60.2321 77.6 60.0721 77.76C59.9121 77.92 59.7854 78.1067 59.6921 78.32C59.5988 78.5333 59.5521 78.76 59.5521 79C59.5521 79.24 59.5988 79.4667 59.6921 79.68C59.7854 79.8933 59.9121 80.08 60.0721 80.24C60.2321 80.4 60.4188 80.5267 60.6321 80.62C60.8454 80.7133 61.0721 80.76 61.3121 80.76C61.5988 80.76 61.8588 80.6967 62.0921 80.57C62.3321 80.4433 62.5388 80.2733 62.7121 80.06L63.4321 80.53ZM66.7027 81.62C66.3427 81.62 66.0027 81.5533 65.6827 81.42C65.3627 81.28 65.0827 81.0933 64.8427 80.86C64.6094 80.62 64.4227 80.34 64.2827 80.02C64.1494 79.7 64.0827 79.36 64.0827 79C64.0827 78.64 64.1494 78.3033 64.2827 77.99C64.4227 77.67 64.6094 77.3933 64.8427 77.16C65.0827 76.92 65.3627 76.7333 65.6827 76.6C66.0027 76.46 66.3427 76.39 66.7027 76.39C67.0627 76.39 67.3994 76.46 67.7127 76.6C68.0327 76.7333 68.3094 76.92 68.5427 77.16C68.7827 77.3933 68.9694 77.67 69.1027 77.99C69.2427 78.3033 69.3127 78.64 69.3127 79C69.3127 79.36 69.2427 79.7 69.1027 80.02C68.9694 80.34 68.7827 80.62 68.5427 80.86C68.3094 81.0933 68.0327 81.28 67.7127 81.42C67.3994 81.5533 67.0627 81.62 66.7027 81.62ZM66.6927 80.76C66.9327 80.76 67.1594 80.7133 67.3727 80.62C67.5861 80.5267 67.7727 80.4 67.9327 80.24C68.0927 80.08 68.2194 79.8933 68.3127 79.68C68.4061 79.4667 68.4527 79.24 68.4527 79C68.4527 78.76 68.4061 78.5333 68.3127 78.32C68.2194 78.1067 68.0927 77.92 67.9327 77.76C67.7727 77.6 67.5861 77.4767 67.3727 77.39C67.1594 77.2967 66.9327 77.25 66.6927 77.25C66.4527 77.25 66.2261 77.2967 66.0127 77.39C65.7994 77.4767 65.6127 77.6 65.4527 77.76C65.2927 77.92 65.1661 78.1067 65.0727 78.32C64.9794 78.5333 64.9327 78.76 64.9327 79C64.9327 79.24 64.9794 79.4667 65.0727 79.68C65.1661 79.8933 65.2927 80.08 65.4527 80.24C65.6127 80.4 65.7994 80.5267 66.0127 80.62C66.2261 80.7133 66.4527 80.76 66.6927 80.76ZM70.4048 76.5H71.2648V79.49C71.2648 79.7567 71.3082 79.98 71.3948 80.16C71.4815 80.3333 71.5882 80.4733 71.7148 80.58C71.8482 80.68 71.9948 80.75 72.1548 80.79C72.3148 80.83 72.4648 80.85 72.6048 80.85C72.7448 80.85 72.8915 80.8267 73.0448 80.78C73.1982 80.7333 73.3382 80.65 73.4648 80.53C73.5915 80.41 73.6948 80.25 73.7748 80.05C73.8615 79.85 73.9048 79.5967 73.9048 79.29V76.5H74.7748V81.5H73.9048V80.91C73.7448 81.1033 73.5382 81.27 73.2848 81.41C73.0315 81.55 72.7448 81.62 72.4248 81.62C72.2448 81.62 72.0382 81.59 71.8048 81.53C71.5715 81.4767 71.3515 81.3733 71.1448 81.22C70.9382 81.06 70.7615 80.8433 70.6148 80.57C70.4748 80.29 70.4048 79.93 70.4048 79.49V76.5ZM75.424 76.5H76.344L77.924 80.51L79.504 76.5H80.424L78.464 81.5H77.394L75.424 76.5ZM83.3724 76.38C83.7457 76.38 84.0857 76.45 84.3924 76.59C84.6991 76.73 84.9624 76.92 85.1824 77.16C85.4024 77.4 85.5724 77.68 85.6924 78C85.8124 78.32 85.8724 78.6567 85.8724 79.01C85.8724 79.0767 85.8691 79.1333 85.8624 79.18C85.8624 79.2267 85.8557 79.28 85.8424 79.34H81.6324C81.6591 79.5533 81.7224 79.7533 81.8224 79.94C81.9224 80.12 82.0491 80.28 82.2024 80.42C82.3624 80.5533 82.5491 80.66 82.7624 80.74C82.9757 80.82 83.2091 80.86 83.4624 80.86C83.7691 80.86 84.0591 80.79 84.3324 80.65C84.6057 80.51 84.8091 80.3367 84.9424 80.13L85.6224 80.53C85.4024 80.87 85.1057 81.1367 84.7324 81.33C84.3591 81.5233 83.9291 81.62 83.4424 81.62C83.0424 81.62 82.6757 81.5533 82.3424 81.42C82.0157 81.2867 81.7357 81.1033 81.5024 80.87C81.2691 80.6367 81.0857 80.36 80.9524 80.04C80.8257 79.72 80.7624 79.3733 80.7624 79C80.7624 78.6267 80.8257 78.2833 80.9524 77.97C81.0791 77.65 81.2557 77.3733 81.4824 77.14C81.7157 76.9 81.9924 76.7133 82.3124 76.58C82.6324 76.4467 82.9857 76.38 83.3724 76.38ZM85.0524 78.64C84.9924 78.1733 84.8157 77.8067 84.5224 77.54C84.2291 77.2733 83.8424 77.14 83.3624 77.14C83.1091 77.14 82.8757 77.1833 82.6624 77.27C82.4491 77.35 82.2657 77.46 82.1124 77.6C81.9591 77.74 81.8391 77.9 81.7524 78.08C81.6657 78.26 81.6224 78.4467 81.6224 78.64H85.0524ZM89.3694 77.33C89.3361 77.3167 89.3028 77.31 89.2694 77.31C89.2428 77.31 89.2128 77.31 89.1794 77.31C88.9861 77.31 88.7961 77.3367 88.6094 77.39C88.4294 77.4433 88.2694 77.53 88.1294 77.65C87.9894 77.7633 87.8761 77.9133 87.7894 78.1C87.7094 78.28 87.6694 78.5 87.6694 78.76V81.5H86.8094V76.5H87.6694V77.42C87.7828 77.1733 87.9728 76.96 88.2394 76.78C88.5061 76.5933 88.8494 76.5 89.2694 76.5C89.2961 76.5 89.3228 76.5 89.3494 76.5C89.3761 76.5 89.4061 76.5033 89.4394 76.51L89.3694 77.33ZM89.6078 81.11C89.6078 80.95 89.6511 80.8267 89.7378 80.74C89.8311 80.6467 89.9545 80.6 90.1078 80.6C90.2678 80.6 90.3911 80.6467 90.4778 80.74C90.5645 80.8267 90.6078 80.95 90.6078 81.11C90.6078 81.2633 90.5645 81.3867 90.4778 81.48C90.3911 81.5667 90.2678 81.61 90.1078 81.61C89.9545 81.61 89.8311 81.5667 89.7378 81.48C89.6511 81.3867 89.6078 81.2633 89.6078 81.11ZM8.43006 90.02C8.43006 89.52 8.52339 89.0533 8.71006 88.62C8.90339 88.18 9.16339 87.7967 9.49006 87.47C9.81673 87.1433 10.1967 86.8867 10.6301 86.7C11.0701 86.5067 11.5401 86.41 12.0401 86.41C12.3801 86.41 12.7034 86.4567 13.0101 86.55C13.3234 86.6367 13.6134 86.7633 13.8801 86.93C14.1534 87.09 14.4001 87.2833 14.6201 87.51C14.8467 87.7367 15.0367 87.9867 15.1901 88.26L14.3901 88.69C14.1567 88.2833 13.8334 87.9533 13.4201 87.7C13.0067 87.4467 12.5467 87.32 12.0401 87.32C11.6667 87.32 11.3167 87.39 10.9901 87.53C10.6634 87.67 10.3767 87.8633 10.1301 88.11C9.88339 88.3567 9.69006 88.6433 9.55006 88.97C9.41006 89.2967 9.34006 89.6467 9.34006 90.02C9.34006 90.3933 9.41006 90.7433 9.55006 91.07C9.69006 91.3967 9.88339 91.6833 10.1301 91.93C10.3767 92.17 10.6634 92.36 10.9901 92.5C11.3167 92.64 11.6667 92.71 12.0401 92.71C12.5467 92.71 13.0067 92.5833 13.4201 92.33C13.8334 92.0767 14.1567 91.74 14.3901 91.32L15.2001 91.76C15.0467 92.04 14.8567 92.2933 14.6301 92.52C14.4101 92.7467 14.1634 92.9433 13.8901 93.11C13.6234 93.2767 13.3334 93.4067 13.0201 93.5C12.7067 93.5867 12.3801 93.63 12.0401 93.63C11.5401 93.63 11.0701 93.5367 10.6301 93.35C10.1967 93.1567 9.81673 92.8967 9.49006 92.57C9.16339 92.2433 8.90339 91.8633 8.71006 91.43C8.52339 90.99 8.43006 90.52 8.43006 90.02ZM20.0798 92.66C19.8865 92.9467 19.6432 93.18 19.3498 93.36C19.0565 93.54 18.7098 93.63 18.3098 93.63C17.9365 93.63 17.5998 93.5633 17.2998 93.43C16.9998 93.29 16.7432 93.1033 16.5298 92.87C16.3165 92.6367 16.1532 92.36 16.0398 92.04C15.9265 91.72 15.8698 91.3767 15.8698 91.01C15.8698 90.6367 15.9265 90.2933 16.0398 89.98C16.1532 89.66 16.3165 89.3833 16.5298 89.15C16.7432 88.91 16.9998 88.7233 17.2998 88.59C17.5998 88.4567 17.9365 88.39 18.3098 88.39C18.7098 88.39 19.0565 88.48 19.3498 88.66C19.6432 88.84 19.8865 89.0733 20.0798 89.36V88.5H20.9398V93.5H20.0798V92.66ZM18.3298 92.81C18.5832 92.81 18.8132 92.7633 19.0198 92.67C19.2332 92.5767 19.4165 92.45 19.5698 92.29C19.7298 92.13 19.8532 91.94 19.9398 91.72C20.0265 91.5 20.0698 91.26 20.0698 91C20.0698 90.7467 20.0265 90.51 19.9398 90.29C19.8532 90.07 19.7298 89.88 19.5698 89.72C19.4165 89.56 19.2332 89.4367 19.0198 89.35C18.8132 89.2567 18.5832 89.21 18.3298 89.21C18.0898 89.21 17.8698 89.2567 17.6698 89.35C17.4698 89.4433 17.2965 89.5733 17.1498 89.74C17.0098 89.9 16.8998 90.09 16.8198 90.31C16.7465 90.53 16.7098 90.7633 16.7098 91.01C16.7098 91.2567 16.7465 91.49 16.8198 91.71C16.8998 91.93 17.0098 92.1233 17.1498 92.29C17.2965 92.45 17.4698 92.5767 17.6698 92.67C17.8698 92.7633 18.0898 92.81 18.3298 92.81ZM26.561 93.5H25.701V90.51C25.701 90.2367 25.6577 90.0133 25.571 89.84C25.4843 89.6667 25.3743 89.53 25.241 89.43C25.1143 89.3233 24.971 89.25 24.811 89.21C24.651 89.17 24.501 89.15 24.361 89.15C24.221 89.15 24.071 89.1733 23.911 89.22C23.7577 89.2667 23.6177 89.35 23.491 89.47C23.3643 89.59 23.2577 89.75 23.171 89.95C23.091 90.15 23.051 90.4033 23.051 90.71V93.5H22.191V88.5H23.051V89.09C23.2177 88.8967 23.4277 88.73 23.681 88.59C23.9343 88.45 24.2177 88.38 24.531 88.38C24.711 88.38 24.9177 88.41 25.151 88.47C25.3843 88.5233 25.6043 88.63 25.811 88.79C26.0243 88.9433 26.201 89.16 26.341 89.44C26.4877 89.7133 26.561 90.07 26.561 90.51V93.5ZM30.9539 88.5L32.7039 92.26L34.0939 88.5H35.0039L33.1039 93.68C32.8706 94.2867 32.5506 94.7533 32.1439 95.08C31.7372 95.4067 31.2606 95.5467 30.7139 95.5V94.67C30.9206 94.69 31.1039 94.6667 31.2639 94.6C31.4306 94.5333 31.5772 94.44 31.7039 94.32C31.8372 94.2 31.9506 94.06 32.0439 93.9C32.1372 93.7467 32.2172 93.5833 32.2839 93.41L30.0139 88.5H30.9539ZM37.9332 93.62C37.5732 93.62 37.2332 93.5533 36.9132 93.42C36.5932 93.28 36.3132 93.0933 36.0732 92.86C35.8399 92.62 35.6532 92.34 35.5132 92.02C35.3799 91.7 35.3132 91.36 35.3132 91C35.3132 90.64 35.3799 90.3033 35.5132 89.99C35.6532 89.67 35.8399 89.3933 36.0732 89.16C36.3132 88.92 36.5932 88.7333 36.9132 88.6C37.2332 88.46 37.5732 88.39 37.9332 88.39C38.2932 88.39 38.6299 88.46 38.9432 88.6C39.2632 88.7333 39.5399 88.92 39.7732 89.16C40.0132 89.3933 40.1999 89.67 40.3332 89.99C40.4732 90.3033 40.5432 90.64 40.5432 91C40.5432 91.36 40.4732 91.7 40.3332 92.02C40.1999 92.34 40.0132 92.62 39.7732 92.86C39.5399 93.0933 39.2632 93.28 38.9432 93.42C38.6299 93.5533 38.2932 93.62 37.9332 93.62ZM37.9232 92.76C38.1632 92.76 38.3899 92.7133 38.6032 92.62C38.8165 92.5267 39.0032 92.4 39.1632 92.24C39.3232 92.08 39.4499 91.8933 39.5432 91.68C39.6365 91.4667 39.6832 91.24 39.6832 91C39.6832 90.76 39.6365 90.5333 39.5432 90.32C39.4499 90.1067 39.3232 89.92 39.1632 89.76C39.0032 89.6 38.8165 89.4767 38.6032 89.39C38.3899 89.2967 38.1632 89.25 37.9232 89.25C37.6832 89.25 37.4565 89.2967 37.2432 89.39C37.0299 89.4767 36.8432 89.6 36.6832 89.76C36.5232 89.92 36.3965 90.1067 36.3032 90.32C36.2099 90.5333 36.1632 90.76 36.1632 91C36.1632 91.24 36.2099 91.4667 36.3032 91.68C36.3965 91.8933 36.5232 92.08 36.6832 92.24C36.8432 92.4 37.0299 92.5267 37.2432 92.62C37.4565 92.7133 37.6832 92.76 37.9232 92.76ZM41.6353 88.5H42.4953V91.49C42.4953 91.7567 42.5386 91.98 42.6253 92.16C42.712 92.3333 42.8186 92.4733 42.9453 92.58C43.0786 92.68 43.2253 92.75 43.3853 92.79C43.5453 92.83 43.6953 92.85 43.8353 92.85C43.9753 92.85 44.122 92.8267 44.2753 92.78C44.4286 92.7333 44.5686 92.65 44.6953 92.53C44.822 92.41 44.9253 92.25 45.0053 92.05C45.092 91.85 45.1353 91.5967 45.1353 91.29V88.5H46.0053V93.5H45.1353V92.91C44.9753 93.1033 44.7686 93.27 44.5153 93.41C44.262 93.55 43.9753 93.62 43.6553 93.62C43.4753 93.62 43.2686 93.59 43.0353 93.53C42.802 93.4767 42.582 93.3733 42.3753 93.22C42.1686 93.06 41.992 92.8433 41.8453 92.57C41.7053 92.29 41.6353 91.93 41.6353 91.49V88.5ZM49.818 86.5H50.678V89.05C50.8446 88.87 51.048 88.7167 51.288 88.59C51.5346 88.4633 51.808 88.4 52.108 88.4C52.288 88.4 52.4946 88.43 52.728 88.49C52.9613 88.5433 53.1813 88.6467 53.388 88.8C53.5946 88.9533 53.768 89.17 53.908 89.45C54.0546 89.7233 54.128 90.0767 54.128 90.51V93.5H53.268V90.53C53.268 90.2567 53.2246 90.0333 53.138 89.86C53.0513 89.6867 52.9413 89.55 52.808 89.45C52.6813 89.3433 52.538 89.27 52.378 89.23C52.218 89.19 52.068 89.17 51.928 89.17C51.808 89.17 51.6846 89.1867 51.558 89.22C51.4313 89.2533 51.3113 89.31 51.198 89.39C51.0846 89.4633 50.9813 89.5667 50.888 89.7C50.7946 89.8267 50.7246 89.99 50.678 90.19V93.5H49.818V86.5ZM57.679 88.38C58.0524 88.38 58.3924 88.45 58.699 88.59C59.0057 88.73 59.269 88.92 59.489 89.16C59.709 89.4 59.879 89.68 59.999 90C60.119 90.32 60.179 90.6567 60.179 91.01C60.179 91.0767 60.1757 91.1333 60.169 91.18C60.169 91.2267 60.1624 91.28 60.149 91.34H55.939C55.9657 91.5533 56.029 91.7533 56.129 91.94C56.229 92.12 56.3557 92.28 56.509 92.42C56.669 92.5533 56.8557 92.66 57.069 92.74C57.2824 92.82 57.5157 92.86 57.769 92.86C58.0757 92.86 58.3657 92.79 58.639 92.65C58.9124 92.51 59.1157 92.3367 59.249 92.13L59.929 92.53C59.709 92.87 59.4124 93.1367 59.039 93.33C58.6657 93.5233 58.2357 93.62 57.749 93.62C57.349 93.62 56.9824 93.5533 56.649 93.42C56.3224 93.2867 56.0424 93.1033 55.809 92.87C55.5757 92.6367 55.3924 92.36 55.259 92.04C55.1324 91.72 55.069 91.3733 55.069 91C55.069 90.6267 55.1324 90.2833 55.259 89.97C55.3857 89.65 55.5624 89.3733 55.789 89.14C56.0224 88.9 56.299 88.7133 56.619 88.58C56.939 88.4467 57.2924 88.38 57.679 88.38ZM59.359 90.64C59.299 90.1733 59.1224 89.8067 58.829 89.54C58.5357 89.2733 58.149 89.14 57.669 89.14C57.4157 89.14 57.1824 89.1833 56.969 89.27C56.7557 89.35 56.5724 89.46 56.419 89.6C56.2657 89.74 56.1457 89.9 56.059 90.08C55.9724 90.26 55.929 90.4467 55.929 90.64H59.359ZM62.3824 93.5C62.2891 93.5133 62.1957 93.5233 62.1024 93.53C62.0091 93.5433 61.9191 93.55 61.8324 93.55C61.6991 93.55 61.5724 93.5333 61.4524 93.5C61.3391 93.4733 61.2391 93.42 61.1524 93.34C61.0724 93.26 61.0057 93.1533 60.9524 93.02C60.9057 92.88 60.8824 92.7033 60.8824 92.49V86.5H61.7424V92.44C61.7424 92.6067 61.7957 92.7 61.9024 92.72C62.0091 92.74 62.1691 92.7367 62.3824 92.71V93.5ZM63.4215 88.5H64.2815V89.35C64.4748 89.0633 64.7181 88.83 65.0115 88.65C65.3048 88.47 65.6515 88.38 66.0515 88.38C66.4248 88.38 66.7615 88.45 67.0615 88.59C67.3615 88.7233 67.6148 88.9067 67.8215 89.14C68.0348 89.3733 68.1981 89.65 68.3115 89.97C68.4315 90.29 68.4915 90.6333 68.4915 91C68.4915 91.3667 68.4315 91.71 68.3115 92.03C68.1981 92.35 68.0348 92.63 67.8215 92.87C67.6148 93.1033 67.3615 93.2867 67.0615 93.42C66.7615 93.5533 66.4248 93.62 66.0515 93.62C65.6515 93.62 65.3048 93.5333 65.0115 93.36C64.7181 93.18 64.4748 92.9467 64.2815 92.66V95.5H63.4215V88.5ZM66.0315 89.19C65.7848 89.19 65.5515 89.2367 65.3315 89.33C65.1181 89.4233 64.9348 89.5533 64.7815 89.72C64.6281 89.88 64.5048 90.07 64.4115 90.29C64.3248 90.51 64.2815 90.75 64.2815 91.01C64.2815 91.2633 64.3248 91.5 64.4115 91.72C64.5048 91.94 64.6281 92.13 64.7815 92.29C64.9348 92.45 65.1181 92.5767 65.3315 92.67C65.5515 92.7567 65.7848 92.8 66.0315 92.8C66.2715 92.8 66.4915 92.7533 66.6915 92.66C66.8915 92.5667 67.0615 92.44 67.2015 92.28C67.3415 92.1133 67.4481 91.92 67.5215 91.7C67.6015 91.48 67.6415 91.2467 67.6415 91C67.6415 90.7533 67.6015 90.52 67.5215 90.3C67.4481 90.08 67.3415 89.89 67.2015 89.73C67.0615 89.5633 66.8915 89.4333 66.6915 89.34C66.4915 89.24 66.2715 89.19 66.0315 89.19ZM70.5615 91.59V90.43C70.5615 90.2167 70.5982 90.0333 70.6715 89.88C70.7515 89.7267 70.8482 89.5933 70.9615 89.48C71.0749 89.36 71.1982 89.25 71.3315 89.15C71.4715 89.05 71.5982 88.95 71.7115 88.85C71.8249 88.7433 71.9182 88.63 71.9915 88.51C72.0715 88.39 72.1115 88.2467 72.1115 88.08C72.1115 87.8467 72.0182 87.65 71.8315 87.49C71.6515 87.3233 71.3815 87.24 71.0215 87.24C70.6815 87.24 70.3882 87.3067 70.1415 87.44C69.9015 87.5667 69.6882 87.7567 69.5015 88.01L68.9315 87.39C69.1982 87.05 69.5149 86.7967 69.8815 86.63C70.2549 86.4633 70.6615 86.38 71.1015 86.38C71.4082 86.38 71.6815 86.42 71.9215 86.5C72.1682 86.5733 72.3782 86.68 72.5515 86.82C72.7249 86.96 72.8582 87.1267 72.9515 87.32C73.0449 87.5067 73.0915 87.7133 73.0915 87.94C73.0915 88.1867 73.0482 88.4 72.9615 88.58C72.8815 88.7533 72.7782 88.91 72.6515 89.05C72.5249 89.1833 72.3882 89.3067 72.2415 89.42C72.1015 89.5333 71.9682 89.6433 71.8415 89.75C71.7149 89.8567 71.6082 89.97 71.5215 90.09C71.4415 90.21 71.4015 90.35 71.4015 90.51V91.59H70.5615ZM70.4915 93.09C70.4915 92.9233 70.5349 92.7967 70.6215 92.71C70.7149 92.6233 70.8382 92.58 70.9915 92.58C71.3182 92.58 71.4815 92.75 71.4815 93.09C71.4815 93.4233 71.3182 93.59 70.9915 93.59C70.6582 93.59 70.4915 93.4233 70.4915 93.09Z" fill="#111827"/>
<path d="M9.55406 52.952L8.03006 50.3H8.78606L9.88406 52.196L10.9821 50.3H11.7381L10.2201 52.952V54.5H9.55406V52.952ZM12.9693 54.578C12.7533 54.578 12.5493 54.538 12.3573 54.458C12.1653 54.374 11.9973 54.26 11.8533 54.116C11.7133 53.972 11.6013 53.804 11.5173 53.612C11.4373 53.42 11.3973 53.216 11.3973 53C11.3973 52.784 11.4373 52.582 11.5173 52.394C11.6013 52.202 11.7133 52.034 11.8533 51.89C11.9973 51.746 12.1653 51.634 12.3573 51.554C12.5493 51.47 12.7533 51.428 12.9693 51.428C13.1853 51.428 13.3893 51.47 13.5813 51.554C13.7733 51.634 13.9393 51.746 14.0793 51.89C14.2233 52.034 14.3353 52.202 14.4153 52.394C14.4993 52.582 14.5413 52.784 14.5413 53C14.5413 53.216 14.4993 53.42 14.4153 53.612C14.3353 53.804 14.2233 53.972 14.0793 54.116C13.9393 54.26 13.7733 54.374 13.5813 54.458C13.3893 54.538 13.1853 54.578 12.9693 54.578ZM12.9693 53.948C13.1013 53.948 13.2233 53.924 13.3353 53.876C13.4513 53.824 13.5513 53.756 13.6353 53.672C13.7193 53.584 13.7853 53.484 13.8333 53.372C13.8853 53.256 13.9113 53.132 13.9113 53C13.9113 52.868 13.8853 52.746 13.8333 52.634C13.7853 52.518 13.7193 52.418 13.6353 52.334C13.5513 52.25 13.4513 52.184 13.3353 52.136C13.2233 52.084 13.1013 52.058 12.9693 52.058C12.8373 52.058 12.7133 52.084 12.5973 52.136C12.4853 52.184 12.3853 52.25 12.2973 52.334C12.2133 52.418 12.1453 52.518 12.0933 52.634C12.0453 52.746 12.0213 52.868 12.0213 53C12.0213 53.132 12.0453 53.256 12.0933 53.372C12.1453 53.484 12.2133 53.584 12.2973 53.672C12.3853 53.756 12.4853 53.824 12.5973 53.876C12.7133 53.924 12.8373 53.948 12.9693 53.948ZM15.1494 51.5H15.7794V53.294C15.7794 53.438 15.8014 53.556 15.8454 53.648C15.8934 53.74 15.9514 53.814 16.0194 53.87C16.0874 53.922 16.1634 53.96 16.2474 53.984C16.3354 54.004 16.4174 54.014 16.4934 54.014C16.5734 54.014 16.6534 54.002 16.7334 53.978C16.8174 53.95 16.8914 53.904 16.9554 53.84C17.0234 53.776 17.0794 53.69 17.1234 53.582C17.1674 53.474 17.1894 53.338 17.1894 53.174V51.5H17.8194V54.5H17.1894V54.2C17.0854 54.304 16.9634 54.394 16.8234 54.47C16.6834 54.542 16.5274 54.578 16.3554 54.578C16.2474 54.578 16.1234 54.56 15.9834 54.524C15.8434 54.492 15.7114 54.428 15.5874 54.332C15.4674 54.236 15.3634 54.106 15.2754 53.942C15.1914 53.774 15.1494 53.558 15.1494 53.294V51.5ZM18.5362 55.01L18.7342 54.56C18.6302 54.536 18.5642 54.502 18.5362 54.458C18.5082 54.414 18.4942 54.334 18.4942 54.218C18.4942 53.982 18.6082 53.864 18.8362 53.864C18.9482 53.864 19.0362 53.896 19.1002 53.96C19.1642 54.024 19.1962 54.114 19.1962 54.23C19.1962 54.294 19.1922 54.352 19.1842 54.404C19.1762 54.452 19.1622 54.498 19.1422 54.542C19.1262 54.59 19.1042 54.636 19.0762 54.68C19.0522 54.728 19.0202 54.78 18.9802 54.836L18.7342 55.172L18.5362 55.01ZM21.5336 50.87L22.6016 50.3H23.2676V53.87H24.4496V54.5H21.3296V53.87H22.6016V51.002L21.8756 51.392L21.5336 50.87ZM25.2836 50.87L26.3516 50.3H27.0176V53.87H28.1996V54.5H25.0796V53.87H26.3516V51.002L25.6256 51.392L25.2836 50.87ZM28.8716 51.794C28.8716 51.67 28.9056 51.576 28.9736 51.512C29.0416 51.444 29.1356 51.41 29.2556 51.41C29.5076 51.41 29.6336 51.538 29.6336 51.794C29.6336 52.054 29.5076 52.184 29.2556 52.184C28.9996 52.184 28.8716 52.054 28.8716 51.794ZM28.8716 53.42C28.8716 53.296 28.9056 53.202 28.9736 53.138C29.0416 53.07 29.1356 53.036 29.2556 53.036C29.5076 53.036 29.6336 53.164 29.6336 53.42C29.6336 53.68 29.5076 53.81 29.2556 53.81C28.9996 53.81 28.8716 53.68 28.8716 53.42ZM30.2662 54.326C30.2782 54.162 30.3102 53.986 30.3622 53.798C30.4142 53.61 30.4902 53.428 30.5902 53.252C30.6942 53.076 30.8222 52.914 30.9742 52.766C31.1302 52.614 31.3182 52.492 31.5382 52.4C31.6742 52.34 31.8062 52.284 31.9342 52.232C32.0662 52.176 32.1822 52.116 32.2822 52.052C32.3862 51.984 32.4682 51.908 32.5282 51.824C32.5922 51.74 32.6242 51.64 32.6242 51.524C32.6242 51.408 32.5982 51.306 32.5462 51.218C32.4982 51.13 32.4342 51.058 32.3542 51.002C32.2782 50.942 32.1922 50.898 32.0962 50.87C32.0042 50.838 31.9162 50.822 31.8322 50.822C31.7122 50.822 31.5962 50.834 31.4842 50.858C31.3762 50.882 31.2762 50.92 31.1842 50.972C31.0962 51.024 31.0202 51.092 30.9562 51.176C30.8962 51.256 30.8562 51.352 30.8362 51.464L30.2062 51.398C30.2342 51.206 30.2982 51.038 30.3982 50.894C30.4982 50.746 30.6202 50.624 30.7642 50.528C30.9122 50.428 31.0782 50.352 31.2622 50.3C31.4462 50.248 31.6362 50.222 31.8322 50.222C32.0082 50.222 32.1802 50.25 32.3482 50.306C32.5202 50.362 32.6742 50.444 32.8102 50.552C32.9462 50.66 33.0542 50.794 33.1342 50.954C33.2182 51.11 33.2602 51.29 33.2602 51.494C33.2602 51.702 33.2202 51.88 33.1402 52.028C33.0642 52.172 32.9602 52.298 32.8282 52.406C32.6962 52.514 32.5402 52.61 32.3602 52.694C32.1842 52.778 31.9942 52.86 31.7902 52.94C31.5942 53.02 31.4362 53.144 31.3162 53.312C31.1962 53.48 31.1042 53.664 31.0402 53.864H33.3322V54.494H30.2662V54.326ZM35.5042 53.186C35.2762 53.186 35.0662 53.148 34.8742 53.072C34.6822 52.996 34.5162 52.892 34.3762 52.76C34.2362 52.628 34.1262 52.472 34.0462 52.292C33.9702 52.112 33.9322 51.916 33.9322 51.704C33.9322 51.488 33.9702 51.29 34.0462 51.11C34.1262 50.93 34.2362 50.774 34.3762 50.642C34.5162 50.51 34.6822 50.408 34.8742 50.336C35.0662 50.26 35.2762 50.222 35.5042 50.222C35.7322 50.222 35.9402 50.26 36.1282 50.336C36.3202 50.408 36.4862 50.51 36.6262 50.642C36.7662 50.774 36.8742 50.93 36.9502 51.11C37.0302 51.29 37.0702 51.488 37.0702 51.704C37.0702 51.86 37.0482 52.008 37.0042 52.148C36.9642 52.288 36.9042 52.416 36.8242 52.532L35.5882 54.5H34.8202L35.6542 53.18C35.6262 53.184 35.6002 53.186 35.5762 53.186C35.5522 53.186 35.5282 53.186 35.5042 53.186ZM35.5042 52.538C35.6282 52.538 35.7442 52.518 35.8522 52.478C35.9602 52.434 36.0542 52.374 36.1342 52.298C36.2142 52.222 36.2762 52.134 36.3202 52.034C36.3682 51.934 36.3922 51.824 36.3922 51.704C36.3922 51.584 36.3682 51.474 36.3202 51.374C36.2762 51.27 36.2122 51.182 36.1282 51.11C36.0482 51.034 35.9542 50.976 35.8462 50.936C35.7382 50.892 35.6242 50.87 35.5042 50.87C35.3762 50.87 35.2582 50.892 35.1502 50.936C35.0422 50.976 34.9482 51.034 34.8682 51.11C34.7882 51.186 34.7242 51.276 34.6762 51.38C34.6322 51.48 34.6102 51.588 34.6102 51.704C34.6102 51.82 34.6322 51.93 34.6762 52.034C34.7242 52.134 34.7882 52.222 34.8682 52.298C34.9482 52.37 35.0422 52.428 35.1502 52.472C35.2622 52.516 35.3802 52.538 35.5042 52.538ZM40.6692 50.3H41.3892L42.9612 54.5H42.2472L41.9112 53.594H40.1532L39.8172 54.5H39.0972L40.6692 50.3ZM41.6712 52.964L41.0292 51.248L40.3872 52.964H41.6712ZM45.4035 52.52L46.7175 50.3L46.7355 50.312V50.3H47.4015V54.5H46.7355V51.506L45.4875 53.612H45.3195L44.0655 51.5V54.506H43.3995V50.3H44.0655V50.312L44.0895 50.3L45.4035 52.52Z" fill="#9CA3AF"/>
<path d="M117.5 201.674H117.174V202V210.181L109.237 201.776L109.14 201.674H109H91.212C88.5134 201.674 86.3257 199.487 86.3257 196.788V143.212C86.3257 140.513 88.5134 138.326 91.212 138.326H172.788C175.487 138.326 177.674 140.513 177.674 143.212V196.788C177.674 199.487 175.487 201.674 172.788 201.674H117.5Z" fill="white" stroke="#F3F4F6" stroke-width="0.651497"/>
<path d="M97.03 166.62C96.3567 166.62 95.79 166.47 95.33 166.17C94.87 165.87 94.5533 165.46 94.38 164.94L95.16 164.49C95.2933 164.877 95.5167 165.18 95.83 165.4C96.15 165.62 96.5533 165.73 97.04 165.73C97.3667 165.73 97.64 165.677 97.86 165.57C98.0867 165.457 98.2533 165.313 98.36 165.14C98.4733 164.96 98.53 164.77 98.53 164.57C98.53 164.283 98.3933 164.05 98.12 163.87C97.8467 163.69 97.4167 163.51 96.83 163.33C96.3633 163.19 95.98 163.05 95.68 162.91C95.3867 162.77 95.1433 162.577 94.95 162.33C94.7633 162.077 94.67 161.75 94.67 161.35C94.67 160.957 94.7667 160.61 94.96 160.31C95.16 160.01 95.4267 159.78 95.76 159.62C96.1 159.46 96.47 159.38 96.87 159.38C97.4233 159.38 97.9033 159.517 98.31 159.79C98.7167 160.057 99.0267 160.423 99.24 160.89L98.45 161.33C98.31 160.997 98.1067 160.74 97.84 160.56C97.5733 160.373 97.25 160.28 96.87 160.28C96.4767 160.28 96.1633 160.387 95.93 160.6C95.6967 160.807 95.58 161.057 95.58 161.35C95.58 161.563 95.6367 161.737 95.75 161.87C95.87 162.003 96.03 162.117 96.23 162.21C96.4367 162.297 96.74 162.403 97.14 162.53C97.6467 162.69 98.0533 162.847 98.36 163C98.6667 163.147 98.9233 163.35 99.13 163.61C99.3367 163.87 99.44 164.203 99.44 164.61C99.44 165.017 99.3367 165.373 99.13 165.68C98.9233 165.98 98.6367 166.213 98.27 166.38C97.91 166.54 97.4967 166.62 97.03 166.62ZM103.822 161.5H104.682V166.5H103.822V165.91C103.642 166.123 103.425 166.297 103.172 166.43C102.918 166.557 102.642 166.62 102.342 166.62C102.048 166.62 101.748 166.56 101.442 166.44C101.135 166.313 100.872 166.093 100.652 165.78C100.432 165.46 100.322 165.03 100.322 164.49V161.5H101.182V164.49C101.182 164.977 101.315 165.327 101.582 165.54C101.855 165.747 102.168 165.85 102.522 165.85C102.868 165.85 103.172 165.73 103.432 165.49C103.692 165.243 103.822 164.843 103.822 164.29V161.5ZM108.556 161.39C108.636 161.39 108.696 161.393 108.736 161.4L108.666 162.22C108.586 162.207 108.523 162.2 108.476 162.2C108.05 162.2 107.69 162.33 107.396 162.59C107.11 162.85 106.966 163.227 106.966 163.72V166.5H106.106V161.5H106.966V162.36C107.08 162.087 107.273 161.857 107.546 161.67C107.826 161.483 108.163 161.39 108.556 161.39ZM111.629 161.38C112.116 161.38 112.549 161.5 112.929 161.74C113.309 161.973 113.602 162.293 113.809 162.7C114.022 163.1 114.129 163.537 114.129 164.01C114.129 164.063 114.126 164.123 114.119 164.19C114.112 164.25 114.106 164.3 114.099 164.34H109.889C109.956 164.787 110.149 165.153 110.469 165.44C110.796 165.72 111.209 165.86 111.709 165.86C112.016 165.86 112.306 165.79 112.579 165.65C112.859 165.51 113.066 165.337 113.199 165.13L113.879 165.53C113.659 165.877 113.359 166.147 112.979 166.34C112.606 166.527 112.179 166.62 111.699 166.62C111.172 166.62 110.706 166.507 110.299 166.28C109.892 166.053 109.576 165.743 109.349 165.35C109.122 164.95 109.009 164.5 109.009 164C109.009 163.507 109.119 163.063 109.339 162.67C109.566 162.27 109.876 161.957 110.269 161.73C110.669 161.497 111.122 161.38 111.629 161.38ZM113.309 163.64C113.242 163.173 113.062 162.807 112.769 162.54C112.476 162.273 112.096 162.14 111.629 162.14C111.302 162.14 111.006 162.21 110.739 162.35C110.472 162.49 110.262 162.677 110.109 162.91C109.956 163.137 109.876 163.38 109.869 163.64H113.309ZM116.128 164.56H115.398L115.228 159.5H116.288L116.128 164.56ZM115.188 166.02C115.188 165.833 115.238 165.69 115.338 165.59C115.438 165.49 115.578 165.44 115.758 165.44C115.938 165.44 116.075 165.49 116.168 165.59C116.268 165.69 116.318 165.833 116.318 166.02C116.318 166.207 116.268 166.35 116.168 166.45C116.075 166.543 115.938 166.59 115.758 166.59C115.572 166.59 115.428 166.543 115.328 166.45C115.235 166.35 115.188 166.207 115.188 166.02ZM120.366 166.5V159.5H121.276V166.5H120.366ZM122.636 160.4V159.5H123.496V160.4L123.246 162.15H122.886L122.636 160.4ZM130.137 161.38C130.431 161.38 130.731 161.443 131.037 161.57C131.344 161.69 131.607 161.91 131.827 162.23C132.054 162.543 132.167 162.97 132.167 163.51V166.5H131.297V163.51C131.297 163.023 131.164 162.677 130.897 162.47C130.631 162.257 130.321 162.15 129.967 162.15C129.681 162.15 129.417 162.233 129.177 162.4C128.944 162.567 128.787 162.84 128.707 163.22C128.714 163.28 128.717 163.377 128.717 163.51V166.5H127.857V163.51C127.857 163.023 127.721 162.677 127.447 162.47C127.181 162.257 126.871 162.15 126.517 162.15C126.244 162.15 125.987 162.23 125.747 162.39C125.514 162.55 125.354 162.807 125.267 163.16V166.5H124.407V161.5H125.267V162.02C125.441 161.827 125.651 161.673 125.897 161.56C126.144 161.44 126.407 161.38 126.687 161.38C127.014 161.38 127.344 161.457 127.677 161.61C128.017 161.763 128.281 162.017 128.467 162.37C128.627 162.09 128.854 161.857 129.147 161.67C129.447 161.477 129.777 161.38 130.137 161.38ZM140.348 166.5H139.488V163.53C139.488 163.043 139.351 162.697 139.078 162.49C138.811 162.277 138.501 162.17 138.148 162.17C137.875 162.17 137.618 162.25 137.378 162.41C137.145 162.57 136.985 162.827 136.898 163.18V166.5H136.038V159.5H136.898V162.04C137.071 161.847 137.281 161.693 137.528 161.58C137.775 161.46 138.038 161.4 138.318 161.4C138.611 161.4 138.911 161.463 139.218 161.59C139.525 161.71 139.788 161.927 140.008 162.24C140.235 162.553 140.348 162.977 140.348 163.51V166.5ZM143.699 161.38C144.186 161.38 144.619 161.5 144.999 161.74C145.379 161.973 145.673 162.293 145.879 162.7C146.093 163.1 146.199 163.537 146.199 164.01C146.199 164.063 146.196 164.123 146.189 164.19C146.183 164.25 146.176 164.3 146.169 164.34H141.959C142.026 164.787 142.219 165.153 142.539 165.44C142.866 165.72 143.279 165.86 143.779 165.86C144.086 165.86 144.376 165.79 144.649 165.65C144.929 165.51 145.136 165.337 145.269 165.13L145.949 165.53C145.729 165.877 145.429 166.147 145.049 166.34C144.676 166.527 144.249 166.62 143.769 166.62C143.243 166.62 142.776 166.507 142.369 166.28C141.963 166.053 141.646 165.743 141.419 165.35C141.193 164.95 141.079 164.5 141.079 164C141.079 163.507 141.189 163.063 141.409 162.67C141.636 162.27 141.946 161.957 142.339 161.73C142.739 161.497 143.193 161.38 143.699 161.38ZM145.379 163.64C145.313 163.173 145.133 162.807 144.839 162.54C144.546 162.273 144.166 162.14 143.699 162.14C143.373 162.14 143.076 162.21 142.809 162.35C142.543 162.49 142.333 162.677 142.179 162.91C142.026 163.137 141.946 163.38 141.939 163.64H145.379ZM149.523 161.39C149.603 161.39 149.663 161.393 149.703 161.4L149.633 162.22C149.553 162.207 149.49 162.2 149.443 162.2C149.017 162.2 148.657 162.33 148.363 162.59C148.077 162.85 147.933 163.227 147.933 163.72V166.5H147.073V161.5H147.933V162.36C148.047 162.087 148.24 161.857 148.513 161.67C148.793 161.483 149.13 161.39 149.523 161.39ZM152.596 161.38C153.083 161.38 153.516 161.5 153.896 161.74C154.276 161.973 154.569 162.293 154.776 162.7C154.989 163.1 155.096 163.537 155.096 164.01C155.096 164.063 155.093 164.123 155.086 164.19C155.079 164.25 155.073 164.3 155.066 164.34H150.856C150.923 164.787 151.116 165.153 151.436 165.44C151.763 165.72 152.176 165.86 152.676 165.86C152.983 165.86 153.273 165.79 153.546 165.65C153.826 165.51 154.033 165.337 154.166 165.13L154.846 165.53C154.626 165.877 154.326 166.147 153.946 166.34C153.573 166.527 153.146 166.62 152.666 166.62C152.139 166.62 151.673 166.507 151.266 166.28C150.859 166.053 150.543 165.743 150.316 165.35C150.089 164.95 149.976 164.5 149.976 164C149.976 163.507 150.086 163.063 150.306 162.67C150.533 162.27 150.843 161.957 151.236 161.73C151.636 161.497 152.089 161.38 152.596 161.38ZM154.276 163.64C154.209 163.173 154.029 162.807 153.736 162.54C153.443 162.273 153.063 162.14 152.596 162.14C152.269 162.14 151.973 162.21 151.706 162.35C151.439 162.49 151.229 162.677 151.076 162.91C150.923 163.137 150.843 163.38 150.836 163.64H154.276ZM160.213 164.94C160.213 165.247 160.27 165.46 160.383 165.58C160.503 165.693 160.693 165.75 160.953 165.75C161.033 165.75 161.2 165.737 161.453 165.71V166.5C161.167 166.533 160.927 166.55 160.733 166.55C160.26 166.55 159.91 166.437 159.683 166.21C159.463 165.983 159.353 165.577 159.353 164.99V162.29H158.243V161.5H159.353V160.14L160.213 159.83V161.5H161.433V162.29H160.213V164.94ZM164.647 166.62C164.173 166.62 163.737 166.503 163.337 166.27C162.937 166.037 162.617 165.72 162.377 165.32C162.143 164.913 162.027 164.473 162.027 164C162.027 163.527 162.143 163.09 162.377 162.69C162.617 162.29 162.937 161.973 163.337 161.74C163.737 161.507 164.173 161.39 164.647 161.39C165.12 161.39 165.557 161.507 165.957 161.74C166.357 161.973 166.673 162.29 166.907 162.69C167.147 163.09 167.267 163.527 167.267 164C167.267 164.473 167.147 164.913 166.907 165.32C166.673 165.72 166.357 166.037 165.957 166.27C165.557 166.503 165.12 166.62 164.647 166.62ZM164.647 165.76C164.967 165.76 165.26 165.683 165.527 165.53C165.793 165.37 166.003 165.157 166.157 164.89C166.317 164.617 166.397 164.32 166.397 164C166.397 163.68 166.317 163.387 166.157 163.12C166.003 162.853 165.793 162.643 165.527 162.49C165.26 162.33 164.967 162.25 164.647 162.25C164.327 162.25 164.03 162.33 163.757 162.49C163.49 162.643 163.277 162.853 163.117 163.12C162.963 163.387 162.887 163.68 162.887 164C162.887 164.32 162.963 164.617 163.117 164.89C163.277 165.157 163.49 165.37 163.757 165.53C164.03 165.683 164.327 165.76 164.647 165.76ZM98.82 173.5H99.69V178.5H98.82V177.75C98.5867 178.023 98.3067 178.24 97.98 178.4C97.66 178.553 97.3167 178.63 96.95 178.63C96.4633 178.63 96.0267 178.517 95.64 178.29C95.2533 178.057 94.9533 177.74 94.74 177.34C94.5267 176.94 94.42 176.497 94.42 176.01C94.42 175.517 94.5267 175.073 94.74 174.68C94.9533 174.28 95.25 173.967 95.63 173.74C96.0167 173.507 96.4567 173.39 96.95 173.39C97.3167 173.39 97.66 173.47 97.98 173.63C98.3067 173.783 98.5867 173.997 98.82 174.27V173.5ZM97.04 177.8C97.3667 177.8 97.6667 177.723 97.94 177.57C98.2133 177.41 98.4267 177.193 98.58 176.92C98.74 176.647 98.82 176.34 98.82 176C98.82 175.667 98.74 175.367 98.58 175.1C98.4267 174.827 98.2133 174.613 97.94 174.46C97.6667 174.307 97.3667 174.23 97.04 174.23C96.7133 174.23 96.4167 174.307 96.15 174.46C95.8833 174.613 95.6733 174.827 95.52 175.1C95.3667 175.373 95.29 175.677 95.29 176.01C95.29 176.35 95.3667 176.657 95.52 176.93C95.6733 177.197 95.8833 177.41 96.15 177.57C96.4167 177.723 96.7133 177.8 97.04 177.8ZM101.591 174.87C101.591 175.063 101.681 175.203 101.861 175.29C102.048 175.377 102.345 175.47 102.751 175.57C103.145 175.663 103.465 175.757 103.711 175.85C103.965 175.943 104.178 176.09 104.351 176.29C104.531 176.49 104.621 176.76 104.621 177.1C104.621 177.56 104.431 177.93 104.051 178.21C103.671 178.483 103.195 178.62 102.621 178.62C102.108 178.62 101.675 178.52 101.321 178.32C100.968 178.12 100.711 177.84 100.551 177.48L101.261 177.11C101.368 177.377 101.538 177.577 101.771 177.71C102.005 177.837 102.288 177.9 102.621 177.9C102.935 177.9 103.205 177.83 103.431 177.69C103.665 177.55 103.781 177.357 103.781 177.11C103.781 176.957 103.725 176.83 103.611 176.73C103.505 176.63 103.368 176.553 103.201 176.5C103.041 176.447 102.811 176.38 102.511 176.3C102.131 176.207 101.821 176.117 101.581 176.03C101.348 175.937 101.145 175.8 100.971 175.62C100.805 175.44 100.721 175.197 100.721 174.89C100.721 174.597 100.805 174.337 100.971 174.11C101.138 173.877 101.365 173.697 101.651 173.57C101.938 173.443 102.258 173.38 102.611 173.38C103.031 173.38 103.401 173.47 103.721 173.65C104.048 173.83 104.298 174.08 104.471 174.4L103.761 174.76C103.661 174.547 103.515 174.383 103.321 174.27C103.128 174.15 102.891 174.09 102.611 174.09C102.298 174.09 102.048 174.163 101.861 174.31C101.681 174.45 101.591 174.637 101.591 174.87ZM106.25 174.87C106.25 175.063 106.34 175.203 106.52 175.29C106.706 175.377 107.003 175.47 107.41 175.57C107.803 175.663 108.123 175.757 108.37 175.85C108.623 175.943 108.836 176.09 109.01 176.29C109.19 176.49 109.28 176.76 109.28 177.1C109.28 177.56 109.09 177.93 108.71 178.21C108.33 178.483 107.853 178.62 107.28 178.62C106.766 178.62 106.333 178.52 105.98 178.32C105.626 178.12 105.37 177.84 105.21 177.48L105.92 177.11C106.026 177.377 106.196 177.577 106.43 177.71C106.663 177.837 106.946 177.9 107.28 177.9C107.593 177.9 107.863 177.83 108.09 177.69C108.323 177.55 108.44 177.357 108.44 177.11C108.44 176.957 108.383 176.83 108.27 176.73C108.163 176.63 108.026 176.553 107.86 176.5C107.7 176.447 107.47 176.38 107.17 176.3C106.79 176.207 106.48 176.117 106.24 176.03C106.006 175.937 105.803 175.8 105.63 175.62C105.463 175.44 105.38 175.197 105.38 174.89C105.38 174.597 105.463 174.337 105.63 174.11C105.796 173.877 106.023 173.697 106.31 173.57C106.596 173.443 106.916 173.38 107.27 173.38C107.69 173.38 108.06 173.47 108.38 173.65C108.706 173.83 108.956 174.08 109.13 174.4L108.42 174.76C108.32 174.547 108.173 174.383 107.98 174.27C107.786 174.15 107.55 174.09 107.27 174.09C106.956 174.09 106.706 174.163 106.52 174.31C106.34 174.45 106.25 174.637 106.25 174.87ZM110.599 172.36C110.432 172.36 110.299 172.313 110.199 172.22C110.099 172.127 110.049 171.997 110.049 171.83C110.049 171.67 110.099 171.543 110.199 171.45C110.299 171.35 110.432 171.3 110.599 171.3C110.765 171.3 110.899 171.35 110.999 171.45C111.099 171.543 111.149 171.67 111.149 171.83C111.149 171.997 111.099 172.127 110.999 172.22C110.905 172.313 110.772 172.36 110.599 172.36ZM110.169 178.5V173.5H111.029V178.5H110.169ZM112.92 174.87C112.92 175.063 113.01 175.203 113.19 175.29C113.376 175.377 113.673 175.47 114.08 175.57C114.473 175.663 114.793 175.757 115.04 175.85C115.293 175.943 115.506 176.09 115.68 176.29C115.86 176.49 115.95 176.76 115.95 177.1C115.95 177.56 115.76 177.93 115.38 178.21C115 178.483 114.523 178.62 113.95 178.62C113.436 178.62 113.003 178.52 112.65 178.32C112.296 178.12 112.04 177.84 111.88 177.48L112.59 177.11C112.696 177.377 112.866 177.577 113.1 177.71C113.333 177.837 113.616 177.9 113.95 177.9C114.263 177.9 114.533 177.83 114.76 177.69C114.993 177.55 115.11 177.357 115.11 177.11C115.11 176.957 115.053 176.83 114.94 176.73C114.833 176.63 114.696 176.553 114.53 176.5C114.37 176.447 114.14 176.38 113.84 176.3C113.46 176.207 113.15 176.117 112.91 176.03C112.676 175.937 112.473 175.8 112.3 175.62C112.133 175.44 112.05 175.197 112.05 174.89C112.05 174.597 112.133 174.337 112.3 174.11C112.466 173.877 112.693 173.697 112.98 173.57C113.266 173.443 113.586 173.38 113.94 173.38C114.36 173.38 114.73 173.47 115.05 173.65C115.376 173.83 115.626 174.08 115.8 174.4L115.09 174.76C114.99 174.547 114.843 174.383 114.65 174.27C114.456 174.15 114.22 174.09 113.94 174.09C113.626 174.09 113.376 174.163 113.19 174.31C113.01 174.45 112.92 174.637 112.92 174.87ZM118.319 176.94C118.319 177.247 118.375 177.46 118.489 177.58C118.609 177.693 118.799 177.75 119.059 177.75C119.139 177.75 119.305 177.737 119.559 177.71V178.5C119.272 178.533 119.032 178.55 118.839 178.55C118.365 178.55 118.015 178.437 117.789 178.21C117.569 177.983 117.459 177.577 117.459 176.99V174.29H116.349V173.5H117.459V172.14L118.319 171.83V173.5H119.539V174.29H118.319V176.94ZM126.754 173.5H127.664L125.764 178.68C125.524 179.293 125.197 179.76 124.784 180.08C124.377 180.407 123.907 180.547 123.374 180.5V179.67L123.504 179.68C124.124 179.68 124.604 179.253 124.944 178.4L122.674 173.5H123.614L125.364 177.26L126.754 173.5ZM130.76 178.62C130.287 178.62 129.85 178.503 129.45 178.27C129.05 178.037 128.73 177.72 128.49 177.32C128.257 176.913 128.14 176.473 128.14 176C128.14 175.527 128.257 175.09 128.49 174.69C128.73 174.29 129.05 173.973 129.45 173.74C129.85 173.507 130.287 173.39 130.76 173.39C131.233 173.39 131.67 173.507 132.07 173.74C132.47 173.973 132.787 174.29 133.02 174.69C133.26 175.09 133.38 175.527 133.38 176C133.38 176.473 133.26 176.913 133.02 177.32C132.787 177.72 132.47 178.037 132.07 178.27C131.67 178.503 131.233 178.62 130.76 178.62ZM130.76 177.76C131.08 177.76 131.373 177.683 131.64 177.53C131.907 177.37 132.117 177.157 132.27 176.89C132.43 176.617 132.51 176.32 132.51 176C132.51 175.68 132.43 175.387 132.27 175.12C132.117 174.853 131.907 174.643 131.64 174.49C131.373 174.33 131.08 174.25 130.76 174.25C130.44 174.25 130.143 174.33 129.87 174.49C129.603 174.643 129.39 174.853 129.23 175.12C129.077 175.387 129 175.68 129 176C129 176.32 129.077 176.617 129.23 176.89C129.39 177.157 129.603 177.37 129.87 177.53C130.143 177.683 130.44 177.76 130.76 177.76ZM137.63 173.5H138.49V178.5H137.63V177.91C137.45 178.123 137.234 178.297 136.98 178.43C136.727 178.557 136.45 178.62 136.15 178.62C135.857 178.62 135.557 178.56 135.25 178.44C134.944 178.313 134.68 178.093 134.46 177.78C134.24 177.46 134.13 177.03 134.13 176.49V173.5H134.99V176.49C134.99 176.977 135.124 177.327 135.39 177.54C135.664 177.747 135.977 177.85 136.33 177.85C136.677 177.85 136.98 177.73 137.24 177.49C137.5 177.243 137.63 176.843 137.63 176.29V173.5ZM147.193 177.18L148.343 173.5H149.253L147.633 178.5H146.753L145.593 174.89L144.443 178.5H143.573L142.013 173.5H142.913L144.013 177.18L145.123 173.5H146.053L147.193 177.18ZM150.609 172.36C150.442 172.36 150.309 172.313 150.209 172.22C150.109 172.127 150.059 171.997 150.059 171.83C150.059 171.67 150.109 171.543 150.209 171.45C150.309 171.35 150.442 171.3 150.609 171.3C150.775 171.3 150.909 171.35 151.009 171.45C151.109 171.543 151.159 171.67 151.159 171.83C151.159 171.997 151.109 172.127 151.009 172.22C150.915 172.313 150.782 172.36 150.609 172.36ZM150.179 178.5V173.5H151.039V178.5H150.179ZM153.905 176.94C153.905 177.247 153.961 177.46 154.075 177.58C154.195 177.693 154.385 177.75 154.645 177.75C154.725 177.75 154.891 177.737 155.145 177.71V178.5C154.858 178.533 154.618 178.55 154.425 178.55C153.951 178.55 153.601 178.437 153.375 178.21C153.155 177.983 153.045 177.577 153.045 176.99V174.29H151.935V173.5H153.045V172.14L153.905 171.83V173.5H155.125V174.29H153.905V176.94ZM160.416 178.5H159.556V175.53C159.556 175.043 159.42 174.697 159.146 174.49C158.88 174.277 158.57 174.17 158.216 174.17C157.943 174.17 157.686 174.25 157.446 174.41C157.213 174.57 157.053 174.827 156.966 175.18V178.5H156.106V171.5H156.966V174.04C157.14 173.847 157.35 173.693 157.596 173.58C157.843 173.46 158.106 173.4 158.386 173.4C158.68 173.4 158.98 173.463 159.286 173.59C159.593 173.71 159.856 173.927 160.076 174.24C160.303 174.553 160.416 174.977 160.416 175.51V178.5ZM98.17 185.5H99.08L97.18 190.68C96.94 191.293 96.6133 191.76 96.2 192.08C95.7933 192.407 95.3233 192.547 94.79 192.5V191.67L94.92 191.68C95.54 191.68 96.02 191.253 96.36 190.4L94.09 185.5H95.03L96.78 189.26L98.17 185.5ZM102.176 190.62C101.703 190.62 101.266 190.503 100.866 190.27C100.466 190.037 100.146 189.72 99.906 189.32C99.6727 188.913 99.556 188.473 99.556 188C99.556 187.527 99.6727 187.09 99.906 186.69C100.146 186.29 100.466 185.973 100.866 185.74C101.266 185.507 101.703 185.39 102.176 185.39C102.649 185.39 103.086 185.507 103.486 185.74C103.886 185.973 104.203 186.29 104.436 186.69C104.676 187.09 104.796 187.527 104.796 188C104.796 188.473 104.676 188.913 104.436 189.32C104.203 189.72 103.886 190.037 103.486 190.27C103.086 190.503 102.649 190.62 102.176 190.62ZM102.176 189.76C102.496 189.76 102.789 189.683 103.056 189.53C103.323 189.37 103.533 189.157 103.686 188.89C103.846 188.617 103.926 188.32 103.926 188C103.926 187.68 103.846 187.387 103.686 187.12C103.533 186.853 103.323 186.643 103.056 186.49C102.789 186.33 102.496 186.25 102.176 186.25C101.856 186.25 101.559 186.33 101.286 186.49C101.019 186.643 100.806 186.853 100.646 187.12C100.493 187.387 100.416 187.68 100.416 188C100.416 188.32 100.493 188.617 100.646 188.89C100.806 189.157 101.019 189.37 101.286 189.53C101.559 189.683 101.856 189.76 102.176 189.76ZM109.046 185.5H109.906V190.5H109.046V189.91C108.866 190.123 108.65 190.297 108.396 190.43C108.143 190.557 107.866 190.62 107.566 190.62C107.273 190.62 106.973 190.56 106.666 190.44C106.36 190.313 106.096 190.093 105.876 189.78C105.656 189.46 105.546 189.03 105.546 188.49V185.5H106.406V188.49C106.406 188.977 106.54 189.327 106.806 189.54C107.08 189.747 107.393 189.85 107.746 189.85C108.093 189.85 108.396 189.73 108.656 189.49C108.916 189.243 109.046 188.843 109.046 188.29V185.5ZM113.781 185.39C113.861 185.39 113.921 185.393 113.961 185.4L113.891 186.22C113.811 186.207 113.748 186.2 113.701 186.2C113.274 186.2 112.914 186.33 112.621 186.59C112.334 186.85 112.191 187.227 112.191 187.72V190.5H111.331V185.5H112.191V186.36C112.304 186.087 112.498 185.857 112.771 185.67C113.051 185.483 113.388 185.39 113.781 185.39ZM119.764 190.62C119.291 190.62 118.854 190.503 118.454 190.27C118.054 190.037 117.734 189.72 117.494 189.32C117.261 188.913 117.144 188.473 117.144 188C117.144 187.527 117.261 187.09 117.494 186.69C117.734 186.29 118.054 185.973 118.454 185.74C118.854 185.507 119.291 185.39 119.764 185.39C120.237 185.39 120.674 185.507 121.074 185.74C121.474 185.973 121.791 186.29 122.024 186.69C122.264 187.09 122.384 187.527 122.384 188C122.384 188.473 122.264 188.913 122.024 189.32C121.791 189.72 121.474 190.037 121.074 190.27C120.674 190.503 120.237 190.62 119.764 190.62ZM119.764 189.76C120.084 189.76 120.377 189.683 120.644 189.53C120.911 189.37 121.121 189.157 121.274 188.89C121.434 188.617 121.514 188.32 121.514 188C121.514 187.68 121.434 187.387 121.274 187.12C121.121 186.853 120.911 186.643 120.644 186.49C120.377 186.33 120.084 186.25 119.764 186.25C119.444 186.25 119.147 186.33 118.874 186.49C118.607 186.643 118.394 186.853 118.234 187.12C118.081 187.387 118.004 187.68 118.004 188C118.004 188.32 118.081 188.617 118.234 188.89C118.394 189.157 118.607 189.37 118.874 189.53C119.147 189.683 119.444 189.76 119.764 189.76ZM125.734 185.39C125.814 185.39 125.874 185.393 125.914 185.4L125.844 186.22C125.764 186.207 125.701 186.2 125.654 186.2C125.228 186.2 124.868 186.33 124.574 186.59C124.288 186.85 124.144 187.227 124.144 187.72V190.5H123.284V185.5H124.144V186.36C124.258 186.087 124.451 185.857 124.724 185.67C125.004 185.483 125.341 185.39 125.734 185.39ZM130.685 183.5H131.545V190.5H130.685V189.75C130.452 190.023 130.172 190.24 129.845 190.4C129.525 190.553 129.182 190.63 128.815 190.63C128.329 190.63 127.892 190.517 127.505 190.29C127.119 190.057 126.819 189.74 126.605 189.34C126.392 188.94 126.285 188.497 126.285 188.01C126.285 187.517 126.392 187.073 126.605 186.68C126.819 186.28 127.115 185.967 127.495 185.74C127.882 185.507 128.322 185.39 128.815 185.39C129.182 185.39 129.525 185.47 129.845 185.63C130.172 185.783 130.452 185.997 130.685 186.27V183.5ZM128.905 189.8C129.232 189.8 129.532 189.723 129.805 189.57C130.079 189.41 130.292 189.193 130.445 188.92C130.605 188.647 130.685 188.34 130.685 188C130.685 187.667 130.605 187.367 130.445 187.1C130.292 186.827 130.079 186.613 129.805 186.46C129.532 186.307 129.232 186.23 128.905 186.23C128.579 186.23 128.282 186.307 128.015 186.46C127.749 186.613 127.539 186.827 127.385 187.1C127.232 187.373 127.155 187.677 127.155 188.01C127.155 188.35 127.232 188.657 127.385 188.93C127.539 189.197 127.749 189.41 128.015 189.57C128.282 189.723 128.579 189.8 128.905 189.8ZM135.067 185.38C135.553 185.38 135.987 185.5 136.367 185.74C136.747 185.973 137.04 186.293 137.247 186.7C137.46 187.1 137.567 187.537 137.567 188.01C137.567 188.063 137.563 188.123 137.557 188.19C137.55 188.25 137.543 188.3 137.537 188.34H133.327C133.393 188.787 133.587 189.153 133.907 189.44C134.233 189.72 134.647 189.86 135.147 189.86C135.453 189.86 135.743 189.79 136.017 189.65C136.297 189.51 136.503 189.337 136.637 189.13L137.317 189.53C137.097 189.877 136.797 190.147 136.417 190.34C136.043 190.527 135.617 190.62 135.137 190.62C134.61 190.62 134.143 190.507 133.737 190.28C133.33 190.053 133.013 189.743 132.787 189.35C132.56 188.95 132.447 188.5 132.447 188C132.447 187.507 132.557 187.063 132.777 186.67C133.003 186.27 133.313 185.957 133.707 185.73C134.107 185.497 134.56 185.38 135.067 185.38ZM136.747 187.64C136.68 187.173 136.5 186.807 136.207 186.54C135.913 186.273 135.533 186.14 135.067 186.14C134.74 186.14 134.443 186.21 134.177 186.35C133.91 186.49 133.7 186.677 133.547 186.91C133.393 187.137 133.313 187.38 133.307 187.64H136.747ZM140.89 185.39C140.97 185.39 141.03 185.393 141.07 185.4L141 186.22C140.92 186.207 140.857 186.2 140.81 186.2C140.384 186.2 140.024 186.33 139.73 186.59C139.444 186.85 139.3 187.227 139.3 187.72V190.5H138.44V185.5H139.3V186.36C139.414 186.087 139.607 185.857 139.88 185.67C140.16 185.483 140.497 185.39 140.89 185.39ZM141.076 190.11C141.076 189.95 141.12 189.827 141.206 189.74C141.3 189.647 141.423 189.6 141.576 189.6C141.736 189.6 141.86 189.647 141.946 189.74C142.033 189.827 142.076 189.95 142.076 190.11C142.076 190.263 142.033 190.387 141.946 190.48C141.86 190.567 141.736 190.61 141.576 190.61C141.423 190.61 141.3 190.567 141.206 190.48C141.12 190.387 141.076 190.263 141.076 190.11Z" fill="#111827"/>
<path d="M94.1266 147.87L95.1946 147.3H95.8606V150.87H97.0426V151.5H93.9226V150.87H95.1946V148.002L94.4686 148.392L94.1266 147.87ZM97.8766 147.87L98.9446 147.3H99.6106V150.87H100.793V151.5H97.6726V150.87H98.9446V148.002L98.2186 148.392L97.8766 147.87ZM101.465 148.794C101.465 148.67 101.499 148.576 101.567 148.512C101.635 148.444 101.729 148.41 101.849 148.41C102.101 148.41 102.227 148.538 102.227 148.794C102.227 149.054 102.101 149.184 101.849 149.184C101.593 149.184 101.465 149.054 101.465 148.794ZM101.465 150.42C101.465 150.296 101.499 150.202 101.567 150.138C101.635 150.07 101.729 150.036 101.849 150.036C102.101 150.036 102.227 150.164 102.227 150.42C102.227 150.68 102.101 150.81 101.849 150.81C101.593 150.81 101.465 150.68 101.465 150.42ZM105.745 148.41C105.745 148.59 105.705 148.752 105.625 148.896C105.545 149.04 105.435 149.164 105.295 149.268C105.475 149.38 105.615 149.522 105.715 149.694C105.815 149.862 105.865 150.054 105.865 150.27C105.865 150.458 105.825 150.632 105.745 150.792C105.669 150.948 105.563 151.084 105.427 151.2C105.291 151.316 105.129 151.406 104.941 151.47C104.757 151.534 104.557 151.566 104.341 151.566C104.145 151.566 103.961 151.538 103.789 151.482C103.617 151.426 103.463 151.348 103.327 151.248C103.195 151.148 103.087 151.03 103.003 150.894C102.919 150.754 102.869 150.602 102.853 150.438L103.537 150.384C103.585 150.556 103.683 150.694 103.831 150.798C103.979 150.898 104.149 150.948 104.341 150.948C104.465 150.948 104.579 150.93 104.683 150.894C104.791 150.858 104.883 150.81 104.959 150.75C105.035 150.686 105.095 150.612 105.139 150.528C105.183 150.44 105.205 150.346 105.205 150.246C105.205 150.142 105.183 150.048 105.139 149.964C105.095 149.88 105.035 149.806 104.959 149.742C104.883 149.678 104.791 149.63 104.683 149.598C104.579 149.562 104.465 149.544 104.341 149.544H104.125L104.131 149.004L104.341 149.01C104.561 149.01 104.741 148.954 104.881 148.842C105.025 148.726 105.097 148.582 105.097 148.41C105.097 148.326 105.077 148.248 105.037 148.176C105.001 148.104 104.949 148.042 104.881 147.99C104.813 147.934 104.733 147.892 104.641 147.864C104.549 147.832 104.447 147.816 104.335 147.816C104.179 147.816 104.033 147.852 103.897 147.924C103.761 147.992 103.665 148.094 103.609 148.23L102.949 148.188C102.973 148.048 103.025 147.92 103.105 147.804C103.189 147.684 103.291 147.582 103.411 147.498C103.535 147.414 103.675 147.348 103.831 147.3C103.991 147.252 104.159 147.228 104.335 147.228C104.539 147.228 104.727 147.258 104.899 147.318C105.075 147.374 105.225 147.456 105.349 147.564C105.473 147.668 105.569 147.792 105.637 147.936C105.709 148.08 105.745 148.238 105.745 148.41ZM108.127 151.578C107.863 151.578 107.627 151.526 107.419 151.422C107.215 151.314 107.041 151.166 106.897 150.978C106.757 150.786 106.649 150.556 106.573 150.288C106.497 150.02 106.459 149.724 106.459 149.4C106.459 149.076 106.497 148.78 106.573 148.512C106.649 148.244 106.757 148.016 106.897 147.828C107.041 147.636 107.215 147.488 107.419 147.384C107.627 147.276 107.863 147.222 108.127 147.222C108.387 147.222 108.619 147.276 108.823 147.384C109.031 147.488 109.207 147.636 109.351 147.828C109.495 148.016 109.605 148.244 109.681 148.512C109.757 148.78 109.795 149.076 109.795 149.4C109.795 149.724 109.757 150.02 109.681 150.288C109.605 150.556 109.495 150.786 109.351 150.978C109.207 151.166 109.031 151.314 108.823 151.422C108.619 151.526 108.387 151.578 108.127 151.578ZM108.127 150.906C108.427 150.906 108.669 150.784 108.853 150.54C109.037 150.292 109.129 149.912 109.129 149.4C109.129 148.884 109.037 148.504 108.853 148.26C108.669 148.012 108.427 147.888 108.127 147.888C107.823 147.888 107.579 148.012 107.395 148.26C107.215 148.504 107.125 148.884 107.125 149.4C107.125 149.912 107.215 150.292 107.395 150.54C107.579 150.784 107.823 150.906 108.127 150.906ZM113.262 147.3H113.982L115.554 151.5H114.84L114.504 150.594H112.746L112.41 151.5H111.69L113.262 147.3ZM114.264 149.964L113.622 148.248L112.98 149.964H114.264ZM117.997 149.52L119.311 147.3L119.329 147.312V147.3H119.995V151.5H119.329V148.506L118.081 150.612H117.913L116.659 148.5V151.506H115.993V147.3H116.659V147.312L116.683 147.3L117.997 149.52Z" fill="#9CA3AF"/>
<g filter="url(#filter3_f_240_950)">
<circle cx="153" cy="96" r="25" fill="#CDBDFF" fill-opacity="0.42"/>
</g>
<g filter="url(#filter4_f_240_950)">
<circle cx="183" cy="86" r="25" fill="#472F92" fill-opacity="0.24"/>
</g>
<g filter="url(#filter5_b_240_950)">
<rect x="143" y="71" width="42" height="42" rx="12" fill="url(#paint1_linear_240_950)" fill-opacity="0.24"/>
<rect x="142.5" y="70.5" width="43" height="43" rx="12.5" stroke="white"/>
</g>
<path d="M155.303 91.4515H156.367C156.869 91.4515 157.328 91.6588 157.662 91.9921C157.995 92.3267 158.201 92.785 158.201 93.2857V101.698C158.201 102.203 157.995 102.661 157.663 102.993C157.333 103.324 156.873 103.531 156.369 103.531H154.803C153.771 103.531 152.832 103.109 152.15 102.427C151.863 102.14 151.622 101.807 151.44 101.442C150.55 101.342 149.75 100.936 149.149 100.333C148.453 99.6356 148.02 98.674 148.02 97.6169C148.02 96.577 148.439 95.6287 149.115 94.9343C149.692 94.3418 150.459 93.9342 151.316 93.8093C151.507 93.3364 151.793 92.9102 152.148 92.5556C152.635 92.0682 153.253 91.7136 153.943 91.5501V90.5263C153.943 87.7598 155.075 85.2457 156.897 83.4221L156.935 83.3863C158.756 81.5853 161.256 80.4684 164.001 80.4684C166.767 80.4684 169.282 81.5999 171.105 83.4221C172.927 85.2444 174.059 87.7598 174.059 90.5263V91.5501C174.748 91.7135 175.366 92.0681 175.852 92.553C176.208 92.9089 176.493 93.3367 176.686 93.8095C177.542 93.9343 178.309 94.3421 178.887 94.9345C179.564 95.6292 179.982 96.5773 179.982 97.6172C179.982 98.6745 179.549 99.6358 178.853 100.333C178.253 100.936 177.452 101.341 176.564 101.442C176.38 101.807 176.141 102.139 175.854 102.425C175.172 103.108 174.233 103.53 173.201 103.53H171.635C171.13 103.53 170.671 103.323 170.34 102.992C170.008 102.66 169.802 102.201 169.802 101.697V93.2847C169.802 92.784 170.008 92.3257 170.341 91.9911C170.676 91.6578 171.134 91.4505 171.636 91.4505H172.7V90.5276C172.7 88.1356 171.721 85.9614 170.146 84.3853C168.57 82.8089 166.395 81.83 164.004 81.83C161.626 81.83 159.464 82.7954 157.891 84.3521L157.861 84.384C156.284 85.9603 155.305 88.1346 155.305 90.5263V91.4492L155.303 91.4515ZM162.929 92.4914H165.072C165.448 92.4914 165.752 92.1874 165.752 91.8116C165.752 91.4357 165.448 91.1317 165.072 91.1317H162.929C162.554 91.1317 162.25 91.4357 162.25 91.8116C162.25 92.1874 162.554 92.4914 162.929 92.4914ZM162.929 88.167H165.072C165.448 88.167 165.752 87.863 165.752 87.4871C165.752 87.1112 165.448 86.8072 165.072 86.8072H162.929C162.554 86.8072 162.25 87.1113 162.25 87.4871C162.25 87.863 162.554 88.167 162.929 88.167ZM161.323 90.3291H166.678C167.053 90.3291 167.357 90.0251 167.357 89.6492C167.357 89.2734 167.053 88.9694 166.678 88.9694H161.323C160.947 88.9694 160.643 89.2734 160.643 89.6492C160.643 90.0251 160.947 90.3291 161.323 90.3291ZM164 83.8281C165.551 83.8281 166.956 84.4576 167.974 85.475L168.01 85.5134C169.006 86.5282 169.621 87.9172 169.621 89.4485C169.621 90.9997 168.991 92.4049 167.974 93.4225C166.957 94.4399 165.552 95.0695 164 95.0695C163.902 95.0695 163.661 95.2036 163.36 95.3722C162.661 95.7652 161.73 96.2861 160.333 96.3032C159.959 96.3071 159.652 96.007 159.648 95.6337C159.647 95.5579 159.658 95.485 159.681 95.4158C159.801 95.0425 160.002 94.3601 160.053 93.826C160.072 93.6254 160.118 93.5098 160.105 93.4965C159.564 92.9759 159.126 92.3464 158.829 91.6452C158.54 90.9679 158.381 90.2242 158.381 89.4486C158.381 87.8987 159.011 86.4948 160.028 85.4774C161.045 84.4588 162.451 83.8279 164.002 83.8279L164 83.8281Z" fill="#402A83"/>
<defs>
<filter id="filter0_d_240_950" x="40.3927" y="0.970051" width="136.663" height="245.379" filterUnits="userSpaceOnUse" color-interpolation-filters="sRGB">
<feFlood flood-opacity="0" result="BackgroundImageFix"/>
<feColorMatrix in="SourceAlpha" type="matrix" values="0 0 0 0 0 0 0 0 0 0 0 0 0 0 0 0 0 0 127 0" result="hardAlpha"/>
<feOffset dx="5.21198"/>
<feGaussianBlur stdDeviation="6.51497"/>
<feColorMatrix type="matrix" values="0 0 0 0 0.647059 0 0 0 0 0.686275 0 0 0 0 0.768627 0 0 0 0.24 0"/>
<feBlend mode="normal" in2="BackgroundImageFix" result="effect1_dropShadow_240_950"/>
<feBlend mode="normal" in="SourceGraphic" in2="effect1_dropShadow_240_950" result="shape"/>
</filter>
<filter id="filter1_i_240_950" x="47.3528" y="13.5711" width="111.461" height="219.749" filterUnits="userSpaceOnUse" color-interpolation-filters="sRGB">
<feFlood flood-opacity="0" result="BackgroundImageFix"/>
<feBlend mode="normal" in="SourceGraphic" in2="BackgroundImageFix" result="shape"/>
<feColorMatrix in="SourceAlpha" type="matrix" values="0 0 0 0 0 0 0 0 0 0 0 0 0 0 0 0 0 0 127 0" result="hardAlpha"/>
<feOffset dx="-0.857857" dy="-0.428929"/>
<feGaussianBlur stdDeviation="12"/>
<feComposite in2="hardAlpha" operator="arithmetic" k2="-1" k3="1"/>
<feColorMatrix type="matrix" values="0 0 0 0 0.647059 0 0 0 0 0.686275 0 0 0 0 0.768627 0 0 0 0.14 0"/>
<feBlend mode="normal" in2="shape" result="effect1_innerShadow_240_950"/>
</filter>
<filter id="filter2_i_240_950" x="81.0522" y="19.2848" width="43.4109" height="4.20383" filterUnits="userSpaceOnUse" color-interpolation-filters="sRGB">
<feFlood flood-opacity="0" result="BackgroundImageFix"/>
<feBlend mode="normal" in="SourceGraphic" in2="BackgroundImageFix" result="shape"/>
<feColorMatrix in="SourceAlpha" type="matrix" values="0 0 0 0 0 0 0 0 0 0 0 0 0 0 0 0 0 0 127 0" result="hardAlpha"/>
<feOffset dy="0.428929"/>
<feGaussianBlur stdDeviation="0.857857"/>
<feComposite in2="hardAlpha" operator="arithmetic" k2="-1" k3="1"/>
<feColorMatrix type="matrix" values="0 0 0 0 0 0 0 0 0 0 0 0 0 0 0 0 0 0 0.05 0"/>
<feBlend mode="normal" in2="shape" result="effect1_innerShadow_240_950"/>
</filter>
<filter id="filter3_f_240_950" x="86" y="29" width="134" height="134" filterUnits="userSpaceOnUse" color-interpolation-filters="sRGB">
<feFlood flood-opacity="0" result="BackgroundImageFix"/>
<feBlend mode="normal" in="SourceGraphic" in2="BackgroundImageFix" result="shape"/>
<feGaussianBlur stdDeviation="21" result="effect1_foregroundBlur_240_950"/>
</filter>
<filter id="filter4_f_240_950" x="116" y="19" width="134" height="134" filterUnits="userSpaceOnUse" color-interpolation-filters="sRGB">
<feFlood flood-opacity="0" result="BackgroundImageFix"/>
<feBlend mode="normal" in="SourceGraphic" in2="BackgroundImageFix" result="shape"/>
<feGaussianBlur stdDeviation="21" result="effect1_foregroundBlur_240_950"/>
</filter>
<filter id="filter5_b_240_950" x="118" y="46" width="92" height="92" filterUnits="userSpaceOnUse" color-interpolation-filters="sRGB">
<feFlood flood-opacity="0" result="BackgroundImageFix"/>
<feGaussianBlur in="BackgroundImageFix" stdDeviation="12"/>
<feComposite in2="SourceAlpha" operator="in" result="effect1_backgroundBlur_240_950"/>
<feBlend mode="normal" in="SourceGraphic" in2="effect1_backgroundBlur_240_950" result="shape"/>
</filter>
<linearGradient id="paint0_linear_240_950" x1="122.249" y1="84.2437" x2="24.0935" y2="181.493" gradientUnits="userSpaceOnUse">
<stop/>
<stop offset="0.461814" stop-color="white" stop-opacity="0"/>
</linearGradient>
<linearGradient id="paint1_linear_240_950" x1="164" y1="71" x2="164" y2="113" gradientUnits="userSpaceOnUse">
<stop stop-color="white"/>
<stop offset="1" stop-color="white"/>
</linearGradient>
<clipPath id="clip0_240_950">
<rect width="110.604" height="219.32" fill="white" transform="translate(48.2106 14)"/>
</clipPath>
</defs>
</svg>
