<svg width="269" height="124" viewBox="0 0 269 124" fill="none" xmlns="http://www.w3.org/2000/svg">
<g filter="url(#filter0_d_240_473)">
<rect x="49" y="73" width="172" height="44" rx="5.50923" fill="white"/>
</g>
<rect x="103" y="81" width="33" height="28" rx="4.88889" fill="#F3F4F6"/>
<path d="M115.076 96.7944C115.076 95.4654 114.326 94.6532 112.466 94.0328C111.138 93.5603 110.591 93.2502 110.591 92.7629C110.591 92.3493 110.919 91.9354 111.935 91.9354C112.539 91.9354 113.025 92.0329 113.41 92.1488C113.615 92.2101 113.838 92.1893 114.027 92.0902C114.215 91.9915 114.352 91.8243 114.406 91.6273L114.414 91.5965C114.48 91.3527 114.44 91.0939 114.303 90.8781C114.166 90.6623 113.943 90.5075 113.685 90.4481C113.335 90.3678 112.926 90.31 112.444 90.2856V89.4011C112.444 89.1797 112.254 89 112.02 89H111.171C110.937 89 110.747 89.1797 110.747 89.4011V90.4083C109.135 90.7397 108.2 91.7396 108.2 93.0136C108.2 94.4463 109.341 95.1844 111.013 95.7164C112.17 96.0858 112.669 96.4404 112.669 97.0012C112.669 97.5924 112.06 97.9169 111.169 97.9169C110.531 97.9169 109.93 97.7942 109.409 97.6193C109.19 97.5459 108.95 97.5624 108.745 97.6654C108.541 97.768 108.391 97.9473 108.334 98.1596L108.33 98.1724C108.191 98.6839 108.505 99.2078 109.041 99.359C109.548 99.5025 110.141 99.6028 110.747 99.6292V100.632C110.747 100.854 110.937 101.034 111.171 101.034H112.02C112.255 101.034 112.444 100.854 112.444 100.632V99.4921C114.142 99.1587 115.076 98.0701 115.076 96.7947L115.076 96.7944Z" fill="#6B7280"/>
<path d="M122.953 96.7944C122.953 95.4654 122.202 94.6532 120.343 94.0328C119.015 93.5603 118.468 93.2502 118.468 92.7629C118.468 92.3493 118.796 91.9354 119.811 91.9354C120.415 91.9354 120.901 92.0329 121.286 92.1488C121.491 92.2101 121.715 92.1893 121.903 92.0902C122.091 91.9915 122.228 91.8243 122.282 91.6273L122.29 91.5965C122.357 91.3527 122.317 91.0939 122.18 90.8781C122.043 90.6623 121.82 90.5075 121.561 90.4481C121.212 90.3678 120.802 90.31 120.321 90.2856V89.4011C120.321 89.1797 120.131 89 119.896 89H119.047C118.813 89 118.623 89.1797 118.623 89.4011V90.4083C117.011 90.7397 116.077 91.7396 116.077 93.0136C116.077 94.4463 117.217 95.1844 118.89 95.7164C120.046 96.0858 120.546 96.4404 120.546 97.0012C120.546 97.5924 119.936 97.9169 119.046 97.9169C118.407 97.9169 117.806 97.7942 117.285 97.6193C117.067 97.5459 116.826 97.5624 116.622 97.6654C116.417 97.768 116.268 97.9473 116.21 98.1596L116.206 98.1724C116.068 98.6839 116.382 99.2078 116.917 99.359C117.424 99.5025 118.018 99.6028 118.623 99.6292V100.632C118.623 100.854 118.813 101.034 119.047 101.034H119.896C120.131 101.034 120.321 100.854 120.321 100.632V99.4921C122.018 99.1587 122.953 98.0701 122.953 96.7947L122.953 96.7944Z" fill="#6B7280"/>
<path d="M130.829 96.7944C130.829 95.4654 130.078 94.6532 128.219 94.0328C126.891 93.5603 126.344 93.2502 126.344 92.7629C126.344 92.3493 126.672 91.9354 127.687 91.9354C128.291 91.9354 128.778 92.0329 129.163 92.1488C129.368 92.2101 129.591 92.1893 129.779 92.0902C129.967 91.9915 130.105 91.8243 130.158 91.6273L130.167 91.5965C130.233 91.3527 130.193 91.0939 130.056 90.8781C129.919 90.6623 129.696 90.5075 129.437 90.4481C129.088 90.3678 128.678 90.31 128.197 90.2856V89.4011C128.197 89.1797 128.007 89 127.772 89H126.924C126.689 89 126.499 89.1797 126.499 89.4011V90.4083C124.887 90.7397 123.953 91.7396 123.953 93.0136C123.953 94.4463 125.094 95.1844 126.766 95.7164C127.922 96.0858 128.422 96.4404 128.422 97.0012C128.422 97.5924 127.812 97.9169 126.922 97.9169C126.284 97.9169 125.683 97.7942 125.162 97.6193C124.943 97.5459 124.702 97.5624 124.498 97.6654C124.293 97.768 124.144 97.9473 124.086 98.1596L124.082 98.1724C123.944 98.6839 124.258 99.2078 124.793 99.359C125.3 99.5025 125.894 99.6028 126.499 99.6292V100.632C126.499 100.854 126.689 101.034 126.924 101.034H127.772C128.007 101.034 128.197 100.854 128.197 100.632V99.4921C129.894 99.1587 130.829 98.0701 130.829 96.7947L130.829 96.7944Z" fill="#6B7280"/>
<g clip-path="url(#clip0_240_473)">
<rect x="55" y="79" width="32" height="32" rx="3" fill="#D1D5DB"/>
<path d="M77.3056 87.9043L73.7754 89.9425L66.3073 85.7174C65.2897 85.0186 64.049 84.9455 63.1281 85.4772L61.0669 86.6672L68.1805 93.1144L67.0183 93.7853C66.7333 93.9499 66.4609 94.1364 66.2011 94.3448L63.8036 96.1675L60.9169 95.3199L59.2505 96.282L63.5803 103.781L65.2688 102.807L65.9781 99.8827L68.7334 98.7305C69.0437 98.6098 69.3414 98.4671 69.6265 98.3025L70.7887 97.6315L72.8059 107.05L74.8671 105.86C75.8318 105.303 76.3452 104.217 76.2486 102.987L76.336 94.4286L79.8664 92.3904C81.2917 91.5675 82.9459 89.2676 82.237 88.0397C81.5281 86.8118 78.7311 87.0817 77.3058 87.9047L77.3056 87.9043Z" fill="white"/>
</g>
<rect x="144" y="81" width="28" height="28" rx="4.88889" fill="#F3F4F6"/>
<g clip-path="url(#clip1_240_473)">
<path d="M163.667 93.8962C163.667 90.1566 160.636 87.125 156.896 87.125C153.157 87.125 150.125 90.1566 150.125 93.8962C150.125 97.6359 153.157 100.667 156.896 100.667" stroke="#6B7280" stroke-width="1.23158" stroke-linecap="round"/>
<path d="M158.177 90.4545V97H156.793V91.7681H156.754L155.255 92.7077V91.4805L156.876 90.4545H158.177Z" fill="#6B7280"/>
<path d="M166.968 99.4917C166.833 98.4395 166.286 97.4839 165.446 96.8352C164.607 96.1864 163.544 95.8977 162.492 96.0324C161.44 96.1671 160.484 96.7143 159.835 97.5537C159.187 98.393 158.898 99.4555 159.032 100.508C159.167 101.56 159.714 102.516 160.553 103.165C161.393 103.813 162.455 104.102 163.508 103.968C164.204 103.879 164.865 103.608 165.424 103.182C165.982 102.757 166.419 102.192 166.69 101.544C166.961 100.896 167.057 100.188 166.968 99.4915L166.968 99.4917ZM163.4 99.9997C163.4 100.106 163.359 100.208 163.284 100.284L162.084 101.484C162.009 101.559 161.906 101.602 161.8 101.602C161.693 101.602 161.591 101.559 161.516 101.484C161.44 101.409 161.397 101.306 161.397 101.2C161.397 101.093 161.44 100.991 161.516 100.916L162.6 99.8357V97.9997C162.6 97.8568 162.676 97.7247 162.8 97.6533C162.924 97.5818 163.076 97.5818 163.2 97.6533C163.323 97.7247 163.4 97.8568 163.4 97.9997L163.4 99.9997Z" fill="#6B7280"/>
</g>
<g filter="url(#filter1_d_240_473)">
<rect x="30" y="37" width="209" height="44" rx="5.50923" fill="white"/>
</g>
<rect x="84" y="45" width="28" height="28" rx="4.88889" fill="#F3F4F6"/>
<path d="M97.4761 60.7944C97.4761 59.4654 96.7257 58.6532 94.866 58.0328C93.538 57.5603 92.991 57.2502 92.991 56.7629C92.991 56.3493 93.319 55.9354 94.3346 55.9354C94.9385 55.9354 95.4248 56.0329 95.8098 56.1488C96.0148 56.2101 96.238 56.1893 96.4264 56.0902C96.6144 55.9915 96.7519 55.8243 96.8054 55.6273L96.8139 55.5965C96.8801 55.3527 96.8402 55.0939 96.7032 54.8781C96.5661 54.6623 96.3433 54.5075 96.0844 54.4481C95.7352 54.3678 95.3256 54.31 94.8439 54.2856V53.4011C94.8439 53.1797 94.6542 53 94.4196 53H93.5708C93.3365 53 93.1464 53.1797 93.1464 53.4011V54.4083C91.5345 54.7397 90.6 55.7396 90.6 57.0136C90.6 58.4463 91.7408 59.1844 93.413 59.7164C94.5695 60.0858 95.069 60.4404 95.069 61.0012C95.069 61.5924 94.4595 61.9169 93.5692 61.9169C92.9309 61.9169 92.3299 61.7942 91.8087 61.6193C91.5902 61.5459 91.3496 61.5624 91.145 61.6654C90.9404 61.768 90.7911 61.9473 90.7333 62.1596L90.7296 62.1724C90.5912 62.6839 90.9053 63.2078 91.4404 63.359C91.9476 63.5025 92.5413 63.6028 93.1465 63.6292V64.6324C93.1465 64.8542 93.3366 65.0335 93.5709 65.0335H94.4197C94.6544 65.0335 94.8441 64.8542 94.8441 64.6324V63.4921C96.5417 63.1587 97.4763 62.0701 97.4763 60.7947L97.4761 60.7944Z" fill="#6B7280"/>
<path d="M105.352 60.7944C105.352 59.4654 104.602 58.6532 102.742 58.0328C101.414 57.5603 100.867 57.2502 100.867 56.7629C100.867 56.3493 101.195 55.9354 102.211 55.9354C102.815 55.9354 103.301 56.0329 103.686 56.1488C103.891 56.2101 104.114 56.1893 104.303 56.0902C104.491 55.9915 104.628 55.8243 104.682 55.6273L104.69 55.5965C104.756 55.3527 104.717 55.0939 104.58 54.8781C104.442 54.6623 104.22 54.5075 103.961 54.4481C103.612 54.3678 103.202 54.31 102.72 54.2856V53.4011C102.72 53.1797 102.531 53 102.296 53H101.447C101.213 53 101.023 53.1797 101.023 53.4011V54.4083C99.4108 54.7397 98.4763 55.7396 98.4763 57.0136C98.4763 58.4463 99.6171 59.1844 101.289 59.7164C102.446 60.0858 102.945 60.4404 102.945 61.0012C102.945 61.5924 102.336 61.9169 101.446 61.9169C100.807 61.9169 100.206 61.7942 99.6851 61.6193C99.4665 61.5459 99.2259 61.5624 99.0214 61.6654C98.8168 61.768 98.6674 61.9473 98.6097 62.1596L98.6059 62.1724C98.4676 62.6839 98.7816 63.2078 99.3167 63.359C99.8239 63.5025 100.418 63.6028 101.023 63.6292V64.6324C101.023 64.8542 101.213 65.0335 101.447 65.0335H102.296C102.531 65.0335 102.72 64.8542 102.72 64.6324V63.4921C104.418 63.1587 105.353 62.0701 105.353 60.7947L105.352 60.7944Z" fill="#6B7280"/>
<rect x="36" y="43" width="32" height="32" rx="3" fill="#6B7280"/>
<path d="M40.2667 55.4929V51.3832C40.2667 50.4753 41.0257 49.7393 41.962 49.7393H51.6246C52.5609 49.7393 53.3199 50.4753 53.3199 51.3832V52.0408H58.3462C58.9129 52.0408 59.4422 52.3155 59.7566 52.7727L63.4307 58.1167C63.8018 58.6568 63.9999 59.2914 63.9999 59.9404V63.0547C63.9999 63.8577 63.4061 64.5263 62.621 64.6699C62.1406 66.0256 60.8143 66.9999 59.2533 66.9999C57.7032 66.9999 56.3845 66.0393 55.8958 64.6986H49.5573C49.0686 66.0393 47.7499 66.9999 46.1998 66.9999C44.6499 66.9999 43.3312 66.0393 42.8426 64.6986H41.9619C41.0256 64.6986 40.2666 63.9626 40.2666 63.0547L40.2667 55.4929ZM56.0326 54.3422C55.8455 54.3422 55.6936 54.4893 55.6936 54.6709V58.6164C55.6936 58.7978 55.8455 58.9451 56.0326 58.9451H60.2273C60.3237 58.9451 60.4183 58.9185 60.4997 58.8684C60.737 58.7223 60.8072 58.4177 60.6568 58.1878L58.3405 54.6476C58.216 54.4573 58 54.3423 57.768 54.3423L56.0326 54.3422ZM46.2002 65.2736C47.1834 65.2736 47.9802 64.501 47.9802 63.5476C47.9802 62.5944 47.1834 61.8215 46.2002 61.8215C45.2172 61.8215 44.4202 62.5944 44.4202 63.5476C44.4202 64.501 45.2172 65.2736 46.2002 65.2736ZM59.2538 65.2736C60.2368 65.2736 61.0338 64.501 61.0338 63.5476C61.0338 62.5944 60.2368 61.8215 59.2538 61.8215C58.2708 61.8215 57.4738 62.5944 57.4738 63.5476C57.4738 64.501 58.2708 65.2736 59.2538 65.2736Z" fill="white"/>
<rect x="120" y="45" width="28" height="28" rx="4.88889" fill="#F3F4F6"/>
<g clip-path="url(#clip2_240_473)">
<path d="M139.667 57.8962C139.667 54.1566 136.636 51.125 132.896 51.125C129.157 51.125 126.125 54.1566 126.125 57.8962C126.125 61.6359 129.157 64.6675 132.896 64.6675" stroke="#6B7280" stroke-width="1.23158" stroke-linecap="round"/>
<path d="M132.984 61.0895C132.506 61.0895 132.081 61.0075 131.708 60.8434C131.338 60.6772 131.045 60.4492 130.83 60.1594C130.616 59.8675 130.507 59.5309 130.5 59.1495H131.894C131.902 59.3093 131.955 59.4499 132.05 59.5714C132.148 59.6907 132.278 59.7834 132.44 59.8494C132.602 59.9155 132.784 59.9485 132.987 59.9485C133.198 59.9485 133.384 59.9112 133.546 59.8366C133.708 59.7621 133.835 59.6587 133.926 59.5266C134.018 59.3945 134.064 59.2422 134.064 59.0696C134.064 58.8949 134.015 58.7404 133.917 58.6062C133.821 58.4698 133.682 58.3633 133.501 58.2866C133.322 58.2099 133.109 58.1715 132.862 58.1715H132.252V57.1552H132.862C133.071 57.1552 133.255 57.119 133.415 57.0465C133.577 56.9741 133.703 56.8739 133.792 56.7461C133.882 56.6161 133.926 56.4648 133.926 56.2923C133.926 56.1282 133.887 55.9844 133.808 55.8608C133.731 55.7351 133.623 55.6371 133.482 55.5668C133.344 55.4964 133.182 55.4613 132.996 55.4613C132.809 55.4613 132.637 55.4954 132.482 55.5636C132.326 55.6296 132.202 55.7244 132.108 55.848C132.014 55.9716 131.964 56.1165 131.958 56.2827H130.631C130.638 55.9055 130.745 55.5732 130.954 55.2855C131.163 54.9979 131.444 54.7731 131.798 54.6112C132.154 54.4471 132.555 54.3651 133.003 54.3651C133.455 54.3651 133.85 54.4471 134.189 54.6112C134.527 54.7752 134.79 54.9968 134.978 55.2759C135.168 55.5529 135.261 55.864 135.259 56.2092C135.261 56.5756 135.147 56.8814 134.917 57.1264C134.689 57.3714 134.392 57.527 134.026 57.593V57.6442C134.507 57.706 134.874 57.8732 135.125 58.146C135.379 58.4165 135.504 58.7553 135.502 59.1623C135.504 59.5352 135.397 59.8665 135.179 60.1562C134.964 60.446 134.667 60.674 134.288 60.8402C133.908 61.0064 133.474 61.0895 132.984 61.0895Z" fill="#6B7280"/>
<path d="M142.968 63.4917C142.833 62.4395 142.286 61.4839 141.446 60.8352C140.607 60.1864 139.544 59.8977 138.492 60.0324C137.44 60.1671 136.484 60.7143 135.835 61.5537C135.187 62.393 134.898 63.4555 135.032 64.5078C135.167 65.5601 135.714 66.5158 136.553 67.1645C137.393 67.8134 138.455 68.1023 139.508 67.9676C140.204 67.8786 140.865 67.6077 141.424 67.1822C141.982 66.7566 142.419 66.1916 142.69 65.5437C142.961 64.8959 143.057 64.1881 142.968 63.4915L142.968 63.4917ZM139.4 63.9997C139.4 64.1061 139.359 64.2082 139.284 64.2838L138.084 65.4838C138.009 65.5594 137.906 65.6021 137.8 65.6021C137.693 65.6021 137.591 65.5594 137.516 65.4838C137.44 65.4086 137.397 65.3064 137.397 65.1997C137.397 65.0931 137.44 64.9908 137.516 64.9157L138.6 63.8357V61.9997C138.6 61.8568 138.676 61.7247 138.8 61.6533C138.924 61.5818 139.076 61.5818 139.2 61.6533C139.323 61.7247 139.4 61.8568 139.4 61.9997L139.4 63.9997Z" fill="#6B7280"/>
</g>
<g filter="url(#filter2_d_240_473)">
<rect x="4" y="1" width="261" height="44" rx="5.50923" fill="white"/>
</g>
<rect x="190" y="9" width="67" height="28" rx="4.13193" fill="#111827"/>
<path d="M207.907 20.8531C207.86 20.4364 207.667 20.1136 207.326 19.8847C206.986 19.6529 206.557 19.5369 206.041 19.5369C205.671 19.5369 205.351 19.5956 205.081 19.713C204.811 19.8275 204.602 19.9859 204.452 20.1884C204.305 20.388 204.232 20.6154 204.232 20.8707C204.232 21.085 204.282 21.2698 204.381 21.4254C204.484 21.5809 204.618 21.7115 204.782 21.8171C204.949 21.9198 205.128 22.0064 205.319 22.0768C205.51 22.1443 205.693 22.2001 205.869 22.2441L206.75 22.473C207.037 22.5434 207.332 22.6388 207.634 22.7591C207.937 22.8795 208.217 23.0379 208.475 23.2345C208.733 23.4312 208.942 23.6747 209.1 23.9653C209.262 24.2558 209.342 24.6035 209.342 25.0085C209.342 25.5191 209.21 25.9725 208.946 26.3687C208.685 26.7649 208.305 27.0774 207.806 27.3063C207.31 27.5352 206.71 27.6497 206.006 27.6497C205.331 27.6497 204.747 27.5426 204.254 27.3283C203.761 27.1141 203.375 26.8104 203.096 26.4171C202.817 26.021 202.663 25.5514 202.634 25.0085H203.998C204.025 25.3343 204.131 25.6057 204.315 25.8229C204.503 26.0371 204.742 26.197 205.033 26.3027C205.326 26.4054 205.648 26.4567 205.997 26.4567C206.381 26.4567 206.723 26.3966 207.023 26.2763C207.325 26.153 207.563 25.9828 207.736 25.7656C207.909 25.5456 207.995 25.2888 207.995 24.9953C207.995 24.7283 207.919 24.5096 207.767 24.3394C207.617 24.1692 207.413 24.0284 207.155 23.9168C206.899 23.8053 206.61 23.707 206.287 23.6219L205.222 23.3314C204.5 23.1348 203.928 22.8457 203.505 22.4642C203.086 22.0827 202.876 21.578 202.876 20.95C202.876 20.4305 203.017 19.9771 203.299 19.5898C203.58 19.2024 203.962 18.9016 204.443 18.6874C204.924 18.4702 205.467 18.3616 206.072 18.3616C206.682 18.3616 207.221 18.4687 207.687 18.683C208.157 18.8972 208.527 19.1921 208.797 19.5678C209.067 19.9405 209.207 20.3689 209.219 20.8531H207.907ZM212.178 23.4855V27.5H210.862V18.4849H212.161V21.8391H212.244C212.403 21.4753 212.645 21.1862 212.971 20.972C213.296 20.7577 213.722 20.6506 214.247 20.6506C214.711 20.6506 215.116 20.746 215.462 20.9368C215.811 21.1275 216.081 21.4122 216.272 21.7907C216.466 22.1664 216.563 22.6359 216.563 23.1993V27.5H215.246V23.3578C215.246 22.8619 215.119 22.4774 214.863 22.2045C214.608 21.9286 214.253 21.7907 213.798 21.7907C213.487 21.7907 213.208 21.8568 212.962 21.9888C212.718 22.1209 212.526 22.3146 212.385 22.5699C212.247 22.8222 212.178 23.1274 212.178 23.4855ZM218.319 27.5V20.7387H219.635V27.5H218.319ZM218.984 19.6954C218.755 19.6954 218.558 19.6191 218.394 19.4665C218.232 19.311 218.152 19.1261 218.152 18.9119C218.152 18.6947 218.232 18.5098 218.394 18.3572C218.558 18.2017 218.755 18.1239 218.984 18.1239C219.213 18.1239 219.408 18.2017 219.569 18.3572C219.733 18.5098 219.816 18.6947 219.816 18.9119C219.816 19.1261 219.733 19.311 219.569 19.4665C219.408 19.6191 219.213 19.6954 218.984 19.6954ZM221.406 30.0355V20.7387H222.691V21.8347H222.801C222.878 21.6939 222.988 21.531 223.131 21.3461C223.275 21.1612 223.475 20.9998 223.73 20.8619C223.985 20.7211 224.323 20.6506 224.742 20.6506C225.288 20.6506 225.775 20.7886 226.204 21.0644C226.632 21.3403 226.968 21.7379 227.212 22.2573C227.458 22.7768 227.582 23.4018 227.582 24.1325C227.582 24.8633 227.46 25.4898 227.216 26.0122C226.973 26.5316 226.638 26.9322 226.213 27.2139C225.787 27.4927 225.302 27.6321 224.756 27.6321C224.345 27.6321 224.009 27.5631 223.748 27.4252C223.489 27.2872 223.287 27.1258 223.14 26.941C222.993 26.7561 222.88 26.5917 222.801 26.4479H222.722V30.0355H221.406ZM222.696 24.1193C222.696 24.5947 222.765 25.0115 222.902 25.3695C223.04 25.7275 223.24 26.0078 223.501 26.2102C223.762 26.4098 224.082 26.5096 224.461 26.5096C224.854 26.5096 225.183 26.4054 225.447 26.197C225.711 25.9857 225.91 25.6996 226.045 25.3387C226.183 24.9777 226.252 24.5713 226.252 24.1193C226.252 23.6733 226.185 23.2727 226.05 22.9176C225.918 22.5625 225.718 22.2823 225.451 22.0768C225.187 21.8714 224.857 21.7687 224.461 21.7687C224.079 21.7687 223.756 21.867 223.492 22.0636C223.231 22.2603 223.033 22.5346 222.898 22.8868C222.763 23.239 222.696 23.6498 222.696 24.1193Z" fill="white"/>
<path d="M244.54 22.4999L241.61 19.5698C241.34 19.2998 240.89 19.2998 240.62 19.5698C240.35 19.8398 240.35 20.2898 240.62 20.5598L242.35 22.2999H235.95C235.56 22.2999 235.25 22.6099 235.25 22.9999C235.25 23.3899 235.56 23.6999 235.95 23.6999H242.35L240.62 25.4298C240.35 25.6998 240.35 26.1498 240.62 26.4198C240.76 26.5598 240.94 26.6299 241.12 26.6299C241.3 26.6299 241.48 26.5598 241.62 26.4198L244.54 23.4999C244.67 23.3699 244.75 23.1899 244.75 22.9999C244.75 22.8099 244.68 22.6299 244.54 22.4998L244.54 22.4999Z" fill="#6B7280"/>
<rect x="58" y="9" width="28" height="28" rx="4.88889" fill="#F3F4F6"/>
<path d="M75.4761 24.7944C75.4761 23.4654 74.7257 22.6532 72.866 22.0328C71.538 21.5603 70.991 21.2502 70.991 20.7629C70.991 20.3493 71.319 19.9354 72.3346 19.9354C72.9385 19.9354 73.4248 20.0329 73.8098 20.1488C74.0148 20.2101 74.238 20.1893 74.4264 20.0902C74.6144 19.9915 74.7519 19.8243 74.8054 19.6273L74.8139 19.5965C74.8801 19.3527 74.8402 19.0939 74.7032 18.8781C74.5661 18.6623 74.3433 18.5075 74.0844 18.4481C73.7352 18.3678 73.3256 18.31 72.8439 18.2856V17.4011C72.8439 17.1797 72.6542 17 72.4196 17H71.5708C71.3365 17 71.1464 17.1797 71.1464 17.4011V18.4083C69.5345 18.7397 68.6 19.7396 68.6 21.0136C68.6 22.4463 69.7408 23.1844 71.413 23.7164C72.5695 24.0858 73.069 24.4404 73.069 25.0012C73.069 25.5924 72.4595 25.9169 71.5692 25.9169C70.9309 25.9169 70.3299 25.7942 69.8087 25.6193C69.5902 25.5459 69.3496 25.5624 69.145 25.6654C68.9404 25.768 68.7911 25.9473 68.7333 26.1596L68.7296 26.1724C68.5912 26.6839 68.9053 27.2078 69.4404 27.359C69.9476 27.5025 70.5413 27.6028 71.1465 27.6292V28.6324C71.1465 28.8542 71.3366 29.0335 71.5709 29.0335H72.4197C72.6544 29.0335 72.8441 28.8542 72.8441 28.6324V27.4921C74.5417 27.1587 75.4763 26.0701 75.4763 24.7947L75.4761 24.7944Z" fill="#6B7280"/>
<rect x="10" y="7" width="32" height="32" rx="3" fill="#1F2937"/>
<path d="M26.7582 22.8918L34.9914 14.6586C34.5582 14.4418 34.0164 14.3335 33.583 14.3335H18.4167C17.9833 14.3335 17.4415 14.4418 17.0083 14.6586L25.2415 22.8918C25.6749 23.325 26.3247 23.325 26.7582 22.8918H26.7582ZM36.5082 16.1749L28.2751 24.4081C26.975 25.7082 24.9167 25.7082 23.725 24.4081L15.4918 16.1749C15.2752 16.6082 15.1669 17.1499 15.1669 17.5831V28.4163C15.1669 30.2579 16.5752 31.6663 18.4169 31.6663H33.5837C35.4253 31.6663 36.8337 30.2579 36.8337 28.4163L36.8335 17.5831C36.8335 17.1499 36.7252 16.6082 36.5086 16.1749H36.5082Z" fill="white"/>
<rect x="94" y="9" width="28" height="28" rx="4.88889" fill="#F3F4F6"/>
<g clip-path="url(#clip3_240_473)">
<path d="M113.667 21.8962C113.667 18.1566 110.636 15.125 106.896 15.125C103.157 15.125 100.125 18.1566 100.125 21.8962C100.125 25.6359 103.157 28.6675 106.896 28.6675" stroke="#6B7280" stroke-width="1.23158" stroke-linecap="round"/>
<path d="M107.021 25.0895C106.569 25.0895 106.166 25.0064 105.813 24.8402C105.461 24.674 105.182 24.445 104.975 24.1531C104.769 23.8612 104.661 23.5266 104.653 23.1495H105.995C106.01 23.4031 106.116 23.6087 106.314 23.7663C106.513 23.924 106.748 24.0028 107.021 24.0028C107.238 24.0028 107.43 23.9549 107.596 23.859C107.764 23.761 107.895 23.6257 107.989 23.4531C108.085 23.2784 108.133 23.0781 108.133 22.8523C108.133 22.6222 108.084 22.4197 107.986 22.245C107.89 22.0703 107.757 21.9339 107.586 21.8359C107.416 21.7379 107.221 21.6879 107.002 21.6857C106.81 21.6857 106.623 21.7251 106.442 21.804C106.263 21.8828 106.124 21.9904 106.024 22.1268L104.793 21.9062L105.103 18.4545H109.105V19.5859H106.244L106.075 21.2255H106.113C106.228 21.0636 106.402 20.9293 106.634 20.8228C106.866 20.7163 107.126 20.663 107.414 20.663C107.808 20.663 108.16 20.7557 108.469 20.9411C108.778 21.1264 109.021 21.381 109.2 21.7049C109.379 22.0266 109.468 22.3974 109.466 22.8171C109.468 23.2582 109.366 23.6502 109.159 23.9933C108.954 24.3342 108.668 24.6026 108.299 24.7987C107.933 24.9925 107.507 25.0895 107.021 25.0895Z" fill="#6B7280"/>
<path d="M116.968 27.4917C116.833 26.4395 116.286 25.4839 115.446 24.8352C114.607 24.1864 113.544 23.8977 112.492 24.0324C111.44 24.1671 110.484 24.7143 109.835 25.5537C109.187 26.393 108.898 27.4555 109.032 28.5078C109.167 29.5601 109.714 30.5158 110.553 31.1645C111.393 31.8134 112.455 32.1023 113.508 31.9676C114.204 31.8786 114.865 31.6077 115.424 31.1822C115.982 30.7566 116.419 30.1916 116.69 29.5437C116.961 28.8959 117.057 28.1881 116.968 27.4915L116.968 27.4917ZM113.4 27.9997C113.4 28.1061 113.359 28.2082 113.284 28.2838L112.084 29.4838C112.009 29.5594 111.906 29.6021 111.8 29.6021C111.693 29.6021 111.591 29.5594 111.516 29.4838C111.44 29.4086 111.397 29.3064 111.397 29.1997C111.397 29.0931 111.44 28.9908 111.516 28.9157L112.6 27.8357V25.9997C112.6 25.8568 112.676 25.7247 112.8 25.6533C112.924 25.5818 113.076 25.5818 113.2 25.6533C113.323 25.7247 113.4 25.8568 113.4 25.9997L113.4 27.9997Z" fill="#6B7280"/>
</g>
<defs>
<filter id="filter0_d_240_473" x="45" y="72" width="180" height="52" filterUnits="userSpaceOnUse" color-interpolation-filters="sRGB">
<feFlood flood-opacity="0" result="BackgroundImageFix"/>
<feColorMatrix in="SourceAlpha" type="matrix" values="0 0 0 0 0 0 0 0 0 0 0 0 0 0 0 0 0 0 127 0" result="hardAlpha"/>
<feOffset dy="3"/>
<feGaussianBlur stdDeviation="2"/>
<feComposite in2="hardAlpha" operator="out"/>
<feColorMatrix type="matrix" values="0 0 0 0 0.639216 0 0 0 0 0.67451 0 0 0 0 0.745098 0 0 0 0.24 0"/>
<feBlend mode="normal" in2="BackgroundImageFix" result="effect1_dropShadow_240_473"/>
<feBlend mode="normal" in="SourceGraphic" in2="effect1_dropShadow_240_473" result="shape"/>
</filter>
<filter id="filter1_d_240_473" x="26" y="36" width="217" height="52" filterUnits="userSpaceOnUse" color-interpolation-filters="sRGB">
<feFlood flood-opacity="0" result="BackgroundImageFix"/>
<feColorMatrix in="SourceAlpha" type="matrix" values="0 0 0 0 0 0 0 0 0 0 0 0 0 0 0 0 0 0 127 0" result="hardAlpha"/>
<feOffset dy="3"/>
<feGaussianBlur stdDeviation="2"/>
<feComposite in2="hardAlpha" operator="out"/>
<feColorMatrix type="matrix" values="0 0 0 0 0.639216 0 0 0 0 0.67451 0 0 0 0 0.745098 0 0 0 0.24 0"/>
<feBlend mode="normal" in2="BackgroundImageFix" result="effect1_dropShadow_240_473"/>
<feBlend mode="normal" in="SourceGraphic" in2="effect1_dropShadow_240_473" result="shape"/>
</filter>
<filter id="filter2_d_240_473" x="0" y="0" width="269" height="52" filterUnits="userSpaceOnUse" color-interpolation-filters="sRGB">
<feFlood flood-opacity="0" result="BackgroundImageFix"/>
<feColorMatrix in="SourceAlpha" type="matrix" values="0 0 0 0 0 0 0 0 0 0 0 0 0 0 0 0 0 0 127 0" result="hardAlpha"/>
<feOffset dy="3"/>
<feGaussianBlur stdDeviation="2"/>
<feComposite in2="hardAlpha" operator="out"/>
<feColorMatrix type="matrix" values="0 0 0 0 0.639216 0 0 0 0 0.67451 0 0 0 0 0.745098 0 0 0 0.24 0"/>
<feBlend mode="normal" in2="BackgroundImageFix" result="effect1_dropShadow_240_473"/>
<feBlend mode="normal" in="SourceGraphic" in2="effect1_dropShadow_240_473" result="shape"/>
</filter>
<clipPath id="clip0_240_473">
<rect width="32" height="32" fill="white" transform="translate(55 79)"/>
</clipPath>
<clipPath id="clip1_240_473">
<rect width="18" height="18" fill="white" transform="translate(149 86)"/>
</clipPath>
<clipPath id="clip2_240_473">
<rect width="18" height="18" fill="white" transform="translate(125 50)"/>
</clipPath>
<clipPath id="clip3_240_473">
<rect width="18" height="18" fill="white" transform="translate(99 14)"/>
</clipPath>
</defs>
</svg>
