<svg width="167" height="225" viewBox="0 0 167 225" fill="none" xmlns="http://www.w3.org/2000/svg">
<g clip-path="url(#clip0_240_714)">
<path d="M22.4443 156.573L20.2155 129.76L119.496 114.004L117.992 138.892L22.4443 156.573Z" fill="#D1D5DB"/>
<path d="M22.4443 156.573L20.2155 129.76L119.496 114.004L117.992 138.892L22.4443 156.573Z" stroke="#4B5563" stroke-width="0.3" stroke-linecap="round" stroke-linejoin="round"/>
<path d="M39.2749 200.52L37.7507 176.953L147.251 154.953L145.422 178.727C145.32 180.048 144.364 181.146 143.07 181.428L42.9075 203.257C41.1141 203.648 39.3934 202.351 39.2749 200.52Z" fill="white"/>
<path d="M83.9227 119.647L83.7058 142.16L26.1261 152.321L22.4443 156.573L20.2156 129.76L83.9227 119.647Z" fill="#D1D5DB"/>
<path d="M71.9228 138.857L71.6566 121.594" stroke="#4B5563" stroke-width="0.8" stroke-linecap="round" stroke-linejoin="round"/>
<path d="M83.9227 119.647L83.7058 142.16L26.1261 152.321L22.4443 156.573L20.2156 129.76L83.9227 119.647Z" stroke="#4B5563" stroke-width="0.8" stroke-linecap="round" stroke-linejoin="round"/>
<path d="M37.443 176.756L20.2155 129.76L27.1979 134.966L33.0197 141.739L47.8934 180.08L45.0492 181.508L37.443 176.756Z" fill="#F3F4F6"/>
<path d="M37.443 176.756L20.2155 129.76L27.1979 134.966L33.0197 141.739L47.8934 180.08L45.0492 181.508L37.443 176.756Z" stroke="#4B5563" stroke-width="0.8" stroke-linecap="round" stroke-linejoin="round"/>
<path d="M22.4442 156.572L20.2155 129.76L37.443 176.756L39.2506 203.453L22.4442 156.572Z" fill="#F3F4F6"/>
<path d="M22.4442 156.572L20.2155 129.76L37.443 176.756L39.2506 202.953L22.4442 156.572Z" stroke="#4B5563" stroke-width="0.8" stroke-linecap="round" stroke-linejoin="round"/>
<path d="M119.496 114.004L147.251 154.953L144.886 163.548L140.631 164.966L117.216 129.855L117.167 120.711L119.496 114.004Z" fill="#F3F4F6"/>
<path d="M119.496 114.004L147.251 154.953L144.886 163.548L140.631 164.966L117.216 129.855L117.167 120.711L119.496 114.004Z" stroke="#4B5563" stroke-width="0.8" stroke-linecap="round" stroke-linejoin="round"/>
<path d="M85.9928 97.7948L64.9068 100.826L25.4316 106.493C22.4865 106.916 20.2961 109.433 20.2843 112.408L20.2156 129.76L119.496 114.004L124.485 98.0484C125.363 95.2402 123.011 92.477 120.098 92.8954L85.9928 97.7948Z" fill="#9CA3AF"/>
<path d="M22.0072 106.979L66.028 100.511L120.113 92.8774C123.022 92.4668 125.367 95.2277 124.49 98.0319L119.496 114.004L20.2156 129.76L20.298 108.95C20.3019 107.96 21.0285 107.123 22.0072 106.979Z" stroke="#4B5563" stroke-width="0.3" stroke-linecap="round" stroke-linejoin="round"/>
<path d="M130.6 116.274L148.067 154.773L37.443 176.757L25.0234 133.34L130.6 116.274Z" fill="white"/>
<path d="M130.6 116.274L148.067 154.773L37.443 176.757L25.0234 133.34L130.6 116.274Z" stroke="#4B5563" stroke-width="0.8" stroke-linecap="round" stroke-linejoin="round"/>
<path d="M21.5 156.5L19.5 130.5L19.5 111.418C19.5 109.449 20.9317 107.774 22.8757 107.467L64.9068 100.826L85.9928 97.7948L120.098 92.8953C123.011 92.4769 125.363 95.2401 124.485 98.0483L119.496 114.004L122.056 117.655L130.6 116.274L148.067 154.773L146.049 178.672C145.901 180.425 144.625 181.875 142.905 182.246L42.664 203.823C40.7185 204.241 38.761 203.166 38.0707 201.3L21.5 156.5Z" stroke="#4B5563" stroke-width="2" stroke-linecap="round" stroke-linejoin="round"/>
<path d="M12.2493 108.547L8.20782 115.547L16.2907 115.547L12.2493 108.547ZM12.2493 155.547L16.2907 148.547L8.20782 148.547L12.2493 155.547ZM11.5493 114.847L11.5493 149.247L12.9493 149.247L12.9493 114.847L11.5493 114.847Z" fill="#E5E7EB"/>
</g>
<path d="M42.2493 214.047L49.9269 216.575L48.2768 208.662L42.2493 214.047ZM147.749 192.047L140.072 189.52L141.722 197.433L147.749 192.047ZM48.5595 213.447L141.725 194.019L141.439 192.648L48.2737 212.076L48.5595 213.447Z" fill="#E5E7EB"/>
<path d="M98.5244 68.5243C111.139 55.9093 111.139 35.4564 98.5244 22.8414C85.9094 10.2264 65.4564 10.2264 52.8415 22.8414C40.2265 35.4564 40.2265 55.9093 52.8415 68.5243C65.4564 81.1393 85.9094 81.1393 98.5244 68.5243Z" fill="#1F2937"/>
<path d="M103.724 36.6703C99.8001 24.4444 88.5302 16.231 75.6859 16.231C62.8416 16.231 51.5682 24.4479 47.6445 36.6703L47.4952 37.1358H103.873L103.724 36.6703ZM51.8525 36.425C55.3426 26.2249 64.8603 19.4047 75.6859 19.4047C86.5115 19.4047 96.0292 26.2249 99.5193 36.425H51.8489H51.8525ZM100.266 36.425C96.7401 25.8091 86.8989 18.6939 75.6859 18.6939C64.4729 18.6939 54.6318 25.8091 51.1061 36.425H48.4762C52.4389 24.75 63.3107 16.9453 75.6824 16.9453C88.054 16.9453 98.9293 24.7536 102.892 36.425H100.262H100.266Z" fill="#FFD36F"/>
<path d="M100.497 54.2273H47.4952L47.6445 54.6929C51.5717 66.9188 62.838 75.1322 75.6824 75.1322C88.5267 75.1322 99.7965 66.9188 103.72 54.6929L103.869 54.2273H100.493H100.497ZM99.5158 54.9381C96.0221 65.1382 86.508 71.9584 75.6824 71.9584C64.8567 71.9584 55.339 65.1382 51.8489 54.9381H99.5158ZM75.6824 74.4178C63.3107 74.4178 52.4389 66.6096 48.4726 54.9381H51.1026C54.6282 65.554 64.4694 72.6692 75.6824 72.6692C86.8954 72.6692 96.7365 65.554 100.262 54.9381H102.892C98.9293 66.6131 88.0575 74.4178 75.6824 74.4178Z" fill="#FFD36F"/>
<path d="M48.6717 47.67C49.7748 47.67 50.6691 46.7758 50.6691 45.6727C50.6691 44.5695 49.7748 43.6753 48.6717 43.6753C47.5686 43.6753 46.6743 44.5695 46.6743 45.6727C46.6743 46.7758 47.5686 47.67 48.6717 47.67Z" fill="white"/>
<path d="M102.697 47.6808C103.8 47.6808 104.694 46.7865 104.694 45.6834C104.694 44.5803 103.8 43.686 102.697 43.686C101.594 43.686 100.699 44.5803 100.699 45.6834C100.699 46.7865 101.594 47.6808 102.697 47.6808Z" fill="white"/>
<path d="M75.2099 69L73 66.8073L73.8284 65.6844L75.1946 67.0408L78.1538 64L79 65.1052L75.2099 69Z" fill="white"/>
<path d="M76.2084 30.9377L76.4785 31.7658C76.507 31.8475 76.5816 31.9044 76.6705 31.9044H77.5412C77.7367 31.9044 77.8184 32.1532 77.6585 32.2669L76.9548 32.7787C76.8837 32.8284 76.8553 32.9208 76.8801 33.0026L77.1502 33.8307C77.2107 34.0155 76.9974 34.1683 76.841 34.0546L76.1373 33.5428C76.0663 33.493 75.9703 33.493 75.9028 33.5428L75.1991 34.0546C75.0427 34.1683 74.8295 34.0155 74.8899 33.8307L75.16 33.0026C75.1884 32.9208 75.16 32.8284 75.0854 32.7787L74.3817 32.2669C74.2253 32.1532 74.3035 31.9044 74.4989 31.9044H75.3697C75.455 31.9044 75.5332 31.8475 75.5616 31.7658L75.8317 30.9377C75.8921 30.7529 76.1551 30.7529 76.2155 30.9377H76.2084Z" fill="#FFD36F"/>
<path d="M80.676 30.9377L80.9461 31.7658C80.9745 31.8475 81.0491 31.9044 81.138 31.9044H82.0087C82.2042 31.9044 82.2859 32.1532 82.126 32.2669L81.4223 32.7787C81.3512 32.8284 81.3228 32.9208 81.3477 33.0026L81.6178 33.8307C81.6782 34.0155 81.465 34.1683 81.3086 34.0546L80.6049 33.5428C80.5338 33.493 80.4378 33.493 80.3703 33.5428L79.6666 34.0546C79.5102 34.1683 79.297 34.0155 79.3574 33.8307L79.6275 33.0026C79.6559 32.9208 79.6275 32.8284 79.5529 32.7787L78.8492 32.2669C78.6928 32.1532 78.771 31.9044 78.9665 31.9044H79.8372C79.9225 31.9044 80.0007 31.8475 80.0291 31.7658L80.2992 30.9377C80.3596 30.7529 80.6226 30.7529 80.6831 30.9377H80.676Z" fill="#FFD36F"/>
<path d="M85.1398 30.9377L85.4099 31.7658C85.4384 31.8475 85.513 31.9044 85.6018 31.9044H86.4726C86.6681 31.9044 86.7498 32.1532 86.5899 32.2669L85.8862 32.7787C85.8151 32.8284 85.7867 32.9208 85.8115 33.0026L86.0816 33.8307C86.1421 34.0155 85.9288 34.1683 85.7724 34.0546L85.0687 33.5428C84.9977 33.493 84.9017 33.493 84.8342 33.5428L84.1305 34.0546C83.9741 34.1683 83.7609 34.0155 83.8213 33.8307L84.0914 33.0026C84.1198 32.9208 84.0914 32.8284 84.0167 32.7787L83.313 32.2669C83.1567 32.1532 83.2349 31.9044 83.4303 31.9044H84.3011C84.3864 31.9044 84.4646 31.8475 84.493 31.7658L84.7631 30.9377C84.8235 30.7529 85.0865 30.7529 85.1469 30.9377H85.1398Z" fill="#FFD36F"/>
<path d="M67.2807 30.9377L67.5508 31.7658C67.5792 31.8475 67.6539 31.9044 67.7427 31.9044H68.6135C68.8089 31.9044 68.8907 32.1532 68.7307 32.2669L68.027 32.7787C67.956 32.8284 67.9275 32.9208 67.9524 33.0026L68.2225 33.8307C68.2829 34.0155 68.0697 34.1683 67.9133 34.0546L67.2096 33.5428C67.1385 33.493 67.0426 33.493 66.975 33.5428L66.2713 34.0546C66.115 34.1683 65.9017 34.0155 65.9621 33.8307L66.2323 33.0026C66.2607 32.9208 66.2323 32.8284 66.1576 32.7787L65.4539 32.2669C65.2975 32.1532 65.3757 31.9044 65.5712 31.9044H66.4419C66.5272 31.9044 66.6054 31.8475 66.6339 31.7658L66.904 30.9377C66.9644 30.7529 67.2274 30.7529 67.2878 30.9377H67.2807Z" fill="#FFD36F"/>
<path d="M71.7446 30.9377L72.0147 31.7658C72.0431 31.8475 72.1177 31.9044 72.2066 31.9044H73.0773C73.2728 31.9044 73.3545 32.1532 73.1946 32.2669L72.4909 32.7787C72.4198 32.8284 72.3914 32.9208 72.4163 33.0026L72.6864 33.8307C72.7468 34.0155 72.5336 34.1683 72.3772 34.0546L71.6735 33.5428C71.6024 33.493 71.5064 33.493 71.4389 33.5428L70.7352 34.0546C70.5788 34.1683 70.3656 34.0155 70.426 33.8307L70.6961 33.0026C70.7246 32.9208 70.6961 32.8284 70.6215 32.7787L69.9178 32.2669C69.7614 32.1532 69.8396 31.9044 70.0351 31.9044H70.9058C70.9911 31.9044 71.0693 31.8475 71.0977 31.7658L71.3678 30.9377C71.4283 30.7529 71.6912 30.7529 71.7517 30.9377H71.7446Z" fill="#FFD36F"/>
<path d="M59.28 59.564C59.28 59.214 59.3453 58.8873 59.476 58.584C59.6113 58.276 59.7933 58.0077 60.022 57.779C60.2507 57.5503 60.5167 57.3707 60.82 57.24C61.128 57.1047 61.457 57.037 61.807 57.037C62.045 57.037 62.2737 57.0697 62.493 57.135C62.7123 57.1957 62.9177 57.2843 63.109 57.401C63.3003 57.513 63.473 57.6483 63.627 57.807C63.781 57.9657 63.9117 58.143 64.019 58.339L63.34 58.71C63.2653 58.5747 63.1743 58.4533 63.067 58.346C62.9597 58.234 62.8383 58.1407 62.703 58.066C62.5723 57.9867 62.43 57.926 62.276 57.884C62.1267 57.8373 61.9703 57.814 61.807 57.814C61.5643 57.814 61.3357 57.8607 61.121 57.954C60.911 58.0427 60.7267 58.1663 60.568 58.325C60.4093 58.4837 60.2833 58.6703 60.19 58.885C60.1013 59.095 60.057 59.3213 60.057 59.564C60.057 59.8067 60.1013 60.0353 60.19 60.25C60.2833 60.46 60.4093 60.6443 60.568 60.803C60.7267 60.9617 60.911 61.0877 61.121 61.181C61.3357 61.2697 61.5643 61.314 61.807 61.314C62.143 61.314 62.444 61.23 62.71 61.062C62.9807 60.894 63.1907 60.6747 63.34 60.404L64.026 60.775C63.9187 60.971 63.788 61.1507 63.634 61.314C63.48 61.4727 63.3073 61.6103 63.116 61.727C62.9247 61.8437 62.717 61.9347 62.493 62C62.2737 62.0607 62.045 62.091 61.807 62.091C61.457 62.091 61.128 62.0257 60.82 61.895C60.5167 61.7597 60.2507 61.5777 60.022 61.349C59.7933 61.1203 59.6113 60.8543 59.476 60.551C59.3453 60.243 59.28 59.914 59.28 59.564ZM64.6973 57.1H67.5603V57.835H65.4743V59.151H67.3853V59.886H65.4743V61.265H67.5953V62H64.6973V57.1ZM68.3888 57.1H70.3348C70.5541 57.1 70.7571 57.142 70.9438 57.226C71.1351 57.3053 71.3031 57.4173 71.4478 57.562C71.5924 57.702 71.7044 57.8677 71.7838 58.059C71.8678 58.2457 71.9098 58.4487 71.9098 58.668C71.9098 58.9807 71.8281 59.263 71.6647 59.515C71.5061 59.7623 71.2984 59.9513 71.0418 60.082L72.1268 62H71.2378L70.2438 60.243H69.1658V62H68.3888V57.1ZM70.3348 59.501C70.4468 59.501 70.5541 59.48 70.6568 59.438C70.7594 59.3913 70.8481 59.3307 70.9228 59.256C70.9974 59.1813 71.0558 59.095 71.0978 58.997C71.1444 58.8943 71.1678 58.7847 71.1678 58.668C71.1678 58.556 71.1444 58.451 71.0978 58.353C71.0558 58.2503 70.9974 58.1617 70.9228 58.087C70.8481 58.0123 70.7594 57.954 70.6568 57.912C70.5541 57.8653 70.4468 57.842 70.3348 57.842H69.1658V59.501H70.3348ZM73.9103 57.835H72.5103V57.1H76.0873V57.835H74.6873V62H73.9103V57.835ZM76.7086 57.1H77.4856V62H76.7086V57.1ZM78.4654 57.1H81.3284V57.835H79.2424V59.214H81.2444V59.949H79.2424V62H78.4654V57.1ZM82.2115 57.1H82.9885V62H82.2115V57.1ZM83.9473 57.1H86.8103V57.835H84.7243V59.151H86.6353V59.886H84.7243V61.265H86.8453V62H83.9473V57.1ZM87.6598 57.1H89.5288C89.8788 57.1 90.2054 57.163 90.5088 57.289C90.8121 57.415 91.0781 57.59 91.3068 57.814C91.5354 58.0333 91.7151 58.2923 91.8458 58.591C91.9764 58.8897 92.0418 59.214 92.0418 59.564C92.0418 59.914 91.9764 60.2383 91.8458 60.537C91.7151 60.831 91.5354 61.0877 91.3068 61.307C91.0781 61.5217 90.8121 61.692 90.5088 61.818C90.2054 61.9393 89.8788 62 89.5288 62H87.6598V57.1ZM88.4368 57.835V61.265H89.5288C89.7714 61.265 89.9978 61.223 90.2078 61.139C90.4178 61.0503 90.5998 60.929 90.7537 60.775C90.9124 60.621 91.0361 60.4413 91.1248 60.236C91.2181 60.026 91.2648 59.7997 91.2648 59.557C91.2648 59.3143 91.2181 59.088 91.1248 58.878C91.0361 58.668 90.9124 58.486 90.7537 58.332C90.5998 58.178 90.4178 58.0567 90.2078 57.968C89.9978 57.8793 89.7714 57.835 89.5288 57.835H88.4368Z" fill="white"/>
<path d="M60.9192 31.8765C60.9451 32.0235 60.9402 32.1653 60.9046 32.3019C60.8689 32.4385 60.804 32.5638 60.7096 32.6776C60.5899 32.8221 60.4424 32.9289 60.2672 32.9978C60.0959 33.0664 59.86 33.1127 59.5593 33.1369C59.3688 33.3446 59.1484 33.4925 58.8982 33.5806C58.6498 33.6665 58.3984 33.687 58.1438 33.6423C57.8888 33.5935 57.6551 33.4811 57.4427 33.3052C57.2216 33.122 57.0648 32.9035 56.9723 32.6496C56.8817 32.3936 56.8631 32.1308 56.9165 31.8613C56.9678 31.5899 57.0896 31.3382 57.2818 31.1061C57.4723 30.8762 57.6961 30.7109 57.9532 30.61C58.2081 30.5073 58.4688 30.4778 58.7354 30.5215C58.9998 30.5633 59.2437 30.6767 59.467 30.8617C59.6553 31.0177 59.7965 31.1993 59.8907 31.4066C59.9867 31.6116 60.0312 31.8275 60.0242 32.0544C60.019 32.279 59.9638 32.4972 59.8584 32.709C60.0029 32.6995 60.1217 32.6742 60.2148 32.6332C60.3119 32.5918 60.3912 32.5338 60.4529 32.4594C60.5871 32.2974 60.6375 32.1028 60.6041 31.8758L60.9192 31.8765ZM57.7148 32.9768C57.8812 33.1146 58.064 33.2015 58.2633 33.2373C58.4621 33.2691 58.6561 33.2489 58.8452 33.1766C59.0361 33.1022 59.2014 32.9807 59.3411 32.8121C59.4789 32.6457 59.5658 32.4629 59.6016 32.2636C59.6374 32.0644 59.6203 31.8711 59.5502 31.6839C59.4798 31.4926 59.3613 31.328 59.1949 31.1902C59.0285 31.0523 58.8459 30.9675 58.6471 30.9356C58.4478 30.8998 58.2537 30.918 58.0646 30.9903C57.8755 31.0626 57.712 31.1819 57.5741 31.3483C57.4345 31.5169 57.3458 31.7019 57.3082 31.9033C57.2724 32.1025 57.2897 32.2978 57.3601 32.4891C57.4302 32.6764 57.5484 32.8389 57.7148 32.9768Z" fill="white"/>
<path d="M62.0015 30.6202C61.7022 30.8826 61.3942 31.0014 61.0775 30.9766C60.7608 30.9517 60.4619 30.7789 60.1807 30.4582L59.0618 29.1819L59.3825 28.9007L60.4902 30.1643C60.9119 30.6453 61.3333 30.7012 61.7545 30.332C61.9598 30.1521 62.0654 29.9555 62.0713 29.7423C62.0754 29.527 61.9706 29.2975 61.7569 29.0537L60.6492 27.7902L60.9603 27.5175L62.0793 28.7939C62.3623 29.1167 62.4954 29.4367 62.4786 29.754C62.4599 30.0691 62.3009 30.3578 62.0015 30.6202Z" fill="white"/>
<path d="M64.7203 27.6641L63.3883 28.5259L63.5179 29.3309L63.1491 29.5695L62.6626 26.3286L63.0171 26.0992L65.7774 27.8692L65.4015 28.1124L64.7203 27.6641ZM64.4097 27.4588L63.0744 26.5803L63.3283 28.1584L64.4097 27.4588Z" fill="white"/>
<path d="M64.8565 25.0273L65.2416 24.8441L66.3646 27.205L67.8243 26.5106L67.9837 26.8457L66.1389 27.7232L64.8565 25.0273Z" fill="white"/>
<path d="M67.3815 23.9101L67.7815 23.7619L68.8187 26.5613L68.4188 26.7095L67.3815 23.9101Z" fill="white"/>
<path d="M69.5104 23.5963L68.5229 23.8656L68.4253 23.5076L70.8077 22.8581L70.9053 23.2161L69.9178 23.4853L70.6054 26.0076L70.1981 26.1186L69.5104 23.5963Z" fill="white"/>
<path d="M72.9483 24.4899L73.0985 25.511L72.6808 25.5724L72.5293 24.5429L71.0732 22.7914L71.5247 22.725L72.6989 24.1429L73.4192 22.4463L73.8369 22.3848L72.9483 24.4899Z" fill="white"/>
<path d="M77.7047 24.6189L76.1195 24.5555L75.7615 25.2881L75.3226 25.2706L76.7928 22.3416L77.2147 22.3584L78.4505 25.3956L78.0031 25.3778L77.7047 24.6189ZM77.5692 24.272L76.9842 22.7846L76.2823 24.2205L77.5692 24.272Z" fill="white"/>
<path d="M79.6786 25.6616C79.4573 25.6232 79.2489 25.5523 79.0533 25.449C78.8609 25.3435 78.7154 25.2258 78.6168 25.0961L78.8292 24.7954C78.9237 24.9157 79.0522 25.0232 79.2147 25.1178C79.3805 25.2101 79.5558 25.2723 79.7407 25.3045C79.9844 25.3468 80.1735 25.3379 80.3081 25.2776C80.4432 25.2145 80.5226 25.1143 80.5465 24.977C80.564 24.8762 80.5445 24.7891 80.488 24.7158C80.4348 24.6402 80.3621 24.577 80.2699 24.5264C80.1805 24.4762 80.0512 24.4148 79.882 24.3421C79.6699 24.2504 79.4999 24.166 79.3719 24.0889C79.2467 24.0123 79.1446 23.9109 79.0655 23.7846C78.9897 23.656 78.9682 23.4978 79.0008 23.3102C79.0281 23.1533 79.0933 23.0189 79.1964 22.9069C79.3024 22.7955 79.4459 22.7166 79.6272 22.6701C79.8084 22.6237 80.0236 22.6222 80.273 22.6655C80.4466 22.6957 80.6136 22.7478 80.7739 22.8218C80.9342 22.8959 81.0672 22.9854 81.1731 23.0903L80.976 23.4024C80.8664 23.3025 80.7449 23.2208 80.6117 23.1573C80.4789 23.0909 80.3453 23.046 80.2109 23.0227C79.9728 22.9813 79.7859 22.9935 79.6504 23.0594C79.5177 23.1258 79.4393 23.2277 79.4155 23.3649C79.398 23.4658 79.4172 23.5542 79.4732 23.6304C79.5298 23.7037 79.6039 23.7671 79.6956 23.8205C79.7906 23.8717 79.9201 23.9317 80.0842 24.0006C80.2962 24.0923 80.4649 24.1764 80.5901 24.253C80.7153 24.3296 80.816 24.4308 80.8923 24.5566C80.9713 24.6829 80.9948 24.8385 80.9626 25.0234C80.9359 25.1774 80.8693 25.3116 80.7628 25.4259C80.6569 25.5373 80.5119 25.616 80.3279 25.6619C80.1443 25.7051 79.9279 25.705 79.6786 25.6616Z" fill="white"/>
<path d="M82.1958 26.2588C81.9808 26.1936 81.7826 26.0978 81.6011 25.9714C81.4231 25.8431 81.2931 25.7086 81.211 25.5678L81.4586 25.2953C81.5377 25.4263 81.6521 25.5486 81.8018 25.6624C81.955 25.7743 82.1215 25.8575 82.301 25.9119C82.5377 25.9838 82.7265 25.998 82.8675 25.9546C83.0092 25.9085 83.1003 25.8187 83.1408 25.6854C83.1705 25.5875 83.1618 25.4987 83.1147 25.419C83.0711 25.3374 83.0066 25.2659 82.9213 25.2043C82.8387 25.1436 82.7179 25.0668 82.5589 24.974C82.3596 24.8571 82.2012 24.7526 82.0836 24.6604C81.9687 24.5691 81.8797 24.4559 81.8167 24.3209C81.7572 24.184 81.7551 24.0244 81.8104 23.8422C81.8566 23.6898 81.9378 23.5644 82.0538 23.4659C82.1726 23.3682 82.3248 23.3074 82.5103 23.2835C82.6958 23.2596 82.9097 23.2843 83.1518 23.3578C83.3205 23.409 83.4799 23.4811 83.6299 23.5742C83.7799 23.6673 83.9011 23.7724 83.9933 23.8895L83.7595 24.1751C83.6629 24.0626 83.5524 23.9667 83.4279 23.8873C83.3043 23.8052 83.1771 23.7443 83.0466 23.7047C82.8153 23.6345 82.6284 23.6239 82.4858 23.6727C82.3459 23.7224 82.2558 23.8139 82.2153 23.9472C82.1856 24.0451 82.1939 24.1353 82.2402 24.2177C82.2873 24.2974 82.3531 24.3693 82.4376 24.4336C82.5257 24.496 82.6469 24.5714 82.8013 24.6598C83.0006 24.7767 83.1576 24.8809 83.2725 24.9722C83.3875 25.0635 83.4751 25.1763 83.5354 25.3104C83.5984 25.4454 83.6027 25.6027 83.5482 25.7823C83.5028 25.9319 83.4203 26.057 83.3007 26.1573C83.1819 26.255 83.0284 26.3154 82.8401 26.3385C82.6527 26.3589 82.4379 26.3323 82.1958 26.2588Z" fill="white"/>
<path d="M84.9456 27.3063C84.5844 27.139 84.351 26.9056 84.2454 26.606C84.1397 26.3064 84.1765 25.9631 84.3557 25.5761L85.0691 24.0358L85.456 24.2151L84.7499 25.7398C84.481 26.3203 84.6008 26.7283 85.109 26.9637C85.3567 27.0784 85.5792 27.0952 85.7765 27.0143C85.975 26.9307 86.1423 26.7419 86.2785 26.4478L86.9847 24.923L87.3601 25.0969L86.6467 26.6371C86.4663 27.0267 86.2277 27.2781 85.9309 27.3913C85.6352 27.5019 85.3068 27.4736 84.9456 27.3063Z" fill="white"/>
<path d="M88.4772 29.3109L88.4443 28.1908C88.3747 28.1518 88.3209 28.1197 88.2829 28.0947L87.667 27.6885L87.1669 28.4469L86.8108 28.2121L88.4542 25.7198L89.4263 26.3607C89.7491 26.5736 89.9522 26.8182 90.0356 27.0945C90.119 27.3709 90.0715 27.6444 89.8931 27.915C89.7663 28.1073 89.6108 28.2397 89.4267 28.3124C89.2425 28.3851 89.0423 28.3944 88.8259 28.3403L88.8653 29.5668L88.4772 29.3109ZM88.4718 27.785C88.6973 27.9337 88.9015 27.9985 89.0843 27.9794C89.2672 27.9604 89.4181 27.8606 89.537 27.6802C89.656 27.4998 89.6874 27.323 89.6313 27.1498C89.5768 26.9742 89.4368 26.8121 89.2113 26.6634L88.606 26.2643L87.8665 27.3859L88.4718 27.785Z" fill="white"/>
<path d="M91.1894 31.0908L90.9449 31.3699L89.3153 29.9423L91.2825 27.6967L92.8672 29.085L92.6228 29.3641L91.3588 28.2568L90.7546 28.9465L91.8806 29.9329L91.6417 30.2056L90.5157 29.2192L89.8806 29.9442L91.1894 31.0908Z" fill="white"/>
<path d="M93.6653 29.8743L94.4812 30.832C94.6859 31.0723 94.8199 31.326 94.8833 31.5933C94.9466 31.8605 94.935 32.1188 94.8486 32.368C94.7661 32.6176 94.6134 32.8373 94.3905 33.0272C94.1676 33.2171 93.9253 33.3339 93.6636 33.3775C93.406 33.4215 93.1503 33.391 92.8965 33.286C92.6427 33.181 92.4134 33.0084 92.2088 32.7681L91.3928 31.8104L93.6653 29.8743ZM92.4746 32.508C92.6313 32.692 92.8044 32.8228 92.9938 32.9005C93.1851 32.9803 93.3769 33.0037 93.5691 32.9706C93.7635 32.9358 93.9451 32.8464 94.1139 32.7026C94.2827 32.5588 94.3987 32.3946 94.4619 32.21C94.5272 32.0237 94.5356 31.8297 94.4872 31.6282C94.4406 31.4288 94.3389 31.2371 94.1822 31.0532L93.6595 30.4396L91.9519 31.8944L92.4746 32.508Z" fill="white"/>
<path fill-rule="evenodd" clip-rule="evenodd" d="M62.3667 41.7534L63.2635 43.9232C63.2846 43.9765 63.3324 44.0128 63.3873 44.0172L65.6371 44.2388H65.6411C65.7448 44.2497 65.8402 44.3026 65.9071 44.3863C65.974 44.4699 66.0069 44.5776 65.9988 44.6863C65.9907 44.795 65.9422 44.8961 65.8638 44.9678L64.1682 46.5311C64.1259 46.5682 64.1075 46.6273 64.1208 46.6834L64.6145 48.9901C64.6378 49.0969 64.62 49.209 64.5649 49.3021C64.5099 49.3952 64.422 49.4619 64.3204 49.4879C64.2187 49.5138 64.1113 49.4969 64.0215 49.4408L62.0768 48.2366C62.0299 48.2065 61.9707 48.2065 61.9238 48.2366L59.9791 49.4408C59.8893 49.497 59.7819 49.5141 59.6802 49.4882C59.5784 49.4622 59.4905 49.3954 59.4355 49.3022C59.3804 49.2091 59.3627 49.097 59.3861 48.9901L59.8798 46.6834C59.8931 46.6273 59.8747 46.5682 59.8325 46.5311L58.1368 44.9684C58.0577 44.8964 58.009 44.7948 58.0011 44.6855C57.9933 44.5762 58.0269 44.468 58.0947 44.3845C58.1625 44.3009 58.2591 44.2486 58.3634 44.239L60.6137 44.0173C60.6686 44.0129 60.7165 43.9766 60.7375 43.9233L61.6339 41.7534C61.6749 41.6526 61.7522 41.5728 61.8491 41.5312C61.9459 41.4896 62.0546 41.4896 62.1514 41.5312C62.2483 41.5728 62.3257 41.6526 62.3667 41.7534Z" fill="#FFBF40"/>
<path fill-rule="evenodd" clip-rule="evenodd" d="M75.5501 39.8802L76.8953 43.1348C76.9269 43.2147 76.9987 43.2692 77.081 43.2757L80.4557 43.6082H80.4616C80.6172 43.6246 80.7604 43.7039 80.8607 43.8294C80.961 43.9548 81.0104 44.1164 80.9982 44.2794C80.986 44.4425 80.9133 44.5941 80.7957 44.7018L78.2522 47.0466C78.1888 47.1023 78.1613 47.191 78.1812 47.2751L78.9218 50.7352C78.9567 50.8954 78.93 51.0634 78.8474 51.2031C78.7649 51.3428 78.6331 51.4429 78.4806 51.4818C78.3281 51.5207 78.167 51.4954 78.0322 51.4112L75.1152 49.605C75.0448 49.5597 74.9561 49.5597 74.8858 49.605L71.9687 51.4112C71.8339 51.4956 71.6728 51.5211 71.5203 51.4822C71.3676 51.4433 71.2358 51.3431 71.1532 51.2033C71.0706 51.0636 71.0441 50.8954 71.0791 50.7352L71.8197 47.2751C71.8396 47.191 71.8121 47.1023 71.7487 47.0466L69.2052 44.7026C69.0866 44.5946 69.0136 44.4422 69.0017 44.2782C68.9899 44.1143 69.0403 43.952 69.142 43.8267C69.2437 43.7013 69.3886 43.6229 69.5451 43.6085L72.9206 43.2759C73.0029 43.2693 73.0747 43.2148 73.1063 43.135L74.4508 39.8801C74.5124 39.7288 74.6283 39.6091 74.7736 39.5468C74.9189 39.4844 75.0818 39.4844 75.2272 39.5468C75.3724 39.6091 75.4884 39.7288 75.5499 39.8801L75.5501 39.8802Z" fill="#FFBF40"/>
<path fill-rule="evenodd" clip-rule="evenodd" d="M88.3667 41.7534L89.2635 43.9232C89.2846 43.9765 89.3324 44.0128 89.3873 44.0172L91.6371 44.2388H91.6411C91.7448 44.2497 91.8402 44.3026 91.9071 44.3863C91.974 44.4699 92.0069 44.5776 91.9988 44.6863C91.9907 44.795 91.9422 44.8961 91.8638 44.9678L90.1682 46.5311C90.1259 46.5682 90.1075 46.6273 90.1208 46.6834L90.6145 48.9901C90.6378 49.0969 90.62 49.209 90.5649 49.3021C90.5099 49.3952 90.422 49.4619 90.3204 49.4879C90.2187 49.5138 90.1113 49.4969 90.0215 49.4408L88.0768 48.2366C88.0299 48.2065 87.9707 48.2065 87.9238 48.2366L85.9791 49.4408C85.8893 49.497 85.7819 49.5141 85.6802 49.4882C85.5784 49.4622 85.4905 49.3954 85.4355 49.3022C85.3804 49.2091 85.3627 49.097 85.3861 48.9901L85.8798 46.6834C85.8931 46.6273 85.8747 46.5682 85.8325 46.5311L84.1368 44.9684C84.0577 44.8964 84.009 44.7948 84.0011 44.6855C83.9933 44.5762 84.0269 44.468 84.0947 44.3845C84.1625 44.3009 84.2591 44.2486 84.3634 44.239L86.6137 44.0173C86.6686 44.0129 86.7165 43.9766 86.7375 43.9233L87.6339 41.7534C87.6749 41.6526 87.7522 41.5728 87.8491 41.5312C87.9459 41.4896 88.0546 41.4896 88.1514 41.5312C88.2483 41.5728 88.3256 41.6526 88.3666 41.7534L88.3667 41.7534Z" fill="#FFBF40"/>
<defs>
<clipPath id="clip0_240_714">
<rect width="155.966" height="141.613" fill="white" transform="translate(10.8218 71) rotate(4.38269)"/>
</clipPath>
</defs>
</svg>
