<svg width="284" height="278" viewBox="0 0 284 278" fill="none" xmlns="http://www.w3.org/2000/svg">
<g clip-path="url(#clip0_240_542)">
<g clip-path="url(#clip1_240_542)">
<rect x="192" y="9" width="54" height="54" rx="27" fill="#472F92"/>
<path d="M221.567 38.5265L213.018 47.0561C212.277 47.795 211.306 48.166 210.332 48.166C209.358 48.166 208.391 47.795 207.65 47.0561C206.168 45.5782 206.168 43.1804 207.65 41.7055L213.517 35.8512L207.65 29.9999C206.168 28.522 206.168 26.1242 207.65 24.6493C209.132 23.1683 211.536 23.1683 213.018 24.6493L221.567 33.1759C223.048 34.6538 223.048 37.0486 221.567 38.5265ZM231.461 44.6462C231.461 46.7515 229.747 48.4616 227.636 48.4616C226.578 48.4616 225.622 48.0333 224.929 47.3426C224.237 46.6519 223.811 45.6988 223.811 44.6462V27.3758C223.811 25.2676 225.522 23.5604 227.636 23.5604C228.691 23.5604 229.647 23.9857 230.34 24.6764C231.032 25.3671 231.461 26.3202 231.461 27.3758V44.6462Z" fill="white"/>
<circle cx="239" cy="19" r="9" fill="white"/>
<path d="M239 11.1428C234.669 11.1428 231.143 14.6687 231.143 19C231.143 23.3314 234.669 26.8571 239 26.8571C243.331 26.8571 246.857 23.3312 246.857 19C246.857 14.6688 243.331 11.1428 239 11.1428ZM242.56 15.7777C243.21 15.7611 243.542 16.5507 243.076 17.0041L238.792 21.2911C238.513 21.5696 238.061 21.5696 237.782 21.2911L235.638 19.1472C234.921 18.4743 235.975 17.4206 236.648 18.1378L238.285 19.7751L242.067 15.9941C242.196 15.8604 242.374 15.7831 242.56 15.7777Z" fill="#22C55E"/>
<rect x="35" y="9" width="54" height="54" rx="27" fill="#00529C"/>
<path d="M79.5442 24.3H70.8349L60.1904 47.7002H66.4772C68.0611 47.7002 69.2824 46.8495 69.989 45.3014C70.6961 43.7533 79.5442 24.3 79.5442 24.3Z" fill="white"/>
<path d="M66.4333 24.3C64.8493 24.3 63.6267 25.1555 62.9209 26.7002L53.3683 47.7002H57.3801L68.0259 24.3H66.4333Z" fill="#EF3829"/>
<path d="M55.3939 37.0654H45.4853C44.9163 37.0654 44.4557 37.5402 44.4557 38.1264C44.4557 38.4177 44.569 38.6843 44.7587 38.8739L51.4518 45.7356L55.3939 37.0654Z" fill="white"/>
<circle cx="85" cy="19" r="9" fill="white"/>
<path d="M85 11.1428C80.6686 11.1428 77.1428 14.6687 77.1428 19C77.1428 23.3314 80.6687 26.8571 85 26.8571C89.3312 26.8571 92.8571 23.3312 92.8571 19C92.8571 14.6688 89.3312 11.1428 85 11.1428ZM88.5597 15.7777C89.2097 15.7611 89.5418 16.5507 89.0761 17.0041L84.7921 21.2911C84.5131 21.5696 84.0607 21.5696 83.7818 21.2911L81.6381 19.1472C80.921 18.4743 81.9755 17.4206 82.6482 18.1378L84.2855 19.7751L88.0667 15.9941C88.1965 15.8604 88.3736 15.7831 88.5597 15.7777Z" fill="#D9D9D9"/>
<circle cx="151" cy="59" r="9" fill="white"/>
<path d="M151 51.1428C146.669 51.1428 143.143 54.6687 143.143 59C143.143 63.3314 146.669 66.8571 151 66.8571C155.331 66.8571 158.857 63.3312 158.857 59C158.857 54.6688 155.331 51.1428 151 51.1428ZM154.56 55.7777C155.21 55.7611 155.542 56.5507 155.076 57.0041L150.792 61.2911C150.513 61.5696 150.061 61.5696 149.782 61.2911L147.638 59.1472C146.921 58.4743 147.975 57.4206 148.648 58.1378L150.285 59.7751L154.067 55.9941C154.196 55.8604 154.374 55.7831 154.56 55.7777Z" fill="#D9D9D9"/>
<g filter="url(#filter0_b_240_542)">
<circle cx="142" cy="250" r="218" fill="white" fill-opacity="0.1"/>
<circle cx="142" cy="250" r="217.3" stroke="white" stroke-width="1.4"/>
</g>
<rect x="112" y="45" width="54" height="54" rx="27" fill="#2A007C"/>
<path d="M148.55 70.7014L149.738 72.0101L150.881 70.7014H153.322L150.937 73.3842L153.355 76.089H150.815L149.639 74.7699L148.473 76.089H146.021L148.418 73.3954L146.021 70.7014H148.55Z" fill="#FF5900"/>
<path d="M146.021 70.7014V72.5217H143.306V74.1921H146.021V76.089H141.311V67.6023H146.021V69.494H143.306V70.7014H146.021Z" fill="#FF5900"/>
<path d="M139.324 67.6023V71.0754H139.302C138.862 70.5698 138.312 70.394 137.674 70.394C136.368 70.394 135.384 71.2824 135.039 72.4563C134.644 71.1628 133.628 70.3697 132.122 70.3697C130.898 70.3697 129.932 70.9187 129.428 71.8135V70.7014H126.899V69.494H129.659V67.6023H124.645V76.089H126.899V72.5217H129.146C129.079 72.7837 129.043 73.0644 129.043 73.3607C129.043 75.1308 130.396 76.3733 132.122 76.3733C133.573 76.3733 134.53 75.6918 135.035 74.4497H133.104C132.842 74.8233 132.644 74.9338 132.122 74.9338C131.516 74.9338 130.994 74.4054 130.994 73.779H134.927C135.098 75.185 136.193 76.3976 137.696 76.3976C138.345 76.3976 138.939 76.0786 139.301 75.5403H139.323V76.0898H141.31V67.6023H139.324ZM131.057 72.5469C131.182 72.0077 131.6 71.6556 132.122 71.6556C132.697 71.6556 133.094 71.997 133.198 72.5469C133.242 72.5469 131.057 72.5469 131.057 72.5469ZM138.117 74.797C137.385 74.797 136.93 74.1144 136.93 73.4018C136.93 72.6402 137.326 71.9076 138.117 71.9076C138.939 71.9076 139.265 72.6402 139.265 73.4018C139.265 74.1239 138.919 74.797 138.117 74.797Z" fill="white"/>
<circle cx="162" cy="55" r="9" fill="white"/>
<path d="M162 47.1428C157.669 47.1428 154.143 50.6687 154.143 55C154.143 59.3314 157.669 62.8571 162 62.8571C166.331 62.8571 169.857 59.3312 169.857 55C169.857 50.6688 166.331 47.1428 162 47.1428ZM165.56 51.7777C166.21 51.7611 166.542 52.5507 166.076 53.0041L161.792 57.2911C161.513 57.5696 161.061 57.5696 160.782 57.2911L158.638 55.1472C157.921 54.4743 158.975 53.4206 159.648 54.1378L161.285 55.7751L165.067 51.9941C165.196 51.8604 165.374 51.7831 165.56 51.7777Z" fill="#D9D9D9"/>
<g filter="url(#filter1_b_240_542)">
<circle cx="142" cy="303" r="218" fill="white" fill-opacity="0.1"/>
<circle cx="142" cy="303" r="217.3" stroke="white" stroke-width="1.4"/>
</g>
<rect x="188.714" y="120.303" width="52.5536" height="52.5536" rx="26.2768" fill="#301506"/>
<path fill-rule="evenodd" clip-rule="evenodd" d="M205.211 141.898L205.3 151.478L207.577 154.136L214.407 157.555L222.8 153.672L224.541 149.747L224.362 137.044L218.023 136.875L211.417 137.888L205.39 141.18L205.211 141.898Z" fill="#301506"/>
<path d="M214.99 134.975C211.012 134.975 207.542 135.703 204.675 137.139V148.619C204.675 151.035 205.635 153.055 207.451 154.462C209.137 155.77 214.352 157.924 214.991 158.186C215.597 157.937 220.873 155.749 222.532 154.462C224.347 153.056 225.307 151.035 225.307 148.619V137.139C222.441 135.703 218.97 134.975 214.99 134.975L214.99 134.975ZM220.881 137.198C222.068 137.213 223.233 137.282 224.359 137.381V148.619C224.359 150.779 223.53 152.523 221.931 153.769C220.502 154.881 216.193 156.706 214.991 157.207C213.772 156.7 209.453 154.852 208.049 153.769C206.46 152.545 205.623 150.759 205.623 148.62V142.053C210.192 138.092 215.74 137.135 220.881 137.198L220.881 137.198ZM215.259 142.431C214.28 142.431 213.491 142.638 212.84 143.035V154.092H214.636V150.52C214.815 150.57 215.075 150.616 215.443 150.616C217.435 150.616 218.58 148.919 218.58 146.441C218.58 143.968 217.401 142.431 215.259 142.431L215.259 142.431ZM221.394 142.431C220.213 142.463 218.978 143.272 218.986 144.643C218.989 145.545 219.254 146.22 220.733 147.041C221.523 147.479 221.841 147.768 221.855 148.3C221.87 148.892 221.437 149.249 220.779 149.247C220.206 149.243 219.522 148.942 219.063 148.556V150.118C219.625 150.435 220.327 150.644 221.035 150.644C222.809 150.644 223.601 149.46 223.635 148.375C223.669 147.385 223.38 146.637 221.88 145.804C221.211 145.433 220.682 145.189 220.7 144.571C220.717 143.968 221.247 143.757 221.755 143.761C222.382 143.766 222.989 144.094 223.363 144.458V142.983C223.048 142.753 222.379 142.402 221.394 142.431L221.394 142.431ZM206.539 142.603V147.936C206.539 149.734 207.439 150.645 209.215 150.645C210.313 150.645 211.234 150.404 211.919 149.964V142.603H210.128V148.998C209.932 149.124 209.643 149.205 209.278 149.205C208.456 149.205 208.333 148.492 208.333 148.011V142.603H206.539L206.539 142.603ZM215.271 143.797C216.313 143.797 216.744 144.583 216.744 146.484C216.744 148.339 216.251 149.235 215.218 149.235C214.975 149.235 214.764 149.178 214.635 149.132V143.92C214.781 143.852 215.028 143.798 215.271 143.798V143.797Z" fill="#FAB80A"/>
<rect x="35" y="114" width="54" height="54" rx="27" fill="#333366"/>
<path d="M75.3838 152.739L80.3033 129.261H48.1278L43.2174 152.739H75.3838Z" fill="white"/>
<path d="M48.797 130.188C48.797 130.188 66.6843 133.918 67.037 133.982C71.1426 134.717 71.016 135.525 71.016 135.525C73.8917 135.507 74.2534 135.626 74.7508 136.058C76.261 137.344 73.8013 141.128 73.8013 141.128C73.4486 141.395 46.8347 151.83 46.8347 151.83H74.6785L79.2272 130.087H48.797V130.188Z" fill="#333366"/>
<path d="M69.6234 137.234C69.2164 137.436 68.1674 137.546 67.67 137.592C67.1908 137.629 67.0642 137.684 67.0551 137.868C67.0461 138.033 67.1275 138.125 67.8057 138.125C69.3702 138.125 72.1826 137.528 73.0326 137.803C73.4848 137.95 73.1231 138.759 72.7523 139.824C72.6076 140.237 72.8879 140.21 73.0507 140.026C73.2135 139.842 73.946 138.492 74.0274 137.794C74.1359 136.811 73.313 136.664 72.1645 136.664H70.3468C70.2473 136.664 70.175 136.729 70.0574 136.885C69.967 137.013 69.8856 137.096 69.6234 137.234Z" fill="#333366"/>
<path d="M47.7661 135.112L44.2755 151.83C44.2755 151.83 54.9825 146.493 56.2848 145.813C58.9706 144.417 62.6783 142.561 66.1056 141.377C66.7567 141.147 69.5601 140.274 71.1878 139.98C71.8209 139.861 72.0831 139.76 72.0831 139.631C72.056 139.291 71.423 139.264 70.3468 139.319C67.0642 139.475 60.7792 142.02 58.9706 142.984L56.9268 136.554H69.9851C70.5729 134.882 62.2532 135.121 62 135.103H47.7661V135.112Z" fill="#333366"/>
<path d="M80.7826 150.14C80.7826 151.132 80.014 151.912 79.0192 151.912C78.0335 151.912 77.2377 151.132 77.2377 150.14C77.2377 149.166 78.0245 148.385 79.0192 148.385C80.014 148.385 80.7826 149.166 80.7826 150.14ZM77.6808 150.14C77.6808 150.92 78.2505 151.536 79.0283 151.536C79.7879 151.536 80.3395 150.92 80.3395 150.149C80.3395 149.368 79.7788 148.734 79.0102 148.734C78.2505 148.743 77.6808 149.368 77.6808 150.14ZM78.7389 151.058H78.341V149.304C78.4947 149.276 78.7208 149.249 79.0011 149.249C79.3267 149.249 79.4714 149.304 79.598 149.377C79.6884 149.451 79.7698 149.588 79.7698 149.763C79.7698 149.956 79.6251 150.103 79.4081 150.167V150.185C79.5799 150.25 79.6703 150.378 79.7246 150.617C79.7788 150.884 79.806 150.994 79.8512 151.058H79.4171C79.3629 150.994 79.3357 150.838 79.2815 150.626C79.2543 150.433 79.1458 150.351 78.9197 150.351H78.7298V151.058H78.7389ZM78.757 150.066H78.9469C79.1639 150.066 79.3448 149.993 79.3448 149.809C79.3448 149.653 79.2272 149.542 78.974 149.542C78.8655 149.542 78.7931 149.552 78.757 149.561V150.066Z" fill="white"/>
<circle cx="85" cy="124" r="9" fill="white"/>
<path d="M85 116.143C80.6686 116.143 77.1428 119.669 77.1428 124C77.1428 128.331 80.6687 131.857 85 131.857C89.3312 131.857 92.8571 128.331 92.8571 124C92.8571 119.669 89.3312 116.143 85 116.143ZM88.5597 120.778C89.2097 120.761 89.5418 121.551 89.0761 122.004L84.7921 126.291C84.5131 126.57 84.0607 126.57 83.7818 126.291L81.6381 124.147C80.921 123.474 81.9755 122.421 82.6482 123.138L84.2855 124.775L88.0667 120.994C88.1965 120.86 88.3736 120.783 88.5597 120.778Z" fill="#D9D9D9"/>
<g filter="url(#filter2_b_240_542)">
<circle cx="141.513" cy="311.719" r="173.719" fill="white" fill-opacity="0.14"/>
<circle cx="141.513" cy="311.719" r="173.019" stroke="white" stroke-width="1.4"/>
</g>
<rect x="113" y="152" width="54" height="54" rx="27" fill="#FECC00"/>
<path d="M132.135 178.191C131.942 178.455 131.618 178.914 131.421 179.182C131.321 179.318 131.14 179.566 131.739 179.566C132.373 179.566 134.893 179.566 134.893 179.566C134.893 179.566 135.401 178.87 135.827 178.287C136.407 177.495 135.877 175.847 133.805 175.847C131.95 175.847 125.644 175.847 125.644 175.847L124.229 177.782C124.229 177.782 131.565 177.782 131.941 177.782C132.331 177.782 132.325 177.932 132.135 178.191ZM129.818 180.043C129.219 180.043 129.4 179.795 129.5 179.659C129.697 179.391 130.026 178.937 130.22 178.673C130.41 178.414 130.415 178.264 130.025 178.264C129.649 178.264 126.498 178.264 126.498 178.264L123.656 182.153C123.656 182.153 128.732 182.153 130.587 182.153C132.876 182.153 134.15 180.586 134.543 180.044C134.543 180.043 130.452 180.043 129.818 180.043ZM134.327 182.153H138.392L139.933 180.043L135.868 180.044C135.867 180.043 134.327 182.153 134.327 182.153ZM144.816 175.847L143.257 177.979H141.442L143.001 175.847H138.937L136.218 179.566H146.162L148.88 175.847H144.816ZM140.207 182.153H144.271L145.813 180.044H141.749C141.747 180.043 140.207 182.153 140.207 182.153ZM117.855 180.876V181.324H123.517L123.844 180.876H117.855ZM124.453 180.043H117.855V180.491H124.125L124.453 180.043ZM117.855 182.153H122.911L123.236 181.708H117.855V182.153ZM156.178 181.324H162.145V180.875H156.506L156.178 181.324ZM155.572 182.153H162.145V181.708H155.897L155.572 182.153ZM157.113 180.043L156.787 180.492H162.145V180.043H157.113ZM151.79 179.566L154.509 175.847H150.204C150.203 175.847 147.483 179.566 147.483 179.566H151.79ZM147.135 180.043C147.135 180.043 146.838 180.452 146.693 180.649C146.183 181.343 146.634 182.153 148.3 182.153C150.225 182.153 154.827 182.153 154.827 182.153L156.369 180.044L147.135 180.043Z" fill="#D50029"/>
<circle cx="161" cy="162" r="9" fill="white"/>
<path d="M161 154.143C156.669 154.143 153.143 157.669 153.143 162C153.143 166.331 156.669 169.857 161 169.857C165.331 169.857 168.857 166.331 168.857 162C168.857 157.669 165.331 154.143 161 154.143ZM164.56 158.778C165.21 158.761 165.542 159.551 165.076 160.004L160.792 164.291C160.513 164.57 160.061 164.57 159.782 164.291L157.638 162.147C156.921 161.474 157.975 160.421 158.648 161.138L160.285 162.775L164.067 158.994C164.196 158.86 164.374 158.783 164.56 158.778Z" fill="#D9D9D9"/>
<g filter="url(#filter3_b_240_542)">
<circle cx="141.513" cy="322.513" r="129.924" fill="white" fill-opacity="0.24"/>
<circle cx="141.513" cy="322.513" r="129.224" stroke="white" stroke-width="1.4"/>
</g>
<circle cx="233" cy="128" r="9" fill="white"/>
<path d="M233 120.143C228.669 120.143 225.143 123.669 225.143 128C225.143 132.331 228.669 135.857 233 135.857C237.331 135.857 240.857 132.331 240.857 128C240.857 123.669 237.331 120.143 233 120.143ZM236.56 124.778C237.21 124.761 237.542 125.551 237.076 126.004L232.792 130.291C232.513 130.57 232.061 130.57 231.782 130.291L229.638 128.147C228.921 127.474 229.975 126.421 230.648 127.138L232.285 128.775L236.067 124.994C236.196 124.86 236.374 124.783 236.56 124.778Z" fill="#D9D9D9"/>
</g>
</g>
<defs>
<filter id="filter0_b_240_542" x="-82" y="26" width="448" height="448" filterUnits="userSpaceOnUse" color-interpolation-filters="sRGB">
<feFlood flood-opacity="0" result="BackgroundImageFix"/>
<feGaussianBlur in="BackgroundImageFix" stdDeviation="3"/>
<feComposite in2="SourceAlpha" operator="in" result="effect1_backgroundBlur_240_542"/>
<feBlend mode="normal" in="SourceGraphic" in2="effect1_backgroundBlur_240_542" result="shape"/>
</filter>
<filter id="filter1_b_240_542" x="-82" y="79" width="448" height="448" filterUnits="userSpaceOnUse" color-interpolation-filters="sRGB">
<feFlood flood-opacity="0" result="BackgroundImageFix"/>
<feGaussianBlur in="BackgroundImageFix" stdDeviation="3"/>
<feComposite in2="SourceAlpha" operator="in" result="effect1_backgroundBlur_240_542"/>
<feBlend mode="normal" in="SourceGraphic" in2="effect1_backgroundBlur_240_542" result="shape"/>
</filter>
<filter id="filter2_b_240_542" x="-36.2053" y="134" width="355.438" height="355.438" filterUnits="userSpaceOnUse" color-interpolation-filters="sRGB">
<feFlood flood-opacity="0" result="BackgroundImageFix"/>
<feGaussianBlur in="BackgroundImageFix" stdDeviation="2"/>
<feComposite in2="SourceAlpha" operator="in" result="effect1_backgroundBlur_240_542"/>
<feBlend mode="normal" in="SourceGraphic" in2="effect1_backgroundBlur_240_542" result="shape"/>
</filter>
<filter id="filter3_b_240_542" x="-8.41064" y="172.589" width="299.848" height="299.848" filterUnits="userSpaceOnUse" color-interpolation-filters="sRGB">
<feFlood flood-opacity="0" result="BackgroundImageFix"/>
<feGaussianBlur in="BackgroundImageFix" stdDeviation="10"/>
<feComposite in2="SourceAlpha" operator="in" result="effect1_backgroundBlur_240_542"/>
<feBlend mode="normal" in="SourceGraphic" in2="effect1_backgroundBlur_240_542" result="shape"/>
</filter>
<clipPath id="clip0_240_542">
<rect width="284" height="278" rx="16" fill="white"/>
</clipPath>
<clipPath id="clip1_240_542">
<rect width="284" height="332" fill="white" transform="translate(0 -54)"/>
</clipPath>
</defs>
</svg>
