<svg width="232" height="256" viewBox="0 0 232 256" fill="none" xmlns="http://www.w3.org/2000/svg">
<g filter="url(#filter0_d_240_851)">
<rect x="10" y="19.5" width="141" height="174" rx="10" fill="white"/>
<rect x="10.5" y="20" width="140" height="173" rx="9.5" stroke="#F3F4F6"/>
</g>
<circle cx="81" cy="19.5" r="18.5" fill="#F3F4F6" stroke="#F3F4F6"/>
<path d="M84.8284 22.7335C84.5933 22.6513 84.3349 22.6666 84.1113 22.776C83.8875 22.8854 83.7167 23.08 83.6371 23.316C83.3791 24.0486 82.8282 24.6407 82.1162 24.9509C81.4041 25.261 80.5953 25.261 79.8832 24.9509C79.1712 24.6407 78.6202 24.0486 78.3623 23.316C78.2536 22.999 77.9842 22.7639 77.6555 22.6994C77.3266 22.6348 76.9883 22.7507 76.768 23.0031C76.5476 23.2556 76.4787 23.6065 76.5872 23.9234C77.0161 25.1519 77.9376 26.1457 79.1298 26.6662C80.3221 27.1866 81.6775 27.1866 82.8698 26.6662C84.062 26.1457 84.9835 25.1519 85.4124 23.9234C85.493 23.6884 85.4767 23.4307 85.3673 23.2075C85.2577 22.9841 85.0638 22.8138 84.8285 22.7335L84.8284 22.7335Z" fill="#667085"/>
<path d="M91.9379 19.0774V18.6187C91.9379 15.7179 90.7855 12.9358 88.7342 10.8849C86.6832 8.8337 83.9012 7.68127 81.0004 7.68127C78.0997 7.68127 75.3175 8.8337 73.2666 10.8849C71.2154 12.936 70.063 15.718 70.063 18.6187V19.0774C69.3452 19.28 68.713 19.7105 68.2619 20.3044C67.8108 20.8983 67.5654 21.623 67.5631 22.3687V23.6186C67.5629 24.5291 67.9241 25.4023 68.5672 26.0466C69.2104 26.6911 70.0831 27.0539 70.9934 27.0553C71.9039 27.0569 72.7777 26.6971 73.423 26.0549C74.3465 27.9635 75.9562 29.4533 77.9303 30.2267C79.9044 31.0001 82.0978 31.0001 84.0721 30.2267C86.0462 29.4533 87.656 27.9635 88.5795 26.0549C89.2248 26.6974 90.0984 27.0574 91.0089 27.056C91.9194 27.0544 92.7919 26.6916 93.435 26.0471C94.078 25.4025 94.4389 24.5292 94.4382 23.6187V22.3687C94.4359 21.623 94.1905 20.8984 93.7394 20.3045C93.2883 19.7106 92.6561 19.28 91.9383 19.0775L91.9379 19.0774ZM81.0002 9.55593C83.403 9.55868 85.7064 10.5142 87.4056 12.2133C89.1049 13.9123 90.0602 16.2158 90.063 18.6187V19.0774C89.6682 19.1884 89.2969 19.3697 88.9666 19.6125C88.1997 17.3876 86.5375 15.5849 84.3819 14.6406C82.2265 13.6962 79.7743 13.6962 77.619 14.6406C75.4634 15.5849 73.8013 17.3876 73.0343 19.6125C72.704 19.3697 72.3328 19.1884 71.938 19.0774V18.6187C71.9407 16.2159 72.8963 13.9125 74.5953 12.2133C76.2943 10.5141 78.5978 9.55868 81.0008 9.55593H81.0002ZM72.5627 23.6184C72.5627 24.1767 72.2649 24.6926 71.7815 24.9716C71.2979 25.2508 70.7023 25.2508 70.2189 24.9716C69.7355 24.6926 69.4378 24.1767 69.4378 23.6184V22.3685C69.4378 21.8103 69.7355 21.2944 70.2189 21.0153C70.7023 20.7361 71.2979 20.7361 71.7815 21.0153C72.2649 21.2943 72.5627 21.8102 72.5627 22.3685V23.6184ZM81.0002 28.931C79.2598 28.931 77.5906 28.2395 76.3598 27.0088C75.1291 25.7781 74.4377 24.1089 74.4377 22.3685C74.4377 20.6281 75.1291 18.9589 76.3598 17.7282C77.5906 16.4975 79.2598 15.806 81.0002 15.806C82.7406 15.806 84.4098 16.4975 85.6405 17.7282C86.8712 18.9589 87.5627 20.6281 87.5627 22.3685C87.5606 24.1084 86.8687 25.7763 85.6385 27.0068C84.408 28.237 82.7401 28.929 81.0002 28.931ZM92.5625 23.6184C92.5625 24.1767 92.2647 24.6926 91.7813 24.9716C91.2979 25.2508 90.7024 25.2508 90.2187 24.9716C89.7353 24.6926 89.4376 24.1767 89.4376 23.6184V22.3685C89.4376 21.8103 89.7353 21.2944 90.2187 21.0153C90.7024 20.7361 91.2979 20.7361 91.7813 21.0153C92.2647 21.2943 92.5625 21.8102 92.5625 22.3685V23.6184Z" fill="#667085"/>
<rect x="20" y="61.5" width="121" height="122" rx="4" fill="#F3F4F6"/>
<g filter="url(#filter1_d_240_851)">
<rect x="26" y="147.5" width="109" height="30" rx="4" fill="white"/>
</g>
<path fill-rule="evenodd" clip-rule="evenodd" d="M39.1595 163.628L42.2102 160.577C42.4068 160.38 42.7265 160.38 42.9231 160.577C43.1197 160.774 43.1197 161.093 42.9231 161.29L39.8724 164.341L41.3181 168.486C41.5307 169.095 42.1065 169.503 42.7517 169.5C43.3964 169.497 43.969 169.086 44.1773 168.476C45.2516 165.325 46.9791 160.259 47.9191 157.501C48.1052 156.955 47.9644 156.351 47.5572 155.943C47.1493 155.536 46.5455 155.395 45.9997 155.581C43.2416 156.521 38.1747 158.249 35.0244 159.323C34.4139 159.531 34.0026 160.104 34 160.748C33.9975 161.394 34.4047 161.969 35.0142 162.182L39.1595 163.628Z" fill="#6B7280"/>
<circle cx="39.5" cy="81" r="11.5" fill="#6B7280"/>
<path d="M32.4914 84.5V77.2273H33.5887V80.7003H33.6775L36.7279 77.2273H38.1093L35.176 80.5014L38.1199 84.5H36.7989L34.4481 81.2507L33.5887 82.2379V84.5H32.4914ZM39.132 77.2273H40.4637L42.779 82.8807H42.8643L45.1796 77.2273H46.5113V84.5H45.4672V79.2372H45.3998L43.2549 84.4893H42.3884L40.2435 79.2337H40.176V84.5H39.132V77.2273Z" fill="white"/>
<rect x="57" y="77" width="33" height="8" rx="4" fill="#D1D5DB"/>
<rect x="96" y="77" width="16" height="8" rx="4" fill="#D1D5DB"/>
<rect width="61" height="8" rx="4" transform="matrix(-1 0 0 1 104 112)" fill="#D1D5DB"/>
<rect width="26" height="8" rx="4" transform="matrix(-1 0 0 1 104 122)" fill="#D1D5DB"/>
<circle cx="121.5" cy="121" r="11.5" fill="#6B7280"/>
<path d="M116.147 124.5V117.227H118.739C119.302 117.227 119.77 117.324 120.142 117.518C120.516 117.713 120.795 117.981 120.98 118.325C121.164 118.665 121.257 119.06 121.257 119.507C121.257 119.952 121.163 120.344 120.976 120.683C120.792 121.019 120.512 121.28 120.138 121.467C119.766 121.654 119.299 121.748 118.735 121.748H116.772V120.803H118.636C118.991 120.803 119.28 120.752 119.502 120.651C119.727 120.549 119.892 120.401 119.996 120.207C120.1 120.013 120.152 119.779 120.152 119.507C120.152 119.232 120.099 118.995 119.993 118.793C119.888 118.592 119.724 118.438 119.499 118.332C119.276 118.223 118.984 118.168 118.622 118.168H117.244V124.5H116.147ZM119.737 121.219L121.534 124.5H120.284L118.522 121.219H119.737ZM122.592 124.5V117.227H127.102V118.172H123.689V120.388H126.779V121.329H123.689V124.5H122.592Z" fill="white"/>
<path d="M35.1898 46.1H36.6298L39.7738 54.5H38.3458L37.6738 52.688H34.1578L33.4858 54.5H32.0458L35.1898 46.1ZM37.1938 51.428L35.9098 47.996L34.6258 51.428H37.1938ZM45.639 53.336C45.359 53.736 44.995 54.056 44.547 54.296C44.099 54.536 43.611 54.656 43.083 54.656C42.651 54.656 42.243 54.576 41.859 54.416C41.475 54.248 41.139 54.02 40.851 53.732C40.571 53.444 40.347 53.108 40.179 52.724C40.019 52.34 39.939 51.932 39.939 51.5C39.939 51.068 40.019 50.664 40.179 50.288C40.347 49.904 40.571 49.568 40.851 49.28C41.139 48.992 41.475 48.768 41.859 48.608C42.243 48.44 42.651 48.356 43.083 48.356C43.611 48.356 44.095 48.476 44.535 48.716C44.975 48.948 45.339 49.264 45.627 49.664L44.595 50.36C44.403 50.128 44.179 49.948 43.923 49.82C43.667 49.684 43.387 49.616 43.083 49.616C42.819 49.616 42.571 49.668 42.339 49.772C42.115 49.868 41.919 50 41.751 50.168C41.583 50.336 41.447 50.536 41.343 50.768C41.247 50.992 41.199 51.236 41.199 51.5C41.199 51.764 41.247 52.012 41.343 52.244C41.447 52.468 41.583 52.668 41.751 52.844C41.919 53.012 42.115 53.148 42.339 53.252C42.571 53.348 42.819 53.396 43.083 53.396C43.387 53.396 43.667 53.328 43.923 53.192C44.187 53.056 44.411 52.876 44.595 52.652L45.639 53.336ZM52.0257 53.336C51.7457 53.736 51.3817 54.056 50.9337 54.296C50.4857 54.536 49.9977 54.656 49.4697 54.656C49.0377 54.656 48.6297 54.576 48.2457 54.416C47.8617 54.248 47.5257 54.02 47.2377 53.732C46.9577 53.444 46.7337 53.108 46.5657 52.724C46.4057 52.34 46.3257 51.932 46.3257 51.5C46.3257 51.068 46.4057 50.664 46.5657 50.288C46.7337 49.904 46.9577 49.568 47.2377 49.28C47.5257 48.992 47.8617 48.768 48.2457 48.608C48.6297 48.44 49.0377 48.356 49.4697 48.356C49.9977 48.356 50.4817 48.476 50.9217 48.716C51.3617 48.948 51.7257 49.264 52.0137 49.664L50.9817 50.36C50.7897 50.128 50.5657 49.948 50.3097 49.82C50.0537 49.684 49.7737 49.616 49.4697 49.616C49.2057 49.616 48.9577 49.668 48.7257 49.772C48.5017 49.868 48.3057 50 48.1377 50.168C47.9697 50.336 47.8337 50.536 47.7297 50.768C47.6337 50.992 47.5857 51.236 47.5857 51.5C47.5857 51.764 47.6337 52.012 47.7297 52.244C47.8337 52.468 47.9697 52.668 48.1377 52.844C48.3057 53.012 48.5017 53.148 48.7257 53.252C48.9577 53.348 49.2057 53.396 49.4697 53.396C49.7737 53.396 50.0537 53.328 50.3097 53.192C50.5737 53.056 50.7977 52.876 50.9817 52.652L52.0257 53.336ZM55.8564 54.656C55.4244 54.656 55.0164 54.576 54.6324 54.416C54.2484 54.248 53.9124 54.02 53.6244 53.732C53.3444 53.444 53.1204 53.108 52.9524 52.724C52.7924 52.34 52.7124 51.932 52.7124 51.5C52.7124 51.068 52.7924 50.664 52.9524 50.288C53.1204 49.904 53.3444 49.568 53.6244 49.28C53.9124 48.992 54.2484 48.768 54.6324 48.608C55.0164 48.44 55.4244 48.356 55.8564 48.356C56.2884 48.356 56.6964 48.44 57.0804 48.608C57.4644 48.768 57.7964 48.992 58.0764 49.28C58.3644 49.568 58.5884 49.904 58.7484 50.288C58.9164 50.664 59.0004 51.068 59.0004 51.5C59.0004 51.932 58.9164 52.34 58.7484 52.724C58.5884 53.108 58.3644 53.444 58.0764 53.732C57.7964 54.02 57.4644 54.248 57.0804 54.416C56.6964 54.576 56.2884 54.656 55.8564 54.656ZM55.8564 53.396C56.1204 53.396 56.3644 53.348 56.5884 53.252C56.8204 53.148 57.0204 53.012 57.1884 52.844C57.3564 52.668 57.4884 52.468 57.5844 52.244C57.6884 52.012 57.7404 51.764 57.7404 51.5C57.7404 51.236 57.6884 50.992 57.5844 50.768C57.4884 50.536 57.3564 50.336 57.1884 50.168C57.0204 50 56.8204 49.868 56.5884 49.772C56.3644 49.668 56.1204 49.616 55.8564 49.616C55.5924 49.616 55.3444 49.668 55.1124 49.772C54.8884 49.868 54.6884 50 54.5124 50.168C54.3444 50.336 54.2084 50.536 54.1044 50.768C54.0084 50.992 53.9604 51.236 53.9604 51.5C53.9604 51.764 54.0084 52.012 54.1044 52.244C54.2084 52.468 54.3444 52.668 54.5124 52.844C54.6884 53.012 54.8884 53.148 55.1124 53.252C55.3444 53.348 55.5924 53.396 55.8564 53.396ZM60.2166 48.5H61.4766V52.088C61.4766 52.376 61.5206 52.612 61.6086 52.796C61.7046 52.98 61.8206 53.128 61.9566 53.24C62.0926 53.344 62.2446 53.42 62.4126 53.468C62.5886 53.508 62.7526 53.528 62.9046 53.528C63.0646 53.528 63.2246 53.504 63.3846 53.456C63.5526 53.4 63.7006 53.308 63.8286 53.18C63.9646 53.052 64.0766 52.88 64.1646 52.664C64.2526 52.448 64.2966 52.176 64.2966 51.848V48.5H65.5566V54.5H64.2966V53.9C64.0886 54.108 63.8446 54.288 63.5646 54.44C63.2846 54.584 62.9726 54.656 62.6286 54.656C62.4126 54.656 62.1646 54.62 61.8846 54.548C61.6046 54.484 61.3406 54.356 61.0926 54.164C60.8526 53.972 60.6446 53.712 60.4686 53.384C60.3006 53.048 60.2166 52.616 60.2166 52.088V48.5ZM72.2232 54.5H70.9632V50.912C70.9632 50.624 70.9152 50.388 70.8192 50.204C70.7312 50.02 70.6152 49.872 70.4712 49.76C70.3352 49.648 70.1832 49.572 70.0152 49.532C69.8472 49.484 69.6832 49.46 69.5232 49.46C69.3712 49.46 69.2112 49.488 69.0432 49.544C68.8832 49.592 68.7352 49.68 68.5992 49.808C68.4632 49.936 68.3512 50.108 68.2632 50.324C68.1832 50.54 68.1432 50.812 68.1432 51.14V54.5H66.8832V48.5H68.1432V49.1C68.3432 48.892 68.5832 48.716 68.8632 48.572C69.1432 48.42 69.4592 48.344 69.8112 48.344C70.0272 48.344 70.2752 48.38 70.5552 48.452C70.8352 48.516 71.0952 48.644 71.3352 48.836C71.5832 49.028 71.7912 49.292 71.9592 49.628C72.1352 49.956 72.2232 50.384 72.2232 50.912V54.5ZM76.67 54.5C76.59 54.508 76.486 54.512 76.358 54.512C76.238 54.52 76.11 54.524 75.974 54.524C75.838 54.532 75.71 54.536 75.59 54.536C75.47 54.536 75.374 54.536 75.302 54.536C75.078 54.528 74.862 54.496 74.654 54.44C74.446 54.376 74.262 54.272 74.102 54.128C73.95 53.984 73.826 53.788 73.73 53.54C73.642 53.292 73.598 52.984 73.598 52.616V46.808L74.858 46.52V48.5H76.25V49.64H74.858V52.52C74.858 52.856 74.942 53.088 75.11 53.216C75.278 53.336 75.51 53.396 75.806 53.396C75.902 53.396 76.002 53.392 76.106 53.384C76.21 53.368 76.318 53.352 76.43 53.336L76.67 54.5ZM85.2757 50.54L87.9037 46.1L87.9397 46.124V46.1H89.2717V54.5H87.9397V48.512L85.4437 52.724H85.1077L82.5997 48.5V54.512H81.2677V46.1H82.5997V46.124L82.6477 46.1L85.2757 50.54ZM96.1323 54.488H94.8723V54.08C94.6563 54.256 94.3923 54.396 94.0803 54.5C93.7763 54.604 93.4283 54.656 93.0363 54.656C92.6043 54.656 92.2283 54.612 91.9083 54.524C91.5963 54.436 91.3403 54.312 91.1403 54.152C90.9403 53.984 90.7923 53.784 90.6963 53.552C90.6003 53.312 90.5522 53.048 90.5522 52.76C90.5443 52.208 90.7243 51.772 91.0923 51.452C91.4603 51.124 92.0603 50.96 92.8923 50.96C93.3403 50.96 93.7403 50.952 94.0923 50.936C94.4443 50.92 94.7043 50.888 94.8723 50.84V50.516C94.8723 50.196 94.7403 49.932 94.4763 49.724C94.2203 49.516 93.8483 49.412 93.3603 49.412C92.9763 49.412 92.6123 49.492 92.2683 49.652C91.9323 49.804 91.6363 49.992 91.3803 50.216L90.8283 49.316C91.1003 49.052 91.4643 48.824 91.9202 48.632C92.3843 48.432 92.9163 48.332 93.5163 48.332C93.9003 48.332 94.2483 48.38 94.5603 48.476C94.8803 48.564 95.1563 48.696 95.3883 48.872C95.6203 49.048 95.8003 49.264 95.9283 49.52C96.0643 49.776 96.1323 50.068 96.1323 50.396V54.488ZM93.3723 53.66C93.8043 53.66 94.1603 53.564 94.4403 53.372C94.7283 53.18 94.8723 52.916 94.8723 52.58V51.656C94.7523 51.72 94.5523 51.768 94.2723 51.8C93.9923 51.832 93.6603 51.848 93.2763 51.848C92.7723 51.848 92.4003 51.916 92.1603 52.052C91.9203 52.18 91.8003 52.412 91.8003 52.748C91.8003 53.06 91.9403 53.292 92.2203 53.444C92.5083 53.588 92.8923 53.66 93.3723 53.66ZM102.821 54.5H101.561V50.912C101.561 50.624 101.513 50.388 101.417 50.204C101.329 50.02 101.213 49.872 101.069 49.76C100.933 49.648 100.781 49.572 100.613 49.532C100.445 49.484 100.281 49.46 100.121 49.46C99.9688 49.46 99.8088 49.488 99.6408 49.544C99.4808 49.592 99.3328 49.68 99.1968 49.808C99.0608 49.936 98.9488 50.108 98.8608 50.324C98.7808 50.54 98.7408 50.812 98.7408 51.14V54.5H97.4808V48.5H98.7408V49.1C98.9408 48.892 99.1808 48.716 99.4608 48.572C99.7408 48.42 100.057 48.344 100.409 48.344C100.625 48.344 100.873 48.38 101.153 48.452C101.433 48.516 101.693 48.644 101.933 48.836C102.181 49.028 102.389 49.292 102.557 49.628C102.733 49.956 102.821 50.384 102.821 50.912V54.5ZM109.421 54.488H108.161V54.08C107.945 54.256 107.681 54.396 107.369 54.5C107.065 54.604 106.717 54.656 106.325 54.656C105.893 54.656 105.517 54.612 105.197 54.524C104.885 54.436 104.629 54.312 104.429 54.152C104.229 53.984 104.081 53.784 103.985 53.552C103.889 53.312 103.841 53.048 103.841 52.76C103.833 52.208 104.013 51.772 104.381 51.452C104.749 51.124 105.349 50.96 106.181 50.96C106.629 50.96 107.029 50.952 107.381 50.936C107.733 50.92 107.993 50.888 108.161 50.84V50.516C108.161 50.196 108.029 49.932 107.765 49.724C107.509 49.516 107.137 49.412 106.649 49.412C106.265 49.412 105.901 49.492 105.557 49.652C105.221 49.804 104.925 49.992 104.669 50.216L104.117 49.316C104.389 49.052 104.753 48.824 105.209 48.632C105.673 48.432 106.205 48.332 106.805 48.332C107.189 48.332 107.537 48.38 107.849 48.476C108.169 48.564 108.445 48.696 108.677 48.872C108.909 49.048 109.089 49.264 109.217 49.52C109.353 49.776 109.421 50.068 109.421 50.396V54.488ZM106.661 53.66C107.093 53.66 107.449 53.564 107.729 53.372C108.017 53.18 108.161 52.916 108.161 52.58V51.656C108.041 51.72 107.841 51.768 107.561 51.8C107.281 51.832 106.949 51.848 106.565 51.848C106.061 51.848 105.689 51.916 105.449 52.052C105.209 52.18 105.089 52.412 105.089 52.748C105.089 53.06 105.229 53.292 105.509 53.444C105.797 53.588 106.181 53.66 106.661 53.66ZM115.515 53.696C115.299 53.976 115.031 54.208 114.711 54.392C114.399 54.568 114.027 54.656 113.595 54.656C113.139 54.656 112.727 54.576 112.359 54.416C111.991 54.256 111.679 54.036 111.423 53.756C111.167 53.468 110.967 53.132 110.823 52.748C110.687 52.364 110.619 51.952 110.619 51.512C110.619 51.064 110.687 50.648 110.823 50.264C110.967 49.88 111.167 49.548 111.423 49.268C111.679 48.98 111.991 48.756 112.359 48.596C112.727 48.436 113.139 48.356 113.595 48.356C114.027 48.356 114.399 48.448 114.711 48.632C115.031 48.808 115.299 49.04 115.515 49.328V48.5H116.775V54.2C116.775 54.632 116.691 55.024 116.523 55.376C116.363 55.728 116.139 56.028 115.851 56.276C115.563 56.524 115.219 56.716 114.819 56.852C114.427 56.988 113.999 57.056 113.535 57.056C113.183 57.056 112.847 57.02 112.527 56.948C112.215 56.876 111.927 56.776 111.663 56.648C111.399 56.528 111.167 56.376 110.967 56.192C110.767 56.016 110.611 55.82 110.499 55.604L111.579 54.98C111.699 55.22 111.927 55.432 112.263 55.616C112.599 55.8 113.035 55.892 113.571 55.892C113.851 55.892 114.107 55.852 114.339 55.772C114.579 55.692 114.787 55.576 114.963 55.424C115.139 55.28 115.275 55.104 115.371 54.896C115.467 54.688 115.515 54.456 115.515 54.2V53.696ZM113.619 53.48C113.891 53.48 114.143 53.432 114.375 53.336C114.607 53.232 114.807 53.092 114.975 52.916C115.143 52.74 115.275 52.532 115.371 52.292C115.467 52.044 115.515 51.78 115.515 51.5C115.515 51.22 115.467 50.96 115.371 50.72C115.275 50.48 115.143 50.272 114.975 50.096C114.807 49.92 114.607 49.784 114.375 49.688C114.143 49.592 113.891 49.544 113.619 49.544C113.355 49.544 113.115 49.596 112.899 49.7C112.683 49.804 112.495 49.948 112.335 50.132C112.183 50.308 112.063 50.516 111.975 50.756C111.895 50.988 111.855 51.24 111.855 51.512C111.855 51.784 111.895 52.04 111.975 52.28C112.063 52.512 112.183 52.72 112.335 52.904C112.495 53.08 112.683 53.22 112.899 53.324C113.115 53.428 113.355 53.48 113.619 53.48ZM121.13 48.344C121.578 48.344 121.986 48.428 122.354 48.596C122.722 48.764 123.038 48.992 123.302 49.28C123.566 49.568 123.77 49.904 123.914 50.288C124.066 50.672 124.142 51.08 124.142 51.512C124.142 51.6 124.138 51.68 124.13 51.752C124.122 51.816 124.11 51.888 124.094 51.968H119.246C119.334 52.424 119.554 52.804 119.906 53.108C120.258 53.404 120.706 53.552 121.25 53.552C121.586 53.552 121.902 53.48 122.198 53.336C122.494 53.192 122.714 53.004 122.858 52.772L123.842 53.348C123.57 53.756 123.21 54.076 122.762 54.308C122.322 54.54 121.81 54.656 121.226 54.656C120.738 54.656 120.294 54.576 119.894 54.416C119.494 54.256 119.154 54.036 118.874 53.756C118.594 53.468 118.374 53.132 118.214 52.748C118.062 52.364 117.986 51.948 117.986 51.5C117.986 51.052 118.062 50.636 118.214 50.252C118.366 49.868 118.578 49.536 118.85 49.256C119.13 48.976 119.462 48.756 119.846 48.596C120.238 48.428 120.666 48.344 121.13 48.344ZM122.942 50.972C122.878 50.492 122.682 50.12 122.354 49.856C122.034 49.584 121.622 49.448 121.118 49.448C120.854 49.448 120.606 49.492 120.374 49.58C120.15 49.66 119.954 49.772 119.786 49.916C119.618 50.052 119.482 50.212 119.378 50.396C119.282 50.58 119.234 50.772 119.234 50.972H122.942ZM128.435 49.7C128.395 49.684 128.355 49.676 128.315 49.676C128.275 49.676 128.235 49.676 128.195 49.676C127.955 49.676 127.727 49.708 127.511 49.772C127.303 49.836 127.115 49.936 126.947 50.072C126.787 50.208 126.659 50.38 126.563 50.588C126.475 50.796 126.431 51.04 126.431 51.32V54.5H125.171V48.5H126.431V49.592C126.559 49.304 126.783 49.052 127.103 48.836C127.423 48.612 127.831 48.5 128.327 48.5H128.531L128.435 49.7Z" fill="#111827"/>
<g filter="url(#filter2_f_240_851)">
<circle cx="135" cy="188.5" r="25" fill="#A3EDF3" fill-opacity="0.81"/>
</g>
<g filter="url(#filter3_f_240_851)">
<circle cx="165" cy="178.5" r="25" fill="#2F8187" fill-opacity="0.24"/>
</g>
<g filter="url(#filter4_b_240_851)">
<rect x="125" y="163.5" width="42" height="42" rx="12" fill="url(#paint0_linear_240_851)" fill-opacity="0.24"/>
<rect x="124.5" y="163" width="43" height="43" rx="12.5" stroke="white"/>
</g>
<path d="M135.017 190.143L139.295 188.13C139.709 188.21 140.131 188.278 140.557 188.306C140.397 187.697 140.312 187.065 140.312 186.417C140.312 181.805 144.498 178.022 149.794 177.692C148.383 174.962 145.13 173.114 141.45 173.114C136.434 173.114 132.35 176.532 132.35 180.729C132.35 182.697 133.271 184.603 134.897 186.006L134.215 189.522C134.175 189.732 134.255 189.948 134.426 190.079C134.523 190.159 134.647 190.199 134.772 190.199C134.852 190.199 134.937 190.182 135.017 190.143L135.017 190.143Z" fill="#217F86"/>
<path d="M159.65 186.417C159.65 182.214 155.567 178.801 150.55 178.801C145.534 178.801 141.449 182.214 141.449 186.417C141.449 190.615 145.532 194.032 150.55 194.032C151.277 194.032 152.005 193.959 152.705 193.817L156.983 195.836C157.063 195.871 157.141 195.887 157.227 195.887C157.352 195.887 157.471 195.847 157.573 195.767C157.744 195.636 157.824 195.42 157.784 195.21L157.107 191.694C158.752 190.273 159.65 188.413 159.65 186.417L159.65 186.417ZM146 187.981C145.062 187.981 144.294 187.218 144.294 186.274C144.294 185.336 145.061 184.568 146 184.568C146.938 184.568 147.706 185.336 147.706 186.274C147.706 187.218 146.939 187.981 146 187.981ZM150.55 187.981C149.611 187.981 148.843 187.218 148.843 186.274C148.843 185.336 149.611 184.568 150.55 184.568C151.488 184.568 152.256 185.336 152.256 186.274C152.256 187.218 151.488 187.981 150.55 187.981ZM155.101 187.981C154.162 187.981 153.394 187.218 153.394 186.274C153.394 185.336 154.162 184.568 155.101 184.568C156.039 184.568 156.807 185.336 156.807 186.274C156.807 187.218 156.039 187.981 155.101 187.981Z" fill="#217F86"/>
<defs>
<filter id="filter0_d_240_851" x="0" y="13.5" width="161" height="194" filterUnits="userSpaceOnUse" color-interpolation-filters="sRGB">
<feFlood flood-opacity="0" result="BackgroundImageFix"/>
<feColorMatrix in="SourceAlpha" type="matrix" values="0 0 0 0 0 0 0 0 0 0 0 0 0 0 0 0 0 0 127 0" result="hardAlpha"/>
<feOffset dy="4"/>
<feGaussianBlur stdDeviation="5"/>
<feComposite in2="hardAlpha" operator="out"/>
<feColorMatrix type="matrix" values="0 0 0 0 0.647691 0 0 0 0 0.686302 0 0 0 0 0.768352 0 0 0 0.24 0"/>
<feBlend mode="normal" in2="BackgroundImageFix" result="effect1_dropShadow_240_851"/>
<feBlend mode="normal" in="SourceGraphic" in2="effect1_dropShadow_240_851" result="shape"/>
</filter>
<filter id="filter1_d_240_851" x="22" y="147.5" width="117" height="38" filterUnits="userSpaceOnUse" color-interpolation-filters="sRGB">
<feFlood flood-opacity="0" result="BackgroundImageFix"/>
<feColorMatrix in="SourceAlpha" type="matrix" values="0 0 0 0 0 0 0 0 0 0 0 0 0 0 0 0 0 0 127 0" result="hardAlpha"/>
<feOffset dy="4"/>
<feGaussianBlur stdDeviation="2"/>
<feComposite in2="hardAlpha" operator="out"/>
<feColorMatrix type="matrix" values="0 0 0 0 0.884662 0 0 0 0 0.89985 0 0 0 0 0.930223 0 0 0 1 0"/>
<feBlend mode="normal" in2="BackgroundImageFix" result="effect1_dropShadow_240_851"/>
<feBlend mode="normal" in="SourceGraphic" in2="effect1_dropShadow_240_851" result="shape"/>
</filter>
<filter id="filter2_f_240_851" x="68" y="121.5" width="134" height="134" filterUnits="userSpaceOnUse" color-interpolation-filters="sRGB">
<feFlood flood-opacity="0" result="BackgroundImageFix"/>
<feBlend mode="normal" in="SourceGraphic" in2="BackgroundImageFix" result="shape"/>
<feGaussianBlur stdDeviation="21" result="effect1_foregroundBlur_240_851"/>
</filter>
<filter id="filter3_f_240_851" x="98" y="111.5" width="134" height="134" filterUnits="userSpaceOnUse" color-interpolation-filters="sRGB">
<feFlood flood-opacity="0" result="BackgroundImageFix"/>
<feBlend mode="normal" in="SourceGraphic" in2="BackgroundImageFix" result="shape"/>
<feGaussianBlur stdDeviation="21" result="effect1_foregroundBlur_240_851"/>
</filter>
<filter id="filter4_b_240_851" x="100" y="138.5" width="92" height="92" filterUnits="userSpaceOnUse" color-interpolation-filters="sRGB">
<feFlood flood-opacity="0" result="BackgroundImageFix"/>
<feGaussianBlur in="BackgroundImageFix" stdDeviation="12"/>
<feComposite in2="SourceAlpha" operator="in" result="effect1_backgroundBlur_240_851"/>
<feBlend mode="normal" in="SourceGraphic" in2="effect1_backgroundBlur_240_851" result="shape"/>
</filter>
<linearGradient id="paint0_linear_240_851" x1="146" y1="163.5" x2="146" y2="205.5" gradientUnits="userSpaceOnUse">
<stop stop-color="white"/>
<stop offset="1" stop-color="white"/>
</linearGradient>
</defs>
</svg>
