<svg width="285" height="230" viewBox="0 0 285 230" fill="none" xmlns="http://www.w3.org/2000/svg">
<g filter="url(#filter0_d_299_2598)">
<rect x="16.7686" y="11" width="292" height="198" rx="7.98847" fill="white"/>
</g>
<g clip-path="url(#clip0_299_2598)">
<rect x="26.7686" y="132" width="272" height="67" rx="6" fill="white"/>
<g clip-path="url(#clip1_299_2598)">
<rect width="425" height="425" transform="translate(-65.2314 62)" fill="url(#paint0_linear_299_2598)"/>
<path d="M59.6524 146.141C57.8202 138.897 43.0113 136.951 25.8602 134.713C21.6197 134.156 17.2374 133.589 12.9874 132.909C-5.81645 129.943 -23.0242 120.508 -39.6653 111.376C-47.9953 106.804 -56.5142 102.139 -65.2314 98.3044V99.0222C-56.637 102.828 -48.222 107.437 -39.9864 111.961C-23.2981 121.113 -6.03367 130.586 12.8836 133.57C17.1524 134.241 21.5347 134.817 25.7752 135.374C41.9819 137.499 57.2819 139.501 59.0102 146.311C60.3513 151.618 53.438 159.674 37.8736 170.932C16.0285 186.733 -2.29367 194.09 -19.8037 194.09C-29.7581 194.09 -39.6181 191.616 -49.1287 186.752C-55.0503 183.72 -60.2542 180.037 -65.222 176.316V177.137C-60.3487 180.773 -55.2298 184.362 -49.4214 187.337C-39.8164 192.258 -29.8526 194.751 -19.7942 194.751C-2.14256 194.751 16.3119 187.356 38.2702 171.471C54.3069 159.873 61.0974 151.836 59.6619 146.15L59.6524 146.141Z" fill="#DBE0EA"/>
<path d="M82.8011 119.545C81.1767 119.545 78.8817 120.584 77.1911 125.514C75.2928 131.067 78.9478 132.352 82.82 133.721C83.5 133.957 84.1989 134.212 84.8789 134.486C86.3994 135.1 87.6839 135.412 88.685 135.412C89.7994 135.412 90.6022 135.034 91.065 134.297C92.51 132.002 90.1961 126.93 89.1289 124.862C87.41 121.538 85.0394 119.554 82.7917 119.554L82.8011 119.545ZM90.6683 134.042C89.9128 135.242 88.005 135.232 85.0489 134.042C84.3594 133.768 83.6511 133.513 82.9711 133.277C79.1744 131.936 75.8878 130.774 77.635 125.665C78.9006 121.963 80.6856 120.008 82.7917 120.008C84.8978 120.008 87.07 121.897 88.7039 125.06C90.8383 129.225 91.575 132.578 90.6589 134.033L90.6683 134.042Z" fill="#DBE0EA"/>
<path d="M-45.0864 178.828C-37.9087 182.502 -31.8076 184.221 -25.8953 184.221C-19.9831 184.221 -14.1937 182.36 -7.81867 180.207C-4.20145 178.988 -0.102562 177.6 4.54411 176.429C6.90521 175.834 8.95466 175.768 10.2958 175.768C11.193 175.768 12.0619 175.806 12.893 175.834C13.6863 175.862 14.4324 175.9 15.1691 175.9C18.9941 175.9 22.0447 174.993 25.3785 170.488C27.6263 167.447 28.4763 165.096 29.213 163.027C30.3274 159.929 31.2058 157.483 36.098 153.979C37.3541 153.082 39.1486 152.374 40.8958 151.694C43.6913 150.589 46.1091 149.644 46.213 148.029C46.298 146.726 44.7774 145.272 41.4247 143.449C37.4202 141.277 31.6969 140.984 26.6252 140.984C24.368 140.984 21.988 141.05 19.693 141.116C17.3885 141.182 14.9991 141.258 12.723 141.258C7.63244 141.258 4.07188 140.908 1.16299 140.115C-15.2703 135.648 -30.6837 127.204 -44.2837 119.743C-51.4237 115.833 -58.3464 112.037 -65.2598 108.778V109.298C-58.422 112.528 -51.5748 116.287 -44.5103 120.159C-30.8914 127.629 -15.4592 136.092 1.04021 140.568C3.98688 141.371 7.59466 141.73 12.723 141.73C15.0086 141.73 17.398 141.664 19.7119 141.588C22.0069 141.522 24.3774 141.456 26.6252 141.456C31.6308 141.456 37.2785 141.739 41.198 143.864C44.2769 145.536 45.8069 146.934 45.7408 148.001C45.6558 149.314 43.2569 150.258 40.7258 151.25C38.9597 151.949 37.1369 152.667 35.8335 153.592C30.8186 157.181 29.8741 159.816 28.7785 162.867C28.0419 164.907 27.2108 167.221 25.0008 170.205C21.7802 174.549 18.8524 175.428 15.1691 175.428C14.4419 175.428 13.6958 175.399 12.9119 175.362C12.0713 175.324 11.2024 175.296 10.2958 175.296C8.92633 175.296 6.8391 175.362 4.43077 175.966C-0.234779 177.137 -4.34312 178.526 -7.96978 179.753C-14.307 181.897 -19.7753 183.748 -25.8953 183.748C-32.0153 183.748 -37.767 182.048 -44.8787 178.412C-51.3764 175.078 -57.2226 170.649 -62.8798 166.361C-63.6637 165.766 -64.4476 165.171 -65.2409 164.576V165.171C-64.542 165.691 -63.8526 166.219 -63.1631 166.739C-57.4964 171.036 -51.6314 175.484 -45.0959 178.828H-45.0864Z" fill="#DBE0EA"/>
<path d="M102.389 67.6572C102.861 65.7494 103.324 63.87 103.758 62H103.277C102.852 63.8322 102.398 65.6739 101.936 67.5439C101.067 71.0478 100.169 74.665 99.4422 78.3672C97.0245 90.6922 94.9373 106.852 100.33 122.529C102.521 128.904 107.989 134.108 112.806 138.698C117.094 142.788 120.796 146.32 120.466 149.286C120.314 150.646 119.313 151.864 117.415 152.997C116.537 153.517 115.044 153.781 112.967 153.781C105.713 153.781 92.9256 150.579 83.4623 147.406C73.1678 143.959 60.4934 138.462 58.5289 131.87C57.9056 129.773 58.4156 127.648 60.0589 125.571C62.165 122.898 64.4222 120.556 66.6039 118.279C70.9011 113.812 74.9622 109.591 77.6539 103.329C81.4884 94.3944 81.9511 85.0728 79.0328 75.6283C78.3245 73.3428 77.6161 71.2367 76.9834 69.3761C76.0578 66.6278 75.2456 64.2289 74.6978 62H74.2067C74.7639 64.2761 75.5856 66.7222 76.5395 69.5272C77.1628 71.3878 77.8806 73.4844 78.5795 75.77C81.46 85.1011 80.9973 94.3094 77.21 103.14C74.5561 109.326 70.5234 113.519 66.2545 117.949C64.0634 120.225 61.7967 122.586 59.6717 125.278C57.9339 127.488 57.3861 129.754 58.0567 132.012C60.0778 138.793 72.9034 144.374 83.2922 147.859C92.7934 151.042 105.638 154.253 112.948 154.253C115.111 154.253 116.688 153.97 117.642 153.403C119.672 152.194 120.749 150.863 120.919 149.342C121.278 146.141 117.5 142.533 113.118 138.358C108.339 133.806 102.918 128.64 100.764 122.369C95.4095 106.795 97.4872 90.7111 99.8956 78.4522C100.623 74.7689 101.511 71.1517 102.379 67.6572H102.389Z" fill="#DBE0EA"/>
<path d="M95.2013 62.0567C95.2013 62.0567 95.2297 62.0189 95.2486 62H94.8613C94.2663 62.6328 93.6713 63.2939 93.2558 64.2572C92.0847 67.015 92.4152 69.8861 92.7363 72.6628C92.9158 74.2117 93.1047 75.8078 93.0291 77.3756C92.9158 79.8406 92.4058 82.3906 91.9241 84.865C91.5275 86.905 91.1119 89.0111 90.9136 91.07C89.7047 103.565 90.8002 114.861 94.1625 124.645C94.8614 126.676 97.6002 129.802 100.5 133.107C104.202 137.338 108.036 141.711 108.187 144.365C108.225 144.96 108.074 145.423 107.725 145.791C106.724 146.849 104.041 147.047 99.7441 146.367C96.6275 145.876 93.6241 144.573 90.7247 143.307C89.0341 142.571 87.2775 141.806 85.5302 141.22C85.0391 141.05 84.5291 140.889 84.0002 140.71C77.7197 138.642 69.1252 135.799 67.888 130.831C67.3025 128.461 68.4547 125.75 71.3163 122.775C75.8214 118.091 80.4869 113.246 83.6414 105.888C86.6636 98.8333 90.1486 85.1106 88.8169 77.6872C88.543 76.1667 87.9102 75.1372 87.2964 74.1456C86.4747 72.8139 85.7002 71.5578 86.0497 69.2817C86.3141 67.6006 86.9658 66.6183 87.5419 65.7589C88.2313 64.72 88.8358 63.7756 88.6658 62H88.3825C88.5525 63.6906 87.9858 64.5689 87.3058 65.6078C86.7108 66.4956 86.0402 67.5061 85.7758 69.2439C85.4075 71.6239 86.2102 72.9272 87.0602 74.2967C87.6647 75.2694 88.2786 76.2706 88.543 77.7439C89.8652 85.12 86.3991 98.7672 83.3863 105.784C80.2508 113.094 75.6041 117.921 71.118 122.586C68.1902 125.637 67.0097 128.432 67.6236 130.907C68.8891 136.026 77.578 138.897 83.9247 140.993C84.4536 141.163 84.9636 141.333 85.4547 141.503C87.1925 142.089 88.9397 142.844 90.6208 143.581C93.5391 144.847 96.5519 146.159 99.7063 146.66C101.397 146.924 102.851 147.066 104.041 147.066C105.987 147.066 107.262 146.717 107.932 145.999C108.329 145.574 108.509 145.026 108.471 144.365C108.31 141.617 104.447 137.206 100.707 132.937C97.8269 129.651 95.1069 126.543 94.4269 124.569C91.0741 114.823 89.988 103.565 91.1875 91.1172C91.3858 89.0772 91.8014 86.9711 92.198 84.9406C92.6891 82.4567 93.1897 79.8972 93.303 77.4133C93.3786 75.8267 93.1897 74.2117 93.0102 72.6533C92.6797 69.7822 92.3586 67.0811 93.5108 64.3894C93.9358 63.3978 94.5686 62.7272 95.1919 62.0661L95.2013 62.0567Z" fill="#DBE0EA"/>
<path d="M126.085 393.094C138.617 391.668 152.057 377.152 152.227 364.855C152.491 346.004 141.659 330.94 131.175 316.377C129.4 313.902 127.558 311.343 125.82 308.831L124.772 307.32C119.842 300.217 114.251 292.161 112.428 283.463C110.889 276.087 108.537 258.926 111.096 252.995C112.976 248.651 118.321 246.167 123.487 243.768C127.057 242.106 130.429 240.538 132.8 238.394L132.913 238.29C138.315 233.398 142.858 230.889 146.541 230.763C148.213 230.706 150.291 230.631 153.228 230.357C157.166 229.988 159.49 229.412 161.19 228.997C162.266 228.732 163.05 228.534 163.74 228.534C165.44 228.534 166.866 229.743 171.579 233.728C185.509 245.525 185.245 266.038 184.999 285.881C184.678 310.842 184.347 336.663 212.605 344.833C216.666 346.004 220.624 346.608 224.364 346.608C234.989 346.608 244.027 341.858 250.515 332.886C260.035 319.711 262.566 299.16 256.805 281.735C243.517 241.52 211.765 218.523 177.614 196.612C146.57 176.693 117.009 171.206 91.7258 167.627C89.8936 167.372 88.1558 167.24 86.5502 167.24C76.303 167.24 71.4297 172.453 65.2624 179.055C62.9013 181.586 60.4552 184.192 57.4235 186.865C53.948 189.916 49.5374 192.003 45.2591 194.024C38.2891 197.32 31.7063 200.427 28.9863 207.35C23.2158 222.036 37.3919 233.473 49.9058 243.579C55.6952 248.254 61.1635 252.665 64.3747 257.075C77.0774 274.566 73.2808 304.061 61.7586 320.636C58.1602 325.812 51.2658 332.206 43.9652 338.987C31.8763 350.207 18.1724 362.928 15.7547 373.61C14.6213 378.635 14.9141 382.148 16.6613 384.339C18.1252 386.171 20.5902 387.059 24.198 387.059C30.1386 387.059 38.6386 384.613 47.6391 382.025C58.6419 378.861 71.118 375.272 81.7524 375.272C86.8241 375.272 91.0269 376.056 94.5874 377.681C98.6863 379.551 102.162 382.242 105.515 384.858C111.059 389.165 116.291 393.236 123.695 393.236C124.47 393.236 125.272 393.188 126.075 393.094H126.085ZM94.7952 377.246C91.1686 375.593 86.9091 374.791 81.7619 374.791C71.0613 374.791 58.5474 378.389 47.5163 381.562C38.5441 384.141 30.0724 386.577 24.198 386.577C20.7413 386.577 18.3991 385.746 17.0391 384.037C15.3863 381.968 15.1124 378.587 16.2174 373.714C18.6069 363.174 32.2541 350.509 44.2863 339.327C51.6058 332.536 58.5191 326.114 62.1458 320.901C73.7624 304.193 77.578 274.443 64.7524 256.792C61.513 252.334 56.0163 247.895 50.1986 243.201C37.8169 233.209 23.7824 221.876 29.4208 207.52C32.0747 200.777 38.5724 197.698 45.4574 194.449C49.7641 192.418 54.2124 190.312 57.7352 187.215C60.7858 184.532 63.2413 181.907 65.6119 179.376C71.7035 172.859 76.5108 167.712 86.5597 167.712C88.1463 167.712 89.8652 167.844 91.6691 168.099C116.895 171.669 146.4 177.147 177.368 197.018C211.444 218.882 243.13 241.822 256.371 281.895C262.085 299.188 259.582 319.569 250.147 332.621C243.753 341.471 234.837 346.146 224.373 346.146C220.68 346.146 216.77 345.56 212.747 344.389C200.233 340.772 192.309 333.33 188.541 321.656C185.16 311.201 185.33 298.338 185.49 285.9C185.745 265.953 186.01 245.326 171.909 233.379C165.175 227.675 164.986 227.58 161.095 228.543C159.414 228.959 157.1 229.526 153.2 229.894C150.281 230.168 148.204 230.243 146.541 230.3C142.745 230.432 138.101 232.982 132.611 237.95L132.497 238.054C130.184 240.151 126.84 241.709 123.299 243.352C118.047 245.789 112.617 248.32 110.671 252.825C108.065 258.86 110.426 276.143 111.975 283.576C113.807 292.369 119.426 300.463 124.385 307.612L125.433 309.123C127.171 311.636 129.012 314.195 130.797 316.67C141.234 331.176 152.029 346.165 151.764 364.865C151.594 376.963 138.372 391.233 126.037 392.641C125.254 392.726 124.47 392.773 123.714 392.773C116.47 392.773 111.304 388.75 105.826 384.5C102.445 381.874 98.9508 379.154 94.8047 377.265L94.7952 377.246Z" fill="#DBE0EA"/>
<path d="M325.816 99.7116C324.579 99.7116 323.37 99.7022 322.18 99.6927C321.037 99.6927 319.913 99.6738 318.808 99.6738C312.367 99.6738 307.239 100.023 301.591 101.733C298.635 102.63 295.868 104.037 293.186 105.407C288.718 107.683 284.487 109.836 279.434 109.836C278.594 109.836 277.744 109.779 276.913 109.657C273.182 109.118 270.396 106.918 267.695 104.793C264.663 102.403 261.792 100.146 257.778 100.146C257.41 100.146 257.042 100.165 256.664 100.203C254.18 100.458 250.213 102.687 246.369 104.849C243.895 106.238 241.562 107.55 239.909 108.155C237.501 109.043 235.697 109.468 234.384 109.789C230.418 110.733 229.917 111.083 227.981 118.393C227.452 120.414 227.065 122.303 226.687 124.125C225.299 130.907 224.203 136.262 216.978 141.371C212.105 144.818 205.919 146.49 198.061 146.49C190.279 146.49 182.147 144.865 174.969 143.42C171.22 142.665 167.669 141.957 165.043 141.683C163.513 141.522 161.152 141.418 158.734 141.418C151.802 141.418 143.68 143.959 143.113 147.595C142.849 149.323 144.19 151.911 152.142 154.452L153.03 154.735C183.318 164.453 204.446 177.128 225.941 198.491C231.872 204.384 236.406 207.133 240.193 207.133C241.081 207.133 241.959 206.972 242.781 206.67C246.813 205.168 249.751 200.078 253.16 194.184C254.917 191.143 256.909 187.696 259.271 184.372C270.679 168.297 287.047 156.548 305.359 151.297C310.762 149.748 316.041 148.964 321.037 148.964C337.348 148.964 348.861 156.954 359.759 165.171V164.576C348.879 156.388 337.367 148.492 321.037 148.492C315.994 148.492 310.677 149.285 305.227 150.844C286.811 156.123 270.349 167.938 258.883 184.098C256.513 187.432 254.52 190.898 252.754 193.948C249.392 199.766 246.492 204.781 242.62 206.226C241.846 206.519 241.033 206.66 240.193 206.66C236.528 206.66 232.108 203.959 226.272 198.16C204.719 176.74 183.536 164.028 153.172 154.291L152.284 154.008C146.334 152.109 143.246 149.852 143.586 147.68C144.058 144.658 151.283 141.9 158.744 141.9C161.143 141.9 163.485 141.994 164.996 142.155C167.603 142.429 171.144 143.137 174.884 143.893C182.081 145.338 190.241 146.972 198.071 146.972C206.023 146.972 212.303 145.272 217.262 141.768C224.638 136.545 225.752 131.105 227.159 124.229C227.537 122.407 227.915 120.527 228.453 118.515C230.371 111.234 230.767 111.139 234.507 110.252C235.839 109.93 237.652 109.505 240.089 108.608C241.779 107.985 244.131 106.663 246.615 105.265C250.232 103.234 254.341 100.92 256.721 100.675C257.079 100.637 257.438 100.618 257.788 100.618C261.641 100.618 264.446 102.828 267.421 105.161C270.169 107.324 273.012 109.562 276.866 110.119C277.725 110.242 278.603 110.308 279.463 110.308C284.629 110.308 289.106 108.032 293.422 105.832C296.085 104.481 298.833 103.074 301.742 102.195C307.343 100.495 312.424 100.155 318.818 100.155C319.923 100.155 321.037 100.155 322.18 100.174C323.37 100.184 324.579 100.193 325.816 100.193C331.587 100.193 336.743 100.864 341.598 102.252C347.727 103.999 353.743 106.445 359.769 109.298V108.778C353.791 105.964 347.822 103.537 341.73 101.799C336.838 100.401 331.634 99.721 325.816 99.721V99.7116Z" fill="#DBE0EA"/>
<path d="M325.816 109.251C317.873 109.251 309.43 110.686 300.467 112.216C290.39 113.935 279.963 115.711 268.866 115.711C268.063 115.711 267.27 115.711 266.514 115.682C262.661 115.588 259.393 114.955 256.513 114.398C254.019 113.916 251.866 113.491 249.798 113.491C244.887 113.491 241.279 116.079 237.341 122.407C235.442 125.457 234.054 129.112 232.713 132.635C230.342 138.878 227.887 145.338 222.475 149.163C220.614 150.476 217.044 151.496 213.267 152.582C206.665 154.471 199.185 156.605 198.165 161.063C196.899 166.654 208.374 174.294 214.542 178.403C215.684 179.168 216.676 179.829 217.328 180.301C224.562 185.609 230.541 189.141 236.226 189.141C237.001 189.141 237.775 189.075 238.531 188.933C243.064 188.121 247.182 184.91 251.488 178.837C264.144 161.006 282.343 147.963 302.734 142.108C308.996 140.313 315.153 139.407 321.047 139.407C337.338 139.407 349.399 145.989 359.769 153.318V152.969C349.399 145.659 337.338 139.123 321.047 139.123C315.134 139.123 308.948 140.039 302.658 141.843C282.202 147.708 263.955 160.789 251.262 178.677C247.002 184.683 242.941 187.857 238.483 188.65C237.747 188.782 236.991 188.848 236.226 188.848C230.616 188.848 224.685 185.335 217.498 180.065C216.846 179.583 215.845 178.922 214.702 178.157C208.592 174.087 197.221 166.512 198.439 161.11C199.421 156.813 206.816 154.707 213.342 152.846C217.148 151.76 220.737 150.74 222.636 149.389C228.123 145.517 230.588 139.019 232.977 132.739C234.309 129.226 235.697 125.589 237.577 122.558C241.458 116.315 244.991 113.774 249.788 113.774C251.828 113.774 253.963 114.19 256.447 114.672C259.337 115.238 262.623 115.871 266.496 115.966C267.261 115.984 268.054 115.994 268.857 115.994C279.982 115.994 290.418 114.218 300.524 112.49C309.458 110.969 317.892 109.524 325.807 109.524C330.699 109.524 335.015 110.082 339.019 111.224C345.886 113.179 352.752 116.173 359.759 119.677V119.356C352.78 115.871 345.942 112.896 339.095 110.941C335.062 109.789 330.718 109.232 325.797 109.232L325.816 109.251Z" fill="#DBE0EA"/>
<path d="M346.962 380.476C348.18 381.251 350.145 381.676 352.506 381.676C354.612 381.676 357.105 381.326 359.759 380.514V379.824C357.105 380.656 354.612 381.014 352.506 381.014C350.296 381.014 348.407 380.618 347.311 379.919C341.767 376.377 339.312 370.116 336.715 363.495C334.476 357.781 332.153 351.869 327.657 347.704V347.506H327.45C322.274 342.944 315.314 340.724 306.152 340.724C296.991 340.724 287.821 342.868 280.275 344.587C275.118 345.768 270.66 346.778 267.789 346.778C266.108 346.778 265.079 346.429 264.654 345.721C264.087 344.776 264.512 342.991 265.91 340.441C272.436 328.522 285.62 300.113 284.704 288.355C283.986 279.081 279.529 269.494 275.212 260.229C268.97 246.809 262.519 232.944 267.213 219.684C272.577 204.564 296.198 177.534 313 175.248C313.982 175.116 315.04 175.05 316.145 175.05C327.081 175.05 343.071 181.567 359.74 191.002V190.293C343.061 180.877 327.081 174.389 316.145 174.389C315.011 174.389 313.925 174.455 312.915 174.597C295.896 176.92 272.001 204.205 266.59 219.467C261.801 232.973 268.318 246.969 274.608 260.513C278.896 269.721 283.325 279.251 284.034 288.412C284.846 298.895 273.352 325.462 265.324 340.129C263.766 342.982 263.36 344.871 264.077 346.07C264.625 347.005 265.844 347.449 267.78 347.449C270.726 347.449 275.212 346.429 280.407 345.239C287.925 343.52 297.284 341.386 306.143 341.386C315.002 341.386 322.047 343.577 327.1 348.082C331.549 352.152 333.853 358.036 336.091 363.722C338.726 370.446 341.22 376.802 346.952 380.457L346.962 380.476Z" fill="#DBE0EA"/>
<path d="M90.2997 248.509C91.1119 248.509 91.7635 247.357 92.3963 244.778C94.7669 235.136 102.596 222.376 114.761 215.595C127.067 208.729 135.265 206.944 139.675 205.99C141.866 205.518 142.962 205.272 143.226 204.696C143.33 204.479 143.292 204.214 143.132 203.912C142.282 202.363 127.039 193.835 105.118 192.059L104.192 191.984C102.219 191.823 100.509 191.682 98.8752 191.682C93.1519 191.682 88.543 193.278 77.7763 202.373C76.0763 203.808 74.3386 205.14 72.6574 206.434C67.4536 210.429 62.958 213.867 63.2508 217.786C63.4774 220.789 66.4524 223.774 72.6102 227.164C79.4291 230.923 83.5847 238.384 86.333 243.314C88.0802 246.441 89.223 248.509 90.3186 248.509H90.2997ZM72.7236 226.919C66.7358 223.623 63.723 220.629 63.5058 217.767C63.2224 214.008 67.6613 210.608 72.8086 206.67C74.4897 205.376 76.2369 204.044 77.9369 202.599C88.628 193.561 93.1991 191.974 98.8469 191.974C100.471 191.974 102.171 192.116 104.145 192.277L105.071 192.352C126.491 194.081 142.055 202.581 142.858 204.054C143.019 204.356 142.99 204.498 142.943 204.583C142.735 205.027 141.555 205.291 139.59 205.716C135.17 206.679 126.944 208.464 114.6 215.349C102.37 222.178 94.4836 235.022 92.1036 244.722C91.518 247.083 90.923 248.235 90.2808 248.235C89.3552 248.235 88.118 246.006 86.5408 243.192C83.7736 238.233 79.5991 230.725 72.7047 226.928L72.7236 226.919Z" fill="#DBE0EA"/>
<path d="M92.0849 264.725C92.9066 264.725 93.4733 263.743 93.8699 261.627C96.3255 248.622 101.643 230.206 119.408 220.383C124.895 217.342 131.1 214.943 138.363 213.026C139.827 212.639 141.385 211.591 142.905 210.571C144.86 209.248 146.891 207.888 148.761 207.888C148.978 207.888 149.195 207.907 149.394 207.945C150.442 208.134 151.226 208.738 151.982 209.324C152.832 209.985 153.634 210.608 154.749 210.608C155.164 210.608 155.599 210.523 156.062 210.335C156.855 210.023 157.27 209.409 157.667 208.814C158.234 207.973 158.763 207.18 160.368 207.322C161.964 207.454 162.824 208.672 163.73 209.957C164.363 210.854 165.024 211.789 165.959 212.308C166.639 212.686 167.867 213.092 168.953 213.092C169.709 213.092 170.247 212.894 170.549 212.497C170.833 212.12 170.889 211.581 170.7 210.911C170.077 208.682 165.308 206.604 162.144 205.225C161.209 204.819 160.406 204.47 159.887 204.196C155.183 201.702 150.489 199.596 146.523 197.858C129.787 190.539 114.525 186.072 99.8766 184.202C98.2238 183.994 96.7977 183.89 95.5038 183.89C88.2883 183.89 82.6971 187.045 71.5716 197.396C68.8421 199.936 66.0277 202.118 63.3171 204.224C57.2349 208.946 52.4277 212.677 52.541 217.371C52.6355 221.073 55.8466 225.021 62.6655 229.79C73.6399 237.468 80.9216 249.132 85.7477 256.848C88.7227 261.599 90.6777 264.744 92.1038 264.744L92.0849 264.725ZM62.8071 229.535C56.0733 224.822 52.8905 220.941 52.8055 217.333C52.6921 212.781 57.4521 209.088 63.4777 204.413C66.1977 202.297 69.0121 200.116 71.751 197.566C82.8199 187.271 88.3638 184.136 95.4944 184.136C96.7788 184.136 98.1955 184.24 99.8294 184.447C114.449 186.308 129.683 190.775 146.39 198.085C150.357 199.823 155.042 201.929 159.735 204.413C160.264 204.696 161.077 205.046 162.012 205.452C165.119 206.802 169.822 208.852 170.408 210.948C170.568 211.534 170.54 211.987 170.304 212.29C170.002 212.686 169.388 212.771 168.934 212.771C167.952 212.771 166.753 212.393 166.082 212.016C165.204 211.534 164.571 210.627 163.948 209.749C163.041 208.465 162.106 207.142 160.378 206.991C158.602 206.831 158.007 207.747 157.422 208.616C157.025 209.201 156.657 209.749 155.948 210.032C155.514 210.202 155.127 210.287 154.739 210.287C153.729 210.287 152.954 209.692 152.142 209.069C151.358 208.465 150.546 207.832 149.432 207.643C149.214 207.605 148.978 207.586 148.752 207.586C146.797 207.586 144.738 208.975 142.745 210.316C141.187 211.364 139.704 212.365 138.297 212.733C131.005 214.651 124.791 217.068 119.275 220.119C101.407 229.998 96.061 248.5 93.596 261.561C93.2277 263.488 92.7366 264.432 92.0849 264.432C90.8099 264.432 88.7794 261.174 85.9649 256.669C81.1294 248.934 73.8288 237.242 62.8071 229.526V229.535Z" fill="#DBE0EA"/>
<path d="M126.972 383.225C133.432 382.488 139.515 378.049 142.48 371.92C145.181 366.319 146.645 356.818 138.259 343.369C134.66 337.589 130.731 331.762 126.935 326.123C116.074 310.002 105.817 294.768 101.576 279.487C96.788 262.203 100.632 247.942 113.684 234.616C124.989 223.075 139.921 216.455 154.664 216.455C165.742 216.455 175.63 220.355 182.496 227.429C190.042 235.202 193.82 246.582 193.405 260.324C193.31 263.516 193.159 266.812 192.999 270.307C192.432 282.717 191.78 296.78 193.782 308.481C196.087 321.94 201.555 330.251 210.49 333.896C215.278 335.851 219.811 336.833 223.976 336.833C231.541 336.833 237.982 333.528 242.601 327.285C250.449 316.66 252.329 298.47 247.285 282.018C236.452 246.715 210.405 225.644 171.9 203.072C142.65 185.93 117.944 180.641 95.6074 177.477C93.9452 177.241 92.3585 177.118 90.8947 177.118C81.5635 177.118 77.1247 181.869 71.5052 187.885C69.3424 190.199 67.1136 192.579 64.3369 195.025C61.1447 197.83 58.368 199.54 55.9124 201.051C51.9741 203.468 48.5835 205.556 44.8341 211.147C37.4108 222.244 47.3463 229.053 57.858 236.26C63.4113 240.066 69.163 244.004 72.2419 248.67C91.5841 277.976 83.783 309.237 70.0224 328.721C66.0936 334.293 60.3513 339.553 54.2691 345.116C46.8363 351.926 39.1486 358.962 34.7569 366.829C32.868 370.21 32.3297 372.505 33.1135 373.846C33.6897 374.828 34.9647 375.301 36.9952 375.301C40.6219 375.301 46.383 373.799 53.0602 372.052C62.4197 369.615 74.0647 366.574 84.3591 366.574C89.8085 366.574 94.4836 367.443 98.2519 369.152C102.001 370.862 105.175 373.327 108.244 375.716C113.297 379.645 118.057 383.347 124.8 383.347C125.509 383.347 126.236 383.31 126.963 383.225H126.972ZM98.3747 368.897C94.5213 367.141 89.9408 366.291 84.3685 366.291C74.0458 366.291 62.3724 369.332 53.0036 371.778C46.3452 373.516 40.603 375.008 37.0047 375.017C35.078 375.017 33.888 374.583 33.3591 373.695C32.6319 372.448 33.1702 370.248 35.0024 366.961C39.3752 359.141 47.0441 352.115 54.4674 345.324C60.5591 339.742 66.3108 334.482 70.2586 328.881C78.3241 317.463 83.0841 304.439 84.0191 291.217C85.0958 276.106 81.2141 261.731 72.478 248.509C69.3708 243.806 63.6002 239.848 58.0185 236.023C47.6202 228.893 37.798 222.168 45.0702 211.298C48.7724 205.754 52.1535 203.686 56.0541 201.287C58.5191 199.776 61.3052 198.057 64.5163 195.233C67.3024 192.787 69.5408 190.388 71.7036 188.074C77.2758 182.115 81.6863 177.402 90.8852 177.402C92.3302 177.402 93.9074 177.525 95.5602 177.751C117.868 180.915 142.546 186.195 171.749 203.308C210.197 225.833 236.197 246.875 247.002 282.084C252.026 298.461 250.166 316.547 242.365 327.106C237.803 333.273 231.447 336.541 223.967 336.541C219.84 336.541 215.344 335.558 210.594 333.622C201.754 330.015 196.342 321.779 194.056 308.425C192.054 296.751 192.706 282.698 193.272 270.307C193.433 266.812 193.584 263.516 193.679 260.324C194.094 246.497 190.297 235.051 182.695 227.221C175.772 220.091 165.817 216.162 154.664 216.162C139.845 216.162 124.829 222.811 113.476 234.408C106.544 241.492 102.266 248.792 100.386 256.745C98.7147 263.847 99.0074 271.298 101.293 279.553C105.543 294.881 115.809 310.125 126.689 326.275C130.486 331.913 134.415 337.74 138.013 343.511C146.334 356.856 144.889 366.253 142.216 371.787C139.297 377.832 133.3 382.214 126.935 382.932C126.217 383.017 125.499 383.055 124.8 383.055C118.161 383.055 113.429 379.371 108.424 375.48C105.345 373.081 102.152 370.607 98.3747 368.878V368.897Z" fill="#DBE0EA"/>
<path d="M325.816 115.862C318.43 115.862 310.252 117.26 301.582 118.733C291.23 120.499 280.53 122.322 268.866 122.322C268.007 122.322 267.157 122.312 266.354 122.293C265.655 122.275 264.975 122.256 264.295 122.237C262.529 122.19 260.867 122.142 259.261 122.142C249.212 122.142 242.988 124.192 238.889 134.987C236.302 141.815 233.355 149.55 226.309 154.546C224.317 155.963 222.324 157.162 220.558 158.23C216.478 160.695 213.257 162.64 213.134 165.332C213.021 167.806 215.524 170.781 221.238 174.975C226.725 178.998 231.23 180.953 235.027 180.953C235.367 180.953 235.716 180.934 236.047 180.906C241.562 180.396 245.264 175.834 249.949 170.063C252.074 167.438 254.492 164.472 257.325 161.639C269.593 149.371 284.667 140.427 300.911 135.771C307.768 133.806 314.539 132.805 321.047 132.805C337.121 132.805 349.512 138.613 359.769 145.338V144.998C349.512 138.302 337.112 132.522 321.047 132.522C314.511 132.522 307.711 133.523 300.835 135.497C284.544 140.172 269.423 149.144 257.127 161.441C254.284 164.283 251.866 167.258 249.732 169.884C245.094 175.598 241.42 180.122 236.028 180.622C235.697 180.651 235.367 180.67 235.036 180.67C231.305 180.67 226.848 178.733 221.408 174.748C215.779 170.611 213.314 167.712 213.418 165.351C213.531 162.81 216.695 160.902 220.709 158.475C222.475 157.408 224.477 156.199 226.479 154.782C233.6 149.739 236.557 141.957 239.163 135.091C243.205 124.447 249.344 122.426 259.27 122.426C260.876 122.426 262.538 122.473 264.295 122.52C264.965 122.539 265.655 122.558 266.354 122.577C267.166 122.596 268.007 122.605 268.875 122.605C280.558 122.605 291.278 120.773 301.638 119.007C310.289 117.533 318.468 116.136 325.825 116.136C330.094 116.136 333.815 116.608 337.225 117.581C344.544 119.668 352.043 123.096 359.778 127.101V126.78C352.072 122.803 344.601 119.394 337.3 117.307C333.872 116.325 330.113 115.852 325.825 115.852L325.816 115.862Z" fill="#DBE0EA"/>
<path d="M97.4208 222.433C103.852 210.712 115.611 206.623 125.131 204.366C126.047 204.148 126.132 203.676 126.104 203.421C125.877 201.513 116.961 197.858 103.654 197.858C102.152 197.858 100.613 197.906 99.0925 198C93.0102 198.368 78.6736 206.85 73.5263 213.13C72.1852 214.764 71.5808 216.114 71.7225 217.163C72.0813 219.769 74.3952 220.922 77.0869 222.263C79.9297 223.68 83.1502 225.285 84.7275 229.025C85.6436 231.207 86.843 232.312 88.2975 232.312C90.7625 232.312 93.8413 228.987 97.4302 222.442L97.4208 222.433ZM85.1525 228.836C83.5186 224.936 80.213 223.283 77.2947 221.828C74.7258 220.553 72.5063 219.448 72.1852 217.087C72.0625 216.19 72.648 214.925 73.8852 213.423C78.9758 207.218 93.133 198.831 99.1208 198.472C100.641 198.378 102.162 198.331 103.654 198.331C116.735 198.331 125.452 201.948 125.631 203.478C125.66 203.723 125.263 203.856 125.027 203.912C115.412 206.188 103.541 210.325 97.0147 222.206C91.5936 232.076 87.523 234.465 85.1619 228.836H85.1525Z" fill="#DBE0EA"/>
<path d="M283.117 332.404C283.788 333.377 285.441 333.792 288.624 333.792C290.616 333.792 292.987 333.632 295.735 333.452C299.135 333.225 302.998 332.97 306.984 332.97C319.611 332.97 328.13 335.653 333.806 341.433C339.085 345.494 341.994 352.114 344.563 357.96C347.689 365.063 350.381 371.192 356.34 371.192C356.973 371.192 357.644 371.117 358.324 370.975C358.777 370.88 359.259 370.758 359.759 370.607V370.115C359.23 370.285 358.711 370.418 358.229 370.522C357.577 370.654 356.935 370.729 356.34 370.729C350.692 370.729 348.057 364.732 344.997 357.781C342.4 351.888 339.463 345.21 334.117 341.093C328.366 335.237 319.743 332.508 306.984 332.508C302.979 332.508 299.116 332.763 295.697 332.989C292.959 333.169 290.588 333.329 288.614 333.329C285.686 333.329 284.062 332.952 283.505 332.149C283.202 331.705 283.193 331.11 283.486 330.317C289.492 314.252 294.526 293.918 294.035 287.656C293.185 276.691 288.369 266.33 283.703 256.31C277.999 244.06 272.615 232.491 276.034 222.839C280.794 209.428 302.516 186.147 314.275 184.542C314.841 184.466 315.474 184.428 316.154 184.428C325.315 184.428 341.456 190.992 359.75 201.834V201.287C341.475 190.482 325.344 183.956 316.154 183.956C315.446 183.956 314.794 183.994 314.209 184.079C302.318 185.703 280.379 209.173 275.581 222.688C272.096 232.519 277.517 244.174 283.259 256.518C287.906 266.5 292.704 276.814 293.554 287.694C293.979 293.181 289.474 312.92 283.032 330.147C282.683 331.091 282.702 331.837 283.099 332.413L283.117 332.404Z" fill="#DBE0EA"/>
<path d="M325.815 122.378C318.987 122.378 311.063 123.729 302.676 125.155C292.061 126.968 281.077 128.838 268.865 128.838C267.968 128.838 267.08 128.829 266.202 128.81L264.124 128.753C262.405 128.706 260.79 128.659 259.27 128.659C246.038 128.659 245.386 135.931 244.687 143.628C244.31 147.85 243.913 152.223 241.59 155.934C240.759 157.257 238.53 158.938 236.159 160.713C231.125 164.491 225.421 168.779 228.16 172.793C229.34 174.521 230.757 175.39 232.372 175.39C233.26 175.39 234.223 175.126 235.224 174.606C239.691 172.302 244.461 165.483 248.295 160.005C250.467 156.898 252.347 154.216 253.376 153.592C254.453 152.95 255.662 152.865 256.691 152.865C257.088 152.865 257.494 152.884 257.9 152.893C258.316 152.912 258.731 152.922 259.138 152.922C260.696 152.922 262.339 152.733 263.822 151.382C265.607 149.758 265.834 147.642 266.051 145.602C266.249 143.77 266.429 142.042 267.647 140.578C271.33 136.177 284.25 133.098 292.797 131.067C295.31 130.472 297.482 129.953 299.106 129.49C306.539 127.356 313.925 126.279 321.036 126.279C336.827 126.279 349.455 131.454 359.759 137.65V137.093C349.445 130.935 336.818 125.807 321.036 125.807C313.877 125.807 306.454 126.893 298.974 129.037C297.369 129.499 295.196 130.019 292.684 130.614C283.561 132.786 271.066 135.761 267.288 140.285C265.975 141.853 265.777 143.742 265.579 145.564C265.361 147.604 265.154 149.531 263.501 151.042C262.131 152.289 260.592 152.459 259.138 152.459C258.731 152.459 258.316 152.44 257.91 152.431C257.504 152.412 257.088 152.402 256.682 152.402C255.586 152.402 254.302 152.497 253.121 153.196C252.007 153.866 250.194 156.454 247.889 159.741C244.281 164.888 239.351 171.943 234.988 174.191C232.325 175.56 230.228 175.022 228.519 172.528C226.035 168.892 231.55 164.746 236.414 161.091C238.917 159.212 241.08 157.587 241.958 156.189C244.347 152.383 244.744 147.954 245.131 143.676C245.83 135.874 246.444 129.131 259.241 129.131C260.762 129.131 262.377 129.178 264.086 129.226L266.164 129.282C267.052 129.301 267.94 129.311 268.837 129.311C281.096 129.311 292.089 127.431 302.733 125.618C311.101 124.192 318.996 122.841 325.787 122.841C329.423 122.841 332.549 123.228 335.345 124.031C343.061 126.232 351.211 130.151 359.74 134.675V134.137C351.268 129.651 343.165 125.769 335.477 123.578C332.634 122.766 329.461 122.369 325.787 122.369L325.815 122.378Z" fill="#DBE0EA"/>
<path d="M297.379 320.098C299.136 322.619 302.847 322.903 307.976 323.299C308.533 323.347 309.109 323.384 309.694 323.432C311.319 323.564 313.019 323.62 314.813 323.687C323.162 323.97 332.626 324.301 341.173 332.083L341.277 332.177C346.018 336.323 348.832 343.633 351.326 350.084C353.828 356.582 356.001 362.192 359.438 362.192C359.542 362.192 359.656 362.173 359.759 362.163V361.88C359.656 361.889 359.542 361.918 359.438 361.918C356.189 361.918 354.064 356.393 351.59 349.989C349.087 343.511 346.254 336.163 341.466 331.969L341.362 331.875C332.739 324.027 323.219 323.696 314.823 323.413C313.028 323.347 311.328 323.29 309.713 323.158C309.128 323.111 308.552 323.063 307.994 323.026C302.942 322.638 299.287 322.355 297.606 319.947C296.019 317.661 296.236 313.373 298.333 306.063C300.269 299.292 300.996 293.106 300.533 287.156C299.589 275.019 294.517 264.121 289.616 253.571C284.497 242.559 279.652 232.161 282.183 225.021C286.395 213.13 306.738 192.144 315.163 191.002C315.352 190.973 315.673 190.945 316.164 190.945C323.2 190.945 339.123 196.801 359.759 209.447V209.116C339.133 196.508 323.219 190.662 316.164 190.662C315.663 190.662 315.323 190.69 315.125 190.718C306.634 191.88 286.149 212.979 281.918 224.926C279.349 232.179 284.213 242.625 289.361 253.694C294.253 264.215 299.315 275.086 300.25 287.174C300.713 293.096 299.995 299.254 298.059 305.988C295.906 313.487 295.698 317.718 297.369 320.117L297.379 320.098Z" fill="#DBE0EA"/>
<path d="M125.169 405.504C139.231 403.898 155.976 387.191 160.462 374.422C168.254 352.256 154.399 334.406 140.997 317.142C128.068 300.482 115.847 284.747 121.787 265.584C126.963 248.896 143.68 239.886 156.779 239.886C163.844 239.886 169.945 242.389 173.977 246.941C178.766 252.343 180.645 260.551 179.417 270.675C175.196 305.459 173.94 343.511 212.719 354.731C217.167 356.015 221.559 356.667 225.78 356.667C242.11 356.667 252.527 347.317 258.392 339.468C269.64 324.423 273.55 301.917 268.11 283.472C263.501 267.832 254.425 252.655 240.381 237.091C219.5 213.952 191.053 194.062 153.426 176.268L151.802 175.494C135.973 168.004 119.606 160.26 102.37 155.991C101.35 155.736 100.216 155.434 99.0074 155.113C93.6808 153.696 87.0602 151.939 81.3747 151.939C79.0985 151.939 77.1247 152.232 75.5191 152.808C73.0635 153.687 71.6847 155.368 70.3436 156.992C69.3424 158.201 68.313 159.457 66.8397 160.354C65.8858 160.94 64.0158 161.658 62.0513 162.423C58.8686 163.651 55.563 164.926 54.5241 166.153C52.5124 168.514 53.0697 169.931 53.5985 171.31C53.9858 172.292 54.3447 173.227 53.8724 174.616L53.5041 175.711C51.5963 181.321 48.445 184.762 44.0502 186.034C42.7752 186.402 41.1886 186.865 39.3091 187.46C33.8786 189.188 31.6497 191.852 29.4963 194.43C27.8436 196.413 26.2758 198.283 23.3197 199.794C23.2441 199.794 23.1497 199.794 23.0552 199.794C19.6552 199.794 -6.12812 201.494 -8.11145 207.832C-8.64034 209.541 -7.48812 211.392 -4.66423 213.347C-1.13201 215.793 1.54077 216.077 3.25022 216.077C4.08133 216.077 4.83688 216.001 5.5641 215.935C6.18744 215.878 6.77299 215.822 7.33022 215.822C9.408 215.822 11.5047 216.407 14.3758 223.5C15.0841 225.247 15.6319 226.673 16.0852 227.863C18.3141 233.7 18.3897 233.776 24.0469 236.193C25.4541 236.788 27.2013 237.534 29.4208 238.564C36.7119 241.926 38.2041 245.742 40.093 250.577C41.0941 253.127 42.2274 256.027 44.3713 259.285C46.6663 262.77 49.358 265.575 51.9647 268.286C56.583 273.093 60.9463 277.636 62.3347 285.219C64.743 298.357 57.6124 310.899 49.5469 322.497C45.6369 328.126 37.5997 334.671 29.0902 341.603C14.6402 353.371 -1.73645 366.716 -1.79312 379.069C-1.8309 386.124 -0.01756 391.536 3.59022 395.162C7.51911 399.11 13.488 401.027 21.8463 401.027C33.9635 401.027 48.848 396.938 61.9852 393.339C72.3269 390.506 81.2613 388.051 86.9658 388.051C88.2597 388.051 89.3552 388.183 90.2147 388.438C95.7208 390.072 100.084 393.566 104.315 396.947C109.916 401.433 115.214 405.664 122.779 405.664C123.554 405.664 124.347 405.617 125.14 405.532L125.169 405.504ZM90.4319 387.777C89.4874 387.493 88.3635 387.361 86.9941 387.361C81.1952 387.361 72.223 389.826 61.8341 392.669C48.7347 396.258 33.888 400.338 21.8652 400.338C13.6958 400.338 7.87799 398.487 4.08133 394.671C0.60577 391.177 -1.14145 385.926 -1.11312 379.05C-1.05645 367.008 15.188 353.767 29.5247 342.094C38.0719 335.133 46.1374 328.56 50.1041 322.856C58.2452 311.135 65.4513 298.451 62.9958 285.078C61.5697 277.296 57.1402 272.687 52.4558 267.804C49.868 265.112 47.1952 262.326 44.938 258.898C42.8319 255.696 41.708 252.844 40.7258 250.313C38.7802 245.336 37.2408 241.416 29.7135 237.941C27.4847 236.911 25.728 236.165 24.3208 235.561C20.6815 234.005 18.1441 231.351 16.7085 227.599C16.2552 226.409 15.7074 224.973 14.9991 223.226C12.2508 216.454 10.1069 215.132 7.33966 215.132C6.7541 215.132 6.14966 215.189 5.50744 215.255C4.79911 215.321 4.06243 215.397 3.25966 215.397C1.50299 215.397 -0.933672 215.104 -4.27701 212.79C-6.83645 211.024 -7.90367 209.418 -7.46923 208.021C-5.75034 202.514 18.2858 200.446 23.0647 200.446C23.178 200.446 23.2535 200.446 23.3008 200.446L23.3763 200.144L23.518 200.437C26.6535 198.85 28.363 196.819 30.0063 194.846C32.1974 192.229 34.2658 189.755 39.5169 188.083C41.3869 187.488 42.9641 187.035 44.2391 186.667C51.1052 184.683 51.1902 184.579 54.1369 175.919L54.5052 174.823C55.053 173.208 54.6091 172.075 54.2219 171.064C53.7119 169.761 53.2774 168.637 55.0341 166.578C55.9691 165.483 59.3313 164.179 62.2969 163.037C64.2991 162.262 66.188 161.535 67.1985 160.921C68.7663 159.967 69.8336 158.673 70.863 157.417C72.2041 155.793 73.4697 154.253 75.7458 153.441C77.2852 152.893 79.1836 152.61 81.3841 152.61C86.9847 152.61 93.558 154.357 98.8469 155.764C100.056 156.086 101.189 156.388 102.219 156.643C119.389 160.893 135.727 168.628 151.528 176.098L153.152 176.873C190.694 194.619 219.075 214.462 239.9 237.534C253.877 253.023 262.906 268.116 267.487 283.661C272.87 301.917 269.007 324.187 257.872 339.072C252.092 346.797 241.836 356.006 225.79 356.006C221.634 356.006 217.309 355.363 212.917 354.088C174.639 343.019 175.895 305.27 180.088 270.751C181.344 260.437 179.408 252.051 174.487 246.507C170.332 241.813 164.051 239.234 156.798 239.234C143.462 239.234 126.444 248.405 121.174 265.405C115.129 284.889 128.021 301.502 140.497 317.567C153.785 334.689 167.536 352.398 159.858 374.224C155.429 386.813 138.939 403.294 125.112 404.871C124.337 404.956 123.572 405.003 122.826 405.003C115.488 405.003 110.284 400.838 104.769 396.428C100.5 393.009 96.0797 389.477 90.4508 387.796L90.4319 387.777Z" fill="#DBE0EA"/>
<path d="M211.472 133.589C208.27 135.846 203.888 136.951 198.07 136.951C191.242 136.951 183.592 135.421 176.858 134.071C172.882 133.277 169.132 132.522 166.063 132.201C164.561 132.04 160.529 131.672 155.561 131.672C146.362 131.672 134.556 132.918 130.599 138.859C128.871 141.437 128.805 144.686 130.391 148.502C131.137 150.296 133.064 151.269 134.925 152.213C136.398 152.959 137.919 153.724 138.769 154.877C139.77 156.237 140.365 158.144 140.931 159.996C141.696 162.451 142.48 164.992 144.265 166.493C146.485 168.354 148.912 169.223 151.925 169.223C154.012 169.223 156.146 168.798 158.205 168.392C160.245 167.986 162.351 167.57 164.391 167.57C166.431 167.57 168.046 167.957 169.595 168.751C173.345 170.687 174.931 173.293 176.452 175.806C178.445 179.092 180.324 182.19 186.52 183.644C199.487 186.676 203.047 189.849 211.632 197.509C212.737 198.501 213.927 199.558 215.231 200.701C218.319 203.412 220.605 206.509 222.815 209.503C224.779 212.176 226.819 214.934 229.445 217.465C232.665 220.572 235.706 221.951 238.644 223.283C242.554 225.058 246.256 226.739 249.609 232.501L250.128 233.407C254.35 240.698 258.609 247.451 261.235 247.451C261.66 247.451 262.019 247.291 262.321 246.96C263.265 245.921 263.52 243.173 263.105 238.554C262.859 235.844 260.904 233.426 259.006 231.084C256.966 228.562 255.039 226.173 255.152 223.538C255.294 220.383 257.202 218.825 259.223 217.182C260.706 215.982 262.236 214.736 263.133 212.799C265.286 208.162 265.806 204.016 266.316 200.002C267.015 194.411 267.676 189.141 272.681 183.172C281.625 172.491 294.177 164.425 308.022 160.449C312.631 159.127 316.9 158.484 321.065 158.484C335.213 158.484 345.356 166.182 356.104 174.323C357.322 175.248 358.55 176.174 359.787 177.099V176.278C358.682 175.447 357.587 174.625 356.501 173.803C345.668 165.587 335.43 157.833 321.065 157.833C316.834 157.833 312.509 158.484 307.834 159.826C293.865 163.83 281.2 171.971 272.162 182.757C267.034 188.877 266.363 194.241 265.645 199.927C265.145 203.893 264.635 207.992 262.519 212.526C261.688 214.32 260.215 215.51 258.798 216.672C256.749 218.334 254.633 220.062 254.482 223.519C254.359 226.399 256.456 228.997 258.477 231.509C260.309 233.776 262.198 236.118 262.425 238.621C262.916 244.061 262.368 245.921 261.811 246.516C261.641 246.705 261.452 246.79 261.216 246.79C258.619 246.79 253.056 237.176 250.685 233.077L250.156 232.17C246.7 226.229 242.903 224.511 238.899 222.678C236.009 221.366 233.024 220.006 229.889 216.983C227.31 214.499 225.289 211.761 223.334 209.107C221.105 206.084 218.801 202.958 215.656 200.201C214.352 199.058 213.162 198 212.057 197.008C203.378 189.264 199.789 186.062 186.652 182.993C180.721 181.604 178.907 178.62 177 175.456C175.422 172.859 173.798 170.177 169.879 168.156C168.235 167.306 166.441 166.899 164.372 166.899C162.304 166.899 160.132 167.324 158.064 167.731C156.033 168.137 153.927 168.543 151.906 168.543C149.063 168.543 146.768 167.721 144.671 165.964C143.037 164.586 142.272 162.139 141.545 159.769C140.96 157.871 140.346 155.906 139.279 154.452C138.344 153.177 136.747 152.374 135.208 151.59C133.376 150.664 131.638 149.786 130.986 148.218C129.494 144.62 129.541 141.579 131.137 139.189C134.944 133.494 146.513 132.295 155.551 132.295C160.491 132.295 164.486 132.663 165.978 132.824C169.01 133.145 172.75 133.901 176.707 134.684C183.479 136.044 191.157 137.574 198.051 137.574C204.011 137.574 208.516 136.432 211.831 134.089C220.095 128.243 217.724 119.432 215.429 110.913C212.983 101.808 210.452 92.3922 220.633 86.2533C221.851 85.5167 223.485 85.1389 225.478 85.1389C231.57 85.1389 240.145 88.4633 248.437 91.6839C255.662 94.4889 262.481 97.1333 266.92 97.2372C267.562 97.2561 268.195 97.2561 268.837 97.2561C278.376 97.2561 288.019 95.6128 297.35 94.0167C306.662 92.43 316.286 90.7867 325.787 90.7867C332.436 90.7867 338.443 91.58 344.138 93.2045C349.408 94.7061 354.602 96.6989 359.74 98.9656V98.2478C354.669 96.0095 349.531 94.0545 344.317 92.5717C338.556 90.9283 332.493 90.1256 325.787 90.1256C316.23 90.1256 306.568 91.7689 297.237 93.365C287.934 94.9517 278.32 96.595 268.837 96.595C268.195 96.6139 267.572 96.595 266.93 96.5761C262.604 96.4722 255.842 93.8467 248.674 91.07C240.325 87.8306 231.692 84.4778 225.478 84.4778C223.325 84.4778 221.634 84.8745 220.284 85.6867C209.677 92.09 212.275 101.742 214.787 111.083C217.12 119.772 219.33 127.969 211.444 133.551L211.472 133.589Z" fill="#DBE0EA"/>
</g>
</g>
<rect x="27.2686" y="21.5" width="271" height="103" rx="5.5" fill="white"/>
<rect x="27.2686" y="21.5" width="271" height="103" rx="5.5" stroke="#F3F4F6"/>
<rect x="34.7686" y="29" width="28" height="28" rx="6" fill="#F3F4F6"/>
<path d="M47.1823 39.8159H50.3552C50.6393 39.8159 50.8688 40.1078 50.8688 40.4684C50.8688 40.8286 50.6394 41.1192 50.3552 41.1192L47.1823 41.1191C46.8979 41.1191 46.6687 40.8285 46.6687 40.4683C46.6687 40.1078 46.8979 39.8159 47.1823 39.8159ZM48.7561 35.491C48.5093 35.494 48.2665 35.5638 48.0593 35.6928L41.6437 39.6784C41.3124 39.8847 41.1103 40.247 41.1103 40.6366V50.0367C41.1103 50.4982 41.4853 50.872 41.9469 50.872H43.6768C43.7872 50.872 43.8768 50.7825 43.8768 50.6721L43.8769 43.187C43.8769 42.7974 44.1697 42.4827 44.5321 42.4827H53.0058C53.3686 42.4827 53.66 42.7974 53.66 43.187V50.6721C53.66 50.7825 53.7496 50.872 53.86 50.872H55.5914C56.0529 50.872 56.4267 50.4982 56.4267 50.0367V40.6366C56.4267 40.247 56.2259 39.8845 55.8945 39.6784L49.4792 35.6928C49.2543 35.5534 49.0032 35.4888 48.7562 35.491H48.7561Z" fill="#1F2937"/>
<path d="M45.4895 47.3953C45.1823 47.3953 44.9355 47.642 44.9355 47.9493V50.3183C44.9355 50.6255 45.1823 50.8723 45.4895 50.8723H47.8586C48.1658 50.8723 48.4126 50.6255 48.4126 50.3183L48.4125 47.9493C48.4125 47.6421 48.1657 47.3953 47.8585 47.3953H47.0281V48.235C47.0281 48.2994 46.9572 48.3516 46.8676 48.3516H46.4812C46.3917 48.3516 46.3186 48.2996 46.3186 48.235V47.3953H45.4895Z" fill="#1F2937"/>
<path d="M49.6802 47.3953C49.3725 47.3953 49.1249 47.642 49.1249 47.9493V50.3183C49.1249 50.6255 49.3725 50.8723 49.6802 50.8723H52.0477C52.3549 50.8723 52.602 50.6255 52.602 50.3183V47.9493C52.602 47.6421 52.3549 47.3953 52.0477 47.3953H51.2185V48.235C51.2185 48.2994 51.147 48.3516 51.0572 48.3516H50.6707C50.5812 48.3516 50.5091 48.2996 50.5091 48.235V47.3953H49.6802Z" fill="#1F2937"/>
<path d="M45.4895 43.2058C45.1823 43.2058 44.9355 43.4529 44.9355 43.7601V46.1276C44.9355 46.4353 45.1823 46.6829 45.4895 46.6829H47.8586C48.1658 46.6829 48.4126 46.4353 48.4126 46.1276L48.4125 43.7601C48.4125 43.4529 48.1657 43.2058 47.8585 43.2058H47.0281V44.0444C47.0281 44.11 46.9572 44.1622 46.8676 44.1622H46.4812C46.3917 44.1622 46.3186 44.11 46.3186 44.0444V43.2058H45.4895Z" fill="#1F2937"/>
<path d="M49.6802 43.2058C49.3725 43.2058 49.1249 43.4529 49.1249 43.7601V46.1276C49.1249 46.4353 49.3725 46.6829 49.6802 46.6829H52.0477C52.3549 46.6829 52.602 46.4353 52.602 46.1276V43.7601C52.602 43.4529 52.3549 43.2058 52.0477 43.2058H51.2185V44.0444C51.2185 44.11 51.147 44.1622 51.0572 44.1622H50.6707C50.5812 44.1622 50.5091 44.11 50.5091 44.0444V43.2058H49.6802Z" fill="#1F2937"/>
<path d="M71.7728 38.3182H74.0299L77.0526 45.696H77.172L80.1947 38.3182H82.4518V48.5H80.6819V41.505H80.5874L77.7735 48.4702H76.4511L73.6372 41.4901H73.5427V48.5H71.7728V38.3182ZM86.5782 48.6541C86.0943 48.6541 85.6585 48.5679 85.2707 48.3956C84.8862 48.2199 84.5813 47.9614 84.3559 47.62C84.1338 47.2786 84.0228 46.8577 84.0228 46.3572C84.0228 45.9264 84.1024 45.5701 84.2615 45.2884C84.4205 45.0066 84.6376 44.7812 84.9127 44.6122C85.1878 44.4432 85.4977 44.3156 85.8424 44.2294C86.1904 44.1399 86.55 44.0753 86.9213 44.0355C87.3687 43.9891 87.7316 43.9477 88.01 43.9112C88.2884 43.8714 88.4906 43.8118 88.6166 43.7322C88.7458 43.6494 88.8105 43.5218 88.8105 43.3494V43.3196C88.8105 42.9451 88.6994 42.6551 88.4774 42.4496C88.2553 42.2441 87.9355 42.1413 87.5178 42.1413C87.077 42.1413 86.7274 42.2375 86.4688 42.4297C86.2136 42.6219 86.0413 42.849 85.9518 43.1108L84.2714 42.8722C84.404 42.4081 84.6227 42.0204 84.9276 41.7088C85.2326 41.3939 85.6054 41.1586 86.0463 41.0028C86.4871 40.8438 86.9743 40.7642 87.5079 40.7642C87.8758 40.7642 88.242 40.8073 88.6066 40.8935C88.9712 40.9796 89.3043 41.1222 89.6059 41.321C89.9075 41.5166 90.1495 41.7834 90.3318 42.1214C90.5174 42.4595 90.6102 42.8821 90.6102 43.3892V48.5H88.8801V47.451H88.8204C88.711 47.6631 88.5569 47.862 88.358 48.0476C88.1625 48.2299 87.9156 48.3774 87.6173 48.4901C87.3223 48.5994 86.9759 48.6541 86.5782 48.6541ZM87.0455 47.3317C87.4068 47.3317 87.72 47.2604 87.9852 47.1179C88.2503 46.9721 88.4542 46.7798 88.5967 46.5412C88.7425 46.3026 88.8154 46.0424 88.8154 45.7607V44.8608C88.7591 44.9072 88.663 44.9503 88.5271 44.9901C88.3945 45.0298 88.2454 45.0646 88.0796 45.0945C87.9139 45.1243 87.7499 45.1508 87.5874 45.174C87.425 45.1972 87.2842 45.2171 87.1649 45.2337C86.8964 45.2701 86.6561 45.3298 86.444 45.4126C86.2319 45.4955 86.0645 45.6115 85.9419 45.7607C85.8192 45.9065 85.7579 46.0954 85.7579 46.3274C85.7579 46.6589 85.8789 46.9091 86.1208 47.0781C86.3628 47.2472 86.671 47.3317 87.0455 47.3317ZM94.2195 44.0256V48.5H92.4198V40.8636H94.14V42.1612H94.2295C94.4052 41.7337 94.6852 41.3939 95.0697 41.142C95.4575 40.8902 95.9364 40.7642 96.5065 40.7642C97.0335 40.7642 97.4925 40.8769 97.8836 41.1023C98.278 41.3277 98.5829 41.6541 98.7984 42.0817C99.0171 42.5092 99.1249 43.0279 99.1215 43.6378V48.5H97.3218V43.9162C97.3218 43.4058 97.1892 43.0064 96.9241 42.718C96.6623 42.4297 96.2993 42.2855 95.8353 42.2855C95.5204 42.2855 95.2404 42.3551 94.9951 42.4943C94.7532 42.6302 94.5626 42.8274 94.4234 43.0859C94.2875 43.3445 94.2195 43.6577 94.2195 44.0256ZM103.149 48.6541C102.665 48.6541 102.229 48.5679 101.841 48.3956C101.457 48.2199 101.152 47.9614 100.926 47.62C100.704 47.2786 100.593 46.8577 100.593 46.3572C100.593 45.9264 100.673 45.5701 100.832 45.2884C100.991 45.0066 101.208 44.7812 101.483 44.6122C101.758 44.4432 102.068 44.3156 102.413 44.2294C102.761 44.1399 103.12 44.0753 103.492 44.0355C103.939 43.9891 104.302 43.9477 104.58 43.9112C104.859 43.8714 105.061 43.8118 105.187 43.7322C105.316 43.6494 105.381 43.5218 105.381 43.3494V43.3196C105.381 42.9451 105.27 42.6551 105.048 42.4496C104.826 42.2441 104.506 42.1413 104.088 42.1413C103.647 42.1413 103.298 42.2375 103.039 42.4297C102.784 42.6219 102.612 42.849 102.522 43.1108L100.842 42.8722C100.974 42.4081 101.193 42.0204 101.498 41.7088C101.803 41.3939 102.176 41.1586 102.617 41.0028C103.057 40.8438 103.545 40.7642 104.078 40.7642C104.446 40.7642 104.812 40.8073 105.177 40.8935C105.542 40.9796 105.875 41.1222 106.176 41.321C106.478 41.5166 106.72 41.7834 106.902 42.1214C107.088 42.4595 107.18 42.8821 107.18 43.3892V48.5H105.45V47.451H105.391C105.281 47.6631 105.127 47.862 104.928 48.0476C104.733 48.2299 104.486 48.3774 104.188 48.4901C103.893 48.5994 103.546 48.6541 103.149 48.6541ZM103.616 47.3317C103.977 47.3317 104.29 47.2604 104.555 47.1179C104.821 46.9721 105.024 46.7798 105.167 46.5412C105.313 46.3026 105.386 46.0424 105.386 45.7607V44.8608C105.329 44.9072 105.233 44.9503 105.097 44.9901C104.965 45.0298 104.816 45.0646 104.65 45.0945C104.484 45.1243 104.32 45.1508 104.158 45.174C103.995 45.1972 103.854 45.2171 103.735 45.2337C103.467 45.2701 103.226 45.3298 103.014 45.4126C102.802 45.4955 102.635 45.6115 102.512 45.7607C102.39 45.9065 102.328 46.0954 102.328 46.3274C102.328 46.6589 102.449 46.9091 102.691 47.0781C102.933 47.2472 103.241 47.3317 103.616 47.3317ZM112.311 51.5227C111.665 51.5227 111.11 51.4349 110.646 51.2592C110.182 51.0869 109.809 50.8549 109.527 50.5632C109.245 50.2715 109.05 49.9484 108.94 49.5938L110.561 49.201C110.634 49.3501 110.74 49.4976 110.879 49.6435C111.019 49.7926 111.206 49.9152 111.441 50.0114C111.68 50.1108 111.98 50.1605 112.341 50.1605C112.851 50.1605 113.274 50.0362 113.609 49.7876C113.944 49.5424 114.111 49.138 114.111 48.5746V47.1278H114.021C113.929 47.3134 113.793 47.504 113.614 47.6996C113.438 47.8951 113.204 48.0592 112.913 48.1918C112.624 48.3243 112.261 48.3906 111.824 48.3906C111.237 48.3906 110.705 48.2531 110.228 47.978C109.754 47.6996 109.376 47.2853 109.095 46.7351C108.816 46.1816 108.677 45.4889 108.677 44.657C108.677 43.8184 108.816 43.1108 109.095 42.5341C109.376 41.9541 109.756 41.5149 110.233 41.2166C110.71 40.915 111.242 40.7642 111.829 40.7642C112.276 40.7642 112.644 40.8404 112.933 40.9929C113.224 41.142 113.456 41.3227 113.629 41.5348C113.801 41.7436 113.932 41.9408 114.021 42.1264H114.121V40.8636H115.896V48.6243C115.896 49.2772 115.74 49.8175 115.428 50.245C115.117 50.6726 114.691 50.9924 114.151 51.2045C113.61 51.4167 112.997 51.5227 112.311 51.5227ZM112.326 46.9787C112.707 46.9787 113.032 46.8859 113.301 46.7003C113.569 46.5147 113.773 46.2479 113.912 45.8999C114.051 45.5518 114.121 45.1342 114.121 44.647C114.121 44.1664 114.051 43.7455 113.912 43.3842C113.776 43.023 113.574 42.7429 113.305 42.544C113.04 42.3419 112.714 42.2408 112.326 42.2408C111.925 42.2408 111.59 42.3452 111.322 42.554C111.053 42.7628 110.851 43.0495 110.715 43.4141C110.579 43.7753 110.511 44.1863 110.511 44.647C110.511 45.1143 110.579 45.5237 110.715 45.875C110.854 46.223 111.058 46.4948 111.327 46.6903C111.599 46.8826 111.932 46.9787 112.326 46.9787ZM121.121 48.6491C120.355 48.6491 119.694 48.4901 119.137 48.1719C118.584 47.8504 118.158 47.3963 117.859 46.8097C117.561 46.2197 117.412 45.5253 117.412 44.7266C117.412 43.9411 117.561 43.2517 117.859 42.6584C118.161 42.0618 118.582 41.5978 119.122 41.2663C119.662 40.9316 120.297 40.7642 121.026 40.7642C121.497 40.7642 121.941 40.8404 122.359 40.9929C122.78 41.142 123.151 41.3741 123.472 41.6889C123.797 42.0038 124.052 42.4048 124.238 42.892C124.424 43.3759 124.516 43.9527 124.516 44.6222V45.174H118.257V43.9609H122.791C122.788 43.6162 122.713 43.3097 122.568 43.0412C122.422 42.7694 122.218 42.5556 121.956 42.3999C121.698 42.2441 121.396 42.1662 121.051 42.1662C120.683 42.1662 120.36 42.2557 120.082 42.4347C119.803 42.6103 119.586 42.8423 119.43 43.1307C119.278 43.4157 119.2 43.7289 119.197 44.0703V45.1293C119.197 45.5734 119.278 45.9545 119.44 46.2727C119.603 46.5876 119.83 46.8295 120.122 46.9986C120.413 47.1643 120.755 47.2472 121.146 47.2472C121.408 47.2472 121.645 47.2107 121.857 47.1378C122.069 47.0616 122.253 46.9505 122.408 46.8047C122.564 46.6589 122.682 46.4782 122.761 46.2628L124.442 46.4517C124.336 46.8958 124.134 47.2836 123.835 47.6151C123.54 47.9432 123.162 48.1984 122.702 48.3807C122.241 48.5597 121.714 48.6491 121.121 48.6491ZM126.039 48.5V40.8636H127.759V42.1612H127.849C128.008 41.7237 128.271 41.3823 128.639 41.1371C129.007 40.8885 129.446 40.7642 129.957 40.7642C130.474 40.7642 130.909 40.8902 131.264 41.142C131.622 41.3906 131.874 41.7304 132.02 42.1612H132.099C132.268 41.737 132.553 41.3989 132.954 41.147C133.359 40.8918 133.838 40.7642 134.391 40.7642C135.094 40.7642 135.667 40.9863 136.111 41.4304C136.556 41.8745 136.778 42.5225 136.778 43.3743V48.5H134.973V43.6527C134.973 43.1787 134.847 42.8324 134.595 42.6136C134.343 42.3916 134.035 42.2805 133.67 42.2805C133.236 42.2805 132.896 42.4164 132.651 42.6882C132.409 42.9567 132.288 43.3063 132.288 43.7372V48.5H130.523V43.5781C130.523 43.1837 130.404 42.8688 130.165 42.6335C129.93 42.3982 129.622 42.2805 129.241 42.2805C128.982 42.2805 128.747 42.3468 128.535 42.4794C128.323 42.6087 128.154 42.7926 128.028 43.0312C127.902 43.2666 127.839 43.5417 127.839 43.8565V48.5H126.039ZM141.984 48.6491C141.218 48.6491 140.557 48.4901 140 48.1719C139.447 47.8504 139.021 47.3963 138.723 46.8097C138.424 46.2197 138.275 45.5253 138.275 44.7266C138.275 43.9411 138.424 43.2517 138.723 42.6584C139.024 42.0618 139.445 41.5978 139.986 41.2663C140.526 40.9316 141.16 40.7642 141.89 40.7642C142.36 40.7642 142.804 40.8404 143.222 40.9929C143.643 41.142 144.014 41.3741 144.336 41.6889C144.66 42.0038 144.916 42.4048 145.101 42.892C145.287 43.3759 145.38 43.9527 145.38 44.6222V45.174H139.12V43.9609H143.655C143.651 43.6162 143.577 43.3097 143.431 43.0412C143.285 42.7694 143.081 42.5556 142.819 42.3999C142.561 42.2441 142.259 42.1662 141.915 42.1662C141.547 42.1662 141.223 42.2557 140.945 42.4347C140.667 42.6103 140.45 42.8423 140.294 43.1307C140.141 43.4157 140.063 43.7289 140.06 44.0703V45.1293C140.06 45.5734 140.141 45.9545 140.304 46.2727C140.466 46.5876 140.693 46.8295 140.985 46.9986C141.276 47.1643 141.618 47.2472 142.009 47.2472C142.271 47.2472 142.508 47.2107 142.72 47.1378C142.932 47.0616 143.116 46.9505 143.272 46.8047C143.428 46.6589 143.545 46.4782 143.625 46.2628L145.305 46.4517C145.199 46.8958 144.997 47.2836 144.699 47.6151C144.404 47.9432 144.026 48.1984 143.565 48.3807C143.104 48.5597 142.577 48.6491 141.984 48.6491ZM148.702 44.0256V48.5H146.902V40.8636H148.622V42.1612H148.712C148.888 41.7337 149.168 41.3939 149.552 41.142C149.94 40.8902 150.419 40.7642 150.989 40.7642C151.516 40.7642 151.975 40.8769 152.366 41.1023C152.76 41.3277 153.065 41.6541 153.281 42.0817C153.5 42.5092 153.607 43.0279 153.604 43.6378V48.5H151.804V43.9162C151.804 43.4058 151.672 43.0064 151.407 42.718C151.145 42.4297 150.782 42.2855 150.318 42.2855C150.003 42.2855 149.723 42.3551 149.478 42.4943C149.236 42.6302 149.045 42.8274 148.906 43.0859C148.77 43.3445 148.702 43.6577 148.702 44.0256ZM159.247 40.8636V42.2557H154.857V40.8636H159.247ZM155.941 39.0341H157.74V46.2031C157.74 46.4451 157.777 46.6307 157.85 46.7599C157.926 46.8859 158.025 46.9721 158.148 47.0185C158.271 47.0649 158.407 47.0881 158.556 47.0881C158.668 47.0881 158.771 47.0798 158.864 47.0632C158.96 47.0466 159.033 47.0317 159.083 47.0185L159.386 48.4254C159.29 48.4586 159.152 48.495 158.973 48.5348C158.798 48.5746 158.582 48.5978 158.327 48.6044C157.876 48.6177 157.47 48.5497 157.109 48.4006C156.748 48.2481 156.461 48.0128 156.249 47.6946C156.04 47.3764 155.937 46.9787 155.941 46.5014V39.0341ZM169.837 41.1172C169.791 40.683 169.595 40.3449 169.251 40.103C168.909 39.861 168.465 39.7401 167.918 39.7401C167.534 39.7401 167.204 39.7981 166.929 39.9141C166.654 40.0301 166.444 40.1875 166.298 40.3864C166.152 40.5852 166.077 40.8123 166.074 41.0675C166.074 41.2796 166.122 41.4635 166.218 41.6193C166.318 41.7751 166.452 41.9077 166.621 42.017C166.79 42.1231 166.977 42.2126 167.183 42.2855C167.388 42.3584 167.595 42.4197 167.804 42.4695L168.759 42.7081C169.143 42.7976 169.513 42.9186 169.867 43.071C170.225 43.2235 170.545 43.4157 170.827 43.6477C171.112 43.8797 171.337 44.1598 171.503 44.4879C171.669 44.8161 171.752 45.2005 171.752 45.6413C171.752 46.2379 171.599 46.7633 171.294 47.2173C170.989 47.6681 170.548 48.0211 169.972 48.2763C169.398 48.5282 168.704 48.6541 167.889 48.6541C167.096 48.6541 166.409 48.5315 165.825 48.2862C165.245 48.041 164.791 47.683 164.463 47.2124C164.138 46.7417 163.963 46.1683 163.936 45.4922H165.751C165.777 45.8468 165.887 46.1418 166.079 46.3771C166.271 46.6125 166.521 46.7881 166.83 46.9041C167.141 47.0201 167.489 47.0781 167.874 47.0781C168.275 47.0781 168.626 47.0185 168.928 46.8991C169.233 46.7765 169.471 46.6075 169.644 46.392C169.816 46.1733 169.904 45.9181 169.907 45.6264C169.904 45.3613 169.826 45.1425 169.673 44.9702C169.521 44.7945 169.307 44.6487 169.032 44.5327C168.76 44.4134 168.442 44.3073 168.078 44.2145L166.919 43.9162C166.081 43.7008 165.418 43.3743 164.93 42.9368C164.447 42.496 164.205 41.911 164.205 41.1818C164.205 40.5819 164.367 40.0566 164.692 39.6058C165.02 39.1551 165.466 38.8054 166.029 38.5568C166.593 38.3049 167.231 38.179 167.943 38.179C168.666 38.179 169.299 38.3049 169.842 38.5568C170.389 38.8054 170.819 39.1518 171.13 39.5959C171.442 40.0367 171.602 40.5438 171.612 41.1172H169.837ZM174.435 51.3636C174.19 51.3636 173.963 51.3438 173.754 51.304C173.548 51.2675 173.384 51.2244 173.262 51.1747L173.679 49.7727C173.941 49.849 174.175 49.8854 174.38 49.8821C174.586 49.8788 174.766 49.8142 174.922 49.6882C175.081 49.5656 175.215 49.3601 175.325 49.0717L175.479 48.6591L172.71 40.8636H174.619L176.379 46.6307H176.458L178.223 40.8636H180.137L177.08 49.4247C176.937 49.8291 176.748 50.1754 176.513 50.4638C176.278 50.7554 175.989 50.9775 175.648 51.13C175.31 51.2857 174.906 51.3636 174.435 51.3636ZM187.418 42.8821L185.778 43.0611C185.731 42.8954 185.65 42.7396 185.534 42.5938C185.421 42.4479 185.269 42.3303 185.077 42.2408C184.884 42.1513 184.649 42.1065 184.371 42.1065C183.996 42.1065 183.681 42.1877 183.426 42.3501C183.174 42.5125 183.05 42.723 183.053 42.9815C183.05 43.2036 183.131 43.3842 183.297 43.5234C183.466 43.6626 183.744 43.777 184.132 43.8665L185.435 44.1449C186.157 44.3007 186.694 44.5476 187.045 44.8857C187.4 45.2237 187.579 45.6662 187.582 46.2131C187.579 46.6937 187.438 47.1179 187.16 47.4858C186.885 47.8504 186.502 48.1354 186.011 48.3409C185.521 48.5464 184.957 48.6491 184.321 48.6491C183.386 48.6491 182.634 48.4536 182.064 48.0625C181.494 47.6681 181.154 47.1196 181.045 46.4169L182.8 46.2479C182.879 46.5926 183.048 46.8527 183.307 47.0284C183.565 47.2041 183.902 47.2919 184.316 47.2919C184.744 47.2919 185.087 47.2041 185.345 47.0284C185.607 46.8527 185.738 46.6357 185.738 46.3771C185.738 46.1584 185.653 45.9777 185.484 45.8352C185.319 45.6927 185.06 45.5833 184.709 45.5071L183.406 45.2337C182.674 45.0812 182.132 44.8243 181.78 44.4631C181.429 44.0985 181.255 43.6378 181.258 43.081C181.255 42.6103 181.383 42.2027 181.641 41.858C181.903 41.5099 182.266 41.2415 182.73 41.0526C183.197 40.8603 183.736 40.7642 184.346 40.7642C185.241 40.7642 185.945 40.9548 186.459 41.3359C186.976 41.7171 187.296 42.2325 187.418 42.8821ZM192.88 40.8636V42.2557H188.49V40.8636H192.88ZM189.573 39.0341H191.373V46.2031C191.373 46.4451 191.41 46.6307 191.483 46.7599C191.559 46.8859 191.658 46.9721 191.781 47.0185C191.903 47.0649 192.039 47.0881 192.188 47.0881C192.301 47.0881 192.404 47.0798 192.497 47.0632C192.593 47.0466 192.666 47.0317 192.715 47.0185L193.019 48.4254C192.923 48.4586 192.785 48.495 192.606 48.5348C192.43 48.5746 192.215 48.5978 191.96 48.6044C191.509 48.6177 191.103 48.5497 190.742 48.4006C190.38 48.2481 190.094 48.0128 189.882 47.6946C189.673 47.3764 189.57 46.9787 189.573 46.5014V39.0341ZM197.683 48.6491C196.918 48.6491 196.256 48.4901 195.7 48.1719C195.146 47.8504 194.72 47.3963 194.422 46.8097C194.124 46.2197 193.975 45.5253 193.975 44.7266C193.975 43.9411 194.124 43.2517 194.422 42.6584C194.724 42.0618 195.145 41.5978 195.685 41.2663C196.225 40.9316 196.86 40.7642 197.589 40.7642C198.06 40.7642 198.504 40.8404 198.921 40.9929C199.342 41.142 199.713 41.3741 200.035 41.6889C200.36 42.0038 200.615 42.4048 200.801 42.892C200.986 43.3759 201.079 43.9527 201.079 44.6222V45.174H194.82V43.9609H199.354C199.35 43.6162 199.276 43.3097 199.13 43.0412C198.984 42.7694 198.78 42.5556 198.519 42.3999C198.26 42.2441 197.958 42.1662 197.614 42.1662C197.246 42.1662 196.923 42.2557 196.644 42.4347C196.366 42.6103 196.149 42.8423 195.993 43.1307C195.841 43.4157 195.763 43.7289 195.759 44.0703V45.1293C195.759 45.5734 195.841 45.9545 196.003 46.2727C196.165 46.5876 196.392 46.8295 196.684 46.9986C196.976 47.1643 197.317 47.2472 197.708 47.2472C197.97 47.2472 198.207 47.2107 198.419 47.1378C198.631 47.0616 198.815 46.9505 198.971 46.8047C199.127 46.6589 199.244 46.4782 199.324 46.2628L201.004 46.4517C200.898 46.8958 200.696 47.2836 200.398 47.6151C200.103 47.9432 199.725 48.1984 199.264 48.3807C198.804 48.5597 198.277 48.6491 197.683 48.6491ZM202.601 48.5V40.8636H204.322V42.1612H204.411C204.57 41.7237 204.834 41.3823 205.202 41.1371C205.57 40.8885 206.009 40.7642 206.519 40.7642C207.036 40.7642 207.472 40.8902 207.827 41.142C208.185 41.3906 208.436 41.7304 208.582 42.1612H208.662C208.831 41.737 209.116 41.3989 209.517 41.147C209.921 40.8918 210.4 40.7642 210.954 40.7642C211.656 40.7642 212.23 40.9863 212.674 41.4304C213.118 41.8745 213.34 42.5225 213.34 43.3743V48.5H211.535V43.6527C211.535 43.1787 211.409 42.8324 211.158 42.6136C210.906 42.3916 210.597 42.2805 210.233 42.2805C209.799 42.2805 209.459 42.4164 209.214 42.6882C208.972 42.9567 208.851 43.3063 208.851 43.7372V48.5H207.086V43.5781C207.086 43.1837 206.967 42.8688 206.728 42.6335C206.493 42.3982 206.184 42.2805 205.803 42.2805C205.545 42.2805 205.309 42.3468 205.097 42.4794C204.885 42.6087 204.716 42.7926 204.59 43.0312C204.464 43.2666 204.401 43.5417 204.401 43.8565V48.5H202.601Z" fill="#4B5563"/>
<rect x="35.2686" y="63.5" width="79" height="25" rx="5.5" stroke="#E5E7EB"/>
<circle cx="47.7686" cy="76" r="4.5" stroke="#E5E7EB"/>
<rect x="56.7686" y="73" width="26" height="6" rx="3" fill="#E5E7EB"/>
<circle cx="97.7686" cy="76" r="9" fill="#E5E7EB"/>
<g clip-path="url(#clip2_299_2598)">
<path d="M94.5686 80.8H100.969C101.393 80.8 101.8 80.6314 102.1 80.3314C102.4 80.0313 102.569 79.6243 102.569 79.2V72.8C102.569 72.3756 102.4 71.9687 102.1 71.6686C101.8 71.3685 101.393 71.2 100.969 71.2H94.5686C94.1442 71.2 93.7373 71.3686 93.4372 71.6686C93.1371 71.9687 92.9685 72.3756 92.9685 72.8V79.2C92.9685 79.6243 93.1371 80.0313 93.4372 80.3314C93.7372 80.6314 94.1442 80.8 94.5686 80.8ZM100.969 80H94.5686C94.3564 80 94.1529 79.9157 94.0028 79.7657C93.8528 79.6156 93.7685 79.4122 93.7685 79.2V75.2H101.769V79.2C101.769 79.4122 101.684 79.6156 101.534 79.7657C101.384 79.9157 101.181 80 100.969 80H100.969ZM93.7686 72.8C93.7686 72.5878 93.8529 72.3844 94.0028 72.2343C94.1529 72.0843 94.3564 72 94.5686 72H100.969C101.181 72 101.384 72.0843 101.534 72.2343C101.684 72.3844 101.769 72.5878 101.769 72.8V74.4H93.7686L93.7686 72.8Z" fill="#6B7280"/>
<path d="M95.3685 73.2C95.3685 73.4209 95.1894 73.6 94.9686 73.6C94.7476 73.6 94.5686 73.4209 94.5686 73.2C94.5686 72.9791 94.7476 72.8 94.9686 72.8C95.1894 72.8 95.3685 72.9791 95.3685 73.2Z" fill="#6B7280"/>
<path d="M96.9686 73.2C96.9686 73.4209 96.7895 73.6 96.5686 73.6C96.3477 73.6 96.1686 73.4209 96.1686 73.2C96.1686 72.9791 96.3477 72.8 96.5686 72.8C96.7895 72.8 96.9686 72.9791 96.9686 73.2Z" fill="#6B7280"/>
<path d="M98.5686 73.2C98.5686 73.4209 98.3894 73.6 98.1686 73.6C97.9476 73.6 97.7686 73.4209 97.7686 73.2C97.7686 72.9791 97.9476 72.8 98.1686 72.8C98.3894 72.8 98.5686 72.9791 98.5686 73.2Z" fill="#6B7280"/>
</g>
<rect x="123.269" y="63.5" width="79" height="25" rx="5.5" stroke="#E5E7EB"/>
<circle cx="135.769" cy="76" r="4.5" stroke="#E5E7EB"/>
<rect x="144.769" y="73" width="19" height="6" rx="3" fill="#E5E7EB"/>
<circle cx="185.769" cy="76" r="9" fill="#E5E7EB"/>
<g clip-path="url(#clip3_299_2598)">
<path d="M182.569 80.8H188.969C189.393 80.8 189.8 80.6314 190.1 80.3314C190.4 80.0313 190.569 79.6243 190.569 79.2V72.8C190.569 72.3756 190.4 71.9687 190.1 71.6686C189.8 71.3685 189.393 71.2 188.969 71.2H182.569C182.144 71.2 181.737 71.3686 181.437 71.6686C181.137 71.9687 180.969 72.3756 180.969 72.8V79.2C180.969 79.6243 181.137 80.0313 181.437 80.3314C181.737 80.6314 182.144 80.8 182.569 80.8ZM188.969 80H182.569C182.356 80 182.153 79.9157 182.003 79.7657C181.853 79.6156 181.769 79.4122 181.769 79.2V75.2H189.769V79.2C189.769 79.4122 189.684 79.6156 189.534 79.7657C189.384 79.9157 189.181 80 188.969 80H188.969ZM181.769 72.8C181.769 72.5878 181.853 72.3844 182.003 72.2343C182.153 72.0843 182.356 72 182.569 72H188.969C189.181 72 189.384 72.0843 189.534 72.2343C189.684 72.3844 189.769 72.5878 189.769 72.8V74.4H181.769L181.769 72.8Z" fill="#6B7280"/>
<path d="M183.369 73.2C183.369 73.4209 183.189 73.6 182.969 73.6C182.748 73.6 182.569 73.4209 182.569 73.2C182.569 72.9791 182.748 72.8 182.969 72.8C183.189 72.8 183.369 72.9791 183.369 73.2Z" fill="#6B7280"/>
<path d="M184.969 73.2C184.969 73.4209 184.789 73.6 184.569 73.6C184.348 73.6 184.169 73.4209 184.169 73.2C184.169 72.9791 184.348 72.8 184.569 72.8C184.789 72.8 184.969 72.9791 184.969 73.2Z" fill="#6B7280"/>
<path d="M186.569 73.2C186.569 73.4209 186.389 73.6 186.169 73.6C185.948 73.6 185.769 73.4209 185.769 73.2C185.769 72.9791 185.948 72.8 186.169 72.8C186.389 72.8 186.569 72.9791 186.569 73.2Z" fill="#6B7280"/>
</g>
<rect x="211.269" y="63.5" width="79" height="25" rx="5.5" stroke="#E5E7EB"/>
<circle cx="223.769" cy="76" r="4.5" stroke="#E5E7EB"/>
<rect x="232.769" y="73" width="22" height="6" rx="3" fill="#E5E7EB"/>
<circle cx="273.769" cy="76" r="9" fill="#E5E7EB"/>
<g clip-path="url(#clip4_299_2598)">
<path d="M270.569 80.8H276.969C277.393 80.8 277.8 80.6314 278.1 80.3314C278.4 80.0313 278.569 79.6243 278.569 79.2V72.8C278.569 72.3756 278.4 71.9687 278.1 71.6686C277.8 71.3685 277.393 71.2 276.969 71.2H270.569C270.144 71.2 269.737 71.3686 269.437 71.6686C269.137 71.9687 268.969 72.3756 268.969 72.8V79.2C268.969 79.6243 269.137 80.0313 269.437 80.3314C269.737 80.6314 270.144 80.8 270.569 80.8ZM276.969 80H270.569C270.356 80 270.153 79.9157 270.003 79.7657C269.853 79.6156 269.769 79.4122 269.769 79.2V75.2H277.769V79.2C277.769 79.4122 277.684 79.6156 277.534 79.7657C277.384 79.9157 277.181 80 276.969 80H276.969ZM269.769 72.8C269.769 72.5878 269.853 72.3844 270.003 72.2343C270.153 72.0843 270.356 72 270.569 72H276.969C277.181 72 277.384 72.0843 277.534 72.2343C277.684 72.3844 277.769 72.5878 277.769 72.8V74.4H269.769L269.769 72.8Z" fill="#6B7280"/>
<path d="M271.369 73.2C271.369 73.4209 271.189 73.6 270.969 73.6C270.748 73.6 270.569 73.4209 270.569 73.2C270.569 72.9791 270.748 72.8 270.969 72.8C271.189 72.8 271.369 72.9791 271.369 73.2Z" fill="#6B7280"/>
<path d="M272.969 73.2C272.969 73.4209 272.789 73.6 272.569 73.6C272.348 73.6 272.169 73.4209 272.169 73.2C272.169 72.9791 272.348 72.8 272.569 72.8C272.789 72.8 272.969 72.9791 272.969 73.2Z" fill="#6B7280"/>
<path d="M274.569 73.2C274.569 73.4209 274.389 73.6 274.169 73.6C273.948 73.6 273.769 73.4209 273.769 73.2C273.769 72.9791 273.948 72.8 274.169 72.8C274.389 72.8 274.569 72.9791 274.569 73.2Z" fill="#6B7280"/>
</g>
<rect x="34.7686" y="95" width="256" height="22" rx="4" fill="#472F92"/>
<g clip-path="url(#clip5_299_2598)">
<path d="M143.579 108.15L142.609 109.12C142.199 109.53 141.538 109.53 141.128 109.12C140.718 108.71 140.718 108.05 141.128 107.64L143.128 105.64C143.538 105.23 144.199 105.23 144.609 105.64L144.669 105.7C144.859 105.89 145.169 105.89 145.359 105.7C145.549 105.51 145.549 105.2 145.359 105.01L145.299 104.95C144.489 104.14 143.169 104.14 142.359 104.95L140.398 106.92C139.588 107.74 139.558 109.06 140.368 109.88C141.178 110.7 142.508 110.71 143.328 109.89L144.968 108.25C144.508 108.37 144.018 108.34 143.578 108.15L143.579 108.15Z" fill="white"/>
<path d="M144.959 103.85L145.929 102.88C146.339 102.47 146.999 102.47 147.409 102.88C147.819 103.29 147.819 103.95 147.409 104.36L145.409 106.36C144.999 106.77 144.339 106.77 143.929 106.36L143.869 106.3C143.679 106.11 143.369 106.11 143.179 106.3C142.989 106.49 142.989 106.8 143.179 106.99L143.239 107.05C144.049 107.86 145.368 107.86 146.179 107.05L148.139 105.09C148.949 104.28 148.979 102.95 148.169 102.14C147.359 101.3 146.029 101.29 145.209 102.11L143.569 103.75C144.029 103.63 144.519 103.66 144.959 103.85L144.959 103.85Z" fill="white"/>
</g>
<path d="M158.823 105.145L157.76 105.145C157.73 104.971 157.674 104.816 157.592 104.682C157.511 104.545 157.41 104.43 157.288 104.335C157.167 104.241 157.029 104.17 156.874 104.122C156.72 104.073 156.555 104.048 156.377 104.048C156.06 104.048 155.78 104.128 155.536 104.287C155.291 104.444 155.1 104.675 154.962 104.98C154.823 105.283 154.754 105.653 154.754 106.091C154.754 106.536 154.823 106.911 154.962 107.216C155.102 107.519 155.293 107.748 155.536 107.903C155.78 108.057 156.059 108.134 156.374 108.134C156.548 108.134 156.711 108.111 156.862 108.065C157.016 108.018 157.153 107.949 157.274 107.858C157.397 107.767 157.501 107.655 157.584 107.523C157.669 107.39 157.728 107.239 157.76 107.068L158.823 107.074C158.783 107.35 158.697 107.61 158.564 107.852C158.433 108.095 158.262 108.309 158.05 108.494C157.838 108.678 157.59 108.822 157.305 108.926C157.021 109.028 156.706 109.08 156.359 109.08C155.848 109.08 155.392 108.961 154.99 108.724C154.589 108.488 154.272 108.146 154.041 107.699C153.81 107.252 153.695 106.716 153.695 106.091C153.695 105.464 153.811 104.928 154.044 104.483C154.277 104.036 154.594 103.694 154.996 103.457C155.397 103.221 155.852 103.102 156.359 103.102C156.683 103.102 156.984 103.148 157.263 103.239C157.541 103.33 157.789 103.463 158.007 103.639C158.225 103.813 158.404 104.027 158.544 104.281C158.686 104.533 158.779 104.821 158.823 105.145ZM161.646 109.085C161.22 109.085 160.85 108.991 160.538 108.804C160.225 108.616 159.983 108.354 159.81 108.017C159.64 107.68 159.555 107.286 159.555 106.835C159.555 106.384 159.64 105.99 159.81 105.651C159.983 105.312 160.225 105.048 160.538 104.861C160.85 104.673 161.22 104.58 161.646 104.58C162.072 104.58 162.441 104.673 162.754 104.861C163.066 105.048 163.308 105.312 163.478 105.651C163.65 105.99 163.737 106.384 163.737 106.835C163.737 107.286 163.65 107.68 163.478 108.017C163.308 108.354 163.066 108.616 162.754 108.804C162.441 108.991 162.072 109.085 161.646 109.085ZM161.651 108.261C161.882 108.261 162.076 108.198 162.231 108.071C162.386 107.942 162.502 107.77 162.578 107.554C162.655 107.338 162.694 107.098 162.694 106.832C162.694 106.565 162.655 106.324 162.578 106.108C162.502 105.89 162.386 105.717 162.231 105.588C162.076 105.459 161.882 105.395 161.651 105.395C161.415 105.395 161.218 105.459 161.06 105.588C160.905 105.717 160.789 105.89 160.711 106.108C160.635 106.324 160.597 106.565 160.597 106.832C160.597 107.098 160.635 107.338 160.711 107.554C160.789 107.77 160.905 107.942 161.06 108.071C161.218 108.198 161.415 108.261 161.651 108.261ZM165.638 106.443L165.638 109L164.609 109L164.609 104.636L165.592 104.636L165.592 105.378L165.644 105.378C165.744 105.134 165.904 104.939 166.124 104.795C166.345 104.652 166.619 104.58 166.945 104.58C167.246 104.58 167.508 104.644 167.732 104.773C167.957 104.902 168.131 105.088 168.254 105.332C168.379 105.577 168.441 105.873 168.439 106.222L168.439 109L167.411 109L167.411 106.381C167.411 106.089 167.335 105.861 167.183 105.696C167.034 105.531 166.826 105.449 166.561 105.449C166.381 105.449 166.221 105.489 166.081 105.568C165.943 105.646 165.834 105.759 165.754 105.906C165.677 106.054 165.638 106.233 165.638 106.443ZM170.513 106.443L170.513 109L169.484 109L169.484 104.636L170.467 104.636L170.467 105.378L170.519 105.378C170.619 105.134 170.779 104.939 170.999 104.795C171.22 104.652 171.494 104.58 171.82 104.58C172.121 104.58 172.383 104.644 172.607 104.773C172.832 104.902 173.006 105.088 173.129 105.332C173.254 105.577 173.316 105.873 173.314 106.222L173.314 109L172.286 109L172.286 106.381C172.286 106.089 172.21 105.861 172.058 105.696C171.909 105.531 171.701 105.449 171.436 105.449C171.256 105.449 171.096 105.489 170.956 105.568C170.818 105.646 170.709 105.759 170.629 105.906C170.552 106.054 170.513 106.233 170.513 106.443ZM176.291 109.085C175.854 109.085 175.476 108.994 175.158 108.812C174.841 108.629 174.598 108.369 174.428 108.034C174.257 107.697 174.172 107.3 174.172 106.844C174.172 106.395 174.257 106.001 174.428 105.662C174.6 105.321 174.841 105.056 175.149 104.866C175.458 104.675 175.821 104.58 176.237 104.58C176.506 104.58 176.76 104.623 176.999 104.71C177.239 104.795 177.451 104.928 177.635 105.108C177.821 105.288 177.966 105.517 178.073 105.795C178.179 106.072 178.232 106.402 178.232 106.784L178.232 107.099L174.655 107.099L174.655 106.406L177.246 106.406C177.244 106.209 177.201 106.034 177.118 105.881C177.035 105.725 176.918 105.603 176.769 105.514C176.621 105.425 176.448 105.381 176.252 105.381C176.041 105.381 175.857 105.432 175.698 105.534C175.538 105.634 175.414 105.767 175.325 105.932C175.238 106.095 175.194 106.274 175.192 106.469L175.192 107.074C175.192 107.328 175.238 107.545 175.331 107.727C175.424 107.907 175.554 108.045 175.72 108.142C175.887 108.237 176.082 108.284 176.305 108.284C176.455 108.284 176.591 108.263 176.712 108.222C176.833 108.178 176.938 108.115 177.027 108.031C177.116 107.948 177.183 107.845 177.229 107.722L178.189 107.83C178.128 108.083 178.013 108.305 177.842 108.494C177.674 108.682 177.458 108.828 177.195 108.932C176.931 109.034 176.63 109.085 176.291 109.085ZM181.005 109.085C180.569 109.085 180.195 108.99 179.883 108.798C179.572 108.607 179.333 108.343 179.164 108.006C178.997 107.667 178.914 107.277 178.914 106.835C178.914 106.392 178.999 106.001 179.17 105.662C179.34 105.321 179.581 105.056 179.891 104.866C180.204 104.675 180.573 104.58 180.999 104.58C181.354 104.58 181.667 104.645 181.94 104.776C182.214 104.904 182.433 105.087 182.596 105.324C182.759 105.559 182.852 105.833 182.874 106.148L181.891 106.148C181.852 105.937 181.757 105.762 181.607 105.622C181.46 105.48 181.262 105.409 181.014 105.409C180.803 105.409 180.619 105.466 180.46 105.58C180.301 105.691 180.176 105.852 180.087 106.062C180 106.273 179.957 106.525 179.957 106.818C179.957 107.116 180 107.371 180.087 107.585C180.175 107.797 180.297 107.961 180.454 108.077C180.613 108.19 180.8 108.247 181.014 108.247C181.165 108.247 181.301 108.219 181.42 108.162C181.541 108.103 181.642 108.019 181.724 107.909C181.805 107.799 181.861 107.666 181.891 107.509L182.874 107.509C182.85 107.817 182.759 108.091 182.602 108.33C182.444 108.566 182.23 108.752 181.96 108.886C181.689 109.019 181.371 109.085 181.005 109.085ZM185.898 104.636L185.898 105.432L183.389 105.432L183.389 104.636L185.898 104.636ZM184.009 103.591L185.037 103.591L185.037 107.687C185.037 107.826 185.058 107.932 185.1 108.006C185.143 108.078 185.2 108.127 185.27 108.153C185.34 108.18 185.418 108.193 185.503 108.193C185.567 108.193 185.626 108.188 185.679 108.179C185.734 108.17 185.776 108.161 185.804 108.153L185.977 108.957C185.922 108.976 185.844 108.997 185.742 109.02C185.641 109.043 185.518 109.056 185.372 109.06C185.115 109.067 184.883 109.028 184.676 108.943C184.47 108.856 184.306 108.722 184.185 108.54C184.065 108.358 184.007 108.131 184.009 107.858L184.009 103.591Z" fill="white"/>
<g filter="url(#filter1_d_299_2598)">
<rect x="80.7686" y="136" width="163" height="59" rx="4" fill="white"/>
</g>
<rect x="158.769" y="169" width="75" height="18" rx="4" fill="#111827"/>
<g clip-path="url(#clip6_299_2598)">
<path d="M186.679 177.31C186.789 177.31 186.889 177.32 186.998 177.33L186.999 175.21C186.999 174.54 186.449 173.99 185.779 173.99H184.999V173.69C184.999 173.51 184.859 173.37 184.679 173.37C184.499 173.37 184.359 173.51 184.359 173.69V173.99H182.159V173.69C182.159 173.51 182.019 173.37 181.839 173.37C181.659 173.37 181.519 173.51 181.519 173.69V173.99H180.749C180.069 173.99 179.519 174.54 179.519 175.21V179.39C179.519 180.06 180.069 180.61 180.739 180.61H183.708C183.698 180.5 183.688 180.4 183.688 180.29C183.698 178.65 185.039 177.31 186.679 177.31L186.679 177.31ZM180.159 175.84V175.22C180.159 174.9 180.419 174.63 180.749 174.63H181.519V174.93C181.519 175.11 181.659 175.25 181.839 175.25C182.019 175.25 182.159 175.11 182.159 174.93V174.63H184.359V174.93C184.359 175.11 184.499 175.25 184.679 175.25C184.859 175.25 184.999 175.11 184.999 174.93V174.63H185.779C186.099 174.63 186.359 174.89 186.359 175.22V175.84H180.159Z" fill="white"/>
<path d="M186.679 177.95C185.389 177.95 184.339 179 184.339 180.29C184.339 181.58 185.389 182.63 186.679 182.63C187.969 182.63 189.019 181.58 189.019 180.29C189.019 179 187.969 177.95 186.679 177.95ZM187.559 180.61H186.679C186.499 180.61 186.359 180.47 186.359 180.29L186.359 179.2C186.359 179.02 186.499 178.88 186.679 178.88C186.859 178.88 186.999 179.02 186.999 179.2V179.97H187.559C187.739 179.97 187.879 180.11 187.879 180.29C187.879 180.47 187.739 180.61 187.559 180.61Z" fill="white"/>
</g>
<path d="M193.842 181L193.842 175.182L196.07 175.182C196.49 175.182 196.84 175.248 197.118 175.381C197.398 175.511 197.608 175.69 197.746 175.918C197.886 176.145 197.956 176.402 197.956 176.69C197.956 176.927 197.911 177.13 197.82 177.298C197.729 177.465 197.607 177.6 197.453 177.705C197.3 177.809 197.128 177.884 196.939 177.929L196.939 177.986C197.145 177.997 197.343 178.061 197.533 178.176C197.724 178.29 197.88 178.451 198.002 178.659C198.123 178.867 198.183 179.119 198.183 179.415C198.183 179.716 198.11 179.987 197.965 180.227C197.819 180.466 197.599 180.654 197.305 180.793C197.012 180.931 196.643 181 196.198 181L193.842 181ZM194.896 180.119L196.03 180.119C196.412 180.119 196.688 180.046 196.857 179.901C197.027 179.753 197.112 179.563 197.112 179.332C197.112 179.16 197.07 179.005 196.984 178.866C196.899 178.726 196.778 178.616 196.621 178.537C196.464 178.455 196.276 178.415 196.058 178.415L194.896 178.415L194.896 180.119ZM194.896 177.656L195.939 177.656C196.121 177.656 196.285 177.623 196.43 177.557C196.576 177.489 196.691 177.393 196.774 177.27C196.859 177.145 196.902 176.997 196.902 176.827C196.902 176.601 196.823 176.416 196.663 176.27C196.506 176.124 196.272 176.051 195.962 176.051L194.896 176.051L194.896 177.656ZM200.958 181.085C200.532 181.085 200.163 180.991 199.85 180.804C199.538 180.616 199.295 180.354 199.123 180.017C198.953 179.68 198.867 179.286 198.867 178.835C198.867 178.384 198.953 177.99 199.123 177.651C199.295 177.312 199.538 177.048 199.85 176.861C200.163 176.673 200.532 176.58 200.958 176.58C201.384 176.58 201.754 176.673 202.066 176.861C202.379 177.048 202.62 177.312 202.791 177.651C202.963 177.99 203.049 178.384 203.049 178.835C203.049 179.286 202.963 179.68 202.791 180.017C202.62 180.354 202.379 180.616 202.066 180.804C201.754 180.991 201.384 181.085 200.958 181.085ZM200.964 180.261C201.195 180.261 201.388 180.198 201.543 180.071C201.699 179.942 201.814 179.77 201.89 179.554C201.968 179.338 202.006 179.098 202.006 178.832C202.006 178.565 201.968 178.324 201.89 178.108C201.814 177.89 201.699 177.717 201.543 177.588C201.388 177.459 201.195 177.395 200.964 177.395C200.727 177.395 200.53 177.459 200.373 177.588C200.218 177.717 200.101 177.89 200.024 178.108C199.948 178.324 199.91 178.565 199.91 178.832C199.91 179.098 199.948 179.338 200.024 179.554C200.101 179.77 200.218 179.942 200.373 180.071C200.53 180.198 200.727 180.261 200.964 180.261ZM205.825 181.085C205.399 181.085 205.03 180.991 204.717 180.804C204.405 180.616 204.162 180.354 203.99 180.017C203.82 179.68 203.734 179.286 203.734 178.835C203.734 178.384 203.82 177.99 203.99 177.651C204.162 177.312 204.405 177.048 204.717 176.861C205.03 176.673 205.399 176.58 205.825 176.58C206.252 176.58 206.621 176.673 206.933 176.861C207.246 177.048 207.487 177.312 207.658 177.651C207.83 177.99 207.916 178.384 207.916 178.835C207.916 179.286 207.83 179.68 207.658 180.017C207.487 180.354 207.246 180.616 206.933 180.804C206.621 180.991 206.252 181.085 205.825 181.085ZM205.831 180.261C206.062 180.261 206.255 180.198 206.411 180.071C206.566 179.942 206.681 179.77 206.757 179.554C206.835 179.338 206.874 179.098 206.874 178.832C206.874 178.565 206.835 178.324 206.757 178.108C206.681 177.89 206.566 177.717 206.411 177.588C206.255 177.459 206.062 177.395 205.831 177.395C205.594 177.395 205.397 177.459 205.24 177.588C205.085 177.717 204.968 177.89 204.891 178.108C204.815 178.324 204.777 178.565 204.777 178.832C204.777 179.098 204.815 179.338 204.891 179.554C204.968 179.77 205.085 179.942 205.24 180.071C205.397 180.198 205.594 180.261 205.831 180.261ZM209.727 179.631L209.724 178.389L209.889 178.389L211.457 176.636L212.658 176.636L210.729 178.784L210.516 178.784L209.727 179.631ZM208.789 181L208.789 175.182L209.818 175.182L209.818 181L208.789 181ZM211.528 181L210.107 179.014L210.801 178.29L212.758 181L211.528 181Z" fill="white"/>
<path d="M115.769 141C111.911 141 108.769 144.142 108.769 148C108.769 151.858 111.91 155 115.769 155C119.627 155 122.769 151.858 122.769 148C122.769 144.142 119.627 141 115.769 141ZM119.024 146.73L115.117 150.637C114.987 150.767 114.824 150.832 114.662 150.832C114.499 150.832 114.336 150.767 114.206 150.637L112.187 148.651C111.927 148.391 111.927 147.984 112.187 147.723C112.448 147.463 112.855 147.463 113.115 147.723L114.645 149.253L118.096 145.802C118.357 145.542 118.764 145.542 119.024 145.802C119.268 146.063 119.269 146.47 119.024 146.73Z" fill="#1F2937"/>
<path fill-rule="evenodd" clip-rule="evenodd" d="M126.522 162.827H122.276C122.067 162.829 121.866 162.747 121.718 162.599C121.57 162.452 121.486 162.251 121.486 162.041V157.007H116.692C116.663 157.005 116.633 157.016 116.612 157.037C116.596 157.055 116.585 157.077 116.581 157.101V172.599C116.586 172.623 116.597 172.646 116.612 172.665C116.632 172.683 116.658 172.693 116.684 172.693H132.103C132.129 172.692 132.155 172.681 132.174 172.662C132.193 172.642 132.204 172.615 132.206 172.588V157.104C132.205 157.077 132.194 157.05 132.174 157.03C132.156 157.01 132.13 156.998 132.103 157H127.301V162.035C127.301 162.468 126.951 162.82 126.519 162.821L126.522 162.827ZM119.412 167.79C118.98 167.79 118.63 167.438 118.63 167.004C118.63 166.569 118.98 166.218 119.412 166.218H122.762C123.194 166.218 123.545 166.569 123.545 167.004C123.545 167.438 123.194 167.79 122.762 167.79H119.412ZM119.412 170.818C118.98 170.818 118.63 170.467 118.63 170.032C118.63 169.598 118.98 169.246 119.412 169.246H122.762C123.194 169.246 123.545 169.598 123.545 170.032C123.545 170.467 123.194 170.818 122.762 170.818H119.412ZM123.058 161.255V157.007H125.738V161.255H123.058ZM115.017 172.599V157.101C115.018 157.077 115.01 157.054 114.993 157.037C114.971 157.017 114.943 157.006 114.913 157.007H110.111V162.041C110.111 162.475 109.761 162.827 109.33 162.827H105.086C104.655 162.827 104.304 162.475 104.304 162.041V157.007H99.5025C99.4733 157.007 99.4449 157.017 99.4235 157.037C99.4063 157.058 99.3972 157.084 99.399 157.111V172.594C99.3972 172.623 99.4093 172.65 99.4308 172.669C99.4492 172.689 99.4754 172.7 99.5025 172.7H114.916C114.938 172.7 114.961 172.694 114.98 172.683L114.988 172.669C115.006 172.65 115.016 172.625 115.017 172.599ZM102.223 167.787C101.791 167.787 101.44 167.435 101.44 167.001C101.44 166.567 101.79 166.215 102.222 166.215H105.571C106.003 166.215 106.353 166.567 106.353 167.001C106.353 167.435 106.003 167.787 105.571 167.787H102.223ZM102.223 170.816C101.791 170.816 101.44 170.464 101.44 170.03C101.44 169.595 101.79 169.243 102.222 169.243H105.571C106.003 169.243 106.353 169.595 106.353 170.03C106.353 170.464 106.003 170.816 105.571 170.816H102.223ZM105.867 161.255V157.006H108.547V161.255H105.867ZM135.078 180.092H130.834C130.626 180.093 130.427 180.01 130.28 179.863C130.133 179.715 130.051 179.515 130.053 179.306V174.271H125.252C125.222 174.271 125.195 174.282 125.172 174.301C125.156 174.319 125.148 174.342 125.149 174.365V189.868C125.148 189.892 125.156 189.915 125.172 189.932C125.195 189.952 125.222 189.962 125.252 189.963H140.665C140.692 189.962 140.717 189.951 140.737 189.932C140.756 189.911 140.767 189.885 140.769 189.857V174.374C140.767 174.346 140.756 174.32 140.737 174.299C140.717 174.28 140.692 174.269 140.665 174.269H135.863V179.304C135.863 179.738 135.513 180.09 135.082 180.09L135.078 180.092ZM127.971 185.054C127.547 185.042 127.21 184.694 127.21 184.268C127.21 183.842 127.547 183.493 127.971 183.482H131.321C131.745 183.493 132.082 183.842 132.082 184.268C132.082 184.694 131.745 185.042 131.321 185.054H127.971ZM127.971 188.084C127.538 188.084 127.188 187.731 127.188 187.297C127.188 186.862 127.538 186.51 127.971 186.51H131.321C131.753 186.51 132.104 186.862 132.104 187.297C132.104 187.731 131.753 188.084 131.321 188.084L127.971 188.084ZM131.616 178.52V174.271H134.296V178.519L131.616 178.52ZM123.576 189.869V174.364C123.577 174.341 123.568 174.318 123.552 174.301C123.531 174.281 123.502 174.27 123.472 174.271H118.672V179.306C118.672 179.74 118.322 180.092 117.89 180.092H113.645C113.213 180.092 112.863 179.74 112.863 179.306V174.271H108.06C108.033 174.27 108.007 174.281 107.989 174.301C107.97 174.319 107.959 174.342 107.956 174.367V189.868C107.959 189.894 107.97 189.917 107.989 189.935C108.008 189.954 108.033 189.965 108.06 189.963H123.473C123.503 189.964 123.532 189.953 123.553 189.931C123.569 189.915 123.577 189.892 123.576 189.869ZM110.782 185.055C110.357 185.043 110.02 184.694 110.02 184.268C110.02 183.842 110.357 183.494 110.782 183.482H114.132C114.343 183.476 114.548 183.556 114.7 183.704C114.851 183.852 114.937 184.056 114.937 184.268C114.937 184.481 114.851 184.684 114.7 184.832C114.548 184.98 114.343 185.06 114.132 185.055H110.782ZM110.782 188.084C110.349 188.084 109.998 187.732 109.998 187.297C109.998 186.863 110.349 186.511 110.782 186.511H114.132C114.564 186.511 114.915 186.863 114.915 187.297C114.915 187.732 114.564 188.084 114.132 188.084L110.782 188.084ZM114.427 178.52L114.426 174.271H117.107V178.519L114.427 178.52ZM106.395 189.869V174.368C106.389 174.344 106.378 174.321 106.363 174.302C106.344 174.283 106.318 174.273 106.291 174.275H101.489V179.31C101.489 179.744 101.139 180.096 100.707 180.096H96.456C96.2484 180.096 96.0495 180.013 95.903 179.865C95.7565 179.718 95.6744 179.518 95.6744 179.31V174.272H90.8807C90.851 174.272 90.8227 174.282 90.8003 174.302C90.7814 174.322 90.7703 174.348 90.7686 174.377V189.859C90.7703 189.887 90.7814 189.914 90.8003 189.935C90.8227 189.954 90.851 189.965 90.8807 189.965H106.293C106.313 189.966 106.332 189.96 106.349 189.948L106.365 189.934C106.379 189.914 106.39 189.893 106.395 189.869ZM93.6004 185.055C93.1763 185.043 92.8386 184.695 92.8386 184.269C92.8386 183.843 93.1763 183.494 93.6004 183.482H96.9505C97.3746 183.494 97.7118 183.843 97.7118 184.269C97.7118 184.695 97.3741 185.043 96.95 185.055H93.6004ZM93.6004 188.085C93.1677 188.085 92.8171 187.732 92.8171 187.298C92.8171 186.863 93.1677 186.511 93.6004 186.511H96.9505C97.3831 186.511 97.7333 186.863 97.7333 187.298C97.7333 187.732 97.3827 188.084 96.95 188.084L93.6004 188.085ZM97.2457 178.52L97.2453 174.271H99.9255V178.52L97.2457 178.52Z" fill="#9CA3AF"/>
<rect x="158.769" y="156" width="75" height="6" rx="3" fill="#D5F0F2"/>
<path d="M158.769 159C158.769 157.343 160.112 156 161.769 156H198.769V162H161.769C160.112 162 158.769 160.657 158.769 159Z" fill="#2FB5C0"/>
<path d="M161.365 152.08C160.964 152.08 160.606 152.006 160.291 151.858C159.979 151.71 159.731 151.507 159.547 151.247C159.363 150.988 159.268 150.69 159.26 150.355H160.453C160.466 150.58 160.561 150.763 160.737 150.903C160.913 151.044 161.123 151.114 161.365 151.114C161.558 151.114 161.729 151.071 161.877 150.986C162.026 150.899 162.143 150.778 162.226 150.625C162.311 150.47 162.354 150.292 162.354 150.091C162.354 149.886 162.31 149.706 162.223 149.551C162.138 149.396 162.02 149.275 161.868 149.188C161.716 149.1 161.543 149.056 161.348 149.054C161.178 149.054 161.012 149.089 160.851 149.159C160.692 149.229 160.568 149.325 160.479 149.446L159.385 149.25L159.661 146.182H163.217V147.188H160.675L160.524 148.645H160.558C160.661 148.501 160.815 148.382 161.021 148.287C161.228 148.192 161.459 148.145 161.715 148.145C162.065 148.145 162.377 148.227 162.652 148.392C162.927 148.557 163.144 148.783 163.303 149.071C163.462 149.357 163.54 149.687 163.538 150.06C163.54 150.452 163.449 150.8 163.266 151.105C163.084 151.408 162.829 151.647 162.502 151.821C162.176 151.993 161.797 152.08 161.365 152.08ZM166.629 152.08C166.33 152.078 166.041 152.027 165.763 151.929C165.486 151.83 165.238 151.67 165.019 151.449C164.799 151.227 164.625 150.934 164.496 150.568C164.369 150.203 164.305 149.754 164.305 149.222C164.307 148.733 164.363 148.296 164.473 147.912C164.585 147.526 164.744 147.198 164.95 146.929C165.159 146.66 165.408 146.455 165.698 146.315C165.987 146.173 166.312 146.102 166.672 146.102C167.06 146.102 167.403 146.178 167.7 146.33C167.998 146.479 168.236 146.683 168.416 146.94C168.598 147.198 168.708 147.487 168.746 147.807H167.533C167.485 147.604 167.386 147.445 167.234 147.33C167.083 147.214 166.895 147.156 166.672 147.156C166.293 147.156 166.005 147.321 165.808 147.651C165.613 147.98 165.514 148.428 165.51 148.994H165.55C165.637 148.822 165.754 148.675 165.902 148.554C166.052 148.431 166.221 148.337 166.411 148.273C166.602 148.206 166.804 148.173 167.016 148.173C167.36 148.173 167.667 148.255 167.936 148.418C168.205 148.579 168.417 148.8 168.573 149.082C168.728 149.365 168.805 149.687 168.805 150.051C168.805 150.445 168.714 150.795 168.53 151.102C168.348 151.409 168.093 151.65 167.766 151.824C167.44 151.996 167.061 152.081 166.629 152.08ZM166.624 151.114C166.813 151.114 166.983 151.068 167.132 150.977C167.282 150.886 167.399 150.763 167.484 150.608C167.57 150.453 167.612 150.278 167.612 150.085C167.612 149.892 167.57 149.719 167.484 149.565C167.401 149.412 167.286 149.29 167.138 149.199C166.99 149.108 166.822 149.062 166.632 149.062C166.49 149.062 166.359 149.089 166.237 149.142C166.118 149.195 166.013 149.269 165.922 149.364C165.833 149.458 165.763 149.568 165.712 149.693C165.661 149.816 165.635 149.948 165.635 150.088C165.635 150.276 165.678 150.447 165.763 150.602C165.85 150.758 165.967 150.882 166.115 150.974C166.265 151.067 166.434 151.114 166.624 151.114ZM172.862 150.909V150.602C172.862 150.369 172.912 150.155 173.01 149.96C173.11 149.763 173.255 149.606 173.445 149.489C173.636 149.369 173.869 149.31 174.144 149.31C174.422 149.31 174.656 149.368 174.845 149.486C175.037 149.603 175.18 149.76 175.277 149.957C175.376 150.152 175.425 150.367 175.425 150.602V150.909C175.425 151.142 175.376 151.357 175.277 151.554C175.179 151.749 175.034 151.905 174.842 152.023C174.651 152.142 174.418 152.202 174.144 152.202C173.865 152.202 173.631 152.142 173.442 152.023C173.252 151.905 173.109 151.749 173.01 151.554C172.912 151.357 172.862 151.142 172.862 150.909ZM173.689 150.602V150.909C173.689 151.044 173.721 151.17 173.786 151.29C173.852 151.409 173.971 151.469 174.144 151.469C174.316 151.469 174.433 151.41 174.496 151.293C174.56 151.175 174.592 151.047 174.592 150.909V150.602C174.592 150.464 174.562 150.335 174.502 150.216C174.441 150.097 174.322 150.037 174.144 150.037C173.973 150.037 173.855 150.097 173.788 150.216C173.722 150.335 173.689 150.464 173.689 150.602ZM169.877 147.58V147.273C169.877 147.038 169.927 146.823 170.027 146.628C170.127 146.431 170.272 146.274 170.462 146.156C170.653 146.039 170.884 145.98 171.155 145.98C171.435 145.98 171.67 146.039 171.859 146.156C172.049 146.274 172.193 146.431 172.291 146.628C172.39 146.823 172.439 147.038 172.439 147.273V147.58C172.439 147.814 172.389 148.029 172.288 148.224C172.19 148.42 172.045 148.576 171.854 148.693C171.664 148.809 171.431 148.866 171.155 148.866C170.878 148.866 170.645 148.808 170.453 148.69C170.264 148.571 170.12 148.415 170.021 148.222C169.925 148.027 169.877 147.812 169.877 147.58ZM170.709 147.273V147.58C170.709 147.718 170.741 147.846 170.805 147.963C170.872 148.08 170.988 148.139 171.155 148.139C171.329 148.139 171.448 148.08 171.51 147.963C171.574 147.846 171.607 147.718 171.607 147.58V147.273C171.607 147.134 171.576 147.006 171.516 146.886C171.455 146.767 171.335 146.707 171.155 146.707C170.986 146.707 170.87 146.768 170.805 146.889C170.741 147.01 170.709 147.138 170.709 147.273ZM170.252 152L174.252 146.182H174.996L170.996 152H170.252ZM180.051 148.727V149.239H178.202V148.727H180.051ZM178.709 152V148.348C178.709 148.143 178.754 147.974 178.843 147.839C178.933 147.702 179.051 147.601 179.199 147.534C179.347 147.466 179.507 147.432 179.68 147.432C179.808 147.432 179.918 147.442 180.009 147.464C180.1 147.484 180.167 147.502 180.211 147.519L180.062 148.035C180.032 148.026 179.994 148.016 179.947 148.005C179.9 147.992 179.843 147.986 179.776 147.986C179.622 147.986 179.511 148.024 179.444 148.101C179.379 148.178 179.346 148.288 179.346 148.433V152H178.709ZM180.709 152V148.727H181.346V152H180.709ZM181.03 148.222C180.919 148.222 180.824 148.185 180.745 148.112C180.667 148.036 180.628 147.947 180.628 147.843C180.628 147.738 180.667 147.648 180.745 147.575C180.824 147.499 180.919 147.462 181.03 147.462C181.141 147.462 181.236 147.499 181.314 147.575C181.393 147.648 181.433 147.738 181.433 147.843C181.433 147.947 181.393 148.036 181.314 148.112C181.236 148.185 181.141 148.222 181.03 148.222ZM182.84 147.636V152H182.203V147.636H182.84ZM184.334 147.636V152H183.697V147.636H184.334ZM186.601 152.066C186.279 152.066 186.001 151.997 185.768 151.859C185.537 151.72 185.358 151.525 185.231 151.273C185.106 151.021 185.044 150.724 185.044 150.385C185.044 150.05 185.106 149.754 185.231 149.499C185.358 149.243 185.534 149.043 185.76 148.9C185.987 148.756 186.253 148.685 186.557 148.685C186.741 148.685 186.92 148.715 187.094 148.776C187.267 148.837 187.422 148.933 187.56 149.064C187.698 149.195 187.807 149.364 187.886 149.573C187.966 149.781 188.006 150.033 188.006 150.33V150.555H185.404V150.078H187.381C187.381 149.911 187.347 149.762 187.279 149.633C187.211 149.502 187.115 149.399 186.991 149.324C186.869 149.249 186.726 149.211 186.561 149.211C186.382 149.211 186.226 149.255 186.092 149.343C185.96 149.43 185.858 149.543 185.785 149.684C185.714 149.823 185.679 149.974 185.679 150.138V150.511C185.679 150.729 185.717 150.915 185.794 151.069C185.872 151.222 185.981 151.339 186.12 151.42C186.259 151.5 186.422 151.54 186.608 151.54C186.729 151.54 186.839 151.523 186.938 151.489C187.038 151.453 187.123 151.401 187.196 151.331C187.268 151.261 187.324 151.175 187.362 151.073L187.965 151.182C187.917 151.359 187.83 151.515 187.705 151.648C187.582 151.781 187.426 151.884 187.239 151.957C187.052 152.03 186.84 152.066 186.601 152.066ZM189.938 152.064C189.673 152.064 189.438 151.996 189.23 151.862C189.024 151.725 188.862 151.531 188.744 151.28C188.628 151.027 188.57 150.724 188.57 150.37C188.57 150.016 188.629 149.714 188.747 149.462C188.866 149.211 189.029 149.018 189.237 148.885C189.444 148.751 189.679 148.685 189.942 148.685C190.145 148.685 190.308 148.719 190.432 148.787C190.557 148.854 190.653 148.932 190.722 149.021C190.791 149.111 190.845 149.19 190.884 149.258H190.922V147.636H191.559V152H190.937V151.491H190.884C190.845 151.56 190.79 151.64 190.717 151.729C190.646 151.819 190.548 151.897 190.423 151.964C190.298 152.031 190.136 152.064 189.938 152.064ZM190.078 151.521C190.261 151.521 190.416 151.472 190.543 151.376C190.671 151.278 190.767 151.142 190.832 150.969C190.899 150.795 190.933 150.594 190.933 150.364C190.933 150.136 190.9 149.937 190.835 149.767C190.769 149.597 190.673 149.464 190.547 149.369C190.421 149.273 190.264 149.226 190.078 149.226C189.886 149.226 189.727 149.276 189.599 149.375C189.471 149.474 189.374 149.61 189.309 149.782C189.245 149.954 189.213 150.148 189.213 150.364C189.213 150.582 189.246 150.779 189.311 150.954C189.377 151.129 189.473 151.267 189.601 151.369C189.73 151.47 189.889 151.521 190.078 151.521Z" fill="#1C6D73"/>
<defs>
<filter id="filter0_d_299_2598" x="0.768555" y="0" width="324" height="230" filterUnits="userSpaceOnUse" color-interpolation-filters="sRGB">
<feFlood flood-opacity="0" result="BackgroundImageFix"/>
<feColorMatrix in="SourceAlpha" type="matrix" values="0 0 0 0 0 0 0 0 0 0 0 0 0 0 0 0 0 0 127 0" result="hardAlpha"/>
<feMorphology radius="2" operator="dilate" in="SourceAlpha" result="effect1_dropShadow_299_2598"/>
<feOffset dy="5"/>
<feGaussianBlur stdDeviation="7"/>
<feColorMatrix type="matrix" values="0 0 0 0 0.91316 0 0 0 0 0.915718 0 0 0 0 0.920833 0 0 0 0.24 0"/>
<feBlend mode="normal" in2="BackgroundImageFix" result="effect1_dropShadow_299_2598"/>
<feBlend mode="normal" in="SourceGraphic" in2="effect1_dropShadow_299_2598" result="shape"/>
</filter>
<filter id="filter1_d_299_2598" x="72.7686" y="132" width="179" height="75" filterUnits="userSpaceOnUse" color-interpolation-filters="sRGB">
<feFlood flood-opacity="0" result="BackgroundImageFix"/>
<feColorMatrix in="SourceAlpha" type="matrix" values="0 0 0 0 0 0 0 0 0 0 0 0 0 0 0 0 0 0 127 0" result="hardAlpha"/>
<feOffset dy="4"/>
<feGaussianBlur stdDeviation="4"/>
<feComposite in2="hardAlpha" operator="out"/>
<feColorMatrix type="matrix" values="0 0 0 0 0.68104 0 0 0 0 0.714163 0 0 0 0 0.780409 0 0 0 0.24 0"/>
<feBlend mode="normal" in2="BackgroundImageFix" result="effect1_dropShadow_299_2598"/>
<feBlend mode="normal" in="SourceGraphic" in2="effect1_dropShadow_299_2598" result="shape"/>
</filter>
<linearGradient id="paint0_linear_299_2598" x1="212.5" y1="70" x2="212.5" y2="136" gradientUnits="userSpaceOnUse">
<stop stop-color="#F3F4F6"/>
<stop offset="1" stop-color="#DAE0ED" stop-opacity="0.15"/>
</linearGradient>
<clipPath id="clip0_299_2598">
<rect x="26.7686" y="132" width="272" height="67" rx="6" fill="white"/>
</clipPath>
<clipPath id="clip1_299_2598">
<rect width="425" height="425" fill="white" transform="translate(-65.2314 62)"/>
</clipPath>
<clipPath id="clip2_299_2598">
<rect width="10" height="10" fill="white" transform="translate(92.7686 71)"/>
</clipPath>
<clipPath id="clip3_299_2598">
<rect width="10" height="10" fill="white" transform="translate(180.769 71)"/>
</clipPath>
<clipPath id="clip4_299_2598">
<rect width="10" height="10" fill="white" transform="translate(268.769 71)"/>
</clipPath>
<clipPath id="clip5_299_2598">
<rect width="10" height="10" fill="white" transform="translate(139.269 101)"/>
</clipPath>
<clipPath id="clip6_299_2598">
<rect width="10" height="10" fill="white" transform="translate(179.269 173)"/>
</clipPath>
</defs>
</svg>
