<svg width="180" height="181" viewBox="0 0 180 181" fill="none" xmlns="http://www.w3.org/2000/svg">
<g filter="url(#filter0_b_711_1134)">
<rect x="0.609917" y="41.895" width="110.776" height="139.114" rx="5.15237" transform="rotate(-3.96602 0.609917 41.895)" fill="white"/>
<rect x="1.29697" y="42.493" width="109.488" height="137.826" rx="4.50833" transform="rotate(-3.96602 1.29697 42.493)" stroke="url(#paint0_linear_711_1134)" stroke-width="1.28809"/>
</g>
<path d="M19.6989 50.9117C15.1113 50.9953 11.6246 55.0066 12.175 59.5669C12.6435 63.4661 16.0561 66.4395 19.9777 66.3659C24.5653 66.2823 28.0687 62.2523 27.5185 57.6912C27.0321 53.7936 23.6387 50.8365 19.6989 50.9114L19.6989 50.9117ZM18.8114 62.5337L15.2647 59.4431L16.3324 58.2148L18.6522 60.2362L23.0744 55.1684L24.3015 56.2376L18.8114 62.5337Z" fill="#2FB5C0"/>
<rect x="32.43" y="53.8921" width="56.6761" height="7.72856" rx="1.28809" transform="rotate(-3.96602 32.43 53.8921)" fill="#E5E7EB"/>
<path d="M21.1242 71.4718C16.5366 71.5554 13.0498 75.5666 13.6003 80.127C14.0688 84.0262 17.4814 86.9995 21.403 86.926C25.9906 86.8424 29.494 82.8123 28.9438 78.2513C28.4574 74.3537 25.064 71.3966 21.1242 71.4714L21.1242 71.4718ZM20.2367 83.0938L16.69 80.0032L17.7577 78.7749L20.0775 80.7963L24.4997 75.7284L25.7268 76.7977L20.2367 83.0938Z" fill="#2FB5C0"/>
<rect x="33.8554" y="74.4524" width="56.6761" height="7.72856" rx="1.28809" transform="rotate(-3.96602 33.8554 74.4524)" fill="#E5E7EB"/>
<path d="M22.55 92.0318C17.9624 92.1154 14.4757 96.1267 15.0261 100.687C15.4947 104.586 18.9072 107.56 22.8288 107.486C27.4164 107.402 30.9198 103.372 30.3697 98.8113C29.8833 94.9137 26.4898 91.9566 22.55 92.0315L22.55 92.0318ZM21.6625 103.654L18.1158 100.563L19.1836 99.3349L21.5034 101.356L25.9255 96.2885L27.1526 97.3577L21.6625 103.654Z" fill="#2FB5C0"/>
<rect x="35.2813" y="95.0125" width="56.6761" height="7.72856" rx="1.28809" transform="rotate(-3.96602 35.2813 95.0125)" fill="#E5E7EB"/>
<path d="M69.9094 140.624C70.9026 154.949 60.095 167.367 45.77 168.36C31.4449 169.353 19.0271 158.546 18.0339 144.221C17.0408 129.896 27.8484 117.478 42.1734 116.485C56.4984 115.492 68.9162 126.299 69.9094 140.624ZM31.0028 143.322C31.4994 150.484 37.7083 155.888 44.8708 155.391C52.0333 154.895 57.4371 148.686 56.9405 141.523C56.444 134.361 50.235 128.957 43.0725 129.454C35.91 129.95 30.5062 136.159 31.0028 143.322Z" fill="#D5F0F2"/>
<path d="M42.1734 116.485C47.6509 116.105 53.108 117.469 57.7626 120.381C62.4173 123.294 66.0304 127.605 68.0842 132.697L56.0279 137.56C55.001 135.014 53.1945 132.858 50.8672 131.402C48.5398 129.946 45.8113 129.264 43.0725 129.454L42.1734 116.485Z" fill="#2AA3AD"/>
<path d="M68.0842 132.697C69.8778 137.144 70.4067 142 69.6125 146.729C68.8183 151.458 66.7319 155.875 63.584 159.492C60.4361 163.109 56.3492 165.785 51.7753 167.224C47.2014 168.663 42.3186 168.809 37.6667 167.646L40.8192 155.034C43.1451 155.616 45.5865 155.543 47.8735 154.823C50.1604 154.103 52.2039 152.765 53.7778 150.957C55.3518 149.149 56.395 146.94 56.7921 144.576C57.1892 142.211 56.9247 139.783 56.0279 137.56L68.0842 132.697Z" fill="#2FB5C0"/>
<path d="M37.6667 167.646C32.34 166.315 27.5714 163.331 24.0446 159.123L34.0081 150.773C35.7715 152.877 38.1558 154.369 40.8192 155.034L37.6667 167.646Z" fill="#59C4CD"/>
<path d="M24.0446 159.123C19.7968 154.055 17.64 147.558 18.0131 140.956L30.9924 141.689C30.8058 144.99 31.8843 148.239 34.0081 150.773L24.0446 159.123Z" fill="#82D3D9"/>
<g filter="url(#filter1_d_711_1134)">
<rect x="49.0832" y="16" width="110.776" height="139.114" rx="5.15237" fill="white"/>
<rect x="114.776" y="28.8809" width="32.2023" height="6.44047" rx="3.22023" fill="#E5E7EB"/>
<rect x="114.776" y="40.4739" width="24.4738" height="6.44047" rx="3.22023" fill="#E5E7EB"/>
<rect x="114.776" y="52.0667" width="18.0333" height="6.44047" rx="3.22023" fill="#9CA3AF"/>
<rect x="59.3879" y="28.8809" width="45.0833" height="30.9142" rx="3.86428" fill="#E5E7EB"/>
<rect x="58.0998" y="71.3879" width="92.7427" height="7.72856" rx="1.28809" fill="#E5E7EB"/>
<rect x="58.1" y="84.269" width="30.9142" height="12.8809" rx="1.28809" fill="#E5E7EB"/>
<rect x="94.1667" y="84.269" width="34.7785" height="12.8809" rx="1.28809" fill="#E5E7EB"/>
<rect x="134.098" y="84.269" width="16.7452" height="12.8809" rx="1.28809" fill="#E5E7EB"/>
<rect x="58.1" y="102.302" width="30.9142" height="12.8809" rx="1.28809" fill="#E5E7EB"/>
<rect x="94.1667" y="102.302" width="34.7785" height="12.8809" rx="1.28809" fill="#E5E7EB"/>
<rect x="134.098" y="102.302" width="16.7452" height="12.8809" rx="1.28809" fill="#E5E7EB"/>
<rect x="94.1664" y="122.268" width="21.8976" height="10.3047" rx="1.28809" fill="#DAD5E9"/>
<path d="M141.883 143.521H144.169C144.688 143.521 145.119 142.99 145.119 142.332V139.58L145.593 139.421C149.468 138.2 150.843 134.862 150.843 132.38C150.843 127.781 147.677 125.87 144.574 124.601C141.661 123.396 140.73 122.667 140.73 121.588C140.73 120.62 141.623 119.653 143.624 119.653C145.828 119.653 147.208 120.438 147.797 120.779C147.924 120.85 148.056 120.89 148.189 120.89C148.556 120.89 148.892 120.621 149.05 120.208L149.956 117.806C150.063 117.528 150.076 117.195 149.987 116.901C149.905 116.6 149.728 116.362 149.5 116.227C148.411 115.585 147.227 115.173 145.891 114.974L145.333 114.887V112.501C145.333 111.85 144.909 111.319 144.383 111.319H142.136C141.616 111.319 141.186 111.851 141.186 112.501V115.157L140.711 115.308C137.583 116.299 135.715 118.812 135.715 122.024C135.715 126.258 139.065 128.145 142.351 129.438C145.383 130.675 145.795 131.746 145.795 132.634C145.795 134.006 144.377 135.004 142.427 135.004C140.768 135.004 138.982 134.473 137.652 133.585C137.513 133.49 137.361 133.442 137.203 133.442C137.102 133.442 137 133.466 136.899 133.506C136.652 133.617 136.449 133.847 136.341 134.148L135.468 136.582C135.271 137.145 135.436 137.795 135.866 138.097C136.975 138.898 138.621 139.492 140.368 139.738L140.932 139.809V142.331C140.933 142.99 141.357 143.521 141.883 143.521L141.883 143.521Z" fill="#472F92"/>
</g>
<defs>
<filter id="filter0_b_711_1134" x="-4.19864" y="29.4245" width="129.75" height="156.06" filterUnits="userSpaceOnUse" color-interpolation-filters="sRGB">
<feFlood flood-opacity="0" result="BackgroundImageFix"/>
<feGaussianBlur in="BackgroundImageFix" stdDeviation="2.57619"/>
<feComposite in2="SourceAlpha" operator="in" result="effect1_backgroundBlur_711_1134"/>
<feBlend mode="normal" in="SourceGraphic" in2="effect1_backgroundBlur_711_1134" result="shape"/>
</filter>
<filter id="filter1_d_711_1134" x="28.9631" y="0.351057" width="151.016" height="179.354" filterUnits="userSpaceOnUse" color-interpolation-filters="sRGB">
<feFlood flood-opacity="0" result="BackgroundImageFix"/>
<feColorMatrix in="SourceAlpha" type="matrix" values="0 0 0 0 0 0 0 0 0 0 0 0 0 0 0 0 0 0 127 0" result="hardAlpha"/>
<feOffset dy="4.47113"/>
<feGaussianBlur stdDeviation="10.06"/>
<feComposite in2="hardAlpha" operator="out"/>
<feColorMatrix type="matrix" values="0 0 0 0 0.898039 0 0 0 0 0.905882 0 0 0 0 0.921569 0 0 0 0.54 0"/>
<feBlend mode="normal" in2="BackgroundImageFix" result="effect1_dropShadow_711_1134"/>
<feBlend mode="normal" in="SourceGraphic" in2="effect1_dropShadow_711_1134" result="shape"/>
</filter>
<linearGradient id="paint0_linear_711_1134" x1="5.28216" y1="176.586" x2="74.3675" y2="70.4874" gradientUnits="userSpaceOnUse">
<stop stop-color="#EBECEE"/>
<stop offset="1" stop-color="#F5F7FB"/>
</linearGradient>
</defs>
</svg>
