<svg width="243" height="233" viewBox="0 0 243 233" fill="none" xmlns="http://www.w3.org/2000/svg">
<circle cx="119.769" cy="128" r="104.3" fill="url(#paint0_linear_615_844)" stroke="#E5E7EB" stroke-width="1.4"/>
<g filter="url(#filter0_f_615_844)">
<ellipse cx="118.769" cy="128.5" rx="36" ry="36.5" fill="#DFD5FC" fill-opacity="0.42"/>
</g>
<g filter="url(#filter1_d_615_844)">
<circle cx="119.769" cy="128" r="55.3" stroke="#E5E7EB" stroke-width="1.4"/>
<g filter="url(#filter2_b_615_844)">
<circle cx="119.769" cy="128" r="25" fill="white" fill-opacity="0.24"/>
</g>
<circle cx="119.769" cy="128" r="20" fill="white"/>
<circle cx="119.769" cy="128" r="16" fill="#472F92"/>
<path d="M127.56 123.671L119.769 128M119.769 128L111.977 123.671M119.769 128L119.769 136.708M128.019 131.72L128.019 124.28C128.019 123.966 128.019 123.809 127.972 123.668C127.931 123.545 127.864 123.431 127.776 123.335C127.676 123.226 127.539 123.15 127.264 122.998L120.481 119.229C120.221 119.085 120.091 119.012 119.953 118.984C119.831 118.959 119.706 118.959 119.584 118.984C119.446 119.012 119.316 119.085 119.056 119.229L112.273 122.998C111.998 123.15 111.861 123.226 111.761 123.335C111.673 123.431 111.606 123.545 111.565 123.668C111.519 123.809 111.519 123.966 111.519 124.28L111.519 131.72C111.519 132.034 111.519 132.192 111.565 132.332C111.606 132.455 111.673 132.569 111.761 132.665C111.861 132.774 111.998 132.85 112.273 133.002L119.056 136.771C119.316 136.915 119.446 136.988 119.584 137.016C119.706 137.041 119.831 137.041 119.953 137.016C120.091 136.988 120.221 136.915 120.481 136.771L127.264 133.002C127.539 132.85 127.676 132.774 127.776 132.665C127.864 132.569 127.931 132.455 127.972 132.332C128.019 132.192 128.019 132.034 128.019 131.72Z" stroke="white" stroke-width="1.6" stroke-linecap="round" stroke-linejoin="round"/>
<path d="M123.894 125.708L115.644 121.125" stroke="white" stroke-width="1.6" stroke-linecap="round" stroke-linejoin="round"/>
</g>
<g clip-path="url(#clip0_615_844)">
<rect x="100.769" y="2" width="38" height="38" rx="19" fill="white"/>
<circle cx="116.928" cy="18.1598" r="16.1598" fill="white"/>
<path d="M119.784 35.8799C118.02 35.8799 116.591 34.4416 116.591 32.6664V25.3474H122.974V32.6664C122.974 34.4416 121.545 35.8799 119.781 35.8799H119.784Z" fill="#F3F4F6"/>
<path d="M122.978 30.7849V27.9841H116.595V30.7849C117.581 31.1885 118.66 31.41 119.788 31.41C120.916 31.41 121.992 31.1885 122.978 30.7849Z" fill="#E5E7EB"/>
<path d="M119.789 3.88184H119.786C115.088 3.88184 111.28 7.71433 111.28 12.4419V20.8291C111.28 25.5567 115.088 29.3892 119.786 29.3892H119.789C124.487 29.3892 128.295 25.5567 128.295 20.8291V12.4419C128.295 7.71433 124.487 3.88184 119.789 3.88184Z" fill="#F3F4F6"/>
<path d="M112.686 20.3546C112.981 19.0955 112.206 17.8338 110.955 17.5366C109.704 17.2394 108.45 18.0192 108.155 19.2784C107.86 20.5376 108.634 21.7993 109.886 22.0965C111.137 22.3937 112.391 21.6138 112.686 20.3546Z" fill="#F3F4F6"/>
<path d="M129.682 22.1038C130.933 21.8066 131.708 20.5449 131.413 19.2857C131.117 18.0266 129.864 17.2467 128.612 17.5439C127.361 17.8411 126.586 19.1028 126.882 20.362C127.177 21.6211 128.431 22.401 129.682 22.1038Z" fill="#F3F4F6"/>
<path d="M130.166 5.72371C129.099 5.12896 127.751 5.42634 126.641 5.76923C125.948 0.119127 114.062 4.3825 111.981 7.38658C110.742 8.68228 109.985 11.3101 110.697 13.0579C110.727 13.1216 110.763 13.1763 110.802 13.2248L111.278 17.6429C112.258 17.6429 112.816 14.7208 113.085 12.7029C114.948 11.4133 117.155 8.93413 117.155 8.93413C117.047 11.392 122.351 13.2187 126.451 12.4359C126.705 14.4507 127.268 17.6429 128.294 17.6429L128.96 11.4891C129.949 10.858 130.685 9.94156 130.977 8.67924C131.366 7.64147 131.11 6.30025 130.166 5.72371Z" fill="#111827"/>
<path d="M105.769 38C105.769 35.2386 108.007 33 110.769 33H128.769C131.53 33 133.769 35.2386 133.769 38V41H122.769H105.769V38Z" fill="#E5E7EB"/>
<path d="M123.769 33H115.769L117.769 35V41L119.769 43.5L121.769 41V35L123.769 33Z" fill="#D1D5DB"/>
</g>
<rect x="100.05" y="1.28179" width="39.4364" height="39.4364" rx="19.7182" stroke="#E5E7EB" stroke-width="1.43643"/>
<g clip-path="url(#clip1_615_844)">
<rect x="1.76855" y="78" width="38" height="38" rx="19" fill="white"/>
<circle cx="17.9283" cy="94.1598" r="16.1598" fill="white"/>
<path d="M24.781 110.467C28.5793 110.467 31.6562 107.368 31.6562 103.549C31.6562 103.339 31.6418 103.132 31.6244 102.928C34.0059 101.84 35.666 99.4317 35.666 96.6268C35.666 94.0989 34.3159 91.8976 32.3081 90.6876C32.5805 89.9412 32.7398 89.1394 32.7398 88.2968C32.7398 84.4744 29.66 81.3779 25.8646 81.3779C23.8452 81.3779 22.0287 82.2555 20.7684 83.6492C19.5109 82.2526 17.6944 81.3779 15.6721 81.3779C11.8738 81.3779 8.79688 84.4773 8.79688 88.2968C8.79688 89.1394 8.95333 89.9412 9.22857 90.6876C7.21787 91.8947 5.87065 94.0989 5.87065 96.6268C5.87065 99.4317 7.53078 101.84 9.91233 102.928C9.89495 103.132 9.88045 103.339 9.88045 103.549C9.88045 107.371 12.9602 110.467 16.7556 110.467H24.781Z" fill="#111827"/>
<path d="M38.0796 119.897C38.0796 125.769 3.45734 125.769 3.45734 119.897C3.45734 114.024 17.1179 111.741 20.7684 111.741C24.419 111.741 38.0796 114.024 38.0796 119.897Z" fill="#E5E7EB"/>
<path d="M17.7031 104.642H23.8366V111.674C23.8366 113.377 22.4633 114.762 20.7684 114.762C19.0764 114.762 17.7002 113.38 17.7002 111.674V104.642H17.7031Z" fill="#E5E7EB"/>
<path d="M23.8337 109.867V107.176H17.7002V109.867C18.6476 110.254 19.6848 110.467 20.7684 110.467C21.8519 110.467 22.8863 110.254 23.8337 109.867Z" fill="#D1D5DB"/>
<path d="M20.7712 85.5444H20.7683C16.2543 85.5444 12.5951 89.2269 12.5951 93.7695V100.303C12.5951 104.846 16.2543 108.529 20.7683 108.529H20.7712C25.2851 108.529 28.9443 104.846 28.9443 100.303V93.7695C28.9443 89.2269 25.2851 85.5444 20.7712 85.5444Z" fill="white"/>
<path d="M11.769 93.7521C12.1341 93.8541 12.5165 93.9066 12.9134 93.9066C14.8662 93.9066 16.5147 92.5946 17.0362 90.7985C17.5867 91.058 18.2009 91.2067 18.847 91.2067C19.7191 91.2067 20.5332 90.9443 21.2112 90.4924C21.5357 93.099 23.7434 95.1195 26.4234 95.1195H29.7668V93.2943C29.7668 88.294 25.7367 84.2383 20.7679 84.2383C15.7991 84.2383 11.769 88.294 11.769 93.2943V93.755V93.7521Z" fill="#111827"/>
</g>
<rect x="1.05034" y="77.2818" width="39.4364" height="39.4364" rx="19.7182" stroke="#E5E7EB" stroke-width="1.43643"/>
<circle cx="40.7686" cy="107" r="10.5" fill="#E0F2FE" stroke="white"/>
<path fill-rule="evenodd" clip-rule="evenodd" d="M36.7057 111.917V101.005C36.7057 100.726 36.932 100.5 37.211 100.5H45.0026C45.4941 100.5 45.9654 100.695 46.313 101.043C46.6605 101.39 46.8557 101.862 46.8557 102.353V111.788C46.8557 112.811 46.026 113.641 45.0026 113.641H36.1143C36.1 113.641 36.0858 113.64 36.0717 113.639C36.0455 113.64 36.0192 113.641 35.9927 113.641C35.0407 113.641 34.2686 112.869 34.2686 111.917V107.07C34.2686 106.791 34.495 106.565 34.7739 106.565C35.0529 106.565 35.2794 106.791 35.2794 107.07V111.917C35.2794 112.311 35.5986 112.63 35.9923 112.63C36.3861 112.63 36.7056 112.311 36.7057 111.917L36.7057 111.917ZM37.5626 112.63H45.0026C45.4678 112.63 45.8449 112.253 45.8449 111.788V102.353C45.8449 102.13 45.7562 101.915 45.5982 101.757C45.4402 101.599 45.226 101.511 45.0026 101.511H37.7165V111.917L37.7164 111.922C37.7158 112.144 37.6735 112.355 37.597 112.549L37.5954 112.553C37.5852 112.578 37.574 112.605 37.5625 112.63L37.5626 112.63ZM41.6725 106.565H41.6693C41.3903 106.565 41.1639 106.791 41.1639 107.07V107.292C40.4933 107.303 39.9531 107.85 39.9531 108.523C39.9531 108.756 40.0174 108.973 40.1293 109.159L40.1458 109.185L40.1634 109.212L40.1803 109.236L40.1978 109.26L40.2158 109.284L40.2341 109.307L40.2534 109.329L40.2791 109.358L40.3086 109.389L40.335 109.415L40.3642 109.442L40.3972 109.47L40.4146 109.485L40.4412 109.505L40.4734 109.529L40.5085 109.553L40.5401 109.573L40.5782 109.596L40.6106 109.613L40.6372 109.627L40.6643 109.64L40.6923 109.653L40.7206 109.665L40.7491 109.676L40.7898 109.69L40.8252 109.702L40.8544 109.71L40.8841 109.718L40.914 109.725L40.9444 109.732L40.9655 109.736L40.9961 109.741L41.027 109.745L41.0581 109.749L41.0895 109.752L41.1211 109.754L41.1528 109.755L41.1769 109.755H42.1536C42.2557 109.755 42.3415 109.824 42.367 109.918L42.3717 109.94L42.374 109.959L42.3747 109.976C42.3747 110.098 42.2757 110.197 42.1537 110.197H40.9633L40.9621 110.177C40.9532 110.021 40.8854 109.917 40.8022 109.848C40.7121 109.764 40.5912 109.713 40.4584 109.713C40.4584 109.713 39.9581 109.745 39.9531 110.212V110.219C39.9531 110.385 39.9942 110.542 40.0667 110.68L40.0811 110.706L40.0962 110.732L40.1121 110.757L40.1286 110.782L40.1496 110.811L40.1714 110.839L40.1942 110.866L40.2199 110.895L40.2488 110.924L40.2745 110.949L40.3011 110.972L40.3287 110.995L40.357 111.017L40.3862 111.037L40.4162 111.057L40.4499 111.077L40.4813 111.094L40.5134 111.111L40.5461 111.126L40.5796 111.14L40.6079 111.15L40.6365 111.16L40.6656 111.169L40.695 111.177L40.7249 111.184L40.755 111.19L40.7855 111.196L40.8163 111.2L40.8474 111.204L40.8787 111.206L40.9168 111.208L40.9392 111.208H41.1639V111.429C41.1639 111.708 41.3903 111.935 41.6693 111.935H41.6725C41.9499 111.933 42.1747 111.707 42.1747 111.429V111.208L42.1855 111.208L42.2171 111.207L42.2563 111.204L42.2951 111.2L42.3336 111.195L42.3717 111.189L42.4019 111.183L42.4319 111.177L42.4615 111.169L42.4909 111.161L42.52 111.153L42.5487 111.143L42.5772 111.133L42.6054 111.123L42.6332 111.111L42.6606 111.099L42.6877 111.087L42.7144 111.073L42.7409 111.059L42.7668 111.045L42.7924 111.03L42.8176 111.014L42.8424 110.998L42.8668 110.981L42.8907 110.963L42.9142 110.945L42.9429 110.922L42.971 110.898L42.9982 110.873L43.0247 110.847L43.0504 110.821L43.0754 110.794L43.1016 110.763L43.1247 110.734L43.147 110.705L43.1685 110.675L43.1891 110.644L43.2087 110.612L43.2275 110.58L43.2454 110.547L43.2623 110.514L43.2798 110.476L43.2945 110.442L43.3082 110.407L43.3208 110.371L43.3324 110.335L43.3408 110.306L43.3486 110.277L43.3556 110.247L43.362 110.217L43.3676 110.187L43.3724 110.156L43.3766 110.126L43.3799 110.094L43.3825 110.063L43.3846 110.024L43.3855 109.984L43.385 109.942L43.3825 109.889L43.3789 109.848L43.3745 109.811L43.3685 109.771L43.3585 109.719L43.3498 109.681L43.3405 109.645L43.3387 109.639C43.3353 109.627 43.3317 109.615 43.3278 109.603L43.3155 109.566L43.3016 109.528L43.288 109.495L43.2857 109.49C43.274 109.462 43.2611 109.435 43.2473 109.409L43.228 109.373L43.2185 109.357C43.201 109.327 43.1824 109.298 43.1626 109.269L43.1343 109.23L43.1079 109.197L43.0889 109.174L43.0655 109.148L43.0518 109.133C42.8271 108.894 42.5078 108.744 42.1537 108.744H41.1849C41.0628 108.744 40.9639 108.645 40.9639 108.523C40.9639 108.401 41.0628 108.302 41.1849 108.302H42.3752L42.3764 108.321C42.3849 108.478 42.4529 108.582 42.5363 108.651C42.6264 108.735 42.7474 108.787 42.8801 108.787C42.8801 108.787 43.3855 108.754 43.3855 108.281C43.3855 107.734 42.9426 107.291 42.3962 107.291H42.1747V107.07C42.1747 106.792 41.9499 106.567 41.6725 106.565Z" fill="#0BA5EC"/>
<path fill-rule="evenodd" clip-rule="evenodd" d="M39.336 105.554H44.0904C44.3694 105.554 44.5958 105.328 44.5958 105.049C44.5958 104.77 44.3694 104.543 44.0904 104.543H39.336C39.057 104.543 38.8306 104.77 38.8306 105.049C38.8306 105.328 39.057 105.554 39.336 105.554ZM39.336 103.729H41.1875C41.4665 103.729 41.693 103.503 41.693 103.224C41.693 102.945 41.4665 102.718 41.1875 102.718H39.336C39.057 102.718 38.8306 102.945 38.8306 103.224C38.8306 103.503 39.057 103.729 39.336 103.729Z" fill="#0BA5EC"/>
<g clip-path="url(#clip2_615_844)">
<rect x="12.7686" y="173" width="38" height="38" rx="19" fill="white"/>
<path d="M49.8116 213.568C49.8116 219.628 14.0872 219.628 14.0872 213.568C14.0872 207.509 28.1826 205.154 31.9494 205.154C35.7161 205.154 49.8116 207.509 49.8116 213.568Z" fill="#E5E7EB"/>
<path d="M28.787 197.828H35.1157V205.085C35.1157 206.841 33.6987 208.271 31.9498 208.271C30.204 208.271 28.784 206.844 28.784 205.085V197.828H28.787Z" fill="#F3F4F6"/>
<path d="M35.1127 203.219V200.442H28.784V203.219C29.7615 203.619 30.8318 203.839 31.9498 203.839C33.0679 203.839 34.1351 203.619 35.1127 203.219Z" fill="#E5E7EB"/>
<path d="M31.9527 178.123H31.9497C27.2921 178.123 23.5163 181.923 23.5163 186.61V193.352C23.5163 198.039 27.2921 201.839 31.9497 201.839H31.9527C36.6103 201.839 40.386 198.039 40.386 193.352V186.61C40.386 181.923 36.6103 178.123 31.9527 178.123Z" fill="#F3F4F6"/>
<path d="M23.5706 194.477C24.7433 193.974 25.289 192.61 24.7896 191.43C24.2901 190.25 22.9346 189.701 21.7619 190.203C20.5892 190.706 20.0435 192.07 20.543 193.25C21.0424 194.43 22.398 194.979 23.5706 194.477Z" fill="#F3F4F6"/>
<path d="M43.385 193.163C43.837 191.964 43.2373 190.623 42.0456 190.168C40.8538 189.713 39.5212 190.317 39.0692 191.516C38.6172 192.715 39.2169 194.056 40.4087 194.511C41.6005 194.966 42.933 194.363 43.385 193.163Z" fill="#F3F4F6"/>
<path d="M42.8284 183.824L40.9241 182.717C42.0003 179.555 39.9316 176.811 39.9316 176.811C39.9316 176.811 38.5923 178.378 36.3143 177.407C27.0798 173.469 23.9558 177.861 22.9812 179.618C22.2458 180.942 22.6135 182.65 22.6135 182.65L20.8527 183.824L23.2951 190.283C23.2951 190.283 23.9588 191.056 24.3982 183.872H39.7074C39.8599 189.72 40.389 190.283 40.389 190.283L42.8314 183.824H42.8284Z" fill="#111827"/>
</g>
<rect x="12.0503" y="172.282" width="39.4364" height="39.4364" rx="19.7182" stroke="#E5E7EB" stroke-width="1.43643"/>
<circle cx="51.7686" cy="202" r="10.5" fill="#D5F0F2" stroke="white"/>
<g clip-path="url(#clip3_615_844)">
<path d="M57.7755 200.783C57.7755 200.009 57.3882 199.273 56.7491 198.847L53.089 196.407C52.8372 196.232 52.5661 196.116 52.2563 196.039C52.1013 196.019 51.9464 196 51.7721 196C51.3073 196 50.862 196.136 50.4745 196.387L46.795 198.847C46.1559 199.273 45.7686 200.009 45.7686 200.783L45.7687 207.039C45.7687 207.368 46.0205 207.619 46.3496 207.619C46.6788 207.619 46.9306 207.368 46.9306 207.039V200.783C46.9306 200.396 47.1243 200.028 47.4535 199.815L51.133 197.355C51.5202 197.104 52.0238 197.104 52.4305 197.355L56.1101 199.815C56.4393 200.028 56.633 200.396 56.633 200.783V207.019C56.633 207.329 56.846 207.6 57.1558 207.639C57.3108 207.658 57.485 207.6 57.6013 207.484C57.7174 207.367 57.795 207.212 57.795 207.057L57.7947 200.783L57.7755 200.783Z" fill="#2FB5C0"/>
<path d="M55.0639 202.778C55.0639 202.023 54.4636 201.423 53.7083 201.423H49.8351C49.0798 201.423 48.4795 202.023 48.4795 202.778V206.07C48.4795 206.826 49.0798 207.426 49.8351 207.426H53.7083C54.4636 207.426 55.0639 206.826 55.0639 206.07V202.778ZM53.7083 206.264H49.8351C49.719 206.264 49.6414 206.187 49.6414 206.07V202.778C49.6414 202.662 49.7188 202.585 49.8351 202.585H51.1907V203.708C51.1907 204.018 51.4231 204.308 51.7329 204.327C52.0621 204.347 52.3526 204.076 52.3526 203.746V202.585H53.7082C53.8244 202.585 53.9019 202.662 53.9019 202.778V206.07C53.9019 206.186 53.8245 206.264 53.7082 206.264H53.7083Z" fill="#2FB5C0"/>
</g>
<g clip-path="url(#clip4_615_844)">
<rect x="186.769" y="173" width="38" height="38" rx="19" fill="white"/>
<circle cx="202.928" cy="189.16" r="16.1598" fill="white"/>
<path d="M196.906 181.878C196.906 181.878 189.015 206.08 195.449 210.895C201.883 215.71 216.232 214.492 218.301 208.572C220.612 201.956 218.665 193.644 215.708 182.263C212.751 170.881 196.906 181.878 196.906 181.878Z" fill="#111827"/>
<path d="M225.919 224.704C224.34 225.778 222.67 226.726 220.916 227.536C216.354 229.655 211.252 230.837 205.86 230.837C200.467 230.837 195.785 229.748 191.362 227.79C189.603 227.014 187.914 226.096 186.325 225.051C187.18 219.505 188.484 212.176 189.388 212C189.593 211.961 189.983 211.854 190.488 211.703C190.693 211.644 190.918 211.576 191.152 211.502C192.637 211.043 194.741 210.35 196.625 209.715C197.789 209.325 198.863 208.959 199.668 208.685C200.512 208.397 201.057 208.212 201.057 208.212H211.217C211.217 208.212 211.566 208.329 212.146 208.529C212.791 208.749 213.715 209.066 214.765 209.418C217.138 210.218 220.127 211.209 221.791 211.707C221.916 211.747 222.041 211.781 222.146 211.815C222.236 211.839 222.316 211.864 222.396 211.883C222.416 211.883 222.436 211.898 222.456 211.903C222.55 211.922 222.63 211.947 222.705 211.971C222.78 211.991 222.84 212 222.895 212.01C222.96 212.025 223.035 212.074 223.105 212.166C223.155 212.23 223.205 212.308 223.255 212.401C223.33 212.537 223.41 212.713 223.485 212.913C223.54 213.05 223.59 213.201 223.64 213.363C223.665 213.441 223.695 213.524 223.72 213.612C223.77 213.787 223.825 213.973 223.88 214.173C223.96 214.466 224.045 214.783 224.125 215.13C224.18 215.355 224.235 215.589 224.29 215.833C224.404 216.316 224.509 216.834 224.619 217.376C224.674 217.644 224.734 217.923 224.784 218.201C224.839 218.484 224.894 218.767 224.949 219.055C225.004 219.348 225.054 219.636 225.109 219.929C225.399 221.521 225.669 223.176 225.909 224.714L225.919 224.704Z" fill="#E5E7EB"/>
<path d="M216.492 183.701C216.492 188.907 211.85 193.128 206.122 193.128C200.394 193.128 195.752 188.907 195.752 183.701C195.752 178.496 200.394 174.274 206.122 174.274C211.85 174.274 216.492 178.496 216.492 183.701Z" fill="#111827"/>
<path d="M215.523 185.885C215.204 191.344 211.794 195.957 206.088 195.957C200.382 195.957 195.588 191.526 195.757 186.058C195.974 179.112 200.382 176.16 206.088 176.16C211.794 176.16 215.918 179.112 215.523 185.881V185.885Z" fill="#374151"/>
<path d="M201.408 200.878V211.511L206.122 226.123L210.835 211.729V198.785L201.408 200.878Z" fill="#F3F4F6"/>
<path d="M213.663 191.715C213.663 198.745 210.077 204.441 205.65 204.441C201.224 204.441 197.637 198.745 197.637 191.715C197.637 184.684 201.224 178.988 205.65 178.988C210.077 178.988 213.663 184.684 213.663 191.715Z" fill="white"/>
<path d="M201.408 181.254C201.408 181.254 202.344 184.202 208.265 186.295C212.228 187.695 213.233 191.243 213.233 191.243C213.233 191.243 217.03 182.005 211.998 178.762C207.21 175.681 202.187 177.834 202.187 177.834L201.408 181.254Z" fill="#111827"/>
<path d="M198.533 192.459C198.764 194.8 198.129 196.784 197.115 196.895C196.102 197.005 195.088 195.196 194.857 192.855C194.626 190.515 195.261 188.53 196.275 188.42C197.288 188.31 198.302 190.119 198.533 192.459Z" fill="#374151"/>
<path d="M212.768 192.459C212.538 194.8 213.172 196.784 214.186 196.895C215.2 197.005 216.214 195.196 216.444 192.855C216.675 190.515 216.041 188.53 215.027 188.42C214.013 188.31 212.999 190.119 212.768 192.459Z" fill="#374151"/>
<path d="M206.122 226.123L201.2 207.269L196.695 209.217L199.519 214.443L198.422 215.232L206.122 226.123Z" fill="#E5E7EB"/>
<path d="M206.122 226.123L210.756 207.269L214.606 208.916L212.152 214.3L213.377 215.232L206.122 226.123Z" fill="#E5E7EB"/>
<path d="M213.664 195.957C213.664 195.957 212.691 200.416 207.065 200.67" stroke="#374151" stroke-width="0.883402" stroke-miterlimit="10"/>
<path d="M208.007 200.67C208.007 201.193 207.372 201.613 206.593 201.613C205.814 201.613 205.179 201.193 205.179 200.67C205.179 200.148 205.814 199.728 206.593 199.728C207.372 199.728 208.007 200.148 208.007 200.67Z" fill="#374151"/>
<path d="M210.512 206.326L211.778 207.796L211.145 213.868L208.007 211.199L210.512 206.326Z" fill="#D1D5DB"/>
<path d="M201.1 206.326L199.523 207.796L200.314 213.868L204.237 211.199L201.1 206.326Z" fill="#D1D5DB"/>
<path d="M197.701 189.353C197.701 189.353 200.64 187.295 201.372 184.474C202.109 181.653 203.294 180.975 203.294 180.975L203.141 177.103C203.141 177.103 197.764 178.235 197.105 183.23C196.447 188.225 196.779 188.685 196.779 188.685L197.701 189.358V189.353Z" fill="#111827"/>
<path d="M197.582 192.903C197.764 194.981 197.52 196.768 196.503 196.892C195.48 197.017 194.068 195.431 193.887 193.354C193.706 191.276 194.772 189.489 195.794 189.365C196.817 189.24 197.401 190.826 197.582 192.903Z" fill="#9CA3AF"/>
<path d="M213.826 192.668C213.645 194.745 213.884 196.533 214.906 196.657C215.928 196.781 217.34 195.196 217.521 193.118C217.703 191.041 216.632 189.253 215.614 189.129C214.592 189.005 214.008 190.59 213.826 192.668Z" fill="#9CA3AF"/>
</g>
<rect x="186.05" y="172.282" width="39.4364" height="39.4364" rx="19.7182" stroke="#E5E7EB" stroke-width="1.43643"/>
<circle cx="225.769" cy="202" r="10.5" fill="#F3F4F6" stroke="white"/>
<path d="M224.654 205.801L226.506 207.725C226.636 207.899 226.853 208 227.07 208C227.316 208 227.547 207.87 227.677 207.667C227.706 207.624 227.735 207.566 227.75 207.508L228.227 205.801H229.312C230.584 205.801 231.626 204.76 231.626 203.487V198.714C231.626 197.441 230.585 196.4 229.312 196.4H222.225C220.952 196.4 219.91 197.441 219.91 198.714V203.487C219.91 204.76 220.952 205.801 222.225 205.801L224.654 205.801ZM221.068 203.487V198.714C221.068 198.078 221.588 197.557 222.225 197.557H229.312C229.948 197.557 230.469 198.078 230.469 198.714V203.487C230.469 204.124 229.948 204.644 229.312 204.644H227.793C227.533 204.644 227.301 204.818 227.244 205.064L226.868 206.409L225.334 204.818C225.219 204.702 225.074 204.644 224.915 204.644H222.225C221.588 204.644 221.068 204.124 221.068 203.487L221.068 203.487Z" fill="#4B5563"/>
<path d="M222.296 199.958H229.094C229.412 199.958 229.672 199.698 229.672 199.379C229.672 199.061 229.412 198.801 229.094 198.801H222.296C221.978 198.801 221.717 199.061 221.717 199.379C221.717 199.698 221.978 199.958 222.296 199.958Z" fill="#4B5563"/>
<path d="M222.296 201.694H229.094C229.412 201.694 229.672 201.433 229.672 201.115C229.672 200.797 229.412 200.537 229.094 200.537H222.296C221.978 200.537 221.717 200.797 221.717 201.115C221.717 201.433 221.978 201.694 222.296 201.694Z" fill="#4B5563"/>
<path d="M226.375 203.285C226.693 203.285 226.953 203.024 226.953 202.706C226.953 202.388 226.693 202.128 226.375 202.128L222.296 202.128C221.978 202.128 221.717 202.388 221.717 202.706C221.717 203.025 221.978 203.285 222.296 203.285L226.375 203.285Z" fill="#4B5563"/>
<g clip-path="url(#clip5_615_844)">
<rect x="100.769" y="161" width="38" height="38" rx="19" fill="white"/>
<circle cx="116.928" cy="177.16" r="16.1598" fill="white"/>
<path d="M111.237 168.927C111.237 168.927 103.823 185.554 109.869 188.862C115.914 192.17 129.397 191.335 131.341 187.265C133.513 182.72 131.683 177.008 128.904 169.187C126.121 161.371 111.237 168.922 111.237 168.922V168.927Z" fill="#111827"/>
<path d="M137.993 209.558C136.552 210.562 135.028 211.447 133.426 212.205C129.26 214.185 124.597 215.289 119.679 215.289C114.76 215.289 110.48 214.272 106.442 212.442C104.836 211.716 103.294 210.859 101.843 209.882C102.623 204.699 103.814 197.85 104.64 197.686C104.827 197.649 105.183 197.549 105.644 197.408C105.831 197.353 106.036 197.289 106.25 197.221C107.606 196.792 109.526 196.144 111.247 195.551C112.31 195.186 113.291 194.843 114.025 194.588C114.796 194.319 115.294 194.145 115.294 194.145H123.379C123.379 194.145 132.705 196.947 134.225 197.412C134.339 197.449 134.453 197.481 134.549 197.513C134.631 197.535 134.704 197.558 134.777 197.576C134.795 197.576 134.813 197.59 134.831 197.595C134.918 197.613 134.991 197.636 135.06 197.659C135.128 197.677 135.183 197.686 135.233 197.695C135.297 197.709 135.361 197.754 135.425 197.841C135.47 197.9 135.516 197.973 135.561 198.06C135.63 198.188 135.703 198.352 135.771 198.539C135.822 198.667 135.867 198.808 135.917 198.959C135.94 199.032 135.968 199.11 135.99 199.192C136.036 199.356 136.086 199.529 136.136 199.716C136.209 199.99 136.282 200.287 136.36 200.611C136.41 200.821 136.465 201.04 136.511 201.268C136.615 201.719 136.711 202.203 136.812 202.71C136.862 202.96 136.917 203.221 136.962 203.481C137.012 203.745 137.063 204.01 137.108 204.279C137.158 204.553 137.204 204.822 137.25 205.096C137.514 206.583 137.761 208.13 137.98 209.567L137.993 209.558Z" fill="#E5E7EB"/>
<path d="M129.356 171.925C129.356 176.853 125.181 180.849 120.029 180.849C114.878 180.849 110.703 176.853 110.703 171.925C110.703 166.997 114.878 163 120.029 163C125.181 163 129.356 166.997 129.356 171.925Z" fill="#111827"/>
<path d="M115.304 185.745V195.523C115.304 195.523 116.486 197.982 119.758 197.982C123.029 197.982 124.147 195.724 124.147 195.724V183.824L115.304 185.745Z" fill="#E5E7EB"/>
<path d="M127.346 179.449C127.346 186.014 123.933 191.335 119.721 191.335C115.51 191.335 112.097 186.014 112.097 179.449C112.097 172.883 115.51 167.563 119.721 167.563C123.933 167.563 127.346 172.883 127.346 179.449Z" fill="white"/>
<path d="M120.979 166.057C120.979 166.057 121.18 170.72 117.671 173.029C114.162 175.333 112.542 176.086 112.123 178.646C112.123 178.646 109.8 171.373 113.61 167.563C116.918 164.255 120.984 166.057 120.984 166.057H120.979Z" fill="#111827"/>
<path d="M119.725 169.369C119.725 169.369 120.327 172.107 124.146 174.051C126.702 175.351 127.35 178.646 127.35 178.646C127.35 178.646 129.722 170.574 126.483 167.563C123.398 164.702 120.232 166.194 120.232 166.194L119.73 169.369H119.725Z" fill="#111827"/>
<path d="M106.59 204.576C106.59 205.26 106.59 205.963 106.59 206.675C106.581 208.564 106.558 210.526 106.453 212.442C104.847 211.716 103.305 210.859 101.854 209.882C102.634 204.699 103.825 197.85 104.651 197.686C104.838 197.65 105.194 197.549 105.655 197.408C105.742 197.654 105.819 197.914 105.892 198.188C106.339 199.817 106.59 201.911 106.59 204.576Z" fill="#FF5B33"/>
<path d="M137.993 209.558C136.551 210.562 135.027 211.447 133.426 212.205C133.298 209.641 133.298 206.999 133.298 204.58C133.298 201.469 133.64 199.133 134.233 197.412C134.347 197.449 134.461 197.481 134.557 197.513C134.639 197.536 134.712 197.558 134.785 197.577C134.804 197.577 134.822 197.59 134.84 197.595C134.927 197.613 135 197.636 135.068 197.659C135.137 197.677 135.191 197.686 135.242 197.695C135.305 197.709 135.369 197.755 135.433 197.841C135.479 197.901 135.524 197.974 135.57 198.06C135.639 198.188 135.712 198.352 135.78 198.539C135.83 198.667 135.876 198.809 135.926 198.959C135.949 199.032 135.976 199.11 135.999 199.192C136.049 199.356 136.099 199.529 136.145 199.717C136.218 199.99 136.291 200.287 136.369 200.611C136.423 200.821 136.474 201.04 136.519 201.268C136.624 201.72 136.72 202.203 136.82 202.71C136.875 202.961 136.925 203.221 136.971 203.481C137.021 203.745 137.071 204.01 137.117 204.279C137.167 204.553 137.213 204.822 137.258 205.096C137.523 206.583 137.769 208.13 137.988 209.568L137.993 209.558Z" fill="#FF5B33"/>
</g>
<rect x="100.05" y="160.282" width="39.4364" height="39.4364" rx="19.7182" stroke="#E5E7EB" stroke-width="1.43643"/>
<circle cx="139.769" cy="189" r="10.5" fill="#D8EDDF" stroke="white"/>
<g clip-path="url(#clip6_615_844)">
<path d="M145.202 191.967V191.455C145.202 190.399 144.333 189.53 143.277 189.53H140.049V187.683L142.439 186.596C142.61 186.519 142.734 186.333 142.734 186.146L142.734 182.623C142.734 182.421 142.626 182.251 142.439 182.173L139.754 180.947C139.614 180.885 139.475 180.885 139.335 180.947L136.65 182.173C136.479 182.251 136.355 182.437 136.355 182.623V186.146C136.355 186.348 136.464 186.519 136.65 186.596L139.04 187.683V189.53H135.828C134.772 189.53 133.903 190.399 133.903 191.455V191.967C133.158 192.029 132.553 192.65 132.553 193.426V194.171C132.553 194.978 133.22 195.645 134.027 195.645H134.772C135.579 195.645 136.247 194.978 136.247 194.171V193.426C136.247 192.65 135.657 192.029 134.896 191.967V191.455C134.896 190.942 135.315 190.523 135.828 190.523H139.056V191.951C138.311 192.013 137.706 192.634 137.706 193.41L137.706 194.171C137.706 194.978 138.373 195.645 139.18 195.645H139.925C140.732 195.645 141.4 194.978 141.4 194.171V193.426C141.4 192.65 140.81 192.029 140.049 191.967V190.539L143.278 190.539C143.79 190.539 144.209 190.958 144.209 191.47V191.982C143.464 192.044 142.859 192.665 142.859 193.441V194.171C142.859 194.978 143.526 195.645 144.333 195.645H145.078C145.885 195.645 146.553 194.978 146.553 194.171V193.426C146.553 192.65 145.963 192.029 145.202 191.967L145.202 191.967ZM140.049 186.597V184.175L141.726 183.399V185.82L140.049 186.597ZM139.553 181.956L141.027 182.623L139.553 183.306L138.078 182.639L139.553 181.956ZM137.38 185.82V183.399L139.056 184.16V186.581L137.38 185.82ZM135.253 193.426V194.171C135.253 194.434 135.036 194.636 134.788 194.636H134.043C133.779 194.636 133.577 194.419 133.577 194.171V193.426C133.577 193.162 133.794 192.96 134.043 192.96H134.788C135.036 192.945 135.253 193.162 135.253 193.426ZM140.406 193.426V194.171C140.406 194.434 140.189 194.636 139.941 194.636H139.196C138.932 194.636 138.73 194.419 138.73 194.171V193.426C138.73 193.162 138.947 192.96 139.196 192.96H139.941C140.189 192.945 140.406 193.162 140.406 193.426ZM145.543 194.171C145.543 194.434 145.326 194.636 145.078 194.636H144.333C144.069 194.636 143.867 194.419 143.867 194.171V193.426C143.867 193.162 144.085 192.96 144.333 192.96H145.078C145.342 192.96 145.543 193.177 145.543 193.426V194.171Z" fill="#2C9A54"/>
</g>
<circle cx="139.769" cy="31" r="10.5" fill="#EDEAF4" stroke="white"/>
<path d="M139.677 24.9664L139.677 24.9665L142.302 27.5916L142.302 27.5917C142.393 27.6837 142.444 27.8081 142.444 27.9376V27.9375H142.394L142.444 27.9378L139.677 24.9664ZM139.677 24.9664C139.585 24.8751 139.46 24.8243 139.331 24.825M139.677 24.9664L139.331 24.825M139.331 24.825H139.331V24.875L139.331 24.825C139.331 24.825 139.331 24.825 139.331 24.825ZM142.267 27.6269L139.642 25.0019L142.267 27.6269ZM139.769 28.425H141.469V36.2L134.569 36.2V25.8H138.844V27.5C138.844 27.7453 138.941 27.9805 139.114 28.1541L139.114 28.1541C139.288 28.3275 139.523 28.425 139.769 28.425ZM139.819 27.45V26.4876L140.781 27.45H139.819Z" fill="#472F92" stroke="#472F92" stroke-width="0.1"/>
<path d="M139.769 34.0124C139.662 34.0118 139.559 34.0463 139.474 34.1095M139.769 34.0124C139.769 34.0124 139.769 34.0124 139.769 34.0124L139.769 34.0624V34.0124H139.769ZM139.769 34.0124H140.156M139.474 34.1095L140.156 34.0624L140.156 34.0537L140.156 34.0124M139.474 34.1095L139.336 33.8344L139.323 33.8068H139.321M139.474 34.1095L139.321 33.8068M140.156 34.0124L140.156 34.0036H140.206C140.38 34.0036 140.541 34.0966 140.628 34.2474M140.156 34.0124L139.321 33.8068M139.126 33.6842C139.196 33.7252 139.253 33.7849 139.292 33.8568L139.126 33.6842ZM139.126 33.6842C139.055 33.6433 138.975 33.6227 138.894 33.6249L139.126 33.6842ZM139.321 33.8068C139.279 33.7385 139.22 33.6815 139.151 33.641L139.151 33.6409C139.073 33.5956 138.984 33.5727 138.894 33.5749C138.529 33.5639 138.176 33.7038 137.918 33.9618L137.918 33.9618C137.66 34.2199 137.52 34.5732 137.531 34.9382M137.531 34.9382C137.531 34.9379 137.531 34.9377 137.531 34.9374H137.581L137.531 34.939C137.531 34.9387 137.531 34.9384 137.531 34.9382ZM137.531 34.9382C137.531 35.0672 137.583 35.1909 137.674 35.2821C137.765 35.3734 137.889 35.4249 138.019 35.4249C138.148 35.4249 138.272 35.3735 138.363 35.2821C138.455 35.1907 138.506 35.0667 138.506 34.9374H138.506L138.506 34.9344C138.499 34.8166 138.546 34.7032 138.631 34.625M138.631 34.625L138.897 35.1525L138.928 35.2142L138.931 35.2108M138.631 34.625C138.644 34.6136 138.657 34.6029 138.671 34.5931L138.456 34.9374C138.448 34.7997 138.505 34.6673 138.608 34.5789L138.631 34.625ZM138.931 35.2108C139.006 35.319 139.121 35.3935 139.253 35.4155L139.253 35.4161H139.261H139.331M138.931 35.2108C138.919 35.1923 138.907 35.1728 138.897 35.1524C138.897 35.1523 138.897 35.1522 138.897 35.1522L138.942 35.1299L139.261 35.3661C139.14 35.3459 139.034 35.2761 138.968 35.1748L138.931 35.2108ZM139.331 35.4161H139.331V35.3661L139.331 35.4161C139.331 35.4161 139.331 35.4161 139.331 35.4161ZM139.331 35.4161C139.46 35.4168 139.585 35.366 139.677 35.2747L139.677 35.2743L139.969 34.9786H140.206C140.38 34.9786 140.541 34.8857 140.628 34.7349M140.628 34.7349C140.628 34.7349 140.628 34.7349 140.628 34.7349L140.585 34.7099L140.628 34.7349ZM140.628 34.7349C140.715 34.5841 140.715 34.3982 140.628 34.2474M140.628 34.2474C140.628 34.2474 140.628 34.2474 140.628 34.2474L140.585 34.2724L140.628 34.2474Z" fill="#472F92" stroke="#472F92" stroke-width="0.1"/>
<path d="M137.581 28.8625H135.831C135.657 28.8625 135.496 28.7696 135.409 28.6188L137.581 28.8625ZM137.581 28.8625C137.755 28.8625 137.916 28.7696 138.003 28.6187M137.581 28.8625L138.003 28.6187M138.003 28.6187C138.09 28.4679 138.09 28.282 138.003 28.1313M138.003 28.6187C138.003 28.6187 138.003 28.6188 138.003 28.6188L137.96 28.5938L138.003 28.1313M138.003 28.1313C137.916 27.9804 137.755 27.8875 137.581 27.8875M138.003 28.1313L137.581 27.8875M137.581 27.8875H135.831M137.581 27.8875H135.831M135.831 27.8875C135.657 27.8875 135.496 27.9804 135.409 28.1313M135.831 27.8875L135.409 28.1313M135.409 28.1313C135.409 28.1313 135.409 28.1312 135.409 28.1312L135.452 28.1562C135.53 28.0209 135.675 27.9375 135.831 27.9375H137.581L135.409 28.1313ZM135.409 28.1313C135.322 28.2821 135.322 28.468 135.409 28.6187L135.409 28.1313Z" fill="#472F92" stroke="#472F92" stroke-width="0.1"/>
<path d="M140.206 29.6375H135.831L140.585 30.3438C140.663 30.2084 140.663 30.0416 140.585 29.9062L140.628 29.8813C140.628 29.8813 140.628 29.8812 140.628 29.8812C140.541 29.7304 140.38 29.6375 140.206 29.6375ZM140.206 30.6125C140.38 30.6125 140.541 30.5196 140.628 30.3688L135.409 30.3688C135.496 30.5196 135.657 30.6125 135.831 30.6125H140.206ZM135.409 29.8813C135.322 30.0321 135.322 30.218 135.409 30.3687L135.409 29.8813Z" fill="#472F92" stroke="#472F92" stroke-width="0.1"/>
<path d="M140.206 31.3875H135.831L140.585 32.0938C140.663 31.9584 140.663 31.7916 140.585 31.6562L140.628 31.6313C140.628 31.6313 140.628 31.6312 140.628 31.6312C140.541 31.4804 140.38 31.3875 140.206 31.3875ZM140.206 32.3625C140.38 32.3625 140.541 32.2696 140.628 32.1188L135.409 32.1188C135.496 32.2696 135.657 32.3625 135.831 32.3625H140.206ZM135.409 31.6313C135.322 31.7821 135.322 31.968 135.409 32.1187L135.409 31.6313Z" fill="#472F92" stroke="#472F92" stroke-width="0.1"/>
<path d="M136.706 33.1375H135.831L137.085 33.8438C137.163 33.7084 137.163 33.5416 137.085 33.4062L137.128 33.3813C137.128 33.3813 137.128 33.3812 137.128 33.3812C137.041 33.2304 136.88 33.1375 136.706 33.1375ZM135.409 33.3813C135.322 33.5321 135.322 33.718 135.409 33.8687L135.409 33.3812C135.409 33.3812 135.409 33.3813 135.409 33.3813Z" fill="#472F92" stroke="#472F92" stroke-width="0.1"/>
<path d="M143.489 27.7209L143.489 27.7209C143.663 27.5474 143.898 27.45 144.144 27.45H145.019C145.264 27.45 145.499 27.5474 145.673 27.7209L145.673 27.7209C145.846 27.8944 145.944 28.1296 145.944 28.375V34.9375V34.9379C145.943 35.0334 145.914 35.1266 145.861 35.206C145.861 35.206 145.861 35.206 145.861 35.206L145.069 36.3964V36.6875C145.069 36.8616 144.976 37.0226 144.825 37.1097M143.489 27.7209L144.362 37.0663L144.337 37.1096C144.488 37.1968 144.674 37.1968 144.825 37.1097M143.489 27.7209C143.316 27.8944 143.219 28.1296 143.219 28.375L143.219 34.9375L143.219 34.9379M143.489 27.7209L143.219 34.9379M144.825 37.1097L144.8 37.0663L144.825 37.1096C144.825 37.1096 144.825 37.1096 144.825 37.1097ZM143.219 34.9379C143.219 35.0334 143.248 35.1266 143.301 35.2059M143.219 34.9379L143.301 35.2059M143.301 35.2059C143.301 35.206 143.301 35.206 143.301 35.206L143.301 35.2059ZM144.094 36.3964L144.102 36.409L144.144 36.3813H144.094V36.3964ZM144.194 28.425H144.969V29.2H144.194V28.425ZM144.194 34.7911V30.175H144.969V34.7911L144.581 35.3724L144.194 34.7911Z" fill="#472F92" stroke="#472F92" stroke-width="0.1"/>
<g clip-path="url(#clip7_615_844)">
<rect x="192.769" y="78" width="38" height="38" rx="19" fill="white"/>
<path d="M208.858 83.4395C208.484 82.8578 208.005 82.0251 207.455 81.6059C206.906 81.1896 206.189 80.9443 205.52 81.1069C204.891 81.258 204.381 81.7485 204.086 82.3274C203.792 82.9063 203.69 83.565 203.664 84.2151C203.616 85.4214 203.82 86.6361 204.253 87.7597C203.593 86.8015 202.103 86.6419 201.165 87.3234C200.224 88.0049 199.878 89.3395 200.21 90.4544C200.544 91.5694 201.448 93.6055 203.684 93.6055H219.807C221.394 93.6055 222.114 91.2358 222.136 90.6455C222.236 88.0705 220.822 87.7112 219.887 87.5002C220.714 86.7502 221.439 85.889 222.037 84.9451C222.525 84.1781 222.938 83.277 222.751 82.3873C222.593 81.6344 222.009 81.0213 221.329 80.6706C220.646 80.3198 219.872 80.2001 219.11 80.1459C215.446 79.8864 211.7 81.0869 208.861 83.4338" fill="#111827"/>
<path d="M228.741 117.322C228.741 123.065 194.88 123.065 194.88 117.322C194.88 111.579 208.24 109.346 211.81 109.346C215.381 109.346 228.741 111.579 228.741 117.322Z" fill="#E5E7EB"/>
<path d="M211.811 112.298C210.153 112.298 208.81 110.946 208.81 109.278V102.4H214.809V109.278C214.809 110.946 213.465 112.298 211.808 112.298H211.811Z" fill="#F3F4F6"/>
<path d="M214.809 107.513V104.881H208.81V107.513C209.736 107.892 210.751 108.1 211.811 108.1C212.87 108.1 213.882 107.892 214.809 107.513Z" fill="#E5E7EB"/>
<path d="M211.811 106.201C207.396 106.201 203.817 102.599 203.817 98.1566V91.769C203.817 87.3262 207.396 83.7246 211.811 83.7246C216.225 83.7246 219.804 87.3262 219.804 91.769V98.1566C219.804 102.599 216.225 106.201 211.811 106.201Z" fill="#F3F4F6"/>
<path d="M203.009 99.4085C204.217 99.4085 205.197 98.4229 205.197 97.2071C205.197 95.9912 204.217 95.0056 203.009 95.0056C201.801 95.0056 200.822 95.9912 200.822 97.2071C200.822 98.4229 201.801 99.4085 203.009 99.4085Z" fill="#F3F4F6"/>
<path d="M220.612 99.4085C221.82 99.4085 222.799 98.4229 222.799 97.2071C222.799 95.9912 221.82 95.0056 220.612 95.0056C219.404 95.0056 218.424 95.9912 218.424 97.2071C218.424 98.4229 219.404 99.4085 220.612 99.4085Z" fill="#F3F4F6"/>
<path d="M215.783 88.9542C215.676 90.0065 215.874 91.0872 216.347 92.0311C216.628 92.5872 217.381 93.166 218.002 93.166C219.15 93.166 220.042 92.2079 220.042 91.3952C220.042 91.3952 219.807 83.502 211.811 83.502C204.933 83.502 203.579 88.5949 203.579 93.608C203.579 93.859 204.378 94.0272 205.186 94.0272C211.813 94.0272 212.182 90.0008 212.236 89.2166C212.236 89.2166 212.434 91.0416 214.049 91.0416C215.44 91.0416 215.783 88.9542 215.783 88.9542Z" fill="#111827"/>
</g>
<rect x="192.05" y="77.2818" width="39.4364" height="39.4364" rx="19.7182" stroke="#E5E7EB" stroke-width="1.43643"/>
<circle cx="231.769" cy="107" r="10.5" fill="#C3DAFF" stroke="white"/>
<path d="M237.769 104.353V104.318V104.265C237.769 104.247 237.769 104.23 237.751 104.212C237.751 104.194 237.751 104.177 237.733 104.159C237.733 104.141 237.716 104.124 237.698 104.106C237.698 104.088 237.68 104.088 237.68 104.071L236.127 101.583C235.898 101.212 235.51 101 235.086 101L228.451 101C228.027 101 227.639 101.212 227.41 101.582L225.857 104.071C225.857 104.088 225.839 104.088 225.839 104.106C225.821 104.123 225.821 104.141 225.804 104.159C225.804 104.176 225.786 104.194 225.786 104.212C225.786 104.229 225.769 104.247 225.769 104.265V104.317V104.353V110.882C225.769 111.659 226.404 112.294 227.18 112.294H236.357C237.133 112.294 237.769 111.659 237.769 110.882L237.769 104.353ZM235.227 102.147L236.286 103.824L232.298 103.823V102.059H235.086C235.139 102.059 235.192 102.094 235.227 102.147L235.227 102.147ZM228.31 102.147C228.345 102.094 228.398 102.059 228.451 102.059L231.239 102.059V103.823H227.251L228.31 102.147ZM233.004 111.235H230.533V110.353H233.004V111.235ZM236.71 110.882C236.71 111.076 236.551 111.235 236.357 111.235L234.063 111.235V109.823C234.063 109.524 233.833 109.294 233.533 109.294H230.004C229.704 109.294 229.475 109.524 229.475 109.823V111.235H227.18C226.986 111.235 226.828 111.076 226.828 110.882V104.882H236.71L236.71 110.882Z" fill="#4972B3"/>
<path d="M229.563 107.583C229.563 107.883 229.793 108.112 230.093 108.112H233.446C233.746 108.112 233.975 107.883 233.975 107.583C233.975 107.283 233.746 107.053 233.446 107.053H230.093C229.793 107.053 229.563 107.3 229.563 107.583Z" fill="#4972B3"/>
<defs>
<filter id="filter0_f_615_844" x="40.7686" y="50" width="156" height="157" filterUnits="userSpaceOnUse" color-interpolation-filters="sRGB">
<feFlood flood-opacity="0" result="BackgroundImageFix"/>
<feBlend mode="normal" in="SourceGraphic" in2="BackgroundImageFix" result="shape"/>
<feGaussianBlur stdDeviation="21" result="effect1_foregroundBlur_615_844"/>
</filter>
<filter id="filter1_d_615_844" x="39.7686" y="52" width="160" height="160" filterUnits="userSpaceOnUse" color-interpolation-filters="sRGB">
<feFlood flood-opacity="0" result="BackgroundImageFix"/>
<feColorMatrix in="SourceAlpha" type="matrix" values="0 0 0 0 0 0 0 0 0 0 0 0 0 0 0 0 0 0 127 0" result="hardAlpha"/>
<feOffset dy="4"/>
<feGaussianBlur stdDeviation="12"/>
<feComposite in2="hardAlpha" operator="out"/>
<feColorMatrix type="matrix" values="0 0 0 0 0.278431 0 0 0 0 0.184314 0 0 0 0 0.572549 0 0 0 0.14 0"/>
<feBlend mode="normal" in2="BackgroundImageFix" result="effect1_dropShadow_615_844"/>
<feBlend mode="normal" in="SourceGraphic" in2="effect1_dropShadow_615_844" result="shape"/>
</filter>
<filter id="filter2_b_615_844" x="90.7686" y="99" width="58" height="58" filterUnits="userSpaceOnUse" color-interpolation-filters="sRGB">
<feFlood flood-opacity="0" result="BackgroundImageFix"/>
<feGaussianBlur in="BackgroundImageFix" stdDeviation="2"/>
<feComposite in2="SourceAlpha" operator="in" result="effect1_backgroundBlur_615_844"/>
<feBlend mode="normal" in="SourceGraphic" in2="effect1_backgroundBlur_615_844" result="shape"/>
</filter>
<linearGradient id="paint0_linear_615_844" x1="119.769" y1="23" x2="119.769" y2="233" gradientUnits="userSpaceOnUse">
<stop stop-color="white"/>
<stop offset="1" stop-color="white" stop-opacity="0"/>
</linearGradient>
<clipPath id="clip0_615_844">
<rect x="100.769" y="2" width="38" height="38" rx="19" fill="white"/>
</clipPath>
<clipPath id="clip1_615_844">
<rect x="1.76855" y="78" width="38" height="38" rx="19" fill="white"/>
</clipPath>
<clipPath id="clip2_615_844">
<rect x="12.7686" y="173" width="38" height="38" rx="19" fill="white"/>
</clipPath>
<clipPath id="clip3_615_844">
<rect width="12" height="12" fill="white" transform="translate(45.7686 196)"/>
</clipPath>
<clipPath id="clip4_615_844">
<rect x="186.769" y="173" width="38" height="38" rx="19" fill="white"/>
</clipPath>
<clipPath id="clip5_615_844">
<rect x="100.769" y="161" width="38" height="38" rx="19" fill="white"/>
</clipPath>
<clipPath id="clip6_615_844">
<rect width="16" height="16" fill="white" transform="translate(131.769 180.5)"/>
</clipPath>
<clipPath id="clip7_615_844">
<rect x="192.769" y="78" width="38" height="38" rx="19" fill="white"/>
</clipPath>
</defs>
</svg>
