<svg width="271" height="239" viewBox="0 0 271 239" fill="none" xmlns="http://www.w3.org/2000/svg">
<path d="M134.269 94.5L171.769 141.5L69.8292 161.5V217" stroke="#9CA3AF" stroke-width="2" stroke-dasharray="12 12"/>
<path d="M194.269 10L117.39 69.697L143.269 106" stroke="#472F92" stroke-width="2" stroke-dasharray="12 12"/>
<circle cx="120.769" cy="67" r="9.5" fill="white" stroke="#472F92" stroke-width="3"/>
<circle cx="171.587" cy="139.379" r="9.56061" fill="white" stroke="#6B7280" stroke-width="3"/>
<circle cx="69.8292" cy="158.182" r="9.56061" fill="white" stroke="#6B7280" stroke-width="3"/>
<circle cx="193.769" cy="11" r="9.5" fill="white" stroke="#472F92" stroke-width="3"/>
<circle cx="193.769" cy="11" r="5" fill="#472F92"/>
<circle cx="120.769" cy="67" r="5" fill="#472F92"/>
<path d="M13.3613 70.0437V70.8213C13.3613 71.2393 13.324 71.5919 13.2492 71.8792C13.1745 72.1664 13.0671 72.3976 12.927 72.5727C12.7869 72.7479 12.6175 72.8752 12.4191 72.9546C12.2229 73.0316 12.001 73.0702 11.7535 73.0702C11.5573 73.0702 11.3764 73.0456 11.2106 72.9966C11.0448 72.9476 10.8953 72.8693 10.7622 72.7619C10.6314 72.6521 10.5193 72.5097 10.4259 72.3345C10.3325 72.1594 10.2613 71.9469 10.2122 71.697C10.1632 71.4471 10.1387 71.1552 10.1387 70.8213V70.0437C10.1387 69.6256 10.176 69.2754 10.2508 68.9928C10.3278 68.7102 10.4364 68.4837 10.5765 68.3132C10.7166 68.1404 10.8848 68.0167 11.0809 67.9419C11.2794 67.8672 11.5013 67.8298 11.7465 67.8298C11.945 67.8298 12.1271 67.8544 12.2929 67.9034C12.4611 67.9501 12.6105 68.026 12.7413 68.1311C12.8721 68.2338 12.983 68.3716 13.0741 68.5444C13.1675 68.7149 13.2387 68.9239 13.2878 69.1714C13.3368 69.419 13.3613 69.7097 13.3613 70.0437ZM12.7098 70.9264V69.9351C12.7098 69.7062 12.6958 69.5054 12.6678 69.3326C12.6421 69.1574 12.6035 69.008 12.5522 68.8842C12.5008 68.7604 12.4354 68.66 12.356 68.583C12.2789 68.5059 12.189 68.4498 12.0863 68.4148C11.9859 68.3775 11.8726 68.3588 11.7465 68.3588C11.5924 68.3588 11.4558 68.388 11.3367 68.4463C11.2176 68.5024 11.1171 68.5923 11.0354 68.7161C10.956 68.8398 10.8953 69.0021 10.8533 69.203C10.8112 69.4038 10.7902 69.6478 10.7902 69.9351V70.9264C10.7902 71.1552 10.8031 71.3572 10.8287 71.5324C10.8568 71.7075 10.8976 71.8593 10.9513 71.9878C11.0051 72.1139 11.0704 72.2178 11.1475 72.2995C11.2246 72.3813 11.3133 72.442 11.4137 72.4817C11.5165 72.519 11.6297 72.5377 11.7535 72.5377C11.9123 72.5377 12.0512 72.5074 12.1703 72.4466C12.2894 72.3859 12.3887 72.2913 12.4681 72.1629C12.5498 72.0321 12.6105 71.8652 12.6502 71.662C12.6899 71.4565 12.7098 71.2113 12.7098 70.9264Z" fill="#757575"/>
<path d="M17.6498 71.62C17.6498 71.9305 17.5774 72.1944 17.4326 72.4116C17.2902 72.6265 17.0963 72.7899 16.8511 72.902C16.6083 73.0141 16.3339 73.0702 16.028 73.0702C15.722 73.0702 15.4465 73.0141 15.2013 72.902C14.9561 72.7899 14.7622 72.6265 14.6198 72.4116C14.4773 72.1944 14.4061 71.9305 14.4061 71.62C14.4061 71.4168 14.4447 71.2311 14.5217 71.063C14.6011 70.8925 14.712 70.7442 14.8545 70.6181C14.9993 70.492 15.1698 70.3951 15.3659 70.3274C15.5644 70.2573 15.7828 70.2223 16.021 70.2223C16.3339 70.2223 16.6129 70.283 16.8581 70.4045C17.1033 70.5236 17.296 70.6882 17.4361 70.8984C17.5786 71.1085 17.6498 71.3491 17.6498 71.62ZM16.9983 71.6059C16.9983 71.4168 16.9574 71.2498 16.8757 71.105C16.7939 70.9579 16.6795 70.8435 16.5324 70.7618C16.3853 70.68 16.2148 70.6391 16.021 70.6391C15.8225 70.6391 15.6508 70.68 15.506 70.7618C15.3636 70.8435 15.2527 70.9579 15.1733 71.105C15.0939 71.2498 15.0542 71.4168 15.0542 71.6059C15.0542 71.8021 15.0927 71.9702 15.1698 72.1104C15.2492 72.2481 15.3612 72.3544 15.506 72.4291C15.6532 72.5015 15.8271 72.5377 16.028 72.5377C16.2288 72.5377 16.4016 72.5015 16.5464 72.4291C16.6912 72.3544 16.8021 72.2481 16.8792 72.1104C16.9586 71.9702 16.9983 71.8021 16.9983 71.6059ZM17.5307 69.2275C17.5307 69.475 17.4653 69.698 17.3345 69.8965C17.2038 70.095 17.0251 70.2515 16.7986 70.3659C16.5721 70.4804 16.3152 70.5376 16.028 70.5376C15.7361 70.5376 15.4757 70.4804 15.2468 70.3659C15.0203 70.2515 14.8428 70.095 14.7144 69.8965C14.5859 69.698 14.5217 69.475 14.5217 69.2275C14.5217 68.9309 14.5859 68.6787 14.7144 68.4709C14.8452 68.263 15.0238 68.1042 15.2503 67.9945C15.4768 67.8847 15.7349 67.8298 16.0245 67.8298C16.3164 67.8298 16.5756 67.8847 16.8021 67.9945C17.0286 68.1042 17.2061 68.263 17.3345 68.4709C17.4653 68.6787 17.5307 68.9309 17.5307 69.2275ZM16.8827 69.238C16.8827 69.0675 16.8465 68.9169 16.7741 68.7861C16.7017 68.6553 16.6013 68.5526 16.4728 68.4779C16.3444 68.4008 16.1949 68.3623 16.0245 68.3623C15.854 68.3623 15.7045 68.3985 15.5761 68.4709C15.45 68.5409 15.3507 68.6413 15.2783 68.7721C15.2083 68.9029 15.1733 69.0582 15.1733 69.238C15.1733 69.4131 15.2083 69.5661 15.2783 69.6969C15.3507 69.8276 15.4512 69.9292 15.5796 70.0016C15.708 70.074 15.8575 70.1102 16.028 70.1102C16.1984 70.1102 16.3467 70.074 16.4728 70.0016C16.6013 69.9292 16.7017 69.8276 16.7741 69.6969C16.8465 69.5661 16.8827 69.4131 16.8827 69.238Z" fill="#757575"/>
<path d="M18.7506 72.6568C18.7506 72.5471 18.7845 72.4548 18.8522 72.3801C18.9223 72.303 19.0227 72.2645 19.1535 72.2645C19.2842 72.2645 19.3835 72.303 19.4512 72.3801C19.5213 72.4548 19.5563 72.5471 19.5563 72.6568C19.5563 72.7642 19.5213 72.8553 19.4512 72.93C19.3835 73.0048 19.2842 73.0421 19.1535 73.0421C19.0227 73.0421 18.9223 73.0048 18.8522 72.93C18.7845 72.8553 18.7506 72.7642 18.7506 72.6568ZM18.7541 69.5638C18.7541 69.454 18.788 69.3618 18.8557 69.287C18.9258 69.21 19.0262 69.1714 19.157 69.1714C19.2877 69.1714 19.387 69.21 19.4547 69.287C19.5248 69.3618 19.5598 69.454 19.5598 69.5638C19.5598 69.6712 19.5248 69.7623 19.4547 69.837C19.387 69.9117 19.2877 69.9491 19.157 69.9491C19.0262 69.9491 18.9258 69.9117 18.8557 69.837C18.788 69.7623 18.7541 69.6712 18.7541 69.5638Z" fill="#757575"/>
<path d="M24.0269 72.4677V73.0001H20.6887V72.5342L22.3595 70.6742C22.565 70.4453 22.7238 70.2515 22.8359 70.0927C22.9504 69.9316 23.0298 69.7879 23.0741 69.6618C23.1208 69.5334 23.1442 69.4026 23.1442 69.2695C23.1442 69.1014 23.1092 68.9496 23.0391 68.8141C22.9714 68.6764 22.871 68.5666 22.7379 68.4849C22.6047 68.4031 22.4436 68.3623 22.2545 68.3623C22.0279 68.3623 21.8388 68.4066 21.687 68.4954C21.5375 68.5818 21.4254 68.7032 21.3507 68.8597C21.276 69.0161 21.2386 69.196 21.2386 69.3991H20.5906C20.5906 69.1119 20.6536 68.8492 20.7797 68.611C20.9058 68.3728 21.0927 68.1836 21.3402 68.0435C21.5877 67.9011 21.8925 67.8298 22.2545 67.8298C22.5767 67.8298 22.8523 67.887 23.0811 68.0015C23.31 68.1136 23.4851 68.2724 23.6066 68.4779C23.7303 68.681 23.7922 68.9192 23.7922 69.1925C23.7922 69.3419 23.7665 69.4937 23.7152 69.6478C23.6661 69.7996 23.5972 69.9514 23.5085 70.1032C23.4221 70.255 23.3205 70.4045 23.2037 70.5516C23.0893 70.6987 22.9667 70.8435 22.8359 70.9859L21.4698 72.4677H24.0269Z" fill="#757575"/>
<path d="M27.0894 67.8719V73.0001H26.4413V68.681L25.1348 69.1574V68.5724L26.9878 67.8719H27.0894Z" fill="#757575"/>
<path d="M33.3089 68.3518L31.6205 73.0001H30.9304L32.8745 67.8999H33.3194L33.3089 68.3518ZM34.724 73.0001L33.0321 68.3518L33.0216 67.8999H33.4665L35.4176 73.0001H34.724ZM34.6365 71.112V71.6655H31.7711V71.112H34.6365Z" fill="#757575"/>
<path d="M36.5535 67.8999H37.2085L38.8794 72.0578L40.5468 67.8999H41.2053L39.1316 73.0001H38.6202L36.5535 67.8999ZM36.3398 67.8999H36.9178L37.0124 71.0105V73.0001H36.3398V67.8999ZM40.8375 67.8999H41.4155V73.0001H40.7429V71.0105L40.8375 67.8999Z" fill="#757575"/>
<path d="M0.768555 40C0.768555 33.3726 6.14114 28 12.7686 28H91.7686C98.396 28 103.769 33.3726 103.769 40V60.6087C103.769 61.9294 102.698 63 101.377 63H12.7686C6.14114 63 0.768555 57.6274 0.768555 51V40Z" fill="#F3F4F6"/>
<path d="M8.98255 36.913H9.82664L11.5148 39.7544H11.5861L13.2743 36.913H14.1184L11.919 40.4915V43H11.1819V40.4915L8.98255 36.913ZM16.335 43.0951C15.9229 43.0951 15.5613 42.997 15.2502 42.8009C14.9411 42.6047 14.6993 42.3303 14.525 41.9776C14.3526 41.6249 14.2664 41.2127 14.2664 40.7412C14.2664 40.2656 14.3526 39.8505 14.525 39.4958C14.6993 39.1412 14.9411 38.8657 15.2502 38.6696C15.5613 38.4734 15.9229 38.3753 16.335 38.3753C16.7471 38.3753 17.1078 38.4734 17.4169 38.6696C17.7279 38.8657 17.9697 39.1412 18.1421 39.4958C18.3164 39.8505 18.4036 40.2656 18.4036 40.7412C18.4036 41.2127 18.3164 41.6249 18.1421 41.9776C17.9697 42.3303 17.7279 42.6047 17.4169 42.8009C17.1078 42.997 16.7471 43.0951 16.335 43.0951ZM16.335 42.465C16.6481 42.465 16.9057 42.3848 17.1078 42.2243C17.3099 42.0638 17.4595 41.8528 17.5566 41.5912C17.6536 41.3297 17.7022 41.0463 17.7022 40.7412C17.7022 40.436 17.6536 40.1517 17.5566 39.8882C17.4595 39.6246 17.3099 39.4116 17.1078 39.2492C16.9057 39.0867 16.6481 39.0054 16.335 39.0054C16.0219 39.0054 15.7644 39.0867 15.5622 39.2492C15.3601 39.4116 15.2105 39.6246 15.1135 39.8882C15.0164 40.1517 14.9678 40.436 14.9678 40.7412C14.9678 41.0463 15.0164 41.3297 15.1135 41.5912C15.2105 41.8528 15.3601 42.0638 15.5622 42.2243C15.7644 42.3848 16.0219 42.465 16.335 42.465ZM22.5008 41.1335V38.4348H23.2023V43H22.5008V42.2272H22.4533C22.3463 42.4591 22.1798 42.6562 21.954 42.8187C21.7281 42.9792 21.4427 43.0594 21.098 43.0594C20.8126 43.0594 20.559 42.997 20.3371 42.8722C20.1152 42.7454 19.9408 42.5552 19.814 42.3015C19.6872 42.0459 19.6238 41.724 19.6238 41.3356V38.4348H20.3252V41.288C20.3252 41.6209 20.4183 41.8864 20.6046 42.0846C20.7928 42.2827 21.0326 42.3818 21.3239 42.3818C21.4982 42.3818 21.6756 42.3372 21.8559 42.248C22.0382 42.1589 22.1907 42.0222 22.3136 41.8379C22.4384 41.6536 22.5008 41.4188 22.5008 41.1335ZM24.6364 43V38.4348H25.3141V39.1243H25.3616C25.4448 38.8984 25.5954 38.7152 25.8134 38.5745C26.0313 38.4338 26.277 38.3635 26.5505 38.3635C26.602 38.3635 26.6664 38.3644 26.7437 38.3664C26.8209 38.3684 26.8794 38.3714 26.919 38.3753V39.0887C26.8953 39.0827 26.8408 39.0738 26.7556 39.0619C26.6723 39.048 26.5842 39.0411 26.491 39.0411C26.2691 39.0411 26.071 39.0877 25.8966 39.1808C25.7242 39.2719 25.5875 39.3987 25.4865 39.5612C25.3874 39.7217 25.3378 39.905 25.3378 40.1111V43H24.6364ZM30.4033 44.712V38.4348H31.081V39.16H31.1642C31.2157 39.0807 31.2871 38.9797 31.3782 38.8568C31.4713 38.732 31.6041 38.621 31.7765 38.5239C31.9508 38.4249 32.1866 38.3753 32.4838 38.3753C32.8682 38.3753 33.2071 38.4714 33.5003 38.6636C33.7936 38.8558 34.0224 39.1283 34.1869 39.481C34.3513 39.8337 34.4336 40.2498 34.4336 40.7293C34.4336 41.2127 34.3513 41.6318 34.1869 41.9865C34.0224 42.3392 33.7946 42.6126 33.5033 42.8068C33.212 42.999 32.8762 43.0951 32.4957 43.0951C32.2025 43.0951 31.9677 43.0466 31.7913 42.9495C31.615 42.8504 31.4793 42.7385 31.3841 42.6136C31.289 42.4868 31.2157 42.3818 31.1642 42.2986H31.1048V44.712H30.4033ZM31.0929 40.7174C31.0929 41.0622 31.1434 41.3663 31.2445 41.6298C31.3455 41.8914 31.4931 42.0965 31.6873 42.2451C31.8815 42.3917 32.1193 42.465 32.4006 42.465C32.6939 42.465 32.9386 42.3877 33.1347 42.2332C33.3329 42.0767 33.4815 41.8666 33.5806 41.6031C33.6816 41.3376 33.7321 41.0423 33.7321 40.7174C33.7321 40.3964 33.6826 40.1071 33.5835 39.8495C33.4864 39.59 33.3388 39.3849 33.1407 39.2343C32.9445 39.0817 32.6978 39.0054 32.4006 39.0054C32.1153 39.0054 31.8755 39.0778 31.6814 39.2224C31.4872 39.3651 31.3406 39.5652 31.2415 39.8228C31.1424 40.0784 31.0929 40.3766 31.0929 40.7174ZM36.9964 43.107C36.7071 43.107 36.4446 43.0525 36.2088 42.9435C35.973 42.8326 35.7858 42.6731 35.6471 42.465C35.5084 42.255 35.439 42.0014 35.439 41.7041C35.439 41.4426 35.4905 41.2306 35.5936 41.0681C35.6966 40.9036 35.8343 40.7749 36.0067 40.6817C36.1791 40.5886 36.3693 40.5192 36.5773 40.4737C36.7874 40.4261 36.9984 40.3885 37.2104 40.3607C37.4878 40.3251 37.7127 40.2983 37.8851 40.2805C38.0594 40.2607 38.1863 40.228 38.2655 40.1824C38.3468 40.1368 38.3874 40.0576 38.3874 39.9446V39.9209C38.3874 39.6276 38.3071 39.3997 38.1466 39.2373C37.9881 39.0748 37.7474 38.9935 37.4244 38.9935C37.0895 38.9935 36.827 39.0669 36.6368 39.2135C36.4466 39.3601 36.3128 39.5166 36.2355 39.6831L35.5698 39.4453C35.6887 39.1679 35.8472 38.9519 36.0453 38.7974C36.2454 38.6409 36.4634 38.5319 36.6992 38.4704C36.937 38.407 37.1708 38.3753 37.4006 38.3753C37.5472 38.3753 37.7157 38.3932 37.9059 38.4288C38.0981 38.4625 38.2834 38.5329 38.4617 38.6399C38.642 38.7469 38.7916 38.9083 38.9105 39.1243C39.0294 39.3403 39.0888 39.6296 39.0888 39.9922V43H38.3874V42.3818H38.3517C38.3042 42.4809 38.2249 42.5869 38.1139 42.6998C38.003 42.8128 37.8554 42.9089 37.6711 42.9881C37.4868 43.0674 37.2619 43.107 36.9964 43.107ZM37.1034 42.4769C37.3808 42.4769 37.6146 42.4224 37.8048 42.3134C37.997 42.2045 38.1417 42.0638 38.2388 41.8914C38.3378 41.719 38.3874 41.5377 38.3874 41.3475V40.7055C38.3577 40.7412 38.2923 40.7739 38.1912 40.8036C38.0921 40.8313 37.9772 40.8561 37.8464 40.8779C37.7177 40.8977 37.5918 40.9155 37.469 40.9314C37.3481 40.9453 37.25 40.9571 37.1747 40.9671C36.9924 40.9908 36.822 41.0295 36.6635 41.083C36.507 41.1345 36.3802 41.2127 36.2831 41.3178C36.188 41.4208 36.1404 41.5615 36.1404 41.7398C36.1404 41.9835 36.2306 42.1678 36.4109 42.2926C36.5932 42.4155 36.824 42.4769 37.1034 42.4769ZM40.5185 43V38.4348H41.1962V39.1243H41.2437C41.3269 38.8984 41.4775 38.7152 41.6955 38.5745C41.9134 38.4338 42.1591 38.3635 42.4326 38.3635C42.4841 38.3635 42.5485 38.3644 42.6258 38.3664C42.703 38.3684 42.7615 38.3714 42.8011 38.3753V39.0887C42.7773 39.0827 42.7229 39.0738 42.6377 39.0619C42.5544 39.048 42.4663 39.0411 42.3731 39.0411C42.1512 39.0411 41.9531 39.0877 41.7787 39.1808C41.6063 39.2719 41.4696 39.3987 41.3685 39.5612C41.2695 39.7217 41.2199 39.905 41.2199 40.1111V43H40.5185ZM45.4977 43.0951C45.0697 43.0951 44.7012 42.9941 44.3921 42.7919C44.083 42.5898 43.8452 42.3115 43.6788 41.9568C43.5123 41.6021 43.4291 41.1969 43.4291 40.7412C43.4291 40.2775 43.5143 39.8683 43.6847 39.5137C43.8571 39.157 44.0968 38.8786 44.404 38.6785C44.7131 38.4764 45.0737 38.3753 45.4858 38.3753C45.8068 38.3753 46.0961 38.4348 46.3537 38.5537C46.6113 38.6726 46.8223 38.839 46.9868 39.053C47.1512 39.267 47.2533 39.5166 47.2929 39.802H46.5915C46.538 39.5939 46.4191 39.4096 46.2348 39.2492C46.0525 39.0867 45.8068 39.0054 45.4977 39.0054C45.2243 39.0054 44.9845 39.0768 44.7784 39.2194C44.5744 39.3601 44.4149 39.5592 44.2999 39.8168C44.187 40.0724 44.1305 40.3726 44.1305 40.7174C44.1305 41.0701 44.186 41.3772 44.297 41.6388C44.4099 41.9003 44.5684 42.1034 44.7725 42.248C44.9786 42.3927 45.2203 42.465 45.4977 42.465C45.68 42.465 45.8454 42.4333 45.9941 42.3699C46.1427 42.3065 46.2685 42.2154 46.3715 42.0965C46.4746 41.9776 46.5479 41.8349 46.5915 41.6685H47.2929C47.2533 41.938 47.1552 42.1807 46.9986 42.3967C46.8441 42.6106 46.639 42.7811 46.3834 42.9079C46.1298 43.0327 45.8345 43.0951 45.4977 43.0951ZM50.3818 43.0951C49.9419 43.0951 49.5625 42.998 49.2435 42.8038C48.9264 42.6077 48.6817 42.3342 48.5093 41.9835C48.3389 41.6308 48.2537 41.2207 48.2537 40.7531C48.2537 40.2854 48.3389 39.8733 48.5093 39.5166C48.6817 39.158 48.9215 38.8786 49.2286 38.6785C49.5377 38.4764 49.8983 38.3753 50.3105 38.3753C50.5482 38.3753 50.783 38.415 51.0149 38.4942C51.2467 38.5735 51.4577 38.7023 51.6479 38.8806C51.8381 39.057 51.9897 39.2908 52.1027 39.582C52.2156 39.8733 52.2721 40.2319 52.2721 40.6579V40.9552H48.7531V40.3488H51.5588C51.5588 40.0913 51.5072 39.8614 51.4042 39.6593C51.3032 39.4572 51.1585 39.2977 50.9703 39.1808C50.784 39.0639 50.5641 39.0054 50.3105 39.0054C50.0311 39.0054 49.7893 39.0748 49.5853 39.2135C49.3831 39.3502 49.2276 39.5285 49.1186 39.7485C49.0096 39.9684 48.9552 40.2042 48.9552 40.4558V40.8601C48.9552 41.2048 49.0146 41.4971 49.1335 41.7368C49.2544 41.9746 49.4218 42.1559 49.6358 42.2807C49.8498 42.4036 50.0984 42.465 50.3818 42.465C50.5661 42.465 50.7325 42.4393 50.8811 42.3877C51.0317 42.3342 51.1615 42.255 51.2705 42.15C51.3794 42.043 51.4637 41.9102 51.5231 41.7517L52.2007 41.9419C52.1294 42.1718 52.0095 42.3739 51.8411 42.5482C51.6727 42.7206 51.4646 42.8554 51.217 42.9524C50.9693 43.0476 50.6909 43.0951 50.3818 43.0951ZM54.19 36.913V43H53.4885V36.913H54.19ZM58.829 40.2537V43H58.1275V36.913H58.829V39.1481H58.8884C58.9954 38.9123 59.1559 38.7251 59.3699 38.5864C59.5859 38.4457 59.8732 38.3753 60.2318 38.3753C60.5429 38.3753 60.8153 38.4378 61.0491 38.5626C61.283 38.6854 61.4643 38.8747 61.593 39.1303C61.7238 39.3839 61.7892 39.7069 61.7892 40.0992V43H61.0878V40.1467C61.0878 39.7841 60.9937 39.5038 60.8054 39.3056C60.6192 39.1055 60.3606 39.0054 60.0297 39.0054C59.7999 39.0054 59.5938 39.054 59.4115 39.1511C59.2312 39.2482 59.0885 39.3898 58.9835 39.5761C58.8805 39.7623 58.829 39.9882 58.829 40.2537ZM64.5653 43.107C64.276 43.107 64.0135 43.0525 63.7777 42.9435C63.5419 42.8326 63.3546 42.6731 63.2159 42.465C63.0772 42.255 63.0079 42.0014 63.0079 41.7041C63.0079 41.4426 63.0594 41.2306 63.1624 41.0681C63.2655 40.9036 63.4032 40.7749 63.5756 40.6817C63.748 40.5886 63.9382 40.5192 64.1462 40.4737C64.3563 40.4261 64.5673 40.3885 64.7793 40.3607C65.0567 40.3251 65.2816 40.2983 65.454 40.2805C65.6283 40.2607 65.7551 40.228 65.8344 40.1824C65.9156 40.1368 65.9563 40.0576 65.9563 39.9446V39.9209C65.9563 39.6276 65.876 39.3997 65.7155 39.2373C65.557 39.0748 65.3163 38.9935 64.9933 38.9935C64.6584 38.9935 64.3959 39.0669 64.2057 39.2135C64.0155 39.3601 63.8817 39.5166 63.8044 39.6831L63.1387 39.4453C63.2576 39.1679 63.4161 38.9519 63.6142 38.7974C63.8143 38.6409 64.0323 38.5319 64.2681 38.4704C64.5059 38.407 64.7397 38.3753 64.9695 38.3753C65.1161 38.3753 65.2846 38.3932 65.4748 38.4288C65.667 38.4625 65.8522 38.5329 66.0306 38.6399C66.2109 38.7469 66.3605 38.9083 66.4794 39.1243C66.5982 39.3403 66.6577 39.6296 66.6577 39.9922V43H65.9563V42.3818H65.9206C65.873 42.4809 65.7938 42.5869 65.6828 42.6998C65.5719 42.8128 65.4243 42.9089 65.24 42.9881C65.0557 43.0674 64.8308 43.107 64.5653 43.107ZM64.6723 42.4769C64.9497 42.4769 65.1835 42.4224 65.3737 42.3134C65.5659 42.2045 65.7106 42.0638 65.8077 41.8914C65.9067 41.719 65.9563 41.5377 65.9563 41.3475V40.7055C65.9265 40.7412 65.8612 40.7739 65.7601 40.8036C65.661 40.8313 65.5461 40.8561 65.4153 40.8779C65.2865 40.8977 65.1607 40.9155 65.0379 40.9314C64.917 40.9453 64.8189 40.9571 64.7436 40.9671C64.5613 40.9908 64.3909 41.0295 64.2324 41.083C64.0759 41.1345 63.9491 41.2127 63.852 41.3178C63.7569 41.4208 63.7093 41.5615 63.7093 41.7398C63.7093 41.9835 63.7995 42.1678 63.9798 42.2926C64.1621 42.4155 64.3929 42.4769 64.6723 42.4769ZM71.3211 39.4572L70.691 39.6355C70.6514 39.5305 70.5929 39.4285 70.5156 39.3294C70.4403 39.2283 70.3373 39.1451 70.2065 39.0797C70.0758 39.0144 69.9083 38.9817 69.7042 38.9817C69.4249 38.9817 69.192 39.0461 69.0058 39.1748C68.8215 39.3017 68.7294 39.4631 68.7294 39.6593C68.7294 39.8337 68.7928 39.9714 68.9196 40.0724C69.0464 40.1735 69.2446 40.2577 69.514 40.3251L70.1917 40.4915C70.5999 40.5906 70.904 40.7422 71.1041 40.9462C71.3043 41.1484 71.4043 41.4089 71.4043 41.7279C71.4043 41.9895 71.329 42.2233 71.1784 42.4293C71.0298 42.6354 70.8218 42.7979 70.5543 42.9168C70.2868 43.0357 69.9757 43.0951 69.621 43.0951C69.1554 43.0951 68.77 42.9941 68.4649 42.7919C68.1597 42.5898 67.9665 42.2946 67.8853 41.9062L68.5511 41.7398C68.6145 41.9855 68.7343 42.1698 68.9107 42.2926C69.089 42.4155 69.3218 42.4769 69.6091 42.4769C69.9361 42.4769 70.1956 42.4076 70.3878 42.2689C70.582 42.1282 70.6791 41.9597 70.6791 41.7636C70.6791 41.6051 70.6236 41.4723 70.5127 41.3653C70.4017 41.2563 70.2313 41.1751 70.0015 41.1216L69.2406 40.9433C68.8225 40.8442 68.5154 40.6906 68.3192 40.4826C68.125 40.2726 68.028 40.01 68.028 39.695C68.028 39.4374 68.1003 39.2095 68.2449 39.0114C68.3915 38.8132 68.5907 38.6577 68.8423 38.5448C69.0959 38.4318 69.3833 38.3753 69.7042 38.3753C70.156 38.3753 70.5107 38.4744 70.7683 38.6726C71.0278 38.8707 71.2121 39.1322 71.3211 39.4572ZM75.2081 43V36.913H75.9096V39.16H75.969C76.0205 39.0807 76.0918 38.9797 76.183 38.8568C76.2761 38.732 76.4089 38.621 76.5813 38.5239C76.7556 38.4249 76.9914 38.3753 77.2886 38.3753C77.673 38.3753 78.0119 38.4714 78.3051 38.6636C78.5984 38.8558 78.8272 39.1283 78.9917 39.481C79.1561 39.8337 79.2384 40.2498 79.2384 40.7293C79.2384 41.2127 79.1561 41.6318 78.9917 41.9865C78.8272 42.3392 78.5994 42.6126 78.3081 42.8068C78.0168 42.999 77.681 43.0951 77.3005 43.0951C77.0073 43.0951 76.7725 43.0466 76.5961 42.9495C76.4198 42.8504 76.284 42.7385 76.1889 42.6136C76.0938 42.4868 76.0205 42.3818 75.969 42.2986H75.8858V43H75.2081ZM75.8977 40.7174C75.8977 41.0622 75.9482 41.3663 76.0492 41.6298C76.1503 41.8914 76.2979 42.0965 76.4921 42.2451C76.6863 42.3917 76.9241 42.465 77.2054 42.465C77.4987 42.465 77.7434 42.3877 77.9395 42.2332C78.1377 42.0767 78.2863 41.8666 78.3854 41.6031C78.4864 41.3376 78.5369 41.0423 78.5369 40.7174C78.5369 40.3964 78.4874 40.1071 78.3883 39.8495C78.2912 39.59 78.1436 39.3849 77.9455 39.2343C77.7493 39.0817 77.5026 39.0054 77.2054 39.0054C76.9201 39.0054 76.6803 39.0778 76.4862 39.2224C76.292 39.3651 76.1453 39.5652 76.0463 39.8228C75.9472 40.0784 75.8977 40.3766 75.8977 40.7174ZM82.3748 43.0951C81.9349 43.0951 81.5555 42.998 81.2365 42.8038C80.9195 42.6077 80.6748 42.3342 80.5024 41.9835C80.332 41.6308 80.2468 41.2207 80.2468 40.7531C80.2468 40.2854 80.332 39.8733 80.5024 39.5166C80.6748 39.158 80.9145 38.8786 81.2216 38.6785C81.5307 38.4764 81.8914 38.3753 82.3035 38.3753C82.5413 38.3753 82.7761 38.415 83.0079 38.4942C83.2397 38.5735 83.4507 38.7023 83.641 38.8806C83.8312 39.057 83.9828 39.2908 84.0957 39.582C84.2086 39.8733 84.2651 40.2319 84.2651 40.6579V40.9552H80.7461V40.3488H83.5518C83.5518 40.0913 83.5003 39.8614 83.3972 39.6593C83.2962 39.4572 83.1515 39.2977 82.9633 39.1808C82.7771 39.0639 82.5571 39.0054 82.3035 39.0054C82.0241 39.0054 81.7824 39.0748 81.5783 39.2135C81.3762 39.3502 81.2206 39.5285 81.1117 39.7485C81.0027 39.9684 80.9482 40.2042 80.9482 40.4558V40.8601C80.9482 41.2048 81.0076 41.4971 81.1265 41.7368C81.2474 41.9746 81.4148 42.1559 81.6288 42.2807C81.8428 42.4036 82.0915 42.465 82.3748 42.465C82.5591 42.465 82.7255 42.4393 82.8741 42.3877C83.0247 42.3342 83.1545 42.255 83.2635 42.15C83.3725 42.043 83.4567 41.9102 83.5161 41.7517L84.1938 41.9419C84.1224 42.1718 84.0026 42.3739 83.8341 42.5482C83.6657 42.7206 83.4577 42.8554 83.21 42.9524C82.9623 43.0476 82.6839 43.0951 82.3748 43.0951ZM87.3956 43.0951C86.9558 43.0951 86.5763 42.998 86.2573 42.8038C85.9403 42.6077 85.6956 42.3342 85.5232 41.9835C85.3528 41.6308 85.2676 41.2207 85.2676 40.7531C85.2676 40.2854 85.3528 39.8733 85.5232 39.5166C85.6956 39.158 85.9353 38.8786 86.2424 38.6785C86.5515 38.4764 86.9122 38.3753 87.3243 38.3753C87.5621 38.3753 87.7969 38.415 88.0287 38.4942C88.2605 38.5735 88.4715 38.7023 88.6618 38.8806C88.852 39.057 89.0036 39.2908 89.1165 39.582C89.2294 39.8733 89.2859 40.2319 89.2859 40.6579V40.9552H85.7669V40.3488H88.5726C88.5726 40.0913 88.5211 39.8614 88.418 39.6593C88.317 39.4572 88.1724 39.2977 87.9841 39.1808C87.7979 39.0639 87.5779 39.0054 87.3243 39.0054C87.0449 39.0054 86.8032 39.0748 86.5991 39.2135C86.397 39.3502 86.2414 39.5285 86.1325 39.7485C86.0235 39.9684 85.969 40.2042 85.969 40.4558V40.8601C85.969 41.2048 86.0284 41.4971 86.1473 41.7368C86.2682 41.9746 86.4356 42.1559 86.6496 42.2807C86.8636 42.4036 87.1123 42.465 87.3956 42.465C87.5799 42.465 87.7463 42.4393 87.895 42.3877C88.0455 42.3342 88.1753 42.255 88.2843 42.15C88.3933 42.043 88.4775 41.9102 88.5369 41.7517L89.2146 41.9419C89.1433 42.1718 89.0234 42.3739 88.855 42.5482C88.6865 42.7206 88.4785 42.8554 88.2308 42.9524C87.9831 43.0476 87.7047 43.0951 87.3956 43.0951ZM91.2038 40.2537V43H90.5024V38.4348H91.18V39.1481H91.2395C91.3465 38.9163 91.5089 38.73 91.7269 38.5893C91.9449 38.4467 92.2262 38.3753 92.571 38.3753C92.8801 38.3753 93.1506 38.4387 93.3824 38.5656C93.6142 38.6904 93.7945 38.8806 93.9233 39.1362C94.0521 39.3898 94.1165 39.7108 94.1165 40.0992V43H93.4151V40.1467C93.4151 39.7881 93.322 39.5087 93.1357 39.3086C92.9494 39.1065 92.6938 39.0054 92.3689 39.0054C92.145 39.0054 91.9449 39.054 91.7685 39.1511C91.5941 39.2482 91.4564 39.3898 91.3554 39.5761C91.2543 39.7623 91.2038 39.9882 91.2038 40.2537ZM12.6442 51.4572L12.0141 51.6355C11.9745 51.5305 11.9161 51.4285 11.8388 51.3294C11.7635 51.2283 11.6605 51.1451 11.5297 51.0797C11.3989 51.0144 11.2315 50.9817 11.0274 50.9817C10.748 50.9817 10.5152 51.0461 10.3289 51.1748C10.1447 51.3017 10.0525 51.4631 10.0525 51.6593C10.0525 51.8337 10.1159 51.9714 10.2427 52.0724C10.3696 52.1735 10.5677 52.2577 10.8372 52.3251L11.5148 52.4915C11.923 52.5906 12.2271 52.7422 12.4273 52.9462C12.6274 53.1484 12.7275 53.4089 12.7275 53.7279C12.7275 53.9895 12.6522 54.2233 12.5016 54.4293C12.353 54.6354 12.1449 54.7979 11.8774 54.9168C11.6099 55.0357 11.2988 55.0951 10.9442 55.0951C10.4785 55.0951 10.0931 54.9941 9.788 54.7919C9.48286 54.5898 9.28967 54.2946 9.20843 53.9062L9.87419 53.7398C9.9376 53.9855 10.0575 54.1698 10.2338 54.2926C10.4122 54.4155 10.645 54.4769 10.9323 54.4769C11.2592 54.4769 11.5188 54.4076 11.711 54.2689C11.9052 54.1282 12.0023 53.9597 12.0023 53.7636C12.0023 53.6051 11.9468 53.4723 11.8358 53.3653C11.7248 53.2563 11.5544 53.1751 11.3246 53.1216L10.5637 52.9433C10.1456 52.8442 9.83853 52.6906 9.64237 52.4826C9.44819 52.2726 9.3511 52.01 9.3511 51.695C9.3511 51.4374 9.42342 51.2095 9.56806 51.0114C9.71469 50.8132 9.91382 50.6577 10.1655 50.5448C10.4191 50.4318 10.7064 50.3753 11.0274 50.3753C11.4792 50.3753 11.8338 50.4744 12.0914 50.6726C12.351 50.8707 12.5353 51.1322 12.6442 51.4572ZM15.8468 55.0951C15.407 55.0951 15.0275 54.998 14.7085 54.8038C14.3915 54.6077 14.1468 54.3342 13.9744 53.9835C13.804 53.6308 13.7188 53.2207 13.7188 52.7531C13.7188 52.2854 13.804 51.8733 13.9744 51.5166C14.1468 51.158 14.3865 50.8786 14.6936 50.6785C15.0027 50.4764 15.3634 50.3753 15.7755 50.3753C16.0133 50.3753 16.2481 50.415 16.4799 50.4942C16.7117 50.5735 16.9227 50.7023 17.113 50.8806C17.3032 51.057 17.4548 51.2908 17.5677 51.582C17.6806 51.8733 17.7371 52.2319 17.7371 52.6579V52.9552H14.2181V52.3488H17.0238C17.0238 52.0913 16.9723 51.8614 16.8692 51.6593C16.7682 51.4572 16.6235 51.2977 16.4353 51.1808C16.2491 51.0639 16.0291 51.0054 15.7755 51.0054C15.4961 51.0054 15.2544 51.0748 15.0503 51.2135C14.8482 51.3502 14.6926 51.5285 14.5837 51.7485C14.4747 51.9684 14.4202 52.2042 14.4202 52.4558V52.8601C14.4202 53.2048 14.4796 53.4971 14.5985 53.7368C14.7194 53.9746 14.8868 54.1559 15.1008 54.2807C15.3148 54.4036 15.5635 54.465 15.8468 54.465C16.0311 54.465 16.1975 54.4393 16.3461 54.3877C16.4967 54.3342 16.6265 54.255 16.7355 54.15C16.8445 54.043 16.9287 53.9102 16.9881 53.7517L17.6658 53.9419C17.5945 54.1718 17.4746 54.3739 17.3062 54.5482C17.1377 54.7206 16.9297 54.8554 16.682 54.9524C16.4343 55.0476 16.1559 55.0951 15.8468 55.0951ZM19.655 52.2537V55H18.9536V50.4348H19.6312V51.1481H19.6907C19.7977 50.9163 19.9601 50.73 20.1781 50.5893C20.3961 50.4467 20.6774 50.3753 21.0222 50.3753C21.3313 50.3753 21.6018 50.4387 21.8336 50.5656C22.0654 50.6904 22.2457 50.8806 22.3745 51.1362C22.5033 51.3898 22.5677 51.7108 22.5677 52.0992V55H21.8663V52.1467C21.8663 51.7881 21.7731 51.5087 21.5869 51.3086C21.4006 51.1065 21.145 51.0054 20.8201 51.0054C20.5962 51.0054 20.3961 51.054 20.2197 51.1511C20.0453 51.2482 19.9076 51.3898 19.8066 51.5761C19.7055 51.7623 19.655 51.9882 19.655 52.2537ZM25.9843 50.4348V51.0292H23.6185V50.4348H25.9843ZM24.308 49.341H25.0094V53.6923C25.0094 53.8904 25.0382 54.039 25.0956 54.1381C25.1551 54.2352 25.2304 54.3006 25.3215 54.3342C25.4146 54.3659 25.5127 54.3818 25.6157 54.3818C25.693 54.3818 25.7564 54.3778 25.806 54.3699C25.8555 54.36 25.8951 54.3521 25.9248 54.3461L26.0675 54.9762C26.02 54.9941 25.9536 55.0119 25.8684 55.0297C25.7832 55.0495 25.6752 55.0594 25.5444 55.0594C25.3463 55.0594 25.1521 55.0168 24.9619 54.9316C24.7736 54.8464 24.6171 54.7167 24.4923 54.5423C24.3694 54.3679 24.308 54.148 24.308 53.8825V49.341ZM32.926 51.4572L32.2959 51.6355C32.2562 51.5305 32.1978 51.4285 32.1205 51.3294C32.0452 51.2283 31.9422 51.1451 31.8114 51.0797C31.6806 51.0144 31.5132 50.9817 31.3091 50.9817C31.0297 50.9817 30.7969 51.0461 30.6106 51.1748C30.4264 51.3017 30.3342 51.4631 30.3342 51.6593C30.3342 51.8337 30.3976 51.9714 30.5245 52.0724C30.6513 52.1735 30.8494 52.2577 31.1189 52.3251L31.7965 52.4915C32.2047 52.5906 32.5089 52.7422 32.709 52.9462C32.9091 53.1484 33.0092 53.4089 33.0092 53.7279C33.0092 53.9895 32.9339 54.2233 32.7833 54.4293C32.6347 54.6354 32.4266 54.7979 32.1591 54.9168C31.8916 55.0357 31.5806 55.0951 31.2259 55.0951C30.7602 55.0951 30.3749 54.9941 30.0697 54.7919C29.7646 54.5898 29.5714 54.2946 29.4901 53.9062L30.1559 53.7398C30.2193 53.9855 30.3392 54.1698 30.5155 54.2926C30.6939 54.4155 30.9267 54.4769 31.214 54.4769C31.5409 54.4769 31.8005 54.4076 31.9927 54.2689C32.1869 54.1282 32.284 53.9597 32.284 53.7636C32.284 53.6051 32.2285 53.4723 32.1175 53.3653C32.0066 53.2563 31.8362 53.1751 31.6063 53.1216L30.8454 52.9433C30.4274 52.8442 30.1202 52.6906 29.9241 52.4826C29.7299 52.2726 29.6328 52.01 29.6328 51.695C29.6328 51.4374 29.7051 51.2095 29.8498 51.0114C29.9964 50.8132 30.1955 50.6577 30.4472 50.5448C30.7008 50.4318 30.9881 50.3753 31.3091 50.3753C31.7609 50.3753 32.1155 50.4744 32.3731 50.6726C32.6327 50.8707 32.817 51.1322 32.926 51.4572ZM37.0915 53.1335V50.4348H37.7929V55H37.0915V54.2272H37.044C36.937 54.4591 36.7705 54.6562 36.5446 54.8187C36.3188 54.9792 36.0334 55.0594 35.6887 55.0594C35.4033 55.0594 35.1497 54.997 34.9278 54.8722C34.7059 54.7454 34.5315 54.5552 34.4047 54.3015C34.2779 54.0459 34.2145 53.724 34.2145 53.3356V50.4348H34.9159V53.288C34.9159 53.6209 35.009 53.8864 35.1953 54.0846C35.3835 54.2827 35.6233 54.3818 35.9146 54.3818C36.0889 54.3818 36.2663 54.3372 36.4466 54.248C36.6289 54.1589 36.7814 54.0222 36.9043 53.8379C37.0291 53.6536 37.0915 53.4188 37.0915 53.1335ZM41.0817 55.0951C40.6537 55.0951 40.2852 54.9941 39.9761 54.7919C39.667 54.5898 39.4292 54.3115 39.2628 53.9568C39.0963 53.6021 39.0131 53.1969 39.0131 52.7412C39.0131 52.2775 39.0983 51.8683 39.2687 51.5137C39.4411 51.157 39.6809 50.8786 39.988 50.6785C40.2971 50.4764 40.6577 50.3753 41.0698 50.3753C41.3908 50.3753 41.6801 50.4348 41.9377 50.5537C42.1953 50.6726 42.4063 50.839 42.5708 51.053C42.7352 51.267 42.8373 51.5166 42.8769 51.802H42.1755C42.122 51.5939 42.0031 51.4096 41.8188 51.2492C41.6365 51.0867 41.3908 51.0054 41.0817 51.0054C40.8083 51.0054 40.5685 51.0768 40.3625 51.2194C40.1584 51.3601 39.9989 51.5592 39.884 51.8168C39.771 52.0724 39.7145 52.3726 39.7145 52.7174C39.7145 53.0701 39.77 53.3772 39.881 53.6388C39.9939 53.9003 40.1524 54.1034 40.3565 54.248C40.5626 54.3927 40.8043 54.465 41.0817 54.465C41.264 54.465 41.4295 54.4333 41.5781 54.3699C41.7267 54.3065 41.8525 54.2154 41.9555 54.0965C42.0586 53.9776 42.1319 53.8349 42.1755 53.6685H42.8769C42.8373 53.938 42.7392 54.1807 42.5827 54.3967C42.4281 54.6106 42.223 54.7811 41.9674 54.9079C41.7138 55.0327 41.4186 55.0951 41.0817 55.0951ZM45.9064 55.0951C45.4784 55.0951 45.1098 54.9941 44.8007 54.7919C44.4916 54.5898 44.2539 54.3115 44.0874 53.9568C43.921 53.6021 43.8378 53.1969 43.8378 52.7412C43.8378 52.2775 43.923 51.8683 44.0934 51.5137C44.2658 51.157 44.5055 50.8786 44.8126 50.6785C45.1217 50.4764 45.4824 50.3753 45.8945 50.3753C46.2155 50.3753 46.5048 50.4348 46.7624 50.5537C47.0199 50.6726 47.231 50.839 47.3954 51.053C47.5599 51.267 47.6619 51.5166 47.7016 51.802H47.0001C46.9466 51.5939 46.8277 51.4096 46.6435 51.2492C46.4612 51.0867 46.2155 51.0054 45.9064 51.0054C45.6329 51.0054 45.3932 51.0768 45.1871 51.2194C44.983 51.3601 44.8235 51.5592 44.7086 51.8168C44.5957 52.0724 44.5392 52.3726 44.5392 52.7174C44.5392 53.0701 44.5947 53.3772 44.7056 53.6388C44.8186 53.9003 44.9771 54.1034 45.1812 54.248C45.3872 54.3927 45.629 54.465 45.9064 54.465C46.0887 54.465 46.2541 54.4333 46.4027 54.3699C46.5513 54.3065 46.6772 54.2154 46.7802 54.0965C46.8832 53.9776 46.9565 53.8349 47.0001 53.6685H47.7016C47.6619 53.938 47.5638 54.1807 47.4073 54.3967C47.2528 54.6106 47.0477 54.7811 46.7921 54.9079C46.5385 55.0327 46.2432 55.0951 45.9064 55.0951ZM50.7905 55.0951C50.3506 55.0951 49.9711 54.998 49.6521 54.8038C49.3351 54.6077 49.0904 54.3342 48.918 53.9835C48.7476 53.6308 48.6624 53.2207 48.6624 52.7531C48.6624 52.2854 48.7476 51.8733 48.918 51.5166C49.0904 51.158 49.3301 50.8786 49.6373 50.6785C49.9464 50.4764 50.307 50.3753 50.7191 50.3753C50.9569 50.3753 51.1917 50.415 51.4235 50.4942C51.6554 50.5735 51.8664 50.7023 52.0566 50.8806C52.2468 51.057 52.3984 51.2908 52.5113 51.582C52.6243 51.8733 52.6807 52.2319 52.6807 52.6579V52.9552H49.1617V52.3488H51.9674C51.9674 52.0913 51.9159 51.8614 51.8129 51.6593C51.7118 51.4572 51.5672 51.2977 51.3789 51.1808C51.1927 51.0639 50.9728 51.0054 50.7191 51.0054C50.4397 51.0054 50.198 51.0748 49.9939 51.2135C49.7918 51.3502 49.6363 51.5285 49.5273 51.7485C49.4183 51.9684 49.3638 52.2042 49.3638 52.4558V52.8601C49.3638 53.2048 49.4233 53.4971 49.5422 53.7368C49.663 53.9746 49.8305 54.1559 50.0445 54.2807C50.2584 54.4036 50.5071 54.465 50.7905 54.465C50.9747 54.465 51.1412 54.4393 51.2898 54.3877C51.4404 54.3342 51.5702 54.255 51.6791 54.15C51.7881 54.043 51.8723 53.9102 51.9318 53.7517L52.6094 53.9419C52.5381 54.1718 52.4182 54.3739 52.2498 54.5482C52.0814 54.7206 51.8733 54.8554 51.6256 54.9524C51.378 55.0476 51.0996 55.0951 50.7905 55.0951ZM57.1309 51.4572L56.5008 51.6355C56.4612 51.5305 56.4027 51.4285 56.3254 51.3294C56.2502 51.2283 56.1471 51.1451 56.0163 51.0797C55.8856 51.0144 55.7181 50.9817 55.5141 50.9817C55.2347 50.9817 55.0019 51.0461 54.8156 51.1748C54.6313 51.3017 54.5392 51.4631 54.5392 51.6593C54.5392 51.8337 54.6026 51.9714 54.7294 52.0724C54.8562 52.1735 55.0544 52.2577 55.3238 52.3251L56.0015 52.4915C56.4097 52.5906 56.7138 52.7422 56.9139 52.9462C57.1141 53.1484 57.2141 53.4089 57.2141 53.7279C57.2141 53.9895 57.1388 54.2233 56.9882 54.4293C56.8396 54.6354 56.6316 54.7979 56.3641 54.9168C56.0966 55.0357 55.7855 55.0951 55.4308 55.0951C54.9652 55.0951 54.5798 54.9941 54.2747 54.7919C53.9695 54.5898 53.7763 54.2946 53.6951 53.9062L54.3609 53.7398C54.4243 53.9855 54.5441 54.1698 54.7205 54.2926C54.8988 54.4155 55.1316 54.4769 55.4189 54.4769C55.7459 54.4769 56.0054 54.4076 56.1976 54.2689C56.3918 54.1282 56.4889 53.9597 56.4889 53.7636C56.4889 53.6051 56.4334 53.4723 56.3225 53.3653C56.2115 53.2563 56.0411 53.1751 55.8113 53.1216L55.0504 52.9433C54.6323 52.8442 54.3252 52.6906 54.129 52.4826C53.9349 52.2726 53.8378 52.01 53.8378 51.695C53.8378 51.4374 53.9101 51.2095 54.0547 51.0114C54.2014 50.8132 54.4005 50.6577 54.6521 50.5448C54.9058 50.4318 55.1931 50.3753 55.5141 50.3753C55.9658 50.3753 56.3205 50.4744 56.5781 50.6726C56.8376 50.8707 57.0219 51.1322 57.1309 51.4572ZM61.6531 51.4572L61.023 51.6355C60.9834 51.5305 60.925 51.4285 60.8477 51.3294C60.7724 51.2283 60.6693 51.1451 60.5386 51.0797C60.4078 51.0144 60.2404 50.9817 60.0363 50.9817C59.7569 50.9817 59.5241 51.0461 59.3378 51.1748C59.1536 51.3017 59.0614 51.4631 59.0614 51.6593C59.0614 51.8337 59.1248 51.9714 59.2516 52.0724C59.3784 52.1735 59.5766 52.2577 59.8461 52.3251L60.5237 52.4915C60.9319 52.5906 61.236 52.7422 61.4362 52.9462C61.6363 53.1484 61.7364 53.4089 61.7364 53.7279C61.7364 53.9895 61.6611 54.2233 61.5105 54.4293C61.3619 54.6354 61.1538 54.7979 60.8863 54.9168C60.6188 55.0357 60.3077 55.0951 59.9531 55.0951C59.4874 55.0951 59.102 54.9941 58.7969 54.7919C58.4918 54.5898 58.2986 54.2946 58.2173 53.9062L58.8831 53.7398C58.9465 53.9855 59.0664 54.1698 59.2427 54.2926C59.421 54.4155 59.6539 54.4769 59.9412 54.4769C60.2681 54.4769 60.5277 54.4076 60.7199 54.2689C60.9141 54.1282 61.0111 53.9597 61.0111 53.7636C61.0111 53.6051 60.9557 53.4723 60.8447 53.3653C60.7337 53.2563 60.5633 53.1751 60.3335 53.1216L59.5726 52.9433C59.1545 52.8442 58.8474 52.6906 58.6513 52.4826C58.4571 52.2726 58.36 52.01 58.36 51.695C58.36 51.4374 58.4323 51.2095 58.577 51.0114C58.7236 50.8132 58.9227 50.6577 59.1744 50.5448C59.428 50.4318 59.7153 50.3753 60.0363 50.3753C60.488 50.3753 60.8427 50.4744 61.1003 50.6726C61.3599 50.8707 61.5442 51.1322 61.6531 51.4572ZM64.9746 50.4348V51.0292H62.5137V50.4348H64.9746ZM63.2508 55V49.8047C63.2508 49.5431 63.3122 49.3252 63.435 49.1508C63.5579 48.9764 63.7174 48.8457 63.9136 48.7585C64.1097 48.6713 64.3168 48.6277 64.5347 48.6277C64.7071 48.6277 64.8478 48.6416 64.9568 48.6693C65.0658 48.6971 65.147 48.7228 65.2005 48.7466L64.9984 49.3529C64.9627 49.341 64.9132 49.3262 64.8498 49.3083C64.7884 49.2905 64.7071 49.2816 64.6061 49.2816C64.3742 49.2816 64.2068 49.34 64.1038 49.4569C64.0027 49.5739 63.9522 49.7452 63.9522 49.9711V55H63.2508ZM68.9841 53.1335V50.4348H69.6856V55H68.9841V54.2272H68.9366C68.8296 54.4591 68.6631 54.6562 68.4373 54.8187C68.2114 54.9792 67.9261 55.0594 67.5813 55.0594C67.296 55.0594 67.0423 54.997 66.8204 54.8722C66.5985 54.7454 66.4241 54.5552 66.2973 54.3015C66.1705 54.0459 66.1071 53.724 66.1071 53.3356V50.4348H66.8085V53.288C66.8085 53.6209 66.9017 53.8864 67.0879 54.0846C67.2761 54.2827 67.5159 54.3818 67.8072 54.3818C67.9815 54.3818 68.1589 54.3372 68.3392 54.248C68.5215 54.1589 68.674 54.0222 68.7969 53.8379C68.9217 53.6536 68.9841 53.4188 68.9841 53.1335ZM71.8212 48.913V55H71.1197V48.913H71.8212ZM73.9568 48.913V55H73.2553V48.913H73.9568ZM75.8427 56.712C75.7238 56.712 75.6178 56.702 75.5247 56.6822C75.4315 56.6644 75.3671 56.6466 75.3315 56.6287L75.5098 56.0105C75.6802 56.0541 75.8308 56.07 75.9616 56.0581C76.0923 56.0462 76.2083 55.9877 76.3093 55.8827C76.4124 55.7797 76.5065 55.6123 76.5917 55.3804L76.7224 55.0238L75.0343 50.4348H75.7951L77.0553 54.0727H77.1029L78.3631 50.4348H79.1239L77.1861 55.6658C77.0989 55.9016 76.9909 56.0967 76.8621 56.2513C76.7333 56.4078 76.5837 56.5237 76.4133 56.599C76.2449 56.6743 76.0547 56.712 75.8427 56.712ZM80.4244 55.0476C80.2777 55.0476 80.1519 54.995 80.0469 54.89C79.9419 54.785 79.8894 54.6592 79.8894 54.5126C79.8894 54.3659 79.9419 54.2401 80.0469 54.1351C80.1519 54.0301 80.2777 53.9776 80.4244 53.9776C80.571 53.9776 80.6968 54.0301 80.8018 54.1351C80.9068 54.2401 80.9593 54.3659 80.9593 54.5126C80.9593 54.6097 80.9346 54.6988 80.885 54.7801C80.8375 54.8613 80.7731 54.9267 80.6919 54.9762C80.6126 55.0238 80.5234 55.0476 80.4244 55.0476Z" fill="#4B5563"/>
<path d="M142.769 126C153.262 126 161.769 117.493 161.769 107C161.769 96.5066 153.262 88 142.769 88C132.275 88 123.769 96.5066 123.769 107C123.769 117.493 132.275 126 142.769 126Z" fill="#472F92" stroke="white" stroke-width="2"/>
<path d="M150.563 102.672L142.77 107.001M142.77 107.001L134.977 102.672M142.77 107.001L142.77 115.711M151.021 110.722L151.021 103.281C151.021 102.967 151.021 102.809 150.975 102.669C150.934 102.545 150.867 102.432 150.779 102.336C150.679 102.227 150.541 102.151 150.267 101.998L143.482 98.2294C143.222 98.0849 143.092 98.0127 142.955 97.9844C142.833 97.9593 142.707 97.9593 142.585 97.9844C142.448 98.0127 142.318 98.0849 142.058 98.2294L135.273 101.998C134.999 102.151 134.862 102.227 134.762 102.336C134.673 102.432 134.606 102.545 134.565 102.669C134.519 102.809 134.519 102.967 134.519 103.281L134.519 110.722C134.519 111.036 134.519 111.194 134.565 111.334C134.606 111.458 134.673 111.571 134.762 111.667C134.862 111.776 134.999 111.852 135.273 112.005L142.058 115.774C142.318 115.918 142.448 115.99 142.585 116.019C142.707 116.044 142.833 116.044 142.955 116.019C143.092 115.99 143.222 115.918 143.482 115.774L150.267 112.005C150.541 111.852 150.679 111.776 150.779 111.667C150.867 111.571 150.934 111.458 150.975 111.334C151.021 111.194 151.021 111.036 151.021 110.722Z" stroke="white" stroke-width="1.63901" stroke-linecap="round" stroke-linejoin="round"/>
<path d="M146.896 104.709L138.644 100.125" stroke="white" stroke-width="1.63901" stroke-linecap="round" stroke-linejoin="round"/>
<circle cx="70.7686" cy="222" r="17" fill="#E5E7EB"/>
<path d="M70.9886 231.46C76.2024 231.46 80.4486 227.214 80.4486 222C80.4486 216.786 76.2026 212.54 70.9886 212.54C65.7746 212.54 61.5286 216.786 61.5286 222C61.5286 227.214 65.7746 231.46 70.9886 231.46ZM66.1486 221.626C66.5005 221.274 67.0506 221.274 67.4026 221.626L69.4706 223.694L74.1344 219.03C74.4864 218.678 75.0364 218.678 75.3884 219.03C75.7404 219.382 75.7404 219.932 75.3884 220.284L70.1084 225.564C69.9324 225.74 69.7125 225.828 69.4924 225.828C69.2724 225.828 69.0525 225.74 68.8764 225.564L66.1484 222.88C65.8184 222.528 65.8184 221.978 66.1484 221.626L66.1486 221.626Z" fill="#4B5563"/>
<g filter="url(#filter0_d_615_877)">
<rect x="208.769" y="35" width="50" height="54" rx="4" fill="white"/>
<path d="M228.333 63.7213V61.5554L232.708 61.5554V63.721L228.333 63.7213ZM234.531 63.7213H239.204V61.5554H234.549L234.531 63.7213ZM238.658 47.0997C238.659 47.7501 238.917 48.3737 239.377 48.8335C239.837 49.2936 240.461 49.5523 241.111 49.5534L244.808 49.5534C244.794 49.3301 244.701 49.1194 244.545 48.959L239.237 43.6653C239.078 43.5083 238.866 43.4149 238.643 43.4029L238.658 47.0997ZM244.812 51.3762L244.812 69.4087C244.811 70.5203 244.369 71.5863 243.583 72.3722C242.796 73.1583 241.731 73.6003 240.619 73.6013L226.918 73.6013C225.806 73.6002 224.74 73.1583 223.954 72.3722C223.168 71.5863 222.726 70.5203 222.725 69.4087L222.725 47.5918C222.726 46.4801 223.168 45.4142 223.954 44.6283C224.74 43.8421 225.806 43.4002 226.918 43.3992L236.835 43.3992V47.0997C236.836 48.2335 237.287 49.3208 238.088 50.1227C238.89 50.9244 239.977 51.3753 241.111 51.3762L244.812 51.3762ZM241.027 60.644C241.027 60.4023 240.931 60.1705 240.76 59.9996C240.589 59.8285 240.358 59.7326 240.116 59.7326L227.421 59.7326C226.918 59.7326 226.51 60.1406 226.51 60.644V68.3002C226.51 68.5419 226.606 68.7739 226.777 68.9448C226.948 69.1157 227.179 69.2116 227.421 69.2116L240.116 69.2116C240.358 69.2116 240.589 69.1157 240.76 68.9448C240.931 68.7739 241.027 68.5419 241.027 68.3002L241.027 60.644ZM232.726 65.544L228.351 65.544V67.3998L232.726 67.3998V65.544ZM234.549 65.544V67.3998H239.204V65.544H234.549Z" fill="#6B7280"/>
<rect x="226.769" y="47" width="2" height="11" rx="1" fill="white"/>
<rect x="230.769" y="49" width="2" height="9" rx="1" fill="white"/>
<rect x="234.769" y="51" width="2" height="7" rx="1" fill="white"/>
<rect x="238.769" y="55" width="2" height="3" rx="1" fill="white"/>
<rect x="215.769" y="78" width="18" height="5" rx="2.5" fill="#E5E7EB"/>
<rect x="241.769" y="78" width="10" height="5" rx="2.5" fill="#E5E7EB"/>
</g>
<g filter="url(#filter1_d_615_877)">
<circle cx="126.769" cy="177" r="18" fill="white"/>
</g>
<g clip-path="url(#clip0_615_877)">
<path d="M126.345 180.084C129.727 179.354 132.089 176.929 132.089 174.186C132.089 173.925 132.068 173.666 132.026 173.414C132.024 173.407 132.023 173.402 132.023 173.396C131.526 170.392 128.231 168.064 124.251 168.064C119.93 168.064 116.415 170.81 116.415 174.186C116.415 176.926 118.777 179.352 122.157 180.086L122.734 180.213L122.736 182.493L123.89 181.702C123.894 181.697 123.899 181.695 123.904 181.692L126.204 180.114L126.345 180.084ZM127.854 173.612C128.288 173.612 128.64 173.964 128.64 174.397C128.64 174.831 128.288 175.183 127.854 175.183C127.419 175.183 127.067 174.831 127.067 174.397C127.067 173.964 127.419 173.612 127.854 173.612ZM120.65 175.183C120.217 175.183 119.865 174.831 119.865 174.397C119.865 173.964 120.217 173.612 120.65 173.612C121.085 173.612 121.436 173.964 121.436 174.397C121.436 174.831 121.085 175.183 120.65 175.183ZM124.252 175.183C123.818 175.183 123.466 174.831 123.466 174.397C123.466 173.964 123.818 173.612 124.252 173.612C124.686 173.612 125.038 173.964 125.038 174.397C125.038 174.831 124.686 175.183 124.252 175.183Z" fill="#6B7280"/>
<path d="M133.552 174.322C133.48 177.663 130.731 180.579 126.798 181.485L125.461 182.402C126.31 183.138 127.41 183.673 128.638 183.938L128.778 183.969L131.648 185.936V184.067L132.225 183.941C135.108 183.314 137.122 181.252 137.122 178.926C137.122 176.972 135.725 175.213 133.552 174.322L133.552 174.322Z" fill="#6B7280"/>
</g>
<defs>
<filter id="filter0_d_615_877" x="196.769" y="29" width="74" height="78" filterUnits="userSpaceOnUse" color-interpolation-filters="sRGB">
<feFlood flood-opacity="0" result="BackgroundImageFix"/>
<feColorMatrix in="SourceAlpha" type="matrix" values="0 0 0 0 0 0 0 0 0 0 0 0 0 0 0 0 0 0 127 0" result="hardAlpha"/>
<feOffset dy="6"/>
<feGaussianBlur stdDeviation="6"/>
<feColorMatrix type="matrix" values="0 0 0 0 0.898039 0 0 0 0 0.905882 0 0 0 0 0.921569 0 0 0 1 0"/>
<feBlend mode="normal" in2="BackgroundImageFix" result="effect1_dropShadow_615_877"/>
<feBlend mode="normal" in="SourceGraphic" in2="effect1_dropShadow_615_877" result="shape"/>
</filter>
<filter id="filter1_d_615_877" x="104.769" y="159" width="44" height="44" filterUnits="userSpaceOnUse" color-interpolation-filters="sRGB">
<feFlood flood-opacity="0" result="BackgroundImageFix"/>
<feColorMatrix in="SourceAlpha" type="matrix" values="0 0 0 0 0 0 0 0 0 0 0 0 0 0 0 0 0 0 127 0" result="hardAlpha"/>
<feOffset dy="4"/>
<feGaussianBlur stdDeviation="2"/>
<feComposite in2="hardAlpha" operator="out"/>
<feColorMatrix type="matrix" values="0 0 0 0 0.898039 0 0 0 0 0.905882 0 0 0 0 0.921569 0 0 0 1 0"/>
<feBlend mode="normal" in2="BackgroundImageFix" result="effect1_dropShadow_615_877"/>
<feBlend mode="normal" in="SourceGraphic" in2="effect1_dropShadow_615_877" result="shape"/>
</filter>
<clipPath id="clip0_615_877">
<rect width="22" height="22" fill="white" transform="translate(115.769 166)"/>
</clipPath>
</defs>
</svg>
