<svg width="176" height="168" viewBox="0 0 176 168" fill="none" xmlns="http://www.w3.org/2000/svg">
<circle cx="86.5001" cy="92.2016" r="75.1116" fill="url(#paint0_linear_655_832)" stroke="#E5E7EB" stroke-width="1.00821"/>
<g filter="url(#filter0_f_655_832)">
<ellipse cx="85.78" cy="92.5616" rx="25.9254" ry="26.2854" fill="#DFD5FC" fill-opacity="0.42"/>
</g>
<circle cx="86.5001" cy="92.2014" r="39.8243" stroke="#E5E7EB" stroke-width="1.00821"/>
<g filter="url(#filter1_d_655_832)">
<g filter="url(#filter2_b_655_832)">
<circle cx="86.5001" cy="92.2015" r="18.0037" fill="white" fill-opacity="0.24"/>
</g>
<circle cx="86.5003" cy="92.2013" r="14.403" fill="white"/>
<circle cx="86.5003" cy="92.2013" r="11.5224" fill="#472F92"/>
<path d="M92.1115 89.0841L86.5003 92.2014M86.5003 92.2014L80.8891 89.0841M86.5003 92.2014L86.5003 98.4727M92.4415 94.8806L92.4415 89.5222C92.4415 89.296 92.4415 89.1829 92.4082 89.082C92.3787 88.9928 92.3305 88.9109 92.2669 88.8418C92.1949 88.7637 92.096 88.7087 91.8983 88.5989L87.0133 85.885C86.826 85.781 86.7324 85.729 86.6333 85.7086C86.5456 85.6906 86.4551 85.6906 86.3673 85.7086C86.2682 85.729 86.1746 85.781 85.9874 85.885L81.1024 88.5989C80.9046 88.7088 80.8058 88.7637 80.7338 88.8418C80.6701 88.9109 80.6219 88.9928 80.5924 89.0821C80.5591 89.1829 80.5591 89.296 80.5591 89.5222L80.5591 94.8806C80.5591 95.1068 80.5591 95.2199 80.5924 95.3208C80.6219 95.41 80.6701 95.4919 80.7338 95.561C80.8058 95.6391 80.9046 95.6941 81.1024 95.8039L85.9874 98.5178C86.1746 98.6218 86.2682 98.6738 86.3673 98.6942C86.4551 98.7123 86.5456 98.7123 86.6333 98.6942C86.7324 98.6738 86.826 98.6218 87.0133 98.5178L91.8983 95.8039C92.096 95.6941 92.1949 95.6391 92.2669 95.561C92.3305 95.4919 92.3787 95.41 92.4082 95.3208C92.4415 95.2199 92.4415 95.1068 92.4415 94.8806Z" stroke="white" stroke-width="1.15224" stroke-linecap="round" stroke-linejoin="round"/>
<path d="M89.4709 90.5512L83.5297 87.2505" stroke="white" stroke-width="1.15224" stroke-linecap="round" stroke-linejoin="round"/>
</g>
<g clip-path="url(#clip0_655_832)">
<rect x="72.8187" y="1.46265" width="27.3657" height="27.3657" rx="13.6828" fill="white"/>
<circle cx="84.4569" cy="13.1001" r="11.6375" fill="white"/>
<path d="M86.5128 25.8611C85.2425 25.8611 84.2133 24.8253 84.2133 23.5469V18.2761H88.8102V23.5469C88.8102 24.8253 87.7809 25.8611 86.5106 25.8611H86.5128Z" fill="#F3F4F6"/>
<path d="M88.813 22.1918V20.1748H84.2161V22.1918C84.9261 22.4824 85.7035 22.6419 86.5156 22.6419C87.3278 22.6419 88.103 22.4824 88.813 22.1918Z" fill="#E5E7EB"/>
<path d="M86.5166 2.81763H86.5145C83.1313 2.81763 80.3888 5.57759 80.3888 8.98218V15.0222C80.3888 18.4268 83.1313 21.1867 86.5145 21.1867H86.5166C89.8997 21.1867 92.6423 18.4268 92.6423 15.0222V8.98218C92.6423 5.57759 89.8997 2.81763 86.5166 2.81763Z" fill="#F3F4F6"/>
<path d="M81.4005 14.6805C81.6131 13.7737 81.0551 12.8651 80.154 12.6511C79.2529 12.4371 78.3501 12.9987 78.1374 13.9055C77.9247 14.8123 78.4828 15.7209 79.3839 15.9349C80.2849 16.1489 81.1878 15.5873 81.4005 14.6805Z" fill="#F3F4F6"/>
<path d="M93.6414 15.9405C94.5425 15.7264 95.1006 14.8178 94.8879 13.911C94.6752 13.0042 93.7723 12.4426 92.8713 12.6567C91.9702 12.8707 91.4122 13.7793 91.6248 14.6861C91.8375 15.5929 92.7404 16.1545 93.6414 15.9405Z" fill="#F3F4F6"/>
<path d="M93.9888 4.1441C93.2201 3.71579 92.2495 3.92994 91.4504 4.17687C90.9509 0.107959 82.3911 3.17822 80.8928 5.34161C80.0003 6.2747 79.4553 8.16712 79.9677 9.42582C79.9894 9.47171 80.0155 9.51104 80.0437 9.546L80.3868 12.7277C81.0925 12.7277 81.4943 10.6233 81.6875 9.17015C83.0295 8.24142 84.619 6.45608 84.619 6.45608C84.5408 8.22612 88.3604 9.54164 91.3136 8.97785C91.496 10.4288 91.902 12.7277 92.6403 12.7277L93.1202 8.29605C93.8324 7.84152 94.3623 7.18158 94.5729 6.27252C94.853 5.52517 94.6685 4.55929 93.9888 4.1441Z" fill="#111827"/>
<path d="M76.4203 27.3881C76.4203 25.3995 78.0324 23.7874 80.021 23.7874H92.9837C94.9724 23.7874 96.5845 25.3995 96.5845 27.3881V29.5485H88.6628H76.4203V27.3881Z" fill="#E5E7EB"/>
<path d="M89.3829 23.7874H83.6217L85.062 25.2277V29.5485L86.5023 31.3489L87.9426 29.5485V25.2277L89.3829 23.7874Z" fill="#D1D5DB"/>
</g>
<rect x="72.3015" y="0.945426" width="28.4001" height="28.4001" rx="14.2001" stroke="#E5E7EB" stroke-width="1.03444"/>
<g clip-path="url(#clip1_655_832)">
<rect x="1.52429" y="56.1943" width="27.3657" height="27.3657" rx="13.6828" fill="white"/>
<circle cx="13.1626" cy="67.8318" r="11.6375" fill="white"/>
<path d="M18.0995 79.576C20.8349 79.576 23.0507 77.344 23.0507 74.5934C23.0507 74.4422 23.0402 74.2931 23.0277 74.1461C24.7428 73.3629 25.9383 71.6286 25.9383 69.6087C25.9383 67.7882 24.966 66.2029 23.5201 65.3316C23.7163 64.794 23.831 64.2166 23.831 63.6098C23.831 60.8571 21.6131 58.6272 18.8798 58.6272C17.4256 58.6272 16.1174 59.2592 15.2098 60.2629C14.3042 59.2571 12.996 58.6272 11.5397 58.6272C8.80435 58.6272 6.58852 60.8592 6.58852 63.6098C6.58852 64.2166 6.70119 64.794 6.89941 65.3316C5.4514 66.2008 4.4812 67.7882 4.4812 69.6087C4.4812 71.6286 5.67674 73.3629 7.39181 74.1461C7.37929 74.2931 7.36886 74.4422 7.36886 74.5934C7.36886 77.3461 9.58676 79.576 12.32 79.576H18.0995Z" fill="#111827"/>
<path d="M27.6758 86.3663C27.6758 90.5951 2.74268 90.5951 2.74268 86.3663C2.74268 82.1375 12.5803 80.4934 15.2093 80.4934C17.8382 80.4934 27.6758 82.1375 27.6758 86.3663Z" fill="#E5E7EB"/>
<path d="M13.0012 75.3806H17.4183V80.4451C17.4183 81.6713 16.4293 82.6687 15.2087 82.6687C13.9902 82.6687 12.9991 81.6734 12.9991 80.4451V75.3806H13.0012Z" fill="#E5E7EB"/>
<path d="M17.4162 79.1434V77.2053H12.9991V79.1434C13.6814 79.4226 14.4284 79.5759 15.2087 79.5759C15.989 79.5759 16.7339 79.4226 17.4162 79.1434Z" fill="#D1D5DB"/>
<path d="M15.2118 61.6277H15.2098C11.9591 61.6277 9.32385 64.2796 9.32385 67.551V72.2564C9.32385 75.5277 11.9591 78.1797 15.2098 78.1797H15.2118C18.4625 78.1797 21.0977 75.5277 21.0977 72.2564V67.551C21.0977 64.2796 18.4625 61.6277 15.2118 61.6277Z" fill="white"/>
<path d="M8.72888 67.5384C8.99178 67.6118 9.26718 67.6496 9.55303 67.6496C10.9593 67.6496 12.1465 66.7048 12.5221 65.4114C12.9185 65.5982 13.3608 65.7053 13.8261 65.7053C14.4541 65.7053 15.0404 65.5163 15.5286 65.1909C15.7623 67.068 17.3522 68.5231 19.2822 68.5231H21.69V67.2087C21.69 63.6077 18.7877 60.687 15.2094 60.687C11.6311 60.687 8.72888 63.6077 8.72888 67.2087V67.5405V67.5384Z" fill="#111827"/>
</g>
<rect x="1.00707" y="55.6771" width="28.4001" height="28.4001" rx="14.2001" stroke="#E5E7EB" stroke-width="1.03444"/>
<circle cx="29.6102" cy="77.0787" r="7.56157" fill="#E0F2FE" stroke="white" stroke-width="0.720149"/>
<g clip-path="url(#clip2_655_832)">
<path fill-rule="evenodd" clip-rule="evenodd" d="M26.684 80.6196V72.7617C26.684 72.5607 26.847 72.3977 27.048 72.3977H32.6591C33.013 72.3977 33.3524 72.5383 33.6028 72.7886C33.853 73.0389 33.9936 73.3783 33.9936 73.7323V80.5265C33.9936 81.2636 33.3961 81.861 32.6591 81.861H26.2582C26.2479 81.861 26.2376 81.8606 26.2275 81.8598C26.2086 81.8606 26.1897 81.861 26.1706 81.861C25.485 81.861 24.929 81.3052 24.929 80.6197V77.1294C24.929 76.9285 25.0921 76.7654 25.2929 76.7654C25.4938 76.7654 25.6569 76.9285 25.6569 77.1294V80.6197C25.6569 80.9032 25.8868 81.1331 26.1703 81.1331C26.4539 81.1331 26.684 80.9032 26.6841 80.6196L26.684 80.6196ZM27.3011 81.1331H32.659C32.9941 81.133 33.2657 80.8614 33.2657 80.5264V73.7322C33.2657 73.5713 33.2017 73.417 33.088 73.3033C32.9742 73.1895 32.82 73.1256 32.659 73.1256H27.412V80.6198L27.4119 80.6236C27.4115 80.7828 27.381 80.9348 27.326 81.0745L27.3248 81.0773C27.3174 81.096 27.3094 81.1149 27.3011 81.1331L27.3011 81.1331ZM30.2609 76.7653H30.2586C30.0577 76.7653 29.8946 76.9284 29.8946 77.1293V77.2886C29.4117 77.2967 29.0226 77.6907 29.0226 78.1756C29.0226 78.3431 29.069 78.4997 29.1496 78.6332L29.1615 78.6524L29.1741 78.6717L29.1863 78.6892L29.1989 78.7064L29.2118 78.7234L29.225 78.7398L29.2389 78.7562L29.2575 78.777L29.2787 78.7992L29.2977 78.8179L29.3187 78.8374L29.3425 78.8578L29.355 78.868L29.3742 78.883L29.3973 78.9L29.4226 78.9172L29.4454 78.9317L29.4728 78.948L29.4962 78.9607L29.5154 78.9706L29.5348 78.9799L29.555 78.989L29.5754 78.9977L29.5959 79.0058L29.6252 79.0162L29.6507 79.0244L29.6718 79.0305L29.6931 79.0362L29.7146 79.0413L29.7365 79.0459L29.7517 79.0488L29.7738 79.0525L29.796 79.0556L29.8184 79.0582L29.8411 79.0602L29.8638 79.0617L29.8867 79.0625L29.904 79.0628H30.6074C30.6809 79.0628 30.7427 79.1126 30.761 79.1803L30.7644 79.1958L30.7661 79.2097L30.7666 79.2221C30.7666 79.31 30.6953 79.3812 30.6074 79.3812H29.7502L29.7493 79.3669C29.7429 79.2544 29.6941 79.1795 29.6342 79.1298C29.5693 79.0694 29.4822 79.0325 29.3866 79.0325C29.3866 79.0325 29.0263 79.0554 29.0226 79.3916V79.3968C29.0226 79.5166 29.0523 79.6296 29.1045 79.7287L29.1149 79.7477L29.1258 79.7662L29.1372 79.7844L29.1491 79.8022L29.1642 79.823L29.1799 79.8433L29.1963 79.863L29.2148 79.8835L29.2356 79.9048L29.2541 79.9224L29.2733 79.9393L29.2931 79.9556L29.3136 79.9712L29.3346 79.9861L29.3562 80.0002L29.3804 80.0148L29.4031 80.0273L29.4262 80.0389L29.4497 80.0498L29.4738 80.0597L29.4942 80.0674L29.5148 80.0745L29.5358 80.0809L29.557 80.0867L29.5785 80.0919L29.6002 80.0964L29.6221 80.1003L29.6443 80.1034L29.6667 80.1059L29.6893 80.1077L29.7167 80.1089L29.7328 80.1092H29.8946V80.2684C29.8946 80.4693 30.0577 80.6324 30.2586 80.6324H30.2609C30.4607 80.6311 30.6226 80.4685 30.6226 80.2684V80.109L30.6303 80.1089L30.6531 80.1081L30.6813 80.1061L30.7093 80.1034L30.737 80.0998L30.7645 80.0953L30.7862 80.0912L30.8078 80.0865L30.8291 80.0813L30.8503 80.0755L30.8712 80.0693L30.8919 80.0625L30.9124 80.0554L30.9327 80.0477L30.9527 80.0395L30.9725 80.0308L30.992 80.0217L31.0112 80.0121L31.0303 80.0021L31.0489 79.9917L31.0674 79.9807L31.0855 79.9694L31.1034 79.9576L31.121 79.9455L31.1382 79.933L31.1551 79.92L31.1758 79.9032L31.196 79.8859L31.2156 79.8679L31.2347 79.8493L31.2532 79.8303L31.2712 79.8106L31.2901 79.7886L31.3067 79.7679L31.3228 79.7468L31.3382 79.7251L31.3531 79.7029L31.3672 79.6802L31.3808 79.657L31.3936 79.6333L31.4058 79.6093L31.4184 79.5822L31.429 79.5574L31.4388 79.5322L31.4479 79.5066L31.4563 79.4806L31.4623 79.4597L31.4679 79.4385L31.473 79.417L31.4776 79.3955L31.4816 79.3736L31.4851 79.3517L31.4881 79.3295L31.4905 79.3071L31.4923 79.2847L31.4939 79.2564L31.4945 79.2278L31.4942 79.1971L31.4923 79.1594L31.4897 79.1296L31.4866 79.1029L31.4822 79.0743L31.4751 79.0366L31.4688 79.009L31.4621 78.9836L31.4608 78.979C31.4584 78.9703 31.4557 78.9617 31.453 78.953L31.4441 78.9264L31.4341 78.8995L31.4243 78.8755L31.4227 78.8717C31.4142 78.8519 31.405 78.8324 31.395 78.8134L31.3811 78.7876L31.3743 78.7758C31.3617 78.7542 31.3483 78.7332 31.334 78.7128L31.3136 78.685L31.2946 78.661L31.2809 78.6446L31.264 78.6255L31.2542 78.6149C31.0924 78.4425 30.8625 78.3349 30.6074 78.3349H29.9098C29.8218 78.3349 29.7506 78.2636 29.7506 78.1757C29.7506 78.0878 29.8218 78.0165 29.9097 78.0164H30.7669L30.7678 78.0299C30.7739 78.1429 30.8229 78.218 30.8829 78.2678C30.9479 78.3283 31.035 78.3653 31.1306 78.3653C31.1306 78.3653 31.4945 78.3421 31.4945 78.0009C31.4945 77.6075 31.1756 77.2885 30.7821 77.2885H30.6226V77.1293C30.6226 76.9292 30.4607 76.7666 30.2609 76.7653Z" fill="#0BA5EC"/>
<path fill-rule="evenodd" clip-rule="evenodd" d="M28.5782 76.0375H32.0021C32.203 76.0375 32.3661 75.8743 32.3661 75.6735C32.3661 75.4726 32.203 75.3095 32.0021 75.3095H28.5782C28.3773 75.3095 28.2142 75.4726 28.2142 75.6735C28.2142 75.8743 28.3773 76.0375 28.5782 76.0375ZM28.5782 74.7231H29.9116C30.1125 74.7231 30.2756 74.56 30.2756 74.3591C30.2756 74.1582 30.1125 73.9951 29.9116 73.9951H28.5782C28.3773 73.9951 28.2142 74.1582 28.2142 74.3591C28.2142 74.56 28.3773 74.7231 28.5782 74.7231Z" fill="#0BA5EC"/>
</g>
<g clip-path="url(#clip3_655_832)">
<rect x="9.44543" y="124.608" width="27.3657" height="27.3657" rx="13.6828" fill="white"/>
<path d="M36.1232 153.823C36.1232 158.187 10.3964 158.187 10.3964 153.823C10.3964 149.46 20.5472 147.763 23.2598 147.763C25.9724 147.763 36.1232 149.46 36.1232 153.823Z" fill="#E5E7EB"/>
<path d="M20.9827 142.488H25.5404V147.713C25.5404 148.979 24.5199 150.008 23.2605 150.008C22.0032 150.008 20.9806 148.981 20.9806 147.713V142.488H20.9827Z" fill="#F3F4F6"/>
<path d="M25.5382 146.37V144.371H20.9806V146.37C21.6846 146.658 22.4553 146.817 23.2605 146.817C24.0657 146.817 24.8342 146.658 25.5382 146.37Z" fill="#E5E7EB"/>
<path d="M23.2625 128.297H23.2604C19.9062 128.297 17.1871 131.033 17.1871 134.409V139.264C17.1871 142.64 19.9062 145.376 23.2604 145.376H23.2625C26.6167 145.376 29.3358 142.64 29.3358 139.264V134.409C29.3358 131.033 26.6167 128.297 23.2625 128.297Z" fill="#F3F4F6"/>
<path d="M17.2254 140.075C18.0699 139.713 18.463 138.73 18.1033 137.88C17.7436 137.03 16.7674 136.635 15.9229 136.997C15.0784 137.359 14.6854 138.341 15.0451 139.191C15.4048 140.041 16.3809 140.437 17.2254 140.075Z" fill="#F3F4F6"/>
<path d="M31.4955 139.129C31.821 138.265 31.3891 137.299 30.5309 136.972C29.6726 136.644 28.713 137.079 28.3875 137.942C28.062 138.806 28.4938 139.772 29.3521 140.099C30.2104 140.427 31.17 139.992 31.4955 139.129Z" fill="#F3F4F6"/>
<path d="M31.0945 132.403L29.7231 131.605C30.4981 129.328 29.0083 127.352 29.0083 127.352C29.0083 127.352 28.0438 128.481 26.4033 127.781C19.7531 124.945 17.5034 128.109 16.8015 129.374C16.2719 130.327 16.5367 131.558 16.5367 131.558L15.2687 132.403L17.0276 137.054C17.0276 137.054 17.5055 137.611 17.822 132.437H28.8469C28.9567 136.649 29.3377 137.054 29.3377 137.054L31.0966 132.403H31.0945Z" fill="#111827"/>
</g>
<rect x="8.92821" y="124.091" width="28.4001" height="28.4001" rx="14.2001" stroke="#E5E7EB" stroke-width="1.03444"/>
<circle cx="37.5306" cy="145.493" r="7.56157" fill="#D5F0F2" stroke="white" stroke-width="0.720149"/>
<g clip-path="url(#clip4_655_832)">
<path d="M41.8567 144.616C41.8567 144.059 41.5779 143.529 41.1176 143.222L38.4818 141.465C38.3005 141.339 38.1052 141.255 37.8821 141.2C37.7705 141.186 37.6589 141.172 37.5334 141.172C37.1987 141.172 36.878 141.269 36.599 141.451L33.9491 143.222C33.4889 143.529 33.21 144.058 33.21 144.616L33.2101 149.121C33.2101 149.358 33.3914 149.539 33.6284 149.539C33.8655 149.539 34.0468 149.358 34.0468 149.121V144.616C34.0468 144.337 34.1863 144.072 34.4233 143.919L37.0732 142.148C37.352 141.966 37.7147 141.966 38.0076 142.148L40.6574 143.919C40.8945 144.072 41.034 144.337 41.034 144.616V149.107C41.034 149.33 41.1874 149.525 41.4105 149.553C41.5221 149.567 41.6476 149.525 41.7313 149.441C41.8149 149.358 41.8708 149.246 41.8708 149.135L41.8706 144.616L41.8567 144.616Z" fill="#2FB5C0"/>
<path d="M39.904 146.053C39.904 145.509 39.4717 145.077 38.9277 145.077H36.1385C35.5945 145.077 35.1622 145.509 35.1622 146.053V148.424C35.1622 148.968 35.5945 149.4 36.1385 149.4H38.9277C39.4717 149.4 39.904 148.968 39.904 148.424V146.053ZM38.9277 148.563H36.1385C36.0548 148.563 35.999 148.507 35.999 148.424V146.053C35.999 145.969 36.0547 145.913 36.1385 145.913H37.1147V146.722C37.1147 146.945 37.2821 147.155 37.5052 147.169C37.7423 147.182 37.9515 146.987 37.9515 146.75V145.913H38.9277C39.0113 145.913 39.0672 145.969 39.0672 146.053V148.424C39.0672 148.507 39.0114 148.563 38.9277 148.563H38.9277Z" fill="#2FB5C0"/>
</g>
<g clip-path="url(#clip5_655_832)">
<rect x="134.75" y="124.608" width="27.3657" height="27.3657" rx="13.6828" fill="white"/>
<circle cx="146.388" cy="136.246" r="11.6375" fill="white"/>
<path d="M142.049 131.001C142.049 131.001 136.367 148.431 141 151.898C145.634 155.366 155.967 154.488 157.457 150.225C159.121 145.461 157.719 139.475 155.59 131.278C153.46 123.082 142.049 131.001 142.049 131.001Z" fill="#111827"/>
<path d="M162.942 161.843C161.805 162.617 160.603 163.299 159.34 163.882C156.054 165.408 152.38 166.259 148.497 166.259C144.614 166.259 141.242 165.475 138.057 164.065C136.79 163.506 135.573 162.845 134.429 162.093C135.044 158.098 135.984 152.821 136.635 152.694C136.783 152.666 137.063 152.589 137.427 152.48C137.574 152.438 137.736 152.388 137.905 152.336C138.974 152.005 140.489 151.506 141.846 151.049C142.685 150.767 143.458 150.504 144.038 150.307C144.646 150.099 145.038 149.966 145.038 149.966H152.355C152.355 149.966 152.607 150.05 153.024 150.194C153.488 150.353 154.154 150.581 154.91 150.834C156.619 151.411 158.771 152.125 159.97 152.483C160.06 152.511 160.15 152.536 160.225 152.561C160.29 152.578 160.348 152.596 160.405 152.61C160.42 152.61 160.434 152.62 160.448 152.624C160.517 152.638 160.574 152.656 160.628 152.673C160.682 152.687 160.725 152.694 160.765 152.701C160.812 152.712 160.866 152.747 160.916 152.814C160.952 152.86 160.988 152.916 161.024 152.983C161.078 153.081 161.136 153.208 161.19 153.352C161.229 153.45 161.265 153.559 161.301 153.675C161.319 153.731 161.341 153.791 161.359 153.855C161.395 153.981 161.434 154.115 161.474 154.259C161.532 154.47 161.593 154.698 161.65 154.948C161.69 155.11 161.729 155.279 161.769 155.454C161.852 155.802 161.927 156.175 162.007 156.565C162.046 156.759 162.089 156.959 162.125 157.16C162.165 157.364 162.205 157.567 162.244 157.775C162.284 157.986 162.32 158.193 162.359 158.404C162.568 159.551 162.762 160.742 162.935 161.85L162.942 161.843Z" fill="#E5E7EB"/>
<path d="M156.154 132.315C156.154 136.063 152.811 139.104 148.686 139.104C144.561 139.104 141.218 136.063 141.218 132.315C141.218 128.566 144.561 125.526 148.686 125.526C152.811 125.526 156.154 128.566 156.154 132.315Z" fill="#111827"/>
<path d="M155.456 133.887C155.227 137.818 152.771 141.14 148.662 141.14C144.553 141.14 141.1 137.949 141.221 134.012C141.378 129.01 144.553 126.884 148.662 126.884C152.771 126.884 155.741 129.01 155.456 133.884V133.887Z" fill="#374151"/>
<path d="M145.292 144.685V152.342L148.686 162.865L152.081 152.499V143.177L145.292 144.685Z" fill="#F3F4F6"/>
<path d="M154.117 138.085C154.117 143.148 151.534 147.25 148.346 147.25C145.159 147.25 142.576 143.148 142.576 138.085C142.576 133.023 145.159 128.92 148.346 128.92C151.534 128.92 154.117 133.023 154.117 138.085Z" fill="white"/>
<path d="M145.292 130.552C145.292 130.552 145.965 132.675 150.23 134.182C153.084 135.191 153.807 137.746 153.807 137.746C153.807 137.746 156.541 131.093 152.918 128.758C149.47 126.539 145.853 128.089 145.853 128.089L145.292 130.552Z" fill="#111827"/>
<path d="M143.221 138.622C143.387 140.307 142.93 141.736 142.2 141.816C141.469 141.895 140.739 140.592 140.573 138.907C140.407 137.221 140.864 135.792 141.594 135.713C142.324 135.633 143.054 136.936 143.221 138.622Z" fill="#374151"/>
<path d="M153.473 138.622C153.306 140.307 153.763 141.736 154.493 141.816C155.224 141.895 155.954 140.592 156.12 138.907C156.286 137.221 155.829 135.792 155.099 135.713C154.369 135.633 153.639 136.936 153.473 138.622Z" fill="#374151"/>
<path d="M148.685 162.865L145.141 149.287L141.896 150.69L143.93 154.453L143.14 155.021L148.685 162.865Z" fill="#E5E7EB"/>
<path d="M148.686 162.865L152.023 149.287L154.796 150.473L153.029 154.35L153.911 155.021L148.686 162.865Z" fill="#E5E7EB"/>
<path d="M154.117 141.14C154.117 141.14 153.417 144.352 149.365 144.535" stroke="#374151" stroke-width="0.636181" stroke-miterlimit="10"/>
<path d="M150.043 144.535C150.043 144.911 149.585 145.214 149.025 145.214C148.464 145.214 148.006 144.911 148.006 144.535C148.006 144.159 148.464 143.856 149.025 143.856C149.585 143.856 150.043 144.159 150.043 144.535Z" fill="#374151"/>
<path d="M151.847 148.608L152.759 149.666L152.303 154.039L150.043 152.117L151.847 148.608Z" fill="#D1D5DB"/>
<path d="M145.068 148.608L143.933 149.666L144.503 154.039L147.327 152.117L145.068 148.608Z" fill="#D1D5DB"/>
<path d="M142.62 136.384C142.62 136.384 144.737 134.903 145.264 132.871C145.795 130.839 146.649 130.351 146.649 130.351L146.539 127.562C146.539 127.562 142.666 128.378 142.192 131.975C141.718 135.572 141.957 135.904 141.957 135.904L142.62 136.388V136.384Z" fill="#111827"/>
<path d="M142.536 138.941C142.666 140.438 142.491 141.725 141.758 141.814C141.022 141.904 140.005 140.762 139.874 139.266C139.744 137.77 140.512 136.483 141.248 136.393C141.984 136.304 142.405 137.445 142.536 138.941Z" fill="#9CA3AF"/>
<path d="M154.234 138.772C154.103 140.268 154.275 141.555 155.011 141.645C155.747 141.734 156.764 140.593 156.895 139.096C157.025 137.6 156.254 136.313 155.521 136.223C154.785 136.134 154.364 137.276 154.234 138.772Z" fill="#9CA3AF"/>
</g>
<rect x="134.233" y="124.091" width="28.4001" height="28.4001" rx="14.2001" stroke="#E5E7EB" stroke-width="1.03444"/>
<circle cx="162.834" cy="145.492" r="7.56157" fill="#F3F4F6" stroke="white" stroke-width="0.720149"/>
<path d="M162.034 148.23L163.367 149.615C163.461 149.74 163.617 149.813 163.773 149.813C163.95 149.813 164.117 149.719 164.211 149.574C164.232 149.542 164.252 149.501 164.263 149.459L164.607 148.23H165.388C166.304 148.23 167.054 147.48 167.054 146.563V143.126C167.054 142.209 166.304 141.459 165.388 141.459H160.284C159.367 141.459 158.617 142.209 158.617 143.126V146.563C158.617 147.48 159.367 148.23 160.284 148.23L162.034 148.23ZM159.451 146.563V143.126C159.451 142.668 159.826 142.293 160.284 142.293H165.388C165.846 142.293 166.221 142.668 166.221 143.126V146.563C166.221 147.022 165.846 147.397 165.388 147.397H164.294C164.107 147.397 163.94 147.522 163.898 147.699L163.627 148.667L162.523 147.522C162.44 147.438 162.336 147.397 162.221 147.397H160.284C159.826 147.397 159.451 147.022 159.451 146.563L159.451 146.563Z" fill="#4B5563"/>
<path d="M160.335 144.022H165.23C165.46 144.022 165.647 143.834 165.647 143.605C165.647 143.376 165.46 143.188 165.23 143.188H160.335C160.106 143.188 159.918 143.376 159.918 143.605C159.918 143.834 160.106 144.022 160.335 144.022Z" fill="#4B5563"/>
<path d="M160.335 145.272H165.23C165.46 145.272 165.647 145.084 165.647 144.855C165.647 144.626 165.46 144.438 165.23 144.438H160.335C160.106 144.438 159.918 144.626 159.918 144.855C159.918 145.084 160.106 145.272 160.335 145.272Z" fill="#4B5563"/>
<path d="M163.272 146.418C163.501 146.418 163.689 146.23 163.689 146.001C163.689 145.772 163.501 145.584 163.272 145.584L160.335 145.584C160.106 145.584 159.918 145.772 159.918 146.001C159.918 146.23 160.106 146.418 160.335 146.418L163.272 146.418Z" fill="#4B5563"/>
<g clip-path="url(#clip6_655_832)">
<rect x="72.8196" y="115.967" width="27.3657" height="27.3657" rx="13.6828" fill="white"/>
<circle cx="84.4578" cy="127.604" r="11.6375" fill="white"/>
<path d="M80.36 121.675C80.36 121.675 75.0204 133.649 79.3742 136.031C83.728 138.413 93.4377 137.812 94.8375 134.881C96.4015 131.608 95.0839 127.494 93.0828 121.862C91.0784 116.234 80.36 121.672 80.36 121.672V121.675Z" fill="#111827"/>
<path d="M99.6287 150.936C98.5904 151.658 97.4929 152.296 96.3396 152.841C93.3396 154.267 89.9814 155.063 86.4393 155.063C82.8971 155.063 79.815 154.33 76.907 153.012C75.7504 152.49 74.6398 151.872 73.5948 151.169C74.1567 147.436 75.0143 142.504 75.6091 142.386C75.7438 142.359 76.0001 142.287 76.332 142.185C76.4667 142.146 76.6146 142.1 76.769 142.051C77.7449 141.742 79.1282 141.275 80.367 140.848C81.1326 140.585 81.8391 140.339 82.3681 140.155C82.9234 139.961 83.2816 139.836 83.2816 139.836H89.1041C89.1041 139.836 95.8204 141.853 96.9146 142.189C96.9967 142.215 97.0789 142.238 97.1479 142.261C97.207 142.277 97.2596 142.294 97.3122 142.307C97.3253 142.307 97.3385 142.317 97.3516 142.32C97.414 142.333 97.4666 142.35 97.5159 142.366C97.5652 142.379 97.6046 142.386 97.6408 142.392C97.6868 142.402 97.7328 142.435 97.7788 142.497C97.8116 142.54 97.8445 142.593 97.8774 142.655C97.9266 142.747 97.9792 142.865 98.0285 143C98.0646 143.092 98.0975 143.194 98.1336 143.303C98.1501 143.355 98.1698 143.411 98.1862 143.47C98.2191 143.588 98.2552 143.713 98.2914 143.848C98.3439 144.045 98.3965 144.259 98.4524 144.492C98.4885 144.643 98.528 144.801 98.5608 144.965C98.6364 145.29 98.7054 145.639 98.7777 146.003C98.8138 146.184 98.8533 146.372 98.8861 146.559C98.9223 146.749 98.9584 146.94 98.9913 147.134C99.0274 147.331 99.0603 147.525 99.0931 147.722C99.2837 148.793 99.4611 149.907 99.6189 150.942L99.6287 150.936Z" fill="#E5E7EB"/>
<path d="M93.4076 123.834C93.4076 127.383 90.401 130.261 86.6913 130.261C82.9815 130.261 79.975 127.383 79.975 123.834C79.975 120.285 82.9815 117.407 86.6913 117.407C90.401 117.407 93.4076 120.285 93.4076 123.834Z" fill="#111827"/>
<path d="M83.2887 133.787V140.828C83.2887 140.828 84.1397 142.599 86.4957 142.599C88.8517 142.599 89.6567 140.973 89.6567 140.973V132.403L83.2887 133.787Z" fill="#E5E7EB"/>
<path d="M91.9606 129.252C91.9606 133.981 89.5028 137.812 86.4699 137.812C83.4371 137.812 80.9792 133.981 80.9792 129.252C80.9792 124.524 83.4371 120.693 86.4699 120.693C89.5028 120.693 91.9606 124.524 91.9606 129.252Z" fill="white"/>
<path d="M87.3752 119.608C87.3752 119.608 87.5198 122.966 84.993 124.629C82.4661 126.288 81.2996 126.831 80.9973 128.674C80.9973 128.674 79.3248 123.436 82.0685 120.693C84.4508 118.31 87.3785 119.608 87.3785 119.608H87.3752Z" fill="#111827"/>
<path d="M86.4731 121.994C86.4731 121.994 86.9069 123.965 89.6571 125.365C91.4972 126.302 91.9638 128.674 91.9638 128.674C91.9638 128.674 93.6725 122.861 91.3395 120.693C89.1183 118.632 86.8379 119.707 86.8379 119.707L86.4764 121.994H86.4731Z" fill="#111827"/>
<path d="M77.014 147.348C77.014 147.841 77.014 148.347 77.014 148.859C77.0074 150.219 76.991 151.632 76.9154 153.012C75.7588 152.49 74.6482 151.872 73.6033 151.169C74.1652 147.436 75.0228 142.504 75.6175 142.386C75.7522 142.36 76.0085 142.287 76.3404 142.186C76.4028 142.363 76.4587 142.55 76.5113 142.747C76.8333 143.92 77.014 145.429 77.014 147.348Z" fill="#FF5B33"/>
<path d="M99.6283 150.936C98.59 151.659 97.4925 152.296 96.3392 152.841C96.2472 150.995 96.2472 149.092 96.2472 147.351C96.2472 145.11 96.4936 143.427 96.9208 142.189C97.0029 142.215 97.0851 142.238 97.1541 142.261C97.2132 142.277 97.2658 142.294 97.3184 142.307C97.3315 142.307 97.3447 142.317 97.3578 142.32C97.4202 142.333 97.4728 142.35 97.5221 142.366C97.5714 142.379 97.6108 142.386 97.647 142.392C97.693 142.402 97.739 142.435 97.785 142.498C97.8178 142.54 97.8507 142.593 97.8836 142.655C97.9328 142.747 97.9854 142.866 98.0347 143C98.0708 143.092 98.1037 143.194 98.1398 143.303C98.1563 143.355 98.176 143.411 98.1924 143.47C98.2286 143.588 98.2647 143.713 98.2976 143.848C98.3501 144.045 98.4027 144.259 98.4586 144.492C98.498 144.643 98.5342 144.801 98.567 144.965C98.6426 145.291 98.7116 145.639 98.7839 146.004C98.8233 146.184 98.8595 146.372 98.8923 146.559C98.9285 146.749 98.9646 146.94 98.9975 147.134C99.0336 147.331 99.0665 147.525 99.0993 147.722C99.2899 148.793 99.4673 149.907 99.6251 150.942L99.6283 150.936Z" fill="#FF5B33"/>
</g>
<rect x="72.3024" y="115.449" width="28.4001" height="28.4001" rx="14.2001" stroke="#E5E7EB" stroke-width="1.03444"/>
<circle cx="100.905" cy="136.131" r="7.56157" fill="#D8EDDF" stroke="white" stroke-width="0.720149"/>
<g clip-path="url(#clip7_655_832)">
<path d="M104.818 138.267V137.898C104.818 137.138 104.192 136.512 103.432 136.512H101.107V135.182L102.828 134.4C102.951 134.344 103.04 134.21 103.04 134.076L103.041 131.539C103.041 131.393 102.962 131.27 102.828 131.214L100.895 130.331C100.794 130.287 100.693 130.287 100.593 130.331L98.6591 131.214C98.5361 131.27 98.4467 131.404 98.4467 131.539V134.076C98.4467 134.221 98.525 134.344 98.6591 134.4L100.38 135.182V136.512H98.0668C97.3067 136.512 96.6808 137.138 96.6808 137.898V138.267C96.1443 138.312 95.7084 138.759 95.7084 139.318V139.854C95.7084 140.436 96.189 140.916 96.7702 140.916H97.3067C97.888 140.916 98.3686 140.436 98.3686 139.854V139.318C98.3686 138.759 97.9438 138.312 97.3962 138.267V137.898C97.3962 137.53 97.698 137.228 98.0668 137.228H100.392V138.256C99.8553 138.301 99.4194 138.748 99.4194 139.307L99.4193 139.854C99.4193 140.436 99.8999 140.916 100.481 140.916H101.018C101.599 140.916 102.079 140.436 102.079 139.854V139.318C102.079 138.759 101.655 138.312 101.107 138.267V137.239L103.432 137.239C103.801 137.239 104.103 137.541 104.103 137.91V138.278C103.566 138.323 103.13 138.77 103.13 139.329V139.854C103.13 140.436 103.611 140.916 104.192 140.916H104.729C105.31 140.916 105.79 140.436 105.79 139.854V139.318C105.79 138.759 105.366 138.312 104.818 138.267L104.818 138.267ZM101.107 134.4V132.656L102.314 132.097V133.841L101.107 134.4ZM100.749 131.058L101.811 131.538L100.749 132.03L99.6875 131.55L100.749 131.058ZM99.1845 133.841V132.097L100.392 132.645V134.389L99.1845 133.841ZM97.6532 139.318V139.854C97.6532 140.044 97.4967 140.19 97.3179 140.19H96.7814C96.5914 140.19 96.4461 140.033 96.4461 139.854V139.318C96.4461 139.128 96.6026 138.983 96.7814 138.983H97.3179C97.4967 138.971 97.6532 139.128 97.6532 139.318ZM101.364 139.318V139.854C101.364 140.044 101.208 140.19 101.029 140.19H100.492C100.302 140.19 100.157 140.033 100.157 139.854V139.318C100.157 139.128 100.313 138.983 100.492 138.983H101.029C101.208 138.971 101.364 139.128 101.364 139.318ZM105.064 139.854C105.064 140.044 104.907 140.19 104.728 140.19H104.192C104.002 140.19 103.857 140.033 103.857 139.854V139.318C103.857 139.128 104.013 138.983 104.192 138.983H104.728C104.918 138.983 105.064 139.139 105.064 139.318V139.854Z" fill="#2C9A54"/>
</g>
<circle cx="100.904" cy="22.3468" r="7.56157" fill="#EDEAF4" stroke="white" stroke-width="0.720149"/>
<g clip-path="url(#clip8_655_832)">
<path d="M100.839 18.0016L100.839 18.0017L102.729 19.8921L102.729 19.8922C102.795 19.9584 102.831 20.0481 102.831 20.1414V20.1413H102.795L102.831 20.1415L100.839 18.0016ZM100.839 18.0016C100.772 17.9359 100.683 17.8993 100.589 17.8998M100.839 18.0016L100.589 17.8998M100.589 17.8998H100.59V17.9358L100.589 17.8998C100.589 17.8998 100.589 17.8998 100.589 17.8998ZM96.6782 26.5731C96.56 26.4549 96.4937 26.2946 96.4937 26.1275V18.5659C96.4937 18.3988 96.56 18.2386 96.6782 18.1203V26.5731ZM96.6782 26.5731C96.7964 26.6912 96.9566 26.7576 97.1238 26.7576M96.6782 26.5731L97.1238 26.7576M97.1238 26.7576H102.165M97.1238 26.7576H102.165M102.165 26.7576C102.332 26.7576 102.492 26.6912 102.61 26.5731L102.165 26.7576ZM102.704 19.9176L100.813 18.0272L102.704 19.9176ZM100.905 20.4923H102.129V26.0915L97.1598 26.0915V18.6019H100.238V19.8262C100.238 20.0029 100.309 20.1722 100.433 20.2972L100.434 20.2972C100.558 20.4221 100.728 20.4923 100.905 20.4923ZM100.941 19.7902V19.0971L101.634 19.7902H100.941Z" fill="#472F92" stroke="#472F92" stroke-width="0.0720149"/>
<path d="M100.905 24.5161C100.828 24.5157 100.754 24.5405 100.693 24.586M100.905 24.5161C100.905 24.5161 100.905 24.5161 100.905 24.5161L100.905 24.5521V24.5161H100.905ZM100.905 24.5161H101.184M100.693 24.586L101.184 24.5521L101.184 24.5459L101.184 24.5161M100.693 24.586L100.594 24.3879L100.584 24.368H100.582M100.693 24.586L100.582 24.368M101.184 24.5161H101.22H101.22V24.5458L101.524 24.6853C101.461 24.5767 101.345 24.5098 101.22 24.5098H101.184L101.184 24.5161ZM100.582 24.368C100.552 24.3188 100.51 24.2778 100.46 24.2486L100.46 24.2486C100.404 24.216 100.34 24.1994 100.275 24.201M100.582 24.368L101.524 24.6853L101.493 24.7033M100.275 24.201C100.275 24.201 100.276 24.201 100.276 24.201L100.275 24.237L100.274 24.201C100.274 24.201 100.274 24.201 100.275 24.201ZM100.275 24.201C100.012 24.1931 99.7579 24.2938 99.5722 24.4796L99.5722 24.4796C99.3863 24.6655 99.2855 24.92 99.2935 25.1828C99.2937 25.2757 99.3307 25.3648 99.3964 25.4304C99.4622 25.4962 99.5515 25.5333 99.6446 25.5333C99.7377 25.5333 99.827 25.4963 99.8928 25.4304C99.9586 25.3646 99.9957 25.2753 99.9957 25.1822H99.9957L99.9956 25.1801C99.9905 25.0952 100.024 25.0136 100.086 24.9573M100.086 24.9573L100.277 25.3371L100.3 25.3816L100.302 25.3791M100.086 24.9573C100.095 24.9491 100.104 24.9414 100.115 24.9343L99.4219 25.405C99.4809 25.464 99.5611 25.4973 99.6446 25.4973C99.7281 25.4973 99.8083 25.464 99.8674 25.405C99.9264 25.3459 99.9597 25.2657 99.9597 25.1822C99.9537 25.083 99.9948 24.9877 100.069 24.924L100.086 24.9573ZM100.302 25.3791C100.356 25.4571 100.439 25.5107 100.533 25.5265L100.533 25.527H100.539H100.59M100.302 25.3791C100.293 25.3658 100.285 25.3518 100.277 25.3371C100.277 25.337 100.277 25.3369 100.277 25.3369L100.309 25.3209L100.539 25.491C100.452 25.4764 100.376 25.4261 100.328 25.3532L100.302 25.3791ZM100.59 25.527H100.59V25.491L100.59 25.527C100.59 25.527 100.59 25.527 100.59 25.527ZM100.59 25.527C100.683 25.5275 100.773 25.4909 100.839 25.4252L100.839 25.4249L101.049 25.2119H101.22C101.345 25.2119 101.461 25.145 101.524 25.0364C101.524 25.0364 101.524 25.0364 101.524 25.0364L101.493 25.0184M101.493 25.0184C101.549 24.9209 101.549 24.8008 101.493 24.7033M101.493 25.0184C101.437 25.1158 101.332 25.1759 101.22 25.1759H101.034L101.493 25.0184ZM101.493 24.7033C101.443 24.6164 101.354 24.5592 101.256 24.5479L101.493 24.7033ZM100.561 24.404C100.534 24.3522 100.493 24.3093 100.442 24.2797L100.561 24.404Z" fill="#472F92" stroke="#472F92" stroke-width="0.0720149"/>
<path d="M99.3291 20.8075H98.0688C97.9435 20.8075 97.8275 20.7406 97.7648 20.632L99.3291 20.8075ZM99.3291 20.8075C99.4545 20.8075 99.5705 20.7406 99.6331 20.6319M99.3291 20.8075L99.6331 20.6319M99.6331 20.6319C99.6958 20.5234 99.6958 20.3895 99.6331 20.2809L99.6019 20.614L99.6331 20.632C99.6331 20.632 99.6331 20.632 99.6331 20.6319ZM97.7648 20.2809C97.8275 20.1723 97.9434 20.1053 98.0688 20.1053H99.3291C99.4545 20.1053 99.5704 20.1723 99.6331 20.2809L97.7648 20.2809ZM97.7648 20.2809C97.7648 20.2809 97.7648 20.2809 97.7648 20.2809L97.796 20.2989L97.7648 20.2809ZM97.7648 20.2809C97.7021 20.3895 97.7021 20.5234 97.7648 20.632L97.7648 20.2809Z" fill="#472F92" stroke="#472F92" stroke-width="0.0720149"/>
<path d="M101.524 21.5411C101.461 21.4325 101.345 21.3656 101.219 21.3656H98.0688L101.492 21.8742L101.523 21.8922C101.586 21.7836 101.586 21.6497 101.524 21.5411ZM101.524 21.5411L101.492 21.5591L101.523 21.5411C101.524 21.5411 101.524 21.5411 101.524 21.5411ZM97.7648 21.8922C97.7021 21.7836 97.7021 21.6498 97.7648 21.5412L97.7648 21.8922ZM97.7648 21.8922L97.796 21.8742L97.7648 21.8922C97.7648 21.8922 97.7648 21.8922 97.7648 21.8922Z" fill="#472F92" stroke="#472F92" stroke-width="0.0720149"/>
<path d="M101.524 22.8014C101.461 22.6928 101.345 22.6259 101.219 22.6259H98.0688L101.492 23.1345L101.523 23.1525C101.586 23.0439 101.586 22.91 101.524 22.8014ZM101.524 22.8014L101.492 22.8194L101.523 22.8014C101.524 22.8014 101.524 22.8014 101.524 22.8014ZM97.7648 23.1525C97.7021 23.0439 97.7021 22.91 97.7648 22.8014L97.7648 23.1525ZM97.7648 23.1525L97.796 23.1345L97.7648 23.1525C97.7648 23.1525 97.7648 23.1525 97.7648 23.1525Z" fill="#472F92" stroke="#472F92" stroke-width="0.0720149"/>
<path d="M99.003 24.0617C98.9403 23.953 98.8244 23.8861 98.699 23.8861H98.0688L97.796 24.3947C97.8522 24.4922 97.9563 24.5522 98.0688 24.5522H98.699C98.8115 24.5522 98.9156 24.4922 98.9718 24.3947L99.003 24.4127C99.003 24.4127 99.003 24.4127 99.003 24.4127C99.0657 24.3041 99.0657 24.1702 99.003 24.0617ZM99.003 24.0617L98.9718 24.0797L99.003 24.0616C99.003 24.0616 99.003 24.0617 99.003 24.0617ZM97.7648 24.0617C97.7021 24.1703 97.7021 24.3041 97.7648 24.4127L97.796 24.0797L97.7648 24.0616C97.7648 24.0616 97.7648 24.0617 97.7648 24.0617Z" fill="#472F92" stroke="#472F92" stroke-width="0.0720149"/>
<path d="M103.584 19.9853L103.584 19.9852C103.709 19.8603 103.878 19.7902 104.055 19.7902H104.685C104.862 19.7902 105.031 19.8603 105.156 19.9852L105.156 19.9853C105.281 20.1102 105.351 20.2796 105.351 20.4563V25.1823V25.1826C105.351 25.2514 105.33 25.3184 105.292 25.3756C105.292 25.3756 105.292 25.3756 105.292 25.3757L104.721 26.2329V26.4425C104.721 26.5679 104.654 26.6839 104.546 26.7465C104.546 26.7465 104.546 26.7466 104.546 26.7466L104.528 26.7154C104.43 26.7717 104.31 26.7717 104.213 26.7154L103.584 19.9853ZM103.584 19.9853C103.459 20.1102 103.389 20.2796 103.389 20.4563L103.389 25.1823L103.389 25.1826C103.389 25.2514 103.41 25.3185 103.449 25.3756C103.449 25.3756 103.449 25.3756 103.449 25.3757L104.019 26.2329V26.4425C104.019 26.5679 104.086 26.6839 104.195 26.7465L103.584 19.9853ZM104.091 20.4923H104.649V21.0504H104.091V20.4923ZM104.091 25.0769V21.7526H104.649V25.0769L104.37 25.4954L104.091 25.0769Z" fill="#472F92" stroke="#472F92" stroke-width="0.0720149"/>
</g>
<g clip-path="url(#clip9_655_832)">
<rect x="139.071" y="56.1941" width="27.3657" height="27.3657" rx="13.6828" fill="white"/>
<path d="M150.658 60.1113C150.389 59.6924 150.044 59.0927 149.648 58.7909C149.252 58.491 148.736 58.3144 148.254 58.4315C147.801 58.5403 147.434 58.8935 147.222 59.3104C147.01 59.7273 146.936 60.2017 146.918 60.6699C146.883 61.5386 147.03 62.4134 147.342 63.2225C146.867 62.5325 145.793 62.4175 145.118 62.9083C144.44 63.3991 144.191 64.3602 144.43 65.1631C144.671 65.9661 145.322 67.4323 146.932 67.4323H158.543C159.686 67.4323 160.204 65.7258 160.22 65.3007C160.292 63.4463 159.274 63.1876 158.6 63.0356C159.196 62.4955 159.719 61.8753 160.149 61.1956C160.5 60.6432 160.798 59.9943 160.663 59.3535C160.549 58.8114 160.129 58.3699 159.639 58.1173C159.147 57.8647 158.59 57.7784 158.041 57.7394C155.403 57.5526 152.705 58.4171 150.66 60.1072" fill="#111827"/>
<path d="M164.977 84.5119C164.977 88.6478 140.592 88.6478 140.592 84.5119C140.592 80.376 150.213 78.7681 152.785 78.7681C155.356 78.7681 164.977 80.376 164.977 84.5119Z" fill="#E5E7EB"/>
<path d="M152.784 80.8934C151.59 80.8934 150.623 79.92 150.623 78.7186V73.7654H154.943V78.7186C154.943 79.92 153.976 80.8934 152.782 80.8934H152.784Z" fill="#F3F4F6"/>
<path d="M154.943 77.4475V75.552H150.623V77.4475C151.291 77.7206 152.021 77.8705 152.784 77.8705C153.547 77.8705 154.276 77.7206 154.943 77.4475Z" fill="#E5E7EB"/>
<path d="M152.785 76.503C149.605 76.503 147.028 73.9093 147.028 70.7098V66.1098C147.028 62.9103 149.605 60.3167 152.785 60.3167C155.964 60.3167 158.541 62.9103 158.541 66.1098V70.7098C158.541 73.9093 155.964 76.503 152.785 76.503Z" fill="#F3F4F6"/>
<path d="M146.447 71.6114C147.317 71.6114 148.022 70.9016 148.022 70.026C148.022 69.1505 147.317 68.4407 146.447 68.4407C145.577 68.4407 144.871 69.1505 144.871 70.026C144.871 70.9016 145.577 71.6114 146.447 71.6114Z" fill="#F3F4F6"/>
<path d="M159.123 71.6114C159.993 71.6114 160.699 70.9016 160.699 70.026C160.699 69.1505 159.993 68.4407 159.123 68.4407C158.253 68.4407 157.548 69.1505 157.548 70.026C157.548 70.9016 158.253 71.6114 159.123 71.6114Z" fill="#F3F4F6"/>
<path d="M155.645 64.0827C155.568 64.8405 155.711 65.6188 156.052 66.2985C156.254 66.699 156.796 67.1158 157.243 67.1158C158.07 67.1158 158.713 66.4258 158.713 65.8406C158.713 65.8406 158.543 60.1562 152.785 60.1562C147.832 60.1562 146.857 63.8239 146.857 67.4341C146.857 67.6149 147.432 67.736 148.014 67.736C152.787 67.736 153.052 64.8364 153.091 64.2716C153.091 64.2716 153.233 65.5859 154.397 65.5859C155.399 65.5859 155.645 64.0827 155.645 64.0827Z" fill="#111827"/>
</g>
<rect x="138.554" y="55.6769" width="28.4001" height="28.4001" rx="14.2001" stroke="#E5E7EB" stroke-width="1.03444"/>
<circle cx="167.156" cy="77.0782" r="7.56157" fill="#C3DAFF" stroke="white" stroke-width="0.720149"/>
<path d="M171.477 75.172V75.1466V75.1085C171.477 75.0958 171.477 75.0831 171.464 75.0704C171.464 75.0576 171.464 75.0449 171.452 75.0322C171.452 75.0195 171.439 75.0068 171.426 74.9941C171.426 74.9814 171.413 74.9814 171.413 74.9687L170.295 73.1769C170.13 72.9099 169.85 72.7575 169.545 72.7575L164.767 72.7573C164.462 72.7573 164.182 72.9098 164.017 73.1767L162.899 74.9685C162.899 74.9812 162.886 74.9812 162.886 74.9939C162.873 75.0066 162.873 75.0193 162.861 75.0321C162.861 75.0448 162.848 75.0575 162.848 75.0702C162.848 75.0829 162.835 75.0956 162.835 75.1083V75.1464V75.1718V79.8739C162.835 80.433 163.293 80.8906 163.852 80.8906H170.46C171.019 80.8906 171.477 80.433 171.477 79.8739L171.477 75.172ZM169.647 73.5834L170.409 74.7907L167.537 74.7906V73.5198H169.545C169.584 73.5198 169.622 73.5452 169.647 73.5834L169.647 73.5834ZM164.665 73.5834C164.691 73.5453 164.729 73.5199 164.767 73.5199L166.775 73.5198V74.7906H163.903L164.665 73.5834ZM168.046 80.1283H166.267V79.4928H168.046V80.1283ZM170.715 79.874C170.715 80.0139 170.6 80.1282 170.46 80.1282L168.808 80.1283V79.1116C168.808 78.8955 168.643 78.7303 168.427 78.7303H165.885C165.669 78.7303 165.504 78.8955 165.504 79.1116V80.1283H163.852C163.712 80.1283 163.598 80.0138 163.598 79.8741V75.5533H170.715L170.715 79.874Z" fill="#4972B3"/>
<path d="M165.568 77.4979C165.568 77.7139 165.733 77.8792 165.949 77.8792H168.364C168.58 77.8792 168.745 77.7139 168.745 77.4979C168.745 77.2819 168.58 77.1167 168.364 77.1167H165.949C165.733 77.1167 165.568 77.2946 165.568 77.4979Z" fill="#4972B3"/>
<defs>
<filter id="filter0_f_655_832" x="29.6083" y="36.0299" width="112.343" height="113.063" filterUnits="userSpaceOnUse" color-interpolation-filters="sRGB">
<feFlood flood-opacity="0" result="BackgroundImageFix"/>
<feBlend mode="normal" in="SourceGraphic" in2="BackgroundImageFix" result="shape"/>
<feGaussianBlur stdDeviation="15.1231" result="effect1_foregroundBlur_655_832"/>
</filter>
<filter id="filter1_d_655_832" x="51.2128" y="59.7948" width="70.5746" height="70.5747" filterUnits="userSpaceOnUse" color-interpolation-filters="sRGB">
<feFlood flood-opacity="0" result="BackgroundImageFix"/>
<feColorMatrix in="SourceAlpha" type="matrix" values="0 0 0 0 0 0 0 0 0 0 0 0 0 0 0 0 0 0 127 0" result="hardAlpha"/>
<feOffset dy="2.8806"/>
<feGaussianBlur stdDeviation="8.64179"/>
<feComposite in2="hardAlpha" operator="out"/>
<feColorMatrix type="matrix" values="0 0 0 0 0.278431 0 0 0 0 0.184314 0 0 0 0 0.572549 0 0 0 0.14 0"/>
<feBlend mode="normal" in2="BackgroundImageFix" result="effect1_dropShadow_655_832"/>
<feBlend mode="normal" in="SourceGraphic" in2="effect1_dropShadow_655_832" result="shape"/>
</filter>
<filter id="filter2_b_655_832" x="65.6157" y="71.3172" width="41.7686" height="41.7688" filterUnits="userSpaceOnUse" color-interpolation-filters="sRGB">
<feFlood flood-opacity="0" result="BackgroundImageFix"/>
<feGaussianBlur in="BackgroundImageFix" stdDeviation="1.4403"/>
<feComposite in2="SourceAlpha" operator="in" result="effect1_backgroundBlur_655_832"/>
<feBlend mode="normal" in="SourceGraphic" in2="effect1_backgroundBlur_655_832" result="shape"/>
</filter>
<linearGradient id="paint0_linear_655_832" x1="86.5001" y1="16.5859" x2="86.5001" y2="167.817" gradientUnits="userSpaceOnUse">
<stop stop-color="white"/>
<stop offset="1" stop-color="white" stop-opacity="0"/>
</linearGradient>
<clipPath id="clip0_655_832">
<rect x="72.8187" y="1.46265" width="27.3657" height="27.3657" rx="13.6828" fill="white"/>
</clipPath>
<clipPath id="clip1_655_832">
<rect x="1.52429" y="56.1943" width="27.3657" height="27.3657" rx="13.6828" fill="white"/>
</clipPath>
<clipPath id="clip2_655_832">
<rect width="10.0821" height="10.0821" fill="white" transform="translate(24.5688 72.0376)"/>
</clipPath>
<clipPath id="clip3_655_832">
<rect x="9.44543" y="124.608" width="27.3657" height="27.3657" rx="13.6828" fill="white"/>
</clipPath>
<clipPath id="clip4_655_832">
<rect width="8.64179" height="8.64179" fill="white" transform="translate(33.21 141.172)"/>
</clipPath>
<clipPath id="clip5_655_832">
<rect x="134.75" y="124.608" width="27.3657" height="27.3657" rx="13.6828" fill="white"/>
</clipPath>
<clipPath id="clip6_655_832">
<rect x="72.8196" y="115.967" width="27.3657" height="27.3657" rx="13.6828" fill="white"/>
</clipPath>
<clipPath id="clip7_655_832">
<rect width="11.5224" height="11.5224" fill="white" transform="translate(95.1437 130.01)"/>
</clipPath>
<clipPath id="clip8_655_832">
<rect width="10.0821" height="10.0821" fill="white" transform="translate(95.8629 17.3057)"/>
</clipPath>
<clipPath id="clip9_655_832">
<rect x="139.071" y="56.1941" width="27.3657" height="27.3657" rx="13.6828" fill="white"/>
</clipPath>
</defs>
</svg>
