<svg width="270" height="124" viewBox="0 0 270 124" fill="none" xmlns="http://www.w3.org/2000/svg">
<g filter="url(#filter0_d_554_823)">
<rect x="49.7686" y="73" width="172" height="44" rx="5.50923" fill="white"/>
</g>
<rect x="103.769" y="81" width="33" height="28" rx="4.88889" fill="#F3F4F6"/>
<path d="M115.845 96.7944C115.845 95.4654 115.094 94.6532 113.235 94.0328C111.907 93.5603 111.36 93.2502 111.36 92.7629C111.36 92.3493 111.688 91.9354 112.703 91.9354C113.307 91.9354 113.794 92.0329 114.179 92.1488C114.384 92.2101 114.607 92.1893 114.795 92.0902C114.983 91.9915 115.121 91.8243 115.174 91.6273L115.183 91.5965C115.249 91.3527 115.209 91.0939 115.072 90.8781C114.935 90.6623 114.712 90.5075 114.453 90.4481C114.104 90.3678 113.694 90.31 113.213 90.2856V89.4011C113.213 89.1797 113.023 89 112.788 89H111.94C111.705 89 111.515 89.1797 111.515 89.4011V90.4083C109.903 90.7397 108.969 91.7396 108.969 93.0136C108.969 94.4463 110.11 95.1844 111.782 95.7164C112.938 96.0858 113.438 96.4404 113.438 97.0012C113.438 97.5924 112.828 97.9169 111.938 97.9169C111.3 97.9169 110.699 97.7942 110.178 97.6193C109.959 97.5459 109.718 97.5624 109.514 97.6654C109.309 97.768 109.16 97.9473 109.102 98.1596L109.098 98.1724C108.96 98.6839 109.274 99.2078 109.809 99.359C110.316 99.5025 110.91 99.6028 111.515 99.6292V100.632C111.515 100.854 111.705 101.034 111.94 101.034H112.788C113.023 101.034 113.213 100.854 113.213 100.632V99.4921C114.91 99.1587 115.845 98.0701 115.845 96.7947L115.845 96.7944Z" fill="#6B7280"/>
<path d="M123.721 96.7944C123.721 95.4654 122.971 94.6532 121.111 94.0328C119.783 93.5603 119.236 93.2502 119.236 92.7629C119.236 92.3493 119.564 91.9354 120.58 91.9354C121.184 91.9354 121.67 92.0329 122.055 92.1488C122.26 92.2101 122.483 92.1893 122.671 92.0902C122.859 91.9915 122.997 91.8243 123.051 91.6273L123.059 91.5965C123.125 91.3527 123.085 91.0939 122.948 90.8781C122.811 90.6623 122.588 90.5075 122.329 90.4481C121.98 90.3678 121.571 90.31 121.089 90.2856V89.4011C121.089 89.1797 120.899 89 120.665 89H119.816C119.582 89 119.391 89.1797 119.391 89.4011V90.4083C117.78 90.7397 116.845 91.7396 116.845 93.0136C116.845 94.4463 117.986 95.1844 119.658 95.7164C120.815 96.0858 121.314 96.4404 121.314 97.0012C121.314 97.5924 120.705 97.9169 119.814 97.9169C119.176 97.9169 118.575 97.7942 118.054 97.6193C117.835 97.5459 117.595 97.5624 117.39 97.6654C117.185 97.768 117.036 97.9473 116.978 98.1596L116.975 98.1724C116.836 98.6839 117.15 99.2078 117.685 99.359C118.193 99.5025 118.786 99.6028 119.392 99.6292V100.632C119.392 100.854 119.582 101.034 119.816 101.034H120.665C120.899 101.034 121.089 100.854 121.089 100.632V99.4921C122.787 99.1587 123.721 98.0701 123.721 96.7947L123.721 96.7944Z" fill="#6B7280"/>
<path d="M131.597 96.7944C131.597 95.4654 130.847 94.6532 128.987 94.0328C127.659 93.5603 127.112 93.2502 127.112 92.7629C127.112 92.3493 127.44 91.9354 128.456 91.9354C129.06 91.9354 129.546 92.0329 129.931 92.1488C130.136 92.2101 130.359 92.1893 130.548 92.0902C130.736 91.9915 130.873 91.8243 130.927 91.6273L130.935 91.5965C131.002 91.3527 130.962 91.0939 130.825 90.8781C130.688 90.6623 130.465 90.5075 130.206 90.4481C129.857 90.3678 129.447 90.31 128.965 90.2856V89.4011C128.965 89.1797 128.776 89 128.541 89H127.692C127.458 89 127.268 89.1797 127.268 89.4011V90.4083C125.656 90.7397 124.721 91.7396 124.721 93.0136C124.721 94.4463 125.862 95.1844 127.534 95.7164C128.691 96.0858 129.19 96.4404 129.19 97.0012C129.19 97.5924 128.581 97.9169 127.691 97.9169C127.052 97.9169 126.451 97.7942 125.93 97.6193C125.712 97.5459 125.471 97.5624 125.266 97.6654C125.062 97.768 124.912 97.9473 124.855 98.1596L124.851 98.1724C124.713 98.6839 125.027 99.2078 125.562 99.359C126.069 99.5025 126.663 99.6028 127.268 99.6292V100.632C127.268 100.854 127.458 101.034 127.692 101.034H128.541C128.776 101.034 128.965 100.854 128.965 100.632V99.4921C130.663 99.1587 131.598 98.0701 131.598 96.7947L131.597 96.7944Z" fill="#6B7280"/>
<g clip-path="url(#clip0_554_823)">
<rect x="55.7686" y="79" width="32" height="32" rx="3" fill="#D1D5DB"/>
<path d="M78.0742 87.9043L74.544 89.9425L67.0759 85.7174C66.0583 85.0186 64.8176 84.9455 63.8967 85.4772L61.8355 86.6672L68.9491 93.1144L67.7869 93.7853C67.5018 93.9499 67.2294 94.1364 66.9697 94.3448L64.5722 96.1675L61.6855 95.3199L60.0191 96.282L64.3489 103.781L66.0373 102.807L66.7467 99.8827L69.5019 98.7305C69.8123 98.6098 70.11 98.4671 70.3951 98.3025L71.5573 97.6315L73.5744 107.05L75.6356 105.86C76.6004 105.303 77.1138 104.217 77.0172 102.987L77.1046 94.4286L80.635 92.3904C82.0603 91.5675 83.7145 89.2676 83.0056 88.0397C82.2966 86.8118 79.4997 87.0817 78.0744 87.9047L78.0742 87.9043Z" fill="white"/>
</g>
<rect x="144.769" y="81" width="28" height="28" rx="4.88889" fill="#F3F4F6"/>
<g clip-path="url(#clip1_554_823)">
<path d="M164.436 93.8962C164.436 90.1566 161.404 87.125 157.665 87.125C153.925 87.125 150.894 90.1566 150.894 93.8962C150.894 97.6359 153.925 100.667 157.665 100.667" stroke="#6B7280" stroke-width="1.23158" stroke-linecap="round"/>
<path d="M158.945 90.4545V97H157.561V91.7681H157.523L156.024 92.7077V91.4805L157.644 90.4545H158.945Z" fill="#6B7280"/>
<path d="M167.736 99.4917C167.601 98.4395 167.054 97.4839 166.215 96.8352C165.375 96.1864 164.313 95.8977 163.261 96.0324C162.208 96.1671 161.253 96.7143 160.604 97.5537C159.955 98.393 159.666 99.4555 159.801 100.508C159.936 101.56 160.483 102.516 161.322 103.165C162.161 103.813 163.224 104.102 164.276 103.968C164.973 103.879 165.633 103.608 166.192 103.182C166.751 102.757 167.188 102.192 167.459 101.544C167.73 100.896 167.825 100.188 167.736 99.4915L167.736 99.4917ZM164.168 99.9997C164.169 100.106 164.127 100.208 164.052 100.284L162.852 101.484C162.777 101.559 162.675 101.602 162.568 101.602C162.462 101.602 162.359 101.559 162.284 101.484C162.209 101.409 162.166 101.306 162.166 101.2C162.166 101.093 162.209 100.991 162.284 100.916L163.368 99.8357V97.9997C163.368 97.8568 163.445 97.7247 163.568 97.6533C163.692 97.5818 163.845 97.5818 163.968 97.6533C164.092 97.7247 164.168 97.8568 164.168 97.9997L164.168 99.9997Z" fill="#6B7280"/>
</g>
<g filter="url(#filter1_d_554_823)">
<rect x="30.7686" y="37" width="209" height="44" rx="5.50923" fill="white"/>
</g>
<rect x="84.7686" y="45" width="28" height="28" rx="4.88889" fill="#F3F4F6"/>
<path d="M98.2446 60.7944C98.2446 59.4654 97.4942 58.6532 95.6346 58.0328C94.3066 57.5603 93.7595 57.2502 93.7595 56.7629C93.7595 56.3493 94.0875 55.9354 95.1031 55.9354C95.707 55.9354 96.1934 56.0329 96.5783 56.1488C96.7833 56.2101 97.0065 56.1893 97.195 56.0902C97.3829 55.9915 97.5205 55.8243 97.574 55.6273L97.5825 55.5965C97.6487 55.3527 97.6088 55.0939 97.4717 54.8781C97.3347 54.6623 97.1118 54.5075 96.8529 54.4481C96.5037 54.3678 96.0942 54.31 95.6125 54.2856V53.4011C95.6125 53.1797 95.4228 53 95.1881 53H94.3393C94.105 53 93.9149 53.1797 93.9149 53.4011V54.4083C92.303 54.7397 91.3685 55.7396 91.3685 57.0136C91.3685 58.4463 92.5093 59.1844 94.1815 59.7164C95.338 60.0858 95.8375 60.4404 95.8375 61.0012C95.8375 61.5924 95.2281 61.9169 94.3377 61.9169C93.6994 61.9169 93.0984 61.7942 92.5773 61.6193C92.3587 61.5459 92.1181 61.5624 91.9136 61.6654C91.709 61.768 91.5596 61.9473 91.5019 62.1596L91.4981 62.1724C91.3598 62.6839 91.6738 63.2078 92.209 63.359C92.7161 63.5025 93.3098 63.6028 93.9151 63.6292V64.6324C93.9151 64.8542 94.1052 65.0335 94.3395 65.0335H95.1883C95.4229 65.0335 95.6126 64.8542 95.6126 64.6324V63.4921C97.3102 63.1587 98.2448 62.0701 98.2448 60.7947L98.2446 60.7944Z" fill="#6B7280"/>
<path d="M106.121 60.7944C106.121 59.4654 105.371 58.6532 103.511 58.0328C102.183 57.5603 101.636 57.2502 101.636 56.7629C101.636 56.3493 101.964 55.9354 102.979 55.9354C103.583 55.9354 104.07 56.0329 104.455 56.1488C104.66 56.2101 104.883 56.1893 105.071 56.0902C105.259 55.9915 105.397 55.8243 105.45 55.6273L105.459 55.5965C105.525 55.3527 105.485 55.0939 105.348 54.8781C105.211 54.6623 104.988 54.5075 104.729 54.4481C104.38 54.3678 103.97 54.31 103.489 54.2856V53.4011C103.489 53.1797 103.299 53 103.064 53H102.216C101.981 53 101.791 53.1797 101.791 53.4011V54.4083C100.179 54.7397 99.2448 55.7396 99.2448 57.0136C99.2448 58.4463 100.386 59.1844 102.058 59.7164C103.214 60.0858 103.714 60.4404 103.714 61.0012C103.714 61.5924 103.104 61.9169 102.214 61.9169C101.576 61.9169 100.975 61.7942 100.454 61.6193C100.235 61.5459 99.9944 61.5624 99.7899 61.6654C99.5853 61.768 99.4359 61.9473 99.3782 62.1596L99.3744 62.1724C99.2361 62.6839 99.5501 63.2078 100.085 63.359C100.592 63.5025 101.186 63.6028 101.791 63.6292V64.6324C101.791 64.8542 101.981 65.0335 102.216 65.0335H103.065C103.299 65.0335 103.489 64.8542 103.489 64.6324V63.4921C105.187 63.1587 106.121 62.0701 106.121 60.7947L106.121 60.7944Z" fill="#6B7280"/>
<rect x="36.7686" y="43" width="32" height="32" rx="3" fill="#6B7280"/>
<path d="M41.0353 55.4929V51.3832C41.0353 50.4753 41.7943 49.7393 42.7306 49.7393H52.3932C53.3295 49.7393 54.0885 50.4753 54.0885 51.3832V52.0408H59.1148C59.6815 52.0408 60.2108 52.3155 60.5252 52.7727L64.1993 58.1167C64.5704 58.6568 64.7686 59.2914 64.7686 59.9404V63.0547C64.7686 63.8577 64.1747 64.5263 63.3897 64.6699C62.9092 66.0256 61.5829 66.9999 60.0219 66.9999C58.4718 66.9999 57.1531 66.0393 56.6644 64.6986H50.3259C49.8373 66.0393 48.5186 66.9999 46.9684 66.9999C45.4186 66.9999 44.0998 66.0393 43.6112 64.6986H42.7305C41.7942 64.6986 41.0352 63.9626 41.0352 63.0547L41.0353 55.4929ZM56.8012 54.3422C56.6141 54.3422 56.4622 54.4893 56.4622 54.6709V58.6164C56.4622 58.7978 56.6141 58.9451 56.8012 58.9451H60.9959C61.0924 58.9451 61.1869 58.9185 61.2684 58.8684C61.5056 58.7223 61.5758 58.4177 61.4254 58.1878L59.1092 54.6476C58.9846 54.4573 58.7687 54.3423 58.5366 54.3423L56.8012 54.3422ZM46.9688 65.2736C47.9521 65.2736 48.7488 64.501 48.7488 63.5476C48.7488 62.5944 47.9521 61.8215 46.9688 61.8215C45.9858 61.8215 45.1888 62.5944 45.1888 63.5476C45.1888 64.501 45.9858 65.2736 46.9688 65.2736ZM60.0224 65.2736C61.0054 65.2736 61.8024 64.501 61.8024 63.5476C61.8024 62.5944 61.0054 61.8215 60.0224 61.8215C59.0394 61.8215 58.2424 62.5944 58.2424 63.5476C58.2424 64.501 59.0394 65.2736 60.0224 65.2736Z" fill="white"/>
<rect x="120.769" y="45" width="28" height="28" rx="4.88889" fill="#F3F4F6"/>
<g clip-path="url(#clip2_554_823)">
<path d="M140.436 57.8962C140.436 54.1566 137.404 51.125 133.665 51.125C129.925 51.125 126.894 54.1566 126.894 57.8962C126.894 61.6359 129.925 64.6675 133.665 64.6675" stroke="#6B7280" stroke-width="1.23158" stroke-linecap="round"/>
<path d="M133.752 61.0895C133.275 61.0895 132.85 61.0075 132.477 60.8434C132.106 60.6772 131.813 60.4492 131.598 60.1594C131.385 59.8675 131.275 59.5309 131.269 59.1495H132.662C132.671 59.3093 132.723 59.4499 132.819 59.5714C132.917 59.6907 133.047 59.7834 133.209 59.8494C133.371 59.9155 133.553 59.9485 133.755 59.9485C133.966 59.9485 134.153 59.9112 134.315 59.8366C134.477 59.7621 134.603 59.6587 134.695 59.5266C134.787 59.3945 134.832 59.2422 134.832 59.0696C134.832 58.8949 134.783 58.7404 134.685 58.6062C134.59 58.4698 134.451 58.3633 134.27 58.2866C134.091 58.2099 133.878 58.1715 133.631 58.1715H133.02V57.1552H133.631C133.84 57.1552 134.024 57.119 134.184 57.0465C134.346 56.9741 134.471 56.8739 134.561 56.7461C134.65 56.6161 134.695 56.4648 134.695 56.2923C134.695 56.1282 134.656 55.9844 134.577 55.8608C134.5 55.7351 134.391 55.6371 134.251 55.5668C134.112 55.4964 133.95 55.4613 133.765 55.4613C133.577 55.4613 133.406 55.4954 133.25 55.5636C133.095 55.6296 132.97 55.7244 132.876 55.848C132.783 55.9716 132.733 56.1165 132.726 56.2827H131.4C131.406 55.9055 131.514 55.5732 131.723 55.2855C131.932 54.9979 132.213 54.7731 132.566 54.6112C132.922 54.4471 133.324 54.3651 133.771 54.3651C134.223 54.3651 134.618 54.4471 134.957 54.6112C135.296 54.7752 135.559 54.9968 135.746 55.2759C135.936 55.5529 136.03 55.864 136.028 56.2092C136.03 56.5756 135.916 56.8814 135.686 57.1264C135.458 57.3714 135.161 57.527 134.794 57.593V57.6442C135.276 57.706 135.642 57.8732 135.894 58.146C136.147 58.4165 136.273 58.7553 136.271 59.1623C136.273 59.5352 136.165 59.8665 135.948 60.1562C135.733 60.446 135.435 60.674 135.056 60.8402C134.677 61.0064 134.242 61.0895 133.752 61.0895Z" fill="#6B7280"/>
<path d="M143.736 63.4917C143.601 62.4395 143.054 61.4839 142.215 60.8352C141.375 60.1864 140.313 59.8977 139.261 60.0324C138.208 60.1671 137.253 60.7143 136.604 61.5537C135.955 62.393 135.666 63.4555 135.801 64.5078C135.936 65.5601 136.483 66.5158 137.322 67.1645C138.161 67.8134 139.224 68.1023 140.276 67.9676C140.973 67.8786 141.633 67.6077 142.192 67.1822C142.751 66.7566 143.188 66.1916 143.459 65.5437C143.73 64.8959 143.825 64.1881 143.736 63.4915L143.736 63.4917ZM140.168 63.9997C140.169 64.1061 140.127 64.2082 140.052 64.2838L138.852 65.4838C138.777 65.5594 138.675 65.6021 138.568 65.6021C138.462 65.6021 138.359 65.5594 138.284 65.4838C138.209 65.4086 138.166 65.3064 138.166 65.1997C138.166 65.0931 138.209 64.9908 138.284 64.9157L139.368 63.8357V61.9997C139.368 61.8568 139.445 61.7247 139.568 61.6533C139.692 61.5818 139.845 61.5818 139.968 61.6533C140.092 61.7247 140.168 61.8568 140.168 61.9997L140.168 63.9997Z" fill="#6B7280"/>
</g>
<g filter="url(#filter2_d_554_823)">
<rect x="4.76855" y="1" width="261" height="44" rx="5.50923" fill="white"/>
</g>
<rect x="190.769" y="9" width="67" height="28" rx="4.13193" fill="#111827"/>
<path d="M208.676 20.8531C208.629 20.4364 208.435 20.1136 208.095 19.8847C207.754 19.6529 207.326 19.5369 206.81 19.5369C206.44 19.5369 206.12 19.5956 205.85 19.713C205.58 19.8275 205.37 19.9859 205.22 20.1884C205.074 20.388 205 20.6154 205 20.8707C205 21.085 205.05 21.2698 205.15 21.4254C205.253 21.5809 205.386 21.7115 205.551 21.8171C205.718 21.9198 205.897 22.0064 206.088 22.0768C206.278 22.1443 206.462 22.2001 206.638 22.2441L207.518 22.473C207.806 22.5434 208.101 22.6388 208.403 22.7591C208.705 22.8795 208.986 23.0379 209.244 23.2345C209.502 23.4312 209.71 23.6747 209.869 23.9653C210.03 24.2558 210.111 24.6035 210.111 25.0085C210.111 25.5191 209.979 25.9725 209.715 26.3687C209.454 26.7649 209.074 27.0774 208.575 27.3063C208.079 27.5352 207.479 27.6497 206.774 27.6497C206.099 27.6497 205.515 27.5426 205.022 27.3283C204.529 27.1141 204.143 26.8104 203.865 26.4171C203.586 26.021 203.432 25.5514 203.402 25.0085H204.767C204.793 25.3343 204.899 25.6057 205.084 25.8229C205.272 26.0371 205.511 26.197 205.801 26.3027C206.095 26.4054 206.416 26.4567 206.765 26.4567C207.15 26.4567 207.492 26.3966 207.791 26.2763C208.093 26.153 208.331 25.9828 208.504 25.7656C208.677 25.5456 208.764 25.2888 208.764 24.9953C208.764 24.7283 208.688 24.5096 208.535 24.3394C208.385 24.1692 208.181 24.0284 207.923 23.9168C207.668 23.8053 207.379 23.707 207.056 23.6219L205.991 23.3314C205.269 23.1348 204.697 22.8457 204.274 22.4642C203.854 22.0827 203.645 21.578 203.645 20.95C203.645 20.4305 203.785 19.9771 204.067 19.5898C204.349 19.2024 204.73 18.9016 205.212 18.6874C205.693 18.4702 206.236 18.3616 206.84 18.3616C207.451 18.3616 207.989 18.4687 208.456 18.683C208.925 18.8972 209.295 19.1921 209.565 19.5678C209.835 19.9405 209.976 20.3689 209.988 20.8531H208.676ZM212.947 23.4855V27.5H211.631V18.4849H212.929V21.8391H213.013C213.171 21.4753 213.413 21.1862 213.739 20.972C214.065 20.7577 214.49 20.6506 215.016 20.6506C215.479 20.6506 215.884 20.746 216.231 20.9368C216.58 21.1275 216.85 21.4122 217.041 21.7907C217.234 22.1664 217.331 22.6359 217.331 23.1993V27.5H216.015V23.3578C216.015 22.8619 215.887 22.4774 215.632 22.2045C215.377 21.9286 215.022 21.7907 214.567 21.7907C214.256 21.7907 213.977 21.8568 213.73 21.9888C213.487 22.1209 213.295 22.3146 213.154 22.5699C213.016 22.8222 212.947 23.1274 212.947 23.4855ZM219.088 27.5V20.7387H220.404V27.5H219.088ZM219.752 19.6954C219.523 19.6954 219.327 19.6191 219.162 19.4665C219.001 19.311 218.92 19.1261 218.92 18.9119C218.92 18.6947 219.001 18.5098 219.162 18.3572C219.327 18.2017 219.523 18.1239 219.752 18.1239C219.981 18.1239 220.176 18.2017 220.338 18.3572C220.502 18.5098 220.584 18.6947 220.584 18.9119C220.584 19.1261 220.502 19.311 220.338 19.4665C220.176 19.6191 219.981 19.6954 219.752 19.6954ZM222.174 30.0355V20.7387H223.46V21.8347H223.57C223.646 21.6939 223.756 21.531 223.9 21.3461C224.044 21.1612 224.243 20.9998 224.499 20.8619C224.754 20.7211 225.091 20.6506 225.511 20.6506C226.057 20.6506 226.544 20.7886 226.972 21.0644C227.401 21.3403 227.737 21.7379 227.98 22.2573C228.227 22.7768 228.35 23.4018 228.35 24.1325C228.35 24.8633 228.228 25.4898 227.985 26.0122C227.741 26.5316 227.407 26.9322 226.981 27.2139C226.556 27.4927 226.07 27.6321 225.524 27.6321C225.113 27.6321 224.777 27.5631 224.516 27.4252C224.258 27.2872 224.055 27.1258 223.909 26.941C223.762 26.7561 223.649 26.5917 223.57 26.4479H223.491V30.0355H222.174ZM223.464 24.1193C223.464 24.5947 223.533 25.0115 223.671 25.3695C223.809 25.7275 224.009 26.0078 224.27 26.2102C224.531 26.4098 224.851 26.5096 225.229 26.5096C225.623 26.5096 225.951 26.4054 226.215 26.197C226.479 25.9857 226.679 25.6996 226.814 25.3387C226.952 24.9777 227.021 24.5713 227.021 24.1193C227.021 23.6733 226.953 23.2727 226.818 22.9176C226.686 22.5625 226.487 22.2823 226.22 22.0768C225.956 21.8714 225.625 21.7687 225.229 21.7687C224.848 21.7687 224.525 21.867 224.261 22.0636C224 22.2603 223.802 22.5346 223.667 22.8868C223.532 23.239 223.464 23.6498 223.464 24.1193Z" fill="white"/>
<g clip-path="url(#clip3_554_823)">
<path d="M245.309 22.4999L242.379 19.5698C242.109 19.2998 241.659 19.2998 241.389 19.5698C241.119 19.8398 241.119 20.2898 241.389 20.5598L243.118 22.2999H236.718C236.328 22.2999 236.018 22.6099 236.018 22.9999C236.018 23.3899 236.328 23.6999 236.718 23.6999H243.118L241.389 25.4298C241.119 25.6998 241.119 26.1498 241.389 26.4198C241.529 26.5598 241.708 26.6299 241.889 26.6299C242.069 26.6299 242.249 26.5598 242.389 26.4198L245.309 23.4999C245.439 23.3699 245.519 23.1899 245.519 22.9999C245.518 22.8099 245.449 22.6299 245.309 22.4998L245.309 22.4999Z" fill="#6B7280"/>
</g>
<rect x="58.7686" y="9" width="28" height="28" rx="4.88889" fill="#F3F4F6"/>
<path d="M76.2446 24.7944C76.2446 23.4654 75.4942 22.6532 73.6346 22.0328C72.3066 21.5603 71.7595 21.2502 71.7595 20.7629C71.7595 20.3493 72.0875 19.9354 73.1031 19.9354C73.707 19.9354 74.1934 20.0329 74.5783 20.1488C74.7833 20.2101 75.0065 20.1893 75.195 20.0902C75.3829 19.9915 75.5205 19.8243 75.574 19.6273L75.5825 19.5965C75.6487 19.3527 75.6088 19.0939 75.4717 18.8781C75.3347 18.6623 75.1118 18.5075 74.8529 18.4481C74.5037 18.3678 74.0942 18.31 73.6125 18.2856V17.4011C73.6125 17.1797 73.4228 17 73.1881 17H72.3393C72.105 17 71.9149 17.1797 71.9149 17.4011V18.4083C70.303 18.7397 69.3685 19.7396 69.3685 21.0136C69.3685 22.4463 70.5093 23.1844 72.1815 23.7164C73.338 24.0858 73.8375 24.4404 73.8375 25.0012C73.8375 25.5924 73.2281 25.9169 72.3377 25.9169C71.6994 25.9169 71.0984 25.7942 70.5773 25.6193C70.3587 25.5459 70.1181 25.5624 69.9136 25.6654C69.709 25.768 69.5596 25.9473 69.5019 26.1596L69.4981 26.1724C69.3598 26.6839 69.6738 27.2078 70.209 27.359C70.7161 27.5025 71.3098 27.6028 71.9151 27.6292V28.6324C71.9151 28.8542 72.1052 29.0335 72.3395 29.0335H73.1883C73.4229 29.0335 73.6126 28.8542 73.6126 28.6324V27.4921C75.3102 27.1587 76.2448 26.0701 76.2448 24.7947L76.2446 24.7944Z" fill="#6B7280"/>
<rect x="10.7686" y="7" width="32" height="32" rx="3" fill="#1F2937"/>
<path d="M27.5267 22.8918L35.7599 14.6586C35.3266 14.4418 34.7849 14.3335 34.3515 14.3335H19.1852C18.7518 14.3335 18.21 14.4418 17.7768 14.6586L26.01 22.8918C26.4434 23.325 27.0932 23.325 27.5267 22.8918H27.5267ZM37.2767 16.1749L29.0435 24.4081C27.7434 25.7082 25.6852 25.7082 24.4934 24.4081L16.2603 16.1749C16.0437 16.6082 15.9354 17.1499 15.9354 17.5831V28.4163C15.9354 30.2579 17.3437 31.6663 19.1854 31.6663H34.3522C36.1938 31.6663 37.6022 30.2579 37.6022 28.4163L37.602 17.5831C37.602 17.1499 37.4937 16.6082 37.2771 16.1749H37.2767Z" fill="white"/>
<rect x="94.7686" y="9" width="28" height="28" rx="4.88889" fill="#F3F4F6"/>
<g clip-path="url(#clip4_554_823)">
<path d="M114.436 21.8962C114.436 18.1566 111.404 15.125 107.665 15.125C103.925 15.125 100.894 18.1566 100.894 21.8962C100.894 25.6359 103.925 28.6675 107.665 28.6675" stroke="#6B7280" stroke-width="1.23158" stroke-linecap="round"/>
<path d="M107.789 25.0895C107.338 25.0895 106.935 25.0064 106.581 24.8402C106.23 24.674 105.951 24.445 105.744 24.1531C105.537 23.8612 105.43 23.5266 105.421 23.1495H106.763C106.778 23.4031 106.885 23.6087 107.083 23.7663C107.281 23.924 107.517 24.0028 107.789 24.0028C108.007 24.0028 108.198 23.9549 108.365 23.859C108.533 23.761 108.664 23.6257 108.758 23.4531C108.854 23.2784 108.902 23.0781 108.902 22.8523C108.902 22.6222 108.853 22.4197 108.755 22.245C108.659 22.0703 108.525 21.9339 108.355 21.8359C108.185 21.7379 107.99 21.6879 107.77 21.6857C107.578 21.6857 107.392 21.7251 107.211 21.804C107.032 21.8828 106.892 21.9904 106.792 22.1268L105.562 21.9062L105.872 18.4545H109.873V19.5859H107.013L106.843 21.2255H106.882C106.997 21.0636 107.17 20.9293 107.403 20.8228C107.635 20.7163 107.895 20.663 108.182 20.663C108.577 20.663 108.928 20.7557 109.237 20.9411C109.546 21.1264 109.79 21.381 109.969 21.7049C110.148 22.0266 110.236 22.3974 110.234 22.8171C110.236 23.2582 110.134 23.6502 109.927 23.9933C109.723 24.3342 109.436 24.6026 109.068 24.7987C108.701 24.9925 108.275 25.0895 107.789 25.0895Z" fill="#6B7280"/>
<path d="M117.736 27.4917C117.601 26.4395 117.054 25.4839 116.215 24.8352C115.375 24.1864 114.313 23.8977 113.261 24.0324C112.208 24.1671 111.253 24.7143 110.604 25.5537C109.955 26.393 109.666 27.4555 109.801 28.5078C109.936 29.5601 110.483 30.5158 111.322 31.1645C112.161 31.8134 113.224 32.1023 114.276 31.9676C114.973 31.8786 115.633 31.6077 116.192 31.1822C116.751 30.7566 117.188 30.1916 117.459 29.5437C117.73 28.8959 117.825 28.1881 117.736 27.4915L117.736 27.4917ZM114.168 27.9997C114.169 28.1061 114.127 28.2082 114.052 28.2838L112.852 29.4838C112.777 29.5594 112.675 29.6021 112.568 29.6021C112.462 29.6021 112.359 29.5594 112.284 29.4838C112.209 29.4086 112.166 29.3064 112.166 29.1997C112.166 29.0931 112.209 28.9908 112.284 28.9157L113.368 27.8357V25.9997C113.368 25.8568 113.445 25.7247 113.568 25.6533C113.692 25.5818 113.845 25.5818 113.968 25.6533C114.092 25.7247 114.168 25.8568 114.168 25.9997L114.168 27.9997Z" fill="#6B7280"/>
</g>
<defs>
<filter id="filter0_d_554_823" x="45.7686" y="72" width="180" height="52" filterUnits="userSpaceOnUse" color-interpolation-filters="sRGB">
<feFlood flood-opacity="0" result="BackgroundImageFix"/>
<feColorMatrix in="SourceAlpha" type="matrix" values="0 0 0 0 0 0 0 0 0 0 0 0 0 0 0 0 0 0 127 0" result="hardAlpha"/>
<feOffset dy="3"/>
<feGaussianBlur stdDeviation="2"/>
<feComposite in2="hardAlpha" operator="out"/>
<feColorMatrix type="matrix" values="0 0 0 0 0.639216 0 0 0 0 0.67451 0 0 0 0 0.745098 0 0 0 0.24 0"/>
<feBlend mode="normal" in2="BackgroundImageFix" result="effect1_dropShadow_554_823"/>
<feBlend mode="normal" in="SourceGraphic" in2="effect1_dropShadow_554_823" result="shape"/>
</filter>
<filter id="filter1_d_554_823" x="26.7686" y="36" width="217" height="52" filterUnits="userSpaceOnUse" color-interpolation-filters="sRGB">
<feFlood flood-opacity="0" result="BackgroundImageFix"/>
<feColorMatrix in="SourceAlpha" type="matrix" values="0 0 0 0 0 0 0 0 0 0 0 0 0 0 0 0 0 0 127 0" result="hardAlpha"/>
<feOffset dy="3"/>
<feGaussianBlur stdDeviation="2"/>
<feComposite in2="hardAlpha" operator="out"/>
<feColorMatrix type="matrix" values="0 0 0 0 0.639216 0 0 0 0 0.67451 0 0 0 0 0.745098 0 0 0 0.24 0"/>
<feBlend mode="normal" in2="BackgroundImageFix" result="effect1_dropShadow_554_823"/>
<feBlend mode="normal" in="SourceGraphic" in2="effect1_dropShadow_554_823" result="shape"/>
</filter>
<filter id="filter2_d_554_823" x="0.768555" y="0" width="269" height="52" filterUnits="userSpaceOnUse" color-interpolation-filters="sRGB">
<feFlood flood-opacity="0" result="BackgroundImageFix"/>
<feColorMatrix in="SourceAlpha" type="matrix" values="0 0 0 0 0 0 0 0 0 0 0 0 0 0 0 0 0 0 127 0" result="hardAlpha"/>
<feOffset dy="3"/>
<feGaussianBlur stdDeviation="2"/>
<feComposite in2="hardAlpha" operator="out"/>
<feColorMatrix type="matrix" values="0 0 0 0 0.639216 0 0 0 0 0.67451 0 0 0 0 0.745098 0 0 0 0.24 0"/>
<feBlend mode="normal" in2="BackgroundImageFix" result="effect1_dropShadow_554_823"/>
<feBlend mode="normal" in="SourceGraphic" in2="effect1_dropShadow_554_823" result="shape"/>
</filter>
<clipPath id="clip0_554_823">
<rect width="32" height="32" fill="white" transform="translate(55.7686 79)"/>
</clipPath>
<clipPath id="clip1_554_823">
<rect width="18" height="18" fill="white" transform="translate(149.769 86)"/>
</clipPath>
<clipPath id="clip2_554_823">
<rect width="18" height="18" fill="white" transform="translate(125.769 50)"/>
</clipPath>
<clipPath id="clip3_554_823">
<rect width="10" height="10" fill="white" transform="matrix(-1 0 0 -1 245.769 28)"/>
</clipPath>
<clipPath id="clip4_554_823">
<rect width="18" height="18" fill="white" transform="translate(99.7686 14)"/>
</clipPath>
</defs>
</svg>
