<svg width="165" height="141" viewBox="0 0 165 141" fill="none" xmlns="http://www.w3.org/2000/svg">
<g filter="url(#filter0_d_64_11690)">
<rect x="-2" y="7" width="180.061" height="120.854" rx="4.87593" fill="white"/>
</g>
<rect x="5.90528" y="14.9063" width="52.0257" height="41.1137" rx="4.66338" fill="white"/>
<rect x="5.90528" y="14.9063" width="52.0257" height="41.1137" rx="4.66338" stroke="#F3F4F6" stroke-width="0.488297"/>
<circle cx="15.5499" cy="25.233" r="5.797" fill="#472F92"/>
<g clip-path="url(#clip0_64_11690)">
<path d="M17.8972 23.9294L15.5508 25.2329M15.5508 25.2329L13.2044 23.9294M15.5508 25.2329L15.5508 27.8554M18.0353 26.3533L18.0353 24.1126C18.0353 24.018 18.0353 23.9707 18.0213 23.9285C18.009 23.8912 17.9888 23.857 17.9622 23.8281C17.9321 23.7954 17.8908 23.7724 17.8081 23.7265L15.7653 22.5916C15.687 22.5481 15.6479 22.5264 15.6064 22.5179C15.5698 22.5103 15.5319 22.5103 15.4952 22.5179C15.4538 22.5264 15.4146 22.5481 15.3363 22.5916L13.2936 23.7265C13.2109 23.7724 13.1696 23.7954 13.1395 23.8281C13.1128 23.857 13.0927 23.8912 13.0803 23.9285C13.0664 23.9707 13.0664 24.018 13.0664 24.1126L13.0664 26.3533C13.0664 26.4479 13.0664 26.4952 13.0803 26.5374C13.0927 26.5747 13.1128 26.6089 13.1395 26.6378C13.1696 26.6705 13.2109 26.6935 13.2936 26.7394L15.3363 27.8743C15.4146 27.9177 15.4538 27.9395 15.4952 27.948C15.5319 27.9556 15.5698 27.9556 15.6064 27.948C15.6479 27.9395 15.687 27.9177 15.7653 27.8743L17.8081 26.7394C17.8908 26.6935 17.9321 26.6705 17.9622 26.6378C17.9888 26.6089 18.009 26.5747 18.0213 26.5374C18.0353 26.4952 18.0353 26.4479 18.0353 26.3533Z" stroke="white" stroke-width="0.5456" stroke-linecap="round" stroke-linejoin="round"/>
<path d="M16.793 24.5428L14.3086 23.1626" stroke="white" stroke-width="0.5456" stroke-linecap="round" stroke-linejoin="round"/>
</g>
<path d="M9.96993 37.0745L9.96993 36.4719L13.1358 36.4719L13.1358 37.0745L11.9094 37.0745L11.9094 40.4399L11.1964 40.4399L11.1964 37.0745L9.96993 37.0745ZM14.5817 40.4981C14.291 40.4981 14.0392 40.4341 13.826 40.3063C13.6129 40.1784 13.4476 39.9995 13.33 39.7696C13.2138 39.5396 13.1557 39.271 13.1557 38.9636C13.1557 38.6561 13.2138 38.3868 13.33 38.1556C13.4476 37.9244 13.6129 37.7449 13.826 37.617C14.0392 37.4891 14.291 37.4252 14.5817 37.4252C14.8723 37.4252 15.1242 37.4891 15.3373 37.617C15.5504 37.7449 15.7151 37.9244 15.8314 38.1556C15.9489 38.3868 16.0077 38.6561 16.0077 38.9636C16.0077 39.271 15.9489 39.5396 15.8314 39.7696C15.7151 39.9995 15.5504 40.1784 15.3373 40.3063C15.1242 40.4341 14.8723 40.4981 14.5817 40.4981ZM14.5855 39.9362C14.7431 39.9362 14.8749 39.8929 14.9808 39.8064C15.0867 39.7185 15.1655 39.601 15.2172 39.4538C15.2701 39.3065 15.2966 39.1425 15.2966 38.9616C15.2966 38.7795 15.2701 38.6148 15.2172 38.4676C15.1655 38.319 15.0867 38.2008 14.9808 38.113C14.8749 38.0252 14.7431 37.9813 14.5855 37.9813C14.4241 37.9813 14.2897 38.0252 14.1825 38.113C14.0766 38.2008 13.9972 38.319 13.9442 38.4676C13.8926 38.6148 13.8667 38.7795 13.8667 38.9616C13.8667 39.1425 13.8926 39.3065 13.9442 39.4538C13.9972 39.601 14.0766 39.7185 14.1825 39.8064C14.2897 39.8929 14.4241 39.9362 14.5855 39.9362ZM18.089 37.4639L18.089 38.0064L16.3782 38.0064L16.3782 37.4639L18.089 37.4639ZM16.8006 36.7509L17.502 36.7509L17.502 39.5448C17.502 39.6391 17.5162 39.7114 17.5446 39.7618C17.5743 39.8109 17.613 39.8445 17.6608 39.8626C17.7086 39.8806 17.7616 39.8897 17.8197 39.8897C17.8636 39.8897 17.9037 39.8865 17.9398 39.88C17.9773 39.8735 18.0057 39.8677 18.0251 39.8626L18.1433 40.4109C18.1058 40.4238 18.0522 40.438 17.9825 40.4535C17.914 40.469 17.83 40.478 17.7306 40.4806C17.5549 40.4858 17.3967 40.4593 17.2559 40.4012C17.1151 40.3418 17.0034 40.2501 16.9207 40.1261C16.8393 40.0021 16.7993 39.8471 16.8006 39.6611L16.8006 36.7509ZM19.532 40.5C19.3434 40.5 19.1735 40.4664 19.0224 40.3993C18.8726 40.3308 18.7537 40.23 18.6659 40.097C18.5794 39.964 18.5361 39.7999 18.5361 39.6049C18.5361 39.437 18.5671 39.2981 18.6291 39.1883C18.6911 39.0785 18.7757 38.9907 18.8829 38.9248C18.9901 38.8589 19.1109 38.8092 19.2452 38.7756C19.3809 38.7408 19.521 38.7156 19.6657 38.7001C19.84 38.682 19.9815 38.6658 20.09 38.6516C20.1985 38.6361 20.2773 38.6129 20.3264 38.5819C20.3767 38.5496 20.4019 38.4999 20.4019 38.4327L20.4019 38.4211C20.4019 38.2751 20.3586 38.1621 20.2721 38.082C20.1856 38.0019 20.0609 37.9619 19.8982 37.9619C19.7264 37.9619 19.5901 37.9993 19.4894 38.0743C19.3899 38.1492 19.3227 38.2376 19.2879 38.3397L18.633 38.2467C18.6846 38.0659 18.7699 37.9147 18.8887 37.7933C19.0076 37.6706 19.1529 37.5789 19.3247 37.5182C19.4965 37.4562 19.6863 37.4252 19.8943 37.4252C20.0377 37.4252 20.1804 37.442 20.3225 37.4756C20.4646 37.5091 20.5944 37.5647 20.7119 37.6422C20.8295 37.7184 20.9237 37.8224 20.9948 37.9541C21.0671 38.0859 21.1033 38.2506 21.1033 38.4482L21.1033 40.4399L20.429 40.4399L20.429 40.0311L20.4058 40.0311C20.3632 40.1138 20.3031 40.1913 20.2256 40.2636C20.1494 40.3347 20.0532 40.3921 19.9369 40.4361C19.822 40.4787 19.687 40.5 19.532 40.5ZM19.7141 39.9846C19.8549 39.9846 19.977 39.9569 20.0803 39.9013C20.1836 39.8445 20.2631 39.7696 20.3186 39.6766C20.3754 39.5836 20.4039 39.4822 20.4039 39.3724L20.4039 39.0217C20.3819 39.0398 20.3444 39.0566 20.2915 39.0721C20.2398 39.0876 20.1817 39.1011 20.1171 39.1128C20.0525 39.1244 19.9886 39.1347 19.9253 39.1438C19.862 39.1528 19.8071 39.1605 19.7606 39.167C19.656 39.1812 19.5623 39.2045 19.4797 39.2368C19.397 39.269 19.3318 39.3143 19.284 39.3724C19.2362 39.4292 19.2123 39.5028 19.2123 39.5933C19.2123 39.7224 19.2594 39.8199 19.3537 39.8858C19.448 39.9517 19.5681 39.9846 19.7141 39.9846ZM22.5099 36.4719L22.5099 40.4399L21.8085 40.4399L21.8085 36.4719L22.5099 36.4719ZM26.7719 37.5628C26.7538 37.3935 26.6776 37.2618 26.5433 37.1675C26.4103 37.0732 26.2372 37.0261 26.0241 37.0261C25.8742 37.0261 25.7457 37.0487 25.6385 37.0939C25.5313 37.1391 25.4493 37.2004 25.3924 37.2779C25.3356 37.3554 25.3065 37.4439 25.3052 37.5434C25.3052 37.626 25.324 37.6977 25.3614 37.7584C25.4002 37.8191 25.4525 37.8708 25.5184 37.9134C25.5842 37.9548 25.6572 37.9896 25.7373 38.0181C25.8174 38.0465 25.8981 38.0704 25.9795 38.0898L26.3515 38.1828C26.5013 38.2176 26.6453 38.2648 26.7836 38.3242C26.9231 38.3836 27.0477 38.4585 27.1575 38.5489C27.2686 38.6394 27.3564 38.7485 27.421 38.8764C27.4856 39.0043 27.5179 39.1541 27.5179 39.3259C27.5179 39.5584 27.4584 39.7631 27.3396 39.9401C27.2208 40.1157 27.049 40.2533 26.8242 40.3528C26.6008 40.4509 26.3302 40.5 26.0124 40.5C25.7037 40.5 25.4357 40.4522 25.2084 40.3566C24.9823 40.261 24.8054 40.1215 24.6775 39.9381C24.5509 39.7547 24.4824 39.5313 24.4721 39.2678L25.1793 39.2678C25.1896 39.406 25.2323 39.5209 25.3072 39.6126C25.3821 39.7043 25.4796 39.7728 25.5997 39.818C25.7212 39.8632 25.8568 39.8858 26.0066 39.8858C26.1629 39.8858 26.2998 39.8626 26.4174 39.8161C26.5362 39.7683 26.6292 39.7024 26.6964 39.6184C26.7635 39.5332 26.7978 39.4337 26.7991 39.3201C26.7978 39.2167 26.7674 39.1315 26.708 39.0643C26.6486 38.9959 26.5653 38.939 26.4581 38.8938C26.3521 38.8473 26.2281 38.806 26.0861 38.7698L25.6346 38.6536C25.3078 38.5696 25.0495 38.4424 24.8596 38.2719C24.671 38.1001 24.5767 37.8721 24.5767 37.5879C24.5767 37.3541 24.64 37.1494 24.7666 36.9738C24.8945 36.7981 25.0682 36.6618 25.2878 36.5649C25.5074 36.4668 25.756 36.4177 26.0337 36.4177C26.3153 36.4177 26.562 36.4668 26.7739 36.5649C26.987 36.6618 27.1543 36.7968 27.2757 36.9699C27.3971 37.1417 27.4597 37.3393 27.4636 37.5628L26.7719 37.5628ZM28.8291 38.6962L28.8291 40.4399L28.1277 40.4399L28.1277 36.4719L28.8136 36.4719L28.8136 37.9696L28.8484 37.9696C28.9182 37.8017 29.026 37.6693 29.172 37.5724C29.3193 37.4743 29.5065 37.4252 29.7339 37.4252C29.9405 37.4252 30.1207 37.4685 30.2744 37.555C30.4282 37.6415 30.547 37.7681 30.6309 37.9348C30.7162 38.1014 30.7588 38.3048 30.7588 38.5451L30.7588 40.4399L30.0574 40.4399L30.0574 38.6536C30.0574 38.4534 30.0058 38.2977 29.9024 38.1866C29.8004 38.0743 29.657 38.0181 29.4723 38.0181C29.3483 38.0181 29.2372 38.0452 29.1391 38.0994C29.0422 38.1524 28.966 38.2293 28.9104 38.33C28.8562 38.4308 28.8291 38.5528 28.8291 38.6962ZM31.4738 40.4399L31.4738 37.4639L32.1751 37.4639L32.1751 40.4399L31.4738 40.4399ZM31.8264 37.0416C31.7153 37.0416 31.6197 37.0048 31.5396 36.9311C31.4595 36.8562 31.4195 36.7664 31.4195 36.6618C31.4195 36.5559 31.4595 36.4661 31.5396 36.3925C31.6197 36.3176 31.7153 36.2801 31.8264 36.2801C31.9388 36.2801 32.0343 36.3176 32.1131 36.3925C32.1932 36.4661 32.2333 36.5559 32.2333 36.6618C32.2333 36.7664 32.1932 36.8562 32.1131 36.9311C32.0343 37.0048 31.9388 37.0416 31.8264 37.0416ZM32.8964 41.5559L32.8964 37.4639L33.5861 37.4639L33.5861 37.9561L33.6268 37.9561C33.663 37.8837 33.714 37.8069 33.7799 37.7255C33.8457 37.6428 33.9349 37.5724 34.0472 37.5143C34.1596 37.4549 34.303 37.4252 34.4774 37.4252C34.7073 37.4252 34.9146 37.484 35.0993 37.6015C35.2853 37.7178 35.4326 37.8902 35.5411 38.1188C35.6508 38.3461 35.7057 38.6251 35.7057 38.9558C35.7057 39.2826 35.6521 39.5603 35.5449 39.7889C35.4377 40.0176 35.2918 40.1919 35.1071 40.3121C34.9223 40.4322 34.7131 40.4923 34.4793 40.4923C34.3088 40.4923 34.1674 40.4638 34.055 40.407C33.9426 40.3502 33.8522 40.2817 33.7837 40.2016C33.7166 40.1203 33.6643 40.0434 33.6268 39.9711L33.5977 39.9711L33.5977 41.5559L32.8964 41.5559ZM33.5842 38.9519C33.5842 39.1444 33.6113 39.313 33.6656 39.4576C33.7211 39.6023 33.8005 39.7153 33.9039 39.7967C34.0085 39.8768 34.1351 39.9168 34.2836 39.9168C34.4386 39.9168 34.5684 39.8755 34.6731 39.7928C34.7777 39.7089 34.8565 39.5945 34.9094 39.4499C34.9637 39.3039 34.9908 39.1379 34.9908 38.9519C34.9908 38.7672 34.9643 38.6032 34.9114 38.4598C34.8584 38.3164 34.7796 38.2041 34.675 38.1227C34.5704 38.0413 34.4399 38.0006 34.2836 38.0006C34.1338 38.0006 34.0066 38.04 33.9019 38.1188C33.7973 38.1976 33.7179 38.308 33.6636 38.4501C33.6107 38.5922 33.5842 38.7595 33.5842 38.9519ZM36.3064 40.4399L36.3064 37.4639L36.9767 37.4639L36.9767 37.9696L37.0116 37.9696C37.0736 37.7991 37.1763 37.6661 37.3197 37.5705C37.4631 37.4736 37.6342 37.4252 37.8331 37.4252C38.0346 37.4252 38.2045 37.4743 38.3427 37.5724C38.4822 37.6693 38.5803 37.8017 38.6372 37.9696L38.6682 37.9696C38.7341 37.8043 38.8451 37.6725 39.0014 37.5744C39.159 37.4749 39.3457 37.4252 39.5614 37.4252C39.8352 37.4252 40.0587 37.5117 40.2317 37.6848C40.4048 37.8579 40.4914 38.1104 40.4914 38.4424L40.4914 40.4399L39.7881 40.4399L39.7881 38.5509C39.7881 38.3662 39.739 38.2312 39.6408 38.1459C39.5426 38.0594 39.4225 38.0161 39.2804 38.0161C39.1112 38.0161 38.9788 38.0691 38.8832 38.175C38.7889 38.2796 38.7418 38.4159 38.7418 38.5838L38.7418 40.4399L38.054 40.4399L38.054 38.5218C38.054 38.3681 38.0075 38.2454 37.9145 38.1537C37.8228 38.062 37.7027 38.0161 37.5541 38.0161C37.4534 38.0161 37.3617 38.042 37.279 38.0936C37.1963 38.144 37.1304 38.2157 37.0814 38.3087C37.0323 38.4004 37.0077 38.5076 37.0077 38.6303L37.0077 40.4399L36.3064 40.4399ZM42.5204 40.4981C42.222 40.4981 41.9643 40.4361 41.7473 40.3121C41.5316 40.1868 41.3657 40.0098 41.2494 39.7812C41.1332 39.5513 41.075 39.2807 41.075 38.9694C41.075 38.6633 41.1332 38.3946 41.2494 38.1634C41.367 37.9309 41.531 37.75 41.7415 37.6209C41.9521 37.4904 42.1994 37.4252 42.4836 37.4252C42.667 37.4252 42.8401 37.4549 43.0028 37.5143C43.1669 37.5724 43.3116 37.6629 43.4368 37.7856C43.5634 37.9083 43.6629 38.0646 43.7352 38.2544C43.8076 38.443 43.8437 38.6678 43.8437 38.9287L43.8437 39.1438L41.4044 39.1438L41.4044 38.671L43.1714 38.671C43.1701 38.5367 43.1411 38.4172 43.0842 38.3126C43.0274 38.2066 42.948 38.1233 42.8459 38.0626C42.7452 38.0019 42.6276 37.9716 42.4933 37.9716C42.3499 37.9716 42.224 38.0064 42.1155 38.0762C42.007 38.1446 41.9224 38.2351 41.8617 38.3474C41.8022 38.4585 41.7719 38.5806 41.7706 38.7136L41.7706 39.1263C41.7706 39.2994 41.8022 39.4479 41.8655 39.5719C41.9288 39.6946 42.0173 39.7889 42.131 39.8548C42.2446 39.9194 42.3777 39.9517 42.5301 39.9517C42.6321 39.9517 42.7245 39.9375 42.8072 39.9091C42.8898 39.8794 42.9615 39.8361 43.0222 39.7793C43.0829 39.7224 43.1288 39.652 43.1598 39.5681L43.8147 39.6417C43.7733 39.8148 43.6945 39.9659 43.5783 40.0951C43.4633 40.2229 43.3161 40.3224 43.1365 40.3934C42.957 40.4632 42.7516 40.4981 42.5204 40.4981ZM45.1385 38.6962L45.1385 40.4399L44.4371 40.4399L44.4371 37.4639L45.1075 37.4639L45.1075 37.9696L45.1423 37.9696C45.2108 37.803 45.3199 37.6706 45.4698 37.5724C45.6209 37.4743 45.8075 37.4252 46.0297 37.4252C46.2351 37.4252 46.414 37.4691 46.5664 37.5569C46.7201 37.6448 46.8389 37.772 46.9229 37.9386C47.0081 38.1053 47.0501 38.3074 47.0488 38.5451L47.0488 40.4399L46.3475 40.4399L46.3475 38.6536C46.3475 38.4546 46.2958 38.299 46.1925 38.1866C46.0904 38.0743 45.949 38.0181 45.7681 38.0181C45.6454 38.0181 45.5363 38.0452 45.4407 38.0994C45.3464 38.1524 45.2721 38.2293 45.2179 38.33C45.1649 38.4308 45.1385 38.5528 45.1385 38.6962ZM49.2479 37.4639L49.2479 38.0064L47.5371 38.0064L47.5371 37.4639L49.2479 37.4639ZM47.9595 36.7509L48.6608 36.7509L48.6608 39.5448C48.6608 39.6391 48.675 39.7114 48.7035 39.7618C48.7332 39.8109 48.7719 39.8445 48.8197 39.8626C48.8675 39.8806 48.9205 39.8897 48.9786 39.8897C49.0225 39.8897 49.0625 39.8865 49.0987 39.88C49.1362 39.8735 49.1646 39.8677 49.184 39.8626L49.3021 40.4109C49.2647 40.4238 49.2111 40.438 49.1413 40.4535C49.0729 40.469 48.9889 40.478 48.8895 40.4806C48.7138 40.4858 48.5556 40.4593 48.4148 40.4012C48.274 40.3418 48.1622 40.2501 48.0796 40.1261C47.9982 40.0021 47.9582 39.8471 47.9595 39.6611L47.9595 36.7509ZM52.144 38.2506L51.5046 38.3203C51.4865 38.2557 51.4549 38.195 51.4097 38.1382C51.3657 38.0814 51.3063 38.0355 51.2314 38.0006C51.1565 37.9658 51.0648 37.9483 50.9563 37.9483C50.8103 37.9483 50.6876 37.98 50.5882 38.0433C50.49 38.1065 50.4416 38.1886 50.4428 38.2893C50.4416 38.3759 50.4732 38.4463 50.5378 38.5005C50.6037 38.5548 50.7122 38.5993 50.8633 38.6342L51.3709 38.7427C51.6525 38.8034 51.8617 38.8996 51.9987 39.0314C52.1369 39.1631 52.2066 39.3356 52.2079 39.5487C52.2066 39.736 52.1517 39.9013 52.0432 40.0447C51.936 40.1868 51.7868 40.2979 51.5957 40.3779C51.4045 40.458 51.1849 40.4981 50.9369 40.4981C50.5727 40.4981 50.2795 40.4219 50.0573 40.2694C49.8351 40.1157 49.7027 39.902 49.6601 39.6281L50.344 39.5623C50.375 39.6966 50.4409 39.798 50.5417 39.8664C50.6424 39.9349 50.7735 39.9691 50.935 39.9691C51.1016 39.9691 51.2353 39.9349 51.336 39.8664C51.4381 39.798 51.4891 39.7134 51.4891 39.6126C51.4891 39.5274 51.4562 39.457 51.3903 39.4014C51.3257 39.3459 51.225 39.3033 51.088 39.2736L50.5804 39.167C50.295 39.1076 50.0838 39.0075 49.9468 38.8667C49.8099 38.7246 49.7421 38.5451 49.7434 38.3281C49.7421 38.1446 49.7918 37.9858 49.8926 37.8514C49.9946 37.7158 50.1361 37.6112 50.3169 37.5376C50.499 37.4626 50.7089 37.4252 50.9466 37.4252C51.2953 37.4252 51.5698 37.4995 51.77 37.648C51.9715 37.7965 52.0962 37.9974 52.144 38.2506Z" fill="#472F92"/>
<path d="M10.1743 49.6095L10.1743 48.7521L12.6999 44.7619L13.4148 44.7619L13.4148 45.9825L12.9789 45.9825L11.2787 48.6766L11.2787 48.7231L14.804 48.7231L14.804 49.6095L10.1743 49.6095ZM13.0137 50.7139L13.0137 49.3479L13.0254 48.9643L13.0254 44.7619L14.0426 44.7619L14.0426 50.7139L13.0137 50.7139ZM15.7325 50.7139L15.7325 49.935L17.7989 47.9093C17.9965 47.7098 18.1612 47.5325 18.2929 47.3775C18.4247 47.2225 18.5235 47.0723 18.5894 46.927C18.6553 46.7817 18.6882 46.6267 18.6882 46.462C18.6882 46.2741 18.6456 46.1133 18.5603 45.9796C18.4751 45.844 18.3579 45.7393 18.2087 45.6657C18.0595 45.5921 17.8899 45.5553 17.7001 45.5553C17.5044 45.5553 17.3329 45.596 17.1857 45.6773C17.0384 45.7568 16.9241 45.8701 16.8427 46.0174C16.7633 46.1646 16.7236 46.34 16.7236 46.5434L15.6977 46.5434C15.6977 46.1656 15.7839 45.8372 15.9563 45.5582C16.1288 45.2792 16.3661 45.0631 16.6684 44.9101C16.9725 44.757 17.3213 44.6805 17.7146 44.6805C18.1137 44.6805 18.4644 44.7551 18.7667 44.9043C19.0689 45.0535 19.3034 45.2579 19.47 45.5175C19.6385 45.7771 19.7228 46.0736 19.7228 46.4068C19.7228 46.6296 19.6802 46.8486 19.5949 47.0636C19.5097 47.2787 19.3595 47.517 19.1445 47.7786C18.9314 48.0401 18.632 48.3569 18.2464 48.7289L17.2205 49.7722L17.2205 49.8129L19.8129 49.8129L19.8129 50.7139L15.7325 50.7139Z" fill="#101828"/>
<rect x="61.8291" y="14.9063" width="52.0257" height="41.1137" rx="4.66338" fill="white"/>
<rect x="61.8291" y="14.9063" width="52.0257" height="41.1137" rx="4.66338" stroke="#F3F4F6" stroke-width="0.488297"/>
<circle cx="71.4738" cy="25.233" r="5.797" fill="#2FB5C0"/>
<path d="M70.9218 26.4754L71.7499 26.7515C71.7499 26.7515 73.8203 26.3374 74.0963 26.3374C74.3724 26.3374 74.3724 26.6134 74.0963 26.8895C73.8203 27.1655 72.8541 27.9937 72.026 27.9937C71.1978 27.9937 70.6457 27.5796 70.0936 27.5796C69.5415 27.5796 68.7134 27.5796 68.7134 27.5796" stroke="white" stroke-width="0.5456" stroke-linecap="round" stroke-linejoin="round"/>
<path d="M68.7134 25.923C68.9894 25.647 69.5415 25.2329 70.0936 25.2329C70.6457 25.2329 71.9569 25.785 72.164 26.0611C72.371 26.3371 71.7499 26.7512 71.7499 26.7512" stroke="white" stroke-width="0.5456" stroke-linecap="round" stroke-linejoin="round"/>
<path d="M70.3696 24.4047L70.3696 23.3005C70.3696 23.148 70.4932 23.0244 70.6457 23.0244L73.9582 23.0244C74.1107 23.0244 74.2343 23.148 74.2343 23.3005L74.2343 25.5088" stroke="white" stroke-width="0.5456" stroke-linecap="round" stroke-linejoin="round"/>
<path d="M72.9921 23.0244L71.6118 23.0244L71.6118 24.2666L72.9921 24.2666L72.9921 23.0244Z" stroke="white" stroke-width="0.5456" stroke-linecap="round" stroke-linejoin="round"/>
<path d="M66.7874 36.4719L66.7874 40.4399L66.0686 40.4399L66.0686 36.4719L66.7874 36.4719ZM68.2362 38.6962L68.2362 40.4399L67.5348 40.4399L67.5348 37.4639L68.2052 37.4639L68.2052 37.9696L68.2401 37.9696C68.3085 37.803 68.4177 37.6706 68.5675 37.5724C68.7186 37.4743 68.9053 37.4252 69.1274 37.4252C69.3328 37.4252 69.5117 37.4691 69.6641 37.5569C69.8178 37.6448 69.9367 37.772 70.0206 37.9386C70.1059 38.1053 70.1479 38.3074 70.1466 38.5451L70.1466 40.4399L69.4452 40.4399L69.4452 38.6536C69.4452 38.4546 69.3935 38.299 69.2902 38.1866C69.1882 38.0743 69.0467 38.0181 68.8659 38.0181C68.7432 38.0181 68.634 38.0452 68.5384 38.0994C68.4442 38.1524 68.3699 38.2293 68.3156 38.33C68.2627 38.4308 68.2362 38.5528 68.2362 38.6962ZM72.6634 38.4986L72.6634 39.0759L70.877 39.0759L70.877 38.4986L72.6634 38.4986ZM73.0126 37.0745L73.0126 36.4719L76.1785 36.4719L76.1785 37.0745L74.9521 37.0745L74.9521 40.4399L74.2391 40.4399L74.2391 37.0745L73.0126 37.0745ZM76.4488 40.4399L76.4488 37.4639L77.1288 37.4639L77.1288 37.9599L77.1598 37.9599C77.2141 37.7881 77.3071 37.6558 77.4388 37.5628C77.5719 37.4685 77.7237 37.4213 77.8942 37.4213C77.9329 37.4213 77.9762 37.4233 78.024 37.4271C78.073 37.4297 78.1137 37.4342 78.146 37.4407L78.146 38.0859C78.1163 38.0755 78.0692 38.0665 78.0046 38.0588C77.9413 38.0497 77.8799 38.0452 77.8205 38.0452C77.6927 38.0452 77.5777 38.073 77.4757 38.1285C77.3749 38.1828 77.2955 38.2583 77.2373 38.3552C77.1792 38.4521 77.1502 38.5638 77.1502 38.6904L77.1502 40.4399L76.4488 40.4399ZM79.4151 40.5C79.2265 40.5 79.0567 40.4664 78.9055 40.3993C78.7557 40.3308 78.6369 40.23 78.549 40.097C78.4625 39.964 78.4192 39.7999 78.4192 39.6049C78.4192 39.437 78.4502 39.2981 78.5122 39.1883C78.5742 39.0785 78.6588 38.9907 78.766 38.9248C78.8732 38.8589 78.994 38.8092 79.1283 38.7756C79.264 38.7408 79.4041 38.7156 79.5488 38.7001C79.7232 38.682 79.8646 38.6658 79.9731 38.6516C80.0816 38.6361 80.1604 38.6129 80.2095 38.5819C80.2598 38.5496 80.285 38.4999 80.285 38.4327L80.285 38.4211C80.285 38.2751 80.2418 38.1621 80.1552 38.082C80.0687 38.0019 79.944 37.9619 79.7813 37.9619C79.6095 37.9619 79.4732 37.9993 79.3725 38.0743C79.273 38.1492 79.2058 38.2376 79.171 38.3397L78.5161 38.2467C78.5678 38.0659 78.653 37.9147 78.7718 37.7933C78.8907 37.6706 79.036 37.5789 79.2078 37.5182C79.3796 37.4562 79.5694 37.4252 79.7774 37.4252C79.9208 37.4252 80.0635 37.442 80.2056 37.4756C80.3477 37.5091 80.4775 37.5647 80.595 37.6422C80.7126 37.7184 80.8069 37.8224 80.8779 37.9541C80.9502 38.0859 80.9864 38.2506 80.9864 38.4482L80.9864 40.4399L80.3122 40.4399L80.3122 40.0311L80.2889 40.0311C80.2463 40.1138 80.1862 40.1913 80.1087 40.2636C80.0325 40.3347 79.9363 40.3921 79.82 40.4361C79.7051 40.4787 79.5701 40.5 79.4151 40.5ZM79.5972 39.9846C79.738 39.9846 79.8601 39.9569 79.9634 39.9013C80.0667 39.8445 80.1462 39.7696 80.2017 39.6766C80.2585 39.5836 80.287 39.4822 80.287 39.3724L80.287 39.0217C80.265 39.0398 80.2275 39.0566 80.1746 39.0721C80.1229 39.0876 80.0648 39.1011 80.0002 39.1128C79.9356 39.1244 79.8717 39.1347 79.8084 39.1438C79.7451 39.1528 79.6902 39.1605 79.6437 39.167C79.5391 39.1812 79.4454 39.2045 79.3628 39.2368C79.2801 39.269 79.2149 39.3143 79.1671 39.3724C79.1193 39.4292 79.0954 39.5028 79.0954 39.5933C79.0954 39.7224 79.1425 39.8199 79.2368 39.8858C79.3311 39.9517 79.4513 39.9846 79.5972 39.9846ZM82.393 38.6962L82.393 40.4399L81.6917 40.4399L81.6917 37.4639L82.362 37.4639L82.362 37.9696L82.3969 37.9696C82.4654 37.803 82.5745 37.6706 82.7243 37.5724C82.8755 37.4743 83.0621 37.4252 83.2843 37.4252C83.4897 37.4252 83.6685 37.4691 83.821 37.5569C83.9747 37.6448 84.0935 37.772 84.1775 37.9386C84.2627 38.1053 84.3047 38.3074 84.3034 38.5451L84.3034 40.4399L83.602 40.4399L83.602 38.6536C83.602 38.4546 83.5504 38.299 83.447 38.1866C83.345 38.0743 83.2035 38.0181 83.0227 38.0181C82.9 38.0181 82.7909 38.0452 82.6953 38.0994C82.601 38.1524 82.5267 38.2293 82.4725 38.33C82.4195 38.4308 82.393 38.5528 82.393 38.6962ZM87.3685 38.2506L86.7292 38.3203C86.7111 38.2557 86.6794 38.195 86.6342 38.1382C86.5903 38.0814 86.5309 38.0355 86.456 38.0006C86.381 37.9658 86.2893 37.9483 86.1808 37.9483C86.0349 37.9483 85.9122 37.98 85.8127 38.0433C85.7145 38.1065 85.6661 38.1886 85.6674 38.2893C85.6661 38.3759 85.6978 38.4463 85.7623 38.5005C85.8282 38.5548 85.9367 38.5993 86.0878 38.6342L86.5955 38.7427C86.877 38.8034 87.0863 38.8996 87.2232 39.0314C87.3614 39.1631 87.4312 39.3356 87.4325 39.5487C87.4312 39.736 87.3763 39.9013 87.2678 40.0447C87.1606 40.1868 87.0114 40.2979 86.8202 40.3779C86.629 40.458 86.4095 40.4981 86.1615 40.4981C85.7972 40.4981 85.504 40.4219 85.2818 40.2694C85.0597 40.1157 84.9273 39.902 84.8847 39.6281L85.5686 39.5623C85.5996 39.6966 85.6655 39.798 85.7662 39.8664C85.867 39.9349 85.9981 39.9691 86.1595 39.9691C86.3262 39.9691 86.4598 39.9349 86.5606 39.8664C86.6626 39.798 86.7137 39.7134 86.7137 39.6126C86.7137 39.5274 86.6807 39.457 86.6148 39.4014C86.5503 39.3459 86.4495 39.3033 86.3126 39.2736L85.805 39.167C85.5195 39.1076 85.3083 39.0075 85.1714 38.8667C85.0345 38.7246 84.9667 38.5451 84.968 38.3281C84.9667 38.1446 85.0164 37.9858 85.1172 37.8514C85.2192 37.7158 85.3606 37.6112 85.5415 37.5376C85.7236 37.4626 85.9335 37.4252 86.1712 37.4252C86.5199 37.4252 86.7944 37.4995 86.9946 37.648C87.1961 37.7965 87.3207 37.9974 87.3685 38.2506ZM88.0108 40.4399L88.0108 37.4639L88.7122 37.4639L88.7122 40.4399L88.0108 40.4399ZM88.3634 37.0416C88.2523 37.0416 88.1568 37.0048 88.0767 36.9311C87.9966 36.8562 87.9566 36.7664 87.9566 36.6618C87.9566 36.5559 87.9966 36.4661 88.0767 36.3925C88.1568 36.3176 88.2523 36.2801 88.3634 36.2801C88.4758 36.2801 88.5714 36.3176 88.6502 36.3925C88.7303 36.4661 88.7703 36.5559 88.7703 36.6618C88.7703 36.7664 88.7303 36.8562 88.6502 36.9311C88.5714 37.0048 88.4758 37.0416 88.3634 37.0416ZM90.9195 37.4639L90.9195 38.0064L89.2087 38.0064L89.2087 37.4639L90.9195 37.4639ZM89.631 36.7509L90.3324 36.7509L90.3324 39.5448C90.3324 39.6391 90.3466 39.7114 90.375 39.7618C90.4047 39.8109 90.4435 39.8445 90.4913 39.8626C90.5391 39.8806 90.592 39.8897 90.6502 39.8897C90.6941 39.8897 90.7341 39.8865 90.7703 39.88C90.8077 39.8735 90.8362 39.8677 90.8555 39.8626L90.9737 40.4109C90.9363 40.4238 90.8827 40.438 90.8129 40.4535C90.7445 40.469 90.6605 40.478 90.561 40.4806C90.3854 40.4858 90.2271 40.4593 90.0864 40.4012C89.9456 40.3418 89.8338 40.2501 89.7512 40.1261C89.6698 40.0021 89.6297 39.8471 89.631 39.6611L89.631 36.7509Z" fill="#2FB5C0"/>
<path d="M66.2062 50.7139L66.2062 49.935L68.2725 47.9093C68.4702 47.7098 68.6348 47.5325 68.7666 47.3775C68.8983 47.2225 68.9972 47.0723 69.063 46.927C69.1289 46.7817 69.1618 46.6267 69.1618 46.462C69.1618 46.2741 69.1192 46.1133 69.034 45.9796C68.9487 45.844 68.8315 45.7393 68.6823 45.6657C68.5331 45.5921 68.3636 45.5553 68.1737 45.5553C67.978 45.5553 67.8066 45.596 67.6593 45.6773C67.5121 45.7568 67.3977 45.8701 67.3164 46.0174C67.2369 46.1646 67.1972 46.34 67.1972 46.5434L66.1713 46.5434C66.1713 46.1656 66.2575 45.8372 66.43 45.5582C66.6024 45.2792 66.8397 45.0631 67.142 44.9101C67.4462 44.757 67.7949 44.6805 68.1882 44.6805C68.5874 44.6805 68.9381 44.7551 69.2403 44.9043C69.5426 45.0535 69.777 45.2579 69.9436 45.5175C70.1122 45.7771 70.1965 46.0736 70.1965 46.4068C70.1965 46.6296 70.1538 46.8486 70.0686 47.0636C69.9833 47.2787 69.8332 47.517 69.6181 47.7786C69.405 48.0401 69.1057 48.3569 68.7201 48.7289L67.6942 49.7722L67.6942 49.8129L70.2866 49.8129L70.2866 50.7139L66.2062 50.7139ZM71.0538 49.6095L71.0538 48.7521L73.5793 44.7619L74.2943 44.7619L74.2943 45.9825L73.8583 45.9825L72.1582 48.6766L72.1582 48.7231L75.6835 48.7231L75.6835 49.6095L71.0538 49.6095ZM73.8932 50.7139L73.8932 49.3479L73.9048 48.9643L73.9048 44.7619L74.922 44.7619L74.922 50.7139L73.8932 50.7139Z" fill="#101828"/>
<rect x="117.753" y="14.9063" width="52.0257" height="41.1137" rx="4.66338" fill="white"/>
<rect x="117.753" y="14.9063" width="52.0257" height="41.1137" rx="4.66338" stroke="#F3F4F6" stroke-width="0.488297"/>
<circle cx="127.398" cy="25.233" r="5.797" fill="#FF692E"/>
<g clip-path="url(#clip1_64_11690)">
<mask id="path-19-inside-1_64_11690" fill="white">
<path fill-rule="evenodd" clip-rule="evenodd" d="M129.07 27.8801L129.07 28.3445C129.07 28.4726 129.174 28.5766 129.302 28.5766C129.43 28.5766 129.534 28.4726 129.534 28.3445L129.534 27.8801C129.534 27.7519 129.43 27.6479 129.302 27.6479C129.174 27.6479 129.07 27.7519 129.07 27.8801ZM129.07 25.5582L129.07 26.0225C129.07 26.1507 129.174 26.2547 129.302 26.2547C129.43 26.2547 129.534 26.1507 129.534 26.0225L129.534 25.5582C129.534 25.43 129.43 25.326 129.302 25.326C129.174 25.326 129.07 25.43 129.07 25.5582ZM125.587 24.4746L126.898 24.4746C127.027 24.4746 127.131 24.3706 127.131 24.2425C127.131 24.1143 127.027 24.0103 126.898 24.0103L125.587 24.0103C125.459 24.0103 125.355 24.1143 125.355 24.2425C125.355 24.3706 125.459 24.4746 125.587 24.4746Z"/>
</mask>
<path fill-rule="evenodd" clip-rule="evenodd" d="M129.07 27.8801L129.07 28.3445C129.07 28.4726 129.174 28.5766 129.302 28.5766C129.43 28.5766 129.534 28.4726 129.534 28.3445L129.534 27.8801C129.534 27.7519 129.43 27.6479 129.302 27.6479C129.174 27.6479 129.07 27.7519 129.07 27.8801ZM129.07 25.5582L129.07 26.0225C129.07 26.1507 129.174 26.2547 129.302 26.2547C129.43 26.2547 129.534 26.1507 129.534 26.0225L129.534 25.5582C129.534 25.43 129.43 25.326 129.302 25.326C129.174 25.326 129.07 25.43 129.07 25.5582ZM125.587 24.4746L126.898 24.4746C127.027 24.4746 127.131 24.3706 127.131 24.2425C127.131 24.1143 127.027 24.0103 126.898 24.0103L125.587 24.0103C125.459 24.0103 125.355 24.1143 125.355 24.2425C125.355 24.3706 125.459 24.4746 125.587 24.4746Z" fill="white"/>
<path d="M128.524 27.8801L128.524 28.3445L129.616 28.3445L129.616 27.8801L128.524 27.8801ZM128.524 28.3445C128.524 28.774 128.873 29.1222 129.302 29.1222L129.302 28.031C129.475 28.031 129.616 28.1712 129.616 28.3445L128.524 28.3445ZM129.302 29.1222C129.732 29.1222 130.08 28.7739 130.08 28.3445L128.989 28.3445C128.989 28.1713 129.129 28.031 129.302 28.031L129.302 29.1222ZM130.08 28.3445L130.08 27.8801L128.989 27.8801L128.989 28.3445L130.08 28.3445ZM130.08 27.8801C130.08 27.4506 129.732 27.1023 129.302 27.1023L129.302 28.1935C129.129 28.1935 128.989 28.0533 128.989 27.8801L130.08 27.8801ZM129.302 27.1023C128.873 27.1023 128.524 27.4506 128.524 27.8801L129.616 27.8801C129.616 28.0533 129.475 28.1935 129.302 28.1935L129.302 27.1023ZM128.524 25.5582L128.524 26.0225L129.616 26.0225L129.616 25.5582L128.524 25.5582ZM128.524 26.0225C128.524 26.452 128.873 26.8003 129.302 26.8003L129.302 25.7091C129.475 25.7091 129.616 25.8494 129.616 26.0225L128.524 26.0225ZM129.302 26.8003C129.732 26.8003 130.08 26.452 130.08 26.0225L128.989 26.0225C128.989 25.8494 129.129 25.7091 129.302 25.7091L129.302 26.8003ZM130.08 26.0225L130.08 25.5582L128.989 25.5582L128.989 26.0225L130.08 26.0225ZM130.08 25.5582C130.08 25.1287 129.732 24.7804 129.302 24.7804L129.302 25.8716C129.129 25.8716 128.989 25.7313 128.989 25.5582L130.08 25.5582ZM129.302 24.7804C128.873 24.7804 128.524 25.1287 128.524 25.5582L129.616 25.5582C129.616 25.7314 129.475 25.8716 129.302 25.8716L129.302 24.7804ZM125.587 25.0202L126.898 25.0202L126.898 23.929L125.587 23.929L125.587 25.0202ZM126.898 25.0202C127.328 25.0202 127.676 24.6719 127.676 24.2425L126.585 24.2425C126.585 24.0693 126.725 23.929 126.898 23.929L126.898 25.0202ZM127.676 24.2425C127.676 23.813 127.328 23.4647 126.898 23.4647L126.898 24.5559C126.725 24.5559 126.585 24.4156 126.585 24.2425L127.676 24.2425ZM126.898 23.4647L125.587 23.4647L125.587 24.5559L126.898 24.5559L126.898 23.4647ZM125.587 23.4647C125.158 23.4647 124.809 23.813 124.809 24.2425L125.901 24.2425C125.901 24.4156 125.76 24.5559 125.587 24.5559L125.587 23.4647ZM124.809 24.2425C124.809 24.672 125.158 25.0202 125.587 25.0202L125.587 23.929C125.76 23.929 125.901 24.0692 125.901 24.2425L124.809 24.2425Z" fill="white" mask="url(#path-19-inside-1_64_11690)"/>
<mask id="path-21-inside-2_64_11690" fill="white">
<path fill-rule="evenodd" clip-rule="evenodd" d="M127.598 21.9205L125.897 21.9205C125.507 21.9205 125.133 22.0754 124.857 22.3512C124.581 22.627 124.426 23.001 124.426 23.391L124.426 27.1061C124.426 27.496 124.581 27.8701 124.857 28.1458C125.133 28.4216 125.507 28.5765 125.897 28.5765L128.219 28.5765C128.347 28.5765 128.451 28.4725 128.451 28.3444C128.451 28.2162 128.347 28.1122 128.219 28.1122L125.897 28.1122C125.63 28.1122 125.374 28.0062 125.185 27.8175C124.997 27.6288 124.891 27.3729 124.891 27.1061L124.891 23.391C124.891 23.1242 124.997 22.8683 125.185 22.6796C125.374 22.4909 125.63 22.3849 125.897 22.3849L127.367 22.3849L127.367 23.2362C127.367 23.7064 127.749 24.0875 128.219 24.0875L129.07 24.0875L129.07 24.8615C129.07 24.9896 129.174 25.0937 129.302 25.0937C129.43 25.0937 129.534 24.9896 129.534 24.8615L129.534 23.8569C129.534 23.8534 129.534 23.85 129.534 23.8466L129.534 23.8456L129.534 23.8452C129.532 23.7914 129.511 23.7423 129.478 23.704C129.477 23.703 129.476 23.7018 129.476 23.7008C129.475 23.7003 129.474 23.6996 129.474 23.6991L129.473 23.6982L129.472 23.6974C129.472 23.6969 129.472 23.6964 129.471 23.696L129.47 23.6951L129.47 23.6944C129.469 23.694 129.469 23.6933 129.468 23.6928L129.467 23.6921L129.466 23.6911L127.764 21.9884L127.763 21.9875L127.762 21.987L127.762 21.9868C127.762 21.9863 127.761 21.9859 127.761 21.9854L127.76 21.9845L127.759 21.9837C127.758 21.9833 127.758 21.9829 127.757 21.9824L127.757 21.9817L127.756 21.9808C127.755 21.9804 127.755 21.9799 127.754 21.9795C127.753 21.9786 127.752 21.9775 127.751 21.9765C127.713 21.9436 127.663 21.9229 127.61 21.9206L127.609 21.9206L127.608 21.9206C127.605 21.9205 127.601 21.9204 127.598 21.9204L127.598 21.9205ZM128.473 26.9512C128.482 26.9608 128.491 26.9702 128.5 26.9794C128.631 27.11 128.808 27.1834 128.993 27.1834L129.612 27.1834C129.673 27.1834 129.732 27.2078 129.776 27.2514C129.82 27.295 129.844 27.354 129.844 27.4156C129.844 27.4772 129.82 27.5362 129.776 27.5798C129.732 27.6233 129.673 27.6478 129.612 27.6478L128.838 27.6478C128.795 27.6478 128.76 27.6131 128.76 27.5704L128.76 27.5562C128.757 27.4811 128.725 27.4317 128.685 27.3994C128.644 27.3614 128.589 27.3382 128.528 27.3382C128.528 27.3382 128.296 27.3516 128.296 27.5704C128.296 27.8696 128.539 28.1122 128.838 28.1122L129.612 28.1122C129.797 28.1122 129.974 28.0388 130.104 27.9081C130.235 27.7775 130.308 27.6003 130.308 27.4156C130.308 27.2438 130.245 27.0786 130.131 26.9512C130.122 26.9416 130.114 26.9322 130.104 26.9231C129.974 26.7924 129.797 26.7191 129.612 26.7191L128.993 26.7191C128.931 26.7191 128.872 26.6946 128.828 26.651C128.785 26.6075 128.76 26.5484 128.76 26.4869C128.76 26.4253 128.785 26.3662 128.828 26.3227C128.872 26.2791 128.931 26.2547 128.993 26.2547L129.767 26.2547C129.809 26.2547 129.844 26.2893 129.844 26.3321L129.844 26.3463C129.848 26.4214 129.88 26.4707 129.919 26.503C129.961 26.541 130.016 26.5642 130.076 26.5642C130.076 26.5642 130.308 26.5508 130.308 26.3321C130.308 26.0328 130.066 25.7903 129.767 25.7903L128.993 25.7903C128.808 25.7903 128.631 25.8637 128.5 25.9943C128.369 26.1249 128.296 26.3021 128.296 26.4869C128.296 26.6586 128.36 26.8239 128.473 26.9512ZM125.587 26.3321L127.601 26.3321C127.729 26.3313 127.832 26.2275 127.832 26.0998C127.832 25.9717 127.728 25.8677 127.6 25.8677L125.587 25.8677C125.459 25.8677 125.355 25.9717 125.355 26.0998C125.355 26.228 125.459 26.3321 125.587 26.3321L125.587 26.3321ZM125.587 25.4033L128.22 25.4033C128.348 25.4025 128.451 25.2987 128.451 25.1711C128.451 25.0429 128.347 24.9389 128.219 24.9389L125.587 24.9389C125.459 24.9389 125.355 25.0429 125.355 25.1711C125.355 25.2992 125.459 25.4033 125.587 25.4033ZM127.832 22.7131L127.832 23.237C127.832 23.4503 128.005 23.6231 128.219 23.6231L128.742 23.6231L127.832 22.7131Z"/>
</mask>
<path fill-rule="evenodd" clip-rule="evenodd" d="M127.598 21.9205L125.897 21.9205C125.507 21.9205 125.133 22.0754 124.857 22.3512C124.581 22.627 124.426 23.001 124.426 23.391L124.426 27.1061C124.426 27.496 124.581 27.8701 124.857 28.1458C125.133 28.4216 125.507 28.5765 125.897 28.5765L128.219 28.5765C128.347 28.5765 128.451 28.4725 128.451 28.3444C128.451 28.2162 128.347 28.1122 128.219 28.1122L125.897 28.1122C125.63 28.1122 125.374 28.0062 125.185 27.8175C124.997 27.6288 124.891 27.3729 124.891 27.1061L124.891 23.391C124.891 23.1242 124.997 22.8683 125.185 22.6796C125.374 22.4909 125.63 22.3849 125.897 22.3849L127.367 22.3849L127.367 23.2362C127.367 23.7064 127.749 24.0875 128.219 24.0875L129.07 24.0875L129.07 24.8615C129.07 24.9896 129.174 25.0937 129.302 25.0937C129.43 25.0937 129.534 24.9896 129.534 24.8615L129.534 23.8569C129.534 23.8534 129.534 23.85 129.534 23.8466L129.534 23.8456L129.534 23.8452C129.532 23.7914 129.511 23.7423 129.478 23.704C129.477 23.703 129.476 23.7018 129.476 23.7008C129.475 23.7003 129.474 23.6996 129.474 23.6991L129.473 23.6982L129.472 23.6974C129.472 23.6969 129.472 23.6964 129.471 23.696L129.47 23.6951L129.47 23.6944C129.469 23.694 129.469 23.6933 129.468 23.6928L129.467 23.6921L129.466 23.6911L127.764 21.9884L127.763 21.9875L127.762 21.987L127.762 21.9868C127.762 21.9863 127.761 21.9859 127.761 21.9854L127.76 21.9845L127.759 21.9837C127.758 21.9833 127.758 21.9829 127.757 21.9824L127.757 21.9817L127.756 21.9808C127.755 21.9804 127.755 21.9799 127.754 21.9795C127.753 21.9786 127.752 21.9775 127.751 21.9765C127.713 21.9436 127.663 21.9229 127.61 21.9206L127.609 21.9206L127.608 21.9206C127.605 21.9205 127.601 21.9204 127.598 21.9204L127.598 21.9205ZM128.473 26.9512C128.482 26.9608 128.491 26.9702 128.5 26.9794C128.631 27.11 128.808 27.1834 128.993 27.1834L129.612 27.1834C129.673 27.1834 129.732 27.2078 129.776 27.2514C129.82 27.295 129.844 27.354 129.844 27.4156C129.844 27.4772 129.82 27.5362 129.776 27.5798C129.732 27.6233 129.673 27.6478 129.612 27.6478L128.838 27.6478C128.795 27.6478 128.76 27.6131 128.76 27.5704L128.76 27.5562C128.757 27.4811 128.725 27.4317 128.685 27.3994C128.644 27.3614 128.589 27.3382 128.528 27.3382C128.528 27.3382 128.296 27.3516 128.296 27.5704C128.296 27.8696 128.539 28.1122 128.838 28.1122L129.612 28.1122C129.797 28.1122 129.974 28.0388 130.104 27.9081C130.235 27.7775 130.308 27.6003 130.308 27.4156C130.308 27.2438 130.245 27.0786 130.131 26.9512C130.122 26.9416 130.114 26.9322 130.104 26.9231C129.974 26.7924 129.797 26.7191 129.612 26.7191L128.993 26.7191C128.931 26.7191 128.872 26.6946 128.828 26.651C128.785 26.6075 128.76 26.5484 128.76 26.4869C128.76 26.4253 128.785 26.3662 128.828 26.3227C128.872 26.2791 128.931 26.2547 128.993 26.2547L129.767 26.2547C129.809 26.2547 129.844 26.2893 129.844 26.3321L129.844 26.3463C129.848 26.4214 129.88 26.4707 129.919 26.503C129.961 26.541 130.016 26.5642 130.076 26.5642C130.076 26.5642 130.308 26.5508 130.308 26.3321C130.308 26.0328 130.066 25.7903 129.767 25.7903L128.993 25.7903C128.808 25.7903 128.631 25.8637 128.5 25.9943C128.369 26.1249 128.296 26.3021 128.296 26.4869C128.296 26.6586 128.36 26.8239 128.473 26.9512ZM125.587 26.3321L127.601 26.3321C127.729 26.3313 127.832 26.2275 127.832 26.0998C127.832 25.9717 127.728 25.8677 127.6 25.8677L125.587 25.8677C125.459 25.8677 125.355 25.9717 125.355 26.0998C125.355 26.228 125.459 26.3321 125.587 26.3321L125.587 26.3321ZM125.587 25.4033L128.22 25.4033C128.348 25.4025 128.451 25.2987 128.451 25.1711C128.451 25.0429 128.347 24.9389 128.219 24.9389L125.587 24.9389C125.459 24.9389 125.355 25.0429 125.355 25.1711C125.355 25.2992 125.459 25.4033 125.587 25.4033ZM127.832 22.7131L127.832 23.237C127.832 23.4503 128.005 23.6231 128.219 23.6231L128.742 23.6231L127.832 22.7131Z" fill="white" stroke="white" stroke-width="1.0912" mask="url(#path-21-inside-2_64_11690)"/>
</g>
<path d="M122.502 40.4399L121.735 40.4399L123.132 36.4719L124.019 36.4719L125.418 40.4399L124.651 40.4399L123.591 37.2857L123.56 37.2857L122.502 40.4399ZM122.527 38.8841L124.62 38.8841L124.62 39.4615L122.527 39.4615L122.527 38.8841ZM125.91 40.4399L125.91 37.4639L126.58 37.4639L126.58 37.9696L126.615 37.9696C126.677 37.7991 126.78 37.6661 126.923 37.5705C127.066 37.4736 127.237 37.4252 127.436 37.4252C127.638 37.4252 127.808 37.4743 127.946 37.5724C128.085 37.6693 128.184 37.8017 128.24 37.9696L128.271 37.9696C128.337 37.8043 128.448 37.6725 128.605 37.5744C128.762 37.4749 128.949 37.4252 129.165 37.4252C129.438 37.4252 129.662 37.5117 129.835 37.6848C130.008 37.8579 130.095 38.1104 130.095 38.4424L130.095 40.4399L129.391 40.4399L129.391 38.5509C129.391 38.3662 129.342 38.2312 129.244 38.1459C129.146 38.0594 129.026 38.0161 128.884 38.0161C128.714 38.0161 128.582 38.0691 128.486 38.175C128.392 38.2796 128.345 38.4159 128.345 38.5838L128.345 40.4399L127.657 40.4399L127.657 38.5218C127.657 38.3681 127.611 38.2454 127.518 38.1537C127.426 38.062 127.306 38.0161 127.157 38.0161C127.057 38.0161 126.965 38.042 126.882 38.0936C126.8 38.144 126.734 38.2157 126.685 38.3087C126.636 38.4004 126.611 38.5076 126.611 38.6303L126.611 40.4399L125.91 40.4399ZM132.104 40.4981C131.814 40.4981 131.562 40.4341 131.349 40.3063C131.136 40.1784 130.97 39.9995 130.853 39.7696C130.736 39.5396 130.678 39.271 130.678 38.9636C130.678 38.6561 130.736 38.3868 130.853 38.1556C130.97 37.9244 131.136 37.7449 131.349 37.617C131.562 37.4891 131.814 37.4252 132.104 37.4252C132.395 37.4252 132.647 37.4891 132.86 37.617C133.073 37.7449 133.238 37.9244 133.354 38.1556C133.471 38.3868 133.53 38.6561 133.53 38.9636C133.53 39.271 133.471 39.5396 133.354 39.7696C133.238 39.9995 133.073 40.1784 132.86 40.3063C132.647 40.4341 132.395 40.4981 132.104 40.4981ZM132.108 39.9362C132.266 39.9362 132.397 39.8929 132.503 39.8064C132.609 39.7185 132.688 39.601 132.74 39.4538C132.793 39.3065 132.819 39.1425 132.819 38.9616C132.819 38.7795 132.793 38.6148 132.74 38.4676C132.688 38.319 132.609 38.2008 132.503 38.113C132.397 38.0252 132.266 37.9813 132.108 37.9813C131.947 37.9813 131.812 38.0252 131.705 38.113C131.599 38.2008 131.52 38.319 131.467 38.4676C131.415 38.6148 131.389 38.7795 131.389 38.9616C131.389 39.1425 131.415 39.3065 131.467 39.4538C131.52 39.601 131.599 39.7185 131.705 39.8064C131.812 39.8929 131.947 39.9362 132.108 39.9362ZM136.022 39.1883L136.022 37.4639L136.724 37.4639L136.724 40.4399L136.044 40.4399L136.044 39.911L136.013 39.911C135.946 40.0776 135.835 40.2139 135.681 40.3198C135.529 40.4257 135.341 40.4787 135.118 40.4787C134.923 40.4787 134.75 40.4354 134.6 40.3489C134.452 40.261 134.335 40.1338 134.251 39.9672C134.168 39.7993 134.126 39.5965 134.126 39.3588L134.126 37.4639L134.827 37.4639L134.827 39.2503C134.827 39.4389 134.879 39.5887 134.982 39.6998C135.085 39.8109 135.221 39.8664 135.389 39.8664C135.492 39.8664 135.592 39.8413 135.689 39.7909C135.786 39.7405 135.865 39.6656 135.927 39.5661C135.991 39.4654 136.022 39.3394 136.022 39.1883ZM138.146 38.6962L138.146 40.4399L137.445 40.4399L137.445 37.4639L138.115 37.4639L138.115 37.9696L138.15 37.9696C138.219 37.803 138.328 37.6706 138.478 37.5724C138.629 37.4743 138.815 37.4252 139.038 37.4252C139.243 37.4252 139.422 37.4691 139.574 37.5569C139.728 37.6448 139.847 37.772 139.931 37.9386C140.016 38.1053 140.058 38.3074 140.057 38.5451L140.057 40.4399L139.355 40.4399L139.355 38.6536C139.355 38.4546 139.304 38.299 139.2 38.1866C139.098 38.0743 138.957 38.0181 138.776 38.0181C138.653 38.0181 138.544 38.0452 138.449 38.0994C138.354 38.1524 138.28 38.2293 138.226 38.33C138.173 38.4308 138.146 38.5528 138.146 38.6962ZM142.256 37.4639L142.256 38.0064L140.545 38.0064L140.545 37.4639L142.256 37.4639ZM140.967 36.7509L141.669 36.7509L141.669 39.5448C141.669 39.6391 141.683 39.7114 141.711 39.7618C141.741 39.8109 141.78 39.8445 141.828 39.8626C141.875 39.8806 141.928 39.8897 141.986 39.8897C142.03 39.8897 142.07 39.8865 142.107 39.88C142.144 39.8735 142.172 39.8677 142.192 39.8626L142.31 40.4109C142.273 40.4238 142.219 40.438 142.149 40.4535C142.081 40.469 141.997 40.478 141.897 40.4806C141.722 40.4858 141.563 40.4593 141.423 40.4012C141.282 40.3418 141.17 40.2501 141.087 40.1261C141.006 40.0021 140.966 39.8471 140.967 39.6611L140.967 36.7509ZM145.571 40.4399L144.227 40.4399L144.227 36.4719L145.598 36.4719C145.992 36.4719 146.331 36.5514 146.614 36.7103C146.898 36.8678 147.116 37.0945 147.269 37.3903C147.421 37.6861 147.497 38.04 147.497 38.4521C147.497 38.8654 147.42 39.2206 147.267 39.5177C147.114 39.8148 146.894 40.0428 146.606 40.2016C146.319 40.3605 145.974 40.4399 145.571 40.4399ZM144.946 39.818L145.536 39.818C145.813 39.818 146.043 39.7676 146.228 39.6669C146.413 39.5648 146.552 39.4131 146.645 39.2116C146.738 39.0088 146.784 38.7556 146.784 38.4521C146.784 38.1485 146.738 37.8966 146.645 37.6964C146.552 37.4949 146.414 37.3445 146.232 37.245C146.051 37.1443 145.826 37.0939 145.558 37.0939L144.946 37.0939L144.946 39.818ZM150.046 39.1883L150.046 37.4639L150.747 37.4639L150.747 40.4399L150.067 40.4399L150.067 39.911L150.036 39.911C149.969 40.0776 149.859 40.2139 149.705 40.3198C149.553 40.4257 149.365 40.4787 149.141 40.4787C148.946 40.4787 148.774 40.4354 148.624 40.3489C148.475 40.261 148.359 40.1338 148.275 39.9672C148.191 39.7993 148.149 39.5965 148.149 39.3588L148.149 37.4639L148.851 37.4639L148.851 39.2503C148.851 39.4389 148.902 39.5887 149.006 39.6998C149.109 39.8109 149.245 39.8664 149.412 39.8664C149.516 39.8664 149.616 39.8413 149.713 39.7909C149.81 39.7405 149.889 39.6656 149.951 39.5661C150.014 39.4654 150.046 39.3394 150.046 39.1883ZM152.786 40.4981C152.488 40.4981 152.23 40.4361 152.013 40.3121C151.797 40.1868 151.631 40.0098 151.515 39.7812C151.399 39.5513 151.341 39.2807 151.341 38.9694C151.341 38.6633 151.399 38.3946 151.515 38.1634C151.633 37.9309 151.797 37.75 152.007 37.6209C152.218 37.4904 152.465 37.4252 152.749 37.4252C152.933 37.4252 153.106 37.4549 153.269 37.5143C153.433 37.5724 153.577 37.6629 153.703 37.7856C153.829 37.9083 153.929 38.0646 154.001 38.2544C154.073 38.443 154.109 38.6678 154.109 38.9287L154.109 39.1438L151.67 39.1438L151.67 38.671L153.437 38.671C153.436 38.5367 153.407 38.4172 153.35 38.3126C153.293 38.2066 153.214 38.1233 153.112 38.0626C153.011 38.0019 152.893 37.9716 152.759 37.9716C152.616 37.9716 152.49 38.0064 152.381 38.0762C152.273 38.1446 152.188 38.2351 152.127 38.3474C152.068 38.4585 152.038 38.5806 152.036 38.7136L152.036 39.1263C152.036 39.2994 152.068 39.4479 152.131 39.5719C152.195 39.6946 152.283 39.7889 152.397 39.8548C152.51 39.9194 152.643 39.9517 152.796 39.9517C152.898 39.9517 152.99 39.9375 153.073 39.9091C153.156 39.8794 153.227 39.8361 153.288 39.7793C153.349 39.7224 153.394 39.652 153.425 39.5681L154.08 39.6417C154.039 39.8148 153.96 39.9659 153.844 40.0951C153.729 40.2229 153.582 40.3224 153.402 40.3934C153.223 40.4632 153.017 40.4981 152.786 40.4981Z" fill="#EA580C"/>
<path d="M124.048 51.4579L124.048 44.0179L124.525 44.0179L124.525 51.4579L124.048 51.4579ZM125.423 46.3981C125.396 46.1443 125.281 45.9466 125.08 45.8052C124.88 45.6638 124.621 45.5931 124.301 45.5931C124.076 45.5931 123.883 45.627 123.723 45.6948C123.562 45.7626 123.439 45.8546 123.354 45.9709C123.268 46.0871 123.225 46.2198 123.223 46.369C123.223 46.493 123.251 46.6006 123.307 46.6916C123.365 46.7827 123.444 46.8602 123.542 46.9241C123.641 46.9861 123.751 47.0384 123.871 47.0811C123.991 47.1237 124.112 47.1595 124.234 47.1886L124.792 47.3281C125.017 47.3804 125.233 47.4511 125.44 47.5402C125.649 47.6294 125.836 47.7417 126.001 47.8774C126.168 48.013 126.3 48.1767 126.396 48.3685C126.493 48.5603 126.542 48.7851 126.542 49.0428C126.542 49.3915 126.453 49.6986 126.274 49.9641C126.096 50.2276 125.838 50.4339 125.501 50.5831C125.166 50.7303 124.76 50.804 124.284 50.804C123.82 50.804 123.418 50.7323 123.077 50.5889C122.738 50.4455 122.473 50.2363 122.281 49.9611C122.091 49.686 121.989 49.3508 121.973 48.9556L123.034 48.9556C123.049 49.1629 123.113 49.3353 123.226 49.4729C123.338 49.6105 123.484 49.7131 123.665 49.781C123.847 49.8488 124.05 49.8827 124.275 49.8827C124.509 49.8827 124.715 49.8478 124.891 49.7781C125.069 49.7064 125.209 49.6076 125.309 49.4816C125.41 49.3537 125.462 49.2046 125.463 49.0341C125.462 48.8791 125.416 48.7512 125.327 48.6504C125.238 48.5477 125.113 48.4625 124.952 48.3947C124.793 48.3249 124.607 48.2629 124.394 48.2087L123.717 48.0343C123.227 47.9084 122.839 47.7175 122.554 47.4618C122.271 47.2041 122.13 46.8621 122.13 46.4359C122.13 46.0852 122.225 45.7781 122.415 45.5146C122.607 45.2511 122.867 45.0467 123.197 44.9014C123.526 44.7541 123.899 44.6805 124.316 44.6805C124.738 44.6805 125.108 44.7541 125.426 44.9014C125.745 45.0467 125.996 45.2491 126.178 45.5088C126.361 45.7665 126.455 46.0629 126.46 46.3981L125.423 46.3981ZM129.581 50.7952C129.162 50.7952 128.79 50.7236 128.465 50.5802C128.141 50.4368 127.886 50.2372 127.698 49.9815C127.51 49.7257 127.41 49.4303 127.398 49.0951L128.491 49.0951C128.501 49.2559 128.554 49.3964 128.651 49.5165C128.748 49.6347 128.877 49.7267 129.037 49.7926C129.198 49.8585 129.378 49.8914 129.578 49.8914C129.791 49.8914 129.98 49.8546 130.145 49.781C130.309 49.7054 130.438 49.6008 130.531 49.4671C130.624 49.3334 130.67 49.1794 130.668 49.005C130.67 48.8248 130.623 48.6659 130.528 48.5284C130.433 48.3908 130.296 48.2833 130.116 48.2058C129.937 48.1283 129.722 48.0895 129.47 48.0895L128.944 48.0895L128.944 47.2583L129.47 47.2583C129.678 47.2583 129.859 47.2225 130.014 47.1508C130.171 47.0791 130.294 46.9784 130.383 46.8486C130.472 46.7168 130.516 46.5647 130.514 46.3923C130.516 46.2237 130.478 46.0774 130.4 45.9534C130.325 45.8275 130.217 45.7296 130.078 45.6599C129.94 45.5901 129.779 45.5553 129.593 45.5553C129.41 45.5553 129.242 45.5882 129.087 45.6541C128.932 45.72 128.807 45.8139 128.712 45.936C128.617 46.0561 128.567 46.1995 128.561 46.3661L127.523 46.3661C127.531 46.0329 127.627 45.7403 127.811 45.4884C127.997 45.2346 128.245 45.037 128.555 44.8956C128.865 44.7522 129.213 44.6805 129.598 44.6805C129.996 44.6805 130.34 44.7551 130.633 44.9043C130.927 45.0515 131.155 45.2501 131.316 45.5001C131.477 45.75 131.557 46.0261 131.557 46.3283C131.559 46.6635 131.46 46.9445 131.261 47.1711C131.063 47.3978 130.803 47.5461 130.482 47.6158L130.482 47.6623C130.9 47.7204 131.221 47.8754 131.444 48.1273C131.669 48.3772 131.78 48.6882 131.778 49.0602C131.778 49.3935 131.683 49.6918 131.493 49.9553C131.305 50.2169 131.046 50.4223 130.714 50.5715C130.385 50.7206 130.007 50.7952 129.581 50.7952ZM133.746 49.3131L133.743 48.043L133.912 48.043L135.516 46.2499L136.746 46.2499L134.772 48.447L134.554 48.447L133.746 49.3131ZM132.787 50.7139L132.787 44.7619L133.839 44.7619L133.839 50.7139L132.787 50.7139ZM135.589 50.7139L134.136 48.6824L134.845 47.9413L136.847 50.7139L135.589 50.7139Z" fill="#101828"/>
<rect x="5.90528" y="59.7803" width="64.9454" height="60.0379" rx="4.66338" fill="white"/>
<rect x="5.90528" y="59.7803" width="64.9454" height="60.0379" rx="4.66338" stroke="#F3F4F6" stroke-width="0.488297"/>
<path d="M23.9745 81.8429L23.52 83.2333L24.8933 84.7662L26.7553 87.1225L27.2952 87.1225L27.6072 87.4914L28.0616 88.2265L29.7924 88.8818L31.4481 89.2221L31.6662 89.7963L31.6662 91.265L31.5621 94.8764L35.5596 94.7411L35.5596 94.3307L36.4643 91.634L36.8332 91.5214L36.6339 90.9529L36.8332 90.8959L37.2292 91.0099L37.5982 90.2725L36.4073 90.0175L35.1863 89.7967L34.4199 89.3921L34.5624 89.0287L36.2406 89.4776L37.1453 89.7965L37.5984 89.7965L37.8549 89.194L38.58 89.0287L38.9904 87.718L38.4219 87.4631L37.6271 87.4346L36.8336 86.7878L37.2025 86.5828L38.167 87.1227L38.7626 87.3208L39.3025 86.4974L38.8481 85.9874L39.103 85.7024L40.0974 85.8449L39.331 85.1074L39.6714 84.8525L40.5233 85.6745L40.9492 84.2841L40.0974 83.2341L40.0689 82.9792L40.5233 82.7226L40.4948 82.553L40.1829 82.553L40.21 82.1841L40.438 82.0416L39.6716 81.6156L39.2457 81.7582L38.6787 81.6156L38.4221 82.0131L39.1032 82.2696L39.1032 82.7796L38.7913 82.8651L38.9053 84.596L38.5804 85.3624L37.8553 84.596L37.5988 83.6315L37.8553 83.4605L37.2027 82.6656L37.1172 83.9149L36.8338 84.0004L36.492 82.4675L35.9538 82.496L35.3569 81.6156L35.8968 81.2752L34.988 79.8003L34.3354 79.8003L34.3639 80.1977L34.0805 80.2547L34.2786 80.9643L34.1375 81.6168L34.3639 82.0998L34.988 82.2979L35.3854 82.2708L35.5606 82.6668L35.1588 82.9802L35.5606 83.1498L35.5606 83.7467L35.0165 84.5972L34.6475 84.5972L34.7045 85.1371L34.9326 85.7327L34.676 85.9037L34.3926 85.7897L34.223 84.8252L34.2786 84.1441L33.9667 84.3706L33.6547 83.9446L33.2858 84.1156L33.9384 84.9091L33.7973 85.0801L33.3998 84.7397L32.8884 85.0231L32.2358 84.8535L31.5633 85.0799L31.2315 84.597L30.6459 84.597L30.2485 83.8306L29.794 84.2851L29.227 84.597L29.3695 85.8748L29.113 85.9318L29.284 86.6129L28.4891 85.647L28.7725 85.3636L28.7155 84.9946L28.4036 85.2511L28.2896 84.3993L27.4961 84.3138L26.4946 84.4563L25.5943 84.0018L25.5658 83.4334L26.4946 83.4619L26.4946 83.15L25.9062 82.4125L25.5088 82.8384L24.7424 81.8455L23.9745 81.8429Z" fill="#E6E9F4"/>
<path d="M33.5845 82.2798L32.915 83.4537L34.3282 83.7657L34.5903 83.2855L33.5845 82.2798Z" fill="#E6E9F4"/>
<path d="M31.9557 81.6336L30.8772 80.5794L30.6863 78.3286L30.2546 77.8257L29.8958 77.8257L30.135 79.1663L29.7276 79.7989L29.4884 79.6707L29.3204 78.2817L29.0084 77.8273L29.0328 78.836L28.6491 81.6583L28.2658 81.8263L27.7874 81.5871L27.1648 81.9945L27.0693 81.5162L26.0877 81.277C26.0632 81.5638 26.0632 81.8521 26.0877 82.1388L26.8299 82.2827L26.8299 83.193L27.1887 83.4808L28.5066 83.4808L29.6805 82.3796L30.1122 82.3796L30.1122 82.9068L30.4955 83.1703L31.5627 83.1946L31.765 82.7629L31.2137 82.787L31.0941 82.2841L31.7652 82.0691L32.0043 82.2841L32.2337 81.9493L31.9557 81.6384L31.9557 81.6336Z" fill="#E6E9F4"/>
<path d="M25.8481 81.9696L25.8481 81.1548L27.0932 81.1548L27.3082 81.5622L27.5961 81.2987L28.1232 81.4183C28.1232 81.4183 28.4111 81.5379 28.4111 81.4426C28.4111 81.3473 28.8655 78.5924 28.8655 78.5924L28.2428 78.5924L28.4109 78.0184L28.0989 77.8275L27.4763 78.2348L27.3567 77.8275L27.6445 77.6835L27.6445 77.1558L26.3039 77.6341L26.0673 78.3776L25.5132 78.8348L26.0673 78.9289L25.8493 79.2876L27.1899 79.1922L26.9507 79.5641L25.7526 79.5641L26.0659 80.1995L26.6615 80.5343L27.6915 80.51L28.146 80.9417L27.8825 81.1327L27.0677 80.9417L25.5112 80.9417L25.8461 81.9718L25.8481 81.9696Z" fill="#E6E9F4"/>
<path d="M28.8662 83.7659L29.8963 83.3101L29.8963 83.6463L28.986 84.1247L28.8662 83.7659Z" fill="#E6E9F4"/>
<path d="M23.8848 79.0706L24.1497 78.6646L25.0828 78.8342L25.0828 77.7057L25.4177 77.8253L25.8251 77.3469L27.3337 76.7713L26.9034 75.695L26.3521 75.695L25.9457 75.167L25.0354 74.999L24.749 75.3823L24.7239 75.9099L23.52 77.323L23.8618 78.2817L23.8848 79.0706Z" fill="#E6E9F4"/>
<path d="M39.5415 86.6836C39.5614 86.742 39.6697 89.349 39.6697 89.349L40.1255 89.2522L40.2224 89.7979L40.5528 89.7979L41.1954 88.2408L41.838 88.8234L42.5191 88.8619L42.5191 88.2392L41.9749 88.5697L41.3523 87.6365L40.8081 87.5582L40.264 87.0326L40.0689 87.4414L39.8738 87.4613L39.5433 86.684L39.5415 86.6836Z" fill="#E6E9F4"/>
<path d="M42.0702 89.7964L41.4292 90.2038L41.6044 90.9233L42.0702 90.7296L42.0702 89.7964Z" fill="#E6E9F4"/>
<path d="M43.5886 90.127L43.4717 90.7102L43.7839 90.9241L43.9208 90.5262L43.5886 90.127Z" fill="#E6E9F4"/>
<path d="M49.8336 87.2283L48.5686 86.6842L48.335 86.1201L49.3465 86.1201L50.7283 86.3736L50.6899 85.9264L50.1643 85.3239L50.4563 85.1871L49.9891 84.7598L49.5618 84.9735L49.5024 84.6227L47.1106 83.6313L46.9938 83.3207L47.6547 83.3207L47.2659 82.9518L47.5194 82.7182L47.5579 82.3878L48.2004 82.835C48.2004 82.835 48.2389 82.4661 48.2973 82.4846C48.3557 82.5032 48.511 82.563 48.511 82.563L48.5309 82.6997L48.726 82.077L48.9796 82.077L49.0964 82.5628L48.746 82.9901L49.2901 83.3405L49.9128 83.4188L49.8544 82.9132L49.5823 82.6026L49.5624 82.389L50.0481 82.5442L49.6977 82.077L50.1065 81.9602L49.6977 81.805L49.5809 81.5714L49.9897 81.3577L49.8344 80.9888L49.2502 81.4161L48.9198 81.5329L48.6862 81.6696L48.783 80.9886L48.1989 81.319L47.9069 81.2991L47.9453 80.9886L48.1989 80.8718L47.5963 80.7165L47.0109 81.047L46.4084 80.5997L45.8242 80.7165L45.9026 79.9571L45.4938 80.4044L45.1049 80.0355L46.058 79.5099L45.008 79.8048L45.0465 79.5099L45.5322 78.9073L45.1818 78.7321L44.9682 79.2577L44.6961 79.5882L44.7744 79.1025L44.5209 79.3945L44.4041 79.2577L44.424 78.363L43.6467 79.0441L43.5299 78.7521L43.1795 79.0056L42.8291 78.7136L43.2963 77.9363L42.7522 77.7995L42.7522 78.422L42.4217 78.2269L42.2465 78.4605L42.0713 78.4405L41.8762 78.4989L41.7979 77.6419L41.2707 77.9142L41.1924 77.6421L41.3305 77.2148L40.4934 77.2148L40.1629 77.5837L40.4934 77.7589L40.2598 77.9142L40.4734 78.1477L40.2783 78.4013L39.9863 77.9925L39.6359 78.1677L39.6359 78.5565L39.4807 78.5366L38.5762 76.397L38.2357 76.6505L38.2357 77.0009L37.8853 77.1376L38.1773 77.2345L37.9637 77.4482L38.1389 77.4482L38.1004 77.6618L37.8867 77.7786L37.7699 78.129L38.2172 78.0122L38.3924 78.6731L37.9067 78.5563L37.8682 78.8483L38.277 79.0435L38.4522 79.6075L38.3938 80.0349L38.0434 80.2101L37.8881 79.804L38.1417 79.5091L37.8696 79.237L37.2671 78.4776L37.4038 76.8432L37.0349 76.8632L36.5093 78.1667L36.5093 79.2565L36.6645 79.8037L37.3655 79.9761L37.7929 80.345L37.5977 80.4233L36.8583 80.3265L37.3055 81.046L38.0251 80.677L38.1803 81.1044L39.7559 81.2012L39.2887 80.5202L40.0282 80.6171L41.0596 80.5587L40.6124 80.3051L40.6323 79.8023L41.0995 79.2936C41.0995 79.2936 41.0796 79.9747 41.1379 79.9747C41.1963 79.9747 41.702 79.9946 41.702 79.9946L41.5268 80.8516L41.9356 80.2491L42.1307 80.4827L41.994 81.0468L42.4413 80.6194L42.7917 81.2806L42.6165 81.8648L43.219 81.2038L43.5495 81.3206L43.511 81.7679L43.803 81.2423L43.9981 81.728L44.4653 81.8249L44.8741 82.7581L45.2245 83.2637L45.1661 83.9448L44.6804 84.4505C44.7388 84.4505 45.4198 85.3651 45.4198 85.3651L45.2247 85.5602L45.0495 85.4235L44.6806 86.0077L43.5722 86.0077L43.377 86.5919L43.9212 87.3441L44.5821 87.136L44.8157 86.6888L45.263 86.6888L44.8157 86.3198L45.243 86.0862L45.4182 86.4751L45.8071 86.28L46.6243 86.9409L46.9348 86.6874L47.4989 86.9794L47.4205 87.3427L48.5489 87.5052L49.6188 87.7971L50.8439 87.6419L50.8439 87.3441L49.8324 87.2345L49.8336 87.2283Z" fill="#E6E9F4"/>
<path d="M42.8101 82.5581L43.3357 82.3843L43.8612 83.2214L43.5296 83.7057L42.8302 83.4337L42.8101 82.5581Z" fill="#E6E9F4"/>
<path d="M43.8622 82.1895C43.8423 82.2679 44.1546 82.6173 44.1546 82.6173L44.2914 82.3834L44.2914 81.9941L43.8636 82.1895L43.8622 82.1895Z" fill="#E6E9F4"/>
<path d="M39.0708 76.3921C39.1192 76.4278 39.6705 77.1557 39.6705 77.1557L40.7618 76.6655L39.6707 76.3921L39.0708 76.3921Z" fill="#E6E9F4"/>
<path d="M34.0815 77.1537C34.0987 77.2877 34.4463 79.2308 34.4463 79.2308L34.9663 78.8322L34.5902 78.1926C34.842 78.1485 35.0898 78.0837 35.331 77.9988C35.3667 77.9462 35.747 76.6967 35.747 76.6967L34.1684 76.627L34.2382 76.7709C34.2382 76.7709 34.6143 76.8705 34.5916 76.9405C34.5689 77.0104 34.3951 77.1527 34.3951 77.1527L34.0831 77.1527L34.0815 77.1537Z" fill="#E6E9F4"/>
<path d="M33.3536 77.1547L32.3634 77.0293L32.5898 77.6191L32.3636 77.9302L32.7455 78.1383L32.6243 78.503L32.234 78.6242L32.0874 78.2609L31.8095 78.278L31.7397 78.6242L32.5462 79.0061L32.9892 80.1173L33.2671 80.1173L33.354 79.5791L33.9438 79.5108L33.8569 78.574L33.5264 78.678L33.3355 78.0185L33.5962 77.9316L33.4921 77.8262L33.284 77.5854L33.3536 77.1547Z" fill="#E6E9F4"/>
<path d="M34.4806 74.8779L33.9424 74.8779L33.7515 75.4161L34.3412 75.8677L34.6888 75.6939L34.4808 74.8791L34.4806 74.8779Z" fill="#E6E9F4"/>
<path d="M34.6899 73.2808L34.6899 74.0272L34.915 74.305L35.0716 75.5543L35.6443 75.7794L35.9562 75.372L36.2853 75.4846L36.2853 75.6927L37.3095 75.4846L37.6571 75.1555L37.7269 74.8777L38.0388 75.2936L38.4374 75.372L38.4374 74.8777L38.7324 74.6867L38.3677 74.5301L38.3848 74.201L38.5786 74.1312L38.1939 73.8022L37.4829 73.8193L36.7108 74.4091L35.886 74.5303L34.9144 73.9405C34.9144 73.9405 34.7932 73.6969 34.9144 73.6798C35.0356 73.6626 35.5213 73.6798 35.5213 73.6798L35.591 73.5417L35.0184 73.281L34.6899 73.2808Z" fill="#E6E9F4"/>
<path d="M35.7485 71.6327C35.8182 71.6498 35.8354 72.0672 35.8354 72.0672L36.234 72.2753L35.3664 73.0047L35.5045 73.2826L36.3378 73.1445L36.6157 73.3525L36.6157 73.0743L36.9276 72.8307L37.2752 72.8136L37.2752 73.0572L37.449 72.6227L37.7781 72.7608L37.7781 73.2124L38.4719 72.4152L38.1071 72.2242L38.0729 71.9292L37.3952 72.103L37.1345 71.4092L37.3952 71.4961L37.5333 71.6871L38.1231 71.6699C38.1231 71.6699 37.8795 71.3409 37.9322 71.3223C37.9848 71.3038 37.8281 70.8707 37.8281 70.8707L38.4707 70.6626L38.1588 70.4545L38.2285 69.6738L37.6388 69.6738L37.4821 69.0497L38.1247 68.7021L37.8128 68.2505L38.4747 68.2505C38.4747 68.2505 38.2666 67.0181 38.318 66.9484C38.3694 66.8786 38.7338 65.9426 38.7338 65.9426L38.0561 66.4627L38.0733 66.064L37.7257 65.9428L38.3497 65.4912L38.5777 64.8135L38.1592 64.6569L37.8468 64.3101L37.465 64.4141L37.1871 64.9522L37.1345 64.4326L36.71 64.4853L36.6145 64.7286L36.2326 64.6589L35.764 64.6589L36.0931 65.0236L35.7981 64.971L35.4862 64.9184L35.4519 65.2303L35.5731 65.3515L35.3654 65.4555L35.4694 65.8031L35.3654 66.0808L35.2087 65.9767L35.0178 65.612L34.7928 65.907L34.9494 66.0979L34.4637 66.4798L34.2201 66.4969L33.9766 66.9129C33.9766 66.9129 34.5835 66.7048 34.5663 66.7562C34.5492 66.8077 34.4966 67.5198 34.4966 67.5198L35.1742 67.0682L34.9307 67.5539L35.0873 67.8317L35.3993 67.2761L35.3821 67.9186L35.6941 67.866L35.7283 67.4329L35.9534 67.8148L36.352 67.5898L36.1953 66.6881L36.5772 66.6709L36.4903 67.2091L36.9932 67.001L37.1313 67.2091L36.7068 67.6607L36.0913 68.4072L36.352 68.6152L36.0044 68.685L35.7265 68.6679L35.3789 68.5297L35.3092 68.9642L35.812 69.0854L36.003 69.5185L36.228 69.7792L36.7052 69.8833L36.7052 70.1268L36.453 70.4218L35.9502 70.4218L35.7592 70.8378L36.0371 70.8207L36.349 70.7338C36.349 70.7338 36.3661 71.5486 36.349 71.6185C36.3319 71.6885 36.7052 71.6357 36.7052 71.6357L36.8006 71.3578L36.9388 71.4104L36.9559 72.07L36.5043 72.0871L35.7407 71.6355L35.7485 71.6327Z" fill="#E6E9F4"/>
<path d="M34.9932 72.0117L34.9932 72.2641L35.3324 72.217L34.9932 72.0117Z" fill="#E6E9F4"/>
<path d="M30.3564 77.2044L30.8607 77.9309L31.0345 77.1536L30.6957 76.8843L30.3564 77.2044Z" fill="#E6E9F4"/>
<path d="M28.1249 75.3723L28.33 75.6828L29.3785 75.4777L29.6151 74.3779L29.2763 74.4606L29.0911 74.1728L29.1495 73.8025L28.443 73.2056L28.3403 73.5245L27.9913 73.5857L27.8275 73.5857L28.1765 73.7708L28.1037 73.8834L27.7434 73.8222L27.7434 74.0074L28.1436 74.0586L28.1749 74.2125L27.9283 74.4433L27.4653 74.4433L27.7745 74.7668C27.9113 74.7825 28.0494 74.7825 28.1863 74.7668C28.2062 74.7355 28.3614 74.3666 28.3614 74.3666L28.6493 74.3666L28.541 74.7156L29.3074 74.8182L29.2462 75.1274L28.7533 75.2613L28.1265 75.3725L28.1249 75.3723Z" fill="#E6E9F4"/>
<path d="M29.7707 74.5302L29.688 75.3024L30.1809 75.0959L30.51 75.3723L30.8191 75.2611L30.973 73.9456L30.7878 74.0283L30.6951 74.5312L30.5213 74.4443L30.2024 74.017L30.1612 73.6582L30.3563 73.3519L30.2536 73.02L29.9758 73.0712L29.9146 73.7507L30.0585 74.3576L30.2223 74.5314L30.1512 74.6454L29.7707 74.5302Z" fill="#E6E9F4"/>
<path d="M31.9282 74.6228L32.2786 74.2524L32.0422 73.6057L32.2332 73.6469L32.5038 74.2837L32.7004 74.2738L32.4839 73.4404L32.7717 73.4404L33.2959 74.1199L33.2959 74.7154L32.977 75.3732L32.504 75.3732L32.3402 74.9429L32.7404 74.6337L32.7305 74.4442L32.3302 74.5311L31.9282 74.6228Z" fill="#E6E9F4"/>
<path d="M31.4556 73.6572L31.5384 74.0379L31.7395 73.8625C31.6523 73.7844 31.5572 73.7156 31.4558 73.6572L31.4556 73.6572Z" fill="#E6E9F4"/>
<path d="M31.3846 74.9321L31.1479 75.2615L31.456 75.2615L31.5388 74.9321L31.3846 74.9321Z" fill="#E6E9F4"/>
<path d="M33.687 72.8555L33.687 73.2814L34.3152 73.8471L34.4691 73.4411L34.274 73.0707L33.687 72.8555Z" fill="#E6E9F4"/>
<path d="M31.1895 71.9507L31.1895 72.3314L31.4562 72.5782L31.5989 72.3414L31.1895 71.9507Z" fill="#E6E9F4"/>
<path d="M30.0184 71.4775L29.4009 71.4775L29.2568 71.8682L29.616 72.1051L29.8842 72.0222L29.8013 71.6928L30.0184 71.4775Z" fill="#E6E9F4"/>
<path d="M29.0913 71.292L28.9473 71.292L28.9473 71.4774L29.0913 71.4774L29.0913 71.292Z" fill="#E6E9F4"/>
<path d="M28.3935 71.7905L28.1771 72.2635L27.9405 72.2065L27.8893 71.95L26.2539 73.0199L26.2539 73.2051L26.4704 73.282L26.6555 73.282L26.6555 73.1026L26.8307 73.1126L26.8407 73.4416L27.0045 73.4416L26.9946 72.9786L27.1897 72.9059L27.3222 73.1223L27.62 72.5254L27.8566 72.5055L27.8054 73.0197L28.2783 72.6165C28.2783 72.6165 28.1031 72.4128 28.1344 72.4028C28.2236 72.3391 28.3092 72.2707 28.391 72.1977L28.391 71.7919L28.3935 71.7905Z" fill="#E6E9F4"/>
<path d="M29.6152 70.8392L30.0887 70.561L30.2028 70.9433L29.6152 70.8392Z" fill="#E6E9F4"/>
<path d="M31.7392 69.8418L31.4558 70.0369L31.4558 70.3048L31.7392 70.3048L31.8773 70.9426L31.4556 70.9014L31.5383 71.1579L32.2578 71.1579L32.7208 71.6621L32.2578 70.2344L31.9287 70.357L31.7392 69.8418Z" fill="#E6E9F4"/>
<path d="M33.1423 70.4702C33.1523 70.5015 33.1011 71.0458 33.1011 71.0458L33.4714 71.7353L33.6879 71.5814L33.7534 70.9844L33.1423 70.4702Z" fill="#E6E9F4"/>
<path d="M33.7531 71.9502L34.2224 71.9502L34.2224 72.1455L33.8731 72.2639L33.6875 72.1038L33.7531 71.9502Z" fill="#E6E9F4"/>
<path d="M33.9546 69.5544L34.3349 69.5957L34.4688 69.8422L34.1398 69.9861L34.0786 70.3979L34.4688 70.5617C34.4688 70.5617 34.4688 70.8183 34.4176 70.8183C34.3678 70.8247 34.3193 70.8386 34.2737 70.8595L34.6126 71.1687L34.7764 70.9422L34.9928 70.9422L34.8689 70.5619L35.1623 70.5619L35.2193 70.9422L35.4044 70.5619L35.2093 70.2941L35.0967 69.9849L35.2506 69.841C35.3079 69.9443 35.3592 70.0508 35.4044 70.1599C35.4144 70.2111 35.8361 69.553 35.8361 69.553L35.5998 69.2851L35.2508 69.3463L35.2508 69.0075L34.0784 67.5059L33.7521 67.7223L33.9771 68.1026L33.7521 68.2977L33.5227 68.339L33.4814 68.5654L33.8717 68.7605L33.8404 68.977L33.5215 68.8289L33.5215 69.2349L33.9018 69.4101L33.953 69.554L33.9546 69.5544Z" fill="#E6E9F4"/>
<path d="M32.7622 69.0093L32.8963 69.0093L32.9575 69.2345L32.7622 69.0093Z" fill="#E6E9F4"/>
<path d="M47.5252 103.56L49.0637 108.985L49.719 109.591L51.9643 110.095L53.2764 109.363L53.7548 109.867L55.2933 109.539L56.1766 108.531L56.4814 105.428L56.7847 105.555L56.8858 104.646L57.3145 104.167L57.7177 104.193L58.3988 103.284L59.2066 102.981L59.51 101.947L59.2066 101.619L58.3232 101.998L57.2135 102.881L56.5061 104.471L56.0277 106.061L54.0603 109.392L53.858 109.215L53.9078 108.483L55.6987 105.96L55.901 105.027L55.0932 105.077L55.0433 104.622L55.9267 104.521L55.9765 103.689L56.8599 102.453L57.1377 101.04L58.9529 99.8271L60.946 98.7671L61.5258 98.0348L61.7034 96.6979L62.0068 96.0425L62.41 95.6638L62.1321 95.386L58.4994 97.9089L57.9952 98.0099L57.4154 97.2525L57.8698 98.3623L57.8441 98.8168L57.5164 98.8923L57.1887 98.4139L56.6588 98.8684L56.2556 98.9182L55.8769 97.9595L55.7003 98.4139L55.4224 98.4139L54.8169 97.582L54.4382 97.3797L53.9838 95.7142L54.2359 95.7399L54.387 95.0846L55.3957 95.3624C55.3957 95.3624 56.1778 95.1601 56.1778 95.0846C56.2264 94.8799 56.2854 94.6778 56.3544 94.4791L56.2276 94.1004L55.1659 93.0925L54.9636 92.2354L54.2062 91.7311L53.7279 90.4448L53.3492 90.4448L52.5172 89.209L52.5172 89.8002L52.7436 89.9668L52.7179 90.4452L53.0456 90.6973L52.8433 91.4039L52.3649 92.5892L52.0871 91.9582L51.835 91.9083L51.8848 92.4383L51.4064 91.8585L50.8765 92.2617L50.8266 92.6151L50.4234 92.3887L50.7268 91.8844L50.1711 91.0011L49.6411 91.2034L49.4388 91.0011L49.9172 90.5227L49.7149 89.8018L48.9826 89.8018L48.6792 90.0439L48.0994 89.8018L48.2505 89.2106L47.5182 89.4627L47.5182 89.0322L46.8117 89.0322L46.3333 89.612L45.1225 89.3856L44.2905 89.8002L45.1476 90.7489C45.1476 90.7489 44.6989 91.8089 44.8727 91.7832C45.0465 91.7574 45.5253 92.0353 45.5253 92.0353L45.652 92.5136L45.9299 92.5136L45.9556 93.0693L45.7533 94.457L47.0911 95.1892L47.7221 96.4001L47.6723 97.9643C47.6723 97.9643 46.4114 99.453 46.487 99.567C46.5625 99.681 47.2948 100.513 47.2948 100.513L47.4459 101.497L48.0514 102.077L47.9246 102.708L48.3533 103.49L48.1768 103.945L47.5214 103.566L47.5252 103.56Z" fill="#E6E9F4"/>
<path d="M46.1463 97.2275C46.1463 97.2859 45.9512 98.2191 45.9512 98.2191L45.6592 97.9086L46.1449 97.2275L46.1463 97.2275Z" fill="#E6E9F4"/>
<path d="M45.4272 102.171L45.6611 101.82L46.1473 101.82L46.2443 102.288L45.4272 102.171Z" fill="#E6E9F4"/>
<path d="M58.9277 100.77L59.4533 100.322L60.8338 100.322L60.4834 100.77L59.2967 100.945L58.9277 100.77Z" fill="#E6E9F4"/>
<path d="M52.6914 89.0288L53.3523 90.2482L53.861 90.2482L54.438 91.5988L55.2614 92.1758L55.5249 93.0647L56.3987 93.9381L56.6295 94.3997L56.3829 95.1733L55.7903 95.552L54.9825 95.552L54.5707 95.4537L54.5536 95.9809L54.3071 95.9809L54.6618 97.0522L55.6584 98.0408L55.8065 97.5308L56.3008 98.5194L56.6299 98.5194L56.9916 98.1407C56.9916 98.1407 57.6171 98.635 57.6171 98.5194C57.6171 98.4038 57.156 97.2186 57.156 97.2186L57.3697 96.8724C57.3697 96.8724 57.7159 97.0705 57.7159 97.1531C57.7398 97.303 57.7726 97.4515 57.8142 97.5975L58.1106 97.7954L58.5066 97.5975L61.8672 95.143L62.2633 95.1258L62.642 95.5703L62.8401 94.3025L62.2475 94.0717L62.4128 93.693L61.3586 92.8525L61.1449 92.918L61.2105 93.7829L60.766 93.9068L60.7005 93.0663L60.4198 93.099L59.4312 95.2402L59.1847 94.9596L58.4767 95.0094L58.3784 94.7958L59.0537 94.4667C59.0537 94.4667 59.7461 93.809 59.6963 93.7829C59.5922 93.7706 59.4869 93.7706 59.3828 93.7829L60.2233 92.4409L59.8857 92.4736L59.3344 92.9836L58.9325 92.8184L58.7914 93.0163L58.3627 92.918L58.3129 93.2642L58.0494 93.5933L57.7687 93.4622L57.8515 92.935L56.8629 92.358L56.6492 92.5716L56.5338 92.291L56.2374 92.3408L56.2872 92.0602L55.9582 92.0103L55.9402 91.7973L56.1868 91.5338L56.1375 91.3189L55.478 91.4515L55.297 91.2862L55.3798 90.8575L55.149 90.7593L54.968 91.0399L54.6716 91.0227L54.7699 90.5284L54.4735 90.8747L54.3082 90.6439L54.3738 90.1667L53.8297 89.953L53.8297 89.6395L53.3553 89.7222L52.6944 89.0298L52.6914 89.0288Z" fill="#E6E9F4"/>
<path d="M63.3162 94.911L62.9375 95.4382L62.9375 96.6406L63.127 96.6406L63.3166 98.2048L63.127 98.4514L63.6783 98.8801L63.382 99.0611L63.3078 99.6865L63.5799 99.5612L63.3078 100.725L63.6781 100.944L63.9917 100.322L64.3379 100.322L64.3379 99.9498L64.6343 99.9825L65.4249 99.209L65.9521 99.2746C65.9521 99.2746 65.754 99.0111 65.821 99.0111C65.8879 99.0111 66.5618 98.8131 66.5618 98.8131L66.1174 100.131L66.5618 99.8675C66.5454 99.6318 66.5454 99.3953 66.5618 99.1596C66.5945 99.1097 66.7271 98.7976 66.7271 98.7976L66.8253 98.5355L66.6605 98.2212L67.1376 98.271L67.2857 99.1115L67.4011 99.0617L67.4011 98.452L67.6818 98.4348L67.9283 98.8309L67.9283 97.6442L67.5666 97.9262L67.3856 97.9262L67.32 97.8251L67.2544 98.1058L66.8257 98.0231L66.7759 96.936L66.5608 97.4462L66.2644 97.4462L66.2816 97.0845L66.0508 97.0518L66.0181 96.7227L66.2987 96.4094L65.8216 96.3596L65.3115 97.052L65.4355 97.7771L65.048 97.8427L64.9326 97.2828L64.4555 97.3811L64.3074 97.1832L64.4555 96.7215L63.9939 96.7542L63.9939 97.6276L63.7132 97.6603L63.5151 97.1331L63.5807 95.6173L63.2516 95.5518L63.3172 94.9092L63.3162 94.911Z" fill="#E6E9F4"/>
<path d="M57.0659 105.603L57.1755 104.695L57.3565 104.422L57.811 104.422L58.3736 103.824L59.2996 103.716L59.6074 103.388L59.4264 104.205L59.6074 104.495L59.8808 104.205L60.3153 104.895L60.8336 104.984L60.714 105.366L60.3877 105.693L59.6797 107.146L59.2811 107.001L59.1358 107.291L58.6642 106.928L58.1913 105.657L57.7011 105.04L57.4105 105.148L57.0659 105.603Z" fill="#E6E9F4"/>
<path d="M60.5693 104.223L60.8342 104.404L61.8045 104.132C61.8456 104.227 61.8942 104.318 61.9498 104.404C61.9683 104.404 62.1308 103.642 62.1308 103.642L60.9696 104.223L60.5709 104.223L60.5693 104.223Z" fill="#E6E9F4"/>
<path d="M63.0929 102.28L62.8579 103.08L63.0929 104.132L63.3478 104.205L63.8919 103.388L64.0016 102.952L63.6924 103.116L63.4289 103.498L63.2751 103.479L63.0929 102.28Z" fill="#E6E9F4"/>
<path d="M61.059 104.876C61.0234 104.949 60.834 105.948 60.834 105.948L61.9302 105.412L61.9302 105.638L60.5683 106.71L60.5683 107.418L60.3511 107.418L60.733 108.579L61.2771 108.379L61.6034 107.781L61.5491 107.038L61.7301 106.457L61.9294 106.457L62.9352 105.422L63.1817 104.406L62.8555 104.207L61.9294 105.114L61.0576 104.877L61.059 104.876Z" fill="#E6E9F4"/>
<path d="M59.0659 94.6961L59.3297 94.8117L59.7419 94.1855L59.0659 94.6961Z" fill="#E6E9F4"/>
<path d="M10.5313 88.2264C10.5313 88.2264 16.482 91.7808 20.6546 92.9789L18.5676 100.011L18.6061 101.441L19.2638 102.099L19.7268 103.375L21.1571 105.771L21.5432 107.896L15.7852 106.349L14.8578 105.886L15.09 105.306L15.033 105.036L14.7069 105.193L14.3208 104.945L14.677 105.005L14.6571 104.391L14.499 104.351L14.3409 104.569L14.0346 104.539L14.0346 104.173L14.321 103.995L14.321 103.787L14.0531 103.659L14.2212 103.223L13.9832 103.213L13.6864 103.461L13.2804 103.233L13.3601 103.035L13.7462 103.006L13.7462 102.857L13.4 102.848L13.2519 102.481L12.9555 102.451L12.6876 102.511L12.9256 102.343L12.7775 102.215L12.5896 102.145L12.6494 101.689L12.9856 101.61L12.9756 101.402L12.5013 101.392C12.5013 101.392 12.6793 101.065 13.3432 101.036L13.3731 100.59L13.621 100.422L13.5812 100.234L13.3834 100.234L12.7496 100.589L12.7197 100.361L12.5216 100.263L12.9276 99.9266L12.8678 99.6985L12.5613 99.3733L12.5712 99.2935L12.7592 98.8975L12.8574 99.0556L13.0556 99.0257L13.0556 98.8072L12.8076 98.5892L12.9856 98.4909L12.9756 98.223L12.6793 98.2629L12.3231 98.5493L12.105 97.7772C12.105 97.7772 12.3032 97.6974 12.3032 97.6689C12.3032 97.6404 12.2932 97.4608 12.2932 97.4608L12.0751 97.4409L12.0751 97.2729L12.5894 96.8968L12.9954 96.9068L12.8572 96.6488L13.1351 96.5207L13.0653 96.1745L12.7695 96.4609L13.1058 95.7087C13.1058 95.7087 13.0161 95.1046 13.0075 95.0747C12.999 95.0448 12.4534 94.3324 12.4534 94.3324L12.5431 91.243L12.2467 90.4011L12.3849 89.451L11.8108 89.3029L11.2867 89.3727L10.7625 89.6206L10.534 88.2236L10.5313 88.2264Z" fill="#E6E9F4"/>
<path d="M10.2085 96.8843L9.95361 97.4685L10.2085 97.6564C10.2085 97.6564 10.123 97.9299 10.1615 97.9199C10.2 97.9099 10.5318 97.9199 10.5318 97.9199L10.9251 97.4017L10.6046 97.552L10.3965 97.5235L10.3502 97.3074L10.5952 97.2418L10.2085 96.8843Z" fill="#E6E9F4"/>
<path d="M10.0669 98.1392L10.4815 98.1392C10.4815 98.1392 10.1981 98.5252 10.4389 99.3372C10.4389 99.3372 10.094 99.1961 10.1696 98.347L10.0649 98.1392L10.0669 98.1392Z" fill="#E6E9F4"/>
<path d="M12.339 99.27L12.3961 99.9588L12.1509 99.5524L12.339 99.27Z" fill="#E6E9F4"/>
<path d="M12.5752 100.798L12.5752 101.043L13.17 100.845L13.17 100.646L12.5752 100.798Z" fill="#E6E9F4"/>
<path d="M11.8764 102.457L11.8764 102.608L12.291 102.835L12.291 102.986L11.8764 103.023L11.942 103.193L12.4235 103.372L12.4235 103.579L12.2625 103.702L12.8467 104.249L12.8467 105.031L13.1101 105.37L13.5247 105.464C13.5247 105.464 13.6102 105.407 13.6102 105.464C13.5865 105.576 13.5551 105.686 13.5162 105.794L13.3936 105.907L14.1472 106.538L14.3351 106.303L14.194 105.634L13.6184 104.87C13.6184 104.87 13.0898 103.682 13.1042 103.654C13.1185 103.626 12.4588 102.777 12.4588 102.777L11.875 102.457L11.8764 102.457Z" fill="#E6E9F4"/>
<path d="M21.7596 107.997C21.7397 107.938 21.3166 105.621 21.3166 105.621C21.3166 105.621 19.8265 103.265 19.8265 103.205C19.8265 103.145 19.3834 101.836 19.3834 101.836L18.7793 101.292L18.7793 100.245L20.8934 93.1558C20.8934 93.1558 24.398 94.2641 26.4922 94.5661L24.6999 108.483L21.7594 108L21.7596 107.997Z" fill="#5AC3CC"/>
<path d="M31.4487 95.076L31.4487 109.083C31.4487 109.083 34.4446 109.657 36.1757 108.89L35.9764 104.164L39.6718 98.505L38.5792 98.1715L37.2414 98.7043L37.408 98.0603L36.4095 96.3408L36.2101 96.3408L36.1765 96.6743L35.561 95.9749L35.561 94.8765C35.561 94.8765 32.9811 95.0758 31.4495 95.0758L31.4487 95.076Z" fill="#E6E9F4"/>
<path d="M26.7486 94.5947C26.7486 94.5947 29.9553 95.0193 31.2303 94.9808L31.2303 109.084C31.2303 109.084 27.0962 109 24.8936 108.482L26.7486 94.5947Z" fill="#E6E9F4"/>
<path d="M36.5092 108.725C36.5092 108.626 36.2102 104.365 36.2427 104.265C36.2752 104.165 39.9382 98.6392 39.9382 98.6392L40.3713 98.6392L40.8714 99.3045L42.2034 99.571L42.5024 100.336L43.4682 99.6706L44.3671 99.7376L44.4997 100.819L44.9998 101.47L44.9998 102.202L45.5654 103.001L45.3318 103.467L46.198 103.4L46.5967 104.332L47.4629 104.465L48.8276 109.085C48.8276 109.085 49.4929 109.858 49.5926 109.858C49.6922 109.858 52.1227 110.358 52.1227 110.358L53.2538 109.659L53.5202 110.025L52.9875 110.625L52.4547 111.557L51.4888 112.189L51.9546 112.388L51.556 112.755L51.2226 112.388L50.1241 113.088L49.6583 114.02L50.3579 114.02L50.2254 114.286L49.5258 114.652L49.4588 115.018L48.7594 115.018L48.0272 115.917L47.3618 116.483L47.1952 116.15L47.8278 115.716L47.6953 115.283L48.1954 114.285L48.0628 112.153L48.9617 112.753L49.1953 112.554L49.0628 111.988L49.5629 112.088L49.5956 111.821L49.0628 111.722L49.0301 111.256L48.1639 110.591L47.4316 110.79L46.5327 110.79L45.2007 110.957L45.101 110.391L44.5354 109.726L44.5027 109.086L44.1365 108.928L43.9029 109.086L43.0367 108.261L42.0053 108.194L41.273 108.593L41.4396 109.084L41.0735 109.084L41.0408 109.658L38.5832 109.526L37.9436 109.086L37.5775 109.086L37.5105 109.493L36.7783 109.292L37.3439 108.761L36.8438 108.561L37.3766 108.362L36.7769 107.563L36.5104 108.728L36.5092 108.725Z" fill="#2FB5C0"/>
<path d="M9.75293 86.7803C9.84095 87.0235 9.94515 87.2606 10.0649 87.4898L10.8314 87.4898L10.6897 87.8303C10.6897 87.8303 14.2939 90.6966 18.2116 91.8321L18.2116 91.2651L17.586 91.0386L17.1885 90.3576C17.3026 90.1866 16.593 88.2263 16.593 88.2263L16.9904 86.0994L16.593 84.9924L16.593 84.3969L17.0474 83.8854L17.0189 83.4025L16.7355 83.0906L17.0474 82.5235L17.0189 81.814L16.4234 81.5876L16.3949 81.1616L17.6442 79.2028L17.1327 78.7768L16.7365 77.3579L16.3106 77.4719L10.8314 85.7311L9.75293 86.7803Z" fill="#E6E9F4"/>
<path d="M17.7578 79.5154L16.7363 81.3317L17.2478 81.5867L17.2478 82.353L17.0496 82.893L17.0213 83.1491L17.2478 83.4325L17.2478 83.887L16.9073 84.4269L16.7363 84.9939L17.2478 85.8743L16.9358 88.0881L17.5314 90.1596L17.7578 90.7266L18.3819 90.8976L18.5244 91.2666L18.5244 92.0899C18.5244 92.0899 25.7413 94.9555 31.2305 94.7292C31.2305 94.7292 31.7989 90.3983 31.4485 89.7972L30.9855 89.4225L27.8626 88.5991L27.3227 87.4351L26.4936 87.2641L24.7683 85.1642L23.3779 83.5742L23.2354 82.9787L23.8309 81.5313L24.455 81.4458L23.5746 80.8217L22.865 81.1051L22.6342 81.0766L22.6342 80.3671L22.184 80.793L21.8151 80.6505L21.7295 79.0036L21.2181 79.6276L20.1681 79.5991L19.8277 80.0535L19.7137 79.6276L18.7769 80.082L18.6629 79.7986L19.3725 79.4867L20.8474 79.2033L19.4855 79.2318L18.7759 79.3458L18.7759 79.1477L19.0045 78.8359L18.5501 78.8359L18.0101 79.2049L18.0671 79.7448L17.8122 79.9158L17.7552 79.5184L17.7578 79.5154Z" fill="#E6E9F4"/>
<g filter="url(#filter1_d_64_11690)">
<rect x="74.3662" y="59.5361" width="95.6968" height="60.5262" rx="4.90753" fill="white"/>
<path d="M100.273 74.1816C96.9006 74.1816 93.6203 75.2815 90.9296 77.3143C88.2388 79.3471 86.2844 82.202 85.3629 85.446C84.4414 88.69 84.6029 92.146 85.8231 95.2898C87.0433 98.4337 89.2554 101.094 92.1241 102.867C94.9928 104.64 98.3614 105.429 101.719 105.114C105.077 104.799 108.24 103.398 110.729 101.123C113.219 98.8484 114.898 95.8236 115.513 92.5078C116.128 89.192 115.645 85.7661 114.137 82.7498L107.118 86.2592C107.862 87.7485 108.101 89.4399 107.797 91.077C107.494 92.7141 106.665 94.2075 105.436 95.3307C104.206 96.4539 102.645 97.1457 100.987 97.301C99.3292 97.4563 97.666 97.0668 96.2497 96.1915C94.8333 95.3161 93.7411 94.0027 93.1387 92.4505C92.5363 90.8983 92.4565 89.192 92.9115 87.5904C93.3665 85.9888 94.3314 84.5792 95.6599 83.5756C96.9884 82.5719 98.6079 82.0289 100.273 82.0289L100.273 74.1816Z" fill="#D5F0F2"/>
<path d="M100.273 74.1816C103.546 74.1816 106.735 75.2179 109.384 77.1419C112.032 79.0659 114.003 81.7788 115.014 84.8919L107.614 87.2964C107.11 85.7462 106.129 84.3952 104.81 83.437C103.491 82.4789 101.903 81.9629 100.273 81.9629L100.273 74.1816Z" fill="#2AA3AD"/>
<path d="M115.014 84.8919C115.898 87.6105 116.012 90.5205 115.345 93.3C114.677 96.0796 113.254 98.6205 111.233 100.642C109.212 102.663 106.671 104.086 103.891 104.753C101.112 105.421 98.2018 105.306 95.4832 104.423L97.8884 97.0207C99.2418 97.4605 100.691 97.5174 102.074 97.1851C103.458 96.8529 104.723 96.1445 105.729 95.1382C106.736 94.1319 107.444 92.8669 107.776 91.4831C108.109 90.0993 108.052 88.6505 107.612 87.297L115.014 84.8919Z" fill="#2FB5C0"/>
<path d="M95.4832 104.423C92.3701 103.412 89.6572 101.44 87.7332 98.7923L94.0478 94.2045C95.0029 95.5191 96.3497 96.4976 97.8952 96.9997L95.4832 104.423Z" fill="#59C4CD"/>
<rect x="127.602" y="65.9292" width="13.64" height="13.64" rx="1.364" fill="#2A007C"/>
<path d="M137.435 72.3394L137.809 72.7522L138.17 72.3394L138.94 72.3394L138.187 73.1856L138.95 74.0388L138.149 74.0388L137.778 73.6227L137.41 74.0388L136.637 74.0388L137.393 73.1891L136.637 72.3394L137.435 72.3394Z" fill="#FF5900"/>
<path d="M136.637 72.3394L136.637 72.9136L135.78 72.9136L135.78 73.4405L136.637 73.4405L136.637 74.0388L135.151 74.0388L135.151 71.3618L136.637 71.3618L136.637 71.9585L135.78 71.9585L135.78 72.3394L136.637 72.3394Z" fill="#FF5900"/>
<path d="M134.524 71.3618L134.524 72.4574L134.517 72.4574C134.378 72.2979 134.205 72.2424 134.004 72.2424C133.592 72.2424 133.281 72.5226 133.173 72.8929C133.048 72.4849 132.728 72.2347 132.252 72.2347C131.867 72.2347 131.562 72.4079 131.403 72.6902L131.403 72.3394L130.605 72.3394L130.605 71.9585L131.476 71.9585L131.476 71.3618L129.894 71.3618L129.894 74.0388L130.605 74.0388L130.605 72.9136L131.314 72.9136C131.293 72.9962 131.281 73.0848 131.281 73.1782C131.281 73.7365 131.708 74.1285 132.252 74.1285C132.71 74.1285 133.012 73.9135 133.171 73.5217L132.562 73.5217C132.48 73.6396 132.417 73.6744 132.252 73.6744C132.061 73.6744 131.897 73.5078 131.897 73.3102L133.137 73.3102C133.191 73.7537 133.537 74.1361 134.011 74.1361C134.215 74.1361 134.403 74.0355 134.517 73.8657L134.524 73.8657L134.524 74.039L135.151 74.039L135.151 71.3618L134.524 71.3618ZM131.916 72.9215C131.956 72.7514 132.088 72.6404 132.253 72.6404C132.434 72.6404 132.559 72.748 132.592 72.9215C132.606 72.9215 131.916 72.9215 131.916 72.9215ZM134.144 73.6313C133.913 73.6313 133.769 73.4159 133.769 73.1912C133.769 72.9509 133.894 72.7199 134.144 72.7199C134.403 72.7199 134.506 72.9509 134.506 73.1912C134.506 73.419 134.396 73.6313 134.144 73.6313Z" fill="white"/>
<rect x="127.602" y="82.979" width="13.64" height="13.64" rx="1.364" fill="#00529C"/>
<path d="M139.024 86.73L136.739 86.73L133.947 92.868L135.596 92.868C136.012 92.868 136.332 92.6449 136.518 92.2388C136.703 91.8327 139.024 86.73 139.024 86.73Z" fill="white"/>
<path d="M135.585 86.73C135.169 86.73 134.849 86.9544 134.663 87.3596L132.158 92.868L133.21 92.868L136.003 86.73L135.585 86.73Z" fill="#EF3829"/>
<path d="M132.689 90.0786L130.09 90.0786C129.941 90.0786 129.82 90.2032 129.82 90.3569C129.82 90.4333 129.85 90.5033 129.899 90.553L131.655 92.3529L132.689 90.0786Z" fill="white"/>
<rect x="127.602" y="100.029" width="13.64" height="13.64" rx="1.364" fill="#0051A4"/>
<path d="M130.53 107.14C130.486 107.346 130.3 107.956 129.308 107.956C128.618 107.956 128.285 107.576 128.285 107.034C128.285 106.379 128.766 105.834 129.576 105.834C130.106 105.834 130.58 106.03 130.594 106.638L129.9 106.638C129.907 106.448 129.8 106.34 129.574 106.34C129.167 106.34 129.019 106.737 129.019 107.024C129.019 107.192 129.066 107.452 129.403 107.452C129.634 107.452 129.763 107.318 129.81 107.14L130.53 107.14ZM130.794 106.881C130.898 106.489 131.254 106.398 131.678 106.398C131.992 106.398 132.519 106.432 132.519 106.79C132.519 107.019 132.309 107.68 132.309 107.776C132.309 107.83 132.319 107.872 132.335 107.906L131.687 107.906C131.67 107.861 131.661 107.813 131.664 107.764L131.658 107.764C131.541 107.883 131.317 107.943 131.124 107.943C130.827 107.943 130.563 107.832 130.563 107.551C130.563 107.163 130.903 107.058 131.401 107.027C131.588 107.016 131.884 107.037 131.884 106.856C131.884 106.754 131.778 106.729 131.677 106.729C131.543 106.729 131.45 106.769 131.413 106.879L130.794 106.879L130.794 106.881ZM131.435 107.612C131.659 107.612 131.749 107.474 131.789 107.255C131.683 107.3 131.559 107.312 131.438 107.321C131.329 107.329 131.225 107.378 131.225 107.485C131.225 107.587 131.327 107.612 131.435 107.612ZM132.91 106.436L133.547 106.436L133.497 106.623L133.504 106.623C133.631 106.489 133.831 106.4 134.041 106.4C134.345 106.4 134.605 106.508 134.605 106.797C134.605 106.862 134.585 106.969 134.559 107.078L134.348 107.909L133.688 107.909L133.858 107.233C133.879 107.148 133.912 107.048 133.912 106.989C133.912 106.895 133.832 106.847 133.725 106.847C133.514 106.847 133.445 106.974 133.405 107.127L133.209 107.907L132.549 107.907L132.91 106.436ZM134.983 106.436L135.624 106.436L135.584 106.604L135.59 106.604C135.704 106.468 135.851 106.4 136.054 106.4C136.541 106.4 136.685 106.742 136.685 107.003C136.685 107.44 136.428 107.945 135.841 107.945C135.651 107.945 135.464 107.926 135.32 107.73L135.163 108.384L134.503 108.384L134.983 106.436ZM136.023 107.068C136.023 106.923 135.977 106.807 135.783 106.807C135.49 106.807 135.436 107.164 135.436 107.294C135.436 107.347 135.459 107.534 135.676 107.534C135.94 107.536 136.023 107.259 136.023 107.068ZM136.935 106.881C137.039 106.489 137.396 106.398 137.82 106.398C138.134 106.398 138.661 106.432 138.661 106.79C138.661 107.019 138.45 107.68 138.45 107.776C138.45 107.83 138.461 107.872 138.477 107.906L137.829 107.906C137.812 107.861 137.802 107.813 137.806 107.764L137.799 107.764C137.682 107.883 137.459 107.943 137.265 107.943C136.968 107.943 136.704 107.832 136.704 107.551C136.704 107.163 137.045 107.058 137.542 107.027C137.729 107.016 138.025 107.037 138.025 106.856C138.025 106.754 137.919 106.729 137.818 106.729C137.685 106.729 137.591 106.769 137.555 106.879L136.935 106.879L136.935 106.881ZM137.576 107.612C137.8 107.612 137.89 107.474 137.93 107.255C137.824 107.3 137.701 107.312 137.58 107.321C137.47 107.329 137.366 107.378 137.366 107.485C137.366 107.587 137.47 107.612 137.576 107.612ZM139.055 106.436L139.696 106.436L139.639 106.666L139.645 106.666C139.762 106.51 139.979 106.4 140.149 106.4C140.259 106.4 140.323 106.406 140.382 106.423L140.259 106.918C140.179 106.893 140.089 106.882 140.005 106.882C139.725 106.882 139.585 106.984 139.508 107.293L139.359 107.907L138.698 107.907L139.055 106.436Z" fill="white"/>
<path d="M130.995 106.276C130.995 106.276 133.139 105.387 136.144 105.321C138.816 105.261 140.561 105.692 140.561 105.692L140.456 106.099C140.456 106.099 138.804 105.656 136.144 105.604C133.363 105.55 130.995 106.276 130.995 106.276Z" fill="#F23A3E"/>
<rect x="144.652" y="70.1919" width="11.594" height="5.456" rx="2.728" fill="#D1D5DB"/>
<rect x="144.652" y="87.2417" width="15.004" height="5.115" rx="2.5575" fill="#D1D5DB"/>
<rect x="144.652" y="103.951" width="18.414" height="5.456" rx="2.728" fill="#D1D5DB"/>
</g>
<defs>
<filter id="filter0_d_64_11690" x="-11.7659" y="0.285915" width="199.593" height="140.385" filterUnits="userSpaceOnUse" color-interpolation-filters="sRGB">
<feFlood flood-opacity="0" result="BackgroundImageFix"/>
<feColorMatrix in="SourceAlpha" type="matrix" values="0 0 0 0 0 0 0 0 0 0 0 0 0 0 0 0 0 0 127 0" result="hardAlpha"/>
<feMorphology radius="1.22074" operator="dilate" in="SourceAlpha" result="effect1_dropShadow_64_11690"/>
<feOffset dy="3.05186"/>
<feGaussianBlur stdDeviation="4.2726"/>
<feColorMatrix type="matrix" values="0 0 0 0 0.91316 0 0 0 0 0.915718 0 0 0 0 0.920833 0 0 0 0.24 0"/>
<feBlend mode="normal" in2="BackgroundImageFix" result="effect1_dropShadow_64_11690"/>
<feBlend mode="normal" in="SourceGraphic" in2="effect1_dropShadow_64_11690" result="shape"/>
</filter>
<filter id="filter1_d_64_11690" x="66.0075" y="51.5184" width="112.414" height="77.2439" filterUnits="userSpaceOnUse" color-interpolation-filters="sRGB">
<feFlood flood-opacity="0" result="BackgroundImageFix"/>
<feColorMatrix in="SourceAlpha" type="matrix" values="0 0 0 0 0 0 0 0 0 0 0 0 0 0 0 0 0 0 127 0" result="hardAlpha"/>
<feOffset dy="0.341"/>
<feGaussianBlur stdDeviation="4.17937"/>
<feColorMatrix type="matrix" values="0 0 0 0 0.3 0 0 0 0 0.333333 0 0 0 0 0.4 0 0 0 0.14 0"/>
<feBlend mode="normal" in2="BackgroundImageFix" result="effect1_dropShadow_64_11690"/>
<feBlend mode="normal" in="SourceGraphic" in2="effect1_dropShadow_64_11690" result="shape"/>
</filter>
<clipPath id="clip0_64_11690">
<rect width="6.62514" height="6.62514" fill="white" transform="translate(12.2383 21.9204)"/>
</clipPath>
<clipPath id="clip1_64_11690">
<rect width="6.62514" height="6.62514" fill="white" transform="translate(124.086 21.9204)"/>
</clipPath>
</defs>
</svg>
