<svg width="171" height="100" viewBox="0 0 171 100" fill="none" xmlns="http://www.w3.org/2000/svg">
<g filter="url(#filter0_d_1003_83032)">
<rect x="37.2383" y="67.2416" width="96.5235" height="27.7584" rx="3.47562" fill="white"/>
</g>
<rect x="41.0234" y="71.0269" width="20.1879" height="20.1879" rx="1.89262" fill="#DAD5E9"/>
<path d="M43.7151 78.9083V76.3156C43.7151 75.7428 44.194 75.2785 44.7846 75.2785H50.8806C51.4712 75.2785 51.9501 75.7428 51.9501 76.3156V76.7305H55.121C55.4785 76.7305 55.8124 76.9038 56.0108 77.1922L58.3287 80.5636C58.5628 80.9043 58.6878 81.3047 58.6878 81.7141V83.6789C58.6878 84.1855 58.3131 84.6072 57.8179 84.6979C57.5148 85.5531 56.6781 86.1677 55.6933 86.1677C54.7154 86.1677 53.8834 85.5617 53.5751 84.7159H49.5763C49.268 85.5617 48.4361 86.1677 47.4582 86.1677C46.4804 86.1677 45.6485 85.5617 45.3402 84.7159H44.7846C44.1939 84.7159 43.7151 84.2516 43.7151 83.6788L43.7151 78.9083ZM53.6614 78.1824C53.5434 78.1824 53.4475 78.2752 53.4475 78.3898V80.8788C53.4475 80.9933 53.5434 81.0862 53.6614 81.0862H56.3077C56.3686 81.0862 56.4282 81.0694 56.4796 81.0378C56.6293 80.9457 56.6736 80.7535 56.5787 80.6085L55.1174 78.375C55.0389 78.255 54.9026 78.1824 54.7562 78.1824L53.6614 78.1824ZM47.4584 85.0787C48.0787 85.0787 48.5814 84.5913 48.5814 83.9898C48.5814 83.3884 48.0787 82.9009 47.4584 82.9009C46.8383 82.9009 46.3355 83.3884 46.3355 83.9898C46.3355 84.5913 46.8383 85.0787 47.4584 85.0787ZM55.6936 85.0787C56.3138 85.0787 56.8166 84.5913 56.8166 83.9898C56.8166 83.3884 56.3138 82.9009 55.6936 82.9009C55.0734 82.9009 54.5706 83.3884 54.5706 83.9898C54.5706 84.5913 55.0734 85.0787 55.6936 85.0787Z" fill="white"/>
<g clip-path="url(#clip0_1003_83032)">
<path d="M124.381 79.312L126.323 79.5919C126.874 79.6712 127.094 80.3478 126.697 80.7366L125.293 82.1078C125.135 82.2622 125.063 82.4845 125.101 82.7022L125.435 84.6358C125.529 85.1841 124.954 85.603 124.461 85.3447L122.723 84.4337C122.528 84.3311 122.294 84.3314 122.099 84.4344L120.363 85.3496C119.871 85.6091 119.295 85.1915 119.388 84.643L119.717 82.7086C119.754 82.4907 119.682 82.2686 119.523 82.1145L118.117 80.7466C117.718 80.3587 117.937 79.6817 118.488 79.6011L120.429 79.3166C120.648 79.2847 120.837 79.1471 120.934 78.9488L121.8 77.1881C122.046 76.6889 122.758 76.688 123.004 77.1867L123.875 78.9453C123.973 79.1432 124.162 79.2804 124.381 79.3119L124.381 79.312Z" fill="#FFBF40"/>
</g>
<rect x="70.0435" y="72.9194" width="17.6644" height="16.4027" rx="3.08427" fill="#F3F4F6"/>
<g clip-path="url(#clip1_1003_83032)">
<path d="M78.293 82.2528C78.293 81.4144 77.8196 80.902 76.6464 80.5106C75.8086 80.2125 75.4635 80.0169 75.4635 79.7095C75.4635 79.4486 75.6704 79.1875 76.3111 79.1875C76.6921 79.1875 76.999 79.249 77.2418 79.3221C77.3711 79.3608 77.5119 79.3476 77.6308 79.2851C77.7494 79.2228 77.8362 79.1173 77.8699 78.9931L77.8753 78.9736C77.9171 78.8198 77.8919 78.6566 77.8054 78.5204C77.7189 78.3843 77.5784 78.2866 77.415 78.2491C77.1947 78.1985 76.9364 78.162 76.6325 78.1466V77.5886C76.6325 77.4489 76.5128 77.3356 76.3647 77.3356H75.8293C75.6815 77.3356 75.5615 77.4489 75.5615 77.5886V78.224C74.5446 78.4331 73.9551 79.0639 73.9551 79.8676C73.9551 80.7715 74.6748 81.2371 75.7297 81.5728C76.4593 81.8058 76.7744 82.0295 76.7744 82.3833C76.7744 82.7563 76.39 82.961 75.8283 82.961C75.4256 82.961 75.0464 82.8836 74.7177 82.7733C74.5798 82.7269 74.428 82.7373 74.2989 82.8023C74.1699 82.8671 74.0756 82.9802 74.0392 83.1141L74.0368 83.1222C73.9496 83.4449 74.1477 83.7754 74.4853 83.8708C74.8052 83.9613 75.1798 84.0246 75.5616 84.0413V84.6742C75.5616 84.8141 75.6816 84.9272 75.8294 84.9272H76.3648C76.5129 84.9272 76.6326 84.8141 76.6326 84.6742V83.9547C77.7035 83.7444 78.2931 83.0576 78.2931 82.253L78.293 82.2528Z" fill="#6B7280"/>
<path d="M83.262 82.2528C83.262 81.4144 82.7886 80.902 81.6154 80.5106C80.7776 80.2125 80.4325 80.0169 80.4325 79.7095C80.4325 79.4486 80.6394 79.1875 81.2801 79.1875C81.6611 79.1875 81.968 79.249 82.2108 79.3221C82.3401 79.3608 82.4809 79.3476 82.5998 79.2851C82.7184 79.2228 82.8052 79.1173 82.8389 78.9931L82.8443 78.9736C82.8861 78.8198 82.8609 78.6566 82.7744 78.5204C82.6879 78.3843 82.5474 78.2866 82.384 78.2491C82.1637 78.1985 81.9054 78.162 81.6015 78.1466V77.5886C81.6015 77.4489 81.4818 77.3356 81.3337 77.3356H80.7983C80.6504 77.3356 80.5305 77.4489 80.5305 77.5886V78.224C79.5136 78.4331 78.9241 79.0639 78.9241 79.8676C78.9241 80.7715 79.6438 81.2371 80.6987 81.5728C81.4283 81.8058 81.7434 82.0295 81.7434 82.3833C81.7434 82.7563 81.359 82.961 80.7973 82.961C80.3946 82.961 80.0154 82.8836 79.6867 82.7733C79.5488 82.7269 79.397 82.7373 79.2679 82.8023C79.1389 82.8671 79.0446 82.9802 79.0082 83.1141L79.0058 83.1222C78.9186 83.4449 79.1167 83.7754 79.4543 83.8708C79.7742 83.9613 80.1488 84.0246 80.5306 84.0413V84.6742C80.5306 84.8141 80.6505 84.9272 80.7983 84.9272H81.3338C81.4819 84.9272 81.6016 84.8141 81.6016 84.6742V83.9547C82.6725 83.7444 83.2621 83.0576 83.2621 82.253L83.262 82.2528Z" fill="#6B7280"/>
</g>
<g filter="url(#filter1_d_1003_83032)">
<rect x="31.5603" y="46.4228" width="108.51" height="27.7584" rx="3.47562" fill="white"/>
</g>
<rect x="35.3457" y="50.208" width="20.1879" height="20.1879" rx="1.89262" fill="#B5ACD3"/>
<path d="M38.0374 58.0896V55.4969C38.0374 54.9241 38.5162 54.4598 39.1069 54.4598H45.2028C45.7935 54.4598 46.2723 54.9241 46.2723 55.4969V55.9117H49.4433C49.8008 55.9117 50.1347 56.0851 50.333 56.3735L52.6509 59.7449C52.8851 60.0856 53.0101 60.4859 53.0101 60.8954V62.8601C53.0101 63.3667 52.6354 63.7885 52.1402 63.8791C51.8371 64.7344 51.0003 65.349 50.0155 65.349C49.0376 65.349 48.2057 64.743 47.8974 63.8972H43.8986C43.5903 64.743 42.7584 65.349 41.7805 65.349C40.8027 65.349 39.9707 64.743 39.6625 63.8972H39.1069C38.5162 63.8972 38.0374 63.4329 38.0374 62.8601L38.0374 58.0896ZM47.9837 57.3637C47.8656 57.3637 47.7698 57.4565 47.7698 57.571V60.0601C47.7698 60.1745 47.8656 60.2675 47.9837 60.2675H50.63C50.6908 60.2675 50.7505 60.2507 50.8019 60.2191C50.9516 60.127 50.9958 59.9347 50.901 59.7897L49.4397 57.5563C49.3612 57.4363 49.2249 57.3637 49.0785 57.3637L47.9837 57.3637ZM41.7807 64.26C42.401 64.26 42.9037 63.7726 42.9037 63.1711C42.9037 62.5697 42.401 62.0821 41.7807 62.0821C41.1606 62.0821 40.6577 62.5697 40.6577 63.1711C40.6577 63.7726 41.1606 64.26 41.7807 64.26ZM50.0159 64.26C50.636 64.26 51.1388 63.7726 51.1388 63.1711C51.1388 62.5697 50.636 62.0821 50.0159 62.0821C49.3957 62.0821 48.8929 62.5697 48.8929 63.1711C48.8929 63.7726 49.3957 64.26 50.0159 64.26Z" fill="white"/>
<g clip-path="url(#clip2_1003_83032)">
<path d="M130.69 58.4931L132.632 58.773C133.183 58.8524 133.403 59.5289 133.005 59.9177L131.602 61.2889C131.444 61.4433 131.372 61.6656 131.409 61.8833L131.743 63.8169C131.838 64.3652 131.263 64.7841 130.77 64.5258L129.032 63.6149C128.837 63.5123 128.603 63.5125 128.407 63.6155L126.672 64.5307C126.18 64.7903 125.603 64.3726 125.697 63.8242L126.026 61.8897C126.063 61.6719 125.991 61.4498 125.832 61.2957L124.426 59.9278C124.027 59.5399 124.246 58.8629 124.796 58.7823L126.738 58.4978C126.957 58.4658 127.145 58.3282 127.243 58.13L128.109 56.3693C128.355 55.87 129.067 55.8691 129.313 56.3679L130.184 58.1264C130.282 58.3244 130.471 58.4616 130.69 58.4931L130.69 58.4931Z" fill="#FFBF40"/>
</g>
<g clip-path="url(#clip3_1003_83032)">
<path d="M119.334 58.4931L121.276 58.773C121.827 58.8524 122.048 59.5289 121.65 59.9177L120.246 61.2889C120.088 61.4433 120.016 61.6656 120.054 61.8833L120.388 63.8169C120.482 64.3652 119.907 64.7841 119.414 64.5258L117.677 63.6149C117.481 63.5123 117.247 63.5125 117.052 63.6155L115.316 64.5307C114.824 64.7903 114.248 64.3726 114.341 63.8242L114.67 61.8897C114.708 61.6719 114.635 61.4498 114.477 61.2957L113.07 59.9278C112.671 59.5399 112.89 58.8629 113.441 58.7823L115.382 58.4978C115.601 58.4658 115.79 58.3282 115.887 58.13L116.754 56.3693C116.999 55.87 117.711 55.8691 117.958 56.3679L118.828 58.1264C118.926 58.3244 119.115 58.4616 119.334 58.4931L119.334 58.4931Z" fill="#FFBF40"/>
</g>
<rect x="65.6274" y="52.1006" width="20.8188" height="16.4027" rx="3.08427" fill="#F3F4F6"/>
<g clip-path="url(#clip4_1003_83032)">
<path d="M73.2461 61.434C73.2461 60.5957 72.7727 60.0832 71.5995 59.6918C70.7618 59.3937 70.4166 59.1981 70.4166 58.8907C70.4166 58.6298 70.6236 58.3687 71.2643 58.3687C71.6452 58.3687 71.9521 58.4302 72.1949 58.5033C72.3242 58.542 72.4651 58.5288 72.5839 58.4663C72.7025 58.4041 72.7893 58.2985 72.8231 58.1743L72.8284 58.1548C72.8702 58.001 72.845 57.8378 72.7585 57.7016C72.6721 57.5655 72.5315 57.4678 72.3682 57.4303C72.1479 57.3797 71.8895 57.3432 71.5856 57.3278V56.7698C71.5856 56.6301 71.4659 56.5168 71.3179 56.5168H70.7824C70.6346 56.5168 70.5147 56.6301 70.5147 56.7698V57.4052C69.4978 57.6143 68.9082 58.2451 68.9082 59.0488C68.9082 59.9527 69.6279 60.4183 70.6828 60.754C71.4125 60.9871 71.7276 61.2107 71.7276 61.5645C71.7276 61.9375 71.3431 62.1422 70.7814 62.1422C70.3787 62.1422 69.9996 62.0648 69.6708 61.9545C69.5329 61.9081 69.3811 61.9186 69.2521 61.9835C69.123 62.0483 69.0288 62.1614 68.9923 62.2953L68.9899 62.3034C68.9027 62.6261 69.1008 62.9566 69.4384 63.052C69.7584 63.1425 70.1329 63.2058 70.5147 63.2225V63.8554C70.5147 63.9953 70.6347 64.1084 70.7825 64.1084H71.318C71.466 64.1084 71.5857 63.9953 71.5857 63.8554V63.1359C72.6567 62.9256 73.2463 62.2388 73.2463 61.4342L73.2461 61.434Z" fill="#6B7280"/>
<path d="M78.2151 61.434C78.2151 60.5957 77.7417 60.0832 76.5685 59.6918C75.7307 59.3937 75.3856 59.1981 75.3856 58.8907C75.3856 58.6298 75.5925 58.3687 76.2332 58.3687C76.6142 58.3687 76.9211 58.4302 77.1639 58.5033C77.2932 58.542 77.4341 58.5288 77.5529 58.4663C77.6715 58.4041 77.7583 58.2985 77.7921 58.1743L77.7974 58.1548C77.8392 58.001 77.814 57.8378 77.7275 57.7016C77.6411 57.5655 77.5005 57.4678 77.3372 57.4303C77.1169 57.3797 76.8585 57.3432 76.5546 57.3278V56.7698C76.5546 56.6301 76.4349 56.5168 76.2869 56.5168H75.7514C75.6036 56.5168 75.4837 56.6301 75.4837 56.7698V57.4052C74.4668 57.6143 73.8772 58.2451 73.8772 59.0488C73.8772 59.9527 74.5969 60.4183 75.6518 60.754C76.3814 60.9871 76.6966 61.2107 76.6966 61.5645C76.6966 61.9375 76.3121 62.1422 75.7504 62.1422C75.3477 62.1422 74.9686 62.0648 74.6398 61.9545C74.5019 61.9081 74.3501 61.9186 74.221 61.9835C74.092 62.0483 73.9977 62.1614 73.9613 62.2953L73.9589 62.3034C73.8717 62.6261 74.0698 62.9566 74.4074 63.052C74.7274 63.1425 75.1019 63.2058 75.4837 63.2225V63.8554C75.4837 63.9953 75.6037 64.1084 75.7515 64.1084H76.287C76.435 64.1084 76.5547 63.9953 76.5547 63.8554V63.1359C77.6256 62.9256 78.2153 62.2388 78.2153 61.4342L78.2151 61.434Z" fill="#6B7280"/>
<path d="M83.1841 61.434C83.1841 60.5957 82.7107 60.0832 81.5375 59.6918C80.6997 59.3937 80.3546 59.1981 80.3546 58.8907C80.3546 58.6298 80.5615 58.3687 81.2022 58.3687C81.5832 58.3687 81.8901 58.4302 82.1329 58.5033C82.2622 58.542 82.4031 58.5288 82.5219 58.4663C82.6405 58.4041 82.7273 58.2985 82.7611 58.1743L82.7664 58.1548C82.8082 58.001 82.783 57.8378 82.6965 57.7016C82.6101 57.5655 82.4695 57.4678 82.3062 57.4303C82.0859 57.3797 81.8275 57.3432 81.5236 57.3278V56.7698C81.5236 56.6301 81.4039 56.5168 81.2559 56.5168H80.7204C80.5726 56.5168 80.4526 56.6301 80.4526 56.7698V57.4052C79.4357 57.6143 78.8462 58.2451 78.8462 59.0488C78.8462 59.9527 79.5659 60.4183 80.6208 60.754C81.3504 60.9871 81.6656 61.2107 81.6656 61.5645C81.6656 61.9375 81.2811 62.1422 80.7194 62.1422C80.3167 62.1422 79.9375 62.0648 79.6088 61.9545C79.4709 61.9081 79.3191 61.9186 79.19 61.9835C79.061 62.0483 78.9667 62.1614 78.9303 62.2953L78.9279 62.3034C78.8407 62.6261 79.0388 62.9566 79.3764 63.052C79.6964 63.1425 80.0709 63.2058 80.4527 63.2225V63.8554C80.4527 63.9953 80.5727 64.1084 80.7205 64.1084H81.2559C81.404 64.1084 81.5237 63.9953 81.5237 63.8554V63.1359C82.5946 62.9256 83.1843 62.2388 83.1843 61.4342L83.1841 61.434Z" fill="#6B7280"/>
</g>
<g filter="url(#filter2_d_1003_83032)">
<rect x="19.5737" y="23.7114" width="131.852" height="27.7584" rx="3.47562" fill="white"/>
</g>
<rect x="23.3591" y="27.4966" width="20.1879" height="20.1879" rx="1.89262" fill="#9182BE"/>
<path d="M26.0508 35.3782V32.7855C26.0508 32.2127 26.5297 31.7484 27.1203 31.7484H33.2162C33.8069 31.7484 34.2858 32.2127 34.2858 32.7855V33.2003H37.4567C37.8142 33.2003 38.1481 33.3736 38.3465 33.6621L40.6644 37.0335C40.8985 37.3742 41.0235 37.7745 41.0235 38.1839V40.1487C41.0235 40.6553 40.6488 41.0771 40.1536 41.1677C39.8505 42.023 39.0138 42.6376 38.029 42.6376C37.0511 42.6376 36.2191 42.0316 35.9108 41.1858H31.912C31.6037 42.0316 30.7718 42.6376 29.7939 42.6376C28.8161 42.6376 27.9842 42.0316 27.6759 41.1858H27.1203C26.5296 41.1858 26.0508 40.7215 26.0508 40.1487L26.0508 35.3782ZM35.9971 34.6523C35.8791 34.6523 35.7832 34.745 35.7832 34.8596V37.3487C35.7832 37.4631 35.8791 37.556 35.9971 37.556H38.6434C38.7043 37.556 38.7639 37.5393 38.8153 37.5076C38.965 37.4155 39.0093 37.2233 38.9144 37.0783L37.4531 34.8449C37.3746 34.7248 37.2383 34.6523 37.0919 34.6523L35.9971 34.6523ZM29.7941 41.5486C30.4144 41.5486 30.9171 41.0611 30.9171 40.4596C30.9171 39.8583 30.4144 39.3707 29.7941 39.3707C29.174 39.3707 28.6712 39.8583 28.6712 40.4596C28.6712 41.0611 29.174 41.5486 29.7941 41.5486ZM38.0293 41.5486C38.6494 41.5486 39.1523 41.0611 39.1523 40.4596C39.1523 39.8583 38.6494 39.3707 38.0293 39.3707C37.4091 39.3707 36.9063 39.8583 36.9063 40.4596C36.9063 41.0611 37.4091 41.5486 38.0293 41.5486Z" fill="white"/>
<rect x="53.6411" y="28.7584" width="17.6644" height="17.6644" rx="3.08427" fill="#F3F4F6"/>
<path d="M62.1426 38.7226C62.1426 37.8842 61.6692 37.3718 60.496 36.9804C59.6582 36.6823 59.3131 36.4867 59.3131 36.1793C59.3131 35.9183 59.52 35.6572 60.1607 35.6572C60.5417 35.6572 60.8486 35.7188 61.0914 35.7919C61.2207 35.8305 61.3615 35.8174 61.4804 35.7549C61.599 35.6926 61.6858 35.5871 61.7196 35.4629L61.7249 35.4434C61.7667 35.2896 61.7415 35.1264 61.655 34.9902C61.5686 34.854 61.428 34.7564 61.2647 34.7189C61.0443 34.6683 60.786 34.6318 60.4821 34.6164V34.0584C60.4821 33.9187 60.3624 33.8054 60.2144 33.8054H59.6789C59.5311 33.8054 59.4111 33.9187 59.4111 34.0584V34.6938C58.3942 34.9029 57.8047 35.5337 57.8047 36.3374C57.8047 37.2413 58.5244 37.7069 59.5793 38.0426C60.3089 38.2756 60.624 38.4993 60.624 38.8531C60.624 39.2261 60.2396 39.4308 59.6779 39.4308C59.2752 39.4308 58.896 39.3534 58.5673 39.243C58.4294 39.1967 58.2776 39.2071 58.1485 39.2721C58.0195 39.3369 57.9252 39.45 57.8888 39.5839L57.8864 39.592C57.7992 39.9147 57.9973 40.2452 58.3349 40.3405C58.6548 40.4311 59.0294 40.4944 59.4112 40.5111V41.1439C59.4112 41.2839 59.5312 41.397 59.679 41.397H60.2144C60.3625 41.397 60.4822 41.2839 60.4822 41.1439V40.4245C61.5531 40.2142 62.1428 39.5274 62.1428 38.7228L62.1426 38.7226Z" fill="#6B7280"/>
<path d="M67.1116 38.7226C67.1116 37.8842 66.6382 37.3718 65.465 36.9804C64.6272 36.6823 64.2821 36.4867 64.2821 36.1793C64.2821 35.9183 64.489 35.6572 65.1297 35.6572C65.5107 35.6572 65.8176 35.7188 66.0604 35.7919C66.1897 35.8305 66.3305 35.8174 66.4494 35.7549C66.568 35.6926 66.6548 35.5871 66.6885 35.4629L66.6939 35.4434C66.7357 35.2896 66.7105 35.1264 66.624 34.9902C66.5375 34.854 66.397 34.7564 66.2336 34.7189C66.0133 34.6683 65.755 34.6318 65.4511 34.6164V34.0584C65.4511 33.9187 65.3314 33.8054 65.1834 33.8054H64.6479C64.5001 33.8054 64.3801 33.9187 64.3801 34.0584V34.6938C63.3632 34.9029 62.7737 35.5337 62.7737 36.3374C62.7737 37.2413 63.4934 37.7069 64.5483 38.0426C65.2779 38.2756 65.593 38.4993 65.593 38.8531C65.593 39.2261 65.2086 39.4308 64.6469 39.4308C64.2442 39.4308 63.865 39.3534 63.5363 39.243C63.3984 39.1967 63.2466 39.2071 63.1175 39.2721C62.9885 39.3369 62.8942 39.45 62.8578 39.5839L62.8554 39.592C62.7682 39.9147 62.9663 40.2452 63.3039 40.3405C63.6238 40.4311 63.9984 40.4944 64.3802 40.5111V41.1439C64.3802 41.2839 64.5002 41.397 64.648 41.397H65.1834C65.3315 41.397 65.4512 41.2839 65.4512 41.1439V40.4245C66.5221 40.2142 67.1118 39.5274 67.1118 38.7228L67.1116 38.7226Z" fill="#6B7280"/>
<g clip-path="url(#clip5_1003_83032)">
<path d="M130.69 35.7818L132.632 36.0617C133.183 36.141 133.403 36.8175 133.005 37.2064L131.602 38.5775C131.444 38.7319 131.372 38.9543 131.409 39.172L131.743 41.1056C131.838 41.6539 131.263 42.0728 130.77 41.8144L129.032 40.9035C128.837 40.8009 128.603 40.8011 128.407 40.9042L126.672 41.8194C126.18 42.0789 125.603 41.6613 125.697 41.1128L126.026 39.1784C126.063 38.9605 125.991 38.7384 125.832 38.5843L124.426 37.2164C124.027 36.8285 124.246 36.1515 124.796 36.0709L126.738 35.7864C126.957 35.7545 127.145 35.6168 127.243 35.4186L128.109 33.6579C128.355 33.1587 129.067 33.1577 129.313 33.6565L130.184 35.4151C130.282 35.613 130.471 35.7502 130.69 35.7817L130.69 35.7818Z" fill="#FFBF40"/>
</g>
<g clip-path="url(#clip6_1003_83032)">
<path d="M119.334 35.7818L121.276 36.0617C121.827 36.141 122.048 36.8175 121.65 37.2064L120.246 38.5775C120.088 38.7319 120.016 38.9543 120.054 39.172L120.388 41.1056C120.482 41.6539 119.907 42.0728 119.414 41.8144L117.677 40.9035C117.481 40.8009 117.247 40.8011 117.052 40.9042L115.316 41.8194C114.824 42.0789 114.248 41.6613 114.341 41.1128L114.67 39.1784C114.708 38.9605 114.635 38.7384 114.477 38.5843L113.07 37.2164C112.671 36.8285 112.89 36.1515 113.441 36.0709L115.382 35.7864C115.601 35.7545 115.79 35.6168 115.887 35.4186L116.754 33.6579C116.999 33.1587 117.711 33.1577 117.958 33.6565L118.828 35.4151C118.926 35.613 119.115 35.7502 119.334 35.7817L119.334 35.7818Z" fill="#FFBF40"/>
</g>
<g clip-path="url(#clip7_1003_83032)">
<path d="M142.045 35.7818L143.988 36.0617C144.538 36.141 144.759 36.8175 144.361 37.2064L142.958 38.5775C142.799 38.7319 142.728 38.9543 142.765 39.172L143.099 41.1056C143.194 41.6539 142.619 42.0728 142.126 41.8144L140.388 40.9035C140.192 40.8009 139.959 40.8011 139.763 40.9042L138.027 41.8194C137.535 42.0789 136.959 41.6613 137.053 41.1128L137.382 39.1784C137.419 38.9605 137.347 38.7384 137.188 38.5843L135.781 37.2164C135.383 36.8285 135.602 36.1515 136.152 36.0709L138.094 35.7864C138.312 35.7545 138.501 35.6168 138.599 35.4186L139.465 33.6579C139.711 33.1587 140.422 33.1577 140.669 33.6565L141.54 35.4151C141.637 35.613 141.827 35.7502 142.045 35.7817L142.045 35.7818Z" fill="#FFBF40"/>
</g>
<g filter="url(#filter3_d_1003_83032)">
<rect x="3.17114" y="1" width="164.658" height="27.7584" rx="3.47562" fill="white"/>
</g>
<rect x="120.513" y="6.04694" width="42.2349" height="17.6644" rx="2.60672" fill="#111827"/>
<path d="M131.811 13.1858C131.781 12.9229 131.659 12.7193 131.444 12.5749C131.229 12.4286 130.959 12.3555 130.633 12.3555C130.4 12.3555 130.198 12.3925 130.028 12.4666C129.857 12.5388 129.725 12.6387 129.631 12.7665C129.538 12.8924 129.492 13.0359 129.492 13.1969C129.492 13.3321 129.523 13.4487 129.586 13.5468C129.651 13.645 129.735 13.7273 129.839 13.794C129.944 13.8588 130.057 13.9134 130.178 13.9578C130.298 14.0004 130.414 14.0356 130.525 14.0634L131.08 14.2078C131.262 14.2522 131.448 14.3124 131.638 14.3883C131.829 14.4642 132.006 14.5642 132.169 14.6882C132.332 14.8122 132.463 14.9659 132.563 15.1492C132.665 15.3325 132.716 15.5519 132.716 15.8073C132.716 16.1295 132.633 16.4155 132.466 16.6655C132.301 16.9154 132.061 17.1126 131.747 17.257C131.434 17.4014 131.055 17.4736 130.611 17.4736C130.185 17.4736 129.817 17.406 129.506 17.2708C129.195 17.1357 128.951 16.9441 128.775 16.696C128.599 16.4461 128.502 16.1498 128.484 15.8073H129.345C129.361 16.0128 129.428 16.1841 129.544 16.3211C129.663 16.4562 129.814 16.5571 129.997 16.6238C130.182 16.6886 130.385 16.721 130.605 16.721C130.848 16.721 131.064 16.683 131.252 16.6071C131.443 16.5294 131.593 16.422 131.702 16.285C131.811 16.1461 131.866 15.9841 131.866 15.799C131.866 15.6305 131.818 15.4926 131.722 15.3852C131.627 15.2779 131.499 15.189 131.336 15.1186C131.175 15.0483 130.992 14.9863 130.789 14.9326L130.117 14.7493C129.661 14.6252 129.3 14.4429 129.033 14.2022C128.769 13.9615 128.636 13.6431 128.636 13.2469C128.636 12.9192 128.725 12.6332 128.903 12.3888C129.081 12.1444 129.321 11.9547 129.625 11.8195C129.929 11.6825 130.271 11.614 130.653 11.614C131.038 11.614 131.377 11.6816 131.672 11.8167C131.968 11.9519 132.201 12.1379 132.371 12.3749C132.542 12.61 132.631 12.8803 132.638 13.1858H131.811ZM134.505 14.8465V17.3792H133.675V11.6918H134.494V13.8079H134.547C134.647 13.5783 134.799 13.3959 135.005 13.2608C135.21 13.1256 135.479 13.0581 135.81 13.0581C136.103 13.0581 136.358 13.1182 136.577 13.2386C136.797 13.3589 136.967 13.5385 137.088 13.7773C137.21 14.0143 137.271 14.3105 137.271 14.666V17.3792H136.441V14.766C136.441 14.4531 136.36 14.2105 136.199 14.0384C136.038 13.8643 135.814 13.7773 135.527 13.7773C135.331 13.7773 135.155 13.819 134.999 13.9023C134.846 13.9856 134.724 14.1078 134.635 14.2689C134.548 14.4281 134.505 14.6206 134.505 14.8465ZM138.379 17.3792V13.1136H139.209V17.3792H138.379ZM138.798 12.4555C138.654 12.4555 138.53 12.4073 138.426 12.311C138.324 12.2129 138.273 12.0963 138.273 11.9611C138.273 11.8241 138.324 11.7075 138.426 11.6112C138.53 11.5131 138.654 11.464 138.798 11.464C138.943 11.464 139.066 11.5131 139.168 11.6112C139.271 11.7075 139.323 11.8241 139.323 11.9611C139.323 12.0963 139.271 12.2129 139.168 12.311C139.066 12.4073 138.943 12.4555 138.798 12.4555ZM140.326 18.9787V13.1136H141.137V13.8051H141.207C141.255 13.7162 141.324 13.6135 141.415 13.4968C141.506 13.3802 141.632 13.2784 141.793 13.1914C141.954 13.1025 142.167 13.0581 142.431 13.0581C142.776 13.0581 143.083 13.1451 143.353 13.3191C143.624 13.4931 143.836 13.744 143.989 14.0717C144.145 14.3994 144.223 14.7937 144.223 15.2547C144.223 15.7157 144.146 16.111 143.992 16.4405C143.838 16.7682 143.627 17.0209 143.359 17.1986C143.09 17.3745 142.784 17.4625 142.44 17.4625C142.18 17.4625 141.968 17.419 141.804 17.3319C141.641 17.2449 141.513 17.1431 141.42 17.0265C141.328 16.9098 141.257 16.8062 141.207 16.7154H141.157V18.9787H140.326ZM141.14 15.2464C141.14 15.5463 141.184 15.8092 141.271 16.0351C141.358 16.2609 141.483 16.4377 141.648 16.5655C141.813 16.6914 142.015 16.7543 142.254 16.7543C142.502 16.7543 142.709 16.6886 142.876 16.5571C143.042 16.4238 143.168 16.2433 143.253 16.0156C143.34 15.7879 143.384 15.5315 143.384 15.2464C143.384 14.965 143.341 14.7123 143.256 14.4882C143.173 14.2642 143.047 14.0874 142.878 13.9578C142.712 13.8282 142.504 13.7634 142.254 13.7634C142.013 13.7634 141.809 13.8255 141.643 13.9495C141.478 14.0735 141.353 14.2466 141.268 14.4688C141.183 14.691 141.14 14.9502 141.14 15.2464Z" fill="white"/>
<g clip-path="url(#clip8_1003_83032)">
<path d="M154.887 14.5636L153.039 12.7151C152.869 12.5448 152.585 12.5448 152.414 12.7151C152.244 12.8855 152.244 13.1694 152.414 13.3397L153.506 14.4375H149.468C149.222 14.4375 149.027 14.633 149.027 14.8791C149.027 15.1251 149.222 15.3207 149.468 15.3207H153.506L152.414 16.4121C152.244 16.5824 152.244 16.8663 152.414 17.0366C152.503 17.1249 152.616 17.1691 152.73 17.1691C152.843 17.1691 152.957 17.1249 153.045 17.0366L154.887 15.1945C154.969 15.1125 155.02 14.999 155.02 14.8791C155.02 14.7592 154.976 14.6456 154.887 14.5636L154.887 14.5636Z" fill="#6B7280"/>
</g>
<rect x="37.2383" y="6.04694" width="17.6644" height="17.6644" rx="3.08427" fill="#F3F4F6"/>
<path d="M48.2635 16.0112C48.2635 15.1729 47.7901 14.6604 46.6169 14.269C45.7791 13.9709 45.4339 13.7753 45.4339 13.4679C45.4339 13.207 45.6409 12.9459 46.2816 12.9459C46.6626 12.9459 46.9694 13.0074 47.2123 13.0805C47.3416 13.1192 47.4824 13.106 47.6013 13.0435C47.7199 12.9813 47.8066 12.8757 47.8404 12.7515L47.8457 12.7321C47.8875 12.5782 47.8623 12.415 47.7759 12.2788C47.6894 12.1427 47.5488 12.045 47.3855 12.0075C47.1652 11.9569 46.9068 11.9204 46.6029 11.905V11.347C46.6029 11.2073 46.4833 11.094 46.3352 11.094H45.7997C45.6519 11.094 45.532 11.2073 45.532 11.347V11.9825C44.5151 12.1915 43.9255 12.8223 43.9255 13.6261C43.9255 14.5299 44.6452 14.9955 45.7002 15.3312C46.4298 15.5643 46.7449 15.7879 46.7449 16.1417C46.7449 16.5147 46.3604 16.7195 45.7987 16.7195C45.396 16.7195 45.0169 16.642 44.6881 16.5317C44.5502 16.4853 44.3984 16.4958 44.2694 16.5608C44.1403 16.6255 44.0461 16.7386 44.0097 16.8725L44.0073 16.8806C43.92 17.2033 44.1181 17.5338 44.4557 17.6292C44.7757 17.7197 45.1503 17.783 45.5321 17.7997V18.4326C45.5321 18.5725 45.652 18.6856 45.7998 18.6856H46.3353C46.4834 18.6856 46.603 18.5725 46.603 18.4326V17.7132C47.674 17.5028 48.2636 16.816 48.2636 16.0114L48.2635 16.0112Z" fill="#6B7280"/>
<rect x="6.9563" y="4.78522" width="20.1879" height="20.1879" rx="1.89262" fill="#472F92"/>
<path d="M9.64823 12.6667V10.074C9.64823 9.50125 10.1271 9.03693 10.7177 9.03693H16.8137C17.4043 9.03693 17.8832 9.50125 17.8832 10.074V10.4889H21.0541C21.4116 10.4889 21.7455 10.6622 21.9439 10.9506L24.2618 14.322C24.4959 14.6627 24.6209 15.0631 24.6209 15.4725V17.4373C24.6209 17.9439 24.2463 18.3656 23.751 18.4563C23.4479 19.3115 22.6112 19.9262 21.6264 19.9262C20.6485 19.9262 19.8165 19.3201 19.5082 18.4744H15.5094C15.2012 19.3201 14.3692 19.9262 13.3913 19.9262C12.4135 19.9262 11.5816 19.3201 11.2733 18.4744H10.7177C10.127 18.4744 9.64819 18.01 9.64819 17.4373L9.64823 12.6667ZM19.5945 11.9408C19.4765 11.9408 19.3807 12.0336 19.3807 12.1482V14.6372C19.3807 14.7517 19.4765 14.8446 19.5945 14.8446H22.2408C22.3017 14.8446 22.3613 14.8279 22.4127 14.7962C22.5624 14.7041 22.6067 14.5119 22.5118 14.3669L21.0505 12.1335C20.972 12.0134 20.8357 11.9408 20.6893 11.9408L19.5945 11.9408ZM13.3915 18.8371C14.0118 18.8371 14.5145 18.3497 14.5145 17.7482C14.5145 17.1469 14.0118 16.6593 13.3915 16.6593C12.7714 16.6593 12.2686 17.1469 12.2686 17.7482C12.2686 18.3497 12.7714 18.8371 13.3915 18.8371ZM21.6267 18.8371C22.2469 18.8371 22.7497 18.3497 22.7497 17.7482C22.7497 17.1469 22.2469 16.6593 21.6267 16.6593C21.0065 16.6593 20.5037 17.1469 20.5037 17.7482C20.5037 18.3497 21.0065 18.8371 21.6267 18.8371Z" fill="white"/>
<g clip-path="url(#clip9_1003_83032)">
<path d="M88.4214 13.0703L90.3636 13.3503C90.9143 13.4296 91.135 14.1061 90.7371 14.4949L89.3335 15.8661C89.1754 16.0205 89.1036 16.2428 89.1411 16.4606L89.4751 18.3941C89.5698 18.9424 88.9947 19.3613 88.5019 19.103L86.764 18.1921C86.5683 18.0895 86.3346 18.0897 86.1392 18.1928L84.4034 19.108C83.9113 19.3675 83.3351 18.9499 83.4285 18.4014L83.7579 16.4669C83.7949 16.2491 83.7225 16.027 83.564 15.8729L82.1574 14.505C81.7585 14.1171 81.9775 13.4401 82.5282 13.3595L84.4696 13.075C84.6882 13.043 84.8771 12.9054 84.9746 12.7072L85.841 10.9465C86.0867 10.4472 86.7983 10.4463 87.045 10.9451L87.9155 12.7036C88.0135 12.9016 88.2027 13.0388 88.4214 13.0703L88.4214 13.0703Z" fill="#FFBF40"/>
</g>
<g clip-path="url(#clip10_1003_83032)">
<path d="M99.7769 13.0703L101.719 13.3503C102.27 13.4296 102.49 14.1061 102.093 14.4949L100.689 15.8661C100.531 16.0205 100.459 16.2428 100.497 16.4606L100.831 18.3941C100.925 18.9424 100.35 19.3613 99.8573 19.103L98.1194 18.1921C97.9238 18.0895 97.69 18.0897 97.4947 18.1928L95.7589 19.108C95.2667 19.3675 94.6905 18.9499 94.784 18.4014L95.1133 16.4669C95.1504 16.2491 95.078 16.027 94.9195 15.8729L93.5129 14.505C93.114 14.1171 93.333 13.4401 93.8836 13.3595L95.8251 13.075C96.0437 13.043 96.2325 12.9054 96.3301 12.7072L97.1965 10.9465C97.4421 10.4472 98.1537 10.4463 98.4005 10.9451L99.271 12.7036C99.3689 12.9016 99.5581 13.0388 99.7769 13.0703L99.7769 13.0703Z" fill="#FFBF40"/>
</g>
<g clip-path="url(#clip11_1003_83032)">
<path d="M111.133 13.0703L113.075 13.3503C113.625 13.4296 113.846 14.1061 113.448 14.4949L112.045 15.8661C111.887 16.0205 111.815 16.2428 111.852 16.4606L112.186 18.3941C112.281 18.9424 111.706 19.3613 111.213 19.103L109.475 18.1921C109.279 18.0895 109.046 18.0897 108.85 18.1928L107.115 19.108C106.622 19.3675 106.046 18.9499 106.14 18.4014L106.469 16.4669C106.506 16.2491 106.434 16.027 106.275 15.8729L104.869 14.505C104.47 14.1171 104.689 13.4401 105.239 13.3595L107.181 13.075C107.399 13.043 107.588 12.9054 107.686 12.7072L108.552 10.9465C108.798 10.4472 109.509 10.4463 109.756 10.9451L110.627 12.7036C110.725 12.9016 110.914 13.0388 111.133 13.0703L111.133 13.0703Z" fill="#FFBF40"/>
</g>
<defs>
<filter id="filter0_d_1003_83032" x="34.7148" y="66.6107" width="101.57" height="32.8053" filterUnits="userSpaceOnUse" color-interpolation-filters="sRGB">
<feFlood flood-opacity="0" result="BackgroundImageFix"/>
<feColorMatrix in="SourceAlpha" type="matrix" values="0 0 0 0 0 0 0 0 0 0 0 0 0 0 0 0 0 0 127 0" result="hardAlpha"/>
<feOffset dy="1.89262"/>
<feGaussianBlur stdDeviation="1.26174"/>
<feComposite in2="hardAlpha" operator="out"/>
<feColorMatrix type="matrix" values="0 0 0 0 0.639216 0 0 0 0 0.67451 0 0 0 0 0.745098 0 0 0 0.24 0"/>
<feBlend mode="normal" in2="BackgroundImageFix" result="effect1_dropShadow_1003_83032"/>
<feBlend mode="normal" in="SourceGraphic" in2="effect1_dropShadow_1003_83032" result="shape"/>
</filter>
<filter id="filter1_d_1003_83032" x="29.0368" y="45.7919" width="113.557" height="32.8053" filterUnits="userSpaceOnUse" color-interpolation-filters="sRGB">
<feFlood flood-opacity="0" result="BackgroundImageFix"/>
<feColorMatrix in="SourceAlpha" type="matrix" values="0 0 0 0 0 0 0 0 0 0 0 0 0 0 0 0 0 0 127 0" result="hardAlpha"/>
<feOffset dy="1.89262"/>
<feGaussianBlur stdDeviation="1.26174"/>
<feComposite in2="hardAlpha" operator="out"/>
<feColorMatrix type="matrix" values="0 0 0 0 0.639216 0 0 0 0 0.67451 0 0 0 0 0.745098 0 0 0 0.24 0"/>
<feBlend mode="normal" in2="BackgroundImageFix" result="effect1_dropShadow_1003_83032"/>
<feBlend mode="normal" in="SourceGraphic" in2="effect1_dropShadow_1003_83032" result="shape"/>
</filter>
<filter id="filter2_d_1003_83032" x="17.0502" y="23.0806" width="136.899" height="32.8053" filterUnits="userSpaceOnUse" color-interpolation-filters="sRGB">
<feFlood flood-opacity="0" result="BackgroundImageFix"/>
<feColorMatrix in="SourceAlpha" type="matrix" values="0 0 0 0 0 0 0 0 0 0 0 0 0 0 0 0 0 0 127 0" result="hardAlpha"/>
<feOffset dy="1.89262"/>
<feGaussianBlur stdDeviation="1.26174"/>
<feComposite in2="hardAlpha" operator="out"/>
<feColorMatrix type="matrix" values="0 0 0 0 0.639216 0 0 0 0 0.67451 0 0 0 0 0.745098 0 0 0 0.24 0"/>
<feBlend mode="normal" in2="BackgroundImageFix" result="effect1_dropShadow_1003_83032"/>
<feBlend mode="normal" in="SourceGraphic" in2="effect1_dropShadow_1003_83032" result="shape"/>
</filter>
<filter id="filter3_d_1003_83032" x="0.647653" y="0.369128" width="169.705" height="32.8053" filterUnits="userSpaceOnUse" color-interpolation-filters="sRGB">
<feFlood flood-opacity="0" result="BackgroundImageFix"/>
<feColorMatrix in="SourceAlpha" type="matrix" values="0 0 0 0 0 0 0 0 0 0 0 0 0 0 0 0 0 0 127 0" result="hardAlpha"/>
<feOffset dy="1.89262"/>
<feGaussianBlur stdDeviation="1.26174"/>
<feComposite in2="hardAlpha" operator="out"/>
<feColorMatrix type="matrix" values="0 0 0 0 0.639216 0 0 0 0 0.67451 0 0 0 0 0.745098 0 0 0 0.24 0"/>
<feBlend mode="normal" in2="BackgroundImageFix" result="effect1_dropShadow_1003_83032"/>
<feBlend mode="normal" in="SourceGraphic" in2="effect1_dropShadow_1003_83032" result="shape"/>
</filter>
<clipPath id="clip0_1003_83032">
<rect width="10.094" height="10.094" fill="white" transform="translate(117.359 76.0738)"/>
</clipPath>
<clipPath id="clip1_1003_83032">
<rect width="11.3557" height="10.094" fill="white" transform="translate(73.198 76.0738)"/>
</clipPath>
<clipPath id="clip2_1003_83032">
<rect width="10.094" height="10.094" fill="white" transform="translate(123.668 55.2551)"/>
</clipPath>
<clipPath id="clip3_1003_83032">
<rect width="10.094" height="10.094" fill="white" transform="translate(112.312 55.2551)"/>
</clipPath>
<clipPath id="clip4_1003_83032">
<rect width="15.7718" height="10.094" fill="white" transform="translate(68.1509 55.2551)"/>
</clipPath>
<clipPath id="clip5_1003_83032">
<rect width="10.094" height="10.094" fill="white" transform="translate(123.668 32.5436)"/>
</clipPath>
<clipPath id="clip6_1003_83032">
<rect width="10.094" height="10.094" fill="white" transform="translate(112.312 32.5436)"/>
</clipPath>
<clipPath id="clip7_1003_83032">
<rect width="10.094" height="10.094" fill="white" transform="translate(135.023 32.5436)"/>
</clipPath>
<clipPath id="clip8_1003_83032">
<rect width="6.30872" height="6.30872" fill="white" transform="matrix(-1 0 0 -1 155.178 18.0335)"/>
</clipPath>
<clipPath id="clip9_1003_83032">
<rect width="10.094" height="10.094" fill="white" transform="translate(81.3994 9.83221)"/>
</clipPath>
<clipPath id="clip10_1003_83032">
<rect width="10.094" height="10.094" fill="white" transform="translate(92.7549 9.83221)"/>
</clipPath>
<clipPath id="clip11_1003_83032">
<rect width="10.094" height="10.094" fill="white" transform="translate(104.111 9.83221)"/>
</clipPath>
</defs>
</svg>
