<svg width="135" height="46" viewBox="0 0 135 46" fill="none" xmlns="http://www.w3.org/2000/svg">
<path fill-rule="evenodd" clip-rule="evenodd" d="M135 0H0V46H135V0ZM22.7211 35.126C23.2811 35.098 23.8691 35.056 24.4851 35V30.212C23.7291 30.296 23.0851 30.338 22.5531 30.338C21.6291 30.338 20.9291 30.17 20.4531 29.834C19.9771 29.47 19.7391 28.798 19.7391 27.818V18.662H24.4011V14H19.7391V7.07L14.5311 8.834V14H10.5831V18.662H14.5311V28.154C14.5311 29.554 14.6711 30.716 14.9511 31.64C15.2591 32.536 15.6931 33.25 16.2531 33.782C16.8411 34.314 17.5411 34.692 18.3531 34.916C19.1931 35.112 20.1311 35.21 21.1671 35.21C21.6711 35.21 22.1891 35.182 22.7211 35.126ZM42.7463 14.336C41.4583 13.748 40.0303 13.454 38.4622 13.454C36.8382 13.454 35.3403 13.748 33.9683 14.336C32.5962 14.896 31.4202 15.666 30.4403 16.646C29.4883 17.626 28.7323 18.788 28.1723 20.132C27.6402 21.476 27.3743 22.932 27.3743 24.5C27.3743 26.068 27.6402 27.524 28.1723 28.868C28.7323 30.212 29.5023 31.388 30.4823 32.396C31.4902 33.376 32.6943 34.146 34.0942 34.706C35.5223 35.266 37.0903 35.546 38.7983 35.546C40.8423 35.546 42.6343 35.154 44.1743 34.37C45.7143 33.586 46.9743 32.48 47.9543 31.052L43.9643 28.7C43.4883 29.428 42.7743 30.016 41.8223 30.464C40.8983 30.884 39.9183 31.094 38.8823 31.094C37.2583 31.094 35.8862 30.674 34.7663 29.834C33.6743 28.966 32.9463 27.818 32.5822 26.39H48.8363C48.9482 25.83 49.0042 25.214 49.0042 24.542C49.0042 23.002 48.7383 21.56 48.2063 20.216C47.7023 18.872 46.9883 17.696 46.0643 16.688C45.1403 15.68 44.0343 14.896 42.7463 14.336ZM42.2423 19.124C43.2783 19.88 43.8942 20.944 44.0903 22.316H32.4982C32.5262 21.728 32.6943 21.182 33.0023 20.678C33.3102 20.146 33.7303 19.684 34.2622 19.292C34.7943 18.9 35.4103 18.592 36.1103 18.368C36.8102 18.116 37.5662 17.99 38.3783 17.99C39.9183 17.99 41.2062 18.368 42.2423 19.124ZM63.4076 18.83C63.7436 18.83 64.0516 18.872 64.3316 18.956L64.7096 14H64.0376C62.3016 14 60.8736 14.392 59.7536 15.176C58.6616 15.932 57.8916 16.8 57.4436 17.78V14H52.2356V35H57.4436V24.29C57.4436 22.526 58.0176 21.182 59.1656 20.258C60.3136 19.306 61.7276 18.83 63.4076 18.83ZM95.4126 35H100.621V22.442C100.621 20.594 100.327 19.096 99.7386 17.948C99.1506 16.772 98.4226 15.848 97.5546 15.176C96.6866 14.504 95.7626 14.056 94.7826 13.832C93.8306 13.58 92.9766 13.454 92.2206 13.454C90.7646 13.454 89.4626 13.832 88.3146 14.588C87.1946 15.344 86.3126 16.212 85.6686 17.192C85.2206 16.436 84.6886 15.82 84.0726 15.344C83.4846 14.868 82.8546 14.49 82.1826 14.21C81.5386 13.93 80.8946 13.734 80.2506 13.622C79.6346 13.51 79.0606 13.454 78.5286 13.454C77.4646 13.454 76.4846 13.664 75.5886 14.084C74.6926 14.504 73.9086 15.036 73.2366 15.68V14H68.0286V35H73.2366V23.24C73.2366 22.232 73.3486 21.406 73.5726 20.762C73.8246 20.09 74.1326 19.558 74.4966 19.166C74.8886 18.746 75.3226 18.452 75.7986 18.284C76.3026 18.116 76.8066 18.032 77.3106 18.032C77.8146 18.032 78.3186 18.102 78.8226 18.242C79.3546 18.382 79.8306 18.62 80.2506 18.956C80.6706 19.292 81.0206 19.74 81.3006 20.3C81.5806 20.86 81.7206 21.574 81.7206 22.442V35H86.9286V23.24C86.9286 22.232 87.0406 21.406 87.2646 20.762C87.5166 20.09 87.8386 19.558 88.2306 19.166C88.6226 18.746 89.0566 18.452 89.5326 18.284C90.0086 18.116 90.4986 18.032 91.0026 18.032C91.5066 18.032 92.0106 18.102 92.5146 18.242C93.0466 18.382 93.5226 18.62 93.9426 18.956C94.3626 19.292 94.7126 19.74 94.9926 20.3C95.2726 20.86 95.4126 21.574 95.4126 22.442V35ZM111.164 21.14C110.576 20.86 110.282 20.44 110.282 19.88C110.282 19.18 110.562 18.634 111.122 18.242C111.71 17.822 112.494 17.612 113.474 17.612C114.51 17.612 115.35 17.822 115.994 18.242C116.638 18.634 117.142 19.208 117.506 19.964L121.748 17.822C120.936 16.394 119.802 15.316 118.346 14.588C116.918 13.832 115.294 13.454 113.474 13.454C112.354 13.454 111.276 13.608 110.24 13.916C109.232 14.196 108.336 14.63 107.552 15.218C106.796 15.778 106.194 16.464 105.746 17.276C105.298 18.088 105.074 19.012 105.074 20.048C105.074 21.308 105.382 22.316 105.998 23.072C106.614 23.828 107.37 24.444 108.266 24.92C109.19 25.368 110.184 25.718 111.248 25.97C112.34 26.194 113.334 26.432 114.23 26.684C115.154 26.908 115.924 27.188 116.54 27.524C117.156 27.832 117.464 28.294 117.464 28.91C117.464 29.33 117.338 29.694 117.086 30.002C116.862 30.31 116.554 30.562 116.162 30.758C115.798 30.954 115.378 31.108 114.902 31.22C114.426 31.304 113.936 31.346 113.432 31.346C112.256 31.346 111.248 31.122 110.408 30.674C109.568 30.226 108.952 29.484 108.56 28.448L104.276 30.674C105.032 32.242 106.194 33.446 107.762 34.286C109.33 35.126 111.22 35.546 113.432 35.546C114.636 35.546 115.784 35.392 116.876 35.084C117.968 34.804 118.934 34.384 119.774 33.824C120.614 33.264 121.272 32.578 121.748 31.766C122.252 30.926 122.504 29.974 122.504 28.91C122.504 27.538 122.196 26.446 121.58 25.634C120.992 24.794 120.236 24.136 119.312 23.66C118.416 23.156 117.436 22.792 116.372 22.568C115.336 22.316 114.356 22.092 113.432 21.896C112.536 21.672 111.78 21.42 111.164 21.14Z" fill="white"/>
</svg>
