<svg width="165" height="46" viewBox="0 0 165 46" fill="none" xmlns="http://www.w3.org/2000/svg">
<path fill-rule="evenodd" clip-rule="evenodd" d="M165 0H0V46H165V0ZM18.9202 5.6H13.7122V35H18.9202V32.732C19.6482 33.572 20.5162 34.258 21.5242 34.79C22.5322 35.322 23.7082 35.588 25.0522 35.588C26.6762 35.588 28.1322 35.308 29.4202 34.748C30.7362 34.188 31.8422 33.418 32.7382 32.438C33.6622 31.43 34.3622 30.254 34.8382 28.91C35.3422 27.566 35.5942 26.11 35.5942 24.542C35.5942 22.974 35.3422 21.518 34.8382 20.174C34.3622 18.802 33.6622 17.626 32.7382 16.646C31.8422 15.638 30.7362 14.854 29.4202 14.294C28.1322 13.734 26.6762 13.454 25.0522 13.454C23.7082 13.454 22.5322 13.72 21.5242 14.252C20.5162 14.784 19.6482 15.47 18.9202 16.31V5.6ZM27.1942 30.254C26.5222 30.562 25.7662 30.716 24.9262 30.716C24.0582 30.716 23.2602 30.562 22.5322 30.254C21.8322 29.946 21.2162 29.512 20.6842 28.952C20.1522 28.392 19.7322 27.734 19.4242 26.978C19.1442 26.222 19.0042 25.396 19.0042 24.5C19.0042 23.604 19.1442 22.792 19.4242 22.064C19.7322 21.308 20.1522 20.664 20.6842 20.132C21.2162 19.572 21.8322 19.138 22.5322 18.83C23.2602 18.522 24.0582 18.368 24.9262 18.368C25.7662 18.368 26.5222 18.536 27.1942 18.872C27.8942 19.18 28.4822 19.628 28.9582 20.216C29.4622 20.776 29.8402 21.434 30.0922 22.19C30.3722 22.918 30.5122 23.702 30.5122 24.542C30.5122 25.382 30.3722 26.18 30.0922 26.936C29.8402 27.692 29.4622 28.35 28.9582 28.91C28.4822 29.47 27.8942 29.918 27.1942 30.254ZM44.7249 14H39.5169V26.558C39.5169 28.406 39.8109 29.918 40.3989 31.094C40.9869 32.242 41.7149 33.152 42.5829 33.824C43.4509 34.496 44.3609 34.944 45.3129 35.168C46.2929 35.42 47.1609 35.546 47.9169 35.546C49.0089 35.546 50.0169 35.322 50.9409 34.874C51.8649 34.426 52.6769 33.88 53.3769 33.236V35H58.5429V14H53.3769V25.76C53.3769 26.768 53.2509 27.608 52.9989 28.28C52.7469 28.924 52.4109 29.456 51.9909 29.876C51.5989 30.268 51.1509 30.548 50.6469 30.716C50.1429 30.884 49.6389 30.968 49.1349 30.968C48.6309 30.968 48.1129 30.898 47.5809 30.758C47.0769 30.618 46.6149 30.38 46.1949 30.044C45.7749 29.708 45.4249 29.26 45.1449 28.7C44.8649 28.14 44.7249 27.426 44.7249 26.558V14ZM78.2836 35H83.4496V5.6H78.2836V16.226C77.5556 15.414 76.6876 14.756 75.6796 14.252C74.6996 13.72 73.5376 13.454 72.1936 13.454C70.5696 13.454 69.0996 13.734 67.7836 14.294C66.4956 14.854 65.3896 15.638 64.4656 16.646C63.5696 17.626 62.8696 18.802 62.3656 20.174C61.8896 21.518 61.6516 22.974 61.6516 24.542C61.6516 26.11 61.8896 27.566 62.3656 28.91C62.8696 30.254 63.5696 31.43 64.4656 32.438C65.3896 33.418 66.4956 34.188 67.7836 34.748C69.0996 35.308 70.5696 35.588 72.1936 35.588C73.5376 35.588 74.6996 35.336 75.6796 34.832C76.6876 34.3 77.5556 33.628 78.2836 32.816V35ZM74.7136 30.254C73.9856 30.562 73.1876 30.716 72.3196 30.716C71.4796 30.716 70.7236 30.562 70.0516 30.254C69.3796 29.918 68.7916 29.47 68.2876 28.91C67.8116 28.35 67.4336 27.692 67.1536 26.936C66.9016 26.18 66.7756 25.382 66.7756 24.542C66.7756 23.702 66.9016 22.918 67.1536 22.19C67.4336 21.434 67.8116 20.776 68.2876 20.216C68.7916 19.628 69.3796 19.18 70.0516 18.872C70.7236 18.536 71.4796 18.368 72.3196 18.368C73.1876 18.368 73.9856 18.522 74.7136 18.83C75.4416 19.138 76.0716 19.572 76.6036 20.132C77.1356 20.664 77.5416 21.308 77.8216 22.064C78.1296 22.792 78.2836 23.604 78.2836 24.5C78.2836 25.396 78.1296 26.222 77.8216 26.978C77.5416 27.734 77.1356 28.392 76.6036 28.952C76.0716 29.512 75.4416 29.946 74.7136 30.254ZM101.413 34.832C102.421 34.3 103.289 33.628 104.017 32.816V33.95C104.017 34.734 103.849 35.434 103.513 36.05C103.205 36.694 102.771 37.24 102.211 37.688C101.651 38.164 100.993 38.528 100.237 38.78C99.4811 39.032 98.6551 39.158 97.7591 39.158C96.0791 39.158 94.6791 38.864 93.5591 38.276C92.4391 37.716 91.6831 37.058 91.2911 36.302L86.8391 38.864C87.2311 39.62 87.7771 40.306 88.4771 40.922C89.2051 41.538 90.0451 42.07 90.9971 42.518C91.9491 42.966 92.9851 43.316 94.1051 43.568C95.2251 43.82 96.4011 43.946 97.6331 43.946C99.2851 43.946 100.811 43.708 102.211 43.232C103.639 42.756 104.857 42.084 105.865 41.216C106.901 40.348 107.713 39.298 108.301 38.066C108.889 36.834 109.183 35.462 109.183 33.95V14H104.017V16.226C103.289 15.414 102.421 14.756 101.413 14.252C100.433 13.72 99.2711 13.454 97.9271 13.454C96.3031 13.454 94.8331 13.734 93.5171 14.294C92.2291 14.854 91.1231 15.638 90.1991 16.646C89.3031 17.626 88.6031 18.802 88.0991 20.174C87.6231 21.518 87.3851 22.974 87.3851 24.542C87.3851 26.11 87.6231 27.566 88.0991 28.91C88.6031 30.254 89.3031 31.43 90.1991 32.438C91.1231 33.418 92.2291 34.188 93.5171 34.748C94.8331 35.308 96.3031 35.588 97.9271 35.588C99.2711 35.588 100.433 35.336 101.413 34.832ZM100.447 30.254C99.7191 30.562 98.9211 30.716 98.0531 30.716C97.2131 30.716 96.4571 30.562 95.7851 30.254C95.1131 29.918 94.5251 29.47 94.0211 28.91C93.5451 28.35 93.1671 27.692 92.8871 26.936C92.6351 26.18 92.5091 25.382 92.5091 24.542C92.5091 23.702 92.6351 22.918 92.8871 22.19C93.1671 21.434 93.5451 20.776 94.0211 20.216C94.5251 19.628 95.1131 19.18 95.7851 18.872C96.4571 18.536 97.2131 18.368 98.0531 18.368C98.9211 18.368 99.7191 18.522 100.447 18.83C101.175 19.138 101.805 19.572 102.337 20.132C102.869 20.664 103.275 21.308 103.555 22.064C103.863 22.792 104.017 23.604 104.017 24.5C104.017 25.396 103.863 26.222 103.555 26.978C103.275 27.734 102.869 28.392 102.337 28.952C101.805 29.512 101.175 29.946 100.447 30.254ZM128.416 14.336C127.128 13.748 125.7 13.454 124.132 13.454C122.508 13.454 121.01 13.748 119.638 14.336C118.266 14.896 117.09 15.666 116.11 16.646C115.158 17.626 114.402 18.788 113.842 20.132C113.31 21.476 113.044 22.932 113.044 24.5C113.044 26.068 113.31 27.524 113.842 28.868C114.402 30.212 115.172 31.388 116.152 32.396C117.16 33.376 118.364 34.146 119.764 34.706C121.192 35.266 122.76 35.546 124.468 35.546C126.512 35.546 128.304 35.154 129.844 34.37C131.384 33.586 132.644 32.48 133.624 31.052L129.634 28.7C129.158 29.428 128.444 30.016 127.492 30.464C126.568 30.884 125.588 31.094 124.552 31.094C122.928 31.094 121.556 30.674 120.436 29.834C119.344 28.966 118.616 27.818 118.252 26.39H134.506C134.618 25.83 134.674 25.214 134.674 24.542C134.674 23.002 134.408 21.56 133.876 20.216C133.372 18.872 132.658 17.696 131.734 16.688C130.81 15.68 129.704 14.896 128.416 14.336ZM127.912 19.124C128.948 19.88 129.564 20.944 129.76 22.316H118.168C118.196 21.728 118.364 21.182 118.672 20.678C118.98 20.146 119.4 19.684 119.932 19.292C120.464 18.9 121.08 18.592 121.78 18.368C122.48 18.116 123.236 17.99 124.048 17.99C125.588 17.99 126.876 18.368 127.912 19.124ZM148.586 35.126C149.146 35.098 149.734 35.056 150.35 35V30.212C149.594 30.296 148.95 30.338 148.418 30.338C147.494 30.338 146.794 30.17 146.318 29.834C145.842 29.47 145.604 28.798 145.604 27.818V18.662H150.266V14H145.604V7.07L140.396 8.834V14H136.448V18.662H140.396V28.154C140.396 29.554 140.536 30.716 140.816 31.64C141.124 32.536 141.558 33.25 142.118 33.782C142.706 34.314 143.406 34.692 144.218 34.916C145.058 35.112 145.996 35.21 147.032 35.21C147.536 35.21 148.054 35.182 148.586 35.126Z" fill="white"/>
</svg>
