<svg width="113" height="46" viewBox="0 0 113 46" fill="none" xmlns="http://www.w3.org/2000/svg">
<path fill-rule="evenodd" clip-rule="evenodd" d="M113 0H0V46H113V0ZM21.6778 30.792C21.2298 30.428 21.0058 29.77 21.0058 28.818V19.662H25.6678V15H21.0058V8.07L15.7978 9.834V15H11.8498V19.662H15.7978V29.154C15.7978 31.814 16.3438 33.662 17.4358 34.698C18.5558 35.706 20.2358 36.21 22.4758 36.21C23.3438 36.21 24.4358 36.14 25.7518 36V31.212C25.0518 31.296 24.4078 31.338 23.8198 31.338C22.8398 31.338 22.1258 31.156 21.6778 30.792ZM30.3189 10.716C30.8789 11.248 31.6489 11.514 32.6289 11.514C33.5809 11.514 34.3369 11.248 34.8969 10.716C35.4849 10.156 35.7789 9.428 35.7789 8.532C35.7789 7.58 35.4989 6.838 34.9389 6.306C34.3789 5.774 33.6089 5.508 32.6289 5.508C31.6489 5.508 30.8789 5.774 30.3189 6.306C29.7589 6.838 29.4789 7.58 29.4789 8.532C29.4789 9.456 29.7589 10.184 30.3189 10.716ZM29.9829 15V36H35.1909V15H29.9829ZM68.3719 15.252C67.1119 14.72 65.8659 14.454 64.6339 14.454C63.2899 14.454 62.0299 14.804 60.8539 15.504C59.6779 16.204 58.7259 17.072 57.9979 18.108C57.2139 16.792 56.1639 15.854 54.8479 15.294C53.5319 14.734 52.2299 14.454 50.9419 14.454C49.9059 14.454 48.9259 14.65 48.0019 15.042C47.1059 15.434 46.3079 15.966 45.6079 16.638V15H40.3999V36H45.6079V22.728C45.8319 21.44 46.3219 20.502 47.0779 19.914C47.8619 19.326 48.7299 19.032 49.6819 19.032C50.8859 19.032 51.9219 19.382 52.7899 20.082C53.6859 20.754 54.1339 21.874 54.1339 23.442V36H59.2999V23.442V22.812C59.5239 21.496 60.0139 20.544 60.7699 19.956C61.5259 19.34 62.4079 19.032 63.4159 19.032C64.5919 19.032 65.6139 19.382 66.4819 20.082C67.3779 20.754 67.8259 21.874 67.8259 23.442V36H72.9919V23.442C72.9919 21.174 72.5299 19.368 71.6059 18.024C70.7099 16.68 69.6319 15.756 68.3719 15.252ZM92.3969 15.966C90.8009 14.958 88.9949 14.454 86.9789 14.454C84.8509 14.454 82.9469 14.944 81.2669 15.924C79.5869 16.876 78.2709 18.192 77.3189 19.872C76.3949 21.552 75.9329 23.428 75.9329 25.5C75.9329 27.6 76.3949 29.49 77.3189 31.17C78.2709 32.85 79.6149 34.166 81.3509 35.118C83.0869 36.07 85.0749 36.546 87.3149 36.546C89.3309 36.546 91.1089 36.168 92.6489 35.412C94.2169 34.628 95.4909 33.508 96.4709 32.052L92.4809 29.7C92.0049 30.4 91.2909 30.974 90.3389 31.422C89.4149 31.87 88.4489 32.094 87.4409 32.094C85.7889 32.094 84.4309 31.688 83.3669 30.876C82.3029 30.036 81.5609 28.874 81.1409 27.39H97.3529C97.4649 26.83 97.5209 26.214 97.5209 25.542C97.5209 23.498 97.0729 21.636 96.1769 19.956C95.2809 18.276 94.0209 16.946 92.3969 15.966ZM90.7589 20.166C91.7949 20.922 92.4249 21.972 92.6489 23.316H81.0569C81.0849 22.56 81.3649 21.846 81.8969 21.174C82.4289 20.502 83.1289 19.97 83.9969 19.578C84.8929 19.186 85.8729 18.99 86.9369 18.99C88.4769 18.99 89.7509 19.382 90.7589 20.166Z" fill="white"/>
</svg>
