<svg width="47" height="48" viewBox="0 0 47 48" fill="none" xmlns="http://www.w3.org/2000/svg">
<path d="M41.2256 39.5134C21.2344 48.942 8.82762 41.0533 0.885655 36.2619C0.394209 35.9599 -0.441077 36.3325 0.283648 37.1575C2.92951 40.3368 11.6006 48 22.9188 48C34.2449 48 40.9828 41.8755 41.8257 40.8071C42.6629 39.7477 42.0715 39.1634 41.2254 39.5134H41.2256ZM46.8401 36.4406C46.3032 35.7478 43.5757 35.6186 41.8591 35.8276C40.1399 36.0305 37.5594 37.0718 37.7838 37.697C37.8989 37.9312 38.1339 37.8262 39.3149 37.7209C40.4992 37.6038 43.8167 37.1889 44.508 38.0845C45.2026 38.9862 43.4499 43.282 43.1298 43.9748C42.8206 44.6676 43.248 44.8462 43.8289 44.3848C44.4018 43.9236 45.4391 42.729 46.1351 41.0386C46.8264 39.339 47.2479 36.9681 46.8399 36.4406H46.8401Z" fill="#FF9900"/>
<path fill-rule="evenodd" clip-rule="evenodd" d="M27.7838 20.2742C27.7838 22.7482 27.8469 24.8113 26.5851 27.0083C25.5667 28.7948 23.9535 29.8933 22.1511 29.8933C19.6906 29.8933 18.2577 28.0355 18.2577 25.2937C18.2577 19.8811 23.1513 18.8988 27.7838 18.8988V20.2742ZM34.2455 35.7523C33.8219 36.1273 33.2091 36.1543 32.7315 35.9041C30.6046 34.1536 30.226 33.3409 29.0545 31.6706C25.5397 35.2254 23.0523 36.2881 18.4921 36.2881C13.1028 36.2881 8.90295 32.9924 8.90295 26.3922C8.90295 21.2389 11.724 17.7288 15.7342 16.0141C19.2131 14.4956 24.0707 14.2277 27.7838 13.808V12.9863C27.7838 11.4768 27.9008 9.69056 27.0087 8.38667C26.2246 7.21662 24.7286 6.7343 23.4127 6.7343C20.9704 6.7343 18.7894 7.97569 18.2577 10.5479C18.1494 11.1197 17.726 11.6824 17.1492 11.7091L10.9307 11.0483C10.4081 10.932 9.83132 10.5123 9.97551 9.7173C11.4084 2.25085 18.2125 0 24.3047 0C27.4231 0 31.4965 0.821761 33.957 3.16185C37.0753 6.04658 36.7778 9.89596 36.7778 14.0848V23.9807C36.7778 26.9549 38.0215 28.2588 39.1931 29.8665C39.6076 30.4381 39.6978 31.126 39.175 31.5545C37.8682 32.6351 35.543 34.6448 34.2634 35.7702L34.2454 35.7523" fill="black"/>
<path d="M41.2256 39.5134C21.2344 48.942 8.82762 41.0533 0.885655 36.2619C0.394209 35.9599 -0.441077 36.3325 0.283648 37.1575C2.92951 40.3368 11.6006 48 22.9188 48C34.2449 48 40.9828 41.8755 41.8257 40.8071C42.6629 39.7477 42.0715 39.1634 41.2254 39.5134H41.2256ZM46.8401 36.4406C46.3032 35.7478 43.5757 35.6186 41.8591 35.8276C40.1399 36.0305 37.5594 37.0718 37.7838 37.697C37.8989 37.9312 38.1339 37.8262 39.3149 37.7209C40.4992 37.6038 43.8167 37.1889 44.508 38.0845C45.2026 38.9862 43.4499 43.282 43.1298 43.9748C42.8206 44.6676 43.248 44.8462 43.8289 44.3848C44.4018 43.9236 45.4391 42.729 46.1351 41.0386C46.8264 39.339 47.2479 36.9681 46.8399 36.4406H46.8401Z" fill="#FF9900"/>
<path fill-rule="evenodd" clip-rule="evenodd" d="M27.7838 20.2742C27.7838 22.7482 27.8469 24.8113 26.5851 27.0083C25.5667 28.7948 23.9535 29.8933 22.1511 29.8933C19.6906 29.8933 18.2577 28.0355 18.2577 25.2937C18.2577 19.8811 23.1513 18.8988 27.7838 18.8988V20.2742ZM34.2455 35.7523C33.8219 36.1273 33.2091 36.1543 32.7315 35.9041C30.6046 34.1536 30.226 33.3409 29.0545 31.6706C25.5397 35.2254 23.0523 36.2881 18.4921 36.2881C13.1028 36.2881 8.90295 32.9924 8.90295 26.3922C8.90295 21.2389 11.724 17.7288 15.7342 16.0141C19.2131 14.4956 24.0707 14.2277 27.7838 13.808V12.9863C27.7838 11.4768 27.9008 9.69056 27.0087 8.38667C26.2246 7.21662 24.7286 6.7343 23.4127 6.7343C20.9704 6.7343 18.7894 7.97569 18.2577 10.5479C18.1494 11.1197 17.726 11.6824 17.1492 11.7091L10.9307 11.0483C10.4081 10.932 9.83132 10.5123 9.97551 9.7173C11.4084 2.25085 18.2125 0 24.3047 0C27.4231 0 31.4965 0.821761 33.957 3.16185C37.0753 6.04658 36.7778 9.89596 36.7778 14.0848V23.9807C36.7778 26.9549 38.0215 28.2588 39.1931 29.8665C39.6076 30.4381 39.6978 31.126 39.175 31.5545C37.8682 32.6351 35.543 34.6448 34.2634 35.7702L34.2454 35.7523" fill="black"/>
</svg>
