<svg width="48" height="48" viewBox="0 0 48 48" fill="none" xmlns="http://www.w3.org/2000/svg">
<path fill-rule="evenodd" clip-rule="evenodd" d="M45 34.4745C45 40.2993 40.2993 45 34.4745 45H13.5255C7.70073 45 3 40.2993 3 34.4745V13.5255C3 7.70073 7.70073 3 13.5255 3H34.4745C40.2993 3 45 7.70073 45 13.5255V34.4745Z" fill="black"/>
<path fill-rule="evenodd" clip-rule="evenodd" d="M35.5959 27.1194C36.6178 23.9515 38.4572 17.0026 39.0703 14.4479C39.5813 12.3019 39.7857 11.4844 38.7638 11.4844C37.9463 11.4844 35.6981 12.4041 35.1871 14.1413C34.4718 17.0026 32.939 23.0318 32.3258 25.1778C31.6105 27.5282 30.1798 28.0391 28.2382 28.0391C26.8076 28.0391 25.99 27.9369 25.7857 27.1194C25.6835 26.8128 25.4791 26.7107 25.2747 26.7107H22.9244C22.6178 26.7107 22.4134 26.915 22.4134 27.1194C22.209 28.0391 21.3915 28.0391 19.9609 28.0391C18.7346 28.0391 16.8952 27.8347 16.282 25.5866C15.7711 24.0537 14.647 20.0683 14.0338 17.9223C13.4207 15.7763 11.5813 15.6742 10.6616 15.6742C9.63968 15.6742 9.53749 15.8785 10.1506 17.9223C10.7638 19.9661 12.1944 24.6669 13.1141 27.7326C14.0338 30.7982 16.9973 31.8201 18.939 31.8201H22.209C23.1287 31.8201 23.6397 31.6158 23.9463 31.4114C24.1506 31.207 24.4572 31.207 24.6616 31.4114C24.9682 31.6158 25.5813 31.9223 26.501 31.9223H29.6689C32.1214 31.8201 34.574 30.1851 35.5959 27.1194Z" fill="white"/>
<path d="M19.1439 19.4558C19.9905 19.4558 20.6768 18.7696 20.6768 17.923C20.6768 17.0764 19.9905 16.3901 19.1439 16.3901C18.2974 16.3901 17.6111 17.0764 17.6111 17.923C17.6111 18.7696 18.2974 19.4558 19.1439 19.4558Z" fill="white"/>
<path d="M24.1535 19.4558C25.0001 19.4558 25.6864 18.7696 25.6864 17.923C25.6864 17.0764 25.0001 16.3901 24.1535 16.3901C23.3069 16.3901 22.6207 17.0764 22.6207 17.923C22.6207 18.7696 23.3069 19.4558 24.1535 19.4558Z" fill="white"/>
<path d="M29.2636 19.4558C30.1101 19.4558 30.7964 18.7696 30.7964 17.923C30.7964 17.0764 30.1101 16.3901 29.2636 16.3901C28.417 16.3901 27.7307 17.0764 27.7307 17.923C27.7307 18.7696 28.417 19.4558 29.2636 19.4558Z" fill="white"/>
<path d="M19.1439 24.9724C19.9905 24.9724 20.6768 24.2862 20.6768 23.4396C20.6768 22.593 19.9905 21.9067 19.1439 21.9067C18.2974 21.9067 17.6111 22.593 17.6111 23.4396C17.6111 24.2862 18.2974 24.9724 19.1439 24.9724Z" fill="white"/>
<path d="M24.1535 24.9724C25.0001 24.9724 25.6864 24.2862 25.6864 23.4396C25.6864 22.593 25.0001 21.9067 24.1535 21.9067C23.3069 21.9067 22.6207 22.593 22.6207 23.4396C22.6207 24.2862 23.3069 24.9724 24.1535 24.9724Z" fill="white"/>
<path d="M29.2636 24.9724C30.1101 24.9724 30.7964 24.2862 30.7964 23.4396C30.7964 22.593 30.1101 21.9067 29.2636 21.9067C28.417 21.9067 27.7307 22.593 27.7307 23.4396C27.7307 24.2862 28.417 24.9724 29.2636 24.9724Z" fill="white"/>
<path fill-rule="evenodd" clip-rule="evenodd" d="M11.276 32.7407C9.53879 32.7407 8.21033 34.1714 8.21033 35.8064C8.21033 37.4415 9.64098 38.8721 11.276 38.8721C12.9111 38.8721 14.3417 37.4415 14.3417 35.8064C14.3417 34.1714 12.9111 32.7407 11.276 32.7407ZM11.276 37.0327C10.6629 37.0327 10.1519 36.5217 10.1519 35.9086C10.1519 35.2955 10.6629 34.7845 11.276 34.7845C11.8892 34.7845 12.4001 35.2955 12.4001 35.9086C12.2979 36.5217 11.8892 37.0327 11.276 37.0327ZM36.8235 32.7407C35.0862 32.7407 33.7578 34.1714 33.7578 35.8064C33.7578 37.4415 35.1884 38.8721 36.8235 38.8721C38.4585 38.8721 39.8892 37.4415 39.8892 35.8064C39.8892 34.1714 38.5607 32.7407 36.8235 32.7407ZM36.8235 37.0327C36.2103 37.0327 35.6994 36.5217 35.6994 35.9086C35.6994 35.2955 36.2103 34.7845 36.8235 34.7845C37.4366 34.7845 37.9476 35.2955 37.9476 35.9086C37.9476 36.5217 37.4366 37.0327 36.8235 37.0327Z" fill="white"/>
</svg>
