<svg width="48" height="48" viewBox="0 0 48 48" fill="none" xmlns="http://www.w3.org/2000/svg">
<g clip-path="url(#clip0_158_921)">
<path d="M24 0C10.7451 0 0 10.7456 0 24C0 37.2544 10.7451 48 24 48C37.2549 48 48 37.2544 48 24C48 10.7456 37.2549 0 24 0ZM38.6598 33.463C38.3867 35.7208 38.1034 37.9767 37.85 40.237C37.7567 41.0782 37.7886 41.0733 36.9264 41.0634C30.3439 40.9814 23.7618 40.8749 17.1793 40.8381C14.8208 40.8243 12.4618 40.98 10.1023 41.0541C9.79004 41.0644 9.47822 41.0561 9.10699 41.0561C9.10699 40.4 9.10699 39.7651 9.10699 39.0285C9.94815 38.8626 10.8399 38.6976 11.7262 38.5066C12.0906 38.428 12.452 38.3141 12.7972 38.1756C13.3182 37.9659 13.6453 37.5785 13.7204 37.0069C13.7553 36.7383 13.8083 36.4687 13.8107 36.1996C13.8559 31.2881 13.9178 26.3772 13.9247 21.4662C13.9291 18.4153 13.851 15.3649 13.8009 12.315C13.7729 10.588 13.3158 10.0508 11.632 9.72915C10.9165 9.59313 10.1932 9.4851 9.4851 9.3201C9.31421 9.27935 9.07114 9.07163 9.05739 8.92235C9.00632 8.366 9.03726 7.80325 9.03726 7.19583C18.4791 7.35296 27.8675 7.75071 37.3442 6.93262C37.1459 10.1377 36.947 13.3487 36.7447 16.6171C36.1706 16.6171 35.6452 16.6628 35.1355 16.593C34.9553 16.5675 34.7289 16.2886 34.6666 16.0823C34.3778 15.1258 34.1642 14.1461 33.8745 13.1891C33.7046 12.6332 33.4758 12.0886 33.2135 11.5691C32.6208 10.393 31.7311 9.76155 30.3223 9.78562C26.936 9.84503 23.5487 9.80379 20.1625 9.80575C19.3012 9.80673 19.2756 9.83521 19.2746 10.6788C19.2697 14.4835 19.2668 18.2886 19.2638 22.0928C19.2629 22.3005 19.2638 22.5082 19.2638 22.7694C20.761 22.7694 22.1767 22.793 23.5914 22.7606C24.5082 22.7405 25.4236 22.6501 26.3389 22.5745C27.5905 22.4709 28.0354 22.1055 28.3502 20.8976C28.5859 19.9911 28.7971 19.0782 29.0013 18.1639C29.0819 17.8035 29.2459 17.6375 29.6412 17.6655C30.1391 17.7008 30.6414 17.6743 31.212 17.6743C31.212 18.0068 31.215 18.3048 31.212 18.6044C31.1816 22.1748 31.1428 25.7452 31.1315 29.3156C31.1295 29.7904 31.0195 29.9795 30.5098 29.982C29.0097 29.9928 29.0107 30.0129 28.6571 28.5481C28.5294 28.0217 28.4013 27.4943 28.2628 26.9713C27.9451 25.7658 27.0455 25.3219 25.9141 25.2846C23.7854 25.2129 21.6538 25.1923 19.5231 25.1515C19.4652 25.1505 19.4067 25.1824 19.2923 25.2129C19.282 25.4491 19.2614 25.6936 19.2609 25.9377C19.256 29.1157 19.253 32.2928 19.2521 35.4704C19.2506 37.4449 19.9945 38.4029 21.9754 38.4589C25.0219 38.5463 28.0757 38.483 31.1232 38.3897C32.9665 38.3342 34.229 37.2544 35.0196 35.6496C35.6639 34.3405 36.2531 33.0019 36.7977 31.6496C37.0383 31.05 37.3521 30.7721 38.0013 30.8717C38.2826 30.9159 38.5778 30.8791 38.9735 30.8791C38.8621 31.7929 38.7604 32.6277 38.6598 33.463Z" fill="#F1641D"/>
</g>
<defs>
<clipPath id="clip0_158_921">
<rect width="48" height="48" fill="white"/>
</clipPath>
</defs>
</svg>
