<svg width="48" height="48" viewBox="0 0 48 48" fill="none" xmlns="http://www.w3.org/2000/svg">
<path d="M24 1L26.0619 4.68848C26.4742 5.45161 26.4742 6.38433 26.0619 7.14747L13.7732 29.0664L19.5876 39.4111C20.4948 41.0221 22.1856 42.0396 24 42.0396C25.8144 42.0396 27.5052 41.0221 28.4124 39.4111L34.2268 29.0664L32.701 26.2682L26.1031 38.012C25.6907 38.7751 24.866 39.2415 24.0412 39.2415C23.1753 39.2415 22.3918 38.7751 21.9794 38.012L16.9072 29.0664L28.3299 8.71613L30.3918 12.4046C30.8041 13.1677 30.8041 14.1005 30.3918 14.8636L22.433 29.0664L24 31.8645L32.6598 16.4323L38.3505 26.565C39.2165 28.1336 39.2165 30.0415 38.3505 31.6101L32.5773 41.9124C31.7113 43.4811 28.9485 47 24 47C19.0515 47 16.3299 43.4811 15.4227 41.9124L9.64948 31.6101C8.78351 30.0415 8.78351 28.1336 9.64948 26.565L24 1Z" fill="#ED5153"/>
</svg>
