<svg width="48" height="48" viewBox="0 0 48 48" fill="none" xmlns="http://www.w3.org/2000/svg">
<g clip-path="url(#clip0_159_1065)">
<path d="M11.0161 41.4094H11.0352C11.4507 41.4094 11.8101 41.1564 11.8197 40.7118C11.8197 40.363 11.5582 40.1112 11.151 40.1112C11.0543 40.1064 10.9576 40.1207 10.8666 40.1534C10.7756 40.186 10.692 40.2362 10.6207 40.3011C10.5495 40.3661 10.492 40.4444 10.4517 40.5316C10.4113 40.6187 10.3889 40.7129 10.3857 40.8088C10.3826 40.8905 10.3969 40.972 10.4279 41.0478C10.4588 41.1237 10.5055 41.1922 10.565 41.2489C10.6246 41.3056 10.6955 41.3492 10.7733 41.3769C10.851 41.4045 10.9338 41.4156 11.0161 41.4094Z" fill="#1E2C32"/>
<path d="M34.6472 41.4094H34.6675C35.083 41.4094 35.4412 41.1564 35.4508 40.7118C35.4508 40.363 35.1893 40.1112 34.7821 40.1112C34.6855 40.1066 34.5889 40.121 34.498 40.1537C34.4071 40.1864 34.3237 40.2367 34.2526 40.3016C34.1815 40.3665 34.1241 40.4448 34.0838 40.5318C34.0435 40.6189 34.0211 40.713 34.0179 40.8088C34.0148 40.8904 34.0292 40.9717 34.06 41.0475C34.0909 41.1233 34.1375 41.1917 34.1969 41.2484C34.2563 41.3051 34.3271 41.3488 34.4047 41.3765C34.4823 41.4042 34.5649 41.4155 34.6472 41.4094Z" fill="#1E2C32"/>
<path d="M4.48706 46.2725L5.80049 40.0603H7.14975L6.63034 42.5007L6.65064 42.5102C6.82882 42.3074 7.04902 42.145 7.29627 42.034C7.54352 41.923 7.81201 41.866 8.08348 41.867C8.78796 41.867 9.18915 42.2808 9.18915 42.9678C9.18225 43.2347 9.14947 43.5004 9.09124 43.7612L8.56228 46.2725H7.20825L7.71691 43.8404C7.75583 43.6636 7.77545 43.4833 7.77542 43.3024C7.77542 43.0387 7.65602 42.8531 7.35512 42.8531C6.92407 42.8531 6.46437 43.3461 6.28766 44.1537L5.83751 46.282L4.48706 46.2725Z" fill="#1E2C32"/>
<path d="M13.6896 45.2687C13.8504 45.3873 14.0468 45.449 14.2472 45.4437C15.0018 45.4437 15.52 44.3251 15.52 43.54C15.52 43.2149 15.3923 42.8708 14.9815 42.8708C14.5123 42.8708 14.0717 43.3733 13.9153 44.1312L13.6896 45.2687ZM11.7612 48.0047L12.7009 43.5542C12.8084 43.0517 12.9171 42.3825 12.9756 41.9415H14.1696L14.0896 42.5894H14.1099C14.2775 42.369 14.4937 42.1894 14.742 42.0642C14.9903 41.939 15.2641 41.8715 15.5427 41.867C16.5314 41.867 16.9326 42.5977 16.9326 43.4171C16.9326 44.8974 15.895 46.36 14.3057 46.36C14.033 46.3687 13.762 46.3144 13.5141 46.2016H13.4842L13.1129 48.0047H11.7612Z" fill="#1E2C32"/>
<path d="M24.1444 40.8087L23.8996 41.9627H24.8883L24.6925 42.8708H23.7038L23.3456 44.4836C23.306 44.6452 23.2832 44.8104 23.2775 44.9766C23.2775 45.206 23.3969 45.3385 23.6787 45.3385C23.7984 45.341 23.9181 45.3351 24.0369 45.3207L23.8805 46.2666C23.6183 46.332 23.3484 46.3619 23.0781 46.3553C22.2757 46.3553 21.8841 45.9758 21.8841 45.4212C21.8881 45.1658 21.9209 44.9115 21.982 44.6633L22.3641 42.8744H21.7671L21.9701 41.9627H22.5671L22.7343 41.1706L24.1444 40.8087Z" fill="#1E2C32"/>
<path d="M27.9738 42.8886C27.8613 42.8638 27.7463 42.8523 27.6311 42.8543C26.6245 42.8543 26.1672 43.8085 26.1672 44.6775C26.1672 45.0925 26.3141 45.3739 26.677 45.3739C27.0782 45.3739 27.5379 44.9246 27.7433 43.9456L27.9738 42.8886ZM27.5678 46.2725C27.5773 46.0254 27.606 45.7523 27.6263 45.4614H27.5964C27.1761 46.1318 26.6078 46.36 26.1087 46.36C25.2967 46.36 24.7773 45.7795 24.7773 44.9246C24.7773 43.2941 25.5559 41.9285 28.0012 41.9285C28.5008 41.9322 28.9978 42.0005 29.4794 42.1318L28.9851 44.3689C28.8587 44.9958 28.7931 45.6333 28.7893 46.2725H27.5678Z" fill="#1E2C32"/>
<path d="M32.3225 40.8087L32.0765 41.9627H33.0652L32.8705 42.8708H31.8807L31.5297 44.4836C31.4898 44.6452 31.4666 44.8104 31.4604 44.9766C31.4604 45.206 31.5798 45.3385 31.8628 45.3385C31.9825 45.3409 32.1022 45.335 32.221 45.3207L32.0634 46.2666C31.8012 46.332 31.5313 46.3619 31.261 46.3553C30.4586 46.3553 30.067 45.9758 30.067 45.4212C30.0709 45.1658 30.1038 44.9115 30.1649 44.6633L30.547 42.8744H29.95L30.1458 41.9663H30.7428L30.9088 41.1741L32.3225 40.8087Z" fill="#1E2C32"/>
<path d="M41.2622 46.2725L41.8783 43.3639C41.9977 42.8353 42.0646 42.36 42.1327 41.9627H43.3171L43.2383 42.6237H43.2586C43.4405 42.3871 43.6754 42.1956 43.9447 42.0643C44.2141 41.933 44.5106 41.8654 44.8109 41.867C45.5643 41.867 45.9559 42.2985 45.9559 42.9772C45.949 43.2315 45.9198 43.4847 45.8688 43.734L45.3303 46.2725H43.9834L44.5016 43.7966C44.5329 43.6408 44.5492 43.4825 44.5506 43.3237C44.5506 43.0505 44.4431 42.8566 44.1291 42.8566C43.7195 42.8566 43.2288 43.3296 43.0437 44.2495L42.627 46.2725H41.2622Z" fill="#1E2C32"/>
<path d="M11.5165 41.9332H10.2031L9.62037 44.6775C9.55925 44.9229 9.5264 45.1744 9.52246 45.4271C9.52246 45.9769 9.91052 46.3518 10.7046 46.3518C10.972 46.358 11.2391 46.3285 11.4986 46.2643L11.6538 45.3314C11.535 45.3459 11.4153 45.3518 11.2956 45.3491C11.0138 45.3491 10.898 45.219 10.898 44.9944C10.9036 44.8297 10.9264 44.6661 10.966 44.5061L11.5165 41.9332Z" fill="#1E2C32"/>
<path d="M35.0723 41.9332H33.7589L33.1702 44.6811C33.1094 44.9265 33.077 45.178 33.0735 45.4307C33.0735 45.9793 33.4604 46.3553 34.2544 46.3553C34.5222 46.361 34.7896 46.3316 35.0496 46.2678L35.2036 45.3349C35.0848 45.3494 34.9651 45.3554 34.8454 45.3526C34.5648 45.3526 34.449 45.2214 34.449 44.9979C34.4549 44.8334 34.4773 44.6698 34.5159 44.5096L35.0723 41.9332Z" fill="#1E2C32"/>
<path d="M2.96716 42.8957C2.4191 42.5705 2.09552 42.2974 2.09552 41.9722C2.09552 41.6104 2.44776 41.3113 3.06507 41.3113C3.51284 41.303 3.97254 41.4957 4.3009 41.666L4.55881 40.6113V40.5853C4.12458 40.358 3.63976 40.2422 3.14866 40.2483C1.59642 40.2483 0.691343 40.9506 0.691343 42.1614C0.691343 42.8578 1.2394 43.3852 1.87582 43.7553C2.42388 44.0639 2.69731 44.2282 2.69731 44.5758C2.69731 45.0429 2.22806 45.2983 1.68 45.2853C1.15582 45.2853 0.605373 44.9944 0.265075 44.8123L0 45.9285C0.483206 46.2025 1.03002 46.3476 1.58687 46.3494C3.06746 46.3494 4.12179 45.7984 4.12179 44.3665C4.12179 43.7233 3.69075 43.2906 2.96716 42.8933" fill="#1E2C32"/>
<path d="M19.9583 42.8957C19.4102 42.5705 19.0878 42.2974 19.0878 41.9722C19.0878 41.6104 19.4401 41.3113 20.0562 41.3113C20.5051 41.303 20.9636 41.4957 21.2932 41.666L21.5499 40.6113V40.5853C21.1157 40.358 20.6309 40.2422 20.1398 40.2483C18.5875 40.2483 17.6824 40.9506 17.6824 42.1614C17.6824 42.8578 18.2305 43.3852 18.8669 43.7553C19.415 44.0639 19.6896 44.2282 19.6896 44.5758C19.6896 45.0429 19.2192 45.2983 18.6711 45.2853C18.1481 45.2853 17.5965 44.9944 17.2574 44.8123L16.9863 45.9226C17.4704 46.1995 18.019 46.3466 18.578 46.3494C20.0586 46.3494 21.1129 45.7984 21.1129 44.3665C21.1129 43.7233 20.683 43.2906 19.9583 42.8933" fill="#1E2C32"/>
<path d="M47.0448 41.5986H47.2836C47.3044 41.5982 47.325 41.5937 47.344 41.5853C47.3631 41.577 47.3803 41.565 47.3946 41.5501C47.4112 41.5352 47.4242 41.5169 47.4329 41.4965C47.4415 41.476 47.4456 41.454 47.4448 41.4319C47.4451 41.4098 47.4409 41.3879 47.4322 41.3675C47.4236 41.3472 47.4108 41.3288 47.3946 41.3136C47.3802 41.2988 47.363 41.287 47.3439 41.2789C47.3249 41.2708 47.3044 41.2665 47.2836 41.2663H47.0448V41.5986ZM46.9254 42.0538V41.1682H47.2836C47.3573 41.1666 47.4287 41.1933 47.483 41.2427C47.5101 41.2672 47.5315 41.2972 47.5457 41.3307C47.56 41.3641 47.5667 41.4003 47.5654 41.4366C47.5674 41.5008 47.5451 41.5634 47.5029 41.6121C47.4607 41.6609 47.4017 41.6923 47.3373 41.7003L47.5761 42.055H47.4281L47.1964 41.7003H47.0448V42.055L46.9254 42.0538ZM46.5457 41.6092C46.5459 41.7631 46.6 41.9122 46.6987 42.031C46.7974 42.1499 46.9346 42.2312 47.087 42.2612C47.2395 42.2912 47.3977 42.2679 47.5347 42.1954C47.6718 42.1229 47.7793 42.0056 47.8388 41.8634C47.8984 41.7213 47.9064 41.5631 47.8615 41.4158C47.8165 41.2685 47.7214 41.1411 47.5924 41.0554C47.4633 40.9697 47.3082 40.9309 47.1535 40.9457C46.9988 40.9604 46.8541 41.0278 46.7439 41.1363C46.68 41.1975 46.6295 41.2711 46.5954 41.3524C46.5613 41.4338 46.5444 41.5212 46.5457 41.6092ZM46.4442 41.6092C46.444 41.5079 46.4641 41.4075 46.5031 41.3138C46.5422 41.2202 46.5995 41.135 46.6718 41.0633C46.7441 40.9916 46.83 40.9347 46.9245 40.8959C47.019 40.8571 47.1204 40.8371 47.2227 40.8371C47.361 40.836 47.497 40.8715 47.6167 40.94C47.735 41.0062 47.8328 41.1031 47.8997 41.2202C47.968 41.3386 48.0034 41.4729 48.0024 41.6092C48.0065 41.7131 47.9894 41.8167 47.9521 41.9138C47.9148 42.011 47.8581 42.0997 47.7853 42.1746C47.7126 42.2495 47.6253 42.3091 47.5287 42.3498C47.4321 42.3905 47.3283 42.4115 47.2233 42.4115C47.1183 42.4115 47.0145 42.3905 46.9179 42.3498C46.8213 42.3091 46.734 42.2495 46.6613 42.1746C46.5885 42.0997 46.5318 42.011 46.4945 41.9138C46.4572 41.8167 46.4401 41.7131 46.4442 41.6092Z" fill="#1E2C32"/>
<path d="M41.0842 44.4256V43.5791L40.3391 43.4679C40.2892 43.2824 40.2145 43.1042 40.117 42.9382L40.5648 42.3376L39.9606 41.7381L39.354 42.1803C39.1867 42.0835 39.0067 42.0099 38.8191 41.9616L38.7069 41.2238H37.8508L37.7385 41.9616C37.5509 42.0097 37.3708 42.0833 37.2036 42.1803L36.5994 41.7381L35.9952 42.3352L36.443 42.9358C36.3452 43.1017 36.2705 43.2799 36.2209 43.4656L35.4758 43.5767V44.4233L36.2209 44.5344C36.2699 44.7203 36.3446 44.8986 36.443 45.0641L35.9952 45.6648L36.5994 46.256L37.206 45.8126C37.373 45.9103 37.5531 45.9843 37.7409 46.0325L37.8531 46.7715H38.7069L38.8191 46.0325C39.0066 45.984 39.1866 45.9104 39.354 45.8138L39.9606 46.2572L40.5648 45.6589L40.1194 45.0665C40.2169 44.9005 40.2916 44.7223 40.3415 44.5368L41.0842 44.4256ZM38.2794 44.9305C38.094 44.9305 37.9128 44.8761 37.7587 44.7741C37.6045 44.6721 37.4844 44.5271 37.4135 44.3575C37.3425 44.1879 37.3239 44.0013 37.3601 43.8213C37.3963 43.6412 37.4855 43.4758 37.6166 43.346C37.7477 43.2162 37.9147 43.1278 38.0966 43.092C38.2784 43.0562 38.4668 43.0746 38.6381 43.1448C38.8094 43.2151 38.9558 43.3341 39.0588 43.4867C39.1618 43.6393 39.2167 43.8188 39.2167 44.0024C39.2164 44.2484 39.1176 44.4843 38.9418 44.6583C38.7661 44.8323 38.5279 44.9302 38.2794 44.9305Z" fill="#77C64E"/>
<path d="M26.5981 34.5823H21.2811L20.5778 29.9864C19.41 29.6818 18.2899 29.2199 17.2489 28.6137L13.4709 31.3745L9.70975 27.6536L12.4978 23.9101C11.8867 22.8787 11.4226 21.7686 11.1187 20.6113L6.47632 19.9196V14.6615L11.1175 13.9663C11.4232 12.8101 11.8876 11.701 12.4978 10.6698L9.70975 6.92521L13.4709 3.20189L17.2489 5.96276C18.2898 5.35784 19.41 4.8979 20.5778 4.59592L21.2811 0H26.5981L27.2966 4.59592C28.4653 4.89753 29.5863 5.35748 30.628 5.96276L34.4047 3.20189L38.1671 6.92521L35.379 10.6663C35.9891 11.6973 36.4531 12.8065 36.7581 13.9628L41.3993 14.6615V19.9279L36.7581 20.6196C36.4535 21.7763 35.9895 22.886 35.379 23.9172L38.1671 27.6595L34.4059 31.384L30.628 28.6231C29.5859 29.2275 28.465 29.6874 27.2966 29.99L26.5981 34.5859V34.5823ZM23.9378 11.5093C22.7829 11.5091 21.6539 11.848 20.6935 12.4832C19.7331 13.1185 18.9846 14.0215 18.5425 15.078C18.1004 16.1345 17.9847 17.2972 18.2099 18.4189C18.4352 19.5405 18.9913 20.5709 19.808 21.3795C20.6246 22.1882 21.6651 22.7389 22.7978 22.962C23.9305 23.185 25.1046 23.0704 26.1716 22.6327C27.2385 22.1949 28.1504 21.4537 28.7919 20.5026C29.4334 19.5516 29.7757 18.4336 29.7754 17.29C29.7738 15.7573 29.1583 14.2879 28.0639 13.2042C26.9695 12.1204 25.4856 11.5109 23.9378 11.5093Z" fill="#6CBE45"/>
</g>
<defs>
<clipPath id="clip0_159_1065">
<rect width="48" height="48" fill="white"/>
</clipPath>
</defs>
</svg>
