<svg width="48" height="48" viewBox="0 0 48 48" fill="none" xmlns="http://www.w3.org/2000/svg">
<path fill-rule="evenodd" clip-rule="evenodd" d="M23.9856 45.925C23.5997 45.925 23.2138 45.7964 22.9565 45.6677L5.71974 35.3771C5.07657 34.9912 4.69067 34.348 4.69067 33.5763V13.2523C4.69067 12.8664 4.81931 12.4805 4.94794 12.2232C5.07657 11.8373 5.33384 11.58 5.71974 11.4514L22.9565 1.28942C23.5997 0.903525 24.3715 0.903525 25.0147 1.28942L42.2514 11.4514C42.6373 11.7087 42.8946 11.9659 43.0232 12.2232C43.2805 12.4805 43.4091 12.8664 43.4091 13.2523V33.5763C43.4091 34.348 43.0232 35.1198 42.3801 35.5057L25.1433 45.6677C24.7574 45.7964 24.3715 45.925 23.9856 45.925Z" fill="#EF5252"/>
<path fill-rule="evenodd" clip-rule="evenodd" d="M9.5788 17.4972C9.5788 18.1404 10.0933 19.0408 10.6079 19.2981L28.2305 29.7173C28.7451 30.1032 28.7451 30.6178 28.2305 31.0037L25.0147 32.9332C24.5002 33.3191 23.4711 33.3191 22.9566 32.9332L10.6079 25.6011C10.0933 25.2152 9.5788 25.6011 9.5788 26.2443V30.6178C9.5788 31.2609 10.0933 32.1614 10.6079 32.4186L22.9566 39.7507C23.4711 40.1366 24.5002 40.1366 25.0147 39.7507L37.3635 32.4186C37.878 32.0327 38.3925 31.2609 38.3925 30.6178V29.2028C38.3925 28.5596 37.878 27.6592 37.3635 27.4019L19.7408 16.9827C19.2263 16.5968 19.2263 16.0823 19.7408 15.6964L22.9566 13.7669C23.4711 13.381 24.5002 13.381 25.0147 13.7669L37.3635 21.0989C37.878 21.4848 38.3925 21.0989 38.3925 20.4558V16.0823C38.3925 15.4391 37.878 14.5387 37.3635 14.2814L25.0147 6.94934C24.5002 6.56344 23.4711 6.56344 22.9566 6.94934L10.6079 14.2814C10.0933 14.6673 9.5788 15.4391 9.5788 16.0823V17.4972Z" fill="#FEFEFE"/>
</svg>
