<svg width="42" height="48" viewBox="0 0 42 48" fill="none" xmlns="http://www.w3.org/2000/svg">
<path d="M36.1404 9.12914C36.108 8.88972 35.9017 8.7569 35.7305 8.74244C35.5606 8.72798 32.2319 8.67669 32.2319 8.67669C32.2319 8.67669 29.4481 5.93556 29.173 5.65671C28.8981 5.37786 28.361 5.46204 28.1522 5.52517C28.1496 5.52649 27.6294 5.68959 26.7538 5.96449C26.6072 5.48309 26.3918 4.89119 26.0844 4.29667C25.0934 2.37893 23.6418 1.36482 21.8879 1.3622C21.8853 1.3622 21.884 1.3622 21.8814 1.3622C21.7595 1.3622 21.6388 1.37403 21.5169 1.38455C21.465 1.32142 21.4131 1.2596 21.3587 1.19909C20.5946 0.370443 19.6152 -0.0333595 18.4412 0.0021541C16.1763 0.06792 13.9205 1.72654 12.0914 4.67285C10.8045 6.74579 9.82511 9.35015 9.54753 11.3665C6.94659 12.1833 5.12789 12.7541 5.08768 12.7673C3.7749 13.1856 3.73339 13.2263 3.56216 14.4812C3.43503 15.4295 0 42.362 0 42.362L28.7865 47.4102L41.2631 44.2652C41.2631 44.2652 36.1728 9.36857 36.1404 9.12914ZM25.3126 6.41696C24.6497 6.62478 23.896 6.86154 23.0787 7.11803C23.0619 5.95529 22.9257 4.33745 22.3912 2.93926C24.11 3.26941 24.9558 5.24107 25.3126 6.41696ZM21.5727 7.59154C20.064 8.06502 18.4178 8.58195 16.7665 9.10022C17.2309 7.29691 18.1117 5.5015 19.1936 4.32429C19.5958 3.88629 20.1587 3.39831 20.8255 3.11945C21.452 4.4453 21.5883 6.32226 21.5727 7.59154ZM18.4866 1.53055C19.0184 1.51871 19.466 1.6371 19.8487 1.89227C19.2364 2.21452 18.6449 2.67751 18.0897 3.28124C16.651 4.84647 15.5484 7.27587 15.1087 9.61976C13.7375 10.0499 12.3962 10.4721 11.1612 10.8588C11.9409 7.16933 14.9906 1.63315 18.4866 1.53055Z" fill="#81C038"/>
<path d="M35.7317 8.74389C35.5618 8.72943 32.2332 8.67815 32.2332 8.67815C32.2332 8.67815 29.4494 5.93701 29.1744 5.65816C29.0719 5.55425 28.9331 5.50032 28.7878 5.47797L28.7891 47.409L41.2644 44.2654C41.2644 44.2654 36.1741 9.37003 36.1417 9.1306C36.1092 8.89118 35.9017 8.75835 35.7317 8.74389Z" fill="#3C8F34"/>
<path d="M21.8718 15.2482L20.4228 20.7449C20.4228 20.7449 18.8065 19.9991 16.8905 20.1214C14.0807 20.3017 14.0509 22.0984 14.0795 22.5496C14.2325 25.0079 20.6109 25.5445 20.969 31.303C21.2505 35.8329 18.5989 38.9318 14.7786 39.1765C10.193 39.4698 7.66859 36.7273 7.66859 36.7273L8.64022 32.5367C8.64022 32.5367 11.1814 34.4808 13.2155 34.3506C14.5438 34.2651 15.0186 33.1694 14.9706 32.3947C14.7709 29.1879 9.57678 29.3773 9.24861 24.1082C8.97228 19.6743 11.8444 15.1811 18.1812 14.776C20.6226 14.6169 21.8718 15.2482 21.8718 15.2482Z" fill="white"/>
</svg>
