<svg width="42" height="33" viewBox="0 0 42 33" fill="none" xmlns="http://www.w3.org/2000/svg">
<path d="M9.56475 17.9609C8.71573 18.6913 7.38913 18.6913 6.64624 17.9609C5.79722 17.0739 5.79722 15.9261 6.64624 15.0391L19.6469 2.41304C22.7776 -0.665224 27.9779 -0.665224 31.1087 2.41304C31.8516 3.24782 31.8516 4.55217 31.1087 5.2826C30.2596 6.01304 28.933 6.01304 28.1901 5.2826C26.5982 3.66521 24.1042 3.66521 22.4593 5.2826L9.56475 17.9609Z" fill="black"/>
<path d="M26.6513 6.53477C27.3942 7.36956 27.3942 8.6739 26.6513 9.40434L13.8099 22.0826C10.6791 25.1609 5.47884 25.1609 2.34807 22.0826C-0.782691 19.0043 -0.782691 13.8913 2.34807 10.813L12.1118 1.21304C13.7037 -0.404348 16.1977 -0.404348 17.8427 1.21304L5.16045 13.6826C3.51548 15.2478 3.51548 17.7 5.16045 19.3174C6.75237 20.9348 9.24637 20.9348 10.8913 19.3174L23.7328 6.53477C24.5818 5.80434 25.9084 5.80434 26.6513 6.53477Z" fill="black"/>
<path d="M15.1895 23.5956L28.1901 10.813C31.3209 7.73478 36.415 7.73478 39.6519 10.813C42.7827 13.8913 42.7827 19.0043 39.6519 22.0826L29.7821 31.7869C28.1901 33.4043 25.6961 33.4043 24.0512 31.7869L36.7334 19.4217C38.3784 17.8565 38.3253 15.4043 36.7334 13.7869C35.1415 12.1696 32.6475 12.1696 31.0025 13.7869L18.108 26.4652C17.259 27.1956 15.9324 27.1956 15.1895 26.4652C14.4466 25.6304 14.4466 24.3261 15.1895 23.5956Z" fill="black"/>
<path d="M32.4353 15.0391C33.2843 14.3087 34.6109 14.3087 35.3538 15.0391C36.0967 15.9261 36.0966 17.0739 35.2476 18.013L22.3531 30.6913C19.2224 33.7696 14.0221 33.7696 10.8913 30.6913C10.1485 29.8565 10.1485 28.5522 10.8913 27.8217C11.7404 27.0913 13.067 27.0913 13.8099 27.8217C15.4018 29.4391 17.8958 29.4391 19.5407 27.8217L32.4353 15.0391Z" fill="black"/>
</svg>
