<svg width="48" height="48" viewBox="0 0 48 48" fill="none" xmlns="http://www.w3.org/2000/svg">
<path d="M38.0138 3H10.0139C6.15767 3 3 6.12974 3 10.014V37.986C3 41.8703 6.15767 45 10.0139 45H37.9859C41.8701 45 44.9998 41.8423 44.9998 37.986V10.014C45.0278 6.12974 41.898 3 38.0138 3ZM37.399 35.1637C37.399 36.3932 36.3931 37.3713 35.1915 37.3713H12.8642C11.6347 37.3713 10.6567 36.3653 10.6567 35.1637V12.8643C10.6567 11.6347 11.6626 10.6567 12.8642 10.6567H35.1635C36.3931 10.6567 37.3711 11.6627 37.3711 12.8643V35.1637H37.399ZM19.5428 29.7146C18.8442 29.7146 18.2574 29.1557 18.2574 28.4291V19.5429C18.2574 18.8443 18.8163 18.2575 19.5428 18.2575H28.457C29.1556 18.2575 29.7424 18.8164 29.7424 19.5429V28.4571C29.7424 29.1557 29.1835 29.7425 28.457 29.7425L19.5428 29.7146Z" fill="black"/>
</svg>
