<svg width="49" height="48" viewBox="0 0 49 48" fill="none" xmlns="http://www.w3.org/2000/svg">
<path d="M24.5001 16C25.6893 16 26.6907 15.4218 26.8211 14.6784L28 2.23991C28 1.0082 26.4431 0 24.5001 0C22.5466 0 21 1.0082 21 2.23991L22.1892 14.6784C22.3145 15.4218 23.3107 16 24.5001 16Z" fill="#FFC220"/>
<path d="M17.6055 19.7614C18.1588 18.8052 18.127 17.7438 17.5296 17.2705L7.19559 10.2161C6.12066 9.60419 4.51169 10.3333 3.59101 11.8775C2.6727 13.4194 2.85879 15.1501 3.91176 15.7501L15.3525 20.9279C16.0847 21.1957 17.0422 20.6984 17.6055 19.7518" fill="#FFC220"/>
<path d="M31.3809 19.7443C31.9666 20.6906 32.9251 21.1876 33.6384 20.9343L45.0908 15.7443C46.1547 15.1325 46.314 13.4192 45.4144 11.878C44.4952 10.3343 42.8748 9.61031 41.8012 10.2101L31.4544 17.2544C30.8807 17.7347 30.8391 18.8005 31.393 19.7539" fill="#FFC220"/>
<path d="M24.5001 32C25.6893 32 26.6907 32.5785 26.8211 33.3224L28 45.7685C28 47.0009 26.4431 48 24.5001 48C22.5466 48 21 47.0009 21 45.7685L22.1892 33.3224C22.3145 32.5785 23.3107 32 24.5001 32Z" fill="#FFC220"/>
<path d="M31.3809 27.3694C31.9666 26.3342 32.9251 25.7814 33.6384 26.0812L45.0908 31.7346C46.1547 32.3891 46.314 34.2745 45.4144 35.959C44.4952 37.6305 42.8748 38.4258 41.8012 37.7713L31.4544 30.0735C30.8807 29.5546 30.8391 28.3968 31.393 27.3694" fill="#FFC220"/>
<path d="M17.6055 27.3588C18.1588 28.3996 18.127 29.5552 17.5296 30.0769L7.19559 37.7643C6.12066 38.4321 4.51169 37.6339 3.59101 35.9618C2.6727 34.2793 2.85879 32.3907 3.91176 31.7359L15.3525 26.0806C16.0847 25.7832 17.0422 26.331 17.6055 27.3588Z" fill="#FFC220"/>
</svg>
