<svg width="51" height="48" viewBox="0 0 51 48" fill="none" xmlns="http://www.w3.org/2000/svg">
<g clip-path="url(#clip0_159_1195)">
<path d="M29.19 14.3784C28.206 14.8739 27.7797 15.7989 27.7797 18.3096C27.7797 18.3096 28.2716 17.8141 29.0588 17.5168C29.6327 17.302 30.0427 17.0212 30.3379 16.8065C31.1906 16.1623 31.3218 15.386 31.3218 14.0315C31.3054 14.0315 29.9607 13.9489 29.19 14.3784Z" fill="#FBBD71"/>
<path d="M23.1714 14.9568C22.3187 15.6671 22.1055 16.8894 22.1055 16.8894L19.3505 27.5269L17.0875 18.822C16.8743 17.897 16.4479 16.7573 15.8084 15.9644C15.0212 14.9568 13.3814 14.8908 13.1846 14.8908C13.037 14.8908 11.4135 14.9568 10.5608 15.9644C9.92123 16.7573 9.49486 17.897 9.28168 18.822L7.14984 27.5269L4.39486 16.8894C4.39486 16.8894 4.18167 15.7497 3.32894 14.9568C1.98425 13.7345 0 14.0318 0 14.0318L5.24759 33.9358C5.24759 33.9358 6.95306 34.0844 7.80579 33.655C8.9373 33.0768 9.51126 32.6639 10.1508 29.9385C10.7904 27.5103 12.4958 20.4407 12.627 19.9452C12.6926 19.7305 12.8402 19.0863 13.2666 19.0863C13.6929 19.0863 13.8405 19.6644 13.9061 19.9452C14.0537 20.4407 15.7428 27.5103 16.3823 29.9385C17.0875 32.6474 17.5794 33.0768 18.7273 33.655C19.5801 34.0844 21.2855 33.9358 21.2855 33.9358L26.5003 14.0318C26.5003 14.0318 24.5161 13.751 23.1714 14.9568Z" fill="black"/>
<path d="M31.3051 17.2361C31.3051 17.2361 30.9444 17.7316 30.2392 18.1611C29.7472 18.4419 29.3209 18.5905 28.8289 18.8713C27.9762 19.3008 27.763 19.7303 27.763 20.3745V20.5892V21.6628V21.8776V33.8695C27.763 33.8695 29.1077 34.0181 29.9604 33.5887C31.0919 33.0106 31.3051 32.449 31.3051 30.0208V18.0289V17.2361Z" fill="black"/>
<path d="M44.3421 24.0248L51 14.0976C51 14.0976 48.245 13.602 46.8183 14.8904C45.9 15.6833 44.9817 17.1699 44.9817 17.1699L42.5711 20.7377C42.4235 20.9525 42.2923 21.1011 42.0791 21.1011C41.8659 21.1011 41.6527 20.8864 41.5872 20.7377L39.1765 17.1699C39.1765 17.1699 38.1926 15.7494 37.3399 14.8904C35.9296 13.602 33.1582 14.0976 33.1582 14.0976L39.6029 24.0082L33.0106 33.9189C33.0106 33.9189 35.9132 34.2823 37.3399 32.9939C38.2582 32.2011 39.1109 30.8466 39.1109 30.8466L41.5216 27.2788C41.6691 27.064 41.8003 26.9154 42.0135 26.9154C42.2267 26.9154 42.4399 27.1301 42.5055 27.2788L44.9161 30.8466C44.9161 30.8466 45.8344 32.2011 46.6872 32.9939C48.0974 34.2823 50.9344 33.9189 50.9344 33.9189L44.3421 24.0248Z" fill="black"/>
</g>
<defs>
<clipPath id="clip0_159_1195">
<rect width="51" height="48" fill="white"/>
</clipPath>
</defs>
</svg>
