<svg width="48" height="32" viewBox="0 0 48 32" fill="none" xmlns="http://www.w3.org/2000/svg">
<path fill-rule="evenodd" clip-rule="evenodd" d="M0.377575 3.04227C1.03833 1.27043 2.69022 0.00104631 4.41291 0.00104631C17.4157 0.00104631 30.4184 0.00104631 43.4448 0.00104631C44.5775 -0.0253991 45.7102 0.450625 46.5362 1.29688C47.4801 2.24891 48.0229 3.67696 47.9993 5.10502C47.9993 10.685 47.9993 16.265 47.9993 21.8714C47.9757 24.3837 46.017 26.658 43.7751 26.7109C39.0318 26.7374 34.2886 26.7109 29.5453 26.7109C30.1824 28.4828 30.8196 30.2282 31.4567 32C28.6249 30.2546 25.8403 28.4563 22.9849 26.7374C16.7549 26.6845 10.5013 26.7374 4.24772 26.7109C2.00587 26.6316 0.047197 24.3837 0.0235985 21.8714C8.96693e-08 16.3972 0.0235985 10.923 0 5.47525C0 4.65544 0.0707955 3.80919 0.377575 3.04227Z" fill="#7F54B3"/>
<path fill-rule="evenodd" clip-rule="evenodd" d="M19.4451 3.43892C20.1531 2.59267 21.5218 2.85712 22.0646 3.8356C22.3478 4.33807 22.3714 5.02565 22.1354 5.55455C21.1442 7.77597 20.7195 10.2354 20.3419 12.6419C19.8935 15.7889 19.5159 18.9888 19.6575 22.1887C19.7047 23.0085 19.3508 23.987 18.572 24.1986C17.8405 24.3837 17.1561 23.8283 16.6841 23.2465C14.5603 20.6813 13.3567 17.3757 12.4836 14.07C11.6105 16.0005 10.7373 17.9575 9.88777 19.888C9.29781 21.2102 8.66065 22.559 7.71671 23.6168C7.31554 24.0664 6.63118 24.463 6.11202 24.0135C5.33327 23.2465 5.14448 22.0301 4.8141 20.9987C3.56339 16.1592 2.85543 11.161 2.12388 6.18925C1.95869 5.36944 2.26547 4.36452 2.99702 4.04717C3.58698 3.80916 4.36573 3.75627 4.8613 4.25873C5.21528 4.60252 5.30967 5.15788 5.38047 5.66034C5.89963 9.52137 6.48959 13.356 7.33914 17.1377C8.75504 14.1229 10.171 11.1081 11.5869 8.06687C11.7992 7.6173 12.0588 7.16773 12.4364 6.90327C12.9556 6.53304 13.7107 6.55949 14.1591 7.08839C14.5131 7.51152 14.6547 8.11977 14.7491 8.67512C15.1738 11.161 15.7402 13.6469 16.5661 16.0005C16.9201 12.4304 17.3685 8.80734 18.5248 5.44878C18.7844 4.73475 19.0204 4.02072 19.4451 3.43892ZM27.445 5.36944C28.9789 5.15788 30.6308 5.73967 31.6691 7.0355C32.5187 8.11976 32.9907 9.52137 33.1558 10.923C33.4154 13.3295 33.0143 15.8683 31.9759 18.0103C31.386 19.2268 30.6308 20.4169 29.5453 21.1309C27.9642 22.2152 25.8403 22.0829 24.3064 20.9458C23.0793 19.9938 22.395 18.407 22.1118 16.8203C21.5454 13.1973 22.5129 9.17758 24.9436 6.66527C25.6515 5.95124 26.5247 5.50167 27.445 5.36944ZM27.7518 9.0718C27.0202 9.33625 26.5483 10.1032 26.1471 10.7908C25.156 12.589 24.8728 14.9427 25.6751 16.8732C25.8875 17.3757 26.2179 17.931 26.7607 18.0368C27.327 18.1426 27.8462 17.7723 28.2474 17.3757C29.1441 16.503 29.5925 15.2071 29.8285 13.9113C30.0644 12.4568 29.9465 10.8436 29.1913 9.57426C28.8845 9.09824 28.271 8.88668 27.7518 9.0718ZM39.6926 5.36944C41.1793 5.15788 42.8076 5.68679 43.8459 6.92972C44.7899 8.06687 45.2855 9.57426 45.427 11.1081C45.6394 13.4353 45.2619 15.8683 44.2707 17.931C43.6808 19.174 42.902 20.3904 41.7693 21.1309C40.259 22.1623 38.2295 22.0565 36.7192 21.0516C35.7045 20.364 35.0201 19.2004 34.6189 17.9575C33.557 14.1758 34.4538 9.73293 36.908 6.87683C37.7103 6.08346 38.6779 5.50167 39.6926 5.36944ZM40.023 9.0718C39.2206 9.38914 38.7487 10.2618 38.3239 11.0288C37.4272 12.8006 37.1912 15.1014 38.0171 16.979C38.2295 17.5079 38.6307 18.0103 39.1735 18.0368C39.7634 18.0632 40.2826 17.6401 40.7074 17.1905C41.6277 16.1856 42.0289 14.7576 42.1705 13.356C42.312 12.0601 42.1233 10.6585 41.4389 9.54781C41.1557 9.09824 40.5422 8.88668 40.023 9.0718Z" fill="white"/>
</svg>
