<svg width="109" height="48" viewBox="0 0 109 48" fill="none" xmlns="http://www.w3.org/2000/svg">
<g clip-path="url(#clip0_159_1349)">
<path d="M48.7626 37.6533C47.943 37.6533 47.1127 37.4827 46.3144 37.1307L29.2831 29.5253C26.2388 28.1707 24.8656 24.576 26.2175 21.5253L33.807 4.45867C35.1589 1.408 38.7461 0.0320002 41.7904 1.38667L58.8217 8.992C61.866 10.3467 63.2392 13.9413 61.8873 16.992L54.2978 34.0587C53.2865 36.32 51.0725 37.6533 48.7626 37.6533ZM47.7301 33.9307C49.0181 34.5067 50.5296 33.92 51.1044 32.64L58.694 15.5733C59.2688 14.2827 58.6833 12.768 57.406 12.192L40.3641 4.58667C39.0761 4.01067 37.5646 4.59733 36.9898 5.87733L29.4002 22.944C28.8254 24.2347 29.4109 25.7493 30.6882 26.3253L47.7301 33.9307Z" fill="#089949"/>
<path d="M102.188 37.6642H83.5383C80.2065 37.6642 77.4922 34.9442 77.4922 31.6056V12.9176C77.4922 9.57889 80.2065 6.85889 83.5383 6.85889H102.188C105.519 6.85889 108.234 9.57889 108.234 12.9176V31.6056C108.234 34.9442 105.519 37.6642 102.188 37.6642ZM83.5383 10.3576C82.1332 10.3576 80.9836 11.5096 80.9836 12.9176V31.6056C80.9836 33.0136 82.1332 34.1656 83.5383 34.1656H102.188C103.593 34.1656 104.742 33.0136 104.742 31.6056V12.9176C104.742 11.5096 103.593 10.3576 102.188 10.3576H83.5383Z" fill="#F9B21D"/>
<path d="M32.3488 16.3413L29.8366 21.9733C29.8047 22.0373 29.7728 22.0907 29.7408 22.144L30.7201 28.2027C30.9437 29.6 29.9963 30.912 28.6125 31.136L10.1975 34.1227C9.52688 34.2293 8.84563 34.0693 8.29211 33.6747C7.7386 33.28 7.37668 32.6827 7.27024 32.0107L4.28977 13.5573C4.18332 12.8853 4.34299 12.2027 4.73684 11.648C5.13069 11.0933 5.72678 10.7307 6.39739 10.624L24.8124 7.63733C24.9508 7.616 25.0892 7.60533 25.2169 7.60533C26.441 7.60533 27.5374 8.50133 27.7397 9.76L28.7296 15.8613L31.3269 10.0267L31.1885 9.20533C30.6563 5.90933 27.5481 3.65867 24.2589 4.192L5.84387 7.17867C4.25784 7.424 2.85276 8.288 1.91604 9.6C0.968677 10.912 0.596118 12.512 0.851587 14.112L3.83206 32.5653C4.08752 34.1653 4.94973 35.5627 6.25901 36.512C7.29153 37.2693 8.51565 37.6533 9.78235 37.6533C10.1017 37.6533 10.4317 37.632 10.7616 37.5787L29.1767 34.592C32.4658 34.0587 34.7118 30.944 34.1796 27.648L32.3488 16.3413Z" fill="#E42527"/>
<path d="M54.4361 25.152L57.1398 19.0827L56.3734 13.44C56.2776 12.768 56.4586 12.096 56.8737 11.552C57.2889 11.008 57.885 10.656 58.5662 10.5707L77.0451 8.05337C77.1622 8.0427 77.2793 8.03204 77.3964 8.03204C77.9499 8.03204 78.4821 8.21337 78.9398 8.5547C79.025 8.6187 79.0995 8.69337 79.174 8.75737C79.9936 7.89337 81.0688 7.2747 82.2716 7.00804C81.931 6.5387 81.5265 6.1227 81.0475 5.76004C79.7595 4.7787 78.1734 4.3627 76.5768 4.57604L58.0766 7.09337C56.4799 7.3067 55.0535 8.1387 54.0849 9.42937C53.1056 10.72 52.6904 12.3094 52.9033 13.9094L54.4361 25.152Z" fill="#226DB4"/>
<path d="M85.8801 28.2774L83.4531 10.3574C82.0906 10.4001 80.9943 11.5308 80.9943 12.9068V18.1654L82.4313 28.7468C82.5271 29.4188 82.3461 30.0908 81.931 30.6348C81.5158 31.1788 80.9197 31.5308 80.2385 31.6161L61.7596 34.1334C61.089 34.2294 60.4184 34.0481 59.8755 33.6321C59.3326 33.2161 58.9814 32.6188 58.8962 31.9361L58.0446 25.6534L55.3409 31.7228L55.4367 32.4054C55.6496 34.0054 56.4799 35.4348 57.7679 36.4054C58.8323 37.2161 60.099 37.6428 61.419 37.6428C61.6957 37.6428 61.9725 37.6214 62.2492 37.5894L80.7069 35.0934C82.3035 34.8801 83.7299 34.0481 84.6986 32.7574C85.6779 31.4668 86.093 29.8774 85.8801 28.2774Z" fill="#226DB4"/>
<path d="M69.7642 44.3306C69.7642 42.7306 70.9351 41.5786 72.5318 41.5786C74.1817 41.5786 75.2994 42.7093 75.2994 44.3413C75.2994 45.9946 74.1604 47.1359 72.5105 47.1359C70.85 47.1359 69.7642 45.9946 69.7642 44.3306ZM74.022 44.3519C74.022 43.3813 73.5537 42.5493 72.4999 42.5493C71.4354 42.5493 71.0309 43.4133 71.0309 44.3946C71.0309 45.3226 71.5312 46.1759 72.5531 46.1759C73.6069 46.1653 74.022 45.2586 74.022 44.3519ZM57.9594 41.6639H58.7471C58.8642 41.6639 58.96 41.7599 58.96 41.8773V43.8613H61.1954V41.8773C61.1954 41.7599 61.2912 41.6639 61.4083 41.6639H62.196C62.3131 41.6639 62.4089 41.7599 62.4089 41.8773V46.8373C62.4089 46.9546 62.3131 47.0506 62.196 47.0506H61.4189C61.3018 47.0506 61.206 46.9546 61.206 46.8373V44.8319H58.9707V46.8373C58.9707 46.9546 58.8749 47.0506 58.7578 47.0506H57.9701C57.853 47.0506 57.7572 46.9546 57.7572 46.8373V41.8773C57.7466 41.7599 57.8424 41.6639 57.9594 41.6639ZM44.856 44.3306C44.856 42.7306 46.0269 41.5786 47.6236 41.5786C49.2735 41.5786 50.3912 42.7093 50.3912 44.3413C50.3912 45.9946 49.2522 47.1359 47.6023 47.1359C45.9418 47.1359 44.856 45.9946 44.856 44.3306ZM49.1245 44.3519C49.1245 43.3813 48.6561 42.5493 47.6023 42.5493C46.5379 42.5493 46.1334 43.4133 46.1334 44.3946C46.1334 45.3226 46.6337 46.1759 47.6555 46.1759C48.7093 46.1653 49.1245 45.2586 49.1245 44.3519ZM33.7431 46.5279L36.383 42.6239H34.2115C34.0944 42.6239 33.9986 42.5279 33.9986 42.4106V41.8879C33.9986 41.7706 34.0944 41.6746 34.2115 41.6746H37.7774C37.8945 41.6746 37.9903 41.7706 37.9903 41.8879V42.0906C37.9903 42.1333 37.9797 42.1759 37.9584 42.2079L35.3717 46.1119H37.6923C37.8093 46.1119 37.9051 46.2079 37.9051 46.3253V46.8479C37.9051 46.9653 37.8093 47.0613 37.6923 47.0613H33.9241C33.807 47.0613 33.7112 46.9653 33.7112 46.8479V46.6559C33.7006 46.6026 33.7218 46.5599 33.7431 46.5279Z" fill="black"/>
</g>
<defs>
<clipPath id="clip0_159_1349">
<rect width="109" height="48" fill="white"/>
</clipPath>
</defs>
</svg>
