<svg width="226" height="220" viewBox="0 0 226 220" fill="none" xmlns="http://www.w3.org/2000/svg">
<rect y="49" width="182" height="170.757" rx="6" fill="white"/>
<g filter="url(#filter0_dd_216_611)">
<path d="M59.3308 66.2131C55.4731 70.0708 55.4731 76.3256 59.3308 80.1833C63.1885 84.041 69.4433 84.041 73.301 80.1833C77.1587 76.3256 77.1587 70.0708 73.301 66.2131C69.4433 62.3554 63.1885 62.3554 59.3308 66.2131Z" fill="#472F92"/>
<path d="M66.9852 68.2419C66.8561 68.2419 66.7284 68.1932 66.6296 68.0944C66.4334 67.8982 66.4334 67.5794 66.6296 67.3832L67.4067 66.6048L66.6296 65.8264C66.4334 65.6302 66.4334 65.3114 66.6296 65.1152C66.8258 64.919 67.1446 64.919 67.3408 65.1152L68.4748 66.2492C68.6711 66.4454 68.6711 66.7642 68.4748 66.9604L67.3408 68.0944C67.242 68.1932 67.1143 68.2419 66.9852 68.2419V68.2419Z" fill="#2FB5C0"/>
<path d="M65.6531 81.4285C65.524 81.4285 65.3949 81.3798 65.2974 81.281L64.1648 80.1483C63.9685 79.952 63.9685 79.6333 64.1648 79.4371L65.2988 78.3031C65.495 78.1068 65.8137 78.1068 66.01 78.3031C66.2062 78.4993 66.2062 78.818 66.01 79.0143L65.2329 79.7927L66.01 80.5698C66.2062 80.766 66.2062 81.0847 66.01 81.281C65.9112 81.3798 65.7834 81.4285 65.6544 81.4285H65.6531Z" fill="#2FB5C0"/>
<path d="M73.1266 71.175C73.0015 70.7549 72.6736 70.4388 72.2495 70.3321C71.8254 70.2241 71.3881 70.3453 71.0799 70.6535L69.6917 72.0403C69.5705 72.1615 69.5192 72.3354 69.5561 72.5026C69.7944 73.609 69.4599 74.7469 68.6604 75.5477C67.4896 76.7186 65.6562 76.824 64.3602 75.8743L68.6381 71.5965C68.9568 71.2778 69.1056 70.8207 69.0345 70.3756C68.9647 69.9278 68.6934 69.5537 68.293 69.3496C66.619 68.4935 64.6025 68.8122 63.2723 70.1424C61.7076 71.7058 61.597 74.1806 62.9364 75.8743L61.9947 76.8161C61.8815 76.9293 61.7511 76.9372 61.6826 76.932C61.5601 76.9214 61.4481 76.8582 61.3744 76.7568C59.6187 74.3215 59.8887 71.0104 62.0145 68.8846C63.0682 67.831 64.4656 67.2014 65.9499 67.1092C66.2278 67.0921 66.4385 66.8537 66.4214 66.5758C66.4043 66.2979 66.1633 66.0845 65.888 66.1043C64.1574 66.211 62.5295 66.9446 61.302 68.1721C58.8245 70.6495 58.5111 74.5059 60.5565 77.3442C60.8028 77.6853 61.1834 77.9 61.5996 77.9342C61.6378 77.9369 61.6747 77.9395 61.7129 77.9395C62.083 77.9395 62.4399 77.7933 62.7046 77.5286L63.6398 76.5935C65.3335 77.9329 67.8057 77.8236 69.3703 76.2602C70.3463 75.2843 70.7915 73.9211 70.5886 72.5685L71.7898 71.3673C71.8675 71.2896 71.9558 71.2975 72.0005 71.3094C72.0466 71.3212 72.1296 71.3568 72.1612 71.4635C72.8 73.6142 72.2126 75.9336 70.6282 77.5181C69.5758 78.5704 68.1784 79.2013 66.6914 79.2935C66.4148 79.3106 66.2028 79.549 66.2199 79.8269C66.237 80.0942 66.4583 80.2984 66.7217 80.2984C66.7323 80.2984 66.7428 80.2984 66.7533 80.2984C68.484 80.1917 70.1132 79.4568 71.3394 78.2306C73.1859 76.3854 73.8695 73.6827 73.1253 71.179L73.1266 71.175ZM63.9848 70.851C64.6236 70.2122 65.4679 69.8777 66.3266 69.8777C66.8389 69.8777 67.3565 69.9976 67.836 70.2425C67.9874 70.3202 68.0296 70.4559 68.0414 70.5297C68.0625 70.6614 68.0203 70.7891 67.9268 70.8826L63.6543 75.1539C63.2381 74.5889 63.0128 73.908 63.0128 73.1928C63.0128 72.3077 63.3579 71.4753 63.9835 70.8497L63.9848 70.851Z" fill="white"/>
</g>
<path d="M81.7599 70.1513C80.208 70.1513 78.9609 71.3101 78.9609 72.9968C78.9609 74.6835 80.208 75.8272 81.737 75.8272C82.918 75.8272 83.8832 75.2918 84.3607 74.1757L83.0806 73.9068C82.6894 74.5628 82.1586 74.6156 81.737 74.6156C81.0741 74.6156 80.5204 74.143 80.3807 73.3688H84.5029V72.8862C84.4496 71.2548 83.2025 70.1488 81.7599 70.1488V70.1513ZM80.4264 72.3734C80.5991 71.7073 81.2189 71.3855 81.7599 71.3855C82.3339 71.3855 82.8545 71.6872 83.0399 72.3734H80.4264Z" fill="#2FB5C0"/>
<path d="M88.9667 71.5034L87.4072 71.1917C86.8434 71.0836 86.6808 70.8272 86.6808 70.4627C86.6808 69.9801 87.1227 69.5729 87.8618 69.5729C88.6009 69.5729 89.1851 70.0128 89.2943 70.689L90.7674 70.3873C90.4855 69.1104 89.368 68.316 87.8949 68.316C86.1932 68.316 85.129 69.2185 85.129 70.5055C85.129 71.9106 86.1678 72.3832 87.0364 72.5667L88.5755 72.8558C89.2257 72.984 89.4213 73.2303 89.4213 73.64C89.4213 74.1553 88.9768 74.5525 88.1311 74.5525C87.2853 74.5525 86.6986 74.1981 86.503 73.3836L84.9512 73.6953C85.1366 75.1332 86.47 75.8294 87.9888 75.8294C89.7134 75.8294 90.8741 74.9597 90.8741 73.5646C90.8741 72.4485 90.1477 71.7497 88.9641 71.5034H88.9667Z" fill="#2FB5C0"/>
<path d="M118.018 70.1513C116.468 70.1513 115.219 71.3101 115.219 72.9968C115.219 74.6835 116.466 75.8272 117.995 75.8272C119.178 75.8272 120.144 75.2918 120.621 74.1757L119.341 73.9068C118.952 74.5628 118.419 74.6156 117.997 74.6156C117.334 74.6156 116.783 74.143 116.641 73.3688H120.763V72.8862C120.71 71.2548 119.463 70.1488 118.018 70.1488V70.1513ZM116.684 72.3734C116.857 71.7073 117.477 71.3855 118.018 71.3855C118.594 71.3855 119.115 71.6872 119.298 72.3734H116.684Z" fill="#2FB5C0"/>
<path d="M97.0964 72.4061C97.0964 71.0763 96.2278 70.1538 94.9274 70.1538C94.2112 70.1538 93.6473 70.3775 93.2232 70.7973V67.9418H90.9805L91.2548 68.5124C91.3437 68.6984 91.585 68.8492 91.7932 68.8492V74.7689H91.4503V75.6714H93.566V74.7689H93.2257V73.301C93.2257 71.9913 93.7591 71.4534 94.5718 71.4534C95.2322 71.4534 95.6665 71.9586 95.6665 72.7077V74.7664H95.3262V75.6688H97.4419V74.7664H97.099V72.4061H97.0964Z" fill="#2FB5C0"/>
<path d="M105.167 70.1512C104.43 70.1512 103.831 70.3649 103.376 70.742V70.3121H101.131L101.405 70.8827C101.494 71.0662 101.738 71.217 101.944 71.217V76.5888H101.601V77.4937H103.716V76.5888H103.374V75.249C103.828 75.616 104.425 75.8297 105.164 75.8297C106.541 75.8297 107.821 74.6834 107.821 72.9993C107.821 71.3151 106.541 70.1538 105.164 70.1538L105.167 70.1512ZM104.915 74.5954C104.143 74.5954 103.376 73.9846 103.376 72.9967C103.376 72.0089 104.146 71.3855 104.915 71.3855C105.781 71.3855 106.434 72.0089 106.434 72.9967C106.434 73.9846 105.781 74.5954 104.915 74.5954Z" fill="#2FB5C0"/>
<path d="M111.854 70.1512C111.117 70.1512 110.52 70.3649 110.066 70.742V70.3121H107.82L108.095 70.8827C108.186 71.0662 108.427 71.217 108.633 71.217V76.5888H108.29V77.4937H110.406V76.5888H110.066V75.249C110.52 75.616 111.117 75.8297 111.854 75.8297C113.23 75.8297 114.51 74.6834 114.51 72.9993C114.51 71.3151 113.23 70.1538 111.854 70.1538V70.1512ZM111.605 74.5954C110.835 74.5954 110.066 73.9846 110.066 72.9967C110.066 72.0089 110.835 71.3855 111.605 71.3855C112.471 71.3855 113.124 72.0089 113.124 72.9967C113.124 73.9846 112.471 74.5954 111.605 74.5954Z" fill="#2FB5C0"/>
<path d="M125.154 70.2368C124.276 70.2368 123.646 70.6667 123.214 71.2901V70.3122H120.969L121.246 70.8828C121.334 71.0663 121.576 71.2172 121.781 71.2172V74.7665H121.441V75.6689H123.554V74.7665H123.214V73.9395C123.214 72.4489 123.821 71.6445 125.144 71.6445H125.459L125.535 70.2821C125.406 70.2368 125.297 70.2368 125.157 70.2368H125.154Z" fill="#2FB5C0"/>
<path d="M99.5093 69.6133C100.01 69.6133 100.375 69.2589 100.375 68.7863C100.375 68.3137 100.007 67.9392 99.5093 67.9392C99.0114 67.9392 98.6406 68.3364 98.6406 68.7863C98.6406 69.2589 98.9987 69.6133 99.5093 69.6133Z" fill="#EC1846"/>
<path d="M100.226 70.3094H97.9805L98.2573 70.8801C98.3462 71.0636 98.5875 71.2144 98.7932 71.2144V74.7637H98.4503V75.6661H100.566V74.7637H100.223V70.3094H100.226Z" fill="#2FB5C0"/>
<g filter="url(#filter1_d_216_611)">
<rect x="12" y="96.7567" width="158" height="19" rx="4.64865" fill="white"/>
<rect x="12.2905" y="97.0473" width="157.419" height="18.4189" rx="4.35811" stroke="#D0D5DD" stroke-width="0.581081"/>
<rect x="20.1348" y="103.932" width="31.3784" height="4.64865" rx="2.32432" fill="#E5E7EB"/>
</g>
<g filter="url(#filter2_d_216_611)">
<rect x="12" y="125.757" width="158" height="20" rx="4.64865" fill="white"/>
<rect x="12.2905" y="126.047" width="157.419" height="19.4189" rx="4.35811" stroke="#D0D5DD" stroke-width="0.581081"/>
<rect x="20.1348" y="133.432" width="22.0811" height="4.64865" rx="2.32432" fill="#E5E7EB"/>
</g>
<g filter="url(#filter3_d_216_611)">
<rect x="12" y="159.757" width="158" height="20" rx="4.64865" fill="#2FB5C0"/>
<rect x="12.2905" y="160.047" width="157.419" height="19.4189" rx="4.35811" stroke="#2FB5C0" stroke-width="0.581081"/>
<rect x="70.9531" y="167.432" width="40.0946" height="4.64865" rx="2.32432" fill="white"/>
</g>
<g filter="url(#filter4_d_216_611)">
<rect x="12" y="185.757" width="158" height="20" rx="4.64865" fill="white"/>
<rect x="12.2905" y="186.047" width="157.419" height="19.4189" rx="4.35811" stroke="#E5E7EB" stroke-width="0.581081"/>
<rect x="67.4658" y="193.432" width="30.7973" height="4.64865" rx="2.32432" fill="#26919A"/>
<path d="M104.849 195.757H112.596M112.596 195.757L109.691 192.851M112.596 195.757L109.691 198.662" stroke="#26919A" stroke-width="0.968468" stroke-linecap="round" stroke-linejoin="round"/>
</g>
<g filter="url(#filter5_d_216_611)">
<rect x="141" y="49" width="64" height="26" rx="4.20129" fill="white"/>
</g>
<path d="M144 55C144 53.3431 145.343 52 147 52H161C162.657 52 164 53.3431 164 55V69C164 70.6569 162.657 72 161 72H147C145.343 72 144 70.6569 144 69V55Z" fill="#D1D5DB"/>
<path d="M157.453 58.1118L155.561 59.2039L151.559 56.9399C151.014 56.5654 150.349 56.5262 149.856 56.8111L148.751 57.4488L152.563 60.9036L151.94 61.2631C151.787 61.3513 151.641 61.4513 151.502 61.5629L150.218 62.5397L148.671 62.0855L147.778 62.601L150.098 66.6196L151.003 66.0972L151.383 64.5305L152.859 63.913C153.025 63.8483 153.185 63.7719 153.338 63.6837L153.961 63.3241L155.041 68.3713L156.146 67.7336C156.663 67.4351 156.938 66.8533 156.886 66.1938L156.933 61.6079L158.825 60.5156C159.589 60.0747 160.475 58.8423 160.095 58.1843C159.715 57.5263 158.216 57.6708 157.453 58.1118Z" fill="white"/>
<rect x="182" y="53" width="19" height="18" rx="4" fill="#F3F4F6"/>
<path d="M191.244 63.3555C191.244 62.3421 190.671 61.7227 189.253 61.2496C188.241 60.8892 187.823 60.6528 187.823 60.2812C187.823 59.9658 188.073 59.6502 188.848 59.6502C189.308 59.6502 189.679 59.7245 189.973 59.8129C190.129 59.8596 190.299 59.8437 190.443 59.7682C190.587 59.6929 190.691 59.5654 190.732 59.4152L190.739 59.3917C190.789 59.2057 190.759 59.0084 190.654 58.8438C190.55 58.6793 190.38 58.5612 190.182 58.5159C189.916 58.4547 189.604 58.4106 189.236 58.392V57.7175C189.236 57.5486 189.092 57.4116 188.913 57.4116H188.265C188.087 57.4116 187.942 57.5486 187.942 57.7175V58.4856C186.713 58.7383 186 59.5008 186 60.4723C186 61.5649 186.87 62.1278 188.145 62.5335C189.027 62.8152 189.408 63.0856 189.408 63.5132C189.408 63.9641 188.943 64.2116 188.264 64.2116C187.778 64.2116 187.319 64.118 186.922 63.9846C186.755 63.9286 186.572 63.9412 186.416 64.0198C186.26 64.098 186.146 64.2348 186.102 64.3966L186.099 64.4064C185.993 64.7965 186.233 65.196 186.641 65.3113C187.028 65.4207 187.48 65.4972 187.942 65.5174V66.2824C187.942 66.4515 188.087 66.5883 188.266 66.5883H188.913C189.092 66.5883 189.237 66.4515 189.237 66.2824V65.4128C190.531 65.1586 191.244 64.3284 191.244 63.3558L191.244 63.3555Z" fill="#6B7280"/>
<path d="M197.25 63.3555C197.25 62.3421 196.678 61.7227 195.26 61.2496C194.247 60.8892 193.83 60.6528 193.83 60.2812C193.83 59.9658 194.08 59.6502 194.855 59.6502C195.315 59.6502 195.686 59.7245 195.98 59.8129C196.136 59.8596 196.306 59.8437 196.45 59.7682C196.593 59.6929 196.698 59.5654 196.739 59.4152L196.746 59.3917C196.796 59.2057 196.766 59.0084 196.661 58.8438C196.557 58.6793 196.387 58.5612 196.189 58.5159C195.923 58.4547 195.611 58.4106 195.243 58.392V57.7175C195.243 57.5486 195.099 57.4116 194.92 57.4116H194.272C194.094 57.4116 193.949 57.5486 193.949 57.7175V58.4856C192.719 58.7383 192.007 59.5008 192.007 60.4723C192.007 61.5649 192.877 62.1278 194.152 62.5335C195.034 62.8152 195.415 63.0856 195.415 63.5132C195.415 63.9641 194.95 64.2116 194.271 64.2116C193.784 64.2116 193.326 64.118 192.929 63.9846C192.762 63.9286 192.578 63.9412 192.422 64.0198C192.266 64.098 192.153 64.2348 192.109 64.3966L192.106 64.4064C192 64.7965 192.24 65.196 192.648 65.3113C193.034 65.4207 193.487 65.4972 193.949 65.5174V66.2824C193.949 66.4515 194.094 66.5883 194.272 66.5883H194.92C195.099 66.5883 195.243 66.4515 195.243 66.2824V65.4128C196.538 65.1586 197.251 64.3284 197.251 63.3558L197.25 63.3555Z" fill="#6B7280"/>
<g filter="url(#filter6_d_216_611)">
<rect x="133" y="29" width="80" height="26" rx="4.20129" fill="white"/>
</g>
<path d="M136 35C136 33.3431 137.343 32 139 32H153C154.657 32 156 33.3431 156 35V49C156 50.6569 154.657 52 153 52H139C137.343 52 136 50.6569 136 49V35Z" fill="#D1D5DB"/>
<path d="M149.453 38.1118L147.561 39.2039L143.559 36.9399C143.014 36.5654 142.349 36.5262 141.856 36.8111L140.751 37.4488L144.563 40.9036L143.94 41.2631C143.787 41.3513 143.641 41.4513 143.502 41.5629L142.218 42.5397L140.671 42.0855L139.778 42.601L142.098 46.6196L143.003 46.0972L143.383 44.5305L144.859 43.913C145.025 43.8483 145.185 43.7719 145.338 43.6837L145.961 43.3241L147.041 48.3713L148.146 47.7336C148.663 47.4351 148.938 46.8533 148.886 46.1938L148.933 41.6079L150.825 40.5156C151.589 40.0747 152.475 38.8423 152.095 38.1843C151.715 37.5263 150.216 37.6708 149.453 38.1118Z" fill="white"/>
<rect x="190" y="33" width="19" height="18" rx="4" fill="#F3F4F6"/>
<path d="M199.244 43.3555C199.244 42.3421 198.671 41.7227 197.253 41.2496C196.241 40.8892 195.823 40.6528 195.823 40.2812C195.823 39.9658 196.073 39.6502 196.848 39.6502C197.308 39.6502 197.679 39.7245 197.973 39.8129C198.129 39.8596 198.299 39.8437 198.443 39.7682C198.587 39.6929 198.691 39.5654 198.732 39.4152L198.739 39.3917C198.789 39.2057 198.759 39.0084 198.654 38.8438C198.55 38.6793 198.38 38.5612 198.182 38.5159C197.916 38.4547 197.604 38.4106 197.236 38.392V37.7175C197.236 37.5486 197.092 37.4116 196.913 37.4116H196.265C196.087 37.4116 195.942 37.5486 195.942 37.7175V38.4856C194.713 38.7383 194 39.5008 194 40.4723C194 41.5649 194.87 42.1278 196.145 42.5335C197.027 42.8152 197.408 43.0856 197.408 43.5132C197.408 43.9641 196.943 44.2116 196.264 44.2116C195.778 44.2116 195.319 44.118 194.922 43.9846C194.755 43.9286 194.572 43.9412 194.416 44.0198C194.26 44.098 194.146 44.2348 194.102 44.3966L194.099 44.4064C193.993 44.7965 194.233 45.196 194.641 45.3113C195.028 45.4207 195.48 45.4972 195.942 45.5174V46.2824C195.942 46.4515 196.087 46.5883 196.266 46.5883H196.913C197.092 46.5883 197.237 46.4515 197.237 46.2824V45.4128C198.531 45.1586 199.244 44.3284 199.244 43.3558L199.244 43.3555Z" fill="#6B7280"/>
<path d="M205.25 43.3555C205.25 42.3421 204.678 41.7227 203.26 41.2496C202.247 40.8892 201.83 40.6528 201.83 40.2812C201.83 39.9658 202.08 39.6502 202.855 39.6502C203.315 39.6502 203.686 39.7245 203.98 39.8129C204.136 39.8596 204.306 39.8437 204.45 39.7682C204.593 39.6929 204.698 39.5654 204.739 39.4152L204.746 39.3917C204.796 39.2057 204.766 39.0084 204.661 38.8438C204.557 38.6793 204.387 38.5612 204.189 38.5159C203.923 38.4547 203.611 38.4106 203.243 38.392V37.7175C203.243 37.5486 203.099 37.4116 202.92 37.4116H202.272C202.094 37.4116 201.949 37.5486 201.949 37.7175V38.4856C200.719 38.7383 200.007 39.5008 200.007 40.4723C200.007 41.5649 200.877 42.1278 202.152 42.5335C203.034 42.8152 203.415 43.0856 203.415 43.5132C203.415 43.9641 202.95 44.2116 202.271 44.2116C201.784 44.2116 201.326 44.118 200.929 43.9846C200.762 43.9286 200.578 43.9412 200.422 44.0198C200.266 44.098 200.153 44.2348 200.109 44.3966L200.106 44.4064C200 44.7965 200.24 45.196 200.648 45.3113C201.034 45.4207 201.487 45.4972 201.949 45.5174V46.2824C201.949 46.4515 202.094 46.5883 202.272 46.5883H202.92C203.099 46.5883 203.243 46.4515 203.243 46.2824V45.4128C204.538 45.1586 205.251 44.3284 205.251 43.3558L205.25 43.3555Z" fill="#6B7280"/>
<rect x="163" y="39" width="19" height="6" rx="3" fill="#E5E7EB"/>
<rect x="167" y="59" width="12" height="6" rx="3" fill="#E5E7EB"/>
<g filter="url(#filter7_d_216_611)">
<rect x="125" y="3" width="96" height="30" rx="4.20129" fill="white"/>
</g>
<rect x="194" y="7" width="22" height="22" rx="3.72822" fill="#F3F4F6"/>
<g clip-path="url(#clip0_216_611)">
<path d="M208.465 19.7892C208.465 18.4612 207.715 17.6495 205.857 17.0295C204.53 16.5572 203.983 16.2474 203.983 15.7604C203.983 15.3471 204.311 14.9335 205.326 14.9335C205.929 14.9335 206.415 15.0309 206.8 15.1467C207.005 15.208 207.228 15.1872 207.416 15.0882C207.604 14.9896 207.742 14.8224 207.795 14.6256L207.804 14.5948C207.87 14.3511 207.83 14.0926 207.693 13.8769C207.556 13.6612 207.333 13.5065 207.075 13.4471C206.726 13.3669 206.316 13.3091 205.835 13.2847V12.4008C205.835 12.1795 205.645 12 205.411 12H204.563C204.328 12 204.138 12.1795 204.138 12.4008V13.4074C202.528 13.7385 201.594 14.7378 201.594 16.0109C201.594 17.4427 202.734 18.1803 204.405 18.712C205.561 19.0812 206.06 19.4355 206.06 19.9959C206.06 20.5867 205.451 20.9111 204.561 20.9111C203.923 20.9111 203.323 20.7884 202.802 20.6136C202.583 20.5402 202.343 20.5567 202.138 20.6597C201.934 20.7622 201.785 20.9414 201.727 21.1535L201.723 21.1664C201.585 21.6775 201.899 22.201 202.434 22.3521C202.94 22.4955 203.534 22.5958 204.139 22.6222V23.6248C204.139 23.8464 204.329 24.0256 204.563 24.0256H205.411C205.645 24.0256 205.835 23.8464 205.835 23.6248V22.4851C207.532 22.152 208.466 21.0641 208.466 19.7895L208.465 19.7892Z" fill="#6B7280"/>
</g>
<rect x="168" y="7" width="22" height="22" rx="3.72822" fill="#F3F4F6"/>
<path d="M178.834 15.2755C176.109 15.2409 174.664 18.6554 176.626 20.5895V20.5893C177.211 21.1723 178.003 21.5 178.828 21.5013C179.654 21.5025 180.446 21.1771 181.032 20.5959C183.003 18.6631 181.562 15.2436 178.834 15.2758V15.2755ZM179.349 19.0216L178.072 19.8599C178.019 19.8972 177.955 19.9168 177.89 19.916C177.746 19.9123 177.621 19.8164 177.579 19.6781C177.538 19.5399 177.59 19.3908 177.709 19.3086L178.838 18.566L178.834 16.1632L178.834 16.1634C178.837 15.983 178.984 15.8383 179.164 15.8383C179.345 15.8383 179.492 15.983 179.494 16.1634L179.498 18.7444L179.498 18.7442C179.497 18.8558 179.442 18.9597 179.349 19.0216Z" fill="#6B7280"/>
<path d="M187.234 10.0969C187.168 10.028 187.074 9.99284 186.98 10.0012L181.629 10.3808C181.501 10.3917 181.39 10.4755 181.345 10.5962C181.3 10.7169 181.328 10.8528 181.418 10.9451L182.385 11.9123L181.025 13.2688C182.335 13.8364 183.38 14.8804 183.95 16.1897L185.303 14.8398L186.431 15.9718C186.524 16.0616 186.66 16.0899 186.78 16.0446C186.901 15.9995 186.985 15.8889 186.996 15.7605L187.332 10.3512C187.339 10.256 187.303 10.1628 187.234 10.0971L187.234 10.0969Z" fill="#6B7280"/>
<path d="M171.731 24.9348L174.927 21.7393M173.862 26L177.057 22.8045M170.666 22.8045L173.862 19.609" stroke="#6B7280" stroke-width="1.3" stroke-linecap="round"/>
<path d="M181.325 20.8871C180.66 21.5433 179.763 21.9107 178.828 21.9095C177.896 21.9083 177.001 21.5401 176.338 20.8845C173.174 17.4252 177.886 12.7299 181.335 15.9045C181.991 16.5673 182.359 17.4627 182.358 18.3956L181.325 20.8871ZM181.325 20.8871C181.985 20.2257 182.356 19.3299 182.358 18.3956L181.325 20.8871ZM183.611 15.6913C181.936 12.6095 177.479 11.9215 174.957 14.5056C171.494 17.9504 174.015 23.9047 178.834 23.8758C183.002 23.9165 185.679 19.2717 183.611 15.6913Z" fill="#6B7280" stroke="#F3F4F6" stroke-width="0.5"/>
<rect x="128" y="6" width="24" height="24" rx="3" fill="#402A83"/>
<path d="M141.546 19.5218L136.399 24.6558C135.953 25.1006 135.369 25.3221 134.785 25.3221C134.2 25.3221 133.614 25.1006 133.17 24.6558C132.277 23.7663 132.277 22.323 133.17 21.4353L136.701 17.9115L133.17 14.3896C132.277 13.5 132.277 12.0567 133.17 11.1672C134.06 10.2776 135.507 10.2776 136.399 11.1672L141.546 16.3012C142.436 17.1908 142.436 18.6322 141.546 19.5218ZM147.5 23.2035C147.5 24.4725 146.47 25.5 145.198 25.5C144.562 25.5 143.987 25.2422 143.57 24.8283C143.154 24.4126 142.895 23.8371 142.895 23.2035V12.8101C142.895 11.5412 143.927 10.5136 145.198 10.5136C145.833 10.5136 146.41 10.7696 146.827 11.1853C147.242 11.6011 147.5 12.1747 147.5 12.8101V23.2035Z" fill="white"/>
<defs>
<filter id="filter0_dd_216_611" x="54.5853" y="62.085" width="23.4612" height="23.4611" filterUnits="userSpaceOnUse" color-interpolation-filters="sRGB">
<feFlood flood-opacity="0" result="BackgroundImageFix"/>
<feColorMatrix in="SourceAlpha" type="matrix" values="0 0 0 0 0 0 0 0 0 0 0 0 0 0 0 0 0 0 127 0" result="hardAlpha"/>
<feOffset dy="0.617399"/>
<feGaussianBlur stdDeviation="0.617399"/>
<feColorMatrix type="matrix" values="0 0 0 0 0.0627451 0 0 0 0 0.0941176 0 0 0 0 0.156863 0 0 0 0.06 0"/>
<feBlend mode="normal" in2="BackgroundImageFix" result="effect1_dropShadow_216_611"/>
<feColorMatrix in="SourceAlpha" type="matrix" values="0 0 0 0 0 0 0 0 0 0 0 0 0 0 0 0 0 0 127 0" result="hardAlpha"/>
<feOffset dy="0.617399"/>
<feGaussianBlur stdDeviation="0.926098"/>
<feColorMatrix type="matrix" values="0 0 0 0 0.0627451 0 0 0 0 0.0941176 0 0 0 0 0.156863 0 0 0 0.1 0"/>
<feBlend mode="normal" in2="effect1_dropShadow_216_611" result="effect2_dropShadow_216_611"/>
<feBlend mode="normal" in="SourceGraphic" in2="effect2_dropShadow_216_611" result="shape"/>
</filter>
<filter id="filter1_d_216_611" x="10.8378" y="96.1756" width="160.324" height="21.3243" filterUnits="userSpaceOnUse" color-interpolation-filters="sRGB">
<feFlood flood-opacity="0" result="BackgroundImageFix"/>
<feColorMatrix in="SourceAlpha" type="matrix" values="0 0 0 0 0 0 0 0 0 0 0 0 0 0 0 0 0 0 127 0" result="hardAlpha"/>
<feOffset dy="0.581081"/>
<feGaussianBlur stdDeviation="0.581081"/>
<feColorMatrix type="matrix" values="0 0 0 0 0.0627451 0 0 0 0 0.0941176 0 0 0 0 0.156863 0 0 0 0.05 0"/>
<feBlend mode="normal" in2="BackgroundImageFix" result="effect1_dropShadow_216_611"/>
<feBlend mode="normal" in="SourceGraphic" in2="effect1_dropShadow_216_611" result="shape"/>
</filter>
<filter id="filter2_d_216_611" x="10.8378" y="125.176" width="160.324" height="22.3243" filterUnits="userSpaceOnUse" color-interpolation-filters="sRGB">
<feFlood flood-opacity="0" result="BackgroundImageFix"/>
<feColorMatrix in="SourceAlpha" type="matrix" values="0 0 0 0 0 0 0 0 0 0 0 0 0 0 0 0 0 0 127 0" result="hardAlpha"/>
<feOffset dy="0.581081"/>
<feGaussianBlur stdDeviation="0.581081"/>
<feColorMatrix type="matrix" values="0 0 0 0 0.0627451 0 0 0 0 0.0941176 0 0 0 0 0.156863 0 0 0 0.05 0"/>
<feBlend mode="normal" in2="BackgroundImageFix" result="effect1_dropShadow_216_611"/>
<feBlend mode="normal" in="SourceGraphic" in2="effect1_dropShadow_216_611" result="shape"/>
</filter>
<filter id="filter3_d_216_611" x="10.8378" y="159.176" width="160.324" height="22.3243" filterUnits="userSpaceOnUse" color-interpolation-filters="sRGB">
<feFlood flood-opacity="0" result="BackgroundImageFix"/>
<feColorMatrix in="SourceAlpha" type="matrix" values="0 0 0 0 0 0 0 0 0 0 0 0 0 0 0 0 0 0 127 0" result="hardAlpha"/>
<feOffset dy="0.581081"/>
<feGaussianBlur stdDeviation="0.581081"/>
<feColorMatrix type="matrix" values="0 0 0 0 0.0627451 0 0 0 0 0.0941176 0 0 0 0 0.156863 0 0 0 0.05 0"/>
<feBlend mode="normal" in2="BackgroundImageFix" result="effect1_dropShadow_216_611"/>
<feBlend mode="normal" in="SourceGraphic" in2="effect1_dropShadow_216_611" result="shape"/>
</filter>
<filter id="filter4_d_216_611" x="10.8378" y="185.176" width="160.324" height="22.3243" filterUnits="userSpaceOnUse" color-interpolation-filters="sRGB">
<feFlood flood-opacity="0" result="BackgroundImageFix"/>
<feColorMatrix in="SourceAlpha" type="matrix" values="0 0 0 0 0 0 0 0 0 0 0 0 0 0 0 0 0 0 127 0" result="hardAlpha"/>
<feOffset dy="0.581081"/>
<feGaussianBlur stdDeviation="0.581081"/>
<feColorMatrix type="matrix" values="0 0 0 0 0.0627451 0 0 0 0 0.0941176 0 0 0 0 0.156863 0 0 0 0.05 0"/>
<feBlend mode="normal" in2="BackgroundImageFix" result="effect1_dropShadow_216_611"/>
<feBlend mode="normal" in="SourceGraphic" in2="effect1_dropShadow_216_611" result="shape"/>
</filter>
<filter id="filter5_d_216_611" x="137.95" y="48.2374" width="70.1007" height="32.1007" filterUnits="userSpaceOnUse" color-interpolation-filters="sRGB">
<feFlood flood-opacity="0" result="BackgroundImageFix"/>
<feColorMatrix in="SourceAlpha" type="matrix" values="0 0 0 0 0 0 0 0 0 0 0 0 0 0 0 0 0 0 127 0" result="hardAlpha"/>
<feOffset dy="2.28777"/>
<feGaussianBlur stdDeviation="1.52518"/>
<feComposite in2="hardAlpha" operator="out"/>
<feColorMatrix type="matrix" values="0 0 0 0 0.639216 0 0 0 0 0.67451 0 0 0 0 0.745098 0 0 0 0.14 0"/>
<feBlend mode="normal" in2="BackgroundImageFix" result="effect1_dropShadow_216_611"/>
<feBlend mode="normal" in="SourceGraphic" in2="effect1_dropShadow_216_611" result="shape"/>
</filter>
<filter id="filter6_d_216_611" x="130" y="28" width="86" height="32" filterUnits="userSpaceOnUse" color-interpolation-filters="sRGB">
<feFlood flood-opacity="0" result="BackgroundImageFix"/>
<feColorMatrix in="SourceAlpha" type="matrix" values="0 0 0 0 0 0 0 0 0 0 0 0 0 0 0 0 0 0 127 0" result="hardAlpha"/>
<feOffset dy="2"/>
<feGaussianBlur stdDeviation="1.5"/>
<feComposite in2="hardAlpha" operator="out"/>
<feColorMatrix type="matrix" values="0 0 0 0 0.639216 0 0 0 0 0.67451 0 0 0 0 0.745098 0 0 0 0.2 0"/>
<feBlend mode="normal" in2="BackgroundImageFix" result="effect1_dropShadow_216_611"/>
<feBlend mode="normal" in="SourceGraphic" in2="effect1_dropShadow_216_611" result="shape"/>
</filter>
<filter id="filter7_d_216_611" x="120" y="0.28777" width="106" height="40" filterUnits="userSpaceOnUse" color-interpolation-filters="sRGB">
<feFlood flood-opacity="0" result="BackgroundImageFix"/>
<feColorMatrix in="SourceAlpha" type="matrix" values="0 0 0 0 0 0 0 0 0 0 0 0 0 0 0 0 0 0 127 0" result="hardAlpha"/>
<feOffset dy="2.28777"/>
<feGaussianBlur stdDeviation="2.5"/>
<feComposite in2="hardAlpha" operator="out"/>
<feColorMatrix type="matrix" values="0 0 0 0 0.639216 0 0 0 0 0.67451 0 0 0 0 0.745098 0 0 0 0.16 0"/>
<feBlend mode="normal" in2="BackgroundImageFix" result="effect1_dropShadow_216_611"/>
<feBlend mode="normal" in="SourceGraphic" in2="effect1_dropShadow_216_611" result="shape"/>
</filter>
<clipPath id="clip0_216_611">
<rect width="19.0647" height="12.2014" fill="white" transform="translate(195.468 11.8993)"/>
</clipPath>
</defs>
</svg>
