<svg width="170" height="114" viewBox="0 0 170 114" fill="none" xmlns="http://www.w3.org/2000/svg">
<g clip-path="url(#clip0_168_745)">
<path d="M26.2137 54.2047C26.2137 54.2047 24.8261 53.5933 24.2161 53.5373C23.6061 53.4813 23.7178 53.3134 22.8844 53.0378C22.051 52.7579 22.8844 53.1497 22.8844 51.8708C22.8844 50.5919 23.662 51.7029 22.7727 50.2044C21.8835 48.7059 22.1069 49.0934 21.6644 48.426C21.2219 47.7585 20.1694 48.8695 20.9985 47.427C21.8319 45.9801 22.0639 46.428 22.2229 45.317C22.3818 44.206 23.3913 45.373 22.2229 43.7065C21.0544 42.0401 21.1102 42.3717 21.0544 42.0401C20.9985 41.7085 20.0449 41.9841 20.6892 40.6492C21.3336 39.3143 20.7794 40.0937 21.6085 39.1507C22.4419 38.2077 22.051 38.4833 22.661 37.9838C23.271 37.4843 22.7942 38.6512 23.3355 37.1484C23.8811 35.6499 24.1001 35.4819 23.8811 35.314C23.6577 35.1461 23.8467 35.8135 23.3355 35.314C22.8243 34.8145 22.2701 35.9255 22.8243 34.8145C23.3784 33.7035 23.3226 33.9231 23.6577 33.5356C23.9884 33.1481 23.8467 33.0361 23.3355 32.8682C22.8243 32.7002 22.6052 32.9801 22.4935 32.4806C22.3818 31.9811 21.7288 32.5366 22.2229 31.2577C22.7169 29.9788 22.4935 29.9788 22.936 29.4233C23.3784 28.8678 22.936 29.4233 23.6577 28.7559C24.3794 28.0884 24.9894 27.5329 24.9894 27.5329C24.9894 27.5329 24.8949 27.0334 24.4997 26.254C24.1044 25.4746 23.8811 25.4187 23.8811 25.1991V24.4756C23.8811 24.4756 24.1044 24.4197 23.8811 24.1957C23.6577 23.9718 22.2229 23.1235 22.2229 23.1235L0.760742 44.3008C0.760742 44.3008 1.08293 44.4945 1.27625 44.6625C1.46956 44.8304 1.69294 44.8003 2.16119 45.106C2.62944 45.4117 2.35451 45.218 2.90867 45.2739C3.46284 45.3299 3.12776 45.3558 3.54446 45.9371C3.95686 46.5184 3.46284 46.105 3.18361 46.5744C3.13635 46.6562 3.09769 46.7165 3.06762 46.7681C9.71331 50.4283 19.4391 54.209 25.84 56.5472C25.84 56.5472 25.3245 54.8722 26.2094 54.209L26.2137 54.2047Z" fill="#9CA3AF"/>
<path d="M42.1288 53.5159C41.4371 53.2317 40.7756 51.9226 41.2997 53.1585C41.8238 54.39 42.1288 54.6225 42.5154 55.1091C42.8977 55.5957 43.1297 55.6646 42.975 55.8756C42.8204 56.0866 43.1813 56.2631 42.4896 56.2373C41.798 56.2115 42.2061 56.1598 41.5918 56.2373C40.9775 56.3148 41.7207 55.4924 40.8228 56.3148C39.925 57.1373 40.2601 57.4172 39.7961 57.1114C39.3365 56.8014 38.7436 56.754 38.7436 56.754L38.2324 57.2148C38.6921 57.7014 38.7436 57.9081 39.1818 58.1664C39.6157 58.4248 39.1818 58.7305 40.2558 58.6272C41.334 58.5238 40.4877 58.343 41.334 58.5238C42.1803 58.7047 41.871 58.7391 42.3607 58.8511C42.8462 58.963 43.6409 59.3807 43.7698 58.8511C43.8987 58.3214 43.3875 58.1147 44.1521 57.8564C44.9211 57.598 44.7149 57.5722 45.1788 57.6497C45.6385 57.7272 45.1788 58.4463 46.1024 57.5722C47.026 56.698 46.4375 56.5689 47.2537 56.4182C48.0742 56.2631 47.5373 56.3406 48.405 56.2631C49.2771 56.1856 48.2504 56.6981 49.7367 56.2631C51.2231 55.8282 51.2231 56.134 51.6054 55.7249C51.9878 55.3158 52.0608 55.2125 52.0608 55.2125C52.0608 55.2125 53.4269 54.7259 51.3477 55.0316C49.2728 55.3416 49.6723 55.544 48.8947 55.4923C48.1172 55.4407 48.0442 55.0574 47.6575 55.3115C47.2752 55.5699 47.7091 55.5699 47.1206 55.6947C46.532 55.8239 46.9144 56.0306 46.3516 55.7981C45.7888 55.5656 45.9907 55.3115 45.4795 55.5397C44.9683 55.7722 45.1702 56.2847 44.8395 55.8498C44.5044 55.4148 44.2767 54.7948 44.0447 54.7216C43.8127 54.6441 43.5593 54.7732 43.3273 54.5665C43.0953 54.3599 42.8161 53.7958 42.1245 53.5116L42.1288 53.5159Z" fill="#D1D5DB"/>
<path d="M61.9154 21.3497C61.9756 21.3884 62.0701 21.4401 62.2204 21.5176C62.9121 21.8793 61.8338 21.8492 63.2171 21.8793C64.6003 21.9052 64.102 22.5726 64.7421 21.8793C65.3779 21.186 65.408 22.0731 65.5712 20.8803C65.7387 19.6875 66.2929 20.0665 65.7087 19.5411C65.1287 19.0201 65.3135 18.9641 65.0256 18.934C64.7378 18.9081 65.6528 19.4593 64.7378 18.9081C63.8228 18.3527 63.4448 18.8522 63.6209 18.0771C63.797 17.302 64.4156 17.246 64.0634 16.6604C63.7111 16.079 64.682 15.2437 63.7111 16.0791C62.7402 16.9101 62.418 16.8584 62.2204 17.4096C62.0228 17.9651 62.0572 17.8833 62.2204 18.3828C62.3293 18.7158 62.4195 19.0301 62.4911 19.3258C62.6028 19.7693 62.6028 19.7823 62.4352 19.9717C62.2677 20.1612 61.9369 20.299 61.9369 20.299V21.298C61.9369 21.298 61.9283 21.3195 61.9111 21.354L61.9154 21.3497Z" fill="#D1D5DB"/>
<path d="M66.4946 37.4284C67.4698 37.2562 68.1614 38.1777 67.7576 36.9117C67.3538 35.6457 67.9294 35.9342 67.3538 35.6457C66.7781 35.3572 68.1571 36.2787 66.7781 35.3572C65.3992 34.4357 65.1113 34.9525 64.7677 34.0912C64.424 33.23 64.4799 34.0353 64.3639 32.7693C64.2479 31.5033 64.1534 32.0803 64.0589 31.2148C63.9643 30.3493 63.8999 30.6981 63.8741 29.9488C63.8484 29.1995 63.6937 28.9627 64.0589 28.4761C64.424 27.9938 63.9085 29.1436 64.424 27.9939C64.9395 26.8441 64.9997 25.9786 64.5958 25.7504C64.192 25.5222 64.3596 24.9753 63.8741 25.2767C63.3887 25.5781 62.9419 25.4619 62.8217 25.9829C62.7014 26.4996 62.5295 26.9604 62.5295 26.9604C62.5295 26.9604 62.551 26.7236 61.9367 26.4394C61.3224 26.1552 61.4942 25.6384 61.3224 26.1552C61.1506 26.6719 60.9186 26.3834 61.1506 27.4211C61.3782 28.4589 61.3782 28.1101 61.3782 28.9153C61.3782 29.7206 61.8937 29.9144 61.4942 30.3622C61.0904 30.8143 61.8379 31.0985 61.0904 30.8143C60.3429 30.5258 60.2313 30.8359 60.2313 30.3622C60.2313 29.8885 60.6265 30.0651 60.5148 29.1995C60.4031 28.3383 60.9701 27.9336 60.5148 27.7053C60.0594 27.4771 60.0594 27.2446 59.7157 26.9561C59.3721 26.6676 58.3969 26.4351 58.3969 26.4351C58.3969 26.4351 59.1874 28.0671 59.0585 28.5106L57.0094 35.4476L47.8721 33.1697L48.3532 35.0084C48.3532 35.0084 48.2759 35.0773 48.7742 35.4433C49.2725 35.8137 49.0405 35.9256 49.5603 36.1582C50.0758 36.3864 49.904 36.2744 50.4797 36.4467L51.0553 36.6189C51.0553 36.6189 50.8835 36.7911 51.0553 37.1959C51.2271 37.6007 50.368 37.3682 51.0553 37.8289C51.7426 38.2897 50.0329 38.3456 52.0648 38.4619C54.0968 38.5782 53.3922 38.3456 54.6337 38.4619C55.8753 38.5782 54.7283 38.4145 56.1631 38.4963C57.5979 38.5782 56.3349 39.0389 57.5979 38.5782C58.8609 38.1174 57.7697 38.8064 59.0628 38.1174C60.3558 37.4284 60.5234 37.1399 60.5234 37.1399L60.9873 37.4284C60.9873 37.4284 60.7596 37.9452 61.5028 38.3499C62.2503 38.7547 62.2503 38.4102 62.5381 38.7805C62.826 39.1552 62.4221 39.2714 63.4574 39.4997C64.4927 39.7279 64.2608 39.9906 65.0641 39.8312C65.8674 39.6719 65.5238 40.0379 66.2111 39.7666C66.8984 39.4997 66.3829 38.6341 66.2111 38.3456C66.0393 38.0571 66.9586 38.5782 66.0392 38.0571L65.1199 37.5404C65.1199 37.5404 64.8923 36.8514 65.6956 37.1356C66.4989 37.4241 65.5238 37.5964 66.4989 37.4241L66.4946 37.4284Z" fill="#D1D5DB"/>
<path d="M69.9748 39.6374C69.8545 39.4953 69.7686 39.3877 69.7686 39.3877C69.7686 39.3877 69.8631 39.6504 69.9748 39.6374Z" fill="#D1D5DB"/>
<path d="M57.4817 42.6646C57.4216 42.6646 57.4259 42.7679 57.4688 42.9229C57.4989 42.811 57.529 42.6646 57.4817 42.6646Z" fill="#D1D5DB"/>
<path d="M42.1332 38.4661C42.6144 39.2412 41.7638 38.4618 42.9838 39.8312C44.2038 41.2048 43.2802 40.8689 44.8654 42.1306C46.4549 43.388 47.0047 43.1296 47.1895 44.0167C47.3742 44.9037 46.674 44.7185 47.705 45.6443C48.7403 46.5702 46.9661 46.7725 49.1827 46.7639C51.3994 46.7553 51.2877 46.329 51.5841 46.7639C51.8805 47.1988 51.4724 47.0524 51.9922 47.6079C52.5077 48.1634 53.6891 49.494 54.1702 49.6791C54.6514 49.8643 64.0636 52.5297 64.0636 52.5297L62.8264 64.3714C65.1505 65.0389 75.3961 64.9829 75.3961 64.9829C75.4176 63.2088 75.8514 63.0365 76.0791 62.3476C76.3068 61.6586 76.5388 62.2916 76.8266 61.8309C77.1144 61.3701 76.9426 61.2538 77.1703 60.4486C77.3979 59.6434 77.5139 60.1041 78.7211 59.1826C79.9282 58.2611 78.7211 59.1826 78.7211 58.2611C78.7211 57.3396 78.7769 57.8004 79.4686 57.4559C80.1559 57.1114 79.4685 57.4559 80.4437 57.1674C81.4189 56.8789 81.3029 56.8229 81.8785 56.3062C81.943 56.2459 81.9988 56.2028 82.0461 56.1641C81.6508 55.8497 80.7015 55.1048 80.3836 54.9239C79.9798 54.6957 80.3836 54.9239 81.1869 54.8077C81.9902 54.6914 82.2222 54.2306 82.3339 53.5158C82.4499 52.801 82.6217 53.2532 83.2532 53.4254C83.8847 53.5977 83.541 53.5417 84.1124 53.0809C84.688 52.6202 84.1124 53.0809 85.2594 52.2197C86.4064 51.3585 85.2594 52.2197 85.6932 51.5307C86.1271 50.8418 85.7792 50.7815 85.6932 50.437C85.6073 50.0925 85.0317 50.5533 83.9405 50.437C82.8494 50.3207 83.3649 50.381 82.6217 49.804C81.8742 49.227 82.0461 48.9988 81.8184 48.1935C81.5907 47.3883 82.1621 47.9653 83.1372 47.9653C84.1124 47.9653 83.5969 48.2538 84.2284 48.5423C84.8599 48.8308 84.3443 48.8308 85.1477 49.3476C85.951 49.8643 85.5515 49.2313 86.183 48.6586C86.8145 48.0816 86.5825 48.1419 86.9863 47.6811C87.3901 47.2204 87.1023 46.4711 87.33 46.1869C87.5576 45.8984 87.446 45.7821 87.8455 45.4377C88.2493 45.0932 87.8455 45.4377 88.0732 45.4118C88.3008 45.386 88.3008 46.0707 89.392 46.8199C90.4831 47.5692 89.9075 46.5917 90.0793 46.4151C90.2512 46.2429 89.4478 44.8047 89.8516 44.8606C90.2555 44.9166 89.8516 44.8606 90.2555 44.9769C90.6593 45.0932 90.6593 45.3817 91.3466 45.9544C92.0339 46.5314 91.3466 45.9544 91.9781 44.4602C92.6096 42.966 92.3218 43.8832 92.6096 43.3105C92.8974 42.7334 92.8974 42.966 92.6096 41.8722C92.3218 40.7785 92.6096 41.8722 92.137 41.4115C91.6645 40.9507 91.6344 40.8345 91.9222 40.434C92.2101 40.0292 92.2101 40.0895 91.9222 39.3962C91.6344 38.7073 91.2349 38.9355 91.0631 38.1862C90.8912 37.437 90.9471 37.8418 90.4874 36.8643C90.0278 35.8868 90.1438 36.8643 89.2244 36.748C88.3051 36.6318 88.7089 36.6318 87.214 36.692C85.719 36.748 87.33 37.4413 87.7295 38.014C88.1333 38.591 87.8455 38.703 87.7295 39.5082C87.6135 40.3134 86.8102 39.6804 86.0068 40.4857C85.2035 41.2909 86.0068 41.2909 85.6932 42.9617C85.3796 44.6324 85.6073 43.5947 85.3195 43.8832C85.0317 44.1717 84.572 43.8272 84.0007 43.2502C83.425 42.6732 84.0007 43.2502 83.3692 42.6732C82.7377 42.0961 83.425 41.6957 83.7129 40.8904C84.0007 40.0852 83.9405 40.2575 83.7129 39.7795C83.4852 39.3015 83.1973 38.7633 82.4499 38.1862C81.7024 37.6092 81.3587 40.1412 80.7831 41.6957C80.2074 43.2502 80.7831 41.6957 80.1043 40.3134C79.4256 38.9312 79.6919 39.8527 79.0046 39.3919C78.3173 38.9312 79.0046 39.3919 79.8638 37.5489C80.7229 35.7059 79.1206 37.2604 77.9134 36.5715C76.7063 35.8825 77.5698 36.3992 77.166 35.4562C76.7622 34.5132 77.3378 34.7888 77.4538 33.9275C77.5698 33.0663 77.2261 33.2386 76.8782 32.3171C76.5345 31.3956 76.5903 31.9123 76.3025 31.3396C76.0147 30.7626 76.818 30.9348 76.7063 30.3707C76.5903 29.8066 76.4185 29.6688 76.5345 29.4406C76.6505 29.2124 77.1101 29.2684 77.6256 28.8636C78.1411 28.4588 78.0853 28.5191 79.1764 27.9421C80.2676 27.3651 79.5802 26.9043 79.8079 25.281C80.0356 23.6576 79.5201 25.4661 78.6008 25.281C77.6815 25.0958 78.197 25.3542 77.3378 25.281C76.4786 25.2078 76.9941 25.2939 76.019 25.4661C75.0438 25.6384 75.9588 25.8106 75.2114 26.3876C74.4639 26.9646 75.2113 26.3876 73.8925 27.9981C72.5737 29.6086 74.0085 28.5148 74.3522 29.7808C74.6959 31.0468 74.5799 30.5301 74.756 31.6238C74.9278 32.7175 74.756 31.6238 74.3522 32.3731C73.9484 33.1223 74.0644 32.6013 73.5489 33.5529C73.0334 34.5046 73.4329 33.8673 73.6648 34.0998C73.8968 34.328 73.9527 34.328 73.609 35.0213C73.2653 35.7103 73.3212 35.4261 73.6648 36.9203C74.0085 38.4145 73.6648 36.9203 74.1803 37.1485C74.6958 37.3767 74.4682 37.3767 75.2715 38.126C76.0748 38.8752 75.3273 38.6427 75.787 39.7752C76.2467 40.9077 75.903 40.0249 75.787 41.4632C75.671 42.9014 75.787 41.4632 75.3875 42.2124C74.9837 42.9617 75.0438 42.2684 74.2963 42.6689C73.5489 43.0693 74.3522 43.3621 74.1202 44.2836C73.8839 45.2051 73.6648 44.6281 73.1064 44.3396C72.5479 44.0511 73.2095 44.0511 73.1064 42.9574C73.0033 41.8636 73.2095 42.2684 73.1064 41.7474C73.0033 41.2306 72.9217 41.2306 73.1064 40.8861C73.2911 40.5417 73.841 40.4814 74.0687 40.0809C74.2963 39.6761 73.725 39.5642 73.1064 39.0431C72.4878 38.5264 72.6897 38.8149 72.1742 37.8331C71.6587 36.8557 71.7704 37.2002 71.199 36.6231C70.6234 36.0461 70.3957 37.1399 70.3957 37.1399C70.3957 37.1399 70.3957 37.6566 70.2239 38.9226C70.1508 39.4651 70.0563 39.6288 69.9704 39.6374C70.1165 39.8096 70.3227 40.0335 70.5117 40.1886C70.8554 40.4771 70.7394 40.4771 71.0272 41.166C71.315 41.855 71.0272 41.166 70.6277 41.166C70.2282 41.166 70.6277 42.0273 70.6277 42.0273H71.2592C71.8907 42.0273 71.2592 42.0273 71.4868 42.9487C71.7145 43.8702 71.315 43.2373 70.6835 43.5387C70.052 43.8401 70.4558 43.5258 69.1327 42.6602C67.8139 41.7947 68.789 42.432 67.8697 42.6602C67.5518 42.7378 67.423 42.798 67.3714 42.8282C67.3843 42.798 67.38 42.7464 67.2941 42.6602C67.0063 42.3717 66.8344 42.7205 65.2278 42.1435C63.6211 41.5665 64.94 42.0875 63.5051 41.7387C62.0703 41.3943 63.5051 41.7387 62.3581 40.8172C61.2112 39.8957 62.2422 40.5287 61.9372 39.3833C61.6321 38.2336 61.2069 39.4953 60.0599 39.8269C58.9129 40.1584 59.3124 39.9001 58.3974 39.7623C57.4781 39.6288 58.3372 40.068 57.8776 40.5287C57.4179 40.9895 57.8776 40.5287 58.0494 41.39C58.2212 42.2512 57.9334 41.7947 57.5897 42.6559C57.5339 42.7937 57.4995 42.8842 57.4738 42.9444C57.521 43.0909 57.5983 43.276 57.7057 43.4655C57.9334 43.8702 57.5897 43.7497 56.9583 44.7874C56.3268 45.8252 56.9583 44.7874 56.6146 44.0985C56.2709 43.4095 56.6146 44.0985 55.8671 42.6559C55.1196 41.2134 55.8671 42.1392 56.3268 41.334C56.7864 40.5287 56.3826 40.9292 55.9229 40.4125C55.4633 39.8957 55.923 40.4125 54.8533 40.7914C53.7836 41.1703 54.2605 40.9335 52.8815 40.701C51.5025 40.4728 52.5378 40.9895 51.1588 40.701C49.7799 40.4125 50.755 40.5847 49.2085 40.124C47.6577 39.6632 48.9207 39.8355 48.5212 39.2025C48.1174 38.5695 48.6372 38.7977 48.8949 38.6513C49.1527 38.5049 49.1527 38.5092 50.1278 38.6255C51.103 38.7417 50.072 38.4532 50.1278 38.1647C50.1837 37.8762 49.9002 37.9925 49.2687 37.1269C48.6372 36.2657 49.2687 37.1269 48.7703 36.6662C48.272 36.2055 48.3494 36.7825 48.3494 36.7825L47.8338 36.8987C47.3183 37.015 47.8339 36.8987 46.8587 36.438C45.8835 35.9772 46.5709 36.1495 46.1714 35.861C45.7675 35.5725 45.8277 35.4562 45.368 34.9998C44.9084 34.539 45.368 34.6553 45.368 34.6553L43.886 33.5314C43.8258 33.652 41.5061 37.1571 41.5404 37.4542C41.5791 37.7513 41.6521 37.6781 42.1332 38.4532V38.4661Z" fill="#D1D5DB"/>
<path d="M57.4775 42.9574C57.4775 42.9574 57.4689 42.9359 57.4689 42.9272C57.4389 43.0435 57.4131 43.121 57.4775 42.9574Z" fill="#D1D5DB"/>
<path d="M82.0508 56.1641C82.1582 56.2502 82.2269 56.3062 82.2269 56.3062C82.2269 56.3062 82.4073 55.9014 82.0508 56.1641Z" fill="#D1D5DB"/>
<path d="M67.5858 30.1297C68.823 30.9909 68.823 30.2288 69.1624 31.1847C69.5018 32.1406 67.8822 32.2698 69.6478 32.3344C71.4134 32.399 71.0053 32.9846 71.5251 32.3344C72.0449 31.6842 71.2674 31.9942 72.0449 31.6842C72.8225 31.3742 72.8869 32.7693 72.9342 31.1632C72.9814 29.557 73.6602 30.0091 72.9342 29.3288C72.2082 28.6484 72.0922 28.713 71.9977 28.4547C71.8989 28.1963 71.6884 28.4374 71.8989 28.0499C72.1094 27.6623 71.8989 28.1317 72.3542 27.3997C72.8053 26.6676 73.0502 26.8313 72.8869 26.1983C72.7237 25.5653 73.5012 25.3887 72.5304 25.5179C71.5595 25.6471 71.6712 25.4189 71.4134 25.7461C71.1557 26.0691 70.4082 25.5351 70.1204 25.4792C69.8283 25.4232 69.8283 25.2768 69.3772 25.5653C68.9261 25.8538 68.488 25.7418 68.8445 26.2456C69.2011 26.7495 69.1023 26.392 69.2999 26.8614C69.4932 27.3308 69.738 27.1198 69.476 27.6236C69.2182 28.1274 68.8273 28.3858 68.8273 28.3858C68.2946 28.5494 68.7629 29.1824 68.1486 28.5623C67.5343 27.9465 67.7748 28.0284 67.5343 27.9465C67.2894 27.8647 67.1476 27.6064 66.9028 28.0585C66.6622 28.5106 65.9491 27.7614 66.6622 28.825C67.3753 29.8929 66.3529 29.2599 67.5944 30.1168L67.5858 30.1297Z" fill="#D1D5DB"/>
<path d="M69.6646 18.2837C68.7496 18.2665 69.2221 18.5162 68.5563 18.4904C67.8904 18.4645 68.2255 18.4 67.5854 17.9866C66.9496 17.5732 67.2804 16.7421 66.9496 17.5732C66.6188 18.4043 67.1171 20.2128 67.4479 20.2817C67.7787 20.3506 67.13 19.7951 67.8689 20.2817C68.6078 20.7683 68.4703 20.7941 68.9128 20.8759C69.3553 20.9578 69.8021 21.0697 69.8021 21.0697C69.5787 21.5434 68.3329 21.4788 69.5529 22.1893C70.7729 22.8998 69.8579 23.0419 70.9362 23.0118C72.0144 22.9859 71.6278 23.7868 72.0144 22.9859C72.4011 22.1807 72.4311 22.7103 72.4011 22.1807C72.3753 21.6553 72.0273 23.1539 72.4096 21.3496C72.7877 19.5454 73.2044 19.7865 72.5944 18.9597C71.9844 18.133 72.8178 17.965 71.8469 17.9909C70.876 18.0167 71.2369 17.9909 70.6011 18.1287C69.9653 18.2665 70.5753 18.3009 69.6603 18.2837H69.6646Z" fill="#D1D5DB"/>
<path d="M67.3402 16.5096C67.1169 15.2436 66.9278 14.5503 66.8419 14.4642C66.756 14.3824 66.9235 13.5212 66.756 14.3824C66.5885 15.2436 66.6486 15.4847 66.8419 15.7259C67.0352 15.967 67.3402 16.5096 67.3402 16.5096Z" fill="#D1D5DB"/>
<path d="M67.7277 13.2455C68.531 13.2714 68.3076 13.4694 68.7802 13.1896C69.2527 12.914 68.7243 12.4661 69.2527 12.914C69.7811 13.3618 69.751 12.9958 69.7811 13.3575C69.8069 13.7192 70.2536 13.745 70.2536 13.745C70.142 13.8268 69.837 14.0206 69.6737 14.1627C69.5062 14.3005 69.4804 13.6374 69.5062 14.3005C69.5319 14.968 69.0379 15.3297 69.8112 15.1058C70.5844 14.8818 70.1162 14.9421 70.6961 14.8732C71.2761 14.8 71.7486 16.3545 71.5252 14.6622C71.3018 12.9699 71.3878 13.0647 71.3018 12.7676C71.2202 12.4704 71.7185 12.5824 70.9968 12.1087C70.2751 11.6351 70.172 11.7212 69.8799 11.3035C69.5878 10.8858 69.7811 10.9159 69.2527 10.3605C68.7243 9.80498 68.4494 9.27964 68.1444 9.63705C67.8394 9.99876 67.5644 9.63705 67.7019 10.4983C67.8394 11.3595 67.8394 11.1356 68.0628 11.4973C68.2861 11.859 68.4795 11.6351 68.4236 11.9968C68.3678 12.3585 68.299 12.3843 67.878 12.4704C67.457 12.5523 67.4012 11.9968 67.457 12.5523C67.5129 13.1077 66.933 13.2197 67.732 13.2455H67.7277Z" fill="#D1D5DB"/>
<path d="M73.3769 14.0035C73.6819 14.1327 72.4618 14.0767 73.0461 14.5504C73.626 15.024 73.8494 14.6322 73.8752 15.1317C73.9009 15.6312 72.6852 15.6226 74.0427 15.7259C75.4002 15.8293 75.121 15.5666 75.731 15.7259C76.341 15.8852 76.5042 15.6872 76.341 15.2566C76.1735 14.8259 76.2594 14.9982 75.9544 14.869C75.6494 14.7398 75.9801 14.658 75.5119 14.6882C75.0394 14.714 75.3186 15.6613 75.0393 14.714C74.7644 13.771 74.6527 14.0767 74.7644 13.6332C74.8761 13.1896 75.3186 13.2413 74.7902 12.8968C74.2661 12.5523 74.2919 12.7461 73.9869 12.4662C73.6819 12.1906 73.9611 12.3543 73.4628 12.0787C72.9644 11.8031 72.9344 11.4414 72.8098 11.605C72.6852 11.7729 72.6852 11.8806 72.6852 12.1347C72.6852 12.3887 72.4618 12.2294 72.6852 12.7676C72.9086 13.3016 72.4919 13.6246 73.3769 14.0035Z" fill="#D1D5DB"/>
<path d="M74.2105 10.6361C76.9814 10.5801 77.2563 10.3863 77.1747 10.5801C77.0931 10.7739 77.1017 10.3863 76.4057 10.9418C75.7098 11.4973 75.6797 11.4155 75.9289 12.0528C76.178 12.6901 75.4048 12.1648 76.2897 13.0518C77.1747 13.9389 76.1222 13.8011 77.1747 13.9389C78.2272 14.0766 78.283 14.8819 78.863 13.8011C79.4429 12.7202 77.8105 13.6159 79.5288 12.4877C81.2472 11.3595 81.4405 11.1141 81.4405 11.1141C81.4405 11.1141 82.4973 10.6103 81.7068 11.4155C80.9164 12.2207 80.5255 11.8892 80.693 12.6643C80.8605 13.4393 80.2505 13.5169 80.9164 13.6762C81.5822 13.8312 81.8872 13.6676 82.0806 13.8054C82.2739 13.9432 82.4113 13.491 82.3039 14.0077C82.1922 14.5245 81.9173 14.1671 81.2257 14.2489C80.534 14.3307 80.0916 14.081 80.3966 14.6364C80.7016 15.1919 80.7574 15.4029 80.8133 15.7302C80.8691 16.0531 81.3116 15.8594 80.7875 16.1909C80.2634 16.5225 80.4567 16.2555 80.1216 16.5139C79.7909 16.7722 79.8467 16.811 79.5975 17.2244C79.3484 17.6378 80.0959 17.444 79.125 17.6378C78.1541 17.8315 78.4033 17.9693 77.6558 17.9693C76.9083 17.9693 76.4143 17.9952 76.4143 17.9952C74.9967 17.1899 75.9675 17.4397 74.7475 17.022C73.5275 16.6043 73.7509 16.3287 73.5275 16.6043C73.3041 16.8799 73.1967 16.4191 73.1667 17.2201C73.1409 18.021 72.0583 17.7411 73.6907 18.5765C75.3232 19.4076 75.2158 19.3257 75.8773 19.4076C76.5432 19.4894 75.9031 18.7401 76.6248 19.4076C77.3465 20.075 77.5098 19.5195 77.3164 20.2817C77.1231 21.0439 77.2606 20.6822 77.1231 21.2678C76.9857 21.8491 76.7623 21.7113 77.0974 22.3787C77.4281 23.0462 76.1007 23.2916 77.5699 23.3476C79.0391 23.4036 77.5699 23.4553 79.3441 23.3476C81.1183 23.24 79.924 22.8223 81.3674 23.184C82.8066 23.5457 79.1508 23.9332 83.2233 23.6275C87.2957 23.3218 86.7416 23.7093 87.2957 23.3218C87.8499 22.9342 87.6007 23.6275 88.069 22.7964C88.5415 21.9654 88.5931 22.1032 88.5931 21.6036C88.5931 21.1041 89.173 21.8534 88.5931 20.9362C88.0131 20.019 88.2322 19.7434 87.7081 19.7133C87.184 19.6875 87.7081 19.3128 86.6814 19.541C85.6547 19.7693 85.9597 19.7693 85.1865 19.9329C84.4089 20.1008 85.2982 20.019 84.0223 20.2817C82.7464 20.5444 83.3306 20.6822 82.4457 20.6822C81.5608 20.6822 81.7798 19.8769 81.0066 20.4884C80.2333 21.0998 80.925 22.1548 80.2333 21.0998C79.5417 20.0449 79.5116 19.8769 79.4042 19.6831C79.2925 19.4894 78.6009 19.6444 79.9026 18.9554C81.2042 18.2664 80.4825 18.2105 81.535 18.2363C82.5875 18.2621 81.9517 18.4301 83.0299 18.2105C84.1082 17.9866 84.0008 18.0167 84.6624 17.6851C85.3282 17.3536 84.6881 16.8067 85.4657 17.2158C86.2389 17.6292 85.9082 17.4354 86.7673 17.8229C87.6265 18.2105 87.154 19.3774 87.9315 18.1846C88.7048 16.9919 88.7821 17.1555 88.8551 16.6301C88.9282 16.1048 89.3448 15.812 88.679 15.7775C88.0131 15.7431 88.4857 16.2598 87.794 15.7216C87.1024 15.1833 86.7673 14.7958 86.4108 14.9077C86.0499 15.0197 86.9349 14.434 87.9315 12.7977C88.9282 11.1614 89.7272 11.2174 89.0484 10.6619C88.3697 10.1065 88.0948 9.88684 87.7339 9.8567C87.3731 9.83086 86.9607 9.93852 87.0981 9.71891C87.2356 9.49499 87.0723 8.83186 88.0131 8.44001C88.9539 8.05246 88.7048 8.99549 89.0914 7.91466C89.478 6.83384 89.1172 8.2204 89.5339 6.69174C89.9506 5.16309 89.5081 5.41715 89.9506 4.74971C90.393 4.08227 90.3673 4.74971 90.5305 3.72486C90.698 2.69571 90.6422 2.22635 90.5305 1.89478C90.4188 1.56322 90.9472 1.58905 90.1997 1.17137C89.4522 0.753677 90.393 -0.632876 88.0948 0.340295C85.7965 1.31347 85.6032 1.75699 85.1048 2.33831C84.6065 2.91963 85.3841 3.58707 84.3831 2.78183C83.3865 1.9766 84.6581 2.03258 82.639 1.83881C80.6157 1.64503 81.5865 1.20151 79.924 1.58905C78.2615 1.9766 78.1498 1.72685 77.3207 2.17037C76.4916 2.6139 75.1427 1.58905 76.4143 3.1134C77.6816 4.64206 76.99 4.36216 78.0725 5.05544C79.1508 5.74871 78.4591 5.86067 79.3183 6.19224C80.1775 6.52381 79.7608 7.19125 80.925 6.41615C82.0891 5.64106 80.8433 5.36117 82.5875 5.27935C84.3316 5.19754 85.3583 4.25451 84.4991 5.41715C83.64 6.58409 84.9717 6.05444 83.1717 6.83384C81.3717 7.60893 80.5985 6.50228 79.7092 7.47114C78.8243 8.44431 79.8209 9.94282 78.631 8.35819C77.441 6.77786 77.4969 6.60993 77.3036 6.44199C77.1102 6.27405 77.4969 6.08028 76.5819 5.61092C75.6668 5.13725 74.8377 5.05544 74.8377 5.24921C74.8377 5.44298 73.7853 7.82854 74.0903 8.13427C74.3953 8.44001 75.1299 7.66061 74.5156 9.05147C73.8969 10.438 71.4612 10.6878 74.232 10.6318L74.2105 10.6361Z" fill="#D1D5DB"/>
<path d="M74.76 23.7351C76.1433 23.6533 76.5857 25.07 76.1991 23.4853C75.8125 21.905 76.0058 22.3184 75.8125 21.905C75.6192 21.4873 75.5375 21.2333 75.5375 21.2333L75.065 21.2677C74.3991 21.2419 74.2617 21.1299 74.0383 21.5735C73.8149 22.017 74.0383 21.3237 73.8149 22.017C73.5915 22.7103 73.0416 22.6543 73.8149 23.2098C74.5882 23.7652 73.3724 23.8169 74.7557 23.7351H74.76Z" fill="#D1D5DB"/>
<path d="M119.721 42.8068C119.729 42.8416 119.795 42.8416 119.721 42.8068V42.8068Z" fill="#D1D5DB"/>
<path d="M89.5075 24.5707C89.37 24.6094 89.2197 25.0659 88.7471 25.3931C88.193 25.7721 88.4163 25.6257 87.8063 26.1768C87.1963 26.7323 87.8063 26.1768 87.4197 26.4309C87.0331 26.685 87.0889 26.3964 85.9247 26.4309C84.7606 26.4653 85.594 26.7883 84.8723 27.3395C84.1506 27.895 84.8723 27.3395 84.4298 28.472C83.9873 29.6045 84.4298 28.838 84.7047 30.7283C84.9796 32.6144 84.7047 30.7283 84.2622 30.2288C83.8198 29.7293 84.2622 30.2288 84.1505 29.2298C84.0389 28.2308 83.8756 28.5064 83.4847 27.5634C83.0981 26.6204 83.7081 26.4524 84.1505 25.3888L84.2622 25.1821C84.2622 25.1821 82.269 25.3974 81.7019 25.3888C81.1392 25.3802 81.5473 26.3964 81.2165 27.1199C80.8857 27.8433 80.9931 27.5074 80.8299 28.1749C80.6623 28.8423 80.6623 28.7303 80.6623 29.0145C80.6623 29.2987 80.7182 30.2848 80.7182 30.2848L80.469 32.1709C80.2198 34.0569 80.5506 32.6704 80.8857 32.6359C81.2165 32.6015 81.7148 33.3378 82.1057 33.5058C82.4924 33.6737 82.1057 33.5058 81.7062 33.8373C81.3067 34.1689 81.2723 33.8933 80.6666 34.0053C80.0566 34.1172 80.9974 34.6727 81.9382 35.1162C82.879 35.5598 82.7673 35.1162 83.9873 35.0603C85.2073 35.0043 84.3181 35.4478 84.9281 35.8353C85.5381 36.2229 85.2589 35.6114 85.6498 35.4478C86.0364 35.2799 86.5348 35.5038 87.7548 35.4478C88.9748 35.3918 88.1414 35.6717 89.3614 35.9473C90.5815 36.2229 89.8039 35.8353 90.1905 35.4478C90.5772 35.0603 90.633 35.1722 91.5738 35.1162C92.5146 35.0603 92.128 35.4478 93.4554 35.4478C94.7828 35.4478 93.8979 35.3918 94.3403 34.6727C94.7828 33.9493 95.1694 34.4488 96.0587 34.3411C96.9436 34.2292 96.6687 34.3971 96.9436 34.3971C97.2185 34.3971 97.5536 35.7837 98.3827 36.5071C99.2118 37.2305 98.3827 36.5071 98.7694 36.0636C99.156 35.62 99.5985 36.5631 100.539 36.675C101.48 36.787 100.763 36.9506 100.982 37.898C101.205 38.841 100.87 38.4534 99.7617 38.897C98.6534 39.3405 99.4309 38.9529 98.3226 39.4524C97.2143 39.9519 98.3226 39.728 98.7092 41.2308C99.0958 42.7294 98.8767 41.5064 100.479 42.0059C102.086 42.5054 101.308 41.2825 101.751 40.2835C102.193 39.2845 101.751 40.2835 102.193 39.883C102.636 39.4826 102.58 39.2845 102.305 38.3931C102.03 37.5061 102.305 38.3931 102.747 37.8377C103.19 37.2822 103.469 38.5051 104.298 38.7807C105.127 39.0563 104.629 39.1682 105.239 40.0596C105.849 40.9466 105.239 40.0596 104.796 42.5011C104.354 44.9427 104.629 43.1126 104.41 44.0556C104.186 44.9987 104.741 44.4432 105.63 45.0546C106.515 45.6661 105.63 45.0546 104.908 45.4034C104.186 45.7522 104.242 46.4972 103.581 47.0526C102.915 47.6081 103.581 47.0526 102.472 46.9407C101.364 46.8287 102.197 46.9967 101.201 46.4972C100.204 45.9977 100.87 46.4412 100.204 47.7761C99.7875 48.6114 99.9163 48.5942 100.002 48.5339C99.998 48.5382 99.9894 48.5425 99.9851 48.5512C99.7101 48.8267 99.9851 48.5512 100.264 49.3263C100.539 50.1013 100.651 49.4942 101.428 49.8258C102.202 50.1573 102.202 49.8817 102.593 49.8817C102.984 49.8817 103.259 49.7698 103.92 49.4942C104.586 49.2186 104.474 49.2703 105.028 49.1066C105.583 48.9387 105.471 48.8827 105.858 48.4952C106.244 48.1076 106.188 48.6631 106.91 48.7708C107.632 48.8827 107.185 48.9947 108.293 49.7138C109.402 50.4372 108.293 49.7138 109.29 49.6578C110.287 49.6018 109.844 49.8258 111.782 50.7688C113.719 51.7118 112.224 51.1563 113.221 51.9142C114.217 52.6721 113.719 51.8797 114.66 51.9056C115.601 51.9357 115.656 51.8754 116.541 51.8453C117.426 51.8152 117.207 52.0434 118.204 51.7635C119.2 51.4879 119.922 52.0391 120.528 51.7635C121.138 51.4879 120.528 51.7635 120.197 50.6525C119.866 49.5416 120.197 50.6525 119.475 50.3769C118.754 50.1013 119.196 50.4329 117.151 50.0583C115.102 49.6837 115.27 49.3219 114.827 48.5985C114.385 47.8751 114.827 48.5985 115.381 48.7105C115.936 48.8224 117.375 48.8224 117.873 48.6545C118.371 48.4866 118.26 48.8224 121.331 49.7095C124.398 50.5965 121.366 49.5416 120.919 49.266C120.476 48.9904 120.644 48.8784 120.863 47.8234C121.086 46.7684 120.919 47.3239 120.42 46.4369C119.922 45.5498 118.87 45.3819 118.096 44.6068C117.323 43.8317 118.096 44.6068 116.821 44.4948C115.549 44.3829 116.821 44.4948 114.716 43.2719C112.611 42.049 114.217 42.9404 113.719 42.2729C113.221 41.6055 113.44 41.4418 113.44 40.6624C113.44 39.883 113.826 40.7184 115.377 40.938C116.928 41.1619 115.377 40.938 116.649 41.2696C117.925 41.6012 117.147 41.6571 117.925 42.2126C118.698 42.7681 118.311 42.4365 119.252 42.6562C119.536 42.7207 119.66 42.7681 119.712 42.7939C119.703 42.7681 119.729 42.7207 119.862 42.6562C120.304 42.4322 119.918 41.5452 120.141 40.2706C120.365 38.9917 120.528 39.2716 120.915 38.6601C121.301 38.0487 120.915 38.6601 121.245 37.4932C121.576 36.3262 120.859 37.8247 118.865 37.7688C116.872 37.7128 118.535 37.8247 117.482 37.3252C116.43 36.8257 117.482 37.3252 114.935 36.3822C112.387 35.4392 114.935 36.3822 112.611 35.7148C110.287 35.0473 111.67 35.4909 109.84 34.6038C108.014 33.7168 109.84 34.6038 108.731 33.3249C107.623 32.046 108.731 33.3249 107.348 33.0493C105.965 32.7737 106.575 32.9374 106.24 32.0503C105.909 31.1633 106.352 31.5508 105.909 31.0513C105.467 30.5518 105.909 31.0513 104.857 31.2192C103.804 31.3872 103.916 31.6068 102.807 31.2192C101.699 30.8317 102.64 30.9437 101.755 29.4408C100.87 27.9423 101.755 29.4408 100.87 29.0016C99.9851 28.5624 100.372 28.8294 98.1551 29.6088C95.9384 30.3839 97.8801 29.6088 97.545 29.0016C97.2143 28.3945 97.3216 28.8854 97.1026 27.2189C96.8792 25.5525 96.4925 27.1629 94.4993 26.6634C92.506 26.1639 94.2243 26.6634 92.8239 26.418C91.4277 26.1725 93.116 25.94 93.1676 25.6644C93.2234 25.3888 93.2793 25.3328 93.1676 25.1692C93.0559 25.0056 92.1151 25.053 91.286 24.941C90.4569 24.829 91.286 24.941 90.0659 24.575C89.2583 24.3338 89.3743 24.4716 89.4989 24.5534L89.5075 24.5707Z" fill="#D1D5DB"/>
<path d="M96.9608 51.2724C95.7064 49.9418 96.2219 50.0151 95.2639 49.7179C94.3059 49.4208 95.1909 49.128 93.8591 49.3476C92.5317 49.5715 92.4028 49.3476 92.0205 49.4208C91.6425 49.494 92.8238 50.3079 91.273 49.3476C89.7222 48.3874 88.4678 47.4228 88.0984 47.8663C88.0984 47.8663 88.1714 48.0127 88.0984 48.5338C88.0254 49.0505 88.0168 48.3098 88.1328 49.4208C88.2488 50.5318 88.979 49.494 88.1328 50.8289C87.2865 52.1595 87.0674 52.1552 86.917 52.6374C86.771 53.124 86.1781 53.4944 86.917 53.8604C87.6559 54.2264 86.4574 54.0068 88.5323 53.8604C90.6072 53.714 90.8306 53.081 91.1227 54.0628C91.4148 55.0445 90.2377 58.0803 91.8616 55.0445C93.4854 52.0088 93.116 51.9356 93.4854 52.0088C93.8548 52.082 92.8195 52.3705 94.2243 52.6331C95.629 52.8958 95.1866 53.9982 96.0715 52.6331C96.9565 51.2681 98.2108 52.5987 96.9565 51.2681L96.9608 51.2724Z" fill="#D1D5DB"/>
<path d="M93.1937 56.7499C94.6715 57.047 94.156 57.1202 94.9679 56.7499C95.7798 56.3796 96.1493 57.6369 95.7798 56.3796C95.4104 55.1222 95.7798 55.4193 95.4104 55.1222L95.0409 54.8251L94.6715 54.528C93.3441 54.7519 92.7641 54.4547 92.8286 55.1222C92.8973 55.7896 92.4634 55.9748 92.8286 56.3623C93.1937 56.7499 91.7159 56.4528 93.1937 56.7499Z" fill="#D1D5DB"/>
<path d="M24.5291 75.2528C24.383 75.5973 24.8212 76.8202 25.5042 77.4575C26.1873 78.0948 26.3849 77.6556 26.3849 77.6556C26.3849 77.6556 26.4837 78.0001 26.4837 78.3402C26.4837 78.6804 26.6813 78.534 27.7037 79.4168C28.7304 80.2995 27.8498 79.6622 27.751 80.3942C27.6522 81.1306 27.7982 80.8335 27.8498 81.1306C27.897 81.4234 28.1934 81.4234 28.3395 81.5224C28.4856 81.6215 29.0225 82.0607 29.2674 82.3061C29.5123 82.5516 30.002 83.0898 30.4874 83.6755C30.9771 84.2611 30.4874 83.6755 30.6335 84.0673C30.7795 84.4592 31.3165 85.6347 31.8062 86.6122C32.296 87.5897 31.2693 89.5016 31.4626 89.9408C31.6602 90.38 32.3905 91.3618 32.3905 91.3618C32.3905 91.3618 39.0963 92.7268 41.2958 92.9809L48.268 65.5684C48.268 65.5684 46.6957 66.6837 46.322 66.322C45.9439 65.9646 45.6303 66.322 45.6303 66.322L45.8193 65.2713C45.8193 65.2713 46.4465 65.7105 47.0737 65.2713C47.6494 64.8666 48.4312 64.4144 48.5601 64.3369L48.8952 62.9374C48.8952 62.9374 41.386 61.5552 32.3862 58.8467L25.5472 74.7576C25.5472 74.7576 24.6665 74.904 24.5205 75.2485L24.5291 75.2528Z" fill="#9CA3AF"/>
<path d="M5.34028 78.9389C5.10401 78.8356 4.82908 78.1509 4.78182 78.0217C4.71309 77.8366 4.15463 78.0906 4.05153 78.2069C3.94843 78.3274 4.10308 78.5471 4.13744 78.6848C4.17181 78.8226 4.63147 79.2145 4.57992 79.4341C4.52837 79.6537 4.51118 79.8604 4.51118 79.9767C4.51118 80.0929 4.71309 80.248 4.88492 80.3341C5.05246 80.4202 5.29303 80.7948 5.47775 81.0833C5.66247 81.3718 5.61522 81.2556 5.73121 81.4063C5.85149 81.557 5.73121 81.6431 5.85149 82.0866C5.97177 82.5302 5.85149 82.0866 6.1565 82.0177C6.4615 81.9488 6.88679 82.0005 6.88679 82.0005C6.88679 82.0005 6.83524 82.3063 6.81806 82.3924C6.80088 82.4785 6.81806 82.3924 6.3584 82.9349C5.89875 83.4775 6.37559 83.1244 6.68059 83.344C6.9856 83.5636 6.96841 83.3785 6.96841 83.3785L7.05433 83.4301C7.14025 83.4818 7.1918 83.5679 7.57842 83.9081C7.96935 84.2483 7.83188 84.0115 8.41182 84.2311C8.98747 84.4507 8.42901 84.3172 8.20992 84.5023C7.99083 84.6875 7.92209 84.6229 7.93928 85.3679C7.95646 86.1171 8.15837 85.7253 8.72112 86.2506C9.27958 86.776 9.1636 86.5391 10.0786 87.2453C10.9936 87.9515 10.1645 87.2582 10.9764 87.8697C11.7927 88.4812 11.3158 87.8525 11.6208 87.6845C11.9258 87.5123 11.6552 87.396 11.7755 87.2496C11.8958 87.1032 11.9946 86.8707 12.2351 86.664C12.4714 86.4616 12.1836 86.3238 11.8442 86.0181C11.5048 85.7123 11.7239 85.764 11.7583 85.2344C11.7927 84.709 11.7411 84.8597 11.5392 84.4851C11.3373 84.1105 11.1311 84.3301 10.1302 83.9253C9.12923 83.5163 9.92826 83.7703 9.55452 83.2622C9.18078 82.7498 9.3698 82.8359 9.45142 82.2761C9.53304 81.7163 9.41705 81.7335 9.2667 81.4924C9.1636 81.3345 9.03329 81.2039 8.87577 81.1006C8.6395 80.9455 8.50204 80.8809 8.50204 80.7431C8.50204 80.6054 7.96076 80.0972 6.80517 79.5375C5.64959 78.9777 6.62045 79.3997 5.82142 79.18C5.02239 78.9604 5.58515 79.0423 5.34458 78.9432L5.34028 78.9389Z" fill="#D1D5DB"/>
<path d="M1.52119 69.5904C1.59422 69.2589 1.74457 68.811 1.89063 68.5914C2.03669 68.3675 2.07535 68.4063 2.22141 68.2211C2.36747 68.0359 2.70255 67.5537 3.17939 67.1833C3.17939 67.1833 3.10636 66.6666 2.97748 66.5547C2.84861 66.4427 2.66388 66.4815 2.25578 66.3221C1.84767 66.1628 1.84767 66.1499 1.2978 65.926C0.743636 65.7021 1.07442 65.7408 0.743636 65.6676C0.412855 65.5944 0.374192 65.4824 0.0777783 65.6676C-0.218636 65.8528 0.451518 66.5202 0.266796 67.1833C0.0820741 67.8508 0.120737 67.6269 0.0820741 68.0704C0.0434114 68.5139 0.378488 69.0608 0.378488 69.0608C0.378488 69.0608 0.451518 69.3278 0.524548 69.6249C0.597577 69.922 0.451518 70.0297 0.524548 70.4387C0.597577 70.8478 0.597577 70.809 0.709269 71.0287C0.820962 71.2526 0.855329 71.287 1.07871 71.8813C1.17322 72.131 1.199 72.2645 1.19041 72.3463C1.22048 72.2946 1.25055 72.2344 1.26344 72.1784C1.3021 72.032 1.37513 71.6229 1.19041 71.3258C1.00568 71.0287 1.07871 71.0674 1.19041 70.6239C1.3021 70.1804 1.41379 70.3655 1.52119 70.0684C1.63288 69.7713 1.44816 69.922 1.52119 69.5861V69.5904Z" fill="#E5E7EB"/>
<path d="M28.2886 90.4534C30.0756 90.8667 31.562 91.2026 32.3911 91.3619C32.3911 91.3619 31.6565 90.3845 31.4632 89.9409C31.2699 89.5017 32.2923 87.5898 31.8069 86.6123C31.3172 85.6349 30.7802 84.4593 30.6341 84.0675C30.488 83.6756 30.9778 84.2655 30.488 83.6756C29.9983 83.0857 29.5129 82.5474 29.268 82.3063C29.0232 82.0608 28.4862 81.6216 28.3401 81.5226C28.1941 81.4235 27.9019 81.4235 27.8504 81.1307C27.8031 80.8379 27.6528 81.1307 27.7516 80.3944C27.8504 79.658 28.7267 80.2953 27.7043 79.4169C26.6776 78.5342 26.4843 78.6806 26.4843 78.3404C26.4843 78.0002 26.3855 77.6557 26.3855 77.6557C26.3855 77.6557 26.1922 78.0949 25.5049 77.4576C24.8218 76.8203 24.3793 75.5974 24.5297 75.2529C24.6758 74.9084 25.5564 74.762 25.5564 74.762L32.3954 58.8511C32.3954 58.8511 29.732 57.9641 25.8442 56.5474C19.4434 54.2092 9.71757 50.4285 3.07188 46.7683L2.98596 46.9535C2.96878 47.0482 3.00315 47.1343 3.04611 47.4358C3.12773 47.9912 3.18357 47.6554 3.1578 48.5984C3.13202 49.5414 3.1578 48.5984 3.32534 49.6792C3.49288 50.76 3.8795 50.6782 4.09859 50.5921C4.31768 50.5103 4.67853 50.3983 5.17685 50.0366C5.67517 49.6749 5.50763 49.9247 6.0618 49.9247C6.61596 49.9247 6.42265 50.0366 6.8909 49.8687C7.35915 49.7007 7.27753 49.8428 7.41499 49.8687C7.55246 49.8945 7.63408 50.1744 7.88324 50.45C8.1324 50.7256 7.96486 50.5878 7.68993 51.1691C7.41499 51.7504 7.60831 51.3629 7.55246 51.8882C7.49662 52.4136 7.80162 52.2198 7.96486 52.6375C8.1324 53.0509 7.96486 52.8313 7.88324 53.7183C7.80162 54.6054 8.02071 54.1058 8.2441 54.7991C8.46318 55.4924 8.35579 55.9618 8.49326 56.6292C8.63072 57.2923 8.60495 57.1847 8.57488 58.0717C8.5491 58.9588 8.51903 58.2913 8.15818 59.7899C7.79733 61.2841 8.18395 60.0654 8.37727 60.2894C8.57058 60.509 8.37727 60.2894 8.87559 61.564C9.37391 62.8385 9.0689 61.9257 9.37391 62.5328C9.67891 63.1443 9.39968 62.6706 9.23644 63.6136C9.0689 64.5567 9.23644 63.6136 8.68227 64.0572C8.12811 64.5007 8.6565 64.195 8.73812 65.0002C8.81974 65.8054 8.48896 65.194 7.93479 65.4696C7.38063 65.7451 7.60401 65.7451 6.71907 66.1327C6.56871 66.1973 6.46131 66.2446 6.38399 66.2791L6.35392 66.3308V66.9853C6.35392 66.9853 6.25511 67.2307 6.35392 67.3771C6.45272 67.5236 5.91574 68.1135 5.91574 68.1135C5.91574 68.1135 5.86849 68.1608 5.62362 68.5053C5.37876 68.8498 5.37876 68.8972 5.18544 69.19C4.99213 69.4828 5.03938 69.3881 4.79452 69.6809C4.54966 69.9737 4.30479 69.9263 4.30479 70.3182C4.30479 70.71 4.20599 70.4646 4.30479 70.9038C4.4036 71.343 3.81507 71.1966 4.54966 71.5885C5.28425 71.9803 5.28425 71.933 5.62362 72.2258C5.96729 72.5186 5.62362 72.9621 5.57637 73.3497C5.52911 73.7415 6.13912 73.5951 6.3711 74.1334C6.60308 74.6716 6.5773 75.0635 6.3711 75.408C6.1649 75.7524 6.01884 75.8988 6.1649 76.1443C6.31096 76.3897 6.95963 76.2433 6.53864 76.6826C6.11765 77.1218 6.01884 77.4663 5.87278 77.9571C5.72672 78.448 5.04368 78.0045 5.72672 78.448C6.40976 78.8873 4.60121 78.2543 6.6804 79.0853C8.7553 79.9164 8.26987 80.0628 9.09897 80.1619C9.92807 80.2609 10.5639 79.4255 10.4651 80.1619C10.3662 80.8982 10.1901 80.7991 10.4736 81.4364C10.7572 82.0737 10.4651 81.4364 11.1481 82.3192C11.8311 83.2019 11.8311 82.7584 11.8311 83.2019C11.8311 83.6455 11.3414 83.6928 11.8311 84.033C12.3209 84.3775 12.076 84.0804 12.613 84.4249C13.15 84.7693 13.4421 84.132 13.15 84.7693C12.8578 85.4066 12.4669 85.2086 12.8578 85.6521C13.2488 86.0913 13.296 86.0439 13.5409 86.2377C13.7858 86.4358 13.5409 86.9224 13.5409 86.9224L25.7583 89.872C26.6433 90.083 27.4981 90.2811 28.2929 90.4663L28.2886 90.4534Z" fill="#D1D5DB"/>
<path d="M60.5206 94.9918L61.7149 72.6993C61.7149 72.6993 61.1564 73.4916 60.6323 73.4485C60.1125 73.4012 60.3574 73.7112 59.9407 74.1547C59.5283 74.6026 58.5617 74.3528 58.7121 73.6639C58.8667 72.9706 59.6013 72.6993 59.6013 72.6993C59.6013 72.6993 60.0911 73.4012 60.3059 73.2332C60.5206 73.0653 60.6581 72.695 60.6152 72.4969C60.5679 72.2988 60.2027 71.8036 60.3059 71.4979C60.4132 71.1922 61.0748 69.7927 62.3163 69.4999L62.8232 64.3757C62.8232 64.3757 53.4067 64.1776 48.896 62.946L48.561 64.3455C48.561 64.3455 49.8411 63.9321 50.0989 64.001C50.3609 64.0699 50.8034 64.1905 51.2588 64.479C51.7141 64.7675 52.4358 65.1421 52.9385 65.1981C53.4411 65.2498 54.6267 65.5082 54.6267 65.5082C54.6267 65.5082 52.947 65.3273 51.959 65.4479C50.9752 65.5684 50.6788 65.8828 49.9872 65.7924C49.2956 65.6976 48.7457 65.478 48.2603 65.5814L41.2881 92.9938C41.2881 92.9938 46.3959 93.9368 54.3346 94.5956C56.242 94.755 58.3083 94.8971 60.5121 95.009L60.5206 94.9918Z" fill="#D1D5DB"/>
<path d="M33.9158 43.5424C33.8342 43.4996 33.7783 43.4739 33.7783 43.4739C33.7783 43.4739 33.7912 43.5338 33.9158 43.5424Z" fill="#E5E7EB"/>
<path d="M33.3143 40.6491C33.5721 40.4683 33.6494 40.4424 33.6494 40.4424C33.6494 40.4424 33.8298 40.5716 35.1358 41.1142C36.4417 41.6568 35.6212 41.1874 36.3386 41.1357C37.056 41.084 36.6952 41.1357 37.056 41.1357C37.4169 41.1357 37.288 41.3166 37.7734 41.9323C38.2589 42.5481 37.7992 42.1907 37.7734 42.5223C37.7476 42.8581 37.593 42.5223 37.1849 42.3673C36.7768 42.2122 36.4675 41.8032 36.3644 41.7256C36.2613 41.6481 36.3902 42.2381 36.1582 42.5481C35.9262 42.8581 36.0035 42.6256 35.7243 42.7548C35.4408 42.884 35.7243 42.7548 34.7749 43.2414C34.2938 43.4868 34.0446 43.5428 33.9157 43.5385C34.1348 43.6462 34.5558 43.8615 34.7234 44.0122C34.9553 44.2189 35.0069 44.2964 35.6985 44.8863C36.3902 45.4762 36.1582 44.5763 36.6221 44.0897C37.0818 43.6031 37.0818 43.7796 37.7734 43.6031C37.7734 43.6031 38.362 43.6548 38.5166 43.8098C38.6713 43.9648 38.4908 43.939 38.3877 44.3997C38.2846 44.8605 38.1558 44.5806 37.3395 45.093C36.519 45.6054 37.6746 45.6571 38.1472 45.4246C38.624 45.192 38.3104 45.2997 39.0536 45.0844C39.7968 44.8691 39.539 44.9423 39.6937 44.5547C39.8483 44.1715 39.6937 44.1198 39.8225 43.6806C39.9514 43.2457 40.308 43.3232 40.4626 43.3447C40.6173 43.3706 40.4626 43.3447 41.2574 44.348C42.0521 45.3514 41.6139 44.4772 42.4087 44.348C43.2034 44.2189 42.4602 44.038 42.4602 43.7064C42.4602 43.3749 42.5633 43.5256 42.8941 43.3964C43.2292 43.2672 43.4311 43.2155 43.663 42.884C43.895 42.5481 43.5342 42.3199 42.6363 42.0615C41.7385 41.8032 42.3786 42.1649 42.3786 42.1649C42.3786 42.1649 42.2497 42.294 40.686 42.294C39.1223 42.294 40.3295 41.9582 40.3767 41.6266C40.4283 41.2907 40.6345 41.2434 40.9652 41.0108C41.3003 40.7783 42.4001 40.6491 42.3743 40.4209C42.3485 40.1884 41.1457 40.2142 40.7333 40.0635C40.3252 39.9085 40.0416 40.0377 39.4016 40.141C38.7615 40.2444 38.2503 40.2702 37.7605 40.296C37.2751 40.3219 36.0164 40.0635 35.6856 40.0635C35.3549 40.0635 35.3506 39.9602 34.8394 39.8353C34.3281 39.7104 34.5301 39.8051 33.1726 39.8353C31.8151 39.8654 33.0437 40.8343 33.3014 40.6534L33.3143 40.6491Z" fill="#E5E7EB"/>
<path d="M53.4658 22.3484C53.4658 22.3484 53.4658 22.3527 53.4658 22.3655C54.1875 22.3912 53.4658 22.3484 53.4658 22.3484Z" fill="#E5E7EB"/>
<path d="M22.9401 29.4189C22.4976 29.9744 22.7167 29.9744 22.227 31.2533C21.7329 32.5322 22.3859 31.9767 22.4976 32.4762C22.6093 32.9757 22.8284 32.7001 23.3396 32.8637C23.8508 33.0317 23.9926 33.1436 23.6618 33.5312C23.331 33.9187 23.3869 33.6991 22.8284 34.8101C22.2742 35.921 22.8284 34.8101 23.3396 35.3096C23.8508 35.8091 23.6618 35.1416 23.8852 35.3096C24.1086 35.4775 23.8852 35.6411 23.3396 37.144C22.794 38.6425 23.2752 37.4755 22.6651 37.9793C22.0551 38.4788 22.4418 38.2033 21.6127 39.1463C20.7793 40.0893 21.3334 39.3142 20.6934 40.6448C20.049 41.9797 21.0027 41.6998 21.0585 42.0357C21.1143 42.3672 21.0585 42.0356 22.227 43.7021C23.3954 45.3685 22.3859 44.2016 22.227 45.3126C22.068 46.4235 21.8318 45.98 21.0027 47.4225C20.1693 48.8694 21.226 47.7541 21.6685 48.4215C22.111 49.089 21.8919 48.7014 22.7768 50.2C23.6618 51.6985 22.8885 50.5875 22.8885 51.8664C22.8885 53.1453 22.0551 52.7578 22.8885 53.0333C23.7219 53.3132 23.6102 53.4769 24.2203 53.5328C24.8303 53.5888 26.2178 54.2003 26.2178 54.2003C25.3329 54.8677 25.8484 56.5385 25.8484 56.5385C29.7361 57.9595 32.3996 58.8422 32.3996 58.8422C41.3994 61.5507 48.9086 62.933 48.9086 62.933C53.4235 64.1688 62.8357 64.3626 62.8357 64.3626L64.0729 52.5209C64.0729 52.5209 54.6564 49.8555 54.1796 49.6703C53.6984 49.4851 52.5171 48.1546 52.0016 47.5991C51.4861 47.0436 51.8899 47.1943 51.5935 46.7551C51.297 46.3202 51.4087 46.7465 49.1921 46.7551C46.9754 46.7637 48.7496 46.5613 47.7143 45.6355C46.679 44.7097 47.3835 44.8949 47.1988 44.0078C47.0141 43.1208 46.4599 43.3791 44.8747 42.1218C43.2853 40.8644 44.2089 41.196 42.9932 39.8223C41.7731 38.4487 42.6237 39.2324 42.1426 38.4573C41.6614 37.6822 41.5884 37.7554 41.5497 37.4583C41.5111 37.1612 43.8351 33.656 43.8953 33.5355C43.9554 33.4149 43.9339 33.2341 43.8953 33.1738C43.8566 33.1135 43.5731 33.1135 42.4734 32.3298C41.3693 31.5461 42.3745 32.1705 41.5111 31.8863C40.6476 31.6064 41.5111 31.8863 41.0299 32.6484C40.5488 33.4106 40.7679 32.6484 39.5479 32.4288C38.3278 32.2092 39.4276 32.248 39.7884 31.9853C40.1493 31.7226 40.2309 31.7829 40.1493 31.5633C40.0677 31.3437 39.8872 31.4643 39.8486 31.3006C39.8099 31.1413 39.9903 30.9389 40.4113 30.4954C40.8323 30.0519 40.5531 30.1724 40.5101 29.9916C40.4715 29.8107 40.4113 30.0131 39.767 30.3533C39.1269 30.6935 39.767 30.3533 39.1054 30.5729C38.4438 30.7925 39.0667 30.6547 38.3021 31.7183C37.5417 32.7819 38.1002 31.8001 37.6792 31.7183C37.2582 31.6365 37.6577 31.5977 37.5976 30.814C37.5374 30.0303 37.5159 30.7322 37.3355 30.3533C37.1551 29.9701 37.2754 30.1509 37.2367 29.3672C37.198 28.5835 37.2582 29.027 37.2367 28.605C37.2152 28.183 37.2367 28.2046 37.0949 27.761C36.9532 27.3175 36.9961 27.6405 36.6525 27.7395C36.3131 27.8385 36.5708 27.9204 36.5537 28.0237C36.5322 28.1271 35.9909 28.605 35.7117 28.9065C35.4324 29.2079 35.5527 29.027 35.0286 29.3284C34.5088 29.6299 35.0286 29.3284 34.7279 29.1088C34.4272 28.8892 34.6076 29.0486 34.3284 28.9667C34.0492 28.8849 33.4349 28.9409 31.8626 29.4103C30.2946 29.8796 31.4201 29.4921 30.4793 29.4103C29.5385 29.3284 30.4793 29.4103 30.6597 29.2682C30.8402 29.1261 30.9605 29.1088 32.1032 28.9667C33.2459 28.8246 32.6229 28.9667 33.1041 28.9667C33.5122 28.9667 33.3146 28.9667 33.6196 28.8591C33.6754 28.8376 33.7485 28.816 33.843 28.7859C34.4659 28.605 34.5862 28.1615 34.6248 27.9419C34.6635 27.7223 34.9041 27.6189 34.4444 27.7395C33.9847 27.8601 34.3026 27.7008 34.0019 27.3993C33.7012 27.0979 34.0019 27.3993 33.5809 27.3563C33.1599 27.3132 33.2416 27.4381 32.7776 27.5802C32.3179 27.7223 32.2363 27.6405 31.3557 27.7008C30.475 27.761 31.1538 27.7008 30.6125 27.8213C30.0712 27.9419 30.4707 27.8429 29.7318 28.0409C28.9887 28.2433 29.4096 28.0797 27.73 28.2433C26.046 28.4026 27.6097 28.183 27.7901 28.0237C27.9705 27.8644 27.9705 28.0022 28.413 27.9419C28.8555 27.8816 29.2937 27.1367 29.3538 26.9773C29.4139 26.818 29.212 26.9171 28.8941 26.6759C28.572 26.4348 28.5118 26.4348 28.1123 26.4132C27.7128 26.3917 28.0522 26.5338 27.6913 26.8955C27.3305 27.2572 27.4722 26.9946 26.7505 27.1969C26.0288 27.3993 26.5916 27.2788 26.2049 27.5199C25.8183 27.761 25.93 27.8429 25.8097 27.9634C25.6894 28.084 25.7281 28.0625 25.3672 27.6232C25.0064 27.1797 24.9849 27.5113 24.9849 27.5113C24.9849 27.5113 24.3749 28.0668 23.6532 28.7342C22.9315 29.4017 23.3783 28.8462 22.9315 29.4017L22.9401 29.4189Z" fill="#E5E7EB"/>
<path d="M59.0638 28.5103C59.0638 28.5103 58.733 27.8988 58.3979 28.0667C58.0671 28.2347 57.6762 28.7342 57.4571 28.6222L57.2337 28.5103C57.2337 28.5103 57.122 28.6739 57.2896 28.0366C57.4571 27.3993 57.6762 27.3433 57.4571 27.1194C57.2337 26.8955 57.4571 26.7878 56.9588 26.6759C56.4605 26.5639 56.4605 26.1333 56.1297 26.4304C55.7989 26.7318 57.2939 27.0074 55.5197 27.0074C53.7455 27.0074 53.1956 27.8945 53.7455 27.0074C54.2996 26.1204 54.6304 26.0084 54.7421 25.7328C54.8538 25.4573 54.7421 25.0654 53.8572 25.4013C52.9722 25.7328 52.5298 25.8448 51.9197 25.9568C51.3097 26.0687 51.4773 25.7328 50.979 26.1807C50.4806 26.6242 50.3131 27.0117 50.094 27.5112C49.8706 28.0107 49.9265 27.7868 49.5398 27.8988C49.1532 28.0107 48.5432 26.8998 49.1532 28.0108C49.7632 29.1217 49.7074 28.5103 49.7632 29.1217C49.8191 29.7332 48.7107 30.1767 49.7632 30.0088C50.8157 29.8408 50.7599 29.7332 51.2582 29.8408C51.7565 29.9528 52.5856 29.492 51.7007 30.3576C50.8157 31.2231 51.7565 31.3393 50.3732 31.0594C48.99 30.7839 48.599 30.6719 48.599 30.6719C48.599 30.6719 47.989 30.2284 48.3757 30.9475C48.7623 31.6709 47.9332 31.335 49.0415 31.8905C50.1499 32.446 48.2683 32.334 50.5365 32.6139C52.809 32.8895 52.6414 32.6139 53.4705 32.8895C54.2996 33.1651 54.1364 32.502 54.2996 33.1651C54.4672 33.8325 55.8505 34.1641 54.4672 33.8326C53.0839 33.501 53.4705 33.501 52.8047 33.333C52.1388 33.1651 50.3689 33.0015 49.5355 33.0015C48.7021 33.0015 47.873 33.1694 47.873 33.1694L57.0103 35.4473L59.0595 28.5103H59.0638Z" fill="#E5E7EB"/>
<path d="M43.2218 26.8998C43.3893 27.2314 43.4967 28.0667 43.4967 28.0667C44.605 28.2347 43.8275 28.8978 44.88 28.0667C45.9324 27.2357 44.605 27.6792 46.2074 26.9558C47.814 26.2324 46.2074 26.5682 47.814 26.2324C49.4207 25.9008 48.2007 26.4563 49.4207 25.9008C50.6407 25.3453 49.2531 25.6984 50.8598 25.2721C52.4664 24.8458 52.1872 24.9578 52.9648 24.6779C53.738 24.4023 53.0206 24.6779 53.738 24.4023C54.4597 24.1267 55.4005 25.5132 54.4597 24.1267C53.622 22.8908 53.4846 22.4473 53.4674 22.3655C53.3686 22.3655 53.2397 22.3569 53.0765 22.3483C51.749 22.2923 51.6373 22.5722 51.3581 22.3483C51.0832 22.1244 51.4698 22.2923 50.7481 21.5689C50.0264 20.8455 49.9705 20.6259 49.6956 20.5139C49.4207 20.4019 50.6923 20.2383 48.8107 20.2383C46.9291 20.2383 46.3749 19.6269 46.0957 20.2383C45.8208 20.8498 46.8689 20.2383 45.9281 21.1813C44.9874 22.1244 44.489 22.2923 44.0466 22.6239C43.6041 22.9554 43.4365 22.0124 43.4924 23.4549C43.5482 24.8975 44.459 24.7511 43.7244 25.2678C42.9941 25.7845 42.5473 25.6166 42.7148 26.0644C42.8824 26.5079 43.0456 26.5639 43.2132 26.8955L43.2218 26.8998Z" fill="#E5E7EB"/>
<path d="M57.3454 16.6859C57.122 17.1294 57.122 16.5179 57.122 17.1294C57.122 17.7408 56.0695 18.2403 56.0695 18.2403C56.0695 18.2403 56.0137 18.1284 55.7388 18.2963C55.4638 18.4643 54.6863 18.4083 55.3521 18.7398C56.018 19.0714 56.8471 18.6279 56.018 19.0714C55.1889 19.5149 55.3521 18.8475 55.1889 19.5149C55.0214 20.1824 54.4672 20.1264 55.3564 20.346C56.2414 20.5699 55.133 20.9015 56.2414 20.5699C57.3497 20.2384 56.9072 19.9154 57.6246 19.9671C58.3464 20.0144 58.123 19.9628 58.733 20.4063C59.343 20.8498 60.1162 20.8498 60.1162 20.8498C59.4504 21.1254 60.1162 21.2933 59.0638 21.3493C58.0113 21.4053 57.6247 21.1254 57.3454 21.3493C57.0705 21.5732 56.5163 21.1814 56.7913 21.7929C57.0662 22.4043 55.9621 22.1804 57.0662 22.4043C58.1745 22.6282 57.281 22.6282 58.3378 22.4043C59.3945 22.1804 58.7845 21.9608 59.837 22.0168C60.8895 22.0727 60.8895 22.1287 61.2761 22.0168C61.594 21.9263 61.8346 21.5 61.9119 21.3493C61.9291 21.3149 61.9377 21.2933 61.9377 21.2933V20.2943C61.9377 20.2943 60.7735 20.0833 60.6103 19.9671L60.4427 19.8508C60.4427 19.8508 60.331 19.5752 60.331 19.2953C60.331 19.0154 60.606 19.4073 60.331 19.0197C60.0561 18.6322 60.0003 18.9638 59.7769 18.4083C59.5535 17.8528 59.2485 17.5212 59.2485 17.5212C59.2485 17.5212 59.3902 17.6892 59.0552 17.5212C58.7244 17.3533 59.0552 17.2973 58.4452 17.0217C57.8351 16.7461 57.5602 16.2423 57.3368 16.6902L57.3454 16.6859Z" fill="#E5E7EB"/>
<path d="M51.972 16.1088C52.1954 16.3069 52.1954 15.7988 52.6379 15.4672C53.0803 15.1356 52.6937 15.7428 53.192 16.5222C53.6904 17.2973 53.192 16.5222 53.9137 15.8548C53.9137 15.8548 54.3562 16.1863 54.5796 16.0227C54.803 15.8548 54.8545 15.7988 55.6879 15.7988C56.5213 15.7988 55.6879 15.7988 55.6321 16.1303C55.5762 16.4619 55.6321 16.4619 56.5729 15.8548C57.5137 15.2433 57.0712 15.4672 57.5137 14.6878C57.9562 13.9127 57.5137 14.6878 57.9003 14.3562C58.2869 14.0247 58.3428 14.0247 58.5103 13.2453C58.6779 12.4702 58.5103 13.2453 57.5695 13.1893C56.6287 13.1333 57.5695 13.1893 56.6846 13.0773C55.7996 12.9654 56.6846 13.0773 55.6879 13.3013C54.6913 13.5252 55.3572 13.5768 54.3047 14.3003C53.2522 15.0237 54.3047 14.3003 52.9772 14.5759C51.6498 14.8514 52.1481 14.6878 51.6498 14.9074C51.1515 15.1313 51.7615 15.9064 51.9806 16.1045L51.972 16.1088Z" fill="#E5E7EB"/>
<path d="M55.2964 17.5642C55.2964 17.2972 54.8626 16.8451 54.8626 16.8451C54.5232 17.0216 54.4115 17.2972 54.1366 17.4092C53.8616 17.5211 53.4707 17.4092 53.4707 17.7408C53.4707 18.0723 53.9776 18.4082 54.1666 18.2403C54.3556 18.0723 54.1881 18.1843 54.6349 17.9087C55.0774 17.6331 55.3007 17.8355 55.3007 17.5642H55.2964Z" fill="#E5E7EB"/>
<path d="M61.4998 14.6319C63.1065 14.9075 63.1065 15.7428 63.1065 14.9075C63.1065 14.0721 63.4373 13.6845 63.1065 13.6845C62.7757 13.6845 62.1657 14.24 62.7757 13.6845C63.3857 13.129 64.3824 13.4046 63.3857 13.129C62.3891 12.8535 63.0549 12.6295 62.3891 12.8535C61.7232 13.0774 61.7232 12.9654 61.3925 13.241C61.0617 13.5166 60.7266 13.6845 60.7266 13.6845C61.1132 14.24 59.8975 14.352 61.4998 14.6276V14.6319Z" fill="#E5E7EB"/>
<path d="M64.4292 12.2678C64.4249 12.2162 64.412 12.087 64.3776 11.7425C64.3218 11.187 64.0425 11.3119 63.2693 11.131C62.3285 10.9114 62.2168 12.242 62.2168 12.242L62.6593 12.13C63.1017 12.0181 63.1017 12.4616 63.1017 12.4616C63.1017 12.4616 63.5342 12.4071 64.3991 12.298C64.3991 12.298 64.4163 12.2721 64.4249 12.2635L64.4292 12.2678Z" fill="#E5E7EB"/>
<path d="M70.242 95.5086C72.1752 95.5818 73.6873 95.6076 73.9021 95.5172C73.9021 95.5172 73.9966 95.0478 74.4735 94.9962L74.4391 93.5666L74.2329 84.8037L85.6985 73.2032C85.6985 73.2032 83.8728 72.8156 83.0952 72.3161C82.322 71.8166 81.6003 72.0922 81.2695 72.3161C80.9387 72.54 79.6629 72.8716 79.3879 72.9276C79.113 72.9836 79.8304 72.3161 79.4996 71.485C79.1688 70.654 78.3913 68.656 78.0605 68.3761C77.7297 68.1005 77.3388 67.8206 76.8963 67.8206C76.4538 67.8206 75.4572 67.3211 75.4572 67.1531C75.4572 66.9852 75.1264 66.0982 75.4014 64.9872C75.4014 64.9872 65.1557 65.0432 62.8317 64.3757L62.3248 69.4999C62.3248 69.4999 62.4021 69.487 62.5482 69.7928C62.6942 70.0985 62.4021 70.1373 62.561 70.3396C62.72 70.5377 62.9477 70.5679 63.025 70.8865C63.1066 71.2052 62.1229 71.7219 61.7148 72.708L60.5205 95.0005C60.5205 95.0005 66.2727 95.3622 70.242 95.5129V95.5086ZM68.8158 86.9094C68.2144 86.8922 68.76 86.7802 68.1628 86.7285C67.5614 86.6725 68.0554 86.6553 67.9094 86.0309C67.7633 85.4066 67.7805 85.8888 67.3251 85.3032C66.8655 84.7219 67.1104 85.174 66.8913 84.9587C66.6722 84.7391 67.0373 84.6487 67.2177 84.2095C67.3982 83.7703 67.1447 84.1363 66.8526 84.1363C66.5605 84.1363 66.4703 84.0286 65.7786 83.8435C65.087 83.6626 65.6154 83.8435 65.0526 84.0243C64.4899 84.2052 64.9796 84.2439 65.1257 84.6444C65.2717 85.0449 65.2545 84.864 65.3791 85.3936C65.508 85.9233 65.3791 85.5573 64.9409 86.3238C64.5028 87.0902 64.8679 86.5046 64.9753 86.6338C65.0827 86.763 65.1386 86.9611 65.4135 87.4003C65.6884 87.8395 65.5209 87.4347 65.9419 87.5079C66.3586 87.5811 65.9419 87.5079 66.7968 87.7835C67.6516 88.0591 66.8526 87.9299 66.7237 88.4423C66.5949 88.9548 66.7581 88.6792 66.9772 89.4801C67.1963 90.281 67.2693 89.8806 67.686 90.393C68.1027 90.9054 67.8664 90.6686 68.1585 91.2154C68.4507 91.7623 68.1585 91.2154 67.7032 91.6547C67.2478 92.0939 67.2306 91.7279 66.3027 91.5815C65.3748 91.4351 66.2297 91.4523 66.3027 91.1078C66.3758 90.7633 66.2684 90.9269 66.1008 90.5437C65.9376 90.1605 65.9548 90.2509 65.972 89.5576C65.9891 88.8643 66.0622 89.028 66.0278 88.5371C65.9934 88.0462 65.8474 88.5371 65.319 88.227C64.7906 87.917 65.2459 87.973 64.7734 87.551C64.3009 87.1333 64.6273 87.5682 64.1548 87.5854C63.6823 87.6027 64.0087 87.4046 64.0474 86.8749C64.0861 86.3453 64.2278 85.9104 64.4469 85.4324C64.666 84.9587 64.6102 85.0492 64.3009 84.4851C63.9916 83.921 64.1548 84.5583 63.8756 84.8295C63.5963 85.1051 63.8627 85.0319 63.5534 85.54C63.2441 86.0525 63.4245 85.5573 63.373 85.5745C63.3171 85.5917 62.793 85.919 62.6083 85.54C62.4279 85.1568 62.6255 85.2472 62.4451 84.7736C62.2646 84.2999 62.3548 84.3171 62.372 83.8047C62.3892 83.2923 62.6083 83.9124 62.9004 83.8607C63.1925 83.8047 63.0293 83.7875 63.1925 83.4042C63.3558 83.021 63.1925 83.4042 62.9391 83.2234C62.6856 83.0425 62.793 83.1157 62.647 82.8229C62.5009 82.5301 62.6641 82.7325 63.6479 82.3493C64.6316 81.966 63.7381 82.2933 63.7381 81.8928C63.7381 81.4923 63.8455 81.5655 64.3009 80.9067C64.7562 80.2522 64.6273 80.7259 65.4092 80.7991C66.191 80.8723 65.6455 81.0187 65.5896 81.5483C65.5338 82.078 65.2803 81.8928 64.6961 82.4784C64.1118 83.0641 64.55 82.7325 64.5157 82.8789C64.4813 83.0253 64.7176 82.9521 65.551 83.3698C66.3886 83.7875 65.6798 83.3698 66.1867 83.2062C66.698 83.0425 66.3886 82.9306 66.5519 82.4225C66.7151 81.91 66.6249 82.1469 66.8053 81.6947C66.9858 81.2383 67.0588 81.6388 67.9137 81.0747C68.7686 80.5106 68.0597 80.8723 68.8244 80.2005C69.5891 79.5245 68.8802 80.3297 69.3356 81.0574C69.791 81.7852 69.3915 81.3502 69.0993 81.9316C68.8072 82.5129 68.9705 82.2588 69.0993 82.5904C69.2282 82.9177 69.3528 82.866 69.6621 83.3569C69.9714 83.8478 69.791 83.5593 69.9714 84.2138C70.1518 84.8683 70.0788 84.4678 70.3537 84.8683C70.6287 85.2688 70.4826 85.0879 70.7704 85.8888C71.0625 86.6898 70.9337 86.2376 71.0625 87.2453C71.1914 88.2572 71.0969 87.5854 71.3761 87.9687C71.6511 88.3519 71.4277 88.0419 71.5351 88.3864C71.6425 88.7308 71.6253 88.606 71.8272 89.3897C72.0291 90.1734 71.8831 89.5189 72.1924 90.9399C72.5017 92.3609 72.0635 91.2843 71.5566 91.87C71.0454 92.4513 71.3933 91.8527 70.7532 91.6331C70.1132 91.4135 70.6845 91.3403 70.9036 90.9399C71.1227 90.5394 70.7962 90.337 70.6115 89.8074C70.431 89.2777 70.5943 89.2949 70.7919 88.6964C70.7919 88.6964 70.4826 88.4423 70.1346 88.3519C69.791 88.2615 69.9714 88.2787 69.8253 87.861C69.6793 87.4433 69.8253 87.7146 69.8984 87.0213C69.9714 86.3281 69.8253 86.8749 69.5547 86.8577C69.2798 86.8405 69.4086 86.9309 68.8072 86.9137L68.8158 86.9094Z" fill="#E5E7EB"/>
<path d="M154.705 68.8154C154.594 67.9283 154.705 68.8154 154.04 68.0403C153.374 67.2652 153.266 68.1522 150.384 67.4848C147.506 66.8173 150.384 67.4848 149.276 66.3953C148.167 65.3059 148.61 66.1499 146.616 65.7064C146.616 65.7064 145.62 65.4825 142.63 65.1896C139.64 64.8968 141.745 64.3715 140.413 63.3725C139.086 62.3735 140.413 63.3725 138.42 62.9419C136.427 62.5113 137.647 63.2605 135.872 62.9419C134.098 62.6232 135.43 62.4854 135.099 61.706C134.768 60.9266 133.991 60.9266 132.109 59.3722C130.228 57.8177 132.109 59.3722 131.001 59.1095C129.893 58.8468 130.335 58.1535 129.45 56.9306C128.565 55.7077 129.45 56.9306 128.896 56.3579C128.342 55.7852 127.345 56.1512 126.903 55.8713C126.46 55.5914 125.854 55.5139 125.854 55.5139C125.962 55.5656 125.863 56.134 126.013 56.3536C126.22 56.6593 126.636 57.1545 127.736 58.1923C128.84 59.2301 128.286 58.7435 128.703 59.0923C129.115 59.4367 129.532 59.6434 129.532 59.6434L129.669 60.0568C129.761 60.3324 130.083 60.8391 130.636 61.5769C131.465 62.6835 131.117 61.5769 131.671 61.5769C132.225 61.5769 131.809 61.9902 132.083 62.7524C132.358 63.5146 132.565 63.2347 132.981 64.0658C133.394 64.8968 133.462 64.0658 133.462 64.0658C133.462 64.0658 134.566 64.6858 135.877 65.7925C137.187 66.8992 135.877 66.3437 135.396 67.1747C134.914 68.0058 135.258 67.7259 135.121 68.557C134.983 69.3881 135.121 68.557 134.571 69.3881C134.021 70.2191 134.571 69.3881 133.467 70.2665C132.363 71.1449 132.986 70.2191 131.744 70.288C130.503 70.3569 131.263 70.2191 130.503 70.288C129.742 70.3569 130.159 70.6325 129.742 72.0148C129.33 73.397 129.811 72.8458 130.292 73.1903C130.773 73.5348 130.842 73.7458 131.19 74.1592C131.534 74.5726 131.74 74.5726 132.706 74.9903C133.673 75.4036 133.05 74.8525 133.673 74.8525C134.296 74.8525 133.879 75.128 134.365 76.028C134.846 76.928 134.64 76.3725 135.194 76.7902C135.744 77.2036 135.675 76.3079 136.16 76.1701C136.641 76.0323 136.16 76.1701 136.852 76.5835C137.544 76.9969 137.402 76.6524 137.681 76.6524C137.96 76.6524 137.956 75.8902 137.956 75.8902C137.956 75.8902 137.544 74.3013 137.681 73.9568C137.773 73.7271 137.957 73.4731 138.235 73.1946C138.648 72.7769 138.441 73.6812 138.51 74.3702C138.579 75.0592 138.648 74.7147 139.614 74.9214C140.581 75.128 139.958 75.128 139.958 75.128L141.337 75.3347C142.716 75.5414 141.818 75.1969 141.955 74.9214C142.093 74.6458 142.505 74.4391 143.128 74.0214C143.747 73.608 144.232 73.6769 146.161 73.1903C148.09 72.7037 146.78 72.8458 148.09 72.5013C149.4 72.1569 149.194 71.9502 150.229 71.6014C151.264 71.2569 151.883 70.9813 151.883 70.9813L152.781 71.9502L153.382 71.2483C153.984 70.5464 154.048 70.9167 154.71 70.3612C155.376 69.8057 154.821 69.6938 154.71 68.8067L154.705 68.8154Z" fill="#E5E7EB"/>
<path d="M169.77 80.7991C169.156 78.336 170.063 78.8527 169.156 78.336C168.25 77.8193 168.22 77.2035 167.571 77.5265C166.922 77.8494 166.862 78.2413 166.57 78.1078C166.278 77.9786 166.213 78.6934 166.02 77.2982C165.827 75.9031 166.862 75.4509 165.827 75.9031C164.792 76.3552 164.761 77.1346 164.598 76.7126C164.435 76.2906 164.564 75.6103 164.177 75.1581C163.791 74.706 163.821 73.9266 163.241 74.4778C162.661 75.0289 163.112 74.6715 162.141 75.5457C161.17 76.4198 161.269 76.9064 161.041 75.8385C160.814 74.7706 161.363 74.1204 160.685 74.4433C160.006 74.7663 160.036 74.96 159.49 75.3519C158.941 75.7394 159.847 76.5834 158.941 75.7394C158.034 74.8955 158.361 74.1505 157.776 74.1204C157.196 74.0859 156.741 74.185 156.711 73.9567C156.677 73.7285 157.098 73.6338 156.939 73.2419C156.775 72.8544 156.26 72.4625 156.26 72.4625C156.26 72.4625 156.067 72.0405 156.359 71.8166C156.651 71.5884 155.646 70.486 155.323 71.1363C155.323 71.1363 155.13 70.8779 154.709 71.4592C154.288 72.0405 154.095 72.3333 154.06 72.6907C154.026 73.0482 153.867 72.3979 154.06 73.4701C154.254 74.538 154.61 73.8577 154.353 74.8955C154.095 75.9332 154.005 75.6748 153.966 76.7729C153.932 77.8752 153.932 77.7762 154.383 78.6547C154.834 79.5288 155.354 79.3006 154.834 80.4374C154.318 81.5699 153.962 81.2814 154.447 82.2201C154.933 83.1588 152.312 83.387 154.933 83.1588C157.553 82.9306 156.874 83.6454 158.034 82.9306C159.198 82.2158 157.519 82.965 159.392 82.1512C161.265 81.3416 160.135 81.8282 161.265 81.3416C162.394 80.855 161.716 81.6646 162.944 80.6268C164.173 79.5891 164.01 78.0992 164.173 79.5891C164.336 81.079 164.594 80.9196 164.173 81.5655C163.752 82.2158 163.464 82.3105 163.494 82.698C163.524 83.0856 162.781 84.0286 164.044 83.12C165.303 82.2115 165.045 82.9909 165.337 82.0521C165.629 81.1134 165.367 81.7593 165.758 80.9498C166.145 80.1402 165.595 80.0412 166.145 80.1402C166.695 80.2393 166.372 80.4331 166.725 80.9842C167.081 81.5354 166.012 81.8584 167.369 81.6C168.727 81.3416 168.211 81.5655 168.92 81.3416C169.633 81.1134 170.376 83.2535 169.762 80.7905L169.77 80.7991Z" fill="#E5E7EB"/>
<path d="M145.539 94.1047C145.892 93.8937 145.784 93.8507 146.033 93.588C146.274 93.3296 146.076 93.532 146.274 93.3339C146.291 92.9033 146.235 92.4684 146.205 92.0378C146.128 92.0378 146.059 92.0206 145.965 91.956C145.612 91.7105 146.283 91.7794 145.26 91.2885C144.242 90.7934 144.311 90.69 143.89 90.4058C143.469 90.1259 143.327 90.9699 143.293 90.0872C143.258 89.2044 143.469 88.4681 143.327 88.326C143.185 88.1839 143.327 87.2322 142.73 88.1494C142.133 89.0666 142.519 90.0527 141.712 89.381C140.904 88.7135 141.252 88.3389 140.535 88.2269C140.419 88.3044 140.298 88.382 140.161 88.481C138.576 89.5877 139.817 88.5499 138.782 88.9633C137.747 89.3767 138.438 89.17 137.815 89.3078C137.197 89.4456 137.055 89.5144 136.299 89.8589C135.539 90.2034 136.299 89.8589 135.68 90.3412C135.062 90.8235 135.818 91.1034 135.68 91.6287C135.68 91.6287 135.912 91.4522 136.299 91.6287C136.686 91.8053 137.107 91.8096 137.317 92.1239C137.528 92.4426 137.459 92.2273 137.528 93.11C137.596 93.9928 137.528 94.2727 137.914 94.6946C138.301 95.1166 137.807 95.0477 138.477 95.3276C139.147 95.6075 138.898 95.6075 139.426 95.7496C139.955 95.8917 139.955 95.009 140.165 95.7496C140.376 96.4903 140.2 96.6668 140.376 96.8778C140.432 96.9424 140.41 96.9898 140.384 97.0156C140.445 96.9898 140.582 96.9467 140.87 96.8778C141.493 96.7357 141.433 96.8175 141.639 96.7874C141.738 96.7745 141.892 96.7314 142.206 96.6324C143.19 96.3137 142.872 97.0544 143.473 96.2104C144.07 95.3664 143.331 95.5774 144.354 94.9056C145.372 94.2339 145.196 94.3071 145.548 94.0961L145.539 94.1047Z" fill="#D1D5DB"/>
<path d="M156.052 88.0074C154.961 88.4639 155.313 89.2045 154.682 88.6749C154.05 88.1452 154.153 88.0677 153.749 87.241C153.346 86.4185 153.801 85.7468 153.346 86.4185C152.89 87.0903 152.491 86.6295 152.778 87.6156C153.066 88.6017 153.311 88.4251 153.208 89.2734C153.101 90.1174 152.877 90.294 152.778 90.4705C152.68 90.6471 153.663 90.1174 152.469 90.927C151.275 91.7365 151.378 91.913 150.991 91.8441C150.605 91.7752 151.094 91.4566 150.394 91.7408C149.69 92.0207 149.763 92.4814 149.166 92.3049C148.569 92.1283 148.71 92.2705 148.358 92.025C148.006 91.7796 148.955 91.4954 147.653 91.6719C147.018 91.758 146.687 91.8872 146.468 91.9647C146.489 92.3695 146.545 92.7786 146.549 93.1833C146.91 93.5838 146.923 93.7001 146.489 94.0316C146.034 94.3847 144.835 94.9833 145.927 94.5268C147.018 94.0704 146.524 93.9627 147.546 93.9627C148.569 93.9627 148.427 93.7517 148.564 93.9627C148.706 94.1737 149.269 94.3847 148.388 94.5957C147.507 94.8067 148.036 94.5613 147.159 94.9144C146.279 95.2675 146.317 94.8455 146.034 95.6895C145.755 96.5335 146.421 96.3612 145.716 97.0459C145.012 97.7348 144.698 97.5583 144.522 98.0147C144.346 98.4755 143.993 98.5788 144.414 99.074C144.835 99.5692 143.499 99.707 145.329 99.9912C147.159 100.271 146.597 101.365 147.404 100.271C148.212 99.1774 148.672 100.379 148.285 98.8243C147.898 97.2741 147.83 97.5195 148.109 96.5335C148.388 95.5474 147.477 95.6163 148.564 95.5129C149.655 95.4053 148.319 96.1459 149.935 95.3708C151.55 94.5957 150.991 95.3019 151.868 94.4536C152.748 93.6096 152.783 93.924 152.925 93.3943C153.066 92.8647 152.186 93.1489 153.169 92.7226C154.153 92.3006 153.908 92.757 154.153 92.3006C154.398 91.8442 153.801 92.4556 154.471 91.5513C155.137 90.6471 155.137 91.3145 155.279 90.4361C155.42 89.5533 155.734 89.5533 156.052 88.8514C156.37 88.1452 157.143 87.5467 156.052 88.0074Z" fill="#D1D5DB"/>
<path d="M116.247 101.046C118.498 100.826 120.749 99.8361 121.518 99.6682C122.287 99.5045 124.099 99.0093 124.593 99.8318C125.087 100.659 125.307 101.373 124.813 101.485C124.813 101.485 125.328 101.339 126.222 101.059C127.119 100.783 126.153 100.852 127.532 100.646C127.717 100.62 127.858 100.611 127.979 100.62C128.76 100.667 128.387 101.304 129.461 100.646C130.423 100.056 130.101 100.542 130.328 100.31C130.393 100.241 130.5 100.116 130.702 99.8835C131.329 99.16 131.415 99.1428 131.578 98.8457C131.647 98.7165 131.729 98.5357 131.875 98.2256C132.356 97.1879 132.498 97.2568 132.498 96.7745C132.498 96.2922 132.223 96.796 132.498 95.5731C132.773 94.3545 132.498 95.3233 132.91 93.9368C133.323 92.5545 132.91 92.3478 133.46 91.9991C134.01 91.6546 132.7 91.5857 134.01 91.6546C135.32 91.7235 135.526 92.1584 135.664 91.6287C135.801 91.0991 135.045 90.8235 135.664 90.3412C136.282 89.8589 135.526 90.2034 136.282 89.8589C137.043 89.5145 137.18 89.4456 137.799 89.3078C138.417 89.17 137.73 89.3767 138.765 88.9633C139.801 88.5499 138.559 89.5834 140.144 88.481C140.282 88.3863 140.402 88.3045 140.518 88.2269C141.73 87.4303 141.773 87.6456 142.215 86.8921C142.696 86.061 142.907 85.7165 142.907 85.7165C142.907 85.7165 143.113 85.372 142.632 85.0964C142.151 84.8208 141.871 84.3343 141.184 84.6831C140.492 85.0275 140.561 85.0964 139.251 85.5141C137.941 85.9275 137.46 86.2763 137.46 86.2763C137.46 86.2763 137.185 86.3452 136.63 86.6897C136.081 87.0342 136.218 86.7112 135.595 87.2538C134.977 87.7963 134.908 87.7274 134.491 88.214C134.079 88.6963 134.354 88.3518 133.593 89.3207C132.833 90.2895 133.043 90.4962 132.42 91.1163C131.802 91.7364 131.385 92.0852 131.385 92.0852C131.385 92.0852 131.454 89.7341 131.729 88.8341C132.004 87.9341 131.523 88.2313 132.279 87.2538C133.039 86.2763 133.258 86.4141 133.872 85.9318C134.487 85.4495 133.795 86.4141 134.487 85.4495C135.178 84.4807 134.693 84.8984 135.385 83.9295C136.076 82.9606 134.349 83.9295 136.076 82.9606C137.799 81.9918 136.557 82.5472 139.109 81.854C141.661 81.165 141.18 81.5095 142.421 80.954C143.663 80.4028 142.353 81.0918 144.144 80.2607C145.935 79.4297 145.248 79.9851 146.489 79.223C147.731 78.4608 146.971 79.1541 148.281 78.0474C149.591 76.9407 149.591 77.4962 150.003 76.5963C150.416 75.6963 149.866 75.7652 150.416 74.9384C150.966 74.1074 150.691 74.525 151.52 73.5562C152.349 72.5873 152.761 71.9672 152.761 71.9672L151.864 70.9984C151.864 70.9984 151.245 71.274 150.21 71.6185C149.174 71.9629 149.381 72.1696 148.07 72.5184C146.76 72.8629 148.07 72.7208 146.141 73.2074C144.208 73.694 143.727 73.6251 143.109 74.0385C142.486 74.4518 142.073 74.6585 141.936 74.9384C141.798 75.214 142.696 75.5585 141.317 75.3518L139.938 75.1451C139.938 75.1451 140.557 75.1451 139.595 74.9384C138.628 74.7317 138.559 75.0762 138.491 74.3873C138.422 73.6983 138.628 72.794 138.216 73.2117C137.941 73.4902 137.756 73.7442 137.661 73.9739C137.524 74.3184 137.936 75.9073 137.936 75.9073C137.936 75.9073 137.936 76.6695 137.661 76.6695C137.386 76.6695 137.524 77.014 136.832 76.6006C136.141 76.1872 136.626 76.0494 136.141 76.1872C135.66 76.325 135.728 77.2249 135.174 76.8073C134.624 76.3939 134.83 76.9451 134.345 76.0451C133.864 75.1451 134.276 74.8695 133.653 74.8695C133.03 74.8695 133.653 75.4207 132.687 75.0073C131.72 74.5939 131.514 74.5939 131.17 74.1763C130.827 73.7629 130.758 73.5519 130.273 73.2074C129.791 72.8629 129.306 73.4141 129.723 72.0318C130.135 70.6496 129.723 70.374 130.483 70.3051C131.239 70.2362 130.483 70.374 131.725 70.3051C132.966 70.2362 132.343 71.1663 133.447 70.2836C134.551 69.4051 133.997 70.2362 134.551 69.4051C135.101 68.5741 134.964 69.4051 135.101 68.5741C135.239 67.743 134.895 68.0229 135.376 67.1918C135.857 66.3607 137.167 66.9162 135.857 65.8096C134.547 64.7029 133.443 64.0828 133.443 64.0828C133.443 64.0828 133.374 64.9139 132.962 64.0828C132.549 63.2518 132.343 63.5317 132.064 62.7695C131.789 62.0073 132.201 61.5939 131.652 61.5939C131.102 61.5939 131.445 62.7006 130.616 61.5939C130.063 60.8562 129.741 60.3495 129.65 60.0739L129.512 59.6605C129.512 59.6605 129.1 59.4538 128.683 59.1093C128.271 58.7648 128.821 59.2471 127.717 58.2094C126.612 57.1716 126.2 56.6764 125.994 56.3707C125.848 56.1511 125.942 55.5827 125.835 55.531C125.792 55.5095 125.715 55.5697 125.581 55.7721C125.1 56.4783 125.513 58.0673 125.513 58.0673C125.856 59.3806 126.411 59.0361 125.719 59.7251C125.032 60.4184 125.242 60.2763 124.791 60.7629C124.34 61.2451 124.684 61.1073 124.34 61.525C123.996 61.9384 124.409 62.0762 123.648 62.0762C122.888 62.0762 123.236 62.2829 122.888 62.0762C122.544 61.8695 123.232 62.3518 122.544 61.8695C121.857 61.3872 122.75 61.4561 121.857 61.3872C120.959 61.3183 120.822 60.9739 120.409 61.3183C119.997 61.6628 120.547 63.0451 119.997 61.6628C119.447 60.2806 119.584 59.9361 119.236 59.7983C118.893 59.6605 118.755 59.3849 118.476 59.2471C118.197 59.1093 118.27 59.6605 118.132 58.6959C117.995 57.7271 117.166 56.9864 116.96 57.0123C116.753 57.0381 116.96 56.375 116.96 56.375C116.96 56.375 116.131 56.1941 115.512 56.375C114.889 56.5515 115.581 57.2319 114.477 56.375C113.373 55.5181 113.51 55.1693 112.96 55.1004C112.41 55.0315 112.342 54.3253 110.958 54.5406C109.579 54.7559 109.511 54.532 108.819 54.5406C108.127 54.5492 108.888 53.9808 107.715 54.5406C106.542 55.1004 107.028 55.1004 106.13 55.0315C105.232 54.9626 105.855 54.8937 104.682 54.8937C103.509 54.8937 103.647 54.6181 103.028 55.0315L102.405 55.4449C102.405 55.4449 102.337 55.0659 102.405 55.7764C102.474 56.4826 102.612 56.5731 102.959 57.0123C103.303 57.4515 103.926 57.107 103.303 58.2137C102.685 59.3203 101.933 58.9758 102.375 59.7337C102.822 60.4959 102.822 60.216 103.166 60.5648C103.509 60.9093 103.578 60.427 103.922 61.327C104.265 62.2269 104.682 60.5648 104.265 62.2269C103.853 63.8848 104.265 63.0967 103.784 64.3886C103.303 65.6804 101.782 65.1292 103.303 65.6804C104.82 66.2316 101.512 64.4359 105.305 66.2316C109.098 68.0272 109.511 67.476 109.511 68.1693C109.511 68.8626 109.098 68.2382 109.511 69.3448C109.923 70.4515 110.129 69.6204 109.992 71.0716C109.854 72.5227 109.369 73.4916 108.75 74.2495C108.127 75.0116 108.2 75.0116 107.578 75.425C106.959 75.8384 107.234 75.7695 106.473 76.1872C105.713 76.6006 105.713 77.6728 105.851 77.8967C105.988 78.1206 105.782 78.1206 106.611 79.2273C107.44 80.3339 107.23 80.0583 107.784 81.0229C108.334 81.9918 107.509 80.7473 108.334 81.9918C109.158 83.2362 109.231 82.1296 109.163 83.2362C109.094 84.3429 108.75 84.4118 108.613 84.9629C108.475 85.5141 107.994 84.6874 108.475 85.5141C108.956 86.3452 109.601 85.8371 108.956 86.7586L108.312 87.6801C108.312 87.6801 109.962 96.1544 111.332 97.696C112.707 99.2376 113.97 101.274 116.221 101.055L116.247 101.046Z" fill="#D1D5DB"/>
<path d="M77.0382 96.6412C78.3012 96.8608 77.369 96.8048 78.1379 96.5292C78.9069 96.2536 78.357 96.5292 79.7833 96.3656C81.2095 96.202 80.114 96.4216 81.3212 97.412C82.5283 98.4024 81.3212 97.412 82.8591 97.8512C83.9331 98.1569 83.6152 98.0105 83.439 97.6876C83.3617 97.5455 83.3102 97.3732 83.409 97.1924C83.7397 96.5852 83.6839 97.0287 84.4529 96.8608C85.1617 96.7101 84.8438 96.934 86.3044 97.7478C86.4247 97.8167 86.5578 97.8856 86.7039 97.9631C88.6241 98.9535 86.9788 98.0751 87.9669 98.0191C88.9549 97.9631 88.186 97.6359 88.7358 96.3139C89.2857 94.992 89.2298 95.6551 90.2737 95.2116C91.3176 94.7723 91.0427 95.5431 92.4689 95.5733C93.8951 95.6077 93.0188 95.7584 93.7878 95.5733C94.5567 95.3881 94.1185 95.8144 94.72 96.3656C95.3257 96.9168 95.5448 97.0244 95.9829 97.1364C96.4211 97.2483 96.0946 97.412 96.7519 98.2387C97.4092 99.0655 96.7519 98.2387 97.3018 97.7995C97.8516 97.3603 97.8516 97.6359 98.234 97.6876C98.6206 97.7435 98.728 98.4583 98.7838 98.622C98.8397 98.7856 98.8397 98.8416 98.9471 100.327C99.0588 101.813 99.0588 100.986 99.4969 101.098C99.9351 101.206 100.047 101.154 101.86 101.262C103.673 101.374 102.354 101.649 103.453 102.364C104.553 103.079 103.453 102.364 104.003 101.981C104.553 101.597 104.553 101.869 105.979 101.649C107.406 101.43 106.473 101.649 107.079 101.649C107.685 101.649 107.354 101.593 108.673 101.374C109.992 101.154 109.004 101.537 109.992 102.2C110.98 102.859 110.323 102.584 110.924 103.027C111.53 103.466 110.98 103.247 111.362 104.676C111.749 106.106 111.199 105.227 110.924 105.391C110.649 105.555 110.924 105.391 109.223 105.06C107.522 104.728 108.51 104.676 107.904 104.508C107.298 104.345 107.904 104.508 108.016 105.004C108.127 105.499 108.291 105.555 108.51 105.994C108.729 106.433 108.235 106.326 107.741 107.48C107.247 108.634 107.741 107.48 107.741 108.25C107.741 109.021 107.741 108.25 107.522 109.572C107.303 110.894 107.358 109.792 107.028 109.792C106.697 109.792 107.028 110.175 106.534 110.782C106.04 111.389 106.534 110.782 105.382 112.983C104.231 115.183 105.382 112.983 106.482 113.258C107.582 113.534 107.251 113.039 107.857 112.156C108.462 111.273 108.295 111.329 109.064 111.054C109.833 110.778 109.67 111.054 110.709 111.054C111.749 111.054 111.203 110.778 111.641 110.395C111.933 110.139 112.501 109.864 113.342 109.568C114.605 109.129 114.056 109.624 114.55 109.568C114.691 109.551 114.769 109.529 114.825 109.486C114.958 109.379 114.889 109.163 115.044 108.69C115.155 108.358 115.099 108.233 115.018 108.194C114.936 108.151 114.825 108.194 114.825 108.194C114.825 108.194 114.056 108.25 113.342 108.194C112.629 108.138 113.398 107.811 113.725 107.148C114.056 106.489 114.056 106.872 114.438 106.709C114.825 106.545 114.825 106.27 115.976 105.718C117.127 105.167 116.307 105.662 117.239 105.774C118.171 105.886 117.677 105.994 118.558 106.27C119.434 106.545 118.94 105.938 118.665 105.167C118.656 105.141 118.648 105.12 118.639 105.098C118.777 105.111 118.996 105.111 119.322 105.055C119.98 104.943 119.597 104.724 120.147 104.34C120.697 103.957 120.478 104.284 121.079 104.009C121.157 103.974 121.221 103.944 121.268 103.923C121.608 103.768 121.41 103.85 121.792 103.514C122.231 103.13 122.123 103.182 122.506 102.743C122.892 102.304 123 102.192 123.438 101.808C123.876 101.425 124.314 101.589 124.812 101.477C125.306 101.365 125.087 100.65 124.593 99.8234C124.099 98.9966 122.286 99.4918 121.518 99.6597C120.749 99.8234 118.498 100.814 116.246 101.038C113.995 101.257 112.732 99.2205 111.358 97.6789C109.987 96.1374 108.338 87.663 108.338 87.663C108.338 87.663 108.063 87.607 107.788 87.2367C107.513 86.8664 107.131 87.2367 107.131 87.2367C107.131 87.2367 106.912 87.2755 105.924 85.7899C104.936 84.3043 105.485 85.4583 104.055 84.9631C102.629 84.4679 103.617 84.6316 103.23 83.9168C102.848 83.2019 103.067 83.6412 102.298 83.3096C101.529 82.978 102.298 83.3096 101.417 82.6508C100.541 81.9919 101.58 82.0996 101.748 81.1652C101.911 80.2308 101.529 80.8336 100.923 79.46C100.317 78.082 100.592 78.4696 100.373 77.7548C100.154 77.04 100.098 77.2036 99.5485 76.6524C98.9986 76.1012 99.1662 76.4328 97.9032 76.3209C96.6402 76.2089 97.1342 76.3768 96.477 76.4845C95.8197 76.5964 95.4889 76.7041 94.6083 77.1433C93.7276 77.5825 94.2775 76.9237 93.6761 76.4285C93.0703 75.9333 93.457 76.5405 92.8298 76.4285C92.2026 76.3165 92.2498 76.2649 89.7239 75.7697C87.1979 75.2745 89.3415 75.4941 88.2976 74.9989C87.2538 74.5037 87.8595 74.6673 87.5845 74.3702C87.3096 74.0731 87.0347 74.0645 86.5406 73.6209C86.0466 73.1817 85.7029 73.186 85.7029 73.186L74.2373 84.7866L74.4435 93.5494C74.4435 93.5494 74.4435 93.5494 75.337 93.2695C75.7194 93.149 75.8869 93.093 75.9471 93.0671C76.0244 93.2265 76.6602 94.5054 76.7633 94.8671C76.875 95.2503 76.7633 94.8671 75.8826 95.9694C75.801 96.0728 75.7323 96.1546 75.6678 96.2235C75.7065 96.245 75.7537 96.2666 75.8053 96.2881C76.0502 96.3957 76.4325 96.5249 77.0339 96.6283L77.0382 96.6412Z" fill="#9CA3AF"/>
<g filter="url(#filter0_d_168_745)">
<path d="M44.1738 36.447C44.1738 34.4554 45.7883 32.8409 47.7799 32.8409H105.477C107.468 32.8409 109.083 34.4554 109.083 36.447V53.4604C109.083 55.4519 107.468 57.0664 105.477 57.0664H92.8556H84.742H80.6852L76.6284 62.1402L72.5716 57.0664H68.5147H60.4011H47.7799C45.7883 57.0664 44.1738 55.4519 44.1738 53.4604V36.447Z" fill="white"/>
</g>
<path d="M91.4412 48.542L92.404 48.0281H93.0044V51.2465H94.07V51.8145H91.2573V51.2465H92.404V48.661L91.7495 49.0125L91.4412 48.542ZM95.9387 51.8848C95.7007 51.8848 95.4879 51.8379 95.3004 51.7441C95.1165 51.6468 94.9597 51.5133 94.8298 51.3439C94.7036 51.1708 94.6063 50.9634 94.5377 50.7218C94.4692 50.4802 94.435 50.2134 94.435 49.9213C94.435 49.6292 94.4692 49.3623 94.5377 49.1207C94.6063 48.8791 94.7036 48.6736 94.8298 48.5041C94.9597 48.331 95.1165 48.1976 95.3004 48.1038C95.4879 48.0065 95.7007 47.9578 95.9387 47.9578C96.1731 47.9578 96.3822 48.0065 96.5662 48.1038C96.7537 48.1976 96.9123 48.331 97.0422 48.5041C97.172 48.6736 97.2711 48.8791 97.3397 49.1207C97.4082 49.3623 97.4424 49.6292 97.4424 49.9213C97.4424 50.2134 97.4082 50.4802 97.3397 50.7218C97.2711 50.9634 97.172 51.1708 97.0422 51.3439C96.9123 51.5133 96.7537 51.6468 96.5662 51.7441C96.3822 51.8379 96.1731 51.8848 95.9387 51.8848ZM95.9387 51.279C96.2092 51.279 96.4273 51.169 96.5932 50.949C96.7591 50.7254 96.842 50.3828 96.842 49.9213C96.842 49.4561 96.7591 49.1135 96.5932 48.8935C96.4273 48.67 96.2092 48.5582 95.9387 48.5582C95.6646 48.5582 95.4447 48.67 95.2788 48.8935C95.1165 49.1135 95.0354 49.4561 95.0354 49.9213C95.0354 50.3828 95.1165 50.7254 95.2788 50.949C95.4447 51.169 95.6646 51.279 95.9387 51.279ZM99.3194 51.8848C99.0814 51.8848 98.8686 51.8379 98.6811 51.7441C98.4972 51.6468 98.3403 51.5133 98.2105 51.3439C98.0843 51.1708 97.9869 50.9634 97.9184 50.7218C97.8499 50.4802 97.8157 50.2134 97.8157 49.9213C97.8157 49.6292 97.8499 49.3623 97.9184 49.1207C97.9869 48.8791 98.0843 48.6736 98.2105 48.5041C98.3403 48.331 98.4972 48.1976 98.6811 48.1038C98.8686 48.0065 99.0814 47.9578 99.3194 47.9578C99.5538 47.9578 99.7629 48.0065 99.9468 48.1038C100.134 48.1976 100.293 48.331 100.423 48.5041C100.553 48.6736 100.652 48.8791 100.72 49.1207C100.789 49.3623 100.823 49.6292 100.823 49.9213C100.823 50.2134 100.789 50.4802 100.72 50.7218C100.652 50.9634 100.553 51.1708 100.423 51.3439C100.293 51.5133 100.134 51.6468 99.9468 51.7441C99.7629 51.8379 99.5538 51.8848 99.3194 51.8848ZM99.3194 51.279C99.5898 51.279 99.808 51.169 99.9739 50.949C100.14 50.7254 100.223 50.3828 100.223 49.9213C100.223 49.4561 100.14 49.1135 99.9739 48.8935C99.808 48.67 99.5898 48.5582 99.3194 48.5582C99.0453 48.5582 98.8254 48.67 98.6595 48.8935C98.4972 49.1135 98.4161 49.4561 98.4161 49.9213C98.4161 50.3828 98.4972 50.7254 98.6595 50.949C98.8254 51.169 99.0453 51.279 99.3194 51.279ZM102.138 49.9429C102.004 49.9429 101.881 49.9213 101.77 49.878C101.662 49.8311 101.568 49.768 101.488 49.6887C101.409 49.6057 101.348 49.5102 101.305 49.402C101.261 49.2938 101.24 49.1766 101.24 49.0504C101.24 48.9242 101.261 48.807 101.305 48.6988C101.348 48.587 101.409 48.4915 101.488 48.4121C101.568 48.3292 101.662 48.2661 101.77 48.2228C101.881 48.1759 102.004 48.1525 102.138 48.1525C102.271 48.1525 102.392 48.1759 102.5 48.2228C102.612 48.2661 102.707 48.3292 102.787 48.4121C102.866 48.4915 102.927 48.587 102.971 48.6988C103.014 48.807 103.035 48.9242 103.035 49.0504C103.035 49.1766 103.014 49.2938 102.971 49.402C102.927 49.5102 102.866 49.6057 102.787 49.6887C102.711 49.768 102.617 49.8311 102.505 49.878C102.397 49.9213 102.275 49.9429 102.138 49.9429ZM101.786 51.8145L104.09 48.2066H104.458L102.148 51.8145H101.786ZM102.138 49.5805C102.275 49.5805 102.388 49.5336 102.478 49.4399C102.572 49.3425 102.619 49.2127 102.619 49.0504C102.619 48.8881 102.572 48.7583 102.478 48.661C102.388 48.56 102.275 48.5095 102.138 48.5095C102 48.5095 101.887 48.56 101.797 48.661C101.707 48.7583 101.662 48.8881 101.662 49.0504C101.662 49.2091 101.707 49.3371 101.797 49.4345C101.887 49.5318 102 49.5805 102.138 49.5805ZM104.079 51.8794C103.946 51.8794 103.823 51.8577 103.712 51.8145C103.603 51.7676 103.51 51.7045 103.43 51.6251C103.351 51.5422 103.29 51.4466 103.246 51.3385C103.203 51.2303 103.181 51.1131 103.181 50.9869C103.181 50.8607 103.203 50.7435 103.246 50.6353C103.29 50.5235 103.351 50.4279 103.43 50.3486C103.51 50.2657 103.603 50.2025 103.712 50.1593C103.823 50.1124 103.946 50.089 104.079 50.089C104.213 50.089 104.334 50.1124 104.442 50.1593C104.554 50.2025 104.649 50.2657 104.728 50.3486C104.808 50.4279 104.869 50.5235 104.912 50.6353C104.956 50.7435 104.977 50.8607 104.977 50.9869C104.977 51.1131 104.956 51.2303 104.912 51.3385C104.869 51.4466 104.808 51.5422 104.728 51.6251C104.653 51.7045 104.559 51.7676 104.447 51.8145C104.339 51.8577 104.216 51.8794 104.079 51.8794ZM104.079 51.517C104.216 51.517 104.33 51.4701 104.42 51.3763C104.514 51.279 104.561 51.1491 104.561 50.9869C104.561 50.8246 104.514 50.6948 104.42 50.5974C104.33 50.4964 104.216 50.446 104.079 50.446C103.939 50.446 103.823 50.4964 103.733 50.5974C103.643 50.6948 103.598 50.8246 103.598 50.9869C103.598 51.1455 103.641 51.2735 103.728 51.3709C103.818 51.4683 103.935 51.517 104.079 51.517Z" fill="#1F2937"/>
<path d="M47.9731 41.1323C47.9731 40.9069 48.0152 40.6966 48.0993 40.5012C48.1865 40.3029 48.3037 40.1301 48.4509 39.9829C48.5982 39.8356 48.7695 39.7199 48.9648 39.6358C49.1631 39.5486 49.375 39.5051 49.6004 39.5051C49.7536 39.5051 49.8994 39.5261 50.0376 39.5682C50.1788 39.6072 50.3095 39.6643 50.4298 39.7395C50.553 39.8116 50.6641 39.8987 50.7633 40.0009C50.8655 40.1031 50.9511 40.2158 51.0202 40.339L50.6596 40.5328C50.5545 40.3495 50.4087 40.2007 50.2224 40.0865C50.0361 39.9723 49.8287 39.9152 49.6004 39.9152C49.4321 39.9152 49.2743 39.9468 49.1271 40.0099C48.9798 40.073 48.8506 40.1602 48.7394 40.2713C48.6282 40.3825 48.5411 40.5117 48.478 40.659C48.4149 40.8062 48.3833 40.964 48.3833 41.1323C48.3833 41.3006 48.4149 41.4583 48.478 41.6056C48.5411 41.7528 48.6282 41.8821 48.7394 41.9932C48.8506 42.1014 48.9798 42.1871 49.1271 42.2502C49.2743 42.3133 49.4321 42.3448 49.6004 42.3448C49.8287 42.3448 50.0361 42.2877 50.2224 42.1735C50.4087 42.0593 50.5545 41.9076 50.6596 41.7183L51.0248 41.9166C50.9556 42.0428 50.87 42.157 50.7678 42.2592C50.6687 42.3614 50.5575 42.45 50.4343 42.5251C50.3141 42.6003 50.1833 42.6589 50.0421 42.7009C49.9009 42.74 49.7536 42.7595 49.6004 42.7595C49.375 42.7595 49.1631 42.7175 48.9648 42.6333C48.7695 42.5462 48.5982 42.429 48.4509 42.2817C48.3037 42.1345 48.1865 41.9632 48.0993 41.7679C48.0152 41.5695 47.9731 41.3577 47.9731 41.1323ZM53.0251 42.7595C52.7997 42.7595 52.5878 42.7175 52.3895 42.6333C52.1942 42.5462 52.0229 42.429 51.8756 42.2817C51.7284 42.1345 51.6112 41.9632 51.524 41.7679C51.4399 41.5695 51.3978 41.3577 51.3978 41.1323C51.3978 40.9069 51.4399 40.6966 51.524 40.5012C51.6112 40.3029 51.7284 40.1301 51.8756 39.9829C52.0229 39.8356 52.1942 39.7199 52.3895 39.6358C52.5878 39.5486 52.7997 39.5051 53.0251 39.5051C53.2504 39.5051 53.4608 39.5486 53.6561 39.6358C53.8545 39.7199 54.0272 39.8356 54.1745 39.9829C54.3217 40.1301 54.4374 40.3029 54.5216 40.5012C54.6087 40.6966 54.6523 40.9069 54.6523 41.1323C54.6523 41.3577 54.6087 41.5695 54.5216 41.7679C54.4374 41.9632 54.3217 42.1345 54.1745 42.2817C54.0272 42.429 53.8545 42.5462 53.6561 42.6333C53.4608 42.7175 53.2504 42.7595 53.0251 42.7595ZM53.0251 42.3448C53.1933 42.3448 53.3511 42.3133 53.4984 42.2502C53.6456 42.1871 53.7733 42.1014 53.8815 41.9932C53.9927 41.8821 54.0798 41.7528 54.1429 41.6056C54.206 41.4583 54.2376 41.3006 54.2376 41.1323C54.2376 40.964 54.206 40.8062 54.1429 40.659C54.0798 40.5117 53.9927 40.3825 53.8815 40.2713C53.7733 40.1602 53.6456 40.073 53.4984 40.0099C53.3511 39.9468 53.1933 39.9152 53.0251 39.9152C52.8568 39.9152 52.699 39.9468 52.5518 40.0099C52.4045 40.073 52.2753 40.1602 52.1641 40.2713C52.0529 40.3825 51.9658 40.5117 51.9027 40.659C51.8396 40.8062 51.808 40.964 51.808 41.1323C51.808 41.3006 51.8396 41.4583 51.9027 41.6056C51.9658 41.7528 52.0529 41.8821 52.1641 41.9932C52.2753 42.1014 52.4045 42.1871 52.5518 42.2502C52.699 42.3133 52.8568 42.3448 53.0251 42.3448ZM54.7925 39.5456H55.2298L56.1673 42.1375L57.1049 39.5456H57.5376L56.3972 42.7009H55.9374L54.7925 39.5456ZM57.8933 39.5456H59.6918V39.9333H58.3035V40.9114H59.5791V41.2991H58.3035V42.3133H59.7144V42.7009H57.8933V39.5456ZM60.2571 39.5456H61.4787C61.6169 39.5456 61.7461 39.5712 61.8664 39.6223C61.9866 39.6733 62.0917 39.744 62.1819 39.8341C62.272 39.9243 62.3427 40.0294 62.3937 40.1496C62.4478 40.2698 62.4749 40.3991 62.4749 40.5373C62.4749 40.7416 62.4208 40.9249 62.3126 41.0872C62.2044 41.2465 62.0632 41.3652 61.8889 41.4433L62.6056 42.7009H62.1323L61.4697 41.5335H60.6673V42.7009H60.2571V39.5456ZM61.4787 41.1413C61.5598 41.1413 61.6365 41.1263 61.7086 41.0962C61.7837 41.0632 61.8483 41.0196 61.9024 40.9655C61.9565 40.9114 61.9986 40.8483 62.0286 40.7762C62.0617 40.7011 62.0782 40.6214 62.0782 40.5373C62.0782 40.4562 62.0617 40.3795 62.0286 40.3074C61.9986 40.2323 61.9565 40.1677 61.9024 40.1136C61.8483 40.0595 61.7837 40.0174 61.7086 39.9874C61.6365 39.9543 61.5598 39.9378 61.4787 39.9378H60.6673V41.1413H61.4787ZM64.078 39.5456H64.5242L65.7142 42.7009H65.2725L65.002 41.9797H63.6047L63.3342 42.7009H62.8925L64.078 39.5456ZM64.8578 41.5921L64.3034 40.1271L63.7534 41.5921H64.8578ZM65.8362 41.1323C65.8362 40.9069 65.8782 40.6966 65.9624 40.5012C66.0495 40.3029 66.1667 40.1301 66.314 39.9829C66.4612 39.8356 66.6325 39.7199 66.8278 39.6358C67.0262 39.5486 67.238 39.5051 67.4634 39.5051C67.6076 39.5051 67.7459 39.5231 67.8781 39.5591C68.0103 39.5952 68.1335 39.6463 68.2477 39.7124C68.3649 39.7755 68.4716 39.8536 68.5677 39.9468C68.6669 40.037 68.7526 40.1391 68.8247 40.2533L68.4956 40.4967C68.3904 40.3224 68.2462 40.1827 68.0629 40.0775C67.8826 39.9693 67.6828 39.9152 67.4634 39.9152C67.2951 39.9152 67.1373 39.9468 66.9901 40.0099C66.8428 40.073 66.7136 40.1602 66.6024 40.2713C66.4913 40.3825 66.4041 40.5117 66.341 40.659C66.2779 40.8062 66.2463 40.964 66.2463 41.1323C66.2463 41.3006 66.2779 41.4583 66.341 41.6056C66.4041 41.7528 66.4913 41.8821 66.6024 41.9932C66.7136 42.1014 66.8428 42.1871 66.9901 42.2502C67.1373 42.3133 67.2951 42.3448 67.4634 42.3448C67.6106 42.3448 67.7474 42.3253 67.8736 42.2862C68.0028 42.2442 68.117 42.1871 68.2162 42.1149C68.3153 42.0398 68.398 41.9527 68.4641 41.8535C68.5302 41.7513 68.5753 41.6401 68.5993 41.5199H67.3777V41.1278H69.032V41.3396C69.032 41.532 68.9915 41.7153 68.9103 41.8896C68.8292 42.0609 68.718 42.2111 68.5768 42.3403C68.4385 42.4695 68.2732 42.5717 68.0809 42.6468C67.8916 42.722 67.6858 42.7595 67.4634 42.7595C67.238 42.7595 67.0262 42.7175 66.8278 42.6333C66.6325 42.5462 66.4612 42.429 66.314 42.2817C66.1667 42.1345 66.0495 41.9632 65.9624 41.7679C65.8782 41.5695 65.8362 41.3577 65.8362 41.1323ZM69.5672 39.5456H71.3657V39.9333H69.9774V40.9114H71.2531V41.2991H69.9774V42.3133H71.3883V42.7009H69.5672V39.5456Z" fill="#6B7280"/>
<rect x="47.7803" y="46.8143" width="40.5682" height="5.40909" rx="2.70455" fill="#D5F0F2"/>
<path d="M49.583 49.5189C49.583 49.0211 49.9866 48.6174 50.4845 48.6174H80.2345C80.7324 48.6174 81.136 49.0211 81.136 49.5189C81.136 50.0168 80.7324 50.4205 80.2345 50.4205H50.4845C49.9866 50.4205 49.583 50.0168 49.583 49.5189Z" fill="#2FB5C0"/>
</g>
<defs>
<filter id="filter0_d_168_745" x="22.5375" y="14.8106" width="108.182" height="72.5719" filterUnits="userSpaceOnUse" color-interpolation-filters="sRGB">
<feFlood flood-opacity="0" result="BackgroundImageFix"/>
<feColorMatrix in="SourceAlpha" type="matrix" values="0 0 0 0 0 0 0 0 0 0 0 0 0 0 0 0 0 0 127 0" result="hardAlpha"/>
<feOffset dy="3.60606"/>
<feGaussianBlur stdDeviation="10.8182"/>
<feComposite in2="hardAlpha" operator="out"/>
<feColorMatrix type="matrix" values="0 0 0 0 0.819608 0 0 0 0 0.835294 0 0 0 0 0.858824 0 0 0 0.24 0"/>
<feBlend mode="normal" in2="BackgroundImageFix" result="effect1_dropShadow_168_745"/>
<feBlend mode="normal" in="SourceGraphic" in2="effect1_dropShadow_168_745" result="shape"/>
</filter>
<clipPath id="clip0_168_745">
<rect width="170" height="113.977" fill="white"/>
</clipPath>
</defs>
</svg>
