<svg width="280" height="108" viewBox="0 0 280 108" fill="none" xmlns="http://www.w3.org/2000/svg">
<g opacity="0.8">
<g filter="url(#filter0_d_217_629)">
<rect x="27" y="48" width="224" height="44" rx="8" fill="white"/>
</g>
<line x1="99" y1="70.5" x2="169" y2="70.5" stroke="#D1D5DB" stroke-width="2"/>
<rect x="171" y="59" width="68" height="22" rx="3" fill="#111827"/>
<path d="M188.466 65.2V66.67H185.666V75H184.112V66.67H181.326V65.2H188.466ZM191.167 75.182C190.504 75.182 189.888 75.0187 189.319 74.692C188.759 74.356 188.315 73.908 187.989 73.348C187.662 72.7787 187.499 72.1627 187.499 71.5C187.499 70.8373 187.662 70.226 187.989 69.666C188.315 69.106 188.759 68.6627 189.319 68.336C189.888 68 190.504 67.832 191.167 67.832C191.829 67.832 192.441 68 193.001 68.336C193.57 68.6627 194.018 69.106 194.345 69.666C194.671 70.226 194.835 70.8373 194.835 71.5C194.835 72.1627 194.671 72.7787 194.345 73.348C194.018 73.908 193.57 74.356 193.001 74.692C192.441 75.0187 191.829 75.182 191.167 75.182ZM191.167 73.712C191.568 73.712 191.937 73.614 192.273 73.418C192.609 73.2127 192.875 72.942 193.071 72.606C193.267 72.27 193.365 71.9013 193.365 71.5C193.365 71.0987 193.267 70.73 193.071 70.394C192.875 70.058 192.609 69.792 192.273 69.596C191.937 69.4 191.568 69.302 191.167 69.302C190.765 69.302 190.397 69.4 190.061 69.596C189.725 69.792 189.454 70.058 189.249 70.394C189.053 70.73 188.955 71.0987 188.955 71.5C188.955 71.9013 189.053 72.27 189.249 72.606C189.454 72.942 189.725 73.2127 190.061 73.418C190.397 73.614 190.765 73.712 191.167 73.712ZM199.722 67.846C199.825 67.846 199.904 67.8507 199.96 67.86L199.848 69.26C199.745 69.232 199.647 69.218 199.554 69.218C198.975 69.218 198.49 69.3953 198.098 69.75C197.706 70.0953 197.51 70.5853 197.51 71.22V75H196.04V68H197.51V69.19C197.669 68.8167 197.939 68.4993 198.322 68.238C198.714 67.9767 199.181 67.846 199.722 67.846ZM203.95 75.182C203.287 75.182 202.671 75.0187 202.102 74.692C201.542 74.356 201.099 73.908 200.772 73.348C200.445 72.7787 200.282 72.1627 200.282 71.5C200.282 70.8373 200.445 70.226 200.772 69.666C201.099 69.106 201.542 68.6627 202.102 68.336C202.671 68 203.287 67.832 203.95 67.832C204.613 67.832 205.224 68 205.784 68.336C206.353 68.6627 206.801 69.106 207.128 69.666C207.455 70.226 207.618 70.8373 207.618 71.5C207.618 72.1627 207.455 72.7787 207.128 73.348C206.801 73.908 206.353 74.356 205.784 74.692C205.224 75.0187 204.613 75.182 203.95 75.182ZM203.95 73.712C204.351 73.712 204.72 73.614 205.056 73.418C205.392 73.2127 205.658 72.942 205.854 72.606C206.05 72.27 206.148 71.9013 206.148 71.5C206.148 71.0987 206.05 70.73 205.854 70.394C205.658 70.058 205.392 69.792 205.056 69.596C204.72 69.4 204.351 69.302 203.95 69.302C203.549 69.302 203.18 69.4 202.844 69.596C202.508 69.792 202.237 70.058 202.032 70.394C201.836 70.73 201.738 71.0987 201.738 71.5C201.738 71.9013 201.836 72.27 202.032 72.606C202.237 72.942 202.508 73.2127 202.844 73.418C203.18 73.614 203.549 73.712 203.95 73.712ZM212.239 67.818C212.65 67.818 213.065 67.9067 213.485 68.084C213.914 68.252 214.283 68.56 214.591 69.008C214.899 69.456 215.053 70.058 215.053 70.814V75H213.583V70.814C213.583 70.2167 213.415 69.7873 213.079 69.526C212.743 69.2553 212.351 69.12 211.903 69.12C211.464 69.12 211.086 69.274 210.769 69.582C210.452 69.89 210.293 70.3893 210.293 71.08V75H208.823V68H210.293V68.7C210.545 68.4387 210.834 68.2287 211.161 68.07C211.497 67.902 211.856 67.818 212.239 67.818ZM218.61 72.704C218.61 73.0773 218.685 73.334 218.834 73.474C218.993 73.614 219.245 73.684 219.59 73.684C219.786 73.684 220.01 73.67 220.262 73.642V75C219.842 75.0467 219.487 75.07 219.198 75.07C218.498 75.07 217.98 74.9067 217.644 74.58C217.308 74.244 217.14 73.6513 217.14 72.802V69.33H215.698V68H217.14V66.18L218.61 65.676V68H220.234V69.33H218.61V72.704ZM224.731 75.182C224.069 75.182 223.453 75.0187 222.883 74.692C222.323 74.356 221.88 73.908 221.553 73.348C221.227 72.7787 221.063 72.1627 221.063 71.5C221.063 70.8373 221.227 70.226 221.553 69.666C221.88 69.106 222.323 68.6627 222.883 68.336C223.453 68 224.069 67.832 224.731 67.832C225.394 67.832 226.005 68 226.565 68.336C227.135 68.6627 227.583 69.106 227.909 69.666C228.236 70.226 228.399 70.8373 228.399 71.5C228.399 72.1627 228.236 72.7787 227.909 73.348C227.583 73.908 227.135 74.356 226.565 74.692C226.005 75.0187 225.394 75.182 224.731 75.182ZM224.731 73.712C225.133 73.712 225.501 73.614 225.837 73.418C226.173 73.2127 226.439 72.942 226.635 72.606C226.831 72.27 226.929 71.9013 226.929 71.5C226.929 71.0987 226.831 70.73 226.635 70.394C226.439 70.058 226.173 69.792 225.837 69.596C225.501 69.4 225.133 69.302 224.731 69.302C224.33 69.302 223.961 69.4 223.625 69.596C223.289 69.792 223.019 70.058 222.813 70.394C222.617 70.73 222.519 71.0987 222.519 71.5C222.519 71.9013 222.617 72.27 222.813 72.606C223.019 72.942 223.289 73.2127 223.625 73.418C223.961 73.614 224.33 73.712 224.731 73.712Z" fill="white"/>
<rect x="39" y="60" width="57" height="22" rx="3" fill="#111827"/>
<path d="M56.5102 66.2V67.67H53.7102V76H52.1562V67.67H49.3702V66.2H56.5102ZM59.4842 68.818C60.1655 68.818 60.7722 68.986 61.3042 69.322C61.8362 69.6487 62.2515 70.0967 62.5502 70.666C62.8488 71.226 62.9982 71.842 62.9982 72.514C62.9982 72.626 62.9795 72.8033 62.9422 73.046H57.2862C57.4075 73.606 57.6688 74.054 58.0702 74.39C58.4808 74.726 58.9988 74.894 59.6242 74.894C60.0068 74.894 60.3708 74.81 60.7162 74.642C61.0708 74.474 61.3322 74.2547 61.5002 73.984L62.6482 74.656C62.3308 75.1413 61.9108 75.5193 61.3882 75.79C60.8655 76.0513 60.2682 76.182 59.5962 76.182C58.8495 76.182 58.1868 76.0233 57.6082 75.706C57.0388 75.3887 56.5955 74.95 56.2782 74.39C55.9702 73.83 55.8162 73.2 55.8162 72.5C55.8162 71.8093 55.9702 71.184 56.2782 70.624C56.5955 70.064 57.0295 69.6253 57.5802 69.308C58.1402 68.9813 58.7748 68.818 59.4842 68.818ZM61.5982 71.884C61.5235 71.3333 61.2948 70.8993 60.9122 70.582C60.5388 70.2647 60.0628 70.106 59.4842 70.106C59.0828 70.106 58.7142 70.19 58.3782 70.358C58.0422 70.5167 57.7762 70.736 57.5802 71.016C57.3842 71.2867 57.2815 71.576 57.2722 71.884H61.5982ZM68.3431 69H70.1491L67.5731 72.5L70.1491 76L68.3431 76.014L66.6631 73.732L64.9831 76.014L63.1771 76L65.7531 72.5L63.1771 69H64.9831L66.6631 71.282L68.3431 69ZM76.9029 69H78.3729V76H76.9029V75.146C76.5762 75.4727 76.1982 75.7293 75.7689 75.916C75.3489 76.0933 74.9102 76.182 74.4529 76.182C73.7529 76.182 73.1369 76.0233 72.6049 75.706C72.0729 75.3793 71.6576 74.9407 71.3589 74.39C71.0696 73.83 70.9249 73.2047 70.9249 72.514C70.9249 71.8233 71.0696 71.198 71.3589 70.638C71.6576 70.078 72.0729 69.6393 72.6049 69.322C73.1369 68.9953 73.7529 68.832 74.4529 68.832C74.9102 68.832 75.3489 68.9253 75.7689 69.112C76.1982 69.2893 76.5762 69.5413 76.9029 69.868V69ZM74.6209 74.768C75.0409 74.768 75.4236 74.67 75.7689 74.474C76.1236 74.278 76.3989 74.0073 76.5949 73.662C76.8002 73.3167 76.9029 72.9293 76.9029 72.5C76.9029 72.0707 76.8002 71.688 76.5949 71.352C76.3989 71.0067 76.1236 70.7407 75.7689 70.554C75.4236 70.358 75.0409 70.26 74.6209 70.26C74.2009 70.26 73.8182 70.358 73.4729 70.554C73.1369 70.7407 72.8709 71.0067 72.6749 71.352C72.4882 71.6973 72.3949 72.0847 72.3949 72.514C72.3949 72.9433 72.4882 73.3307 72.6749 73.676C72.8709 74.0213 73.1369 74.292 73.4729 74.488C73.8182 74.6747 74.2009 74.768 74.6209 74.768ZM81.2299 70.932C81.2299 71.1653 81.3466 71.338 81.5799 71.45C81.8226 71.5527 82.2099 71.6693 82.7419 71.8C83.2832 71.9213 83.7312 72.052 84.0859 72.192C84.4406 72.3227 84.7439 72.5327 84.9959 72.822C85.2572 73.1113 85.3879 73.5033 85.3879 73.998C85.3879 74.446 85.2572 74.838 84.9959 75.174C84.7346 75.5007 84.3799 75.7527 83.9319 75.93C83.4932 76.098 83.0079 76.182 82.4759 76.182C81.7572 76.182 81.1412 76.042 80.6279 75.762C80.1146 75.4727 79.7412 75.0713 79.5079 74.558L80.7119 73.928C80.8519 74.2827 81.0712 74.5487 81.3699 74.726C81.6779 74.894 82.0466 74.978 82.4759 74.978C82.8772 74.978 83.2226 74.894 83.5119 74.726C83.8106 74.558 83.9599 74.32 83.9599 74.012C83.9599 73.7413 83.8246 73.5453 83.5539 73.424C83.2926 73.2933 82.8772 73.158 82.3079 73.018C81.7572 72.878 81.3139 72.7473 80.9779 72.626C80.6512 72.4953 80.3666 72.2993 80.1239 72.038C79.8812 71.7673 79.7599 71.4127 79.7599 70.974C79.7599 70.5447 79.8812 70.1667 80.1239 69.84C80.3666 69.5133 80.6932 69.2613 81.1039 69.084C81.5146 68.9067 81.9719 68.818 82.4759 68.818C83.0732 68.818 83.6052 68.9487 84.0719 69.21C84.5479 69.462 84.9119 69.8167 85.1639 70.274L83.9599 70.876C83.6986 70.3067 83.2039 70.022 82.4759 70.022C82.0932 70.022 81.7899 70.106 81.5659 70.274C81.3419 70.4327 81.2299 70.652 81.2299 70.932Z" fill="white"/>
<circle cx="135.842" cy="70" r="17" fill="#D1D5DB"/>
<path d="M114 63C114 60.7909 115.791 59 118 59H130C134.418 59 138 62.5817 138 67V72C138 76.4183 134.418 80 130 80H118C115.791 80 114 78.2091 114 76V63Z" fill="#D1D5DB"/>
<path d="M139.746 70.262L137.741 69.2748V64.7867C137.741 64.3856 137.527 64.0153 137.18 63.8151C136.833 63.6145 136.405 63.6145 136.058 63.8151C135.711 64.0153 135.497 64.3857 135.497 64.7867V69.9629C135.498 70.1699 135.556 70.3727 135.664 70.5493C135.772 70.726 135.927 70.8698 136.11 70.9652L138.728 72.2817C138.888 72.3567 139.061 72.3975 139.237 72.4014C139.446 72.3986 139.65 72.3386 139.826 72.2277C140.003 72.117 140.146 71.9595 140.239 71.773C140.375 71.5072 140.399 71.1985 140.306 70.915C140.214 70.6315 140.012 70.3965 139.746 70.262Z" fill="#111827"/>
<path d="M135.619 58.3684C133.855 58.3703 132.113 58.7757 130.529 59.5537C128.945 60.3314 127.56 61.4611 126.479 62.8565H119.163C118.762 62.8565 118.392 63.0702 118.191 63.4175C117.991 63.7646 117.991 64.1922 118.191 64.5396C118.392 64.8866 118.762 65.1006 119.163 65.1006H125.147C124.593 66.2785 124.249 67.5441 124.13 68.8406H120.659C120.258 68.8406 119.888 69.0545 119.687 69.4016C119.487 69.7486 119.487 70.1765 119.687 70.5236C119.888 70.8707 120.258 71.0846 120.659 71.0846H124.085C124.218 72.3838 124.577 73.6497 125.147 74.8246H122.155C121.754 74.8246 121.384 75.0385 121.183 75.3856C120.983 75.733 120.983 76.1606 121.183 76.5076C121.384 76.855 121.754 77.0687 122.155 77.0687H126.479C128.095 79.1522 130.373 80.6224 132.937 81.2373C135.501 81.852 138.197 81.5745 140.582 80.4503C142.968 79.3264 144.898 77.4228 146.056 75.0541C147.214 72.6852 147.53 69.9924 146.952 67.4201C146.374 64.8476 144.936 62.5491 142.876 60.9036C140.816 59.258 138.256 58.3639 135.62 58.3686L135.619 58.3684ZM135.619 79.3129C133.14 79.3129 130.761 78.3278 129.008 76.5743C127.254 74.8209 126.269 72.4426 126.269 69.9627C126.269 67.4828 127.254 65.1046 129.008 63.3511C130.761 61.5977 133.14 60.6126 135.619 60.6126C138.099 60.6126 140.477 61.5977 142.231 63.3511C143.985 65.1046 144.97 67.4828 144.97 69.9627C144.97 72.4426 143.985 74.8209 142.231 76.5743C140.477 78.3278 138.099 79.3129 135.619 79.3129Z" fill="#111827"/>
</g>
<circle cx="95.5" cy="70.5" r="3.5" fill="#D1D5DB" stroke="#141925" stroke-width="2"/>
<circle cx="171.5" cy="70.5" r="3.5" fill="#D1D5DB" stroke="#141925" stroke-width="2"/>
<g filter="url(#filter1_d_217_629)">
<rect x="9" y="8" width="259" height="44" rx="8" fill="white"/>
</g>
<line x1="93" y1="30" x2="173" y2="30" stroke="#D1D5DB" stroke-width="2"/>
<rect x="175" y="19" width="81" height="22" rx="3" fill="#111827"/>
<path d="M181.603 24.2H183.241L185.943 31.844L188.645 24.2H190.297L186.811 34H185.075L181.603 24.2ZM196.803 33.986H195.333V33.51C195.081 33.7153 194.773 33.8787 194.409 34C194.054 34.1213 193.648 34.182 193.191 34.182C192.687 34.182 192.248 34.1307 191.875 34.028C191.511 33.9253 191.212 33.7807 190.979 33.594C190.746 33.398 190.573 33.1647 190.461 32.894C190.349 32.614 190.293 32.306 190.293 31.97C190.284 31.326 190.494 30.8173 190.923 30.444C191.352 30.0613 192.052 29.87 193.023 29.87C193.546 29.87 194.012 29.8607 194.423 29.842C194.834 29.8233 195.137 29.786 195.333 29.73V29.352C195.333 28.9787 195.179 28.6707 194.871 28.428C194.572 28.1853 194.138 28.064 193.569 28.064C193.121 28.064 192.696 28.1573 192.295 28.344C191.903 28.5213 191.558 28.7407 191.259 29.002L190.615 27.952C190.932 27.644 191.357 27.378 191.889 27.154C192.43 26.9207 193.051 26.804 193.751 26.804C194.199 26.804 194.605 26.86 194.969 26.972C195.342 27.0747 195.664 27.2287 195.935 27.434C196.206 27.6393 196.416 27.8913 196.565 28.19C196.724 28.4887 196.803 28.8293 196.803 29.212V33.986ZM193.583 33.02C194.087 33.02 194.502 32.908 194.829 32.684C195.165 32.46 195.333 32.152 195.333 31.76V30.682C195.193 30.7567 194.96 30.8127 194.633 30.85C194.306 30.8873 193.919 30.906 193.471 30.906C192.883 30.906 192.449 30.9853 192.169 31.144C191.889 31.2933 191.749 31.564 191.749 31.956C191.749 32.32 191.912 32.5907 192.239 32.768C192.575 32.936 193.023 33.02 193.583 33.02ZM204.606 34H203.136V29.814C203.136 29.478 203.08 29.2027 202.968 28.988C202.866 28.7733 202.73 28.6007 202.562 28.47C202.404 28.3393 202.226 28.2507 202.03 28.204C201.834 28.148 201.643 28.12 201.456 28.12C201.279 28.12 201.092 28.1527 200.896 28.218C200.71 28.274 200.537 28.3767 200.378 28.526C200.22 28.6753 200.089 28.876 199.986 29.128C199.893 29.38 199.846 29.6973 199.846 30.08V34H198.376V27H199.846V27.7C200.08 27.4573 200.36 27.252 200.686 27.084C201.013 26.9067 201.382 26.818 201.792 26.818C202.044 26.818 202.334 26.86 202.66 26.944C202.987 27.0187 203.29 27.168 203.57 27.392C203.86 27.616 204.102 27.924 204.298 28.316C204.504 28.6987 204.606 29.198 204.606 29.814V34ZM212.447 32.642C212.12 33.1087 211.696 33.482 211.173 33.762C210.65 34.042 210.081 34.182 209.465 34.182C208.961 34.182 208.485 34.0887 208.037 33.902C207.589 33.706 207.197 33.44 206.861 33.104C206.534 32.768 206.273 32.376 206.077 31.928C205.89 31.48 205.797 31.004 205.797 30.5C205.797 29.996 205.89 29.5247 206.077 29.086C206.273 28.638 206.534 28.246 206.861 27.91C207.197 27.574 207.589 27.3127 208.037 27.126C208.485 26.93 208.961 26.832 209.465 26.832C210.081 26.832 210.646 26.972 211.159 27.252C211.672 27.5227 212.097 27.8913 212.433 28.358L211.229 29.17C211.005 28.8993 210.744 28.6893 210.445 28.54C210.146 28.3813 209.82 28.302 209.465 28.302C209.157 28.302 208.868 28.3627 208.597 28.484C208.336 28.596 208.107 28.75 207.911 28.946C207.715 29.142 207.556 29.3753 207.435 29.646C207.323 29.9073 207.267 30.192 207.267 30.5C207.267 30.808 207.323 31.0973 207.435 31.368C207.556 31.6293 207.715 31.8627 207.911 32.068C208.107 32.264 208.336 32.4227 208.597 32.544C208.868 32.656 209.157 32.712 209.465 32.712C209.82 32.712 210.146 32.6327 210.445 32.474C210.753 32.3153 211.014 32.1053 211.229 31.844L212.447 32.642ZM216.916 34.182C216.412 34.182 215.936 34.0887 215.488 33.902C215.04 33.706 214.648 33.44 214.312 33.104C213.985 32.768 213.724 32.376 213.528 31.928C213.341 31.48 213.248 31.004 213.248 30.5C213.248 29.996 213.341 29.5247 213.528 29.086C213.724 28.638 213.985 28.246 214.312 27.91C214.648 27.574 215.04 27.3127 215.488 27.126C215.936 26.93 216.412 26.832 216.916 26.832C217.42 26.832 217.896 26.93 218.344 27.126C218.792 27.3127 219.179 27.574 219.506 27.91C219.842 28.246 220.103 28.638 220.29 29.086C220.486 29.5247 220.584 29.996 220.584 30.5C220.584 31.004 220.486 31.48 220.29 31.928C220.103 32.376 219.842 32.768 219.506 33.104C219.179 33.44 218.792 33.706 218.344 33.902C217.896 34.0887 217.42 34.182 216.916 34.182ZM216.916 32.712C217.224 32.712 217.509 32.656 217.77 32.544C218.041 32.4227 218.274 32.264 218.47 32.068C218.666 31.8627 218.82 31.6293 218.932 31.368C219.053 31.0973 219.114 30.808 219.114 30.5C219.114 30.192 219.053 29.9073 218.932 29.646C218.82 29.3753 218.666 29.142 218.47 28.946C218.274 28.75 218.041 28.596 217.77 28.484C217.509 28.3627 217.224 28.302 216.916 28.302C216.608 28.302 216.319 28.3627 216.048 28.484C215.787 28.596 215.553 28.75 215.348 28.946C215.152 29.142 214.993 29.3753 214.872 29.646C214.76 29.9073 214.704 30.192 214.704 30.5C214.704 30.808 214.76 31.0973 214.872 31.368C214.993 31.6293 215.152 31.8627 215.348 32.068C215.553 32.264 215.787 32.4227 216.048 32.544C216.319 32.656 216.608 32.712 216.916 32.712ZM222.003 27H223.473V31.186C223.473 31.522 223.524 31.7973 223.627 32.012C223.739 32.2267 223.874 32.3993 224.033 32.53C224.192 32.6513 224.369 32.74 224.565 32.796C224.77 32.8427 224.962 32.866 225.139 32.866C225.326 32.866 225.512 32.838 225.699 32.782C225.895 32.7167 226.068 32.6093 226.217 32.46C226.376 32.3107 226.506 32.11 226.609 31.858C226.712 31.606 226.763 31.2887 226.763 30.906V27H228.233V34H226.763V33.3C226.52 33.5427 226.236 33.7527 225.909 33.93C225.582 34.098 225.218 34.182 224.817 34.182C224.565 34.182 224.276 34.14 223.949 34.056C223.622 33.9813 223.314 33.832 223.025 33.608C222.745 33.384 222.502 33.0807 222.297 32.698C222.101 32.306 222.003 31.802 222.003 31.186V27ZM229.058 27H230.612L232.642 32.264L234.658 27H236.226L233.538 34H231.732L229.058 27ZM240.24 26.818C240.763 26.818 241.239 26.916 241.668 27.112C242.098 27.308 242.466 27.574 242.774 27.91C243.082 28.246 243.32 28.638 243.488 29.086C243.666 29.534 243.754 30.01 243.754 30.514C243.754 30.6167 243.75 30.71 243.74 30.794C243.731 30.8687 243.717 30.9527 243.698 31.046H238.042C238.145 31.578 238.402 32.0213 238.812 32.376C239.223 32.7213 239.746 32.894 240.38 32.894C240.772 32.894 241.141 32.81 241.486 32.642C241.832 32.474 242.088 32.2547 242.256 31.984L243.404 32.656C243.087 33.132 242.667 33.5053 242.144 33.776C241.631 34.0467 241.034 34.182 240.352 34.182C239.783 34.182 239.265 34.0887 238.798 33.902C238.332 33.7153 237.935 33.4587 237.608 33.132C237.282 32.796 237.025 32.404 236.838 31.956C236.661 31.508 236.572 31.0227 236.572 30.5C236.572 29.9773 236.661 29.492 236.838 29.044C237.016 28.596 237.263 28.2087 237.58 27.882C237.907 27.5553 238.294 27.2987 238.742 27.112C239.2 26.916 239.699 26.818 240.24 26.818ZM242.354 29.884C242.28 29.324 242.051 28.89 241.668 28.582C241.295 28.2647 240.814 28.106 240.226 28.106C239.918 28.106 239.629 28.1573 239.358 28.26C239.097 28.3533 238.868 28.484 238.672 28.652C238.476 28.8107 238.318 28.9973 238.196 29.212C238.084 29.4267 238.028 29.6507 238.028 29.884H242.354ZM248.764 28.4C248.717 28.3813 248.67 28.372 248.624 28.372C248.577 28.372 248.53 28.372 248.484 28.372C248.204 28.372 247.938 28.4093 247.686 28.484C247.443 28.5587 247.224 28.6753 247.028 28.834C246.841 28.9927 246.692 29.1933 246.58 29.436C246.477 29.6787 246.426 29.9633 246.426 30.29V34H244.956V27H246.426V28.274C246.575 27.938 246.836 27.644 247.21 27.392C247.583 27.1307 248.059 27 248.638 27H248.876L248.764 28.4Z" fill="white"/>
<rect x="21" y="19" width="70" height="22" rx="3" fill="#111827"/>
<path d="M33.0453 29.38L36.1113 24.2L36.1533 24.228V24.2H37.7073V34H36.1533V27.014L33.2413 31.928H32.8493L29.9233 27V34.014H28.3693V24.2H29.9233V24.228L29.9793 24.2L33.0453 29.38ZM42.8693 34.182C42.3653 34.182 41.8893 34.0887 41.4413 33.902C40.9933 33.706 40.6013 33.44 40.2653 33.104C39.9386 32.768 39.6773 32.376 39.4813 31.928C39.2946 31.48 39.2013 31.004 39.2013 30.5C39.2013 29.996 39.2946 29.5247 39.4813 29.086C39.6773 28.638 39.9386 28.246 40.2653 27.91C40.6013 27.574 40.9933 27.3127 41.4413 27.126C41.8893 26.93 42.3653 26.832 42.8693 26.832C43.3733 26.832 43.8493 26.93 44.2973 27.126C44.7453 27.3127 45.1326 27.574 45.4593 27.91C45.7953 28.246 46.0566 28.638 46.2433 29.086C46.4393 29.5247 46.5373 29.996 46.5373 30.5C46.5373 31.004 46.4393 31.48 46.2433 31.928C46.0566 32.376 45.7953 32.768 45.4593 33.104C45.1326 33.44 44.7453 33.706 44.2973 33.902C43.8493 34.0887 43.3733 34.182 42.8693 34.182ZM42.8693 32.712C43.1773 32.712 43.4619 32.656 43.7233 32.544C43.9939 32.4227 44.2273 32.264 44.4233 32.068C44.6193 31.8627 44.7733 31.6293 44.8853 31.368C45.0066 31.0973 45.0673 30.808 45.0673 30.5C45.0673 30.192 45.0066 29.9073 44.8853 29.646C44.7733 29.3753 44.6193 29.142 44.4233 28.946C44.2273 28.75 43.9939 28.596 43.7233 28.484C43.4619 28.3627 43.1773 28.302 42.8693 28.302C42.5613 28.302 42.2719 28.3627 42.0013 28.484C41.7399 28.596 41.5066 28.75 41.3013 28.946C41.1053 29.142 40.9466 29.3753 40.8253 29.646C40.7133 29.9073 40.6573 30.192 40.6573 30.5C40.6573 30.808 40.7133 31.0973 40.8253 31.368C40.9466 31.6293 41.1053 31.8627 41.3013 32.068C41.5066 32.264 41.7399 32.4227 42.0013 32.544C42.2719 32.656 42.5613 32.712 42.8693 32.712ZM54.0478 34H52.5778V29.814C52.5778 29.478 52.5218 29.2027 52.4098 28.988C52.3072 28.7733 52.1718 28.6007 52.0038 28.47C51.8452 28.3393 51.6678 28.2507 51.4718 28.204C51.2758 28.148 51.0845 28.12 50.8978 28.12C50.7205 28.12 50.5338 28.1527 50.3378 28.218C50.1512 28.274 49.9785 28.3767 49.8198 28.526C49.6612 28.6753 49.5305 28.876 49.4278 29.128C49.3345 29.38 49.2878 29.6973 49.2878 30.08V34H47.8178V27H49.2878V27.7C49.5212 27.4573 49.8012 27.252 50.1278 27.084C50.4545 26.9067 50.8232 26.818 51.2338 26.818C51.4858 26.818 51.7752 26.86 52.1018 26.944C52.4285 27.0187 52.7318 27.168 53.0118 27.392C53.3012 27.616 53.5438 27.924 53.7398 28.316C53.9452 28.6987 54.0478 29.198 54.0478 29.814V34ZM59.2358 34C59.1425 34.0093 59.0211 34.014 58.8718 34.014C58.7318 34.0233 58.5825 34.028 58.4238 34.028C58.2651 34.0373 58.1158 34.042 57.9758 34.042C57.8358 34.042 57.7238 34.042 57.6398 34.042C57.3785 34.0327 57.1265 33.9953 56.8838 33.93C56.6411 33.8553 56.4265 33.734 56.2398 33.566C56.0625 33.398 55.9178 33.1693 55.8058 32.88C55.7031 32.5907 55.6518 32.2313 55.6518 31.802V25.026L57.1218 24.69V27H58.7458V28.33H57.1218V31.69C57.1218 32.082 57.2198 32.3527 57.4158 32.502C57.6118 32.642 57.8825 32.712 58.2278 32.712C58.3398 32.712 58.4565 32.7073 58.5778 32.698C58.6991 32.6793 58.8251 32.6607 58.9558 32.642L59.2358 34ZM64.5584 28.4C64.5118 28.3813 64.4651 28.372 64.4184 28.372C64.3718 28.372 64.3251 28.372 64.2784 28.372C63.9984 28.372 63.7324 28.4093 63.4804 28.484C63.2378 28.5587 63.0184 28.6753 62.8224 28.834C62.6358 28.9927 62.4864 29.1933 62.3744 29.436C62.2718 29.6787 62.2204 29.9633 62.2204 30.29V34H60.7504V27H62.2204V28.274C62.3698 27.938 62.6311 27.644 63.0044 27.392C63.3778 27.1307 63.8538 27 64.4324 27H64.6704L64.5584 28.4ZM68.8048 26.818C69.3275 26.818 69.8035 26.916 70.2328 27.112C70.6621 27.308 71.0308 27.574 71.3388 27.91C71.6468 28.246 71.8848 28.638 72.0528 29.086C72.2301 29.534 72.3188 30.01 72.3188 30.514C72.3188 30.6167 72.3141 30.71 72.3048 30.794C72.2955 30.8687 72.2815 30.9527 72.2628 31.046H66.6068C66.7095 31.578 66.9661 32.0213 67.3768 32.376C67.7875 32.7213 68.3101 32.894 68.9448 32.894C69.3368 32.894 69.7055 32.81 70.0508 32.642C70.3961 32.474 70.6528 32.2547 70.8208 31.984L71.9688 32.656C71.6515 33.132 71.2315 33.5053 70.7088 33.776C70.1955 34.0467 69.5981 34.182 68.9168 34.182C68.3475 34.182 67.8295 34.0887 67.3628 33.902C66.8961 33.7153 66.4995 33.4587 66.1728 33.132C65.8461 32.796 65.5895 32.404 65.4028 31.956C65.2255 31.508 65.1368 31.0227 65.1368 30.5C65.1368 29.9773 65.2255 29.492 65.4028 29.044C65.5801 28.596 65.8275 28.2087 66.1448 27.882C66.4715 27.5553 66.8588 27.2987 67.3068 27.112C67.7641 26.916 68.2635 26.818 68.8048 26.818ZM70.9188 29.884C70.8441 29.324 70.6155 28.89 70.2328 28.582C69.8595 28.2647 69.3788 28.106 68.7908 28.106C68.4828 28.106 68.1935 28.1573 67.9228 28.26C67.6615 28.3533 67.4328 28.484 67.2368 28.652C67.0408 28.8107 66.8821 28.9973 66.7608 29.212C66.6488 29.4267 66.5928 29.6507 66.5928 29.884H70.9188ZM79.7816 33.986H78.3116V33.51C78.0596 33.7153 77.7516 33.8787 77.3876 34C77.0329 34.1213 76.6269 34.182 76.1696 34.182C75.6656 34.182 75.2269 34.1307 74.8536 34.028C74.4896 33.9253 74.1909 33.7807 73.9576 33.594C73.7242 33.398 73.5516 33.1647 73.4396 32.894C73.3276 32.614 73.2716 32.306 73.2716 31.97C73.2622 31.326 73.4722 30.8173 73.9016 30.444C74.3309 30.0613 75.0309 29.87 76.0016 29.87C76.5242 29.87 76.9909 29.8607 77.4016 29.842C77.8122 29.8233 78.1156 29.786 78.3116 29.73V29.352C78.3116 28.9787 78.1576 28.6707 77.8496 28.428C77.5509 28.1853 77.1169 28.064 76.5476 28.064C76.0996 28.064 75.6749 28.1573 75.2736 28.344C74.8816 28.5213 74.5362 28.7407 74.2376 29.002L73.5936 27.952C73.9109 27.644 74.3356 27.378 74.8676 27.154C75.4089 26.9207 76.0296 26.804 76.7296 26.804C77.1776 26.804 77.5836 26.86 77.9476 26.972C78.3209 27.0747 78.6429 27.2287 78.9136 27.434C79.1842 27.6393 79.3942 27.8913 79.5436 28.19C79.7022 28.4887 79.7816 28.8293 79.7816 29.212V33.986ZM76.5616 33.02C77.0656 33.02 77.4809 32.908 77.8076 32.684C78.1436 32.46 78.3116 32.152 78.3116 31.76V30.682C78.1716 30.7567 77.9382 30.8127 77.6116 30.85C77.2849 30.8873 76.8976 30.906 76.4496 30.906C75.8616 30.906 75.4276 30.9853 75.1476 31.144C74.8676 31.2933 74.7276 31.564 74.7276 31.956C74.7276 32.32 74.8909 32.5907 75.2176 32.768C75.5536 32.936 76.0016 33.02 76.5616 33.02ZM83.7479 34C83.5893 34.0187 83.4399 34.0373 83.2999 34.056C83.1599 34.0747 83.0199 34.084 82.8799 34.084C82.6653 34.084 82.4646 34.056 82.2779 34C82.1006 33.9533 81.9466 33.8647 81.8159 33.734C81.6853 33.6033 81.5826 33.4307 81.5079 33.216C81.4333 32.992 81.3959 32.7073 81.3959 32.362V24.2H82.8659V32.264C82.8659 32.488 82.9359 32.6187 83.0759 32.656C83.2253 32.6933 83.4493 32.6887 83.7479 32.642V34Z" fill="white"/>
<circle cx="90" cy="30" r="4" fill="#D1D5DB" stroke="#111827" stroke-width="2"/>
<circle cx="134.842" cy="30" r="17" fill="#D1D5DB"/>
<path d="M113 23C113 20.7909 114.791 19 117 19H129C133.418 19 137 22.5817 137 27V32C137 36.4183 133.418 40 129 40H117C114.791 40 113 38.2091 113 36V23Z" fill="#D1D5DB"/>
<path d="M138.746 30.262L136.741 29.2748V24.7867C136.741 24.3856 136.527 24.0153 136.18 23.8151C135.833 23.6145 135.405 23.6145 135.058 23.8151C134.711 24.0153 134.497 24.3857 134.497 24.7867V29.9629C134.498 30.1699 134.556 30.3727 134.664 30.5493C134.772 30.726 134.927 30.8698 135.11 30.9652L137.728 32.2817C137.888 32.3567 138.061 32.3975 138.237 32.4014C138.446 32.3986 138.65 32.3386 138.826 32.2277C139.003 32.117 139.146 31.9595 139.239 31.773C139.375 31.5072 139.399 31.1985 139.306 30.915C139.214 30.6315 139.012 30.3965 138.746 30.262Z" fill="#111827"/>
<path d="M134.619 18.3684C132.855 18.3703 131.113 18.7757 129.529 19.5537C127.945 20.3314 126.56 21.4611 125.479 22.8565H118.163C117.762 22.8565 117.392 23.0702 117.191 23.4175C116.991 23.7646 116.991 24.1922 117.191 24.5396C117.392 24.8866 117.762 25.1006 118.163 25.1006H124.147C123.593 26.2785 123.249 27.5441 123.13 28.8406H119.659C119.258 28.8406 118.888 29.0545 118.687 29.4016C118.487 29.7486 118.487 30.1765 118.687 30.5236C118.888 30.8707 119.258 31.0846 119.659 31.0846H123.085C123.218 32.3838 123.577 33.6497 124.147 34.8246H121.155C120.754 34.8246 120.384 35.0385 120.183 35.3856C119.983 35.733 119.983 36.1606 120.183 36.5076C120.384 36.855 120.754 37.0687 121.155 37.0687H125.479C127.095 39.1522 129.373 40.6224 131.937 41.2373C134.501 41.852 137.197 41.5745 139.582 40.4503C141.968 39.3264 143.898 37.4228 145.056 35.0541C146.214 32.6852 146.53 29.9924 145.952 27.4201C145.374 24.8476 143.936 22.5491 141.876 20.9036C139.816 19.258 137.256 18.3639 134.62 18.3686L134.619 18.3684ZM134.619 39.3129C132.14 39.3129 129.761 38.3278 128.008 36.5743C126.254 34.8209 125.269 32.4426 125.269 29.9627C125.269 27.4828 126.254 25.1046 128.008 23.3511C129.761 21.5977 132.14 20.6126 134.619 20.6126C137.099 20.6126 139.477 21.5977 141.231 23.3511C142.985 25.1046 143.97 27.4828 143.97 29.9627C143.97 32.4426 142.985 34.8209 141.231 36.5743C139.477 38.3278 137.099 39.3129 134.619 39.3129Z" fill="#111827"/>
<circle cx="175" cy="30" r="4" fill="#D1D5DB" stroke="#111827" stroke-width="2"/>
<defs>
<filter id="filter0_d_217_629" x="15" y="40" width="248" height="68" filterUnits="userSpaceOnUse" color-interpolation-filters="sRGB">
<feFlood flood-opacity="0" result="BackgroundImageFix"/>
<feColorMatrix in="SourceAlpha" type="matrix" values="0 0 0 0 0 0 0 0 0 0 0 0 0 0 0 0 0 0 127 0" result="hardAlpha"/>
<feOffset dy="4"/>
<feGaussianBlur stdDeviation="6"/>
<feComposite in2="hardAlpha" operator="out"/>
<feColorMatrix type="matrix" values="0 0 0 0 0.0666667 0 0 0 0 0.0941176 0 0 0 0 0.152941 0 0 0 0.06 0"/>
<feBlend mode="normal" in2="BackgroundImageFix" result="effect1_dropShadow_217_629"/>
<feBlend mode="normal" in="SourceGraphic" in2="effect1_dropShadow_217_629" result="shape"/>
</filter>
<filter id="filter1_d_217_629" x="-3" y="0" width="283" height="68" filterUnits="userSpaceOnUse" color-interpolation-filters="sRGB">
<feFlood flood-opacity="0" result="BackgroundImageFix"/>
<feColorMatrix in="SourceAlpha" type="matrix" values="0 0 0 0 0 0 0 0 0 0 0 0 0 0 0 0 0 0 127 0" result="hardAlpha"/>
<feOffset dy="4"/>
<feGaussianBlur stdDeviation="6"/>
<feComposite in2="hardAlpha" operator="out"/>
<feColorMatrix type="matrix" values="0 0 0 0 0.0666667 0 0 0 0 0.0941176 0 0 0 0 0.152941 0 0 0 0.06 0"/>
<feBlend mode="normal" in2="BackgroundImageFix" result="effect1_dropShadow_217_629"/>
<feBlend mode="normal" in="SourceGraphic" in2="effect1_dropShadow_217_629" result="shape"/>
</filter>
</defs>
</svg>
