<svg width="138" height="174" viewBox="0 0 138 174" fill="none" xmlns="http://www.w3.org/2000/svg">
<path d="M24.9683 38.3695V34.5626H25.6579V37.7914H27.3345V38.3695H24.9683ZM28.7249 38.4271C28.544 38.4271 28.381 38.3949 28.2361 38.3305C28.0923 38.2648 27.9783 38.1681 27.894 38.0405C27.811 37.9129 27.7695 37.7555 27.7695 37.5684C27.7695 37.4073 27.7992 37.274 27.8587 37.1687C27.9182 37.0634 27.9994 36.9791 28.1022 36.9159C28.2051 36.8527 28.3209 36.805 28.4498 36.7728C28.5799 36.7393 28.7144 36.7152 28.8532 36.7003C29.0205 36.6829 29.1562 36.6674 29.2603 36.6538C29.3644 36.6389 29.44 36.6166 29.487 36.5869C29.5354 36.5559 29.5595 36.5082 29.5595 36.4438V36.4326C29.5595 36.2926 29.518 36.1842 29.435 36.1073C29.352 36.0305 29.2324 35.9921 29.0762 35.9921C28.9114 35.9921 28.7807 36.028 28.684 36.0999C28.5886 36.1718 28.5242 36.2567 28.4907 36.3545L27.8624 36.2653C27.912 36.0918 27.9938 35.9468 28.1078 35.8304C28.2218 35.7126 28.3612 35.6247 28.526 35.5664C28.6908 35.5069 28.873 35.4772 29.0725 35.4772C29.2101 35.4772 29.347 35.4933 29.4833 35.5255C29.6196 35.5577 29.7442 35.611 29.8569 35.6854C29.9697 35.7585 30.0602 35.8582 30.1283 35.9846C30.1977 36.111 30.2324 36.269 30.2324 36.4586V38.3695H29.5856V37.9773H29.5633C29.5224 38.0566 29.4647 38.131 29.3904 38.2004C29.3173 38.2685 29.2249 38.3237 29.1134 38.3658C29.0031 38.4067 28.8736 38.4271 28.7249 38.4271ZM28.8997 37.9327C29.0347 37.9327 29.1518 37.906 29.251 37.8528C29.3501 37.7982 29.4263 37.7264 29.4796 37.6371C29.5341 37.5479 29.5614 37.4506 29.5614 37.3453V37.0089C29.5403 37.0262 29.5044 37.0423 29.4536 37.0572C29.404 37.0721 29.3482 37.0851 29.2863 37.0962C29.2243 37.1074 29.163 37.1173 29.1023 37.126C29.0415 37.1346 28.9889 37.1421 28.9443 37.1483C28.8439 37.1619 28.754 37.1842 28.6747 37.2152C28.5954 37.2462 28.5328 37.2895 28.487 37.3453C28.4411 37.3998 28.4182 37.4705 28.4182 37.5572C28.4182 37.6811 28.4635 37.7747 28.5539 37.8379C28.6444 37.9011 28.7596 37.9327 28.8997 37.9327ZM30.9388 38.3695V34.5626H31.6117V35.9865H31.6396C31.6742 35.9171 31.7232 35.8434 31.7864 35.7653C31.8496 35.686 31.9351 35.6185 32.0429 35.5627C32.1507 35.5057 32.2883 35.4772 32.4556 35.4772C32.6762 35.4772 32.875 35.5336 33.0523 35.6463C33.2307 35.7579 33.372 35.9233 33.4761 36.1426C33.5814 36.3607 33.6341 36.6284 33.6341 36.9457C33.6341 37.2592 33.5826 37.5256 33.4798 37.7449C33.3769 37.9643 33.2369 38.1316 33.0597 38.2468C32.8825 38.3621 32.6817 38.4197 32.4574 38.4197C32.2939 38.4197 32.1582 38.3924 32.0504 38.3379C31.9425 38.2834 31.8558 38.2177 31.7901 38.1409C31.7257 38.0628 31.6755 37.9891 31.6396 37.9197H31.6005V38.3695H30.9388ZM31.5987 36.9419C31.5987 37.1266 31.6247 37.2883 31.6767 37.4271C31.73 37.5659 31.8062 37.6743 31.9054 37.7524C32.0057 37.8292 32.1272 37.8676 32.2697 37.8676C32.4184 37.8676 32.5429 37.828 32.6433 37.7487C32.7437 37.6681 32.8193 37.5584 32.8701 37.4197C32.9221 37.2796 32.9482 37.1204 32.9482 36.9419C32.9482 36.7647 32.9228 36.6073 32.8719 36.4698C32.8211 36.3322 32.7455 36.2244 32.6452 36.1464C32.5448 36.0683 32.4196 36.0293 32.2697 36.0293C32.1259 36.0293 32.0039 36.0671 31.9035 36.1426C31.8031 36.2182 31.7269 36.3242 31.6749 36.4605C31.6241 36.5968 31.5987 36.7573 31.5987 36.9419ZM35.4701 38.4253C35.1839 38.4253 34.9366 38.3658 34.7284 38.2468C34.5215 38.1266 34.3623 37.9568 34.2507 37.7375C34.1392 37.5169 34.0834 37.2573 34.0834 36.9587C34.0834 36.665 34.1392 36.4072 34.2507 36.1854C34.3635 35.9623 34.5209 35.7888 34.7229 35.6649C34.9249 35.5398 35.1622 35.4772 35.4348 35.4772C35.6108 35.4772 35.7768 35.5057 35.933 35.5627C36.0903 35.6185 36.2291 35.7052 36.3493 35.8229C36.4708 35.9407 36.5662 36.0906 36.6356 36.2728C36.705 36.4537 36.7397 36.6693 36.7397 36.9196V37.126H34.3994V36.6724H36.0947C36.0934 36.5435 36.0656 36.4289 36.011 36.3285C35.9565 36.2269 35.8803 36.147 35.7824 36.0887C35.6857 36.0305 35.573 36.0014 35.4441 36.0014C35.3065 36.0014 35.1857 36.0348 35.0816 36.1017C34.9775 36.1674 34.8964 36.2542 34.8381 36.362C34.7811 36.4686 34.752 36.5857 34.7507 36.7133V37.1092C34.7507 37.2753 34.7811 37.4178 34.8418 37.5368C34.9026 37.6545 34.9874 37.7449 35.0965 37.8081C35.2055 37.8701 35.3332 37.9011 35.4794 37.9011C35.5773 37.9011 35.6659 37.8875 35.7452 37.8602C35.8245 37.8317 35.8933 37.7902 35.9515 37.7356C36.0098 37.6811 36.0538 37.6136 36.0835 37.533L36.7118 37.6037C36.6721 37.7697 36.5966 37.9147 36.485 38.0386C36.3747 38.1613 36.2335 38.2567 36.0612 38.3249C35.889 38.3918 35.6919 38.4253 35.4701 38.4253ZM37.9818 34.5626V38.3695H37.3089V34.5626H37.9818ZM40.0019 38.3695V34.5626H41.4295C41.7219 34.5626 41.9673 34.6135 42.1656 34.7151C42.3651 34.8167 42.5156 34.9592 42.6173 35.1426C42.7201 35.3248 42.7715 35.5373 42.7715 35.7802C42.7715 36.0243 42.7195 36.2362 42.6154 36.4159C42.5126 36.5943 42.3607 36.7325 42.16 36.8304C41.9592 36.9271 41.7126 36.9754 41.4202 36.9754H40.4034V36.4029H41.3272C41.4983 36.4029 41.6383 36.3793 41.7473 36.3322C41.8564 36.2839 41.9369 36.2139 41.989 36.1222C42.0423 36.0293 42.0689 35.9152 42.0689 35.7802C42.0689 35.6451 42.0423 35.5299 41.989 35.4344C41.9357 35.3378 41.8545 35.2647 41.7455 35.2151C41.6364 35.1643 41.4958 35.1389 41.3235 35.1389H40.6915V38.3695H40.0019ZM41.9685 36.6445L42.911 38.3695H42.1414L41.2157 36.6445H41.9685ZM44.5997 38.4253C44.3134 38.4253 44.0662 38.3658 43.858 38.2468C43.6511 38.1266 43.4918 37.9568 43.3803 37.7375C43.2688 37.5169 43.213 37.2573 43.213 36.9587C43.213 36.665 43.2688 36.4072 43.3803 36.1854C43.4931 35.9623 43.6505 35.7888 43.8524 35.6649C44.0544 35.5398 44.2917 35.4772 44.5644 35.4772C44.7403 35.4772 44.9064 35.5057 45.0625 35.5627C45.2199 35.6185 45.3587 35.7052 45.4789 35.8229C45.6004 35.9407 45.6958 36.0906 45.7652 36.2728C45.8346 36.4537 45.8693 36.6693 45.8693 36.9196V37.126H43.529V36.6724H45.2243C45.223 36.5435 45.1951 36.4289 45.1406 36.3285C45.0861 36.2269 45.0099 36.147 44.912 36.0887C44.8153 36.0305 44.7025 36.0014 44.5737 36.0014C44.4361 36.0014 44.3153 36.0348 44.2112 36.1017C44.1071 36.1674 44.0259 36.2542 43.9677 36.362C43.9107 36.4686 43.8816 36.5857 43.8803 36.7133V37.1092C43.8803 37.2753 43.9107 37.4178 43.9714 37.5368C44.0321 37.6545 44.117 37.7449 44.2261 37.8081C44.3351 37.8701 44.4628 37.9011 44.609 37.9011C44.7069 37.9011 44.7955 37.8875 44.8748 37.8602C44.9541 37.8317 45.0229 37.7902 45.0811 37.7356C45.1394 37.6811 45.1834 37.6136 45.2131 37.533L45.8414 37.6037C45.8017 37.7697 45.7261 37.9147 45.6146 38.0386C45.5043 38.1613 45.363 38.2567 45.1908 38.3249C45.0185 38.3918 44.8215 38.4253 44.5997 38.4253ZM47.2601 38.4271C47.0792 38.4271 46.9162 38.3949 46.7713 38.3305C46.6275 38.2648 46.5135 38.1681 46.4292 38.0405C46.3462 37.9129 46.3047 37.7555 46.3047 37.5684C46.3047 37.4073 46.3344 37.274 46.3939 37.1687C46.4534 37.0634 46.5346 36.9791 46.6374 36.9159C46.7403 36.8527 46.8561 36.805 46.985 36.7728C47.1151 36.7393 47.2496 36.7152 47.3884 36.7003C47.5557 36.6829 47.6914 36.6674 47.7955 36.6538C47.8996 36.6389 47.9752 36.6166 48.0222 36.5869C48.0706 36.5559 48.0947 36.5082 48.0947 36.4438V36.4326C48.0947 36.2926 48.0532 36.1842 47.9702 36.1073C47.8872 36.0305 47.7676 35.9921 47.6114 35.9921C47.4466 35.9921 47.3159 36.028 47.2192 36.0999C47.1238 36.1718 47.0594 36.2567 47.0259 36.3545L46.3976 36.2653C46.4472 36.0918 46.529 35.9468 46.643 35.8304C46.757 35.7126 46.8964 35.6247 47.0612 35.5664C47.226 35.5069 47.4082 35.4772 47.6077 35.4772C47.7453 35.4772 47.8822 35.4933 48.0185 35.5255C48.1548 35.5577 48.2794 35.611 48.3921 35.6854C48.5049 35.7585 48.5954 35.8582 48.6635 35.9846C48.7329 36.111 48.7676 36.269 48.7676 36.4586V38.3695H48.1208V37.9773H48.0985C48.0576 38.0566 47.9999 38.131 47.9256 38.2004C47.8525 38.2685 47.7601 38.3237 47.6486 38.3658C47.5383 38.4067 47.4088 38.4271 47.2601 38.4271ZM47.4349 37.9327C47.5699 37.9327 47.687 37.906 47.7862 37.8528C47.8853 37.7982 47.9615 37.7264 48.0148 37.6371C48.0693 37.5479 48.0966 37.4506 48.0966 37.3453V37.0089C48.0755 37.0262 48.0396 37.0423 47.9888 37.0572C47.9392 37.0721 47.8834 37.0851 47.8215 37.0962C47.7595 37.1074 47.6982 37.1173 47.6375 37.126C47.5767 37.1346 47.5241 37.1421 47.4795 37.1483C47.3791 37.1619 47.2892 37.1842 47.2099 37.2152C47.1306 37.2462 47.068 37.2895 47.0222 37.3453C46.9763 37.3998 46.9534 37.4705 46.9534 37.5572C46.9534 37.6811 46.9987 37.7747 47.0891 37.8379C47.1796 37.9011 47.2948 37.9327 47.4349 37.9327ZM50.5038 38.4197C50.2795 38.4197 50.0787 38.3621 49.9015 38.2468C49.7243 38.1316 49.5843 37.9643 49.4814 37.7449C49.3786 37.5256 49.3271 37.2592 49.3271 36.9457C49.3271 36.6284 49.3792 36.3607 49.4833 36.1426C49.5886 35.9233 49.7305 35.7579 49.9089 35.6463C50.0874 35.5336 50.2863 35.4772 50.5056 35.4772C50.6729 35.4772 50.8105 35.5057 50.9183 35.5627C51.0261 35.6185 51.1116 35.686 51.1748 35.7653C51.238 35.8434 51.2869 35.9171 51.3216 35.9865H51.3495V34.5626H52.0243V38.3695H51.3625V37.9197H51.3216C51.2869 37.9891 51.2368 38.0628 51.1711 38.1409C51.1054 38.2177 51.0187 38.2834 50.9108 38.3379C50.803 38.3924 50.6673 38.4197 50.5038 38.4197ZM50.6915 37.8676C50.834 37.8676 50.9555 37.8292 51.0558 37.7524C51.1562 37.6743 51.2324 37.5659 51.2845 37.4271C51.3365 37.2883 51.3625 37.1266 51.3625 36.9419C51.3625 36.7573 51.3365 36.5968 51.2845 36.4605C51.2337 36.3242 51.1581 36.2182 51.0577 36.1426C50.9586 36.0671 50.8365 36.0293 50.6915 36.0293C50.5416 36.0293 50.4164 36.0683 50.316 36.1464C50.2156 36.2244 50.1401 36.3322 50.0892 36.4698C50.0384 36.6073 50.013 36.7647 50.013 36.9419C50.013 37.1204 50.0384 37.2796 50.0892 37.4197C50.1413 37.5584 50.2175 37.6681 50.3179 37.7487C50.4195 37.828 50.544 37.8676 50.6915 37.8676ZM53.1595 39.4402C53.0678 39.4402 52.983 39.4328 52.9049 39.4179C52.8281 39.4042 52.7667 39.3881 52.7209 39.3696L52.877 38.8454C52.9749 38.8739 53.0623 38.8875 53.1391 38.8863C53.2159 38.885 53.2835 38.8609 53.3417 38.8138C53.4012 38.7679 53.4514 38.6911 53.4923 38.5833L53.5499 38.429L52.5145 35.5144H53.2283L53.8863 37.6706H53.9161L54.576 35.5144H55.2916L54.1484 38.7152C54.0952 38.8664 54.0245 38.9959 53.9365 39.1037C53.8486 39.2128 53.7407 39.2958 53.6131 39.3528C53.4867 39.4111 53.3355 39.4402 53.1595 39.4402Z" fill="#344054"/>
<rect x="24.5928" y="43.2953" width="34.0238" height="3.27152" rx="1.63576" fill="#EAECF0"/>
<rect x="24.5928" y="49.1841" width="22.2463" height="3.27152" rx="1.63576" fill="#EAECF0"/>
<path d="M24.9683 78.3933V74.5865H26.3958C26.6883 74.5865 26.9336 74.641 27.1319 74.75C27.3314 74.8591 27.482 75.009 27.5836 75.1999C27.6865 75.3895 27.7379 75.6051 27.7379 75.8467C27.7379 76.0909 27.6865 76.3077 27.5836 76.4973C27.4808 76.6869 27.329 76.8362 27.1282 76.9453C26.9274 77.0531 26.6802 77.107 26.3865 77.107H25.4404V76.5401H26.2936C26.4646 76.5401 26.6046 76.5103 26.7137 76.4508C26.8227 76.3914 26.9033 76.3096 26.9553 76.2055C27.0086 76.1014 27.0353 75.9818 27.0353 75.8467C27.0353 75.7117 27.0086 75.5927 26.9553 75.4898C26.9033 75.387 26.8221 75.3071 26.7118 75.25C26.6028 75.1918 26.4621 75.1627 26.2899 75.1627H25.6579V78.3933H24.9683ZM28.3072 78.3933V75.5382H28.98V78.3933H28.3072ZM28.6455 75.1329C28.5389 75.1329 28.4472 75.0976 28.3704 75.027C28.2935 74.9551 28.2551 74.869 28.2551 74.7686C28.2551 74.667 28.2935 74.5809 28.3704 74.5102C28.4472 74.4384 28.5389 74.4024 28.6455 74.4024C28.7533 74.4024 28.845 74.4384 28.9206 74.5102C28.9974 74.5809 29.0358 74.667 29.0358 74.7686C29.0358 74.869 28.9974 74.9551 28.9206 75.027C28.845 75.0976 28.7533 75.1329 28.6455 75.1329ZM30.9174 78.4491C30.6324 78.4491 30.3876 78.3865 30.1832 78.2613C29.9799 78.1362 29.8232 77.9633 29.7129 77.7427C29.6038 77.5209 29.5493 77.2656 29.5493 76.9769C29.5493 76.6869 29.6051 76.431 29.7166 76.2092C29.8281 75.9861 29.9855 75.8127 30.1887 75.6887C30.3932 75.5636 30.6349 75.501 30.9137 75.501C31.1454 75.501 31.3505 75.5437 31.529 75.6292C31.7086 75.7135 31.8518 75.8331 31.9583 75.988C32.0649 76.1417 32.1256 76.3213 32.1405 76.5271H31.4974C31.4713 76.3895 31.4094 76.2749 31.3115 76.1832C31.2148 76.0902 31.0853 76.0438 30.923 76.0438C30.7854 76.0438 30.6646 76.0809 30.5605 76.1553C30.4564 76.2284 30.3752 76.3337 30.317 76.4713C30.26 76.6088 30.2315 76.7737 30.2315 76.9657C30.2315 77.1603 30.26 77.3276 30.317 77.4676C30.374 77.6064 30.4539 77.7136 30.5568 77.7892C30.6609 77.8635 30.7829 77.9007 30.923 77.9007C31.0221 77.9007 31.1107 77.8821 31.1888 77.845C31.2681 77.8065 31.3344 77.7514 31.3877 77.6795C31.441 77.6077 31.4775 77.5203 31.4974 77.4174H32.1405C32.1244 77.6194 32.0649 77.7985 31.9621 77.9546C31.8592 78.1095 31.7192 78.231 31.542 78.319C31.3648 78.4057 31.1566 78.4491 30.9174 78.4491ZM33.3064 77.4974L33.3046 76.6851H33.4124L34.4385 75.5382H35.2247L33.9626 76.9434H33.8232L33.3064 77.4974ZM32.693 78.3933V74.5865H33.3659V78.3933H32.693ZM34.4849 78.3933L33.5555 77.094L34.0091 76.62L35.2898 78.3933H34.4849ZM37.493 77.1925V75.5382H38.1659V78.3933H37.5134V77.8859H37.4837C37.4192 78.0457 37.3133 78.1764 37.1658 78.2781C37.0196 78.3797 36.8393 78.4305 36.6249 78.4305C36.4378 78.4305 36.2723 78.389 36.1286 78.3059C35.9861 78.2217 35.8746 78.0996 35.794 77.9398C35.7135 77.7787 35.6732 77.5841 35.6732 77.3561V75.5382H36.3461V77.252C36.3461 77.4329 36.3956 77.5767 36.4948 77.6832C36.5939 77.7898 36.724 77.8431 36.8851 77.8431C36.9843 77.8431 37.0803 77.8189 37.1733 77.7706C37.2662 77.7223 37.3424 77.6504 37.4019 77.555C37.4626 77.4583 37.493 77.3375 37.493 77.1925ZM38.8578 79.464V75.5382H39.5195V76.0103H39.5586C39.5933 75.9409 39.6422 75.8672 39.7054 75.7891C39.7686 75.7098 39.8541 75.6423 39.9619 75.5865C40.0698 75.5295 40.2073 75.501 40.3746 75.501C40.5952 75.501 40.7941 75.5574 40.9713 75.6701C41.1497 75.7817 41.291 75.9471 41.3951 76.1664C41.5004 76.3845 41.5531 76.6522 41.5531 76.9695C41.5531 77.283 41.5017 77.5494 41.3988 77.7687C41.296 77.9881 41.1559 78.1554 40.9787 78.2706C40.8015 78.3859 40.6008 78.4435 40.3765 78.4435C40.2129 78.4435 40.0772 78.4162 39.9694 78.3617C39.8616 78.3072 39.7748 78.2415 39.7091 78.1647C39.6447 78.0866 39.5945 78.0129 39.5586 77.9435H39.5307V79.464H38.8578ZM39.5177 76.9657C39.5177 77.1504 39.5437 77.3121 39.5958 77.4509C39.649 77.5897 39.7253 77.6981 39.8244 77.7762C39.9248 77.853 40.0462 77.8914 40.1887 77.8914C40.3374 77.8914 40.462 77.8518 40.5623 77.7725C40.6627 77.6919 40.7383 77.5822 40.7891 77.4435C40.8412 77.3034 40.8672 77.1442 40.8672 76.9657C40.8672 76.7885 40.8418 76.6312 40.791 76.4936C40.7402 76.356 40.6646 76.2482 40.5642 76.1702C40.4638 76.0921 40.3387 76.0531 40.1887 76.0531C40.045 76.0531 39.9229 76.0909 39.8225 76.1664C39.7222 76.242 39.6459 76.348 39.5939 76.4843C39.5431 76.6206 39.5177 76.7811 39.5177 76.9657Z" fill="#344054"/>
<rect x="24.5928" y="83.3192" width="34.0238" height="3.27152" rx="1.63576" fill="#EAECF0"/>
<rect x="24.5928" y="89.2079" width="22.2463" height="3.27152" rx="1.63576" fill="#EAECF0"/>
<path d="M25.6579 114.61V118.417H24.9683V114.61H25.6579ZM27.0478 116.744V118.417H26.3749V115.562H27.0181V116.047H27.0515C27.1172 115.887 27.2219 115.76 27.3657 115.666C27.5107 115.572 27.6897 115.525 27.9029 115.525C28.0999 115.525 28.2715 115.567 28.4178 115.651C28.5652 115.735 28.6792 115.858 28.7598 116.017C28.8416 116.177 28.8818 116.371 28.8806 116.599V118.417H28.2077V116.703C28.2077 116.512 28.1581 116.363 28.059 116.255C27.9611 116.147 27.8254 116.094 27.6519 116.094C27.5342 116.094 27.4295 116.12 27.3378 116.172C27.2473 116.222 27.1761 116.296 27.124 116.393C27.0732 116.49 27.0478 116.607 27.0478 116.744ZM30.7255 115.188V114.61H33.7628V115.188H32.5862V118.417H31.9021V115.188H30.7255ZM34.0221 118.417V115.562H34.6745V116.038H34.7043C34.7563 115.873 34.8455 115.746 34.9719 115.657C35.0996 115.566 35.2452 115.521 35.4088 115.521C35.4459 115.521 35.4875 115.523 35.5333 115.527C35.5804 115.529 35.6194 115.533 35.6504 115.54V116.159C35.6219 116.149 35.5767 116.14 35.5147 116.133C35.454 116.124 35.3951 116.12 35.3381 116.12C35.2155 116.12 35.1052 116.146 35.0073 116.2C34.9106 116.252 34.8344 116.324 34.7786 116.417C34.7229 116.51 34.695 116.617 34.695 116.739V118.417H34.0221ZM36.8679 118.475C36.687 118.475 36.5241 118.443 36.3791 118.378C36.2353 118.312 36.1213 118.216 36.037 118.088C35.954 117.96 35.9125 117.803 35.9125 117.616C35.9125 117.455 35.9422 117.322 36.0017 117.216C36.0612 117.111 36.1424 117.027 36.2452 116.964C36.3481 116.9 36.464 116.853 36.5928 116.82C36.723 116.787 36.8574 116.763 36.9962 116.748C37.1635 116.731 37.2992 116.715 37.4033 116.701C37.5074 116.687 37.583 116.664 37.6301 116.635C37.6784 116.604 37.7026 116.556 37.7026 116.491V116.48C37.7026 116.34 37.661 116.232 37.578 116.155C37.495 116.078 37.3754 116.04 37.2193 116.04C37.0544 116.04 36.9237 116.076 36.827 116.147C36.7316 116.219 36.6672 116.304 36.6337 116.402L36.0054 116.313C36.055 116.139 36.1368 115.994 36.2508 115.878C36.3648 115.76 36.5042 115.672 36.669 115.614C36.8339 115.555 37.016 115.525 37.2155 115.525C37.3531 115.525 37.49 115.541 37.6263 115.573C37.7627 115.605 37.8872 115.659 38 115.733C38.1127 115.806 38.2032 115.906 38.2713 116.032C38.3407 116.159 38.3754 116.317 38.3754 116.506V118.417H37.7286V118.025H37.7063C37.6654 118.104 37.6078 118.179 37.5334 118.248C37.4603 118.316 37.368 118.371 37.2564 118.413C37.1461 118.454 37.0166 118.475 36.8679 118.475ZM37.0427 117.98C37.1777 117.98 37.2948 117.954 37.394 117.9C37.4931 117.846 37.5693 117.774 37.6226 117.685C37.6771 117.596 37.7044 117.498 37.7044 117.393V117.056C37.6833 117.074 37.6474 117.09 37.5966 117.105C37.547 117.12 37.4913 117.133 37.4293 117.144C37.3673 117.155 37.306 117.165 37.2453 117.174C37.1846 117.182 37.1319 117.19 37.0873 117.196C36.9869 117.21 36.8971 117.232 36.8178 117.263C36.7384 117.294 36.6759 117.337 36.63 117.393C36.5842 117.447 36.5612 117.518 36.5612 117.605C36.5612 117.729 36.6065 117.822 36.6969 117.885C36.7874 117.949 36.9026 117.98 37.0427 117.98ZM39.7249 116.744V118.417H39.0521V115.562H39.6952V116.047H39.7287C39.7943 115.887 39.8991 115.76 40.0428 115.666C40.1878 115.572 40.3669 115.525 40.58 115.525C40.777 115.525 40.9487 115.567 41.0949 115.651C41.2424 115.735 41.3564 115.858 41.4369 116.017C41.5187 116.177 41.559 116.371 41.5577 116.599V118.417H40.8848V116.703C40.8848 116.512 40.8353 116.363 40.7361 116.255C40.6382 116.147 40.5025 116.094 40.3291 116.094C40.2113 116.094 40.1066 116.12 40.0149 116.172C39.9245 116.222 39.8532 116.296 39.8012 116.393C39.7503 116.49 39.7249 116.607 39.7249 116.744ZM44.4984 116.317L43.885 116.384C43.8676 116.322 43.8373 116.263 43.7939 116.209C43.7518 116.154 43.6948 116.11 43.6229 116.077C43.551 116.043 43.463 116.027 43.3589 116.027C43.2189 116.027 43.1012 116.057 43.0058 116.118C42.9116 116.178 42.8651 116.257 42.8663 116.354C42.8651 116.437 42.8955 116.504 42.9574 116.556C43.0206 116.608 43.1247 116.651 43.2697 116.685L43.7567 116.789C44.0269 116.847 44.2276 116.939 44.359 117.066C44.4916 117.192 44.5585 117.358 44.5597 117.562C44.5585 117.742 44.5058 117.9 44.4017 118.038C44.2989 118.174 44.1557 118.281 43.9723 118.358C43.7889 118.434 43.5783 118.473 43.3403 118.473C42.9909 118.473 42.7096 118.4 42.4964 118.254C42.2833 118.106 42.1563 117.901 42.1154 117.638L42.7715 117.575C42.8013 117.704 42.8645 117.801 42.9611 117.867C43.0578 117.933 43.1836 117.965 43.3385 117.965C43.4983 117.965 43.6266 117.933 43.7233 117.867C43.8212 117.801 43.8701 117.72 43.8701 117.623C43.8701 117.542 43.8385 117.474 43.7753 117.421C43.7133 117.368 43.6167 117.327 43.4853 117.298L42.9983 117.196C42.7245 117.139 42.5218 117.043 42.3905 116.908C42.2591 116.771 42.1941 116.599 42.1953 116.391C42.1941 116.215 42.2418 116.063 42.3384 115.934C42.4363 115.804 42.572 115.703 42.7455 115.633C42.9203 115.561 43.1216 115.525 43.3496 115.525C43.6842 115.525 43.9476 115.596 44.1396 115.739C44.333 115.881 44.4525 116.074 44.4984 116.317ZM45.1146 118.417V115.562H45.7875V118.417H45.1146ZM45.4529 115.157C45.3463 115.157 45.2546 115.121 45.1778 115.051C45.101 114.979 45.0625 114.893 45.0625 114.792C45.0625 114.691 45.101 114.605 45.1778 114.534C45.2546 114.462 45.3463 114.426 45.4529 114.426C45.5607 114.426 45.6524 114.462 45.728 114.534C45.8048 114.605 45.8432 114.691 45.8432 114.792C45.8432 114.893 45.8048 114.979 45.728 115.051C45.6524 115.121 45.5607 115.157 45.4529 115.157ZM47.9051 115.562V116.082H46.2638V115.562H47.9051ZM46.669 114.878H47.3419V117.558C47.3419 117.649 47.3555 117.718 47.3828 117.767C47.4113 117.814 47.4485 117.846 47.4943 117.863C47.5402 117.881 47.591 117.889 47.6468 117.889C47.6889 117.889 47.7273 117.886 47.762 117.88C47.7979 117.874 47.8252 117.868 47.8438 117.863L47.9572 118.389C47.9212 118.402 47.8698 118.415 47.8029 118.43C47.7372 118.445 47.6567 118.454 47.5613 118.456C47.3927 118.461 47.2409 118.436 47.1058 118.38C46.9708 118.323 46.8636 118.235 46.7843 118.116C46.7062 117.997 46.6678 117.848 46.669 117.67V114.878Z" fill="#344054"/>
<rect x="24.5928" y="123.343" width="34.0238" height="3.27152" rx="1.63576" fill="#EAECF0"/>
<rect x="24.5928" y="129.232" width="22.2463" height="3.27152" rx="1.63576" fill="#EAECF0"/>
<path d="M26.2583 159.75H24.9683V155.943H26.2843C26.6623 155.943 26.9869 156.019 27.2583 156.171C27.5309 156.322 27.7404 156.54 27.8866 156.824C28.0328 157.108 28.1059 157.447 28.1059 157.842C28.1059 158.239 28.0322 158.58 27.8847 158.865C27.7385 159.15 27.5272 159.368 27.2509 159.521C26.9758 159.673 26.6449 159.75 26.2583 159.75ZM25.6579 159.153H26.2248C26.49 159.153 26.7112 159.105 26.8884 159.008C27.0656 158.91 27.1988 158.764 27.2881 158.571C27.3773 158.376 27.4219 158.134 27.4219 157.842C27.4219 157.551 27.3773 157.31 27.2881 157.117C27.1988 156.924 27.0669 156.78 26.8921 156.684C26.7186 156.588 26.503 156.539 26.2453 156.539H25.6579V159.153ZM29.9954 159.805C29.7092 159.805 29.4619 159.746 29.2538 159.627C29.0468 159.507 28.8876 159.337 28.776 159.118C28.6645 158.897 28.6087 158.637 28.6087 158.339C28.6087 158.045 28.6645 157.787 28.776 157.565C28.8888 157.342 29.0462 157.169 29.2482 157.045C29.4502 156.92 29.6875 156.857 29.9601 156.857C30.1361 156.857 30.3021 156.886 30.4583 156.943C30.6157 156.998 30.7544 157.085 30.8746 157.203C30.9961 157.321 31.0915 157.471 31.1609 157.653C31.2303 157.834 31.265 158.049 31.265 158.3V158.506H28.9247V158.052H30.62C30.6188 157.924 30.5909 157.809 30.5363 157.709C30.4818 157.607 30.4056 157.527 30.3077 157.469C30.2111 157.41 30.0983 157.381 29.9694 157.381C29.8319 157.381 29.711 157.415 29.6069 157.482C29.5028 157.547 29.4217 157.634 29.3634 157.742C29.3064 157.849 29.2773 157.966 29.2761 158.093V158.489C29.2761 158.655 29.3064 158.798 29.3671 158.917C29.4279 159.034 29.5128 159.125 29.6218 159.188C29.7309 159.25 29.8585 159.281 30.0047 159.281C30.1026 159.281 30.1912 159.267 30.2705 159.24C30.3498 159.212 30.4186 159.17 30.4769 159.116C30.5351 159.061 30.5791 158.994 30.6088 158.913L31.2371 158.984C31.1975 159.15 31.1219 159.295 31.0103 159.419C30.9001 159.541 30.7588 159.637 30.5865 159.705C30.4143 159.772 30.2172 159.805 29.9954 159.805ZM32.5072 155.943V159.75H31.8343V155.943H32.5072ZM33.1991 159.75V156.894H33.872V159.75H33.1991ZM33.5374 156.489C33.4308 156.489 33.3391 156.454 33.2623 156.383C33.1855 156.311 33.1471 156.225 33.1471 156.125C33.1471 156.023 33.1855 155.937 33.2623 155.866C33.3391 155.795 33.4308 155.759 33.5374 155.759C33.6452 155.759 33.7369 155.795 33.8125 155.866C33.8893 155.937 33.9278 156.023 33.9278 156.125C33.9278 156.225 33.8893 156.311 33.8125 156.383C33.7369 156.454 33.6452 156.489 33.5374 156.489ZM37.1142 156.894L36.0975 159.75H35.3539L34.3372 156.894H35.0547L35.7108 159.015H35.7406L36.3986 156.894H37.1142ZM38.7467 159.805C38.4605 159.805 38.2133 159.746 38.0051 159.627C37.7981 159.507 37.6389 159.337 37.5274 159.118C37.4158 158.897 37.3601 158.637 37.3601 158.339C37.3601 158.045 37.4158 157.787 37.5274 157.565C37.6401 157.342 37.7975 157.169 37.9995 157.045C38.2015 156.92 38.4388 156.857 38.7114 156.857C38.8874 156.857 39.0534 156.886 39.2096 156.943C39.367 156.998 39.5058 157.085 39.626 157.203C39.7474 157.321 39.8428 157.471 39.9122 157.653C39.9816 157.834 40.0163 158.049 40.0163 158.3V158.506H37.6761V158.052H39.3713C39.3701 157.924 39.3422 157.809 39.2877 157.709C39.2331 157.607 39.1569 157.527 39.059 157.469C38.9624 157.41 38.8496 157.381 38.7207 157.381C38.5832 157.381 38.4623 157.415 38.3582 157.482C38.2542 157.547 38.173 157.634 38.1147 157.742C38.0577 157.849 38.0286 157.966 38.0274 158.093V158.489C38.0274 158.655 38.0577 158.798 38.1185 158.917C38.1792 159.034 38.2641 159.125 38.3731 159.188C38.4822 159.25 38.6098 159.281 38.756 159.281C38.8539 159.281 38.9425 159.267 39.0218 159.24C39.1012 159.212 39.1699 159.17 39.2282 159.116C39.2864 159.061 39.3304 158.994 39.3602 158.913L39.9884 158.984C39.9488 159.15 39.8732 159.295 39.7617 159.419C39.6514 159.541 39.5101 159.637 39.3378 159.705C39.1656 159.772 38.9686 159.805 38.7467 159.805ZM40.5856 159.75V156.894H41.238V157.37H41.2678C41.3198 157.205 41.409 157.078 41.5354 156.989C41.6631 156.899 41.8087 156.853 41.9723 156.853C42.0094 156.853 42.0509 156.855 42.0968 156.859C42.1439 156.862 42.1829 156.866 42.2139 156.872V157.491C42.1854 157.481 42.1402 157.472 42.0782 157.465C42.0175 157.456 41.9586 157.452 41.9016 157.452C41.7789 157.452 41.6686 157.479 41.5708 157.532C41.4741 157.584 41.3979 157.656 41.3421 157.749C41.2864 157.842 41.2585 157.95 41.2585 158.071V159.75H40.5856ZM43.8074 159.805C43.5211 159.805 43.2739 159.746 43.0657 159.627C42.8588 159.507 42.6995 159.337 42.588 159.118C42.4765 158.897 42.4207 158.637 42.4207 158.339C42.4207 158.045 42.4765 157.787 42.588 157.565C42.7008 157.342 42.8581 157.169 43.0601 157.045C43.2621 156.92 43.4994 156.857 43.7721 156.857C43.948 156.857 44.1141 156.886 44.2702 156.943C44.4276 156.998 44.5664 157.085 44.6866 157.203C44.808 157.321 44.9035 157.471 44.9729 157.653C45.0422 157.834 45.0769 158.049 45.0769 158.3V158.506H42.7367V158.052H44.4319C44.4307 157.924 44.4028 157.809 44.3483 157.709C44.2938 157.607 44.2176 157.527 44.1197 157.469C44.023 157.41 43.9102 157.381 43.7813 157.381C43.6438 157.381 43.523 157.415 43.4189 157.482C43.3148 157.547 43.2336 157.634 43.1754 157.742C43.1184 157.849 43.0892 157.966 43.088 158.093V158.489C43.088 158.655 43.1184 158.798 43.1791 158.917C43.2398 159.034 43.3247 159.125 43.4337 159.188C43.5428 159.25 43.6704 159.281 43.8167 159.281C43.9146 159.281 44.0032 159.267 44.0825 159.24C44.1618 159.212 44.2306 159.17 44.2888 159.116C44.347 159.061 44.391 158.994 44.4208 158.913L45.0491 158.984C45.0094 159.15 44.9338 159.295 44.8223 159.419C44.712 159.541 44.5707 159.637 44.3985 159.705C44.2262 159.772 44.0292 159.805 43.8074 159.805ZM46.7057 159.8C46.4814 159.8 46.2807 159.742 46.1035 159.627C45.9263 159.512 45.7862 159.344 45.6834 159.125C45.5805 158.906 45.5291 158.639 45.5291 158.326C45.5291 158.008 45.5811 157.741 45.6852 157.523C45.7906 157.303 45.9325 157.138 46.1109 157.026C46.2894 156.914 46.4883 156.857 46.7076 156.857C46.8749 156.857 47.0124 156.886 47.1203 156.943C47.2281 156.998 47.3136 157.066 47.3768 157.145C47.44 157.223 47.4889 157.297 47.5236 157.367H47.5515V155.943H48.2262V159.75H47.5645V159.3H47.5236C47.4889 159.369 47.4387 159.443 47.3731 159.521C47.3074 159.598 47.2206 159.663 47.1128 159.718C47.005 159.772 46.8693 159.8 46.7057 159.8ZM46.8935 159.248C47.036 159.248 47.1574 159.209 47.2578 159.132C47.3582 159.054 47.4344 158.946 47.4864 158.807C47.5385 158.668 47.5645 158.507 47.5645 158.322C47.5645 158.137 47.5385 157.977 47.4864 157.841C47.4356 157.704 47.36 157.598 47.2597 157.523C47.1605 157.447 47.0385 157.409 46.8935 157.409C46.7435 157.409 46.6184 157.448 46.518 157.526C46.4176 157.604 46.342 157.712 46.2912 157.85C46.2404 157.987 46.215 158.145 46.215 158.322C46.215 158.5 46.2404 158.66 46.2912 158.8C46.3433 158.938 46.4195 159.048 46.5199 159.129C46.6215 159.208 46.746 159.248 46.8935 159.248Z" fill="#344054"/>
<rect x="24.5928" y="164.675" width="34.0238" height="3.27152" rx="1.63576" fill="#EAECF0"/>
<rect x="24.5928" y="170.564" width="22.2463" height="3.27152" rx="1.63576" fill="#EAECF0"/>
<g clip-path="url(#clip0_168_651)">
<rect x="8.23535" y="31.4066" width="9.16025" height="9.16025" rx="4.58013" fill="#2FB5C0"/>
<g clip-path="url(#clip1_168_651)">
<path d="M14.8515 34.46L12.0525 37.259L10.7803 35.9867" stroke="white" stroke-width="0.654304" stroke-linecap="round" stroke-linejoin="round"/>
</g>
</g>
<rect x="12.4883" y="43.1841" width="0.654304" height="26.1722" rx="0.327152" fill="#2FB5C0"/>
<g clip-path="url(#clip2_168_651)">
<rect x="8.23535" y="71.9734" width="9.16025" height="9.16025" rx="4.58013" fill="#2FB5C0"/>
<g clip-path="url(#clip3_168_651)">
<path d="M14.8515 75.0269L12.0525 77.8258L10.7803 76.5536" stroke="white" stroke-width="0.654304" stroke-linecap="round" stroke-linejoin="round"/>
</g>
</g>
<rect x="12.4883" y="83.7509" width="0.654304" height="26.1722" rx="0.327152" fill="#2FB5C0"/>
<g clip-path="url(#clip4_168_651)">
<rect x="8.23535" y="112.54" width="9.16025" height="9.16025" rx="4.58013" fill="#2FB5C0"/>
<g clip-path="url(#clip5_168_651)">
<path d="M14.8515 115.594L12.0525 118.393L10.7803 117.12" stroke="white" stroke-width="0.654304" stroke-linecap="round" stroke-linejoin="round"/>
</g>
</g>
<rect x="12.4883" y="124.318" width="0.654304" height="26.1722" rx="0.327152" fill="#2FB5C0"/>
<rect x="8.23535" y="153.107" width="9.16025" height="9.16025" rx="4.58013" fill="#1C6D73"/>
<g clip-path="url(#clip6_168_651)">
<path d="M14.2148 156.161L11.4158 158.96L10.1436 157.687" stroke="white" stroke-width="0.654304" stroke-linecap="round" stroke-linejoin="round"/>
<path d="M15.4872 156.161L12.6883 158.96L11.416 157.687" stroke="white" stroke-width="0.654304" stroke-linecap="round" stroke-linejoin="round"/>
</g>
<g filter="url(#filter0_d_168_651)">
<rect x="3" width="114.215" height="19.7055" rx="2.61722" fill="white" shape-rendering="crispEdges"/>
<rect x="3.32715" y="0.327152" width="113.56" height="19.0512" rx="2.29006" stroke="#F3F4F6" stroke-width="0.654304" shape-rendering="crispEdges"/>
<path d="M8.70373 11.8528V7.09421H10.4882C10.8538 7.09421 11.1605 7.16237 11.4083 7.29868C11.6577 7.43499 11.8459 7.62242 11.9729 7.86097C12.1015 8.09797 12.1658 8.3675 12.1658 8.66956C12.1658 8.97471 12.1015 9.24579 11.9729 9.48279C11.8444 9.71979 11.6546 9.90645 11.4037 10.0428C11.1527 10.1775 10.8437 10.2449 10.4766 10.2449H9.2939V9.53623H10.3604C10.5742 9.53623 10.7492 9.49906 10.8855 9.4247C11.0218 9.35035 11.1225 9.24811 11.1876 9.118C11.2542 8.98788 11.2875 8.8384 11.2875 8.66956C11.2875 8.50072 11.2542 8.35201 11.1876 8.22344C11.1225 8.09487 11.0211 7.99496 10.8832 7.92371C10.7469 7.8509 10.5711 7.8145 10.3558 7.8145H9.56575V11.8528H8.70373ZM13.8405 11.9248C13.6143 11.9248 13.4106 11.8845 13.2294 11.804C13.0497 11.7219 12.9072 11.6011 12.8018 11.4415C12.6981 11.282 12.6462 11.0852 12.6462 10.8513C12.6462 10.65 12.6833 10.4835 12.7577 10.3518C12.832 10.2201 12.9335 10.1148 13.0621 10.0358C13.1906 9.95679 13.3355 9.89715 13.4966 9.85688C13.6592 9.81505 13.8273 9.78485 14.0008 9.76626C14.2099 9.74457 14.3795 9.72521 14.5096 9.70817C14.6397 9.68958 14.7342 9.6617 14.7931 9.62453C14.8535 9.5858 14.8837 9.52616 14.8837 9.44561V9.43167C14.8837 9.25663 14.8318 9.1211 14.728 9.02506C14.6243 8.92902 14.4748 8.881 14.2796 8.881C14.0736 8.881 13.9102 8.92592 13.7893 9.01576C13.6701 9.10561 13.5895 9.21171 13.5477 9.33409L12.7623 9.22256C12.8243 9.00569 12.9265 8.82446 13.069 8.67885C13.2116 8.5317 13.3858 8.42172 13.5918 8.34891C13.7979 8.27456 14.0256 8.23738 14.275 8.23738C14.4469 8.23738 14.6181 8.25752 14.7885 8.29779C14.9588 8.33807 15.1145 8.40468 15.2555 8.49762C15.3964 8.58901 15.5095 8.7137 15.5947 8.8717C15.6815 9.0297 15.7248 9.2272 15.7248 9.4642V11.8528H14.9162V11.3625H14.8884C14.8372 11.4617 14.7652 11.5546 14.6723 11.6413C14.5809 11.7265 14.4655 11.7955 14.3261 11.8481C14.1882 11.8993 14.0263 11.9248 13.8405 11.9248ZM14.0589 11.3068C14.2277 11.3068 14.3741 11.2735 14.498 11.2068C14.6219 11.1387 14.7172 11.0488 14.7838 10.9373C14.852 10.8258 14.886 10.7042 14.886 10.5725V10.152C14.8597 10.1737 14.8148 10.1938 14.7513 10.2124C14.6893 10.231 14.6196 10.2472 14.5422 10.2612C14.4647 10.2751 14.388 10.2875 14.3121 10.2983C14.2362 10.3092 14.1704 10.3185 14.1146 10.3262C13.9892 10.3433 13.8769 10.3712 13.7777 10.4099C13.6786 10.4486 13.6004 10.5028 13.543 10.5725C13.4857 10.6407 13.4571 10.729 13.4571 10.8374C13.4571 10.9923 13.5136 11.1093 13.6267 11.1883C13.7398 11.2673 13.8838 11.3068 14.0589 11.3068ZM18.1274 11.9225C17.7711 11.9225 17.4651 11.8443 17.2096 11.6878C16.9555 11.5314 16.7596 11.3153 16.6217 11.0396C16.4854 10.7623 16.4172 10.4432 16.4172 10.0823C16.4172 9.71979 16.4869 9.39992 16.6264 9.12264C16.7658 8.84382 16.9625 8.62696 17.2165 8.47206C17.4721 8.31561 17.7742 8.23738 18.1227 8.23738C18.4124 8.23738 18.6687 8.29082 18.8918 8.39771C19.1164 8.50304 19.2953 8.65252 19.4285 8.84615C19.5617 9.03822 19.6376 9.26283 19.6562 9.51997H18.8523C18.8198 9.34803 18.7423 9.20474 18.6199 9.09012C18.4991 8.97394 18.3372 8.91585 18.1343 8.91585C17.9624 8.91585 17.8114 8.96232 17.6812 9.05526C17.5511 9.14665 17.4497 9.27832 17.3769 9.45026C17.3056 9.6222 17.27 9.82822 17.27 10.0683C17.27 10.3115 17.3056 10.5206 17.3769 10.6957C17.4481 10.8692 17.548 11.0031 17.6766 11.0976C17.8067 11.1906 17.9593 11.237 18.1343 11.237C18.2582 11.237 18.369 11.2138 18.4666 11.1673C18.5657 11.1193 18.6486 11.0504 18.7152 10.9606C18.7818 10.8707 18.8275 10.7615 18.8523 10.6329H19.6562C19.6361 10.8854 19.5617 11.1093 19.4332 11.3044C19.3046 11.4981 19.1296 11.6499 18.9081 11.7598C18.6865 11.8683 18.4263 11.9225 18.1274 11.9225ZM21.1137 10.7328L21.1113 9.71747H21.2461L22.5287 8.28385H23.5115L21.9339 10.0404H21.7596L21.1137 10.7328ZM20.3469 11.8528V7.09421H21.188V11.8528H20.3469ZM22.5868 11.8528L21.425 10.2286L21.992 9.63614L23.5929 11.8528H22.5868ZM25.0991 11.9248C24.8729 11.9248 24.6692 11.8845 24.488 11.804C24.3083 11.7219 24.1658 11.6011 24.0605 11.4415C23.9567 11.282 23.9048 11.0852 23.9048 10.8513C23.9048 10.65 23.942 10.4835 24.0163 10.3518C24.0907 10.2201 24.1921 10.1148 24.3207 10.0358C24.4493 9.95679 24.5941 9.89715 24.7552 9.85688C24.9178 9.81505 25.0859 9.78485 25.2594 9.76626C25.4685 9.74457 25.6381 9.72521 25.7683 9.70817C25.8984 9.68958 25.9929 9.6617 26.0517 9.62453C26.1121 9.5858 26.1423 9.52616 26.1423 9.44561V9.43167C26.1423 9.25663 26.0904 9.1211 25.9867 9.02506C25.8829 8.92902 25.7334 8.881 25.5382 8.881C25.3322 8.881 25.1688 8.92592 25.048 9.01576C24.9287 9.10561 24.8481 9.21171 24.8063 9.33409L24.021 9.22256C24.0829 9.00569 24.1852 8.82446 24.3277 8.67885C24.4702 8.5317 24.6444 8.42172 24.8505 8.34891C25.0565 8.27456 25.2842 8.23738 25.5336 8.23738C25.7055 8.23738 25.8767 8.25752 26.0471 8.29779C26.2175 8.33807 26.3731 8.40468 26.5141 8.49762C26.6551 8.58901 26.7681 8.7137 26.8533 8.8717C26.9401 9.0297 26.9835 9.2272 26.9835 9.4642V11.8528H26.1749V11.3625H26.147C26.0959 11.4617 26.0238 11.5546 25.9309 11.6413C25.8395 11.7265 25.7241 11.7955 25.5847 11.8481C25.4468 11.8993 25.285 11.9248 25.0991 11.9248ZM25.3175 11.3068C25.4863 11.3068 25.6327 11.2735 25.7566 11.2068C25.8806 11.1387 25.9758 11.0488 26.0424 10.9373C26.1106 10.8258 26.1447 10.7042 26.1447 10.5725V10.152C26.1183 10.1737 26.0734 10.1938 26.0099 10.2124C25.9479 10.231 25.8782 10.2472 25.8008 10.2612C25.7233 10.2751 25.6467 10.2875 25.5708 10.2983C25.4949 10.3092 25.429 10.3185 25.3733 10.3262C25.2478 10.3433 25.1355 10.3712 25.0363 10.4099C24.9372 10.4486 24.859 10.5028 24.8017 10.5725C24.7444 10.6407 24.7157 10.729 24.7157 10.8374C24.7157 10.9923 24.7722 11.1093 24.8853 11.1883C24.9984 11.2673 25.1425 11.3068 25.3175 11.3068ZM29.3813 13.2655C29.0793 13.2655 28.8198 13.2244 28.603 13.1423C28.3861 13.0618 28.2118 12.9534 28.0802 12.817C27.9485 12.6807 27.8571 12.5297 27.806 12.364L28.5635 12.1804C28.5975 12.2501 28.6471 12.319 28.7122 12.3872C28.7772 12.4569 28.8647 12.5142 28.9747 12.5591C29.0862 12.6056 29.2264 12.6288 29.3953 12.6288C29.6338 12.6288 29.8313 12.5708 29.9878 12.4546C30.1442 12.3399 30.2224 12.151 30.2224 11.8876V11.2115H30.1806C30.1373 11.2982 30.0737 11.3873 29.9901 11.4787C29.908 11.5701 29.7988 11.6468 29.6625 11.7087C29.5277 11.7707 29.3581 11.8017 29.1536 11.8017C28.8795 11.8017 28.6308 11.7374 28.4078 11.6088C28.1863 11.4787 28.0097 11.2851 27.878 11.0279C27.7479 10.7692 27.6828 10.4455 27.6828 10.0567C27.6828 9.6648 27.7479 9.33409 27.878 9.06456C28.0097 8.79348 28.187 8.58823 28.4101 8.44882C28.6332 8.30786 28.8818 8.23738 29.1559 8.23738C29.3651 8.23738 29.537 8.27301 29.6718 8.34426C29.8081 8.41397 29.9165 8.49839 29.9971 8.59753C30.0776 8.69512 30.1388 8.78728 30.1806 8.87403H30.2271V8.28385H31.0566V11.9109C31.0566 12.216 30.9838 12.4685 30.8382 12.6683C30.6926 12.8682 30.4935 13.0176 30.241 13.1168C29.9885 13.2159 29.702 13.2655 29.3813 13.2655ZM29.3883 11.1418C29.5664 11.1418 29.7182 11.0984 29.8437 11.0117C29.9692 10.9249 30.0644 10.8002 30.1295 10.6376C30.1946 10.4749 30.2271 10.2798 30.2271 10.0521C30.2271 9.82745 30.1946 9.63072 30.1295 9.46188C30.066 9.29304 29.9715 9.16214 29.846 9.0692C29.7221 8.97471 29.5695 8.92747 29.3883 8.92747C29.2009 8.92747 29.0444 8.97626 28.919 9.07385C28.7935 9.17144 28.699 9.30543 28.6355 9.47582C28.572 9.64466 28.5402 9.83674 28.5402 10.0521C28.5402 10.2705 28.572 10.4618 28.6355 10.626C28.7005 10.7886 28.7958 10.9156 28.9213 11.007C29.0483 11.0969 29.204 11.1418 29.3883 11.1418ZM33.4986 11.9225C33.1408 11.9225 32.8318 11.8481 32.5715 11.6994C32.3128 11.5492 32.1138 11.337 31.9744 11.0628C31.835 10.7871 31.7653 10.4625 31.7653 10.0892C31.7653 9.72211 31.835 9.39992 31.9744 9.12264C32.1153 8.84382 32.3121 8.62696 32.5646 8.47206C32.817 8.31561 33.1137 8.23738 33.4545 8.23738C33.6744 8.23738 33.882 8.27301 34.0772 8.34426C34.2739 8.41397 34.4474 8.5224 34.5976 8.66956C34.7494 8.81671 34.8687 9.00414 34.9555 9.23185C35.0422 9.45801 35.0856 9.72753 35.0856 10.0404V10.2983H32.1603V9.73141H34.2793C34.2778 9.57031 34.2429 9.42703 34.1748 9.30156C34.1066 9.17454 34.0113 9.07463 33.889 9.00182C33.7681 8.92902 33.6272 8.89262 33.4661 8.89262C33.2941 8.89262 33.1431 8.93444 33.013 9.01809C32.8829 9.10018 32.7814 9.20861 32.7086 9.34338C32.6374 9.47659 32.601 9.62298 32.5994 9.78252V10.2774C32.5994 10.485 32.6374 10.6631 32.7133 10.8118C32.7892 10.959 32.8953 11.0721 33.0316 11.1511C33.1679 11.2285 33.3274 11.2673 33.5102 11.2673C33.6326 11.2673 33.7434 11.2502 33.8425 11.2161C33.9416 11.1805 34.0276 11.1286 34.1004 11.0605C34.1732 10.9923 34.2282 10.9079 34.2654 10.8072L35.0507 10.8955C35.0012 11.1031 34.9067 11.2843 34.7673 11.4392C34.6294 11.5925 34.4528 11.7118 34.2375 11.797C34.0222 11.8807 33.7759 11.9225 33.4986 11.9225ZM40.0434 8.40235C40.0217 8.19943 39.9303 8.04143 39.7692 7.92835C39.6097 7.81528 39.4021 7.75874 39.1465 7.75874C38.9668 7.75874 38.8127 7.78584 38.6841 7.84006C38.5556 7.89428 38.4572 7.96785 38.389 8.06079C38.3209 8.15374 38.286 8.25984 38.2845 8.37912C38.2845 8.47825 38.3069 8.56422 38.3519 8.63703C38.3983 8.70983 38.4611 8.77179 38.5401 8.82291C38.6191 8.87248 38.7066 8.9143 38.8026 8.94838C38.8987 8.98246 38.9955 9.01112 39.0931 9.03435L39.5392 9.14588C39.7189 9.1877 39.8916 9.24424 40.0573 9.3155C40.2246 9.38675 40.3741 9.47659 40.5058 9.58503C40.639 9.69346 40.7443 9.82435 40.8218 9.9777C40.8992 10.1311 40.938 10.3107 40.938 10.5168C40.938 10.7956 40.8667 11.0411 40.7242 11.2533C40.5817 11.464 40.3757 11.629 40.1061 11.7482C39.8381 11.8659 39.5136 11.9248 39.1326 11.9248C38.7624 11.9248 38.4409 11.8675 38.1683 11.7529C37.8972 11.6382 37.685 11.471 37.5317 11.251C37.3799 11.031 37.2978 10.7631 37.2854 10.4471H38.1335C38.1459 10.6128 38.197 10.7507 38.2868 10.8606C38.3767 10.9706 38.4936 11.0527 38.6377 11.1069C38.7833 11.1611 38.9459 11.1883 39.1256 11.1883C39.313 11.1883 39.4772 11.1604 39.6182 11.1046C39.7607 11.0473 39.8722 10.9683 39.9528 10.8676C40.0333 10.7654 40.0744 10.6461 40.0759 10.5098C40.0744 10.3859 40.038 10.2836 39.9667 10.2031C39.8955 10.121 39.7956 10.0528 39.667 9.99861C39.54 9.94285 39.3913 9.89328 39.2209 9.84991L38.6795 9.7105C38.2876 9.60981 37.9778 9.45723 37.7501 9.25276C37.5239 9.04674 37.4108 8.77334 37.4108 8.43256C37.4108 8.15219 37.4867 7.90667 37.6385 7.696C37.7919 7.48534 38.0002 7.32191 38.2636 7.20574C38.5269 7.08801 38.8251 7.02915 39.1581 7.02915C39.4958 7.02915 39.7917 7.08801 40.0457 7.20574C40.3013 7.32191 40.5019 7.48379 40.6475 7.69135C40.7931 7.89737 40.8682 8.13437 40.8729 8.40235H40.0434ZM43.4514 8.28385V8.93444H41.3997V8.28385H43.4514ZM41.9063 7.4288H42.7474V10.7793C42.7474 10.8924 42.7644 10.9791 42.7985 11.0396C42.8341 11.0984 42.8806 11.1387 42.9379 11.1604C42.9952 11.1821 43.0587 11.1929 43.1284 11.1929C43.1811 11.1929 43.2291 11.189 43.2725 11.1813C43.3174 11.1735 43.3515 11.1666 43.3747 11.1604L43.5165 11.8179C43.4716 11.8334 43.4073 11.8505 43.3236 11.869C43.2415 11.8876 43.1408 11.8985 43.0216 11.9016C42.8109 11.9078 42.6211 11.876 42.4523 11.8063C42.2835 11.7351 42.1495 11.6251 42.0503 11.4764C41.9527 11.3277 41.9047 11.1418 41.9063 10.9187V7.4288ZM45.1819 11.9248C44.9557 11.9248 44.752 11.8845 44.5708 11.804C44.3911 11.7219 44.2486 11.6011 44.1432 11.4415C44.0395 11.282 43.9876 11.0852 43.9876 10.8513C43.9876 10.65 44.0247 10.4835 44.0991 10.3518C44.1735 10.2201 44.2749 10.1148 44.4035 10.0358C44.5321 9.95679 44.6769 9.89715 44.838 9.85688C45.0006 9.81505 45.1687 9.78485 45.3422 9.76626C45.5513 9.74457 45.7209 9.72521 45.851 9.70817C45.9812 9.68958 46.0756 9.6617 46.1345 9.62453C46.1949 9.5858 46.2251 9.52616 46.2251 9.44561V9.43167C46.2251 9.25663 46.1732 9.1211 46.0694 9.02506C45.9657 8.92902 45.8162 8.881 45.621 8.881C45.415 8.881 45.2516 8.92592 45.1307 9.01576C45.0115 9.10561 44.9309 9.21171 44.8891 9.33409L44.1037 9.22256C44.1657 9.00569 44.2679 8.82446 44.4105 8.67885C44.553 8.5317 44.7272 8.42172 44.9332 8.34891C45.1393 8.27456 45.367 8.23738 45.6164 8.23738C45.7883 8.23738 45.9595 8.25752 46.1299 8.29779C46.3003 8.33807 46.4559 8.40468 46.5969 8.49762C46.7378 8.58901 46.8509 8.7137 46.9361 8.8717C47.0229 9.0297 47.0662 9.2272 47.0662 9.4642V11.8528H46.2577V11.3625H46.2298C46.1787 11.4617 46.1066 11.5546 46.0137 11.6413C45.9223 11.7265 45.8069 11.7955 45.6675 11.8481C45.5296 11.8993 45.3677 11.9248 45.1819 11.9248ZM45.4003 11.3068C45.5691 11.3068 45.7155 11.2735 45.8394 11.2068C45.9633 11.1387 46.0586 11.0488 46.1252 10.9373C46.1934 10.8258 46.2274 10.7042 46.2274 10.5725V10.152C46.2011 10.1737 46.1562 10.1938 46.0927 10.2124C46.0307 10.231 45.961 10.2472 45.8836 10.2612C45.8061 10.2751 45.7294 10.2875 45.6535 10.2983C45.5776 10.3092 45.5118 10.3185 45.456 10.3262C45.3306 10.3433 45.2183 10.3712 45.1191 10.4099C45.02 10.4486 44.9418 10.5028 44.8845 10.5725C44.8271 10.6407 44.7985 10.729 44.7985 10.8374C44.7985 10.9923 44.855 11.1093 44.9681 11.1883C45.0812 11.2673 45.2252 11.3068 45.4003 11.3068ZM49.6941 8.28385V8.93444H47.6425V8.28385H49.6941ZM48.149 7.4288H48.9901V10.7793C48.9901 10.8924 49.0072 10.9791 49.0412 11.0396C49.0769 11.0984 49.1233 11.1387 49.1806 11.1604C49.238 11.1821 49.3015 11.1929 49.3712 11.1929C49.4238 11.1929 49.4719 11.189 49.5152 11.1813C49.5602 11.1735 49.5942 11.1666 49.6175 11.1604L49.7592 11.8179C49.7143 11.8334 49.65 11.8505 49.5664 11.869C49.4843 11.8876 49.3836 11.8985 49.2643 11.9016C49.0536 11.9078 48.8639 11.876 48.695 11.8063C48.5262 11.7351 48.3922 11.6251 48.2931 11.4764C48.1955 11.3277 48.1475 11.1418 48.149 10.9187V7.4288ZM52.6723 10.3518V8.28385H53.5134V11.8528H52.6979V11.2185H52.6607C52.5802 11.4183 52.4477 11.5817 52.2634 11.7087C52.0806 11.8357 51.8552 11.8993 51.5872 11.8993C51.3533 11.8993 51.1465 11.8474 50.9669 11.7436C50.7887 11.6382 50.6493 11.4857 50.5486 11.2858C50.4479 11.0845 50.3976 10.8413 50.3976 10.5563V8.28385H51.2387V10.4261C51.2387 10.6523 51.3007 10.832 51.4246 10.9652C51.5485 11.0984 51.7112 11.165 51.9125 11.165C52.0364 11.165 52.1565 11.1348 52.2727 11.0744C52.3888 11.014 52.4841 10.9241 52.5585 10.8049C52.6344 10.6841 52.6723 10.533 52.6723 10.3518ZM57.1991 9.2272L56.4324 9.31085C56.4107 9.2334 56.3727 9.1606 56.3185 9.09244C56.2658 9.02428 56.1946 8.96929 56.1047 8.92747C56.0149 8.88565 55.9049 8.86473 55.7748 8.86473C55.5998 8.86473 55.4526 8.90268 55.3333 8.97859C55.2156 9.05449 55.1575 9.15285 55.1591 9.27367C55.1575 9.37746 55.1955 9.46188 55.2729 9.52694C55.3519 9.592 55.482 9.64544 55.6633 9.68726L56.272 9.81738C56.6097 9.89018 56.8607 10.0056 57.0249 10.1636C57.1906 10.3216 57.2742 10.5284 57.2758 10.784C57.2742 11.0086 57.2084 11.2068 57.0783 11.3788C56.9497 11.5492 56.7708 11.6824 56.5416 11.7784C56.3123 11.8745 56.049 11.9225 55.7516 11.9225C55.3147 11.9225 54.9631 11.8311 54.6967 11.6483C54.4303 11.464 54.2715 11.2076 54.2204 10.8792L55.0406 10.8002C55.0777 10.9613 55.1567 11.0829 55.2776 11.165C55.3984 11.2471 55.5556 11.2882 55.7492 11.2882C55.9491 11.2882 56.1094 11.2471 56.2302 11.165C56.3526 11.0829 56.4138 10.9815 56.4138 10.8606C56.4138 10.7584 56.3743 10.674 56.2953 10.6074C56.2178 10.5408 56.097 10.4897 55.9328 10.454L55.324 10.3262C54.9817 10.255 54.7284 10.1349 54.5642 9.96608C54.4001 9.79569 54.3187 9.58038 54.3203 9.32014C54.3187 9.10018 54.3784 8.90966 54.4992 8.74856C54.6216 8.58591 54.7912 8.46044 55.008 8.37215C55.2265 8.2823 55.4782 8.23738 55.7632 8.23738C56.1814 8.23738 56.5106 8.32645 56.7507 8.50459C56.9923 8.68272 57.1418 8.9236 57.1991 9.2272Z" fill="#101828"/>
<g style="mix-blend-mode:multiply">
<rect x="64.7773" y="3.92584" width="47.2027" height="11.8539" rx="5.92693" fill="#D3F8DF"/>
<path d="M71.2113 11.0796L72.0292 11.3522C72.0292 11.3522 74.0739 10.9432 74.3465 10.9432C74.6191 10.9432 74.6191 11.2159 74.3465 11.4885C74.0739 11.7611 73.1197 12.579 72.3018 12.579C71.4839 12.579 70.9387 12.1701 70.3934 12.1701C69.8482 12.1701 69.0303 12.1701 69.0303 12.1701" stroke="#12B76A" stroke-width="0.556158" stroke-linecap="round" stroke-linejoin="round"/>
<path d="M69.0303 10.5343C69.3029 10.2617 69.8482 9.85278 70.3934 9.85278C70.9387 9.85278 72.2336 10.398 72.4381 10.6707C72.6426 10.9433 72.0292 11.3522 72.0292 11.3522" stroke="#12B76A" stroke-width="0.556158" stroke-linecap="round" stroke-linejoin="round"/>
<path d="M70.666 9.03489V7.94438C70.666 7.79381 70.7881 7.67175 70.9386 7.67175H74.2102C74.3607 7.67175 74.4828 7.79381 74.4828 7.94438V10.1254" stroke="#12B76A" stroke-width="0.556158" stroke-linecap="round" stroke-linejoin="round"/>
<path d="M73.2557 7.67175H71.8926V8.89857H73.2557V7.67175Z" stroke="#12B76A" stroke-width="0.556158" stroke-linecap="round" stroke-linejoin="round"/>
<path d="M79.6265 11.8528H78.086V7.09421H79.6752C80.1415 7.09421 80.5419 7.18947 80.8765 7.38C81.2111 7.56898 81.4675 7.84083 81.6456 8.19556C81.8253 8.54873 81.9151 8.97239 81.9151 9.46653C81.9151 9.96221 81.8245 10.3882 81.6433 10.7445C81.4636 11.1007 81.2034 11.3749 80.8626 11.567C80.5218 11.7575 80.1097 11.8528 79.6265 11.8528ZM78.8039 11.2254H79.587C79.9494 11.2254 80.2507 11.1573 80.4908 11.021C80.7309 10.8831 80.9106 10.6841 81.0299 10.4238C81.1491 10.162 81.2088 9.84294 81.2088 9.46653C81.2088 9.09321 81.1491 8.77644 81.0299 8.51621C80.9121 8.25597 80.7363 8.05847 80.5024 7.92371C80.2685 7.78894 79.9781 7.72156 79.6311 7.72156H78.8039V11.2254ZM84.2903 11.9248C83.9387 11.9248 83.6359 11.8497 83.3818 11.6994C83.1294 11.5476 82.9342 11.3346 82.7963 11.0605C82.66 10.7847 82.5918 10.4618 82.5918 10.0916C82.5918 9.72599 82.66 9.40379 82.7963 9.12497C82.9342 8.84615 83.1263 8.62851 83.3726 8.47206C83.6204 8.31561 83.9101 8.23738 84.2415 8.23738C84.4429 8.23738 84.6381 8.27069 84.8271 8.33729C85.0161 8.4039 85.1857 8.50846 85.3359 8.65097C85.4862 8.79348 85.6047 8.97859 85.6914 9.20629C85.7782 9.43245 85.8215 9.7074 85.8215 10.0311V10.2774H82.9845V9.75697H85.1408C85.1408 9.57418 85.1036 9.41231 85.0292 9.27135C84.9549 9.12884 84.8503 9.01654 84.7155 8.93444C84.5823 8.85234 84.4259 8.81129 84.2462 8.81129C84.051 8.81129 83.8806 8.85931 83.735 8.95535C83.591 9.04984 83.4794 9.17376 83.4004 9.32711C83.323 9.47892 83.2843 9.64389 83.2843 9.82202V10.2286C83.2843 10.4672 83.3261 10.6701 83.4097 10.8374C83.4949 11.0047 83.6134 11.1325 83.7652 11.2208C83.917 11.3075 84.0944 11.3509 84.2973 11.3509C84.429 11.3509 84.549 11.3323 84.6575 11.2951C84.7659 11.2564 84.8596 11.1991 84.9386 11.1232C85.0176 11.0473 85.078 10.9536 85.1198 10.8421L85.7774 10.9606C85.7247 11.1542 85.6302 11.3238 85.4939 11.4694C85.3592 11.6135 85.1895 11.7258 84.9851 11.8063C84.7822 11.8853 84.5506 11.9248 84.2903 11.9248ZM87.2871 7.09421V11.8528H86.5924V7.09421H87.2871ZM88.2217 11.8528V8.28385H88.9165V11.8528H88.2217ZM88.5726 7.73318C88.4518 7.73318 88.348 7.6929 88.2612 7.61235C88.176 7.53026 88.1334 7.43267 88.1334 7.31959C88.1334 7.20496 88.176 7.10738 88.2612 7.02683C88.348 6.94473 88.4518 6.90368 88.5726 6.90368C88.6934 6.90368 88.7964 6.94473 88.8816 7.02683C88.9684 7.10738 89.0117 7.20496 89.0117 7.31959C89.0117 7.43267 88.9684 7.53026 88.8816 7.61235C88.7964 7.6929 88.6934 7.73318 88.5726 7.73318ZM92.9042 8.28385L91.61 11.8528H90.8665L89.57 8.28385H90.3158L91.2197 11.0303H91.2568L92.1584 8.28385H92.9042ZM94.9739 11.9248C94.6223 11.9248 94.3194 11.8497 94.0654 11.6994C93.8129 11.5476 93.6177 11.3346 93.4799 11.0605C93.3436 10.7847 93.2754 10.4618 93.2754 10.0916C93.2754 9.72599 93.3436 9.40379 93.4799 9.12497C93.6177 8.84615 93.8098 8.62851 94.0561 8.47206C94.3039 8.31561 94.5936 8.23738 94.9251 8.23738C95.1265 8.23738 95.3217 8.27069 95.5106 8.33729C95.6996 8.4039 95.8692 8.50846 96.0195 8.65097C96.1697 8.79348 96.2882 8.97859 96.375 9.20629C96.4617 9.43245 96.5051 9.7074 96.5051 10.0311V10.2774H93.6681V9.75697H95.8243C95.8243 9.57418 95.7871 9.41231 95.7128 9.27135C95.6384 9.12884 95.5339 9.01654 95.3991 8.93444C95.2659 8.85234 95.1094 8.81129 94.9298 8.81129C94.7346 8.81129 94.5642 8.85931 94.4186 8.95535C94.2745 9.04984 94.163 9.17376 94.084 9.32711C94.0065 9.47892 93.9678 9.64389 93.9678 9.82202V10.2286C93.9678 10.4672 94.0096 10.6701 94.0933 10.8374C94.1785 11.0047 94.297 11.1325 94.4488 11.2208C94.6006 11.3075 94.7779 11.3509 94.9809 11.3509C95.1125 11.3509 95.2326 11.3323 95.341 11.2951C95.4494 11.2564 95.5432 11.1991 95.6222 11.1232C95.7012 11.0473 95.7616 10.9536 95.8034 10.8421L96.461 10.9606C96.4083 11.1542 96.3138 11.3238 96.1775 11.4694C96.0427 11.6135 95.8731 11.7258 95.6686 11.8063C95.4657 11.8853 95.2341 11.9248 94.9739 11.9248ZM97.2759 11.8528V8.28385H97.9474V8.85079H97.9846C98.0497 8.65871 98.1643 8.50769 98.3285 8.39771C98.4942 8.28618 98.6817 8.23041 98.8908 8.23041C98.9341 8.23041 98.9853 8.23196 99.0441 8.23506C99.1045 8.23816 99.1518 8.24203 99.1859 8.24668V8.9112C99.158 8.90346 99.1084 8.89494 99.0372 8.88565C98.9659 8.8748 98.8946 8.86938 98.8234 8.86938C98.6592 8.86938 98.5128 8.90423 98.3842 8.97394C98.2572 9.0421 98.1565 9.13736 98.0822 9.25973C98.0078 9.38056 97.9707 9.51842 97.9707 9.67332V11.8528H97.2759ZM101.197 11.9248C100.846 11.9248 100.543 11.8497 100.289 11.6994C100.036 11.5476 99.8413 11.3346 99.7034 11.0605C99.5671 10.7847 99.499 10.4618 99.499 10.0916C99.499 9.72599 99.5671 9.40379 99.7034 9.12497C99.8413 8.84615 100.033 8.62851 100.28 8.47206C100.528 8.31561 100.817 8.23738 101.149 8.23738C101.35 8.23738 101.545 8.27069 101.734 8.33729C101.923 8.4039 102.093 8.50846 102.243 8.65097C102.393 8.79348 102.512 8.97859 102.599 9.20629C102.685 9.43245 102.729 9.7074 102.729 10.0311V10.2774H99.8916V9.75697H102.048C102.048 9.57418 102.011 9.41231 101.936 9.27135C101.862 9.12884 101.757 9.01654 101.623 8.93444C101.489 8.85234 101.333 8.81129 101.153 8.81129C100.958 8.81129 100.788 8.85931 100.642 8.95535C100.498 9.04984 100.387 9.17376 100.308 9.32711C100.23 9.47892 100.191 9.64389 100.191 9.82202V10.2286C100.191 10.4672 100.233 10.6701 100.317 10.8374C100.402 11.0047 100.521 11.1325 100.672 11.2208C100.824 11.3075 101.002 11.3509 101.204 11.3509C101.336 11.3509 101.456 11.3323 101.565 11.2951C101.673 11.2564 101.767 11.1991 101.846 11.1232C101.925 11.0473 101.985 10.9536 102.027 10.8421L102.685 10.9606C102.632 11.1542 102.537 11.3238 102.401 11.4694C102.266 11.6135 102.097 11.7258 101.892 11.8063C101.689 11.8853 101.458 11.9248 101.197 11.9248ZM104.836 11.9225C104.547 11.9225 104.29 11.8489 104.064 11.7018C103.839 11.553 103.663 11.3416 103.534 11.0674C103.407 10.7917 103.344 10.461 103.344 10.0753C103.344 9.68958 103.408 9.35964 103.537 9.08547C103.667 8.81129 103.845 8.6014 104.071 8.45579C104.297 8.31019 104.554 8.23738 104.84 8.23738C105.062 8.23738 105.24 8.27456 105.375 8.34891C105.511 8.42172 105.616 8.50691 105.691 8.6045C105.766 8.70209 105.825 8.78806 105.867 8.86241H105.909V7.09421H106.604V11.8528H105.925V11.2975H105.867C105.825 11.3734 105.765 11.4601 105.686 11.5577C105.608 11.6553 105.502 11.7405 105.365 11.8133C105.229 11.8861 105.052 11.9225 104.836 11.9225ZM104.989 11.33C105.189 11.33 105.358 11.2773 105.495 11.172C105.635 11.0651 105.74 10.9172 105.811 10.7282C105.884 10.5392 105.921 10.3193 105.921 10.0683C105.921 9.82048 105.885 9.60361 105.814 9.41773C105.742 9.23185 105.638 9.08702 105.5 8.98323C105.362 8.87945 105.192 8.82756 104.989 8.82756C104.78 8.82756 104.605 8.88177 104.466 8.9902C104.327 9.09863 104.221 9.24657 104.15 9.434C104.08 9.62143 104.046 9.83287 104.046 10.0683C104.046 10.3069 104.081 10.5214 104.152 10.7119C104.224 10.9025 104.329 11.0535 104.468 11.165C104.609 11.275 104.783 11.33 104.989 11.33Z" fill="#027A48"/>
</g>
</g>
<g filter="url(#filter1_d_168_651)">
<path d="M121.594 58.4052C121.594 66.3551 115.149 72.7999 107.199 72.7999C99.2494 72.7999 92.8047 66.3551 92.8047 58.4052C92.8047 50.4552 99.2494 44.0105 107.199 44.0105C115.149 44.0105 121.594 50.4552 121.594 58.4052Z" fill="url(#paint0_linear_168_651)" shape-rendering="crispEdges"/>
</g>
<path d="M105.469 64.294C105.931 64.7012 106.537 64.9483 107.2 64.9483C107.864 64.9483 108.47 64.7012 108.932 64.294M111.126 55.788C111.126 54.7468 110.713 53.7483 109.976 53.012C109.24 52.2758 108.242 51.8622 107.2 51.8622C106.159 51.8622 105.161 52.2758 104.424 53.012C103.688 53.7483 103.275 54.7468 103.275 55.788C103.275 57.8099 102.765 59.1943 102.195 60.11C101.714 60.8823 101.474 61.2685 101.483 61.3763C101.492 61.4955 101.518 61.541 101.614 61.6123C101.701 61.6767 102.092 61.6767 102.875 61.6767H111.526C112.309 61.6767 112.7 61.6767 112.787 61.6123C112.883 61.541 112.908 61.4955 112.918 61.3763C112.927 61.2685 112.687 60.8823 112.206 60.11C111.636 59.1943 111.126 57.8099 111.126 55.788Z" stroke="#667085" stroke-width="1.30861" stroke-linecap="round" stroke-linejoin="round"/>
<circle cx="117.014" cy="45.3192" r="6.21589" fill="#FFBF40" stroke="#FFE08C" stroke-width="0.654304"/>
<path d="M115.768 41.9804V46.739H114.906V42.8192H114.878L113.765 43.5302V42.7402L114.948 41.9804H115.768ZM116.977 46.739V46.1163L118.629 44.4968C118.787 44.3373 118.918 44.1955 119.024 44.0716C119.129 43.9477 119.208 43.8276 119.261 43.7115C119.313 43.5953 119.34 43.4714 119.34 43.3397C119.34 43.1894 119.305 43.0609 119.237 42.954C119.169 42.8456 119.075 42.7619 118.956 42.7031C118.837 42.6442 118.701 42.6148 118.55 42.6148C118.393 42.6148 118.256 42.6473 118.138 42.7123C118.021 42.7759 117.929 42.8665 117.864 42.9842C117.801 43.1019 117.769 43.2421 117.769 43.4048H116.949C116.949 43.1027 117.018 42.8401 117.155 42.6171C117.293 42.394 117.483 42.2213 117.725 42.0989C117.968 41.9766 118.247 41.9154 118.561 41.9154C118.88 41.9154 119.161 41.975 119.402 42.0943C119.644 42.2136 119.831 42.377 119.965 42.5846C120.099 42.7921 120.167 43.0291 120.167 43.2956C120.167 43.4737 120.133 43.6487 120.065 43.8207C119.996 43.9926 119.876 44.1831 119.704 44.3923C119.534 44.6014 119.295 44.8546 118.986 45.152L118.166 45.9862V46.0187H120.239V46.739H116.977Z" fill="white"/>
<defs>
<filter id="filter0_d_168_651" x="0.382785" y="0" width="119.449" height="24.9399" filterUnits="userSpaceOnUse" color-interpolation-filters="sRGB">
<feFlood flood-opacity="0" result="BackgroundImageFix"/>
<feColorMatrix in="SourceAlpha" type="matrix" values="0 0 0 0 0 0 0 0 0 0 0 0 0 0 0 0 0 0 127 0" result="hardAlpha"/>
<feOffset dy="2.61722"/>
<feGaussianBlur stdDeviation="1.30861"/>
<feComposite in2="hardAlpha" operator="out"/>
<feColorMatrix type="matrix" values="0 0 0 0 0.952941 0 0 0 0 0.956863 0 0 0 0 0.964706 0 0 0 1 0"/>
<feBlend mode="normal" in2="BackgroundImageFix" result="effect1_dropShadow_168_651"/>
<feBlend mode="normal" in="SourceGraphic" in2="effect1_dropShadow_168_651" result="shape"/>
</filter>
<filter id="filter1_d_168_651" x="77.1014" y="30.9244" width="60.1956" height="60.196" filterUnits="userSpaceOnUse" color-interpolation-filters="sRGB">
<feFlood flood-opacity="0" result="BackgroundImageFix"/>
<feColorMatrix in="SourceAlpha" type="matrix" values="0 0 0 0 0 0 0 0 0 0 0 0 0 0 0 0 0 0 127 0" result="hardAlpha"/>
<feOffset dy="2.61722"/>
<feGaussianBlur stdDeviation="7.85165"/>
<feComposite in2="hardAlpha" operator="out"/>
<feColorMatrix type="matrix" values="0 0 0 0 0.917647 0 0 0 0 0.92549 0 0 0 0 0.941176 0 0 0 1 0"/>
<feBlend mode="normal" in2="BackgroundImageFix" result="effect1_dropShadow_168_651"/>
<feBlend mode="normal" in="SourceGraphic" in2="effect1_dropShadow_168_651" result="shape"/>
</filter>
<linearGradient id="paint0_linear_168_651" x1="107.199" y1="44.0105" x2="107.199" y2="72.7999" gradientUnits="userSpaceOnUse">
<stop stop-color="white" stop-opacity="0"/>
<stop offset="1" stop-color="white"/>
</linearGradient>
<clipPath id="clip0_168_651">
<rect x="8.23535" y="31.4066" width="9.16025" height="9.16025" rx="4.58013" fill="white"/>
</clipPath>
<clipPath id="clip1_168_651">
<rect width="6.10684" height="6.10684" fill="white" transform="translate(9.7627 32.9333)"/>
</clipPath>
<clipPath id="clip2_168_651">
<rect x="8.23535" y="71.9734" width="9.16025" height="9.16025" rx="4.58013" fill="white"/>
</clipPath>
<clipPath id="clip3_168_651">
<rect width="6.10684" height="6.10684" fill="white" transform="translate(9.7627 73.5002)"/>
</clipPath>
<clipPath id="clip4_168_651">
<rect x="8.23535" y="112.54" width="9.16025" height="9.16025" rx="4.58013" fill="white"/>
</clipPath>
<clipPath id="clip5_168_651">
<rect width="6.10684" height="6.10684" fill="white" transform="translate(9.7627 114.067)"/>
</clipPath>
<clipPath id="clip6_168_651">
<rect width="6.10684" height="6.10684" fill="white" transform="translate(9.7627 154.634)"/>
</clipPath>
</defs>
</svg>
