<svg width="280" height="180" viewBox="0 0 280 180" fill="none" xmlns="http://www.w3.org/2000/svg">
<g clip-path="url(#clip0_264_616)">
<rect x="-1" y="96" width="384" height="84" fill="url(#paint0_linear_264_616)"/>
<path d="M81.3925 43.5404C80.0345 42.7246 80.5777 43.8124 78.9482 42.7246C78.1334 42.1808 80.3061 40.2773 80.8493 39.4615C82.2073 37.2861 82.4789 38.1019 83.8369 35.9264C87.3676 30.7598 81.9357 30.4879 77.5902 30.2159C71.3435 29.6721 65.3684 28.3124 58.8501 27.4967C52.0603 26.4089 45.2704 25.3212 38.4805 23.6897C36.5793 23.1458 32.777 21.2423 30.8758 22.33C28.9747 23.4177 29.2463 25.8651 28.7031 27.4967C25.9871 39.7334 21.6416 48.1632 18.3825 59.0403C16.7529 64.7508 15.6665 70.4613 14.5801 77.2595C14.037 80.2507 11.8642 82.6981 13.7654 85.6893C15.3949 88.1367 15.6665 95.2068 17.5677 97.3822C21.9132 103.093 26.5303 108.531 30.8758 113.698C34.9498 118.593 41.7397 124.575 44.184 129.742C46.0852 133.821 44.184 136.54 47.9863 139.803C49.8875 141.707 52.875 141.978 55.591 142.25C59.1217 142.794 62.3809 142.794 65.64 142.794H65.9116C65.9116 142.794 69.4423 143.066 71.0719 143.066C73.7878 143.338 76.7754 143.61 76.7754 140.891C76.7754 134.636 76.7754 128.382 77.047 121.584C77.5902 107.172 78.1334 91.3998 78.1334 73.9964C78.1334 66.6543 77.3186 62.3035 78.1334 56.8649C78.6766 53.8737 79.2198 50.8825 80.0345 47.8913C81.6641 46.8036 82.7505 44.3562 81.3925 43.5404ZM68.6276 143.066C68.8991 143.066 68.8991 143.066 68.6276 143.066Z" fill="#D1D5DB"/>
<path d="M138 118.907C135.548 103.95 132.551 83.8267 131.189 70.2297C130.917 68.5981 131.189 61.7996 131.462 61.2557C131.734 59.3521 130.1 57.7205 129.01 56.0888C127.92 54.4572 130.372 54.7292 131.189 52.8256C132.824 48.4745 129.282 44.3954 129.555 39.7725C129.555 37.8689 129.827 37.325 127.92 36.2373C125.468 35.1495 121.654 35.6934 118.93 35.4214C112.119 34.8775 105.308 34.0617 98.2251 33.2459C96.5905 32.974 87.3278 30.7985 88.9624 34.8776C89.7797 36.5092 93.5937 36.2372 95.2283 36.5092C98.2251 37.0531 100.949 35.6934 103.674 35.9653C104.491 35.9653 106.943 36.2373 106.67 37.325C106.398 38.1408 104.219 38.1408 103.674 38.4128C100.677 38.6847 97.4078 40.3163 94.411 40.3163C91.9591 40.3163 88.4175 40.3163 87.3278 42.4919C86.5105 44.3954 84.6035 49.5623 84.3311 51.7378C83.7862 57.9924 84.8759 61.7996 84.3311 67.7823C83.2413 80.2915 83.5138 99.3273 83.2413 113.74C82.9689 120.811 83.2413 127.609 82.6965 133.864C82.424 136.311 81.3343 139.846 82.424 142.022C83.2413 143.653 85.6932 143.382 87.6002 143.382C102.039 143.654 116.206 145.285 130.644 145.285C130.917 145.285 131.734 145.285 131.734 145.285H131.462H131.189C130.644 145.285 130.1 145.285 129.555 145.285H129.282C129.282 145.285 129.282 145.285 129.01 145.285H128.737H128.193C128.193 145.285 134.731 145.557 137.728 145.557C141.269 145.285 141.269 143.382 140.997 140.662C139.907 133.592 139.09 126.249 138 118.907Z" fill="#F3F4F6"/>
<path d="M208.575 58.1254C206.674 57.0373 203.687 57.5814 201.786 57.5814C200.157 57.5814 198.527 57.8534 196.898 58.1254C195.269 58.6695 193.368 59.4856 191.738 59.4856C189.294 59.2136 188.751 57.0373 188.208 55.1331C187.393 52.4128 186.85 49.4205 184.949 46.9723C183.048 44.252 180.333 44.524 177.346 43.7079C174.087 42.8918 173.272 40.4436 173.001 37.7233C172.729 35.275 172.458 33.0988 169.199 33.0988C165.669 33.0988 162.138 33.6429 158.879 33.9149C151.547 34.1869 143.4 35.003 136.34 35.003C134.982 35.003 134.982 35.5471 134.982 36.6352C134.982 41.2597 134.439 45.8841 135.254 50.5086C135.525 52.6849 136.883 55.6772 136.611 58.1254C136.34 60.3017 135.254 62.7499 135.254 64.9262C135.525 73.6311 137.698 83.4241 139.327 93.7612C140.956 104.642 142.314 114.707 143.672 123.956C144.487 128.581 145.301 133.205 145.845 137.83C146.116 140.006 145.845 143.814 149.375 144.358C151.276 144.631 153.177 144.086 155.078 143.814C157.25 143.542 159.694 143.814 161.867 143.542C166.755 143.27 171.914 143.27 176.803 142.726C178.432 142.454 179.79 142.454 181.419 142.182C182.777 141.91 184.949 142.182 186.036 141.366C187.937 139.734 185.764 135.382 185.493 133.477C184.678 129.669 183.863 125.589 183.048 121.508C182.234 117.428 181.148 113.075 181.691 108.995C182.234 103.01 186.307 97.8416 189.566 92.6731C193.911 85.6003 197.984 77.1674 202.329 71.1828C204.23 68.4625 206.131 65.7422 208.032 63.022C208.847 61.9338 211.019 59.4856 208.575 58.1254ZM172.729 129.941C171.914 131.029 171.1 131.573 170.013 131.301C168.384 130.485 169.47 131.029 170.285 129.397C170.828 128.037 171.371 125.044 170.013 123.412C169.199 122.324 167.841 124.228 167.298 122.052C167.026 120.692 167.298 119.876 165.669 119.332C164.039 118.788 162.681 118.788 161.324 117.428C160.237 116.34 159.694 114.979 158.879 113.891C156.979 111.443 152.362 107.363 153.991 106.819C156.164 106.002 153.448 103.282 156.435 103.01C156.979 101.378 156.707 98.9297 157.522 99.4738C158.065 99.7458 159.423 102.738 159.966 103.282C160.78 104.098 161.867 105.458 163.224 106.547C166.483 109.539 167.569 113.619 169.199 117.428C170.013 119.332 170.828 120.964 171.914 122.596C172.729 124.228 174.087 125.861 174.087 127.765C174.087 128.037 173.272 129.125 172.729 129.941Z" fill="#F3F4F6"/>
<path d="M299.782 158.595C299.239 158.595 289.467 160.227 287.024 160.227C286.753 160.227 286.481 160.227 286.21 160.227C280.781 160.499 282.41 161.043 282.41 161.043C282.41 161.043 288.924 161.859 290.553 162.403C292.453 163.218 296.796 165.122 298.967 164.85C300.596 164.578 301.682 161.859 301.953 160.771C301.953 159.411 301.682 158.867 299.782 158.595Z" fill="#D1D5DB"/>
<path d="M353.525 140.645C349.996 142.821 346.196 145.54 342.668 146.356C339.954 146.9 340.496 146.356 338.053 146.084C335.611 145.812 332.625 145.54 330.182 145.812C325.025 146.356 319.053 146.9 314.982 143.909C311.182 140.917 309.282 133.574 307.382 129.494C304.939 124.327 306.567 120.791 304.396 115.624C303.31 113.176 299.239 110.185 298.424 107.465C297.882 105.833 296.796 103.113 294.624 102.569C292.724 102.025 291.367 103.385 289.467 102.297C287.567 101.482 284.581 99.5777 282.953 98.4899C278.881 95.4982 274.538 93.0505 271.553 88.971C268.295 84.8914 265.853 79.452 264.767 74.8286C263.681 71.021 262.867 68.3013 257.71 68.3013C252.552 68.3013 247.395 70.749 241.967 68.8452C239.252 67.7574 236.809 66.6695 233.824 65.8536C231.381 65.0377 229.209 64.4937 226.766 63.6778C224.052 62.8619 221.881 61.5021 219.438 60.4142C217.266 59.0544 215.638 60.4142 214.28 62.318C212.652 64.2218 212.652 64.7657 211.295 66.6695C209.938 68.8452 208.58 71.021 206.952 72.9248C203.966 77.2763 199.352 85.9793 196.095 91.1467C193.38 95.7702 189.852 101.21 187.409 105.833C184.966 110.456 185.509 112.904 186.323 117.8C187.409 122.967 188.494 128.134 189.309 133.03C189.852 135.206 189.852 137.925 191.209 139.829C192.295 141.189 193.923 142.549 195.009 143.637C198.537 147.444 203.423 145.269 208.58 145.812C214.28 146.356 219.438 148.26 225.138 148.26C230.295 148.26 234.909 147.444 238.438 144.453C240.067 143.093 240.067 141.189 241.424 139.557C242.509 138.197 244.138 138.197 246.038 138.469C248.209 138.469 248.209 139.829 250.381 140.101C253.095 140.373 253.638 141.461 255.267 143.365C257.71 146.356 264.224 146.9 267.753 148.532C272.095 150.436 274.538 153.156 276.167 156.419C278.067 160.227 279.424 159.411 284.31 159.139C288.381 158.867 295.167 157.779 300.324 157.507C303.582 157.235 304.124 155.603 306.839 156.147C310.096 156.691 315.525 159.411 317.696 161.587C318.782 162.675 319.868 164.578 318.51 165.938C317.153 167.026 314.982 166.482 313.353 165.938C312.267 165.666 306.839 162.947 306.025 163.762C305.21 164.306 303.31 164.034 308.467 166.754C309.825 167.298 309.282 168.658 309.01 169.746C308.467 174.369 310.367 178.721 309.01 183.344C308.467 185.52 309.01 187.968 308.467 190.143C307.925 191.775 304.939 193.951 304.939 193.951L305.21 193.679V193.135C305.21 193.135 304.124 194.495 303.582 195.039C306.296 194.495 308.739 193.407 310.91 191.775C312.81 190.143 313.896 188.24 316.339 186.88C318.782 185.52 322.039 185.792 324.21 184.704C325.839 183.888 324.21 183.344 325.025 182.256C325.839 180.896 329.911 179.809 331.539 178.721C332.353 178.177 333.711 177.361 333.168 176.545C332.625 175.457 330.453 175.729 329.368 175.457C323.939 174.097 332.353 168.658 334.253 167.57C339.139 164.578 344.839 162.403 347.825 157.507C350.811 152.884 352.982 147.988 355.425 142.821C357.868 138.741 358.411 137.381 353.525 140.645Z" fill="#D1D5DB"/>
<g filter="url(#filter0_d_264_616)">
<path d="M298.966 128.947C232.904 41.2211 117.458 37.7002 40.1025 93.0844" stroke="#BFCBD8" stroke-width="2"/>
</g>
<g filter="url(#filter1_d_264_616)">
<path d="M298.966 128.947C271.796 92.8582 236.262 71.0352 198.466 61.7132" stroke="#472F92" stroke-width="2"/>
</g>
<path d="M196.121 59.256C195.883 59.1951 195.737 58.9533 195.796 58.7139L196.456 56.0093C196.465 55.9697 196.48 55.9316 196.5 55.896L201.213 47.495C201.361 47.2318 201.212 46.9009 200.918 46.8361L200.303 46.701C200.156 46.6687 200.003 46.712 199.895 46.8164L189.079 57.2441C188.967 57.352 188.807 57.3944 188.656 57.3561C186.355 56.7727 184.997 56.4326 184.736 56.3751C183.347 56.0697 179.783 56.4658 179.477 57.8541C179.172 59.2416 182.242 61.0958 183.631 61.4012C183.892 61.4587 185.268 61.7193 187.601 62.1548C187.754 62.1834 187.881 62.2889 187.938 62.4338L193.383 76.4362C193.437 76.5764 193.558 76.68 193.705 76.7123L194.319 76.8474C194.614 76.9122 194.888 76.674 194.864 76.3732L194.109 66.7701C194.106 66.7295 194.108 66.6885 194.116 66.6485L194.651 63.9165C194.699 63.6747 194.932 63.5161 195.174 63.5609C197.373 63.9678 199.85 64.4256 202.577 64.9294C202.809 64.972 203.061 65.0071 203.328 65.0352C203.476 65.0508 203.608 65.1355 203.68 65.265L206.283 69.9023C206.34 70.004 206.438 70.0765 206.552 70.1015V70.1015C206.835 70.1638 207.092 69.9192 207.043 69.6332L206.44 66.1145C206.431 66.0619 206.431 66.0081 206.441 65.9556L206.544 65.4068C206.582 65.2063 206.75 65.0569 206.954 65.0383C208.202 64.9237 209.173 64.6952 209.239 64.3968C209.304 64.0984 208.518 63.4831 207.433 62.8554C207.257 62.7532 207.167 62.547 207.217 62.3492L207.353 61.807C207.366 61.7552 207.388 61.7062 207.419 61.6622L209.442 58.7207C209.606 58.4816 209.476 58.1521 209.193 58.0898V58.0898C209.079 58.0648 208.96 58.0896 208.865 58.1579L204.557 61.2766C204.437 61.3638 204.281 61.3853 204.141 61.3373C203.887 61.2509 203.643 61.1768 203.414 61.1182C200.728 60.4321 198.288 59.8086 196.121 59.256Z" fill="#392675"/>
<path d="M41.3753 56.6579C39.1407 56.6592 36.998 57.5474 35.4179 59.1275C33.8378 60.7078 32.9495 62.8505 32.9482 65.0849C32.9482 68.1033 36.319 74.0023 39.1383 78.4151C39.6287 79.1746 40.4712 79.6332 41.3753 79.6332C42.2794 79.6332 43.1219 79.1746 43.6123 78.4151C46.4317 74.0023 49.8024 68.1034 49.8024 65.0849C49.8011 62.8504 48.9128 60.7077 47.3327 59.1275C45.7525 57.5474 43.6098 56.6592 41.3754 56.6579H41.3753ZM37.5448 65.085C37.5448 64.069 37.9484 63.0948 38.6666 62.3764C39.385 61.6581 40.3593 61.2545 41.3753 61.2545C42.3912 61.2545 43.3655 61.6581 44.0839 62.3764C44.8021 63.0948 45.2058 64.0691 45.2058 65.085C45.2058 66.101 44.8021 67.0752 44.0839 67.7937C43.3655 68.5119 42.3912 68.9155 41.3753 68.9155C40.3595 68.9151 39.3854 68.5115 38.6671 67.7931C37.9487 67.0749 37.5451 66.1008 37.5448 65.085Z" fill="#111827"/>
<circle cx="41.6416" cy="91.6416" r="5" fill="white" stroke="#472F92" stroke-width="2"/>
<circle cx="112.5" cy="112.5" r="14.5" fill="white"/>
<path d="M120.889 104.111C116.256 99.4781 108.744 99.4781 104.111 104.111C99.4785 108.744 99.4785 116.256 104.111 120.889C108.744 125.522 116.256 125.522 120.889 120.889C125.522 116.256 125.522 108.744 120.889 104.111ZM106.177 106.176C107.866 104.487 110.111 103.556 112.5 103.556C114.339 103.556 116.092 104.107 117.573 105.132L105.132 117.572C104.108 116.091 103.556 114.339 103.556 112.5C103.556 110.112 104.487 107.865 106.177 106.176ZM112.5 121.444C110.662 121.444 108.909 120.893 107.428 119.868L119.869 107.428C120.892 108.909 121.445 110.661 121.445 112.5C121.445 114.89 120.515 117.134 118.826 118.824C117.135 120.513 114.89 121.444 112.5 121.444Z" fill="#D1D5DB"/>
<circle cx="163.5" cy="82.5" r="14.5" fill="white"/>
<path d="M171.889 74.1111C167.256 69.4781 159.744 69.4781 155.111 74.1111C150.478 78.7441 150.478 86.2559 155.111 90.8889C159.744 95.5219 167.256 95.5219 171.889 90.8889C176.522 86.2559 176.522 78.7441 171.889 74.1111ZM157.177 76.1762C158.866 74.487 161.111 73.5556 163.5 73.5556C165.339 73.5556 167.092 74.1066 168.573 75.1316L156.132 87.5723C155.108 86.0913 154.556 84.3387 154.556 82.5C154.556 80.1118 155.487 77.8655 157.177 76.1762ZM163.5 91.4444C161.662 91.4444 159.909 90.8934 158.428 89.8684L170.869 77.4277C171.892 78.9086 172.445 80.6613 172.445 82.5C172.445 84.8897 171.515 87.1345 169.826 88.8237C168.135 90.513 165.89 91.4444 163.5 91.4444Z" fill="#D1D5DB"/>
</g>
<defs>
<filter id="filter0_d_264_616" x="37.5205" y="55.3263" width="264.244" height="79.2227" filterUnits="userSpaceOnUse" color-interpolation-filters="sRGB">
<feFlood flood-opacity="0" result="BackgroundImageFix"/>
<feColorMatrix in="SourceAlpha" type="matrix" values="0 0 0 0 0 0 0 0 0 0 0 0 0 0 0 0 0 0 127 0" result="hardAlpha"/>
<feOffset dy="3"/>
<feGaussianBlur stdDeviation="1"/>
<feComposite in2="hardAlpha" operator="out"/>
<feColorMatrix type="matrix" values="0 0 0 0 0.819608 0 0 0 0 0.835294 0 0 0 0 0.858824 0 0 0 1 0"/>
<feBlend mode="normal" in2="BackgroundImageFix" result="effect1_dropShadow_264_616"/>
<feBlend mode="normal" in="SourceGraphic" in2="effect1_dropShadow_264_616" result="shape"/>
</filter>
<filter id="filter1_d_264_616" x="195.979" y="60.7423" width="106.033" height="75.5488" filterUnits="userSpaceOnUse" color-interpolation-filters="sRGB">
<feFlood flood-opacity="0" result="BackgroundImageFix"/>
<feColorMatrix in="SourceAlpha" type="matrix" values="0 0 0 0 0 0 0 0 0 0 0 0 0 0 0 0 0 0 127 0" result="hardAlpha"/>
<feOffset dy="4.49477"/>
<feGaussianBlur stdDeviation="1.12369"/>
<feComposite in2="hardAlpha" operator="out"/>
<feColorMatrix type="matrix" values="0 0 0 0 0.278431 0 0 0 0 0.184314 0 0 0 0 0.572549 0 0 0 0.54 0"/>
<feBlend mode="normal" in2="BackgroundImageFix" result="effect1_dropShadow_264_616"/>
<feBlend mode="normal" in="SourceGraphic" in2="effect1_dropShadow_264_616" result="shape"/>
</filter>
<linearGradient id="paint0_linear_264_616" x1="191" y1="90" x2="191" y2="206" gradientUnits="userSpaceOnUse">
<stop stop-color="white" stop-opacity="0"/>
<stop offset="1" stop-color="white"/>
</linearGradient>
<clipPath id="clip0_264_616">
<rect width="280" height="180" rx="14" fill="white"/>
</clipPath>
</defs>
</svg>
