<svg width="270" height="198" viewBox="0 0 270 198" fill="none" xmlns="http://www.w3.org/2000/svg">
<g clip-path="url(#clip0_190_592)">
<line x1="-166" y1="144" x2="226" y2="144" stroke="url(#paint0_linear_190_592)" stroke-width="2"/>
<circle cx="103" cy="145" r="7" fill="white" stroke="#9CA3AF" stroke-width="2"/>
<circle cx="35" cy="145" r="7" fill="white" stroke="#9CA3AF" stroke-width="2"/>
<g filter="url(#filter0_d_190_592)">
<circle cx="163" cy="145" r="26" fill="white"/>
</g>
<path d="M150.536 134H163.915C164.322 134 164.713 134.149 165.001 134.414C165.289 134.68 165.451 135.04 165.451 135.415L165.465 136.008H170.695C171.26 136.007 171.786 136.273 172.089 136.712L176.581 143.217C176.856 143.615 177.001 144.078 177 144.55V150.85C177.004 151.226 176.844 151.587 176.557 151.854C176.269 152.121 175.877 152.271 175.469 152.27H173.568C173.314 153.058 172.791 153.75 172.075 154.242C171.36 154.734 170.491 155 169.598 155C168.703 155.007 167.831 154.744 167.113 154.251C166.396 153.758 165.875 153.062 165.628 152.27H160.663C160.409 153.058 159.885 153.75 159.17 154.242C158.454 154.734 157.586 155 156.693 155C155.798 155.007 154.925 154.744 154.208 154.251C153.491 153.758 152.969 153.062 152.722 152.27H150.531C150.124 152.271 149.735 152.122 149.448 151.858C149.16 151.593 148.999 151.234 149 150.86V135.405C149.003 135.032 149.166 134.674 149.454 134.411C149.742 134.148 150.131 134.001 150.536 134.001L150.536 134ZM169.598 152.787C170.049 152.778 170.478 152.609 170.797 152.316C171.116 152.022 171.299 151.627 171.308 151.212C171.308 150.794 171.128 150.394 170.808 150.098C170.487 149.803 170.052 149.637 169.598 149.637C169.148 149.646 168.718 149.814 168.4 150.108C168.081 150.401 167.898 150.797 167.888 151.212C167.892 151.629 168.073 152.027 168.393 152.322C168.713 152.616 169.146 152.783 169.598 152.787L169.598 152.787ZM166.914 143.258C166.914 143.451 167.083 143.607 167.293 143.607H173.352C173.486 143.604 173.609 143.537 173.675 143.429C173.74 143.321 173.739 143.189 173.671 143.082L170.49 138.462C170.421 138.361 170.301 138.3 170.171 138.3H167.29C167.08 138.3 166.911 138.456 166.911 138.649L166.914 143.258ZM156.693 152.776C157.304 152.776 157.869 152.476 158.174 151.988C158.479 151.501 158.479 150.901 158.174 150.414C157.869 149.926 157.304 149.626 156.693 149.626C156.242 149.632 155.81 149.8 155.491 150.094C155.172 150.388 154.99 150.785 154.983 151.201C154.983 151.619 155.163 152.019 155.484 152.315C155.805 152.61 156.239 152.776 156.693 152.776L156.693 152.776Z" fill="#374151"/>
<circle cx="226.5" cy="144.5" r="9.5" fill="white" stroke="#9CA3AF" stroke-width="2"/>
<circle cx="226.5" cy="144.5" r="4.25" fill="#9CA3AF" stroke="#9CA3AF" stroke-width="2"/>
<g filter="url(#filter1_d_190_592)">
<path d="M138 79C138 76.2386 140.239 74 143 74H183C185.761 74 188 76.2386 188 79V98.2147C188 100.976 185.761 103.215 183 103.215H174H168.5L163 110L157.5 103.215H152H143C140.239 103.215 138 100.976 138 98.2147V79Z" fill="#472F92"/>
</g>
<path d="M145.28 84.192L148.128 82.8H149.584V92.624H152.832V94H144.592V92.624H148.128V84.32L145.984 85.344L145.28 84.192ZM158.895 82.8H159.967V90.416L164.031 86H165.519L162.191 89.6L165.663 94H164.287L161.439 90.416L159.967 92V94H158.895V82.8ZM179.733 94H178.645V89.216C178.645 88.736 178.565 88.3413 178.405 88.032C178.256 87.712 178.064 87.4613 177.829 87.28C177.605 87.0987 177.354 86.976 177.077 86.912C176.8 86.8373 176.533 86.8 176.277 86.8C176.032 86.8 175.776 86.8427 175.509 86.928C175.253 87.0027 175.018 87.1467 174.805 87.36C174.592 87.5627 174.416 87.84 174.277 88.192C174.138 88.544 174.069 88.992 174.069 89.536V94H172.981V89.216C172.981 88.736 172.901 88.3413 172.741 88.032C172.592 87.712 172.4 87.4613 172.165 87.28C171.93 87.0987 171.674 86.976 171.397 86.912C171.12 86.8373 170.858 86.8 170.613 86.8C170.368 86.8 170.112 86.8427 169.845 86.928C169.589 87.0027 169.349 87.1467 169.125 87.36C168.912 87.5627 168.736 87.84 168.597 88.192C168.458 88.544 168.389 88.992 168.389 89.536V94H167.317V86H168.389V87.04C168.634 86.6987 168.96 86.4107 169.365 86.176C169.781 85.9413 170.261 85.824 170.805 85.824C171.029 85.824 171.274 85.8507 171.541 85.904C171.818 85.9467 172.096 86.0373 172.373 86.176C172.65 86.304 172.906 86.4853 173.141 86.72C173.386 86.944 173.589 87.232 173.749 87.584C173.845 87.36 173.973 87.1467 174.133 86.944C174.304 86.7307 174.506 86.544 174.741 86.384C174.976 86.2133 175.237 86.08 175.525 85.984C175.813 85.8773 176.128 85.824 176.469 85.824C176.757 85.824 177.088 85.872 177.461 85.968C177.845 86.0533 178.202 86.2187 178.533 86.464C178.874 86.7093 179.157 87.056 179.381 87.504C179.616 87.9413 179.733 88.512 179.733 89.216V94Z" fill="white"/>
<path d="M225.83 92.8947C222.791 92.8965 219.877 94.1045 217.728 96.2534C215.579 98.4026 214.371 101.317 214.369 104.355C214.369 108.46 218.953 116.483 222.788 122.484C223.455 123.517 224.6 124.141 225.83 124.141C227.06 124.141 228.205 123.517 228.872 122.484C232.707 116.483 237.291 108.461 237.291 104.355C237.289 101.317 236.081 98.4024 233.932 96.2534C231.783 94.1045 228.869 92.8965 225.83 92.8947H225.83ZM220.62 104.356C220.62 102.974 221.169 101.649 222.146 100.672C223.123 99.695 224.448 99.1461 225.83 99.1461C227.212 99.1461 228.537 99.695 229.514 100.672C230.49 101.649 231.039 102.974 231.039 104.356C231.039 105.737 230.49 107.062 229.514 108.039C228.537 109.016 227.212 109.565 225.83 109.565C224.448 109.565 223.124 109.016 222.147 108.039C221.17 107.062 220.621 105.737 220.62 104.356Z" fill="#111827"/>
<rect x="41" y="13" width="62" height="89" rx="5" fill="#F3F4F6"/>
<rect x="51" y="62" width="42" height="6" rx="3" fill="#E5E7EB"/>
<rect x="57" y="71" width="30" height="6" rx="3" fill="#E5E7EB"/>
<rect x="50" y="22" width="40" height="34" rx="6" fill="#E5E7EB"/>
<path d="M54 25C54 22.2386 56.2386 20 59 20H87C89.7614 20 92 22.2386 92 25V46.5V50C92 52.7614 89.7614 55 87 55H59C56.2386 55 54 52.7614 54 50V46.5V25Z" fill="white" stroke="#D1D5DB" stroke-width="2"/>
<path d="M81.9986 29.3041V38.6955C81.9986 39.1756 81.7066 39.6072 81.2604 39.7854L73.457 42.9071L73.4547 42.908L73.4349 42.916C73.2951 42.9719 73.1475 43 72.9993 43C72.8512 43 72.7036 42.9716 72.5637 42.916L72.5439 42.908L72.5416 42.9071L64.7382 39.7854C64.292 39.6075 64 39.1756 64 38.6955V29.3041C64 28.824 64.292 28.3924 64.7382 28.2142L72.5644 25.0836C72.8441 24.9721 73.1559 24.9721 73.4356 25.0836L81.2618 28.2142C81.708 28.3922 82 28.8241 82 29.3041H81.9986Z" fill="#E5E7EB"/>
<path d="M81.9986 29.3041V38.6955C81.9986 39.1756 81.7066 39.6072 81.2604 39.7854L73.457 42.9071L73.4547 42.908L73.4349 42.916C73.2951 42.9719 73.1475 43 72.9993 43C72.8512 43 72.7036 42.9716 72.5637 42.916L72.5439 42.908L72.5416 42.9071L64.7382 39.7854C64.292 39.6075 64 39.1756 64 38.6955V29.3041C64 28.824 64.292 28.3924 64.7382 28.2142L72.5644 25.0836C72.8441 24.9721 73.1559 24.9721 73.4356 25.0836L81.2618 28.2142C81.708 28.3922 82 28.8241 82 29.3041H81.9986ZM71.8247 33.2291L66.3465 31.0381V37.9008L71.8247 40.0924V33.2291ZM77.6641 29.3041L72.9986 27.4377L68.3329 29.3043L72.9986 31.1704L77.6641 29.3041ZM79.6507 31.0378L74.1725 33.2291V40.0921L79.6507 37.9005V31.0378Z" fill="#D1D5DB"/>
<mask id="mask0_190_592" style="mask-type:luminance" maskUnits="userSpaceOnUse" x="61" y="80" width="23" height="16">
<path d="M61 80H83.1886V95.3457H61V80Z" fill="white"/>
</mask>
<g mask="url(#mask0_190_592)">
<path d="M66.8192 88.4174C66.2448 90.6073 65.8945 92.8946 65.8945 94.672C65.8945 95.0325 65.6023 95.3247 65.2418 95.3247C64.8816 95.3247 64.5894 95.0325 64.5894 94.672C64.5894 93.0557 64.8558 91.0703 65.3087 89.0953C64.1341 89.5636 62.9246 89.9109 61.7543 90.0958C61.3984 90.152 61.0643 89.909 61.0081 89.5528C60.9519 89.1969 61.1949 88.8628 61.5508 88.8066C62.9206 88.5902 64.3591 88.1268 65.7162 87.4997C65.9856 86.5454 66.2947 85.6186 66.6339 84.7643C67.2804 83.1372 68.0016 81.8555 68.76 81.0542C69.7142 80.0459 70.797 79.7532 71.8037 80.4244C73.6963 81.6862 72.873 83.9434 70.3989 86.0713C69.3777 86.9495 68.1446 87.754 66.8191 88.4174L66.8192 88.4174ZM69.5478 85.0814C71.4628 83.4347 71.9523 82.0921 71.0798 81.5103C70.2685 80.9694 69.0234 82.2853 67.8471 85.2462C67.6689 85.6943 67.4995 86.1642 67.3404 86.6483C68.1476 86.1711 68.8965 85.6416 69.5478 85.0814L69.5478 85.0814ZM70.5731 89.9361C70.3051 90.1772 69.8924 90.1555 69.6513 89.8877C69.4102 89.6197 69.4319 89.2071 69.6999 88.966L72.5595 86.3921C72.9614 86.0306 73.5805 86.0631 73.942 86.465C74.049 86.5838 74.1253 86.7273 74.1641 86.8825L74.4616 88.0727L76.0384 87.0327C76.4806 86.7411 77.0747 86.854 77.379 87.2878L77.9263 88.0682L82.3965 87.0916C82.7487 87.0148 83.0965 87.2379 83.1734 87.5898C83.2503 87.9419 83.0274 88.2897 82.6753 88.3669L77.9926 89.3897C77.6072 89.4741 77.209 89.3184 76.9824 88.9956L76.4924 88.297L74.796 89.4161C74.7035 89.4768 74.6016 89.5217 74.4944 89.5486C73.9697 89.6798 73.4382 89.3607 73.307 88.8362L73.0294 87.7255L70.5731 89.9361Z" fill="#9CA3AF"/>
</g>
<path d="M87.1401 56.02C90.458 56.02 93.1601 53.318 93.1601 50C93.1601 46.682 90.4581 43.98 87.1401 43.98C83.8221 43.98 81.1201 46.682 81.1201 50C81.1201 53.318 83.8221 56.02 87.1401 56.02ZM84.0601 49.7621C84.2841 49.5381 84.6341 49.5381 84.8581 49.7621L86.1741 51.0781L89.142 48.1102C89.366 47.8862 89.716 47.8862 89.94 48.1102C90.164 48.3342 90.164 48.6842 89.94 48.9082L86.58 52.2682C86.468 52.3803 86.3281 52.4362 86.188 52.4362C86.048 52.4362 85.9081 52.3803 85.796 52.2682L84.06 50.5602C83.85 50.3362 83.85 49.9862 84.06 49.7622L84.0601 49.7621Z" fill="#22C55E"/>
</g>
<defs>
<filter id="filter0_d_190_592" x="113" y="99" width="100" height="100" filterUnits="userSpaceOnUse" color-interpolation-filters="sRGB">
<feFlood flood-opacity="0" result="BackgroundImageFix"/>
<feColorMatrix in="SourceAlpha" type="matrix" values="0 0 0 0 0 0 0 0 0 0 0 0 0 0 0 0 0 0 127 0" result="hardAlpha"/>
<feOffset dy="4"/>
<feGaussianBlur stdDeviation="12"/>
<feComposite in2="hardAlpha" operator="out"/>
<feColorMatrix type="matrix" values="0 0 0 0 0.778387 0 0 0 0 0.801831 0 0 0 0 0.84202 0 0 0 0.42 0"/>
<feBlend mode="normal" in2="BackgroundImageFix" result="effect1_dropShadow_190_592"/>
<feBlend mode="normal" in="SourceGraphic" in2="effect1_dropShadow_190_592" result="shape"/>
</filter>
<filter id="filter1_d_190_592" x="114" y="54" width="98" height="84" filterUnits="userSpaceOnUse" color-interpolation-filters="sRGB">
<feFlood flood-opacity="0" result="BackgroundImageFix"/>
<feColorMatrix in="SourceAlpha" type="matrix" values="0 0 0 0 0 0 0 0 0 0 0 0 0 0 0 0 0 0 127 0" result="hardAlpha"/>
<feOffset dy="4"/>
<feGaussianBlur stdDeviation="12"/>
<feComposite in2="hardAlpha" operator="out"/>
<feColorMatrix type="matrix" values="0 0 0 0 0.819608 0 0 0 0 0.835294 0 0 0 0 0.858824 0 0 0 0.6 0"/>
<feBlend mode="normal" in2="BackgroundImageFix" result="effect1_dropShadow_190_592"/>
<feBlend mode="normal" in="SourceGraphic" in2="effect1_dropShadow_190_592" result="shape"/>
</filter>
<linearGradient id="paint0_linear_190_592" x1="-166" y1="145.5" x2="226" y2="145.5" gradientUnits="userSpaceOnUse">
<stop stop-color="#9CA3AF" stop-opacity="0"/>
<stop offset="1" stop-color="#9CA3AF"/>
<stop offset="1.0001" stop-color="#707275" stop-opacity="0.439216"/>
</linearGradient>
<clipPath id="clip0_190_592">
<rect width="270" height="198" rx="14" fill="white"/>
</clipPath>
</defs>
</svg>
