<svg width="382" height="216" viewBox="0 0 382 216" fill="none" xmlns="http://www.w3.org/2000/svg">
<g clip-path="url(#clip0_168_1196)">
<rect x="-1" y="167" width="384" height="84" fill="url(#paint0_linear_168_1196)"/>
<line x1="-110" y1="155.535" x2="315.545" y2="155.535" stroke="url(#paint1_linear_168_1196)" stroke-width="2"/>
<circle cx="182.02" cy="156.535" r="7.6846" fill="white" stroke="#9CA3AF" stroke-width="2"/>
<circle cx="108.2" cy="156.535" r="7.6846" fill="white" stroke="#9CA3AF" stroke-width="2"/>
<g filter="url(#filter0_d_168_1196)">
<circle cx="247.155" cy="156.535" r="28.2249" fill="white"/>
</g>
<path d="M233.624 144.594H248.148C248.59 144.594 249.014 144.756 249.327 145.044C249.64 145.332 249.815 145.723 249.815 146.13L249.831 146.774H255.508C256.121 146.773 256.692 147.062 257.021 147.538L261.898 154.599C262.196 155.032 262.353 155.534 262.352 156.047V162.886C262.356 163.294 262.183 163.687 261.871 163.976C261.559 164.266 261.134 164.428 260.691 164.427H258.627C258.352 165.283 257.783 166.034 257.007 166.569C256.23 167.102 255.286 167.391 254.317 167.391C253.346 167.399 252.398 167.114 251.62 166.578C250.841 166.043 250.275 165.288 250.007 164.427H244.617C244.342 165.283 243.773 166.034 242.997 166.569C242.22 167.102 241.277 167.391 240.307 167.391C239.336 167.399 238.389 167.114 237.61 166.578C236.832 166.043 236.265 165.288 235.997 164.427H233.618C233.177 164.428 232.754 164.267 232.442 163.98C232.13 163.693 231.956 163.304 231.956 162.897V146.12C231.96 145.714 232.137 145.326 232.449 145.041C232.762 144.755 233.184 144.595 233.624 144.595L233.624 144.594ZM254.317 164.989C254.807 164.979 255.273 164.796 255.619 164.477C255.965 164.159 256.164 163.729 256.174 163.279C256.174 162.825 255.978 162.391 255.63 162.07C255.282 161.749 254.81 161.569 254.317 161.569C253.828 161.579 253.362 161.762 253.016 162.08C252.67 162.399 252.471 162.828 252.461 163.279C252.465 163.731 252.662 164.164 253.009 164.484C253.356 164.804 253.826 164.985 254.317 164.989L254.317 164.989ZM251.403 154.644C251.403 154.854 251.587 155.024 251.814 155.024H258.392C258.538 155.021 258.671 154.947 258.743 154.83C258.814 154.713 258.812 154.569 258.739 154.454L255.286 149.438C255.211 149.329 255.08 149.262 254.939 149.262H251.811C251.584 149.262 251.4 149.431 251.4 149.641L251.403 154.644ZM240.308 164.977C240.971 164.977 241.584 164.651 241.915 164.122C242.247 163.593 242.247 162.941 241.915 162.412C241.584 161.883 240.971 161.557 240.308 161.557C239.818 161.564 239.35 161.746 239.003 162.065C238.656 162.385 238.459 162.816 238.451 163.267C238.451 163.721 238.647 164.156 238.995 164.476C239.343 164.797 239.815 164.977 240.308 164.977L240.308 164.977Z" fill="#374151"/>
<circle cx="316.088" cy="155.993" r="10.3985" fill="white" stroke="#9CA3AF" stroke-width="2"/>
<circle cx="316.088" cy="155.993" r="4.69927" fill="#9CA3AF" stroke="#9CA3AF" stroke-width="2"/>
<g filter="url(#filter1_d_168_1196)">
<path d="M220.015 84.4597C220.015 81.6983 222.253 79.4597 225.015 79.4597H269.293C272.055 79.4597 274.293 81.6983 274.293 84.4597V106.174C274.293 108.936 272.055 111.174 269.293 111.174H259.095H253.125L247.154 118.54L241.183 111.174H235.213H225.015C222.253 111.174 220.015 108.936 220.015 106.174V84.4597Z" fill="#472F92"/>
</g>
<path d="M227.808 91.1651L230.656 89.7731H232.112V99.5971H235.36V100.973H227.12V99.5971H230.656V91.2931L228.512 92.3171L227.808 91.1651ZM241.424 89.7731H242.496V97.3891L246.56 92.9731H248.048L244.72 96.5731L248.192 100.973H246.816L243.968 97.3891L242.496 98.9731V100.973H241.424V89.7731ZM262.261 100.973H261.173V96.1891C261.173 95.7091 261.093 95.3145 260.933 95.0051C260.784 94.6851 260.592 94.4345 260.357 94.2531C260.133 94.0718 259.883 93.9491 259.605 93.8851C259.328 93.8105 259.061 93.7731 258.805 93.7731C258.56 93.7731 258.304 93.8158 258.037 93.9011C257.781 93.9758 257.547 94.1198 257.333 94.3331C257.12 94.5358 256.944 94.8131 256.805 95.1651C256.667 95.5171 256.597 95.9651 256.597 96.5091V100.973H255.509V96.1891C255.509 95.7091 255.429 95.3145 255.269 95.0051C255.12 94.6851 254.928 94.4345 254.693 94.2531C254.459 94.0718 254.203 93.9491 253.925 93.8851C253.648 93.8105 253.387 93.7731 253.141 93.7731C252.896 93.7731 252.64 93.8158 252.373 93.9011C252.117 93.9758 251.877 94.1198 251.653 94.3331C251.44 94.5358 251.264 94.8131 251.125 95.1651C250.987 95.5171 250.917 95.9651 250.917 96.5091V100.973H249.845V92.9731H250.917V94.0131C251.163 93.6718 251.488 93.3838 251.893 93.1491C252.309 92.9145 252.789 92.7971 253.333 92.7971C253.557 92.7971 253.803 92.8238 254.069 92.8771C254.347 92.9198 254.624 93.0105 254.901 93.1491C255.179 93.2771 255.435 93.4585 255.669 93.6931C255.915 93.9171 256.117 94.2051 256.277 94.5571C256.373 94.3331 256.501 94.1198 256.661 93.9171C256.832 93.7038 257.035 93.5171 257.269 93.3571C257.504 93.1865 257.765 93.0531 258.053 92.9571C258.341 92.8505 258.656 92.7971 258.997 92.7971C259.285 92.7971 259.616 92.8451 259.989 92.9411C260.373 93.0265 260.731 93.1918 261.061 93.4371C261.403 93.6825 261.685 94.0291 261.909 94.4771C262.144 94.9145 262.261 95.4851 262.261 96.1891V100.973Z" fill="white"/>
<path d="M315.315 99.9736C312.008 99.9756 308.836 101.29 306.498 103.629C304.159 105.967 302.845 109.139 302.843 112.446C302.843 116.913 307.831 125.643 312.004 132.174C312.73 133.298 313.977 133.977 315.315 133.977C316.653 133.977 317.9 133.298 318.626 132.174C322.798 125.643 327.787 116.913 327.787 112.446C327.785 109.139 326.47 105.967 324.132 103.629C321.793 101.29 318.622 99.9755 315.315 99.9736H315.315ZM309.646 112.446C309.646 110.942 310.243 109.5 311.306 108.437C312.369 107.374 313.811 106.777 315.315 106.777C316.818 106.777 318.26 107.374 319.324 108.437C320.387 109.5 320.984 110.942 320.984 112.446C320.984 113.949 320.387 115.391 319.324 116.455C318.26 117.518 316.818 118.115 315.315 118.115C313.811 118.114 312.37 117.517 311.307 116.454C310.243 115.391 309.646 113.949 309.646 112.446Z" fill="#111827"/>
<rect x="114.714" y="13.2395" width="67.3056" height="96.6161" rx="5" fill="#F3F4F6"/>
<rect x="125.569" y="66.4329" width="45.5941" height="6.51345" rx="3.25672" fill="#E5E7EB"/>
<rect x="132.083" y="76.2029" width="32.5672" height="6.51345" rx="3.25672" fill="#E5E7EB"/>
<rect x="124.483" y="23.0098" width="43.423" height="36.9095" rx="6" fill="#E5E7EB"/>
<path d="M128.74 25.7529C128.74 22.9915 130.979 20.7529 133.74 20.7529H165.163C167.925 20.7529 170.163 22.9915 170.163 25.7529V49.6062V53.9192C170.163 56.6806 167.925 58.9192 165.163 58.9192H133.74C130.979 58.9192 128.74 56.6806 128.74 53.9192V49.6062V25.7529Z" fill="white" stroke="#D1D5DB" stroke-width="2"/>
<path d="M159.221 30.939V41.1341C159.221 41.6553 158.903 42.1238 158.419 42.3173L149.948 45.7061L149.945 45.7071L149.924 45.7158C149.772 45.7765 149.612 45.8069 149.451 45.8069C149.29 45.8069 149.13 45.7761 148.978 45.7158L148.957 45.7071L148.954 45.7061L140.483 42.3173C139.999 42.1241 139.682 41.6552 139.682 41.1341V30.939C139.682 30.4179 139.999 29.9493 140.483 29.7558L148.979 26.3574C149.283 26.2363 149.621 26.2363 149.925 26.3574L158.421 29.7558C158.905 29.9491 159.222 30.4179 159.222 30.939H159.221Z" fill="#E5E7EB"/>
<path d="M159.221 30.939V41.1341C159.221 41.6553 158.903 42.1238 158.419 42.3173L149.948 45.7061L149.945 45.7071L149.924 45.7158C149.772 45.7765 149.612 45.8069 149.451 45.8069C149.29 45.8069 149.13 45.7761 148.978 45.7158L148.957 45.7071L148.954 45.7061L140.483 42.3173C139.999 42.1241 139.682 41.6552 139.682 41.1341V30.939C139.682 30.4179 139.999 29.9493 140.483 29.7558L148.979 26.3574C149.283 26.2363 149.621 26.2363 149.925 26.3574L158.421 29.7558C158.905 29.9491 159.222 30.4179 159.222 30.939H159.221ZM148.176 35.1999L142.229 32.8214V40.2714L148.176 42.6506V35.1999ZM154.515 30.939L149.45 28.9129L144.385 30.9393L149.45 32.9651L154.515 30.939ZM156.672 32.8211L150.725 35.1999V42.6502L156.672 40.271V32.8211Z" fill="#D1D5DB"/>
<mask id="mask0_168_1196" style="mask-type:luminance" maskUnits="userSpaceOnUse" x="136" y="85" width="25" height="18">
<path d="M136.425 85.9731H160.512V102.632H136.425V85.9731Z" fill="white"/>
</mask>
<g mask="url(#mask0_168_1196)">
<path d="M142.742 95.1107C142.118 97.4881 141.738 99.9711 141.738 101.901C141.738 102.292 141.421 102.609 141.03 102.609C140.639 102.609 140.321 102.292 140.321 101.901C140.321 100.146 140.611 97.9906 141.102 95.8467C139.827 96.355 138.514 96.7321 137.244 96.9328C136.857 96.9938 136.495 96.73 136.434 96.3434C136.373 95.957 136.636 95.5943 137.023 95.5333C138.51 95.2984 140.071 94.7953 141.545 94.1145C141.837 93.0786 142.173 92.0724 142.541 91.145C143.243 89.3787 144.026 87.9873 144.849 87.1175C145.885 86.0229 147.06 85.7051 148.153 86.4338C150.208 87.8035 149.314 90.2539 146.628 92.5639C145.519 93.5172 144.181 94.3906 142.742 95.1108L142.742 95.1107ZM145.704 91.4893C147.783 89.7017 148.314 88.2441 147.367 87.6126C146.487 87.0254 145.135 88.4539 143.858 91.6682C143.664 92.1546 143.481 92.6647 143.308 93.1902C144.184 92.6723 144.997 92.0974 145.704 91.4892L145.704 91.4893ZM146.817 96.7594C146.526 97.0212 146.078 96.9975 145.816 96.7069C145.555 96.416 145.578 95.968 145.869 95.7062L148.974 92.9122C149.41 92.5197 150.082 92.555 150.474 92.9913C150.59 93.1203 150.673 93.2761 150.715 93.4444L151.038 94.7366L152.75 93.6076C153.23 93.291 153.875 93.4135 154.205 93.8845L154.8 94.7317L159.652 93.6715C160.035 93.5881 160.412 93.8303 160.496 94.2123C160.579 94.5945 160.337 94.9722 159.955 95.0559L154.872 96.1662C154.453 96.2579 154.021 96.0889 153.775 95.7384L153.243 94.98L151.401 96.1949C151.301 96.2608 151.19 96.3095 151.074 96.3387C150.504 96.4811 149.927 96.1347 149.785 95.5654L149.484 94.3596L146.817 96.7594Z" fill="#9CA3AF"/>
</g>
<path d="M164.803 59.9412C168.405 59.9412 171.338 57.0079 171.338 53.406C171.338 49.8041 168.405 46.8708 164.803 46.8708C161.201 46.8708 158.268 49.8041 158.268 53.406C158.268 57.0079 161.201 59.9412 164.803 59.9412ZM161.459 53.1478C161.702 52.9046 162.082 52.9046 162.325 53.1478L163.754 54.5764L166.976 51.3545C167.219 51.1114 167.599 51.1114 167.842 51.3545C168.085 51.5977 168.085 51.9777 167.842 52.2208L164.195 55.8684C164.073 55.99 163.921 56.0508 163.769 56.0508C163.617 56.0508 163.465 55.99 163.344 55.8684L161.459 54.0142C161.231 53.771 161.231 53.391 161.459 53.1479L161.459 53.1478Z" fill="#22C55E"/>
</g>
<defs>
<filter id="filter0_d_168_1196" x="194.93" y="108.311" width="104.45" height="104.45" filterUnits="userSpaceOnUse" color-interpolation-filters="sRGB">
<feFlood flood-opacity="0" result="BackgroundImageFix"/>
<feColorMatrix in="SourceAlpha" type="matrix" values="0 0 0 0 0 0 0 0 0 0 0 0 0 0 0 0 0 0 127 0" result="hardAlpha"/>
<feOffset dy="4"/>
<feGaussianBlur stdDeviation="12"/>
<feComposite in2="hardAlpha" operator="out"/>
<feColorMatrix type="matrix" values="0 0 0 0 0.778387 0 0 0 0 0.801831 0 0 0 0 0.84202 0 0 0 0.42 0"/>
<feBlend mode="normal" in2="BackgroundImageFix" result="effect1_dropShadow_168_1196"/>
<feBlend mode="normal" in="SourceGraphic" in2="effect1_dropShadow_168_1196" result="shape"/>
</filter>
<filter id="filter1_d_168_1196" x="196.015" y="59.4597" width="102.278" height="87.0808" filterUnits="userSpaceOnUse" color-interpolation-filters="sRGB">
<feFlood flood-opacity="0" result="BackgroundImageFix"/>
<feColorMatrix in="SourceAlpha" type="matrix" values="0 0 0 0 0 0 0 0 0 0 0 0 0 0 0 0 0 0 127 0" result="hardAlpha"/>
<feOffset dy="4"/>
<feGaussianBlur stdDeviation="12"/>
<feComposite in2="hardAlpha" operator="out"/>
<feColorMatrix type="matrix" values="0 0 0 0 0.819608 0 0 0 0 0.835294 0 0 0 0 0.858824 0 0 0 0.6 0"/>
<feBlend mode="normal" in2="BackgroundImageFix" result="effect1_dropShadow_168_1196"/>
<feBlend mode="normal" in="SourceGraphic" in2="effect1_dropShadow_168_1196" result="shape"/>
</filter>
<linearGradient id="paint0_linear_168_1196" x1="191" y1="161" x2="191" y2="277" gradientUnits="userSpaceOnUse">
<stop stop-color="white" stop-opacity="0"/>
<stop offset="1" stop-color="white"/>
</linearGradient>
<linearGradient id="paint1_linear_168_1196" x1="-110" y1="157.035" x2="315.545" y2="157.035" gradientUnits="userSpaceOnUse">
<stop stop-color="#9CA3AF" stop-opacity="0"/>
<stop offset="1" stop-color="#9CA3AF"/>
<stop offset="1.0001" stop-color="#707275" stop-opacity="0.439216"/>
</linearGradient>
<clipPath id="clip0_168_1196">
<rect width="382" height="216" rx="14" fill="white"/>
</clipPath>
</defs>
</svg>
