<svg width="275" height="290" viewBox="0 0 275 290" fill="none" xmlns="http://www.w3.org/2000/svg">
<g clip-path="url(#clip0_168_934)">
<g clip-path="url(#clip1_168_934)">
<rect x="186.309" y="369.167" width="248.837" height="248.827" rx="5.33333" transform="rotate(-149.875 186.309 369.167)" fill="white"/>
<path d="M-131.062 310.939L170.365 485.849L344.975 184.941L43.5478 10.0303L-131.062 310.939Z" fill="#E5E7EB"/>
<path d="M119.207 80.4969L136.604 64.0286L89.2804 36.5677L96.7782 55.4068L119.207 80.4969Z" fill="#F3F4F6"/>
<path d="M209.948 106.588L171.564 84.3148L200.718 117.41C204.006 113.55 207.105 109.918 209.942 106.584L209.948 106.588Z" fill="#F3F4F6"/>
<path d="M11.5883 127.39L-11.2731 104.503L-35.2889 145.89L-18.5358 162.819L11.5883 127.39Z" fill="#F3F4F6"/>
<path d="M6.03981 187.643L39.8197 155.662L15.5443 131.351L-14.5962 166.795L6.03981 187.643Z" fill="#F3F4F6"/>
<path d="M274.929 144.295L216.072 110.142C212.849 113.919 209.255 118.141 205.372 122.694L240.774 162.881L274.919 144.298L274.929 144.295Z" fill="#F3F4F6"/>
<path d="M285.016 253.578L315.842 235.144L343.658 187.21L285.913 215.605L285.016 253.578Z" fill="#F3F4F6"/>
<path d="M283.018 210.82L340.695 182.457L280.572 147.57L244.563 167.171L283.018 210.82Z" fill="#F3F4F6"/>
<path d="M238.385 305.219L261.658 328.522L282.126 293.25L266.549 278.612L238.385 305.219Z" fill="#F3F4F6"/>
<path d="M308.628 247.578L283.506 262.597L270.605 274.788L284.996 288.303L308.628 247.578Z" fill="#F3F4F6"/>
<path d="M-98.1229 82.4155L-103.072 87.3065L-51.8507 139.047L-147.438 225.922C-164.221 234.042 -189.295 246.144 -190.798 246.776L-188.07 253.186C-185.913 252.273 -148.234 234.043 -143.945 231.971L-143.494 231.75L-106.547 198.172L-60.3003 250.445L-148.002 333.48L-143.209 338.538L-55.4447 255.451L-32.7099 276.945L-107.365 349.065L-102.519 354.073L-27.4589 281.561L32.1786 329.561L-0.940915 420.675L5.60579 423.058L39.421 330.023L48.9245 316.215L124.388 391.644L62.6717 455.922L67.7038 460.749L129.317 396.579L147.463 414.719C130.473 439.331 106.097 474.492 104.414 476.532C104.542 476.381 104.644 476.288 104.703 476.241L109.321 481.463C109.704 481.122 110.733 480.223 154.557 416.728L165.272 408.344L179.67 425.388L235.866 549.922L242.22 547.069L185.808 422.087L185.608 421.641L170.747 404.048L179.257 397.394L221.801 439.787L260.61 513.197L266.772 509.951L227.469 435.603L182.01 390.303L161.969 369.889L212.735 329.174L243.544 360.141L288.463 447.546L294.661 444.377L250.565 358.568L269.528 336.387L238.389 305.213L283.516 262.594L403.305 190.962L399.72 184.988L285.026 253.575L285.957 214.142L205.388 122.694C220.927 104.456 231.916 91.5734 232.606 90.8152L230.028 88.4666L227.46 86.1156C226.851 86.7759 215.805 99.7295 200.734 117.411L150.539 60.4419L164.986 46.7666L160.193 41.7086L145.938 55.2058L111.049 15.6054L105.822 20.1982L140.88 59.9932L119.226 80.4916L96.7935 55.4076L76.6988 4.90781L70.2223 7.47271L90.7768 59.1242L114.168 85.279L44.8872 150.872L-64.581 41.2629L-69.5098 46.1739L39.8321 155.653L6.05228 187.634L-98.1039 82.4105L-98.1229 82.4155ZM-101.399 193.493L-46.9456 144.009L0.980698 192.43L-55.2487 245.67L-101.396 193.503L-101.399 193.493ZM-50.3956 250.666L5.88675 197.376L27.2753 218.983L-27.7037 272.095L-50.3982 250.656L-50.3956 250.666ZM32.184 223.939L74.529 266.715L35.5613 323.343L-22.4101 276.679L32.184 223.939ZM167.699 145.149L172.663 150.371C147.644 179.752 121.788 210.145 113.641 219.713L75.7914 181.813L142.693 117.181L167.699 145.149ZM109.127 225.049L83.2877 255.829L78.817 261.159L37.1892 219.104L70.7826 186.654L109.133 225.053L109.127 225.049ZM69.7795 285.913L151.607 369.275L129.552 386.966L52.9419 310.388L69.7855 285.917L69.7795 285.913ZM174.32 392.405L152.26 409.659L134.505 391.915L156.511 374.268L174.32 392.405ZM157.065 364.896L73.7977 280.071L81.8099 268.43L114.07 230.001L207.793 324.207L157.065 364.896ZM163.273 269.597L178.129 254.744L228.398 305.071L213.018 319.605L163.269 269.603L163.273 269.597ZM260.044 336.748L246.197 352.944L217.935 324.533L233.324 309.997L260.044 336.748ZM178.127 244.888L158.357 264.653L118.569 224.664C135.069 205.27 157.148 179.33 177.476 155.449L276.456 259.664L233.456 300.284L178.121 244.884L178.127 244.888ZM278.919 216.687L278.108 251.29L182.019 150.121C188.625 142.361 194.978 134.898 200.826 128.043L278.925 216.69L278.919 216.687ZM145.469 65.2223L196.162 122.762C190.203 129.754 183.765 137.321 177.186 145.048L172.85 140.48L123.858 85.689L145.475 65.2258L145.469 65.2223ZM118.799 90.4765L138.03 111.981L70.8532 176.88L49.7977 155.797L118.803 90.4705L118.799 90.4765ZM44.7452 160.588L65.854 181.718L32.2867 214.152L10.9514 192.592L44.7547 160.585L44.7452 160.588Z" fill="white"/>
<path d="M87.3357 272.144L108.606 246.806C111.763 243.047 117.469 242.81 120.941 246.297L191.35 317.063C194.851 320.583 194.537 326.362 190.665 329.465L163.483 351.268C160.137 353.952 155.291 353.666 152.276 350.598L87.1613 284.263C84.3558 281.404 83.9698 276.972 86.236 273.678L86.8532 272.781C87.004 272.563 87.1668 272.352 87.3357 272.144Z" fill="#F3F4F6"/>
<path d="M96.7575 472.511L101.644 467.556L-167.774 202.322L-172.66 207.277L96.7575 472.511Z" fill="white"/>
<path d="M79.319 475.263L84.2051 470.308L-185.213 205.074L-190.099 210.029L79.319 475.263Z" fill="white"/>
<path d="M-10.339 253.206L9.14759 234.386L-12.5006 212.686L-32.1918 231.33L-10.339 253.206Z" fill="#F3F4F6"/>
<path d="M26.3577 217.753L4.96908 196.147L-10.4787 210.77L11.1488 232.451L26.3577 217.753Z" fill="#F3F4F6"/>
<path d="M4.48612 271.97L-9.76778 286.368L11.5064 303.492L23.693 291.184L4.48612 271.97Z" fill="#F3F4F6"/>
<path d="M61.5579 282.996L73.6118 265.486L63.3333 255.105L48.5934 269.994L61.5579 282.996Z" fill="#F3F4F6"/>
<path d="M27.6216 291.178L44.3843 307.952L59.9562 285.324L46.6326 271.97L27.6216 291.178Z" fill="#F3F4F6"/>
<path d="M46.6198 268.02L61.3727 253.123L42.2623 233.812L27.4425 248.783L46.6198 268.02Z" fill="#F3F4F6"/>
<path d="M4.47421 268.02L23.5147 248.789L14.0699 239.319L-5.40714 258.136L4.47421 268.02Z" fill="#F3F4F6"/>
<path d="M-7.40856 260.071L-23.3274 275.45L-11.9468 284.612L2.51404 269.996L-7.40856 260.071Z" fill="#F3F4F6"/>
<path d="M40.2981 231.836L31.2601 222.706L16.0712 237.383L25.4688 246.81L40.2981 231.836Z" fill="#F3F4F6"/>
<path d="M44.6652 270L25.4819 250.759L6.44136 269.99L25.6482 289.204L44.6652 270Z" fill="#F3F4F6"/>
<path d="M74.8677 180.58L112.718 218.48C115.272 215.481 119.563 210.433 125.024 204.021L92.6787 163.371L74.8677 180.58Z" fill="#F3F4F6"/>
<path d="M171.739 149.139L166.775 143.917L141.77 115.948L119.342 137.614L151.868 172.481C158.319 164.906 165.056 156.989 171.736 149.145L171.739 149.139Z" fill="#F3F4F6"/>
<path d="M94.6899 161.433L126.865 201.864C133.423 194.158 141.446 184.735 150.057 174.616L117.346 139.553L94.6959 161.436L94.6899 161.433Z" fill="#F3F4F6"/>
<path d="M82.37 254.6L108.212 223.814L69.8589 185.421L36.2655 217.872L77.8933 259.926L82.37 254.6Z" fill="#F3F4F6"/>
<path d="M68.8657 284.678L52.0221 309.15L65.6947 322.82L88.4897 304.673L68.8657 284.678Z" fill="#F3F4F6"/>
<path d="M177.215 253.509L162.358 268.362L192.138 298.297L206.584 282.915L177.215 253.509Z" fill="#F3F4F6"/>
<path d="M212.104 318.37L227.484 303.836L208.557 284.889L194.102 300.273L212.104 318.37Z" fill="#F3F4F6"/>
<path d="M213.324 279.812L232.545 299.058L250.404 282.182L230.819 261.188L213.324 279.812Z" fill="#F3F4F6"/>
<path d="M206.296 230.82L227.684 208.044L205.993 185.209L184.793 207.772L206.296 230.82Z" fill="#F3F4F6"/>
<path d="M230.824 257.112L252.435 234.104L229.61 210.071L208.199 232.858L230.824 257.112Z" fill="#F3F4F6"/>
<path d="M206.292 234.896L187.955 254.415L211.351 277.838L228.914 259.141L206.292 234.896Z" fill="#F3F4F6"/>
<path d="M252.432 280.27L275.544 258.438L254.355 236.127L232.728 259.15L252.432 280.27Z" fill="#F3F4F6"/>
<path d="M182.889 209.805L144.624 250.542L157.44 263.424L177.209 243.659L185.981 252.442L204.385 232.849L182.889 209.805Z" fill="#F3F4F6"/>
<path d="M154.837 179.739C141.424 195.494 128.366 210.844 117.655 223.429L142.657 248.556L180.982 207.757L154.84 179.733L154.837 179.739Z" fill="#F3F4F6"/>
<path d="M204.066 183.182L176.565 154.223C170.03 161.903 163.31 169.789 156.654 177.607L182.887 205.725L204.07 183.176L204.066 183.182Z" fill="#F3F4F6"/>
<path d="M277.19 250.061L278.002 215.458L271.168 207.695L253.16 224.758L277.19 250.061Z" fill="#F3F4F6"/>
<path d="M251.235 222.741L269.32 205.602L234.162 165.701L215.504 185.121L251.235 222.741Z" fill="#F3F4F6"/>
<path d="M232.313 163.597L199.902 126.81C194.06 133.669 187.697 141.135 181.095 148.888L213.582 183.088L232.311 163.588L232.313 163.597Z" fill="#F3F4F6"/>
<path d="M171.936 139.245L176.273 143.813C182.851 136.086 189.292 128.529 195.248 121.527L170.838 93.8235L147.833 112.291L171.93 139.242L171.936 139.245Z" fill="#F3F4F6"/>
<path d="M168.997 91.7333L144.561 63.9907L122.944 84.4539L145.975 110.215L168.997 91.7333Z" fill="#F3F4F6"/>
<path d="M48.8863 154.571L69.9418 175.654L88.3203 157.897L69.8672 134.704L48.8863 154.571Z" fill="#F3F4F6"/>
<path d="M112.587 134.451L92.6807 113.109L71.8988 132.786L90.3288 155.95L112.587 134.451Z" fill="#F3F4F6"/>
<path d="M137.123 110.75L117.885 89.2414L94.6997 111.2L114.589 132.515L137.123 110.75Z" fill="#F3F4F6"/>
<path d="M10.0278 191.36L31.3631 212.919L64.9365 180.489L43.8311 159.353L10.0278 191.36Z" fill="#F3F4F6"/>
<path d="M65.2669 121.622L86.2034 101.843C95.7939 92.7846 96.383 77.731 87.5374 67.8664C85.6165 65.7268 84.0917 63.2695 83.0277 60.6022L78.7579 49.9319C76.7165 44.837 73.0223 40.5592 68.2642 37.7982L67.9473 37.6143C56.2397 30.8207 41.2736 34.7517 34.5172 46.3951L15.2416 79.6132C9.69813 89.1664 11.308 101.27 19.1572 109.117L31.1128 121.067C40.5088 130.458 55.6612 130.707 65.2722 121.625L65.2669 121.622Z" fill="#F3F4F6"/>
</g>
<rect x="185.825" y="367.345" width="246.171" height="246.16" rx="4" transform="rotate(-149.875 185.825 367.345)" stroke="white" stroke-width="2.66667"/>
<circle cx="139.429" cy="172.924" r="169.172" transform="rotate(-149.875 139.429 172.924)" fill="url(#paint0_radial_168_934)"/>
<circle cx="134.793" cy="176.874" r="172.888" transform="rotate(-149.875 134.793 176.874)" fill="url(#paint1_radial_168_934)"/>
<circle cx="125.262" cy="177.147" r="165.401" transform="rotate(-149.875 125.262 177.147)" fill="url(#paint2_radial_168_934)"/>
<path d="M232.97 340.033L125.561 242.595C123.957 241.14 123.804 238.673 125.215 237.03L189.348 162.338C190.653 160.818 190.632 158.568 189.299 157.073L142.478 104.564L129.891 88.3877" stroke="#E7E9ED" stroke-width="2" stroke-linecap="round"/>
<path d="M126.371 86.9346C128.395 83.4489 132.862 82.2624 136.349 84.2846C139.836 86.3068 141.022 90.7719 138.998 94.2576C136.974 97.7432 132.507 98.9298 129.02 96.9076C125.533 94.8854 124.347 90.4203 126.371 86.9346Z" fill="white" stroke="#472F92" stroke-width="2.66667"/>
<path d="M132.125 48.4345C129.446 48.4364 126.877 49.5009 124.983 51.3944C123.088 53.288 122.023 55.8555 122.021 58.5327C122.021 62.1493 126.061 69.2169 129.44 74.5038C130.028 75.4138 131.038 75.9631 132.122 75.963C133.206 75.9629 134.216 75.4133 134.804 74.5032C138.184 69.2155 142.226 62.1471 142.226 58.5304C142.225 55.8531 141.16 53.2859 139.266 51.3928C137.372 49.4998 134.804 48.4358 132.125 48.4345L132.125 48.4345ZM127.532 58.5322C127.532 57.3149 128.016 56.1475 128.877 55.2866C129.738 54.426 130.906 53.9422 132.124 53.9421C133.342 53.9419 134.51 54.4254 135.371 55.2859C136.232 56.1466 136.716 57.3139 136.716 58.5312C136.716 59.7485 136.232 60.9159 135.37 61.7768C134.509 62.6374 133.341 63.1212 132.123 63.1213C130.905 63.121 129.738 62.6375 128.877 61.7769C128.016 60.9164 127.532 59.7493 127.532 58.5322Z" fill="#111827"/>
<rect x="-63" y="224" width="384" height="84" fill="url(#paint3_linear_168_934)"/>
<ellipse cx="172.884" cy="180.586" rx="18.0681" ry="18.0586" fill="#DDD5F4"/>
<g filter="url(#filter0_d_168_934)">
<ellipse cx="172.884" cy="180.586" rx="14.8796" ry="14.8718" fill="#472F92"/>
</g>
<path d="M181.401 173.15L172.26 173.15C171.981 173.15 171.714 173.256 171.517 173.444C171.321 173.631 171.21 173.886 171.21 174.152L171.2 174.572L167.627 174.572C167.241 174.572 166.882 174.76 166.675 175.07L163.606 179.677C163.418 179.959 163.319 180.287 163.319 180.621L163.319 185.083C163.317 185.349 163.426 185.605 163.622 185.794C163.819 185.983 164.086 186.089 164.365 186.088L165.664 186.088C165.837 186.647 166.195 187.137 166.684 187.485C167.173 187.834 167.767 188.022 168.377 188.022C168.988 188.027 169.584 187.841 170.074 187.492C170.564 187.142 170.921 186.65 171.089 186.088L174.482 186.088C174.655 186.647 175.013 187.137 175.502 187.485C175.991 187.834 176.584 188.022 177.194 188.022C177.806 188.027 178.402 187.841 178.892 187.492C179.382 187.142 179.738 186.65 179.907 186.088L181.404 186.088C181.682 186.089 181.948 185.984 182.144 185.797C182.341 185.609 182.451 185.355 182.45 185.09L182.45 174.145C182.448 173.881 182.337 173.628 182.14 173.441C181.943 173.255 181.678 173.151 181.401 173.151L181.401 173.15ZM168.376 186.455C168.069 186.448 167.775 186.329 167.557 186.121C167.34 185.913 167.215 185.633 167.208 185.339C167.208 185.043 167.331 184.76 167.55 184.551C167.769 184.341 168.067 184.224 168.377 184.224C168.684 184.23 168.978 184.35 169.196 184.557C169.413 184.765 169.538 185.045 169.545 185.339C169.542 185.634 169.418 185.917 169.2 186.125C168.981 186.334 168.686 186.452 168.377 186.454L168.376 186.455ZM170.211 179.706C170.211 179.843 170.095 179.954 169.952 179.954L165.812 179.954C165.72 179.952 165.636 179.904 165.591 179.827C165.547 179.751 165.547 179.658 165.594 179.582L167.767 176.31C167.814 176.239 167.896 176.195 167.985 176.195L169.954 176.195C170.097 176.195 170.213 176.306 170.213 176.442L170.211 179.706ZM177.194 186.447C176.777 186.447 176.391 186.234 176.182 185.889C175.973 185.544 175.973 185.119 176.182 184.774C176.391 184.429 176.777 184.216 177.194 184.216C177.502 184.221 177.797 184.339 178.015 184.548C178.233 184.756 178.358 185.037 178.362 185.332C178.362 185.627 178.239 185.911 178.02 186.12C177.801 186.329 177.504 186.447 177.194 186.447L177.194 186.447Z" fill="white"/>
<rect x="-62" y="224" width="382" height="108" fill="url(#paint4_linear_168_934)"/>
<g filter="url(#filter1_d_168_934)">
<rect x="29" y="229" width="200" height="22" rx="11" fill="white" shape-rendering="crispEdges"/>
<rect x="28.5" y="228.5" width="201" height="23" rx="11.5" stroke="#F3F4F6" shape-rendering="crispEdges"/>
<path d="M38.596 237.628L37.384 237.016L37.672 236.5L38.824 237.244L38.764 235.876H39.352L39.28 237.244L40.432 236.5L40.72 237.016L39.508 237.628L40.72 238.252L40.432 238.768L39.28 238.024L39.352 239.392H38.764L38.824 238.024L37.672 238.768L37.384 238.252L38.596 237.628ZM46.3456 242.992C46.1136 243.336 45.8216 243.616 45.4696 243.832C45.1176 244.048 44.7016 244.156 44.2216 244.156C43.7736 244.156 43.3696 244.076 43.0096 243.916C42.6496 243.748 42.3416 243.524 42.0856 243.244C41.8296 242.964 41.6336 242.632 41.4976 242.248C41.3616 241.864 41.2936 241.452 41.2936 241.012C41.2936 240.564 41.3616 240.152 41.4976 239.776C41.6336 239.392 41.8296 239.06 42.0856 238.78C42.3416 238.492 42.6496 238.268 43.0096 238.108C43.3696 237.948 43.7736 237.868 44.2216 237.868C44.7016 237.868 45.1176 237.976 45.4696 238.192C45.8216 238.408 46.1136 238.688 46.3456 239.032V238H47.3776V244H46.3456V242.992ZM44.2456 243.172C44.5496 243.172 44.8256 243.116 45.0736 243.004C45.3296 242.892 45.5496 242.74 45.7336 242.548C45.9256 242.356 46.0736 242.128 46.1776 241.864C46.2816 241.6 46.3336 241.312 46.3336 241C46.3336 240.696 46.2816 240.412 46.1776 240.148C46.0736 239.884 45.9256 239.656 45.7336 239.464C45.5496 239.272 45.3296 239.124 45.0736 239.02C44.8256 238.908 44.5496 238.852 44.2456 238.852C43.9576 238.852 43.6936 238.908 43.4536 239.02C43.2136 239.132 43.0056 239.288 42.8296 239.488C42.6616 239.68 42.5296 239.908 42.4336 240.172C42.3456 240.436 42.3016 240.716 42.3016 241.012C42.3016 241.308 42.3456 241.588 42.4336 241.852C42.5296 242.116 42.6616 242.348 42.8296 242.548C43.0056 242.74 43.2136 242.892 43.4536 243.004C43.6936 243.116 43.9576 243.172 44.2456 243.172ZM47.96 238H49.064L50.96 242.812L52.856 238H53.96L51.608 244H50.324L47.96 238ZM59.1781 242.992C58.9461 243.336 58.6541 243.616 58.3021 243.832C57.9501 244.048 57.5341 244.156 57.0541 244.156C56.6061 244.156 56.2021 244.076 55.8421 243.916C55.4821 243.748 55.1741 243.524 54.9181 243.244C54.6621 242.964 54.4661 242.632 54.3301 242.248C54.1941 241.864 54.1261 241.452 54.1261 241.012C54.1261 240.564 54.1941 240.152 54.3301 239.776C54.4661 239.392 54.6621 239.06 54.9181 238.78C55.1741 238.492 55.4821 238.268 55.8421 238.108C56.2021 237.948 56.6061 237.868 57.0541 237.868C57.5341 237.868 57.9501 237.976 58.3021 238.192C58.6541 238.408 58.9461 238.688 59.1781 239.032V238H60.2101V244H59.1781V242.992ZM57.0781 243.172C57.3821 243.172 57.6581 243.116 57.9061 243.004C58.1621 242.892 58.3821 242.74 58.5661 242.548C58.7581 242.356 58.9061 242.128 59.0101 241.864C59.1141 241.6 59.1661 241.312 59.1661 241C59.1661 240.696 59.1141 240.412 59.0101 240.148C58.9061 239.884 58.7581 239.656 58.5661 239.464C58.3821 239.272 58.1621 239.124 57.9061 239.02C57.6581 238.908 57.3821 238.852 57.0781 238.852C56.7901 238.852 56.5261 238.908 56.2861 239.02C56.0461 239.132 55.8381 239.288 55.6621 239.488C55.4941 239.68 55.3621 239.908 55.2661 240.172C55.1781 240.436 55.1341 240.716 55.1341 241.012C55.1341 241.308 55.1781 241.588 55.2661 241.852C55.3621 242.116 55.4941 242.348 55.6621 242.548C55.8381 242.74 56.0461 242.892 56.2861 243.004C56.5261 243.116 56.7901 243.172 57.0781 243.172ZM62.1549 236.404C61.9949 236.404 61.8509 236.344 61.7229 236.224C61.6029 236.104 61.5429 235.96 61.5429 235.792C61.5429 235.624 61.6029 235.48 61.7229 235.36C61.8509 235.232 61.9949 235.168 62.1549 235.168C62.3229 235.168 62.4669 235.232 62.5869 235.36C62.7069 235.48 62.7669 235.624 62.7669 235.792C62.7669 235.96 62.7069 236.104 62.5869 236.224C62.4669 236.344 62.3229 236.404 62.1549 236.404ZM61.6269 238H62.6709V244H61.6269V238ZM65.8908 244C65.7788 244.016 65.6668 244.028 65.5548 244.036C65.4428 244.052 65.3348 244.06 65.2308 244.06C65.0708 244.06 64.9188 244.04 64.7748 244C64.6388 243.968 64.5188 243.904 64.4148 243.808C64.3188 243.712 64.2388 243.584 64.1748 243.424C64.1188 243.256 64.0908 243.044 64.0908 242.788V235.6H65.1228V242.728C65.1228 242.928 65.1868 243.04 65.3148 243.064C65.4428 243.088 65.6348 243.084 65.8908 243.052V244ZM71.4424 242.992C71.2104 243.336 70.9184 243.616 70.5664 243.832C70.2144 244.048 69.7984 244.156 69.3184 244.156C68.8704 244.156 68.4664 244.076 68.1064 243.916C67.7464 243.748 67.4384 243.524 67.1824 243.244C66.9264 242.964 66.7304 242.632 66.5944 242.248C66.4584 241.864 66.3904 241.452 66.3904 241.012C66.3904 240.564 66.4584 240.152 66.5944 239.776C66.7304 239.392 66.9264 239.06 67.1824 238.78C67.4384 238.492 67.7464 238.268 68.1064 238.108C68.4664 237.948 68.8704 237.868 69.3184 237.868C69.7984 237.868 70.2144 237.976 70.5664 238.192C70.9184 238.408 71.2104 238.688 71.4424 239.032V238H72.4744V244H71.4424V242.992ZM69.3424 243.172C69.6464 243.172 69.9224 243.116 70.1704 243.004C70.4264 242.892 70.6464 242.74 70.8304 242.548C71.0224 242.356 71.1704 242.128 71.2744 241.864C71.3784 241.6 71.4304 241.312 71.4304 241C71.4304 240.696 71.3784 240.412 71.2744 240.148C71.1704 239.884 71.0224 239.656 70.8304 239.464C70.6464 239.272 70.4264 239.124 70.1704 239.02C69.9224 238.908 69.6464 238.852 69.3424 238.852C69.0544 238.852 68.7904 238.908 68.5504 239.02C68.3104 239.132 68.1024 239.288 67.9264 239.488C67.7584 239.68 67.6264 239.908 67.5304 240.172C67.4424 240.436 67.3984 240.716 67.3984 241.012C67.3984 241.308 67.4424 241.588 67.5304 241.852C67.6264 242.116 67.7584 242.348 67.9264 242.548C68.1024 242.74 68.3104 242.892 68.5504 243.004C68.7904 243.116 69.0544 243.172 69.3424 243.172ZM73.7593 235.6H74.7913V239.044C75.0233 238.692 75.3153 238.408 75.6673 238.192C76.0273 237.976 76.4473 237.868 76.9273 237.868C77.3753 237.868 77.7793 237.948 78.1393 238.108C78.4993 238.268 78.8073 238.492 79.0633 238.78C79.3193 239.06 79.5153 239.392 79.6513 239.776C79.7873 240.152 79.8553 240.564 79.8553 241.012C79.8553 241.452 79.7873 241.864 79.6513 242.248C79.5153 242.632 79.3193 242.964 79.0633 243.244C78.8073 243.524 78.4993 243.748 78.1393 243.916C77.7793 244.076 77.3753 244.156 76.9273 244.156C76.4473 244.156 76.0273 244.048 75.6673 243.832C75.3153 243.608 75.0233 243.324 74.7913 242.98V244H73.7593V235.6ZM76.9033 243.172C77.1913 243.172 77.4553 243.116 77.6953 243.004C77.9353 242.892 78.1393 242.74 78.3073 242.548C78.4833 242.348 78.6153 242.116 78.7033 241.852C78.7993 241.588 78.8473 241.308 78.8473 241.012C78.8473 240.716 78.7993 240.436 78.7033 240.172C78.6153 239.908 78.4833 239.68 78.3073 239.488C78.1393 239.288 77.9353 239.132 77.6953 239.02C77.4553 238.908 77.1913 238.852 76.9033 238.852C76.6073 238.852 76.3313 238.908 76.0753 239.02C75.8193 239.124 75.5953 239.272 75.4033 239.464C75.2193 239.656 75.0753 239.884 74.9713 240.148C74.8673 240.412 74.8153 240.696 74.8153 241C74.8153 241.312 74.8673 241.6 74.9713 241.864C75.0753 242.128 75.2193 242.356 75.4033 242.548C75.5953 242.74 75.8193 242.892 76.0753 243.004C76.3313 243.116 76.6073 243.172 76.9033 243.172ZM82.374 244C82.262 244.016 82.15 244.028 82.038 244.036C81.926 244.052 81.818 244.06 81.714 244.06C81.554 244.06 81.402 244.04 81.258 244C81.122 243.968 81.002 243.904 80.898 243.808C80.802 243.712 80.722 243.584 80.658 243.424C80.602 243.256 80.574 243.044 80.574 242.788V235.6H81.606V242.728C81.606 242.928 81.67 243.04 81.798 243.064C81.926 243.088 82.118 243.084 82.374 243.052V244ZM86.0056 237.856C86.4536 237.856 86.8616 237.94 87.2296 238.108C87.5976 238.276 87.9136 238.504 88.1776 238.792C88.4416 239.08 88.6456 239.416 88.7896 239.8C88.9336 240.184 89.0056 240.588 89.0056 241.012C89.0056 241.092 89.0016 241.16 88.9936 241.216C88.9936 241.272 88.9856 241.336 88.9696 241.408H83.9176C83.9496 241.664 84.0256 241.904 84.1456 242.128C84.2656 242.344 84.4176 242.536 84.6016 242.704C84.7936 242.864 85.0176 242.992 85.2736 243.088C85.5296 243.184 85.8096 243.232 86.1136 243.232C86.4816 243.232 86.8296 243.148 87.1576 242.98C87.4856 242.812 87.7296 242.604 87.8896 242.356L88.7056 242.836C88.4416 243.244 88.0856 243.564 87.6376 243.796C87.1896 244.028 86.6736 244.144 86.0896 244.144C85.6096 244.144 85.1696 244.064 84.7696 243.904C84.3776 243.744 84.0416 243.524 83.7616 243.244C83.4816 242.964 83.2616 242.632 83.1016 242.248C82.9496 241.864 82.8736 241.448 82.8736 241C82.8736 240.552 82.9496 240.14 83.1016 239.764C83.2536 239.38 83.4656 239.048 83.7376 238.768C84.0176 238.48 84.3496 238.256 84.7336 238.096C85.1176 237.936 85.5416 237.856 86.0056 237.856ZM88.0216 240.568C87.9496 240.008 87.7376 239.568 87.3856 239.248C87.0336 238.928 86.5696 238.768 85.9936 238.768C85.6896 238.768 85.4096 238.82 85.1536 238.924C84.8976 239.02 84.6776 239.152 84.4936 239.32C84.3096 239.488 84.1656 239.68 84.0616 239.896C83.9576 240.112 83.9056 240.336 83.9056 240.568H88.0216ZM96.4358 244C96.2758 244.016 96.1238 244.028 95.9798 244.036C95.8438 244.052 95.7078 244.06 95.5718 244.06C95.2998 244.06 95.0598 244.032 94.8518 243.976C94.6438 243.92 94.4678 243.82 94.3238 243.676C94.1878 243.532 94.0838 243.34 94.0118 243.1C93.9398 242.86 93.9038 242.556 93.9038 242.188V238.948H92.5838V238H93.9038V236.368L94.9358 235.996V238H96.4118V238.948H94.9358V242.128C94.9358 242.504 95.0078 242.76 95.1518 242.896C95.3038 243.024 95.5278 243.088 95.8238 243.088C96.0078 243.088 96.2118 243.076 96.4358 243.052V244ZM100.321 244.144C99.889 244.144 99.481 244.064 99.097 243.904C98.713 243.736 98.377 243.512 98.089 243.232C97.809 242.944 97.585 242.608 97.417 242.224C97.257 241.84 97.177 241.432 97.177 241C97.177 240.568 97.257 240.164 97.417 239.788C97.585 239.404 97.809 239.072 98.089 238.792C98.377 238.504 98.713 238.28 99.097 238.12C99.481 237.952 99.889 237.868 100.321 237.868C100.753 237.868 101.157 237.952 101.533 238.12C101.917 238.28 102.249 238.504 102.529 238.792C102.817 239.072 103.041 239.404 103.201 239.788C103.369 240.164 103.453 240.568 103.453 241C103.453 241.432 103.369 241.84 103.201 242.224C103.041 242.608 102.817 242.944 102.529 243.232C102.249 243.512 101.917 243.736 101.533 243.904C101.157 244.064 100.753 244.144 100.321 244.144ZM100.309 243.112C100.597 243.112 100.869 243.056 101.125 242.944C101.381 242.832 101.605 242.68 101.797 242.488C101.989 242.296 102.141 242.072 102.253 241.816C102.365 241.56 102.421 241.288 102.421 241C102.421 240.712 102.365 240.44 102.253 240.184C102.141 239.928 101.989 239.704 101.797 239.512C101.605 239.32 101.381 239.172 101.125 239.068C100.869 238.956 100.597 238.9 100.309 238.9C100.021 238.9 99.749 238.956 99.493 239.068C99.237 239.172 99.013 239.32 98.821 239.512C98.629 239.704 98.477 239.928 98.365 240.184C98.253 240.44 98.197 240.712 98.197 241C98.197 241.288 98.253 241.56 98.365 241.816C98.477 242.072 98.629 242.296 98.821 242.488C99.013 242.68 99.237 242.832 99.493 242.944C99.749 243.056 100.021 243.112 100.309 243.112ZM113.363 246.148L112.319 246.4V242.992C112.095 243.336 111.807 243.616 111.455 243.832C111.103 244.04 110.687 244.144 110.207 244.144C109.759 244.144 109.355 244.064 108.995 243.904C108.635 243.744 108.327 243.524 108.071 243.244C107.815 242.956 107.619 242.62 107.483 242.236C107.347 241.852 107.279 241.44 107.279 241C107.279 240.56 107.347 240.148 107.483 239.764C107.619 239.38 107.815 239.048 108.071 238.768C108.327 238.488 108.635 238.268 108.995 238.108C109.355 237.94 109.759 237.856 110.207 237.856C110.687 237.856 111.103 237.964 111.455 238.18C111.807 238.396 112.095 238.676 112.319 239.02V238H113.363V246.148ZM110.231 238.828C109.943 238.828 109.679 238.888 109.439 239.008C109.199 239.12 108.991 239.276 108.815 239.476C108.647 239.668 108.515 239.896 108.419 240.16C108.331 240.424 108.287 240.704 108.287 241C108.287 241.296 108.331 241.576 108.419 241.84C108.515 242.104 108.647 242.336 108.815 242.536C108.991 242.728 109.199 242.88 109.439 242.992C109.679 243.104 109.943 243.16 110.231 243.16C110.535 243.16 110.811 243.108 111.059 243.004C111.315 242.892 111.535 242.74 111.719 242.548C111.911 242.356 112.059 242.128 112.163 241.864C112.267 241.6 112.319 241.316 112.319 241.012C112.319 240.7 112.267 240.412 112.163 240.148C112.059 239.884 111.911 239.656 111.719 239.464C111.535 239.264 111.315 239.108 111.059 238.996C110.811 238.884 110.535 238.828 110.231 238.828ZM114.684 238H115.716V241.588C115.716 241.908 115.768 242.176 115.872 242.392C115.976 242.6 116.104 242.768 116.256 242.896C116.416 243.016 116.592 243.1 116.784 243.148C116.976 243.196 117.156 243.22 117.324 243.22C117.492 243.22 117.668 243.192 117.852 243.136C118.036 243.08 118.204 242.98 118.356 242.836C118.508 242.692 118.632 242.5 118.728 242.26C118.832 242.02 118.884 241.716 118.884 241.348V238H119.928V244H118.884V243.292C118.692 243.524 118.444 243.724 118.14 243.892C117.836 244.06 117.492 244.144 117.108 244.144C116.892 244.144 116.644 244.108 116.364 244.036C116.084 243.972 115.82 243.848 115.572 243.664C115.324 243.472 115.112 243.212 114.936 242.884C114.768 242.548 114.684 242.116 114.684 241.588V238ZM125.843 242.992C125.611 243.336 125.319 243.616 124.967 243.832C124.615 244.048 124.199 244.156 123.719 244.156C123.271 244.156 122.867 244.076 122.507 243.916C122.147 243.748 121.839 243.524 121.583 243.244C121.327 242.964 121.131 242.632 120.995 242.248C120.859 241.864 120.791 241.452 120.791 241.012C120.791 240.564 120.859 240.152 120.995 239.776C121.131 239.392 121.327 239.06 121.583 238.78C121.839 238.492 122.147 238.268 122.507 238.108C122.867 237.948 123.271 237.868 123.719 237.868C124.199 237.868 124.615 237.976 124.967 238.192C125.319 238.408 125.611 238.688 125.843 239.032V238H126.875V244H125.843V242.992ZM123.743 243.172C124.047 243.172 124.323 243.116 124.571 243.004C124.827 242.892 125.047 242.74 125.231 242.548C125.423 242.356 125.571 242.128 125.675 241.864C125.779 241.6 125.831 241.312 125.831 241C125.831 240.696 125.779 240.412 125.675 240.148C125.571 239.884 125.423 239.656 125.231 239.464C125.047 239.272 124.827 239.124 124.571 239.02C124.323 238.908 124.047 238.852 123.743 238.852C123.455 238.852 123.191 238.908 122.951 239.02C122.711 239.132 122.503 239.288 122.327 239.488C122.159 239.68 122.027 239.908 121.931 240.172C121.843 240.436 121.799 240.716 121.799 241.012C121.799 241.308 121.843 241.588 121.931 241.852C122.027 242.116 122.159 242.348 122.327 242.548C122.503 242.74 122.711 242.892 122.951 243.004C123.191 243.116 123.455 243.172 123.743 243.172ZM129.96 244C129.848 244.016 129.736 244.028 129.624 244.036C129.512 244.052 129.404 244.06 129.3 244.06C129.14 244.06 128.988 244.04 128.844 244C128.708 243.968 128.588 243.904 128.484 243.808C128.388 243.712 128.308 243.584 128.244 243.424C128.188 243.256 128.16 243.044 128.16 242.788V235.6H129.192V242.728C129.192 242.928 129.256 243.04 129.384 243.064C129.512 243.088 129.704 243.084 129.96 243.052V244ZM131.393 236.404C131.233 236.404 131.089 236.344 130.961 236.224C130.841 236.104 130.781 235.96 130.781 235.792C130.781 235.624 130.841 235.48 130.961 235.36C131.089 235.232 131.233 235.168 131.393 235.168C131.561 235.168 131.705 235.232 131.825 235.36C131.945 235.48 132.005 235.624 132.005 235.792C132.005 235.96 131.945 236.104 131.825 236.224C131.705 236.344 131.561 236.404 131.393 236.404ZM130.865 238H131.909V244H130.865V238ZM133.886 238.948H132.794V238H133.886V237.328C133.886 236.96 133.922 236.656 133.994 236.416C134.066 236.176 134.174 235.984 134.318 235.84C134.462 235.696 134.638 235.596 134.846 235.54C135.054 235.484 135.294 235.456 135.566 235.456C135.694 235.456 135.826 235.464 135.962 235.48C136.106 235.488 136.258 235.5 136.418 235.516V236.464C136.194 236.44 135.994 236.428 135.818 236.428C135.514 236.428 135.29 236.496 135.146 236.632C135.002 236.76 134.93 237.012 134.93 237.388V238H136.406V238.948H134.93V244H133.886V238.948ZM137.733 238L139.833 242.512L141.501 238H142.593L140.313 244.216C140.033 244.944 139.649 245.504 139.161 245.896C138.673 246.288 138.101 246.456 137.445 246.4V245.404C137.693 245.428 137.913 245.4 138.105 245.32C138.305 245.24 138.481 245.128 138.633 244.984C138.793 244.84 138.929 244.672 139.041 244.48C139.153 244.296 139.249 244.1 139.329 243.892L136.605 238H137.733ZM143.938 236.404C143.778 236.404 143.634 236.344 143.506 236.224C143.386 236.104 143.326 235.96 143.326 235.792C143.326 235.624 143.386 235.48 143.506 235.36C143.634 235.232 143.778 235.168 143.938 235.168C144.106 235.168 144.25 235.232 144.37 235.36C144.49 235.48 144.55 235.624 144.55 235.792C144.55 235.96 144.49 236.104 144.37 236.224C144.25 236.344 144.106 236.404 143.938 236.404ZM143.41 238H144.454V244H143.41V238ZM151.118 244H150.086V240.412C150.086 240.084 150.034 239.816 149.93 239.608C149.826 239.4 149.694 239.236 149.534 239.116C149.382 238.988 149.21 238.9 149.018 238.852C148.826 238.804 148.646 238.78 148.478 238.78C148.31 238.78 148.13 238.808 147.938 238.864C147.754 238.92 147.586 239.02 147.434 239.164C147.282 239.308 147.154 239.5 147.05 239.74C146.954 239.98 146.906 240.284 146.906 240.652V244H145.874V238H146.906V238.708C147.106 238.476 147.358 238.276 147.662 238.108C147.966 237.94 148.306 237.856 148.682 237.856C148.898 237.856 149.146 237.892 149.426 237.964C149.706 238.028 149.97 238.156 150.218 238.348C150.474 238.532 150.686 238.792 150.854 239.128C151.03 239.456 151.118 239.884 151.118 240.412V244ZM157.213 242.992C156.981 243.336 156.689 243.616 156.337 243.832C155.985 244.048 155.569 244.156 155.089 244.156C154.649 244.156 154.245 244.076 153.877 243.916C153.517 243.748 153.209 243.524 152.953 243.244C152.705 242.964 152.509 242.632 152.365 242.248C152.229 241.864 152.161 241.452 152.161 241.012C152.161 240.564 152.229 240.152 152.365 239.776C152.509 239.392 152.705 239.06 152.953 238.78C153.209 238.492 153.517 238.268 153.877 238.108C154.245 237.948 154.649 237.868 155.089 237.868C155.569 237.868 155.985 237.976 156.337 238.192C156.689 238.4 156.981 238.676 157.213 239.02V238H158.245V243.712C158.245 244.152 158.161 244.544 157.993 244.888C157.833 245.24 157.609 245.536 157.321 245.776C157.041 246.024 156.705 246.212 156.313 246.34C155.929 246.476 155.513 246.544 155.065 246.544C154.361 246.544 153.741 246.412 153.205 246.148C152.677 245.884 152.301 245.536 152.077 245.104L152.965 244.588C153.101 244.844 153.341 245.072 153.685 245.272C154.037 245.48 154.505 245.584 155.089 245.584C155.393 245.584 155.673 245.54 155.929 245.452C156.193 245.364 156.417 245.236 156.601 245.068C156.793 244.908 156.941 244.712 157.045 244.48C157.157 244.248 157.213 243.992 157.213 243.712V242.992ZM155.113 243.172C155.417 243.172 155.697 243.116 155.953 243.004C156.209 242.892 156.429 242.74 156.613 242.548C156.797 242.356 156.941 242.128 157.045 241.864C157.157 241.6 157.213 241.312 157.213 241C157.213 240.696 157.157 240.412 157.045 240.148C156.941 239.884 156.797 239.656 156.613 239.464C156.429 239.272 156.209 239.124 155.953 239.02C155.697 238.908 155.417 238.852 155.113 238.852C154.825 238.852 154.561 238.908 154.321 239.02C154.081 239.132 153.877 239.288 153.709 239.488C153.541 239.68 153.409 239.908 153.313 240.172C153.225 240.436 153.181 240.716 153.181 241.012C153.181 241.308 153.225 241.588 153.313 241.852C153.409 242.116 153.541 242.348 153.709 242.548C153.877 242.74 154.081 242.892 154.321 243.004C154.561 243.116 154.825 243.172 155.113 243.172ZM162.416 235.6H163.448V239.044C163.68 238.692 163.972 238.408 164.324 238.192C164.684 237.976 165.104 237.868 165.584 237.868C166.032 237.868 166.436 237.948 166.796 238.108C167.156 238.268 167.464 238.492 167.72 238.78C167.976 239.06 168.172 239.392 168.308 239.776C168.444 240.152 168.512 240.564 168.512 241.012C168.512 241.452 168.444 241.864 168.308 242.248C168.172 242.632 167.976 242.964 167.72 243.244C167.464 243.524 167.156 243.748 166.796 243.916C166.436 244.076 166.032 244.156 165.584 244.156C165.104 244.156 164.684 244.048 164.324 243.832C163.972 243.608 163.68 243.324 163.448 242.98V244H162.416V235.6ZM165.56 243.172C165.848 243.172 166.112 243.116 166.352 243.004C166.592 242.892 166.796 242.74 166.964 242.548C167.14 242.348 167.272 242.116 167.36 241.852C167.456 241.588 167.504 241.308 167.504 241.012C167.504 240.716 167.456 240.436 167.36 240.172C167.272 239.908 167.14 239.68 166.964 239.488C166.796 239.288 166.592 239.132 166.352 239.02C166.112 238.908 165.848 238.852 165.56 238.852C165.264 238.852 164.988 238.908 164.732 239.02C164.476 239.124 164.252 239.272 164.06 239.464C163.876 239.656 163.732 239.884 163.628 240.148C163.524 240.412 163.472 240.696 163.472 241C163.472 241.312 163.524 241.6 163.628 241.864C163.732 242.128 163.876 242.356 164.06 242.548C164.252 242.74 164.476 242.892 164.732 243.004C164.988 243.116 165.264 243.172 165.56 243.172ZM169.665 238H170.697V241.588C170.697 241.908 170.749 242.176 170.853 242.392C170.957 242.6 171.085 242.768 171.237 242.896C171.397 243.016 171.573 243.1 171.765 243.148C171.957 243.196 172.137 243.22 172.305 243.22C172.473 243.22 172.649 243.192 172.833 243.136C173.017 243.08 173.185 242.98 173.337 242.836C173.489 242.692 173.613 242.5 173.709 242.26C173.813 242.02 173.865 241.716 173.865 241.348V238H174.909V244H173.865V243.292C173.673 243.524 173.425 243.724 173.121 243.892C172.817 244.06 172.473 244.144 172.089 244.144C171.873 244.144 171.625 244.108 171.345 244.036C171.065 243.972 170.801 243.848 170.553 243.664C170.305 243.472 170.093 243.212 169.917 242.884C169.749 242.548 169.665 242.116 169.665 241.588V238ZM177.137 239.644C177.137 239.844 177.225 240 177.401 240.112C177.585 240.216 177.809 240.304 178.073 240.376C178.345 240.44 178.637 240.508 178.949 240.58C179.269 240.652 179.561 240.756 179.825 240.892C180.097 241.02 180.321 241.196 180.497 241.42C180.681 241.636 180.773 241.936 180.773 242.32C180.773 242.608 180.709 242.864 180.581 243.088C180.461 243.312 180.293 243.504 180.077 243.664C179.861 243.816 179.605 243.932 179.309 244.012C179.021 244.1 178.709 244.144 178.373 244.144C177.749 244.144 177.225 244.024 176.801 243.784C176.377 243.536 176.073 243.2 175.889 242.776L176.741 242.332C176.877 242.668 177.085 242.912 177.365 243.064C177.653 243.208 177.989 243.28 178.373 243.28C178.549 243.28 178.721 243.26 178.889 243.22C179.057 243.18 179.205 243.12 179.333 243.04C179.461 242.96 179.565 242.86 179.645 242.74C179.725 242.62 179.765 242.484 179.765 242.332C179.765 242.108 179.673 241.936 179.489 241.816C179.313 241.696 179.089 241.596 178.817 241.516C178.545 241.436 178.249 241.36 177.929 241.288C177.609 241.216 177.313 241.12 177.041 241C176.769 240.88 176.541 240.716 176.357 240.508C176.181 240.3 176.093 240.02 176.093 239.668C176.093 239.396 176.149 239.152 176.261 238.936C176.381 238.712 176.541 238.52 176.741 238.36C176.949 238.2 177.189 238.076 177.461 237.988C177.741 237.9 178.041 237.856 178.361 237.856C178.865 237.856 179.309 237.964 179.693 238.18C180.085 238.396 180.385 238.696 180.593 239.08L179.741 239.512C179.629 239.256 179.457 239.06 179.225 238.924C178.993 238.78 178.705 238.708 178.361 238.708C177.977 238.708 177.677 238.796 177.461 238.972C177.245 239.14 177.137 239.364 177.137 239.644ZM182.512 236.404C182.352 236.404 182.208 236.344 182.08 236.224C181.96 236.104 181.9 235.96 181.9 235.792C181.9 235.624 181.96 235.48 182.08 235.36C182.208 235.232 182.352 235.168 182.512 235.168C182.68 235.168 182.824 235.232 182.944 235.36C183.064 235.48 183.124 235.624 183.124 235.792C183.124 235.96 183.064 236.104 182.944 236.224C182.824 236.344 182.68 236.404 182.512 236.404ZM181.984 238H183.028V244H181.984V238ZM189.692 244H188.66V240.412C188.66 240.084 188.608 239.816 188.504 239.608C188.4 239.4 188.268 239.236 188.108 239.116C187.956 238.988 187.784 238.9 187.592 238.852C187.4 238.804 187.22 238.78 187.052 238.78C186.884 238.78 186.704 238.808 186.512 238.864C186.328 238.92 186.16 239.02 186.008 239.164C185.856 239.308 185.728 239.5 185.624 239.74C185.528 239.98 185.48 240.284 185.48 240.652V244H184.448V238H185.48V238.708C185.68 238.476 185.932 238.276 186.236 238.108C186.54 237.94 186.88 237.856 187.256 237.856C187.472 237.856 187.72 237.892 188 237.964C188.28 238.028 188.544 238.156 188.792 238.348C189.048 238.532 189.26 238.792 189.428 239.128C189.604 239.456 189.692 239.884 189.692 240.412V244ZM193.723 237.856C194.171 237.856 194.579 237.94 194.947 238.108C195.315 238.276 195.631 238.504 195.895 238.792C196.159 239.08 196.363 239.416 196.507 239.8C196.651 240.184 196.723 240.588 196.723 241.012C196.723 241.092 196.719 241.16 196.711 241.216C196.711 241.272 196.703 241.336 196.687 241.408H191.635C191.667 241.664 191.743 241.904 191.863 242.128C191.983 242.344 192.135 242.536 192.319 242.704C192.511 242.864 192.735 242.992 192.991 243.088C193.247 243.184 193.527 243.232 193.831 243.232C194.199 243.232 194.547 243.148 194.875 242.98C195.203 242.812 195.447 242.604 195.607 242.356L196.423 242.836C196.159 243.244 195.803 243.564 195.355 243.796C194.907 244.028 194.391 244.144 193.807 244.144C193.327 244.144 192.887 244.064 192.487 243.904C192.095 243.744 191.759 243.524 191.479 243.244C191.199 242.964 190.979 242.632 190.819 242.248C190.667 241.864 190.591 241.448 190.591 241C190.591 240.552 190.667 240.14 190.819 239.764C190.971 239.38 191.183 239.048 191.455 238.768C191.735 238.48 192.067 238.256 192.451 238.096C192.835 237.936 193.259 237.856 193.723 237.856ZM195.739 240.568C195.667 240.008 195.455 239.568 195.103 239.248C194.751 238.928 194.287 238.768 193.711 238.768C193.407 238.768 193.127 238.82 192.871 238.924C192.615 239.02 192.395 239.152 192.211 239.32C192.027 239.488 191.883 239.68 191.779 239.896C191.675 240.112 191.623 240.336 191.623 240.568H195.739ZM198.595 239.644C198.595 239.844 198.683 240 198.859 240.112C199.043 240.216 199.267 240.304 199.531 240.376C199.803 240.44 200.095 240.508 200.407 240.58C200.727 240.652 201.019 240.756 201.283 240.892C201.555 241.02 201.779 241.196 201.955 241.42C202.139 241.636 202.231 241.936 202.231 242.32C202.231 242.608 202.167 242.864 202.039 243.088C201.919 243.312 201.751 243.504 201.535 243.664C201.319 243.816 201.063 243.932 200.767 244.012C200.479 244.1 200.167 244.144 199.831 244.144C199.207 244.144 198.683 244.024 198.259 243.784C197.835 243.536 197.531 243.2 197.347 242.776L198.199 242.332C198.335 242.668 198.543 242.912 198.823 243.064C199.111 243.208 199.447 243.28 199.831 243.28C200.007 243.28 200.179 243.26 200.347 243.22C200.515 243.18 200.663 243.12 200.791 243.04C200.919 242.96 201.023 242.86 201.103 242.74C201.183 242.62 201.223 242.484 201.223 242.332C201.223 242.108 201.131 241.936 200.947 241.816C200.771 241.696 200.547 241.596 200.275 241.516C200.003 241.436 199.707 241.36 199.387 241.288C199.067 241.216 198.771 241.12 198.499 241C198.227 240.88 197.999 240.716 197.815 240.508C197.639 240.3 197.551 240.02 197.551 239.668C197.551 239.396 197.607 239.152 197.719 238.936C197.839 238.712 197.999 238.52 198.199 238.36C198.407 238.2 198.647 238.076 198.919 237.988C199.199 237.9 199.499 237.856 199.819 237.856C200.323 237.856 200.767 237.964 201.151 238.18C201.543 238.396 201.843 238.696 202.051 239.08L201.199 239.512C201.087 239.256 200.915 239.06 200.683 238.924C200.451 238.78 200.163 238.708 199.819 238.708C199.435 238.708 199.135 238.796 198.919 238.972C198.703 239.14 198.595 239.364 198.595 239.644ZM204.085 239.644C204.085 239.844 204.173 240 204.349 240.112C204.533 240.216 204.757 240.304 205.021 240.376C205.293 240.44 205.585 240.508 205.897 240.58C206.217 240.652 206.509 240.756 206.773 240.892C207.045 241.02 207.269 241.196 207.445 241.42C207.629 241.636 207.721 241.936 207.721 242.32C207.721 242.608 207.657 242.864 207.529 243.088C207.409 243.312 207.241 243.504 207.025 243.664C206.809 243.816 206.553 243.932 206.257 244.012C205.969 244.1 205.657 244.144 205.321 244.144C204.697 244.144 204.173 244.024 203.749 243.784C203.325 243.536 203.021 243.2 202.837 242.776L203.689 242.332C203.825 242.668 204.033 242.912 204.313 243.064C204.601 243.208 204.937 243.28 205.321 243.28C205.497 243.28 205.669 243.26 205.837 243.22C206.005 243.18 206.153 243.12 206.281 243.04C206.409 242.96 206.513 242.86 206.593 242.74C206.673 242.62 206.713 242.484 206.713 242.332C206.713 242.108 206.621 241.936 206.437 241.816C206.261 241.696 206.037 241.596 205.765 241.516C205.493 241.436 205.197 241.36 204.877 241.288C204.557 241.216 204.261 241.12 203.989 241C203.717 240.88 203.489 240.716 203.305 240.508C203.129 240.3 203.041 240.02 203.041 239.668C203.041 239.396 203.097 239.152 203.209 238.936C203.329 238.712 203.489 238.52 203.689 238.36C203.897 238.2 204.137 238.076 204.409 237.988C204.689 237.9 204.989 237.856 205.309 237.856C205.813 237.856 206.257 237.964 206.641 238.18C207.033 238.396 207.333 238.696 207.541 239.08L206.689 239.512C206.577 239.256 206.405 239.06 206.173 238.924C205.941 238.78 205.653 238.708 205.309 238.708C204.925 238.708 204.625 238.796 204.409 238.972C204.193 239.14 204.085 239.364 204.085 239.644ZM211.601 237.856C212.049 237.856 212.457 237.94 212.825 238.108C213.193 238.276 213.509 238.504 213.773 238.792C214.037 239.08 214.241 239.416 214.385 239.8C214.529 240.184 214.601 240.588 214.601 241.012C214.601 241.092 214.597 241.16 214.589 241.216C214.589 241.272 214.581 241.336 214.565 241.408H209.513C209.545 241.664 209.621 241.904 209.741 242.128C209.861 242.344 210.013 242.536 210.197 242.704C210.389 242.864 210.613 242.992 210.869 243.088C211.125 243.184 211.405 243.232 211.709 243.232C212.077 243.232 212.425 243.148 212.753 242.98C213.081 242.812 213.325 242.604 213.485 242.356L214.301 242.836C214.037 243.244 213.681 243.564 213.233 243.796C212.785 244.028 212.269 244.144 211.685 244.144C211.205 244.144 210.765 244.064 210.365 243.904C209.973 243.744 209.637 243.524 209.357 243.244C209.077 242.964 208.857 242.632 208.697 242.248C208.545 241.864 208.469 241.448 208.469 241C208.469 240.552 208.545 240.14 208.697 239.764C208.849 239.38 209.061 239.048 209.333 238.768C209.613 238.48 209.945 238.256 210.329 238.096C210.713 237.936 211.137 237.856 211.601 237.856ZM213.617 240.568C213.545 240.008 213.333 239.568 212.981 239.248C212.629 238.928 212.165 238.768 211.589 238.768C211.285 238.768 211.005 238.82 210.749 238.924C210.493 239.02 210.273 239.152 210.089 239.32C209.905 239.488 209.761 239.68 209.657 239.896C209.553 240.112 209.501 240.336 209.501 240.568H213.617ZM216.473 239.644C216.473 239.844 216.561 240 216.737 240.112C216.921 240.216 217.145 240.304 217.409 240.376C217.681 240.44 217.973 240.508 218.285 240.58C218.605 240.652 218.897 240.756 219.161 240.892C219.433 241.02 219.657 241.196 219.833 241.42C220.017 241.636 220.109 241.936 220.109 242.32C220.109 242.608 220.045 242.864 219.917 243.088C219.797 243.312 219.629 243.504 219.413 243.664C219.197 243.816 218.941 243.932 218.645 244.012C218.357 244.1 218.045 244.144 217.709 244.144C217.085 244.144 216.561 244.024 216.137 243.784C215.713 243.536 215.409 243.2 215.225 242.776L216.077 242.332C216.213 242.668 216.421 242.912 216.701 243.064C216.989 243.208 217.325 243.28 217.709 243.28C217.885 243.28 218.057 243.26 218.225 243.22C218.393 243.18 218.541 243.12 218.669 243.04C218.797 242.96 218.901 242.86 218.981 242.74C219.061 242.62 219.101 242.484 219.101 242.332C219.101 242.108 219.009 241.936 218.825 241.816C218.649 241.696 218.425 241.596 218.153 241.516C217.881 241.436 217.585 241.36 217.265 241.288C216.945 241.216 216.649 241.12 216.377 241C216.105 240.88 215.877 240.716 215.693 240.508C215.517 240.3 215.429 240.02 215.429 239.668C215.429 239.396 215.485 239.152 215.597 238.936C215.717 238.712 215.877 238.52 216.077 238.36C216.285 238.2 216.525 238.076 216.797 237.988C217.077 237.9 217.377 237.856 217.697 237.856C218.201 237.856 218.645 237.964 219.029 238.18C219.421 238.396 219.721 238.696 219.929 239.08L219.077 239.512C218.965 239.256 218.793 239.06 218.561 238.924C218.329 238.78 218.041 238.708 217.697 238.708C217.313 238.708 217.013 238.796 216.797 238.972C216.581 239.14 216.473 239.364 216.473 239.644Z" fill="#6B7280"/>
</g>
</g>
<defs>
<filter id="filter0_d_168_934" x="148.672" y="159.048" width="48.4255" height="48.4102" filterUnits="userSpaceOnUse" color-interpolation-filters="sRGB">
<feFlood flood-opacity="0" result="BackgroundImageFix"/>
<feColorMatrix in="SourceAlpha" type="matrix" values="0 0 0 0 0 0 0 0 0 0 0 0 0 0 0 0 0 0 127 0" result="hardAlpha"/>
<feOffset dy="2.66667"/>
<feGaussianBlur stdDeviation="4.66667"/>
<feComposite in2="hardAlpha" operator="out"/>
<feColorMatrix type="matrix" values="0 0 0 0 0.278431 0 0 0 0 0.184314 0 0 0 0 0.572549 0 0 0 0.58 0"/>
<feBlend mode="normal" in2="BackgroundImageFix" result="effect1_dropShadow_168_934"/>
<feBlend mode="normal" in="SourceGraphic" in2="effect1_dropShadow_168_934" result="shape"/>
</filter>
<filter id="filter1_d_168_934" x="4" y="208" width="250" height="72" filterUnits="userSpaceOnUse" color-interpolation-filters="sRGB">
<feFlood flood-opacity="0" result="BackgroundImageFix"/>
<feColorMatrix in="SourceAlpha" type="matrix" values="0 0 0 0 0 0 0 0 0 0 0 0 0 0 0 0 0 0 127 0" result="hardAlpha"/>
<feOffset dy="4"/>
<feGaussianBlur stdDeviation="12"/>
<feComposite in2="hardAlpha" operator="out"/>
<feColorMatrix type="matrix" values="0 0 0 0 0.960784 0 0 0 0 0.964706 0 0 0 0 0.972549 0 0 0 1 0"/>
<feBlend mode="normal" in2="BackgroundImageFix" result="effect1_dropShadow_168_934"/>
<feBlend mode="normal" in="SourceGraphic" in2="effect1_dropShadow_168_934" result="shape"/>
</filter>
<radialGradient id="paint0_radial_168_934" cx="0" cy="0" r="1" gradientUnits="userSpaceOnUse" gradientTransform="translate(139.429 172.924) rotate(90) scale(169.172)">
<stop stop-color="#F7F7F9" stop-opacity="0"/>
<stop offset="1" stop-color="#FEFEFE"/>
</radialGradient>
<radialGradient id="paint1_radial_168_934" cx="0" cy="0" r="1" gradientUnits="userSpaceOnUse" gradientTransform="translate(134.793 176.874) rotate(90) scale(172.888)">
<stop stop-color="#F7F7F9" stop-opacity="0"/>
<stop offset="1" stop-color="#FEFEFE"/>
</radialGradient>
<radialGradient id="paint2_radial_168_934" cx="0" cy="0" r="1" gradientUnits="userSpaceOnUse" gradientTransform="translate(125.262 177.147) rotate(90) scale(165.401)">
<stop stop-color="#F7F7F9" stop-opacity="0"/>
<stop offset="1" stop-color="white" stop-opacity="0.15"/>
</radialGradient>
<linearGradient id="paint3_linear_168_934" x1="129" y1="218" x2="129" y2="334" gradientUnits="userSpaceOnUse">
<stop stop-color="white" stop-opacity="0"/>
<stop offset="1" stop-color="white"/>
</linearGradient>
<linearGradient id="paint4_linear_168_934" x1="159.638" y1="224" x2="160.768" y2="322.294" gradientUnits="userSpaceOnUse">
<stop stop-color="white" stop-opacity="0"/>
<stop offset="1" stop-color="white"/>
</linearGradient>
<clipPath id="clip0_168_934">
<rect width="275" height="290" rx="14" fill="white"/>
</clipPath>
<clipPath id="clip1_168_934">
<rect x="186.309" y="369.167" width="248.837" height="248.827" rx="5.33333" transform="rotate(-149.875 186.309 369.167)" fill="white"/>
</clipPath>
</defs>
</svg>
