<svg width="382" height="222" viewBox="0 0 382 222" fill="none" xmlns="http://www.w3.org/2000/svg">
<g clip-path="url(#clip0_168_1038)">
<path d="M99.469 35.0168C97.8911 34.0689 98.5223 35.3328 96.6288 34.0689C95.6821 33.437 98.2067 31.2252 98.8379 30.2773C100.416 27.7495 100.731 28.6974 102.309 26.1697C106.412 20.1663 100.1 19.8503 95.0509 19.5343C87.7925 18.9024 80.8497 17.3226 73.2758 16.3747C65.3863 15.1108 57.4967 13.8469 49.6072 11.9511C47.3981 11.3192 42.98 9.10738 40.7709 10.3713C38.5619 11.6351 38.8774 14.4788 38.2463 16.3747C35.0905 30.5932 30.0412 40.3883 26.2542 53.027C24.3607 59.6623 23.0984 66.2977 21.8361 74.1969C21.2049 77.6725 18.6803 80.5163 20.8893 83.9919C22.7828 86.8356 23.0984 95.0508 25.3075 97.5786C30.3568 104.214 35.7216 110.533 40.7709 116.537C45.5047 122.224 53.3942 129.175 56.2344 135.179C58.4435 139.918 56.2344 143.078 60.6525 146.87C62.8616 149.081 66.333 149.397 69.4888 149.713C73.5914 150.345 77.3783 150.345 81.1653 150.345H81.4809C81.4809 150.345 85.5835 150.661 87.4769 150.661C90.6328 150.977 94.1042 151.293 94.1042 148.134C94.1042 140.866 94.1041 133.599 94.4197 125.7C95.0509 108.953 95.6821 90.6273 95.6821 70.4053C95.6821 61.8741 94.7353 56.8186 95.6821 50.4992C96.3132 47.0236 96.9444 43.548 97.8911 40.0723C99.7846 38.8084 101.047 35.9647 99.469 35.0168ZM84.6367 150.661C84.9523 150.661 84.9523 150.661 84.6367 150.661V150.661Z" fill="#D1D5DB"/>
<path d="M165.245 122.589C162.396 105.21 158.914 81.8276 157.331 66.0285C157.014 64.1326 157.331 56.233 157.648 55.6011C157.964 53.3892 156.065 51.4933 154.799 49.5974C153.532 47.7015 156.381 48.0175 157.331 45.8056C159.23 40.7499 155.115 36.0102 155.432 30.6385C155.432 28.4266 155.748 27.7947 153.532 26.5307C150.683 25.2668 146.252 25.8988 143.086 25.5828C135.172 24.9508 127.258 24.0029 119.028 23.0549C117.129 22.739 106.366 20.2111 108.265 24.9508C109.215 26.8467 113.647 26.5307 115.546 26.8467C119.028 27.4787 122.194 25.8988 125.359 26.2148C126.309 26.2148 129.158 26.5307 128.841 27.7947C128.525 28.7426 125.992 28.7426 125.359 29.0586C121.877 29.3746 118.078 31.2705 114.596 31.2705C111.747 31.2705 107.632 31.2705 106.366 33.7983C105.416 36.0102 103.2 42.0138 102.884 44.5417C102.251 51.8093 103.517 56.233 102.884 63.1846C101.618 77.7198 101.934 99.8385 101.618 116.586C101.301 124.801 101.618 132.701 100.984 139.968C100.668 142.812 99.4017 146.92 100.668 149.448C101.618 151.344 104.467 151.028 106.682 151.028C123.46 151.344 139.921 153.239 156.698 153.239C157.014 153.239 157.964 153.239 157.964 153.239H157.648H157.331C156.698 153.239 156.065 153.239 155.432 153.239H155.115C155.115 153.239 155.115 153.239 154.799 153.239H154.482H153.849C153.849 153.239 161.446 153.555 164.928 153.555C169.044 153.24 169.043 151.028 168.727 147.868C167.461 139.652 166.511 131.121 165.245 122.589Z" fill="#F3F4F6"/>
<path d="M247.249 51.9638C245.041 50.6995 241.57 51.3317 239.361 51.3317C237.468 51.3317 235.574 51.6478 233.681 51.9638C231.788 52.596 229.579 53.5443 227.686 53.5443C224.846 53.2282 224.215 50.6995 223.584 48.4869C222.637 45.3261 222.006 41.8491 219.797 39.0044C217.588 35.8435 214.433 36.1596 210.962 35.2113C207.175 34.2631 206.229 31.4183 205.913 28.2575C205.598 25.4127 205.282 22.884 201.496 22.884C197.394 22.884 193.292 23.5162 189.505 23.8323C180.985 24.1484 171.519 25.0966 163.315 25.0966C161.737 25.0966 161.737 25.7288 161.737 26.9931C161.737 32.3666 161.106 37.74 162.053 43.1135C162.368 45.6421 163.946 49.1191 163.631 51.9638C163.315 54.4925 162.053 57.3373 162.053 59.866C162.368 69.9807 164.893 81.3597 166.786 93.371C168.679 106.014 170.257 117.71 171.835 128.456C172.781 133.83 173.728 139.203 174.359 144.577C174.675 147.105 174.359 151.531 178.461 152.163C180.67 152.479 182.879 151.847 185.087 151.531C187.612 151.215 190.452 151.531 192.976 151.215C198.656 150.898 204.651 150.898 210.331 150.266C212.224 149.95 213.802 149.95 215.695 149.634C217.273 149.318 219.797 149.634 221.059 148.686C223.268 146.789 220.744 141.732 220.428 139.519C219.482 135.094 218.535 130.353 217.588 125.612C216.642 120.87 215.38 115.813 216.011 111.072C216.642 104.118 221.375 98.1123 225.161 92.1066C230.21 83.8884 234.943 74.0898 239.992 67.1359C242.201 63.9751 244.409 60.8142 246.618 57.6534C247.565 56.389 250.089 53.5443 247.249 51.9638ZM205.598 135.41C204.651 136.675 203.704 137.307 202.442 136.991C200.549 136.042 201.811 136.675 202.758 134.778C203.389 133.198 204.02 129.721 202.442 127.824C201.496 126.56 199.918 128.773 199.287 126.244C198.971 124.663 199.287 123.715 197.394 123.083C195.5 122.451 193.923 122.451 192.345 120.87C191.083 119.606 190.452 118.026 189.505 116.761C187.296 113.917 181.932 109.175 183.825 108.543C186.35 107.595 183.194 104.434 186.665 104.118C187.296 102.221 186.981 99.3766 187.927 100.009C188.558 100.325 190.136 103.802 190.767 104.434C191.714 105.382 192.976 106.963 194.554 108.227C198.34 111.704 199.602 116.445 201.496 120.87C202.442 123.083 203.389 124.979 204.651 126.876C205.598 128.772 207.175 130.669 207.175 132.882C207.175 133.198 206.229 134.462 205.598 135.41Z" fill="#F3F4F6"/>
<path d="M353.227 168.705C352.596 168.705 341.242 170.601 338.404 170.601C338.088 170.601 337.773 170.601 337.457 170.601C331.15 170.917 333.042 171.549 333.042 171.549C333.042 171.549 340.611 172.497 342.504 173.129C344.711 174.077 349.758 176.289 352.281 175.973C354.173 175.657 355.435 172.497 355.75 171.233C355.75 169.653 355.435 169.021 353.227 168.705Z" fill="#D1D5DB"/>
<path d="M415.675 147.848C411.575 150.376 407.159 153.536 403.059 154.484C399.905 155.116 400.536 154.484 397.697 154.168C394.859 153.852 391.389 153.536 388.551 153.852C382.558 154.484 375.62 155.116 370.889 151.64C366.474 148.164 364.266 139.631 362.058 134.891C359.219 128.887 361.112 124.779 358.589 118.774C357.327 115.93 352.596 112.454 351.65 109.294C351.019 107.398 349.758 104.238 347.235 103.606C345.027 102.974 343.45 104.554 341.242 103.29C339.034 102.342 335.565 100.129 333.673 98.8654C328.942 95.3892 323.896 92.545 320.426 87.8048C316.642 83.0646 313.803 76.7442 312.542 71.372C311.28 66.9478 310.334 63.7876 304.341 63.7876C298.349 63.7876 292.356 66.6318 286.049 64.4196C282.895 63.1556 280.056 61.8915 276.587 60.9435C273.748 59.9954 271.225 59.3634 268.387 58.4153C265.233 57.4673 262.71 55.8872 259.871 54.6232C257.348 53.0431 255.456 54.6232 253.879 56.8353C251.986 59.0474 251.986 59.6794 250.409 61.8915C248.832 64.4196 247.255 66.9478 245.363 69.1599C241.894 74.2161 236.532 84.3286 232.747 90.3329C229.593 95.7052 225.493 102.026 222.655 107.398C219.816 112.77 220.447 115.614 221.393 121.302C222.655 127.307 223.916 133.311 224.863 138.999C225.493 141.527 225.493 144.688 227.07 146.9C228.332 148.48 230.224 150.06 231.486 151.324C235.586 155.748 241.263 153.22 247.255 153.852C253.879 154.484 259.871 156.696 266.494 156.696C272.487 156.696 277.848 155.748 281.949 152.272C283.841 150.692 283.841 148.48 285.418 146.584C286.679 145.004 288.572 145.004 290.779 145.32C293.303 145.32 293.303 146.9 295.826 147.216C298.98 147.532 299.61 148.796 301.503 151.008C304.341 154.484 311.911 155.116 316.011 157.012C321.057 159.224 323.896 162.385 325.788 166.177C327.996 170.601 329.573 169.653 335.25 169.337C339.981 169.021 347.865 167.757 353.858 167.441C357.643 167.125 358.273 165.229 361.427 165.861C365.212 166.493 371.52 169.653 374.043 172.181C375.304 173.445 376.566 175.657 374.989 177.237C373.412 178.501 370.889 177.869 368.997 177.237C367.735 176.921 361.427 173.761 360.481 174.709C359.535 175.341 357.327 175.025 363.32 178.185C364.897 178.817 364.266 180.397 363.95 181.661C363.32 187.034 365.527 192.09 363.95 197.462C363.32 199.99 363.95 202.835 363.32 205.363C362.689 207.259 359.22 209.787 359.22 209.787L359.535 209.471V208.839C359.535 208.839 358.273 210.419 357.643 211.051C360.796 210.419 363.635 209.155 366.158 207.259C368.366 205.363 369.627 203.151 372.466 201.57C375.304 199.99 379.089 200.306 381.612 199.042C383.505 198.094 381.612 197.462 382.558 196.198C383.505 194.618 388.236 193.354 390.128 192.09C391.074 191.458 392.651 190.51 392.02 189.562C391.389 188.298 388.866 188.614 387.605 188.298C381.297 186.718 391.074 180.397 393.282 179.133C398.959 175.657 405.582 173.129 409.051 167.441C412.521 162.068 415.044 156.38 417.882 150.376C420.721 145.636 421.352 144.056 415.675 147.848Z" fill="#D1D5DB"/>
<g filter="url(#filter0_d_168_1038)">
<path d="M352.279 134.256C275.518 32.3215 141.374 28.2303 51.4912 92.5844" stroke="#BFCBD8" stroke-width="2"/>
</g>
<g filter="url(#filter1_d_168_1038)">
<path d="M352.278 134.256C320.709 92.3214 279.42 66.9641 235.502 56.1323" stroke="#472F92" stroke-width="2"/>
</g>
<path d="M232.708 53.2594C232.469 53.1985 232.324 52.9567 232.383 52.7173L233.169 49.4951C233.178 49.4554 233.193 49.4173 233.213 49.3817L238.742 39.5258C238.89 39.2627 238.742 38.9317 238.447 38.8669L237.599 38.6805C237.452 38.6482 237.299 38.6916 237.191 38.7959L224.566 50.9676C224.454 51.0755 224.294 51.1178 224.143 51.0796C221.445 50.3956 219.854 49.9968 219.548 49.9298C217.934 49.5749 213.793 50.0351 213.438 51.6483C213.084 53.2605 216.65 55.415 218.265 55.7699C218.57 55.837 220.182 56.1425 222.918 56.653C223.07 56.6815 223.198 56.7871 223.254 56.932L229.61 73.2762C229.664 73.4164 229.785 73.52 229.932 73.5523L230.78 73.7387C231.075 73.8035 231.348 73.5653 231.325 73.2645L230.439 61.9984C230.436 61.9577 230.438 61.9168 230.446 61.8768L231.084 58.6218C231.131 58.38 231.364 58.2214 231.606 58.2662C234.179 58.7423 237.081 59.2786 240.279 59.8694C240.559 59.921 240.866 59.9631 241.19 59.9964C241.338 60.0116 241.47 60.0963 241.542 60.2259L244.591 65.6578C244.654 65.7696 244.761 65.8492 244.887 65.8768L244.935 65.8874C245.247 65.9559 245.528 65.687 245.475 65.3725L244.765 61.2337C244.756 61.181 244.757 61.1272 244.767 61.0747L244.899 60.3691C244.937 60.1685 245.105 60.0191 245.309 60.001C246.786 59.8696 247.943 59.6017 248.02 59.2506C248.097 58.8994 247.159 58.1706 245.873 57.4315C245.697 57.3298 245.606 57.1236 245.656 56.9257L245.832 56.2287C245.845 56.1769 245.867 56.1278 245.898 56.0838L248.277 52.624C248.458 52.3611 248.315 51.9988 248.003 51.9303L247.955 51.9197C247.83 51.8922 247.699 51.9194 247.595 51.9946L242.549 55.6477C242.429 55.7349 242.273 55.7564 242.132 55.7081C241.825 55.6023 241.529 55.5119 241.252 55.4411C238.102 54.6364 235.243 53.9059 232.708 53.2594Z" fill="#392675"/>
<circle cx="351.334" cy="134.203" r="6.51666" fill="white" stroke="#472F92" stroke-width="2"/>
<path d="M52.9705 50.2588C50.3741 50.2603 47.8844 51.2924 46.0483 53.1284C44.2123 54.9646 43.1802 57.4543 43.1787 60.0506C43.1787 63.5578 47.0954 70.4122 50.3713 75.5397C50.9411 76.4222 51.92 76.9551 52.9706 76.9551C54.0212 76.9551 55 76.4222 55.5698 75.5397C58.8458 70.4122 62.7625 63.5579 62.7625 60.0506C62.7609 57.4542 61.7288 54.9645 59.8929 53.1284C58.0567 51.2924 55.5669 50.2603 52.9706 50.2588H52.9705ZM48.5197 60.0507C48.5197 58.8702 48.9886 57.7382 49.8232 56.9034C50.658 56.0689 51.79 55.5998 52.9705 55.5998C54.151 55.5998 55.2831 56.0688 56.1179 56.9034C56.9524 57.7382 57.4214 58.8702 57.4214 60.0507C57.4214 61.2312 56.9524 62.3633 56.1179 63.198C55.2831 64.0326 54.151 64.5016 52.9705 64.5016C51.7902 64.5012 50.6584 64.0322 49.8238 63.1974C48.9891 62.3629 48.52 61.231 48.5197 60.0507Z" fill="#111827"/>
<circle cx="53.2803" cy="90.9083" r="5.97173" fill="white" stroke="#472F92" stroke-width="2"/>
<circle cx="135.614" cy="115.145" r="16.8484" fill="white"/>
<path d="M145.362 105.397C139.978 100.014 131.25 100.014 125.867 105.397C120.483 110.78 120.483 119.509 125.867 124.892C131.25 130.275 139.978 130.275 145.362 124.892C150.745 119.509 150.745 110.78 145.362 105.397ZM128.266 107.797C130.229 105.834 132.837 104.752 135.614 104.752C137.751 104.752 139.787 105.392 141.508 106.583L127.052 121.038C125.863 119.318 125.221 117.281 125.221 115.145C125.221 112.37 126.303 109.76 128.266 107.797ZM135.614 125.538C133.478 125.538 131.441 124.897 129.72 123.706L144.176 109.251C145.365 110.972 146.007 113.008 146.007 115.145C146.007 117.921 144.927 120.53 142.964 122.493C140.999 124.455 138.391 125.538 135.614 125.538Z" fill="#D1D5DB"/>
<circle cx="194.874" cy="80.2861" r="16.8484" fill="white"/>
<path d="M204.621 70.5385C199.238 65.1551 190.51 65.1551 185.126 70.5385C179.743 75.9218 179.743 84.6502 185.126 90.0335C190.51 95.4168 199.238 95.4168 204.621 90.0335C210.005 84.6502 210.005 75.9218 204.621 70.5385ZM187.526 72.9381C189.489 70.9752 192.097 69.893 194.874 69.893C197.01 69.893 199.047 70.5332 200.768 71.7242L186.312 86.1798C185.123 84.459 184.481 82.4225 184.481 80.286C184.481 77.511 185.563 74.9009 187.526 72.9381ZM194.874 90.679C192.737 90.679 190.701 90.0388 188.98 88.8477L203.436 74.3922C204.625 76.113 205.267 78.1495 205.267 80.286C205.267 83.0627 204.186 85.6711 202.224 87.6339C200.259 89.5967 197.651 90.679 194.874 90.679Z" fill="#D1D5DB"/>
</g>
<defs>
<filter id="filter0_d_168_1038" x="48.9092" y="48.8728" width="306.169" height="90.9844" filterUnits="userSpaceOnUse" color-interpolation-filters="sRGB">
<feFlood flood-opacity="0" result="BackgroundImageFix"/>
<feColorMatrix in="SourceAlpha" type="matrix" values="0 0 0 0 0 0 0 0 0 0 0 0 0 0 0 0 0 0 127 0" result="hardAlpha"/>
<feOffset dy="3"/>
<feGaussianBlur stdDeviation="1"/>
<feComposite in2="hardAlpha" operator="out"/>
<feColorMatrix type="matrix" values="0 0 0 0 0.819608 0 0 0 0 0.835294 0 0 0 0 0.858824 0 0 0 1 0"/>
<feBlend mode="normal" in2="BackgroundImageFix" result="effect1_dropShadow_168_1038"/>
<feBlend mode="normal" in="SourceGraphic" in2="effect1_dropShadow_168_1038" result="shape"/>
</filter>
<filter id="filter1_d_168_1038" x="233.015" y="55.1614" width="122.309" height="86.4377" filterUnits="userSpaceOnUse" color-interpolation-filters="sRGB">
<feFlood flood-opacity="0" result="BackgroundImageFix"/>
<feColorMatrix in="SourceAlpha" type="matrix" values="0 0 0 0 0 0 0 0 0 0 0 0 0 0 0 0 0 0 127 0" result="hardAlpha"/>
<feOffset dy="4.49477"/>
<feGaussianBlur stdDeviation="1.12369"/>
<feComposite in2="hardAlpha" operator="out"/>
<feColorMatrix type="matrix" values="0 0 0 0 0.278431 0 0 0 0 0.184314 0 0 0 0 0.572549 0 0 0 0.54 0"/>
<feBlend mode="normal" in2="BackgroundImageFix" result="effect1_dropShadow_168_1038"/>
<feBlend mode="normal" in="SourceGraphic" in2="effect1_dropShadow_168_1038" result="shape"/>
</filter>
<clipPath id="clip0_168_1038">
<rect width="382" height="222" rx="14" fill="white"/>
</clipPath>
</defs>
</svg>
