<svg width="382" height="181" viewBox="0 0 382 181" fill="none" xmlns="http://www.w3.org/2000/svg">
<g clip-path="url(#clip0_168_1072)">
<rect x="-1" y="132" width="384" height="84" fill="url(#paint0_linear_168_1072)"/>
<path d="M219.62 16H161.881C159.672 16 157.881 17.7909 157.881 20V71.0928C157.881 73.3019 159.672 75.0928 161.881 75.0928H219.62C221.829 75.0928 223.62 73.3019 223.62 71.0928V20C223.62 17.7909 221.829 16 219.62 16Z" fill="#E2BC96"/>
<path d="M219.62 16H161.881C159.672 16 157.881 17.7909 157.881 20V29.3103H223.62V20C223.62 17.7909 221.829 16 219.62 16Z" fill="#F8DAC0"/>
<path d="M169.209 59.9475H166.165V68.3007H169.209V59.9475Z" fill="#C19B75"/>
<path d="M171.277 60.952H164.105L167.687 55.3467L171.277 60.952Z" fill="#C19B75"/>
<path d="M177.338 59.9478H174.294V68.3009H177.338V59.9478Z" fill="#C19B75"/>
<path d="M179.397 60.952H172.234L175.816 55.3467L179.397 60.952Z" fill="#C19B75"/>
<path d="M179.397 69.2229H164.105V70.6744H179.397V69.2229Z" fill="#C19B75"/>
<path d="M296.275 16H238.536C236.327 16 234.536 17.7909 234.536 20V71.0928C234.536 73.3019 236.327 75.0928 238.536 75.0928H296.275C298.484 75.0928 300.275 73.3019 300.275 71.0928V20C300.275 17.7909 298.484 16 296.275 16Z" fill="#E2BC96"/>
<path d="M296.275 16H238.536C236.327 16 234.536 17.7909 234.536 20V29.3103H300.275V20C300.275 17.7909 298.484 16 296.275 16Z" fill="#F8DAC0"/>
<path d="M245.863 59.9473H242.819V68.3004H245.863V59.9473Z" fill="#C19B75"/>
<path d="M247.931 60.9517H240.76L244.341 55.3464L247.931 60.9517Z" fill="#C19B75"/>
<path d="M253.992 59.9478H250.948V68.3009H253.992V59.9478Z" fill="#C19B75"/>
<path d="M256.051 60.9517H248.889L252.47 55.3464L256.051 60.9517Z" fill="#C19B75"/>
<path d="M256.051 69.2227H240.76V70.6742H256.051V69.2227Z" fill="#C19B75"/>
<path d="M143.136 16H85.3975C83.1883 16 81.3975 17.7909 81.3975 20V71.0928C81.3975 73.3019 83.1883 75.0928 85.3975 75.0928H143.136C145.346 75.0928 147.136 73.3019 147.136 71.0928V20C147.136 17.7909 145.346 16 143.136 16Z" fill="#E2BC96"/>
<path d="M143.136 16H85.3975C83.1883 16 81.3975 17.7909 81.3975 20V29.3103H147.136V20C147.136 17.7909 145.346 16 143.136 16Z" fill="#F8DAC0"/>
<path d="M92.7243 59.9473H89.6807V68.3004H92.7243V59.9473Z" fill="#C19B75"/>
<path d="M94.7928 60.9517H87.6211L91.2024 55.3464L94.7928 60.9517Z" fill="#C19B75"/>
<path d="M100.854 59.9478H97.8105V68.3009H100.854V59.9478Z" fill="#C19B75"/>
<path d="M102.914 60.952H95.751L99.3323 55.3467L102.914 60.952Z" fill="#C19B75"/>
<path d="M102.912 69.2227H87.6211V70.6742H102.912V69.2227Z" fill="#C19B75"/>
<rect x="90.2695" y="101.97" width="11.6176" height="72.0294" fill="url(#paint1_linear_168_1072)"/>
<rect x="280.799" y="101.97" width="11.6176" height="72.0294" fill="url(#paint2_linear_168_1072)"/>
<path d="M297.66 78.9578H83.849C75.3378 78.9578 68.4121 85.905 68.4121 94.4407C68.4121 102.976 75.3378 109.905 83.849 109.905H297.651C306.162 109.905 313.088 102.958 313.088 94.4225C313.088 85.8868 306.162 78.9578 297.651 78.9578H297.66Z" fill="#D1D5DB"/>
<path d="M92.6335 79.6789H83.5391L86.1362 76.292H90.0364L92.6335 79.6789Z" fill="#D1D5DB"/>
<path d="M105.738 79.6789H96.6436L99.2407 76.292H103.141L105.738 79.6789Z" fill="#D1D5DB"/>
<path d="M118.851 79.6789H109.747L112.344 76.292H116.244L118.851 79.6789Z" fill="#D1D5DB"/>
<path d="M131.954 79.6789H122.851L125.448 76.292H129.348L131.954 79.6789Z" fill="#D1D5DB"/>
<path d="M145.06 79.6789H135.956L138.553 76.292H142.453L145.06 79.6789Z" fill="#D1D5DB"/>
<path d="M158.163 79.6789H149.06L151.657 76.292H155.557L158.163 79.6789Z" fill="#D1D5DB"/>
<path d="M171.268 79.6789H162.164L164.77 76.292H168.661L171.268 79.6789Z" fill="#D1D5DB"/>
<path d="M184.371 79.6789H175.268L177.874 76.292H181.765L184.371 79.6789Z" fill="#D1D5DB"/>
<path d="M197.475 79.6789H188.371L190.977 76.292H194.868L197.475 79.6789Z" fill="#D1D5DB"/>
<path d="M210.579 79.6789H201.476L204.082 76.292H207.973L210.579 79.6789Z" fill="#D1D5DB"/>
<path d="M223.683 79.6789H214.579L217.185 76.292H221.076L223.683 79.6789Z" fill="#D1D5DB"/>
<path d="M236.788 79.6789H227.685L230.291 76.292H234.182L236.788 79.6789Z" fill="#D1D5DB"/>
<path d="M249.892 79.6789H240.788L243.394 76.292H247.295L249.892 79.6789Z" fill="#D1D5DB"/>
<path d="M262.995 79.6789H253.892L256.498 76.292H260.389L262.995 79.6789Z" fill="#D1D5DB"/>
<path d="M276.1 79.6789H266.996L269.602 76.292H273.503L276.1 79.6789Z" fill="#D1D5DB"/>
<path d="M289.204 79.6789H280.109L282.706 76.292H286.598L289.204 79.6789Z" fill="#D1D5DB"/>
<path d="M302.308 79.6789H293.204L295.81 76.292H299.711L302.308 79.6789Z" fill="#D1D5DB"/>
<path d="M92.6335 109.12H83.5391L86.1362 112.507H90.0364L92.6335 109.12Z" fill="#D1D5DB"/>
<path d="M105.738 109.12H96.6436L99.2407 112.507H103.141L105.738 109.12Z" fill="#D1D5DB"/>
<path d="M118.851 109.12H109.747L112.344 112.507H116.244L118.851 109.12Z" fill="#D1D5DB"/>
<path d="M131.954 109.12H122.851L125.448 112.507H129.348L131.954 109.12Z" fill="#D1D5DB"/>
<path d="M145.06 109.12H135.956L138.553 112.507H142.453L145.06 109.12Z" fill="#D1D5DB"/>
<path d="M158.163 109.12H149.06L151.657 112.507H155.557L158.163 109.12Z" fill="#D1D5DB"/>
<path d="M171.268 109.12H162.164L164.77 112.507H168.661L171.268 109.12Z" fill="#D1D5DB"/>
<path d="M184.371 109.12H175.268L177.874 112.507H181.765L184.371 109.12Z" fill="#D1D5DB"/>
<path d="M197.475 109.12H188.371L190.977 112.507H194.868L197.475 109.12Z" fill="#D1D5DB"/>
<path d="M210.579 109.12H201.476L204.082 112.507H207.973L210.579 109.12Z" fill="#D1D5DB"/>
<path d="M223.683 109.12H214.579L217.185 112.507H221.076L223.683 109.12Z" fill="#D1D5DB"/>
<path d="M236.788 109.12H227.685L230.291 112.507H234.182L236.788 109.12Z" fill="#D1D5DB"/>
<path d="M249.892 109.12H240.788L243.394 112.507H247.295L249.892 109.12Z" fill="#D1D5DB"/>
<path d="M262.995 109.12H253.892L256.498 112.507H260.389L262.995 109.12Z" fill="#D1D5DB"/>
<path d="M276.1 109.12H266.996L269.602 112.507H273.503L276.1 109.12Z" fill="#D1D5DB"/>
<path d="M289.204 109.12H280.109L282.706 112.507H286.598L289.204 109.12Z" fill="#D1D5DB"/>
<path d="M302.308 109.12H293.204L295.81 112.507H299.711L302.308 109.12Z" fill="#D1D5DB"/>
<path d="M72.0575 85.677L69.5242 94.4318L67 90.9902L68.0844 87.2381L72.0575 85.677Z" fill="#D1D5DB"/>
<path d="M72.0576 84.7642L79.8034 79.9896L75.8212 78.4651L72.5041 80.51L72.0576 84.7642Z" fill="#D1D5DB"/>
<path d="M72.0575 103.15L69.5242 94.3953L67 97.8461L68.0844 101.589L72.0575 103.15Z" fill="#D1D5DB"/>
<path d="M72.0576 104.063L79.8034 108.838L75.8212 110.362L72.5041 108.317L72.0576 104.063Z" fill="#D1D5DB"/>
<path d="M312.349 98.85L312.194 89.73L315.621 92.277L315.684 96.1843L312.349 98.85Z" fill="#D1D5DB"/>
<path d="M304.951 80.7473L311.12 87.4572L311.84 83.2396L309.198 80.373L304.951 80.7473Z" fill="#D1D5DB"/>
<path d="M311.512 101.187L304.869 107.422L309.079 108.107L311.922 105.441L311.512 101.187Z" fill="#D1D5DB"/>
<path d="M85.8899 83.084H296.794C302.963 83.084 307.966 88.0959 307.966 94.2763V94.2945C307.966 100.475 302.963 105.487 296.794 105.487H85.8899C79.7206 105.487 74.7178 100.475 74.7178 94.2945V94.2763C74.7178 88.0959 79.7206 83.084 85.8899 83.084Z" fill="#F9FAFB"/>
<path d="M99.2507 94.2947C99.2507 98.5306 95.8244 101.963 91.5961 101.963C87.3678 101.963 83.9414 98.5306 83.9414 94.2947C83.9414 90.0587 87.3678 86.6262 91.5961 86.6262C95.8244 86.6262 99.2507 90.0587 99.2507 94.2947Z" fill="#F9FAFB"/>
<path d="M96.6532 94.2947C96.6532 97.0973 94.3932 99.3614 91.5956 99.3614C88.798 99.3614 86.5381 97.0973 86.5381 94.2947C86.5381 91.492 88.798 89.228 91.5956 89.228C94.3932 89.228 96.6532 91.492 96.6532 94.2947Z" fill="#D1D5DB"/>
<path d="M121.413 94.2947C121.413 98.5306 117.986 101.963 113.758 101.963C109.53 101.963 106.104 98.5306 106.104 94.2947C106.104 90.0587 109.53 86.6262 113.758 86.6262C117.986 86.6262 121.413 90.0587 121.413 94.2947Z" fill="#F9FAFB"/>
<path d="M118.815 94.2947C118.815 97.0973 116.555 99.3614 113.758 99.3614C110.96 99.3614 108.7 97.0973 108.7 94.2947C108.7 91.492 110.96 89.228 113.758 89.228C116.555 89.228 118.815 91.492 118.815 94.2947Z" fill="#D1D5DB"/>
<path d="M143.583 94.2947C143.583 98.5306 140.156 101.963 135.928 101.963C131.7 101.963 128.273 98.5306 128.273 94.2947C128.273 90.0587 131.7 86.6262 135.928 86.6262C140.156 86.6262 143.583 90.0587 143.583 94.2947Z" fill="#F9FAFB"/>
<path d="M140.985 94.2947C140.985 97.0973 138.725 99.3614 135.928 99.3614C133.13 99.3614 130.87 97.0973 130.87 94.2947C130.87 91.492 133.139 89.228 135.928 89.228C138.716 89.228 140.985 91.492 140.985 94.2947Z" fill="#D1D5DB"/>
<path d="M165.746 94.2947C165.746 98.5306 162.319 101.963 158.091 101.963C153.863 101.963 150.437 98.5306 150.437 94.2947C150.437 90.0587 153.863 86.6262 158.091 86.6262C162.319 86.6262 165.746 90.0587 165.746 94.2947Z" fill="#F9FAFB"/>
<path d="M163.148 94.2947C163.148 97.0973 160.888 99.3614 158.091 99.3614C155.293 99.3614 153.033 97.0973 153.033 94.2947C153.033 91.492 155.302 89.228 158.091 89.228C160.879 89.228 163.148 91.492 163.148 94.2947Z" fill="#D1D5DB"/>
<path d="M187.916 94.2947C187.916 98.5306 184.489 101.963 180.261 101.963C176.033 101.963 172.606 98.5306 172.606 94.2947C172.606 90.0587 176.033 86.6262 180.261 86.6262C184.489 86.6262 187.916 90.0587 187.916 94.2947Z" fill="#F9FAFB"/>
<path d="M185.318 94.2947C185.318 97.0973 183.058 99.3614 180.261 99.3614C177.463 99.3614 175.203 97.0973 175.203 94.2947C175.203 91.492 177.463 89.228 180.261 89.228C183.058 89.228 185.318 91.492 185.318 94.2947Z" fill="#D1D5DB"/>
<path d="M210.078 94.2947C210.078 98.5306 206.652 101.963 202.423 101.963C198.195 101.963 194.769 98.5306 194.769 94.2947C194.769 90.0587 198.195 86.6262 202.423 86.6262C206.652 86.6262 210.078 90.0587 210.078 94.2947Z" fill="#F9FAFB"/>
<path d="M207.48 94.2947C207.48 97.0973 205.22 99.3614 202.423 99.3614C199.625 99.3614 197.365 97.0973 197.365 94.2947C197.365 91.492 199.625 89.228 202.423 89.228C205.22 89.228 207.48 91.492 207.48 94.2947Z" fill="#D1D5DB"/>
<path d="M232.25 94.2947C232.25 98.5306 228.823 101.963 224.595 101.963C220.367 101.963 216.94 98.5306 216.94 94.2947C216.94 90.0587 220.367 86.6262 224.595 86.6262C228.823 86.6262 232.25 90.0587 232.25 94.2947Z" fill="#F9FAFB"/>
<path d="M229.652 94.2947C229.652 97.0973 227.392 99.3614 224.595 99.3614C221.797 99.3614 219.537 97.0973 219.537 94.2947C219.537 91.492 221.806 89.228 224.595 89.228C227.383 89.228 229.652 91.492 229.652 94.2947Z" fill="#D1D5DB"/>
<path d="M254.412 94.2947C254.412 98.5306 250.985 101.963 246.757 101.963C242.529 101.963 239.103 98.5306 239.103 94.2947C239.103 90.0587 242.529 86.6262 246.757 86.6262C250.985 86.6262 254.412 90.0587 254.412 94.2947Z" fill="#F9FAFB"/>
<path d="M251.814 94.2947C251.814 97.0973 249.545 99.3614 246.757 99.3614C243.968 99.3614 241.699 97.0973 241.699 94.2947C241.699 91.492 243.968 89.228 246.757 89.228C249.545 89.228 251.814 91.492 251.814 94.2947Z" fill="#D1D5DB"/>
<path d="M276.583 94.2947C276.583 98.5306 273.156 101.963 268.928 101.963C264.7 101.963 261.273 98.5306 261.273 94.2947C261.273 90.0587 264.7 86.6262 268.928 86.6262C273.156 86.6262 276.583 90.0587 276.583 94.2947Z" fill="#F9FAFB"/>
<path d="M273.985 94.2947C273.985 97.0973 271.725 99.3614 268.928 99.3614C266.13 99.3614 263.87 97.0973 263.87 94.2947C263.87 91.492 266.139 89.228 268.928 89.228C271.716 89.228 273.985 91.492 273.985 94.2947Z" fill="#D1D5DB"/>
<path d="M298.745 94.2947C298.745 98.5306 295.319 101.963 291.09 101.963C286.862 101.963 283.436 98.5306 283.436 94.2947C283.436 90.0587 286.862 86.6262 291.09 86.6262C295.319 86.6262 298.745 90.0587 298.745 94.2947Z" fill="#F9FAFB"/>
<path d="M296.147 94.2947C296.147 97.0973 293.887 99.3614 291.09 99.3614C288.292 99.3614 286.032 97.0973 286.032 94.2947C286.032 91.492 288.292 89.228 291.09 89.228C293.887 89.228 296.147 91.492 296.147 94.2947Z" fill="#D1D5DB"/>
</g>
<defs>
<linearGradient id="paint0_linear_168_1072" x1="191" y1="126" x2="191" y2="242" gradientUnits="userSpaceOnUse">
<stop stop-color="white" stop-opacity="0"/>
<stop offset="1" stop-color="white"/>
</linearGradient>
<linearGradient id="paint1_linear_168_1072" x1="96.0784" y1="101.97" x2="96.0784" y2="174" gradientUnits="userSpaceOnUse">
<stop stop-color="#D1D5DB"/>
<stop offset="1" stop-color="#D1D5DB" stop-opacity="0"/>
</linearGradient>
<linearGradient id="paint2_linear_168_1072" x1="286.608" y1="101.97" x2="286.608" y2="174" gradientUnits="userSpaceOnUse">
<stop stop-color="#D1D5DB"/>
<stop offset="1" stop-color="#D1D5DB" stop-opacity="0"/>
</linearGradient>
<clipPath id="clip0_168_1072">
<rect width="382" height="181" rx="14" fill="white"/>
</clipPath>
</defs>
</svg>
