<svg width="162" height="146" viewBox="0 0 162 146" fill="none" xmlns="http://www.w3.org/2000/svg">
<g filter="url(#filter0_d_400_727)">
<rect x="2" y="98" width="158" height="20" rx="4.64865" fill="#2FB5C0"/>
<rect x="2.29054" y="98.2905" width="157.419" height="19.4189" rx="4.35811" stroke="#2FB5C0" stroke-width="0.581081"/>
<rect x="60.9526" y="105.676" width="40.0946" height="4.64865" rx="2.32432" fill="white"/>
</g>
<g filter="url(#filter1_d_400_727)">
<rect x="2" y="124" width="158" height="20" rx="4.64865" fill="white"/>
<rect x="2.29054" y="124.291" width="157.419" height="19.4189" rx="4.35811" stroke="#E5E7EB" stroke-width="0.581081"/>
<rect x="57.4663" y="131.676" width="30.7973" height="4.64865" rx="2.32432" fill="#26919A"/>
<path d="M94.8491 134H102.597M102.597 134L99.6915 131.095M102.597 134L99.6915 136.905" stroke="#26919A" stroke-width="0.968468" stroke-linecap="round" stroke-linejoin="round"/>
</g>
<g filter="url(#filter2_d_400_727)">
<rect x="2" y="35" width="158" height="19" rx="4.64865" fill="white"/>
<rect x="2.29054" y="35.2905" width="157.419" height="18.4189" rx="4.35811" stroke="#D0D5DD" stroke-width="0.581081"/>
<rect x="10.1353" y="42.1757" width="31.3784" height="4.64865" rx="2.32432" fill="#E5E7EB"/>
</g>
<g filter="url(#filter3_d_400_727)">
<rect x="2" y="64" width="158" height="20" rx="4.64865" fill="white"/>
<rect x="2.29054" y="64.2905" width="157.419" height="19.4189" rx="4.35811" stroke="#D0D5DD" stroke-width="0.581081"/>
<rect x="10.1353" y="71.6757" width="22.0811" height="4.64865" rx="2.32432" fill="#E5E7EB"/>
</g>
<g filter="url(#filter4_dd_400_727)">
<path d="M49.2136 4.2131C45.3559 8.07081 45.3559 14.3256 49.2136 18.1833C53.0713 22.041 59.3261 22.041 63.1838 18.1833C67.0415 14.3256 67.0415 8.07081 63.1838 4.2131C59.3261 0.355397 53.0713 0.355397 49.2136 4.2131Z" fill="#472F92"/>
<path d="M56.8685 6.24193C56.7394 6.24193 56.6117 6.1932 56.5129 6.09442C56.3167 5.89818 56.3167 5.57944 56.5129 5.3832L57.29 4.60481L56.5129 3.82642C56.3167 3.63018 56.3167 3.31144 56.5129 3.1152C56.7091 2.91896 57.0279 2.91896 57.2241 3.1152L58.3581 4.2492C58.5544 4.44544 58.5544 4.76418 58.3581 4.96042L57.2241 6.09442C57.1253 6.1932 56.9976 6.24193 56.8685 6.24193V6.24193Z" fill="#2FB5C0"/>
<path d="M55.5359 19.4285C55.4068 19.4285 55.2777 19.3798 55.1803 19.281L54.0476 18.1483C53.8513 17.952 53.8513 17.6333 54.0476 17.4371L55.1816 16.3031C55.3778 16.1068 55.6965 16.1068 55.8928 16.3031C56.089 16.4993 56.089 16.818 55.8928 17.0143L55.1157 17.7927L55.8928 18.5698C56.089 18.766 56.089 19.0847 55.8928 19.281C55.794 19.3798 55.6663 19.4285 55.5372 19.4285H55.5359Z" fill="#2FB5C0"/>
<path d="M63.0099 9.17503C62.8848 8.75488 62.5569 8.43878 62.1328 8.3321C61.7087 8.2241 61.2714 8.34527 60.9632 8.65347L59.575 10.0403C59.4538 10.1615 59.4025 10.3354 59.4394 10.5026C59.6777 11.609 59.3432 12.7469 58.5437 13.5477C57.3729 14.7186 55.5395 14.824 54.2435 13.8743L58.5214 9.59649C58.8401 9.27776 58.9889 8.82074 58.9178 8.37556C58.848 7.92776 58.5767 7.55371 58.1763 7.34956C56.5023 6.49347 54.4858 6.8122 53.1556 8.14244C51.5909 9.70581 51.4803 12.1806 52.8197 13.8743L51.878 14.8161C51.7648 14.9293 51.6344 14.9372 51.5659 14.932C51.4434 14.9214 51.3314 14.8582 51.2577 14.7568C49.502 12.3215 49.772 9.01039 51.8978 6.88464C52.9515 5.83098 54.3489 5.20142 55.8332 5.10922C56.1111 5.0921 56.3218 4.85371 56.3047 4.57581C56.2876 4.29791 56.0466 4.08454 55.7713 4.1043C54.0407 4.21098 52.4128 4.94459 51.1853 6.1721C48.7078 8.64952 48.3944 12.5059 50.4398 15.3442C50.6861 15.6853 51.0667 15.9 51.4829 15.9342C51.5211 15.9369 51.558 15.9395 51.5962 15.9395C51.9663 15.9395 52.3232 15.7933 52.5879 15.5286L53.5231 14.5935C55.2168 15.9329 57.689 15.8236 59.2536 14.2602C60.2296 13.2843 60.6748 11.9211 60.4719 10.5685L61.6731 9.36732C61.7508 9.28961 61.8391 9.29752 61.8838 9.30937C61.9299 9.32122 62.0129 9.35678 62.0445 9.46347C62.6833 11.6142 62.0959 13.9336 60.5115 15.5181C59.4591 16.5704 58.0617 17.2013 56.5747 17.2935C56.2981 17.3106 56.0861 17.549 56.1032 17.8269C56.1203 18.0942 56.3416 18.2984 56.605 18.2984C56.6156 18.2984 56.6261 18.2984 56.6366 18.2984C58.3673 18.1917 59.9965 17.4568 61.2227 16.2306C63.0692 14.3854 63.7528 11.6827 63.0086 9.17898L63.0099 9.17503ZM53.8681 8.85103C54.5069 8.21225 55.3512 7.87771 56.2099 7.87771C56.7222 7.87771 57.2398 7.99756 57.7193 8.24254C57.8707 8.32025 57.9129 8.45591 57.9247 8.52966C57.9458 8.66137 57.9036 8.78913 57.8101 8.88264L53.5376 13.1539C53.1214 12.5889 52.8961 11.908 52.8961 11.1928C52.8961 10.3077 53.2412 9.47532 53.8668 8.84971L53.8681 8.85103Z" fill="white"/>
</g>
<path d="M71.6427 8.15138C70.0908 8.15138 68.8438 9.31018 68.8438 10.9969C68.8438 12.6835 70.0908 13.8273 71.6198 13.8273C72.8008 13.8273 73.766 13.2919 74.2435 12.1758L72.9634 11.9068C72.5723 12.5629 72.0414 12.6157 71.6198 12.6157C70.9569 12.6157 70.4032 12.1431 70.2635 11.3689H74.3857V10.8863C74.3324 9.25489 73.0853 8.14886 71.6427 8.14886V8.15138ZM70.3092 10.3735C70.482 9.70735 71.1017 9.3856 71.6427 9.3856C72.2167 9.3856 72.7373 9.68724 72.9228 10.3735H70.3092V10.3735Z" fill="#2FB5C0"/>
<path d="M78.8495 9.5034L77.29 9.1917C76.7262 9.08361 76.5636 8.82721 76.5636 8.46273C76.5636 7.9801 77.0056 7.57288 77.7447 7.57288C78.4838 7.57288 79.0679 8.01278 79.1771 8.68896L80.6503 8.38732C80.3683 7.11037 79.2508 6.31604 77.7777 6.31604C76.076 6.31604 75.0118 7.21845 75.0118 8.50546C75.0118 9.91061 76.0506 10.3832 76.9192 10.5667L78.4584 10.8558C79.1086 10.984 79.3041 11.2303 79.3041 11.64C79.3041 12.1553 78.8597 12.5525 78.0139 12.5525C77.1681 12.5525 76.5814 12.1981 76.3858 11.3836L74.834 11.6953C75.0194 13.1332 76.3528 13.8294 77.8716 13.8294C79.5962 13.8294 80.7569 12.9597 80.7569 11.5646C80.7569 10.4485 80.0305 9.74974 78.847 9.5034H78.8495Z" fill="#2FB5C0"/>
<path d="M107.9 8.15132C106.351 8.15132 105.102 9.31012 105.102 10.9968C105.102 12.6835 106.349 13.8272 107.878 13.8272C109.061 13.8272 110.026 13.2918 110.504 12.1757L109.224 11.9068C108.835 12.5628 108.302 12.6156 107.88 12.6156C107.217 12.6156 106.666 12.143 106.524 11.3688H110.646V10.8862C110.593 9.25483 109.346 8.1488 107.9 8.1488V8.15132ZM106.567 10.3734C106.74 9.70729 107.359 9.38554 107.9 9.38554C108.477 9.38554 108.998 9.68718 109.181 10.3734H106.567Z" fill="#2FB5C0"/>
<path d="M86.9793 10.4061C86.9793 9.07634 86.1106 8.15382 84.8102 8.15382C84.094 8.15382 83.5301 8.37753 83.106 8.79732V5.94177H80.8633L81.1376 6.51238C81.2265 6.69839 81.4678 6.84921 81.676 6.84921V12.7689H81.3332V13.6714H83.4489V12.7689H83.1085V11.301C83.1085 9.99132 83.6419 9.45339 84.4546 9.45339C85.115 9.45339 85.5493 9.95864 85.5493 10.7077V12.7664H85.209V13.6688H87.3247V12.7664H86.9818V10.4061H86.9793Z" fill="#2FB5C0"/>
<path d="M95.0495 8.15125C94.3129 8.15125 93.7135 8.36491 93.2589 8.74196V8.31212H91.0137L91.288 8.88273C91.3769 9.06623 91.6207 9.21705 91.8264 9.21705V14.5888H91.4835V15.4937H93.5992V14.5888H93.2564V13.249C93.711 13.616 94.3079 13.8297 95.047 13.8297C96.4236 13.8297 97.7036 12.6834 97.7036 10.9993C97.7036 9.31508 96.4236 8.15376 95.047 8.15376L95.0495 8.15125ZM94.7981 12.5954C94.0259 12.5954 93.2589 11.9846 93.2589 10.9967C93.2589 10.0089 94.0285 9.38547 94.7981 9.38547C95.6641 9.38547 96.3169 10.0089 96.3169 10.9967C96.3169 11.9846 95.6641 12.5954 94.7981 12.5954Z" fill="#2FB5C0"/>
<path d="M101.736 8.15125C101 8.15125 100.403 8.36491 99.9484 8.74196V8.31212H97.7031L97.9774 8.88273C98.0689 9.06623 98.3102 9.21705 98.5159 9.21705V14.5888H98.173V15.4937H100.289V14.5888H99.9484V13.249C100.403 13.616 101 13.8297 101.736 13.8297C103.113 13.8297 104.393 12.6834 104.393 10.9993C104.393 9.31508 103.113 8.15376 101.736 8.15376V8.15125ZM101.488 12.5954C100.718 12.5954 99.9484 11.9846 99.9484 10.9967C99.9484 10.0089 100.718 9.38547 101.488 9.38547C102.354 9.38547 103.006 10.0089 103.006 10.9967C103.006 11.9846 102.354 12.5954 101.488 12.5954Z" fill="#2FB5C0"/>
<path d="M115.037 8.23682C114.158 8.23682 113.529 8.66666 113.097 9.29005V8.31223H110.852L111.128 8.88284C111.217 9.06633 111.459 9.21716 111.664 9.21716V12.7665H111.324V13.6689H113.437V12.7665H113.097V11.9395C113.097 10.4489 113.704 9.64448 115.027 9.64448H115.342L115.418 8.28206C115.289 8.23682 115.179 8.23682 115.04 8.23682H115.037Z" fill="#2FB5C0"/>
<path d="M89.3921 7.61332C89.8924 7.61332 90.2582 7.25889 90.2582 6.78632C90.2582 6.31375 89.8899 5.93921 89.3921 5.93921C88.8943 5.93921 88.5234 6.33637 88.5234 6.78632C88.5234 7.25889 88.8816 7.61332 89.3921 7.61332Z" fill="#EC1846"/>
<path d="M90.1085 8.30945H87.8633L88.1401 8.88005C88.229 9.06355 88.4703 9.21437 88.676 9.21437V12.7637H88.3332V13.6661H90.4489V12.7637H90.106V8.30945H90.1085Z" fill="#2FB5C0"/>
<defs>
<filter id="filter0_d_400_727" x="0.837838" y="97.4189" width="160.324" height="22.3243" filterUnits="userSpaceOnUse" color-interpolation-filters="sRGB">
<feFlood flood-opacity="0" result="BackgroundImageFix"/>
<feColorMatrix in="SourceAlpha" type="matrix" values="0 0 0 0 0 0 0 0 0 0 0 0 0 0 0 0 0 0 127 0" result="hardAlpha"/>
<feOffset dy="0.581081"/>
<feGaussianBlur stdDeviation="0.581081"/>
<feColorMatrix type="matrix" values="0 0 0 0 0.0627451 0 0 0 0 0.0941176 0 0 0 0 0.156863 0 0 0 0.05 0"/>
<feBlend mode="normal" in2="BackgroundImageFix" result="effect1_dropShadow_400_727"/>
<feBlend mode="normal" in="SourceGraphic" in2="effect1_dropShadow_400_727" result="shape"/>
</filter>
<filter id="filter1_d_400_727" x="0.837838" y="123.419" width="160.324" height="22.3243" filterUnits="userSpaceOnUse" color-interpolation-filters="sRGB">
<feFlood flood-opacity="0" result="BackgroundImageFix"/>
<feColorMatrix in="SourceAlpha" type="matrix" values="0 0 0 0 0 0 0 0 0 0 0 0 0 0 0 0 0 0 127 0" result="hardAlpha"/>
<feOffset dy="0.581081"/>
<feGaussianBlur stdDeviation="0.581081"/>
<feColorMatrix type="matrix" values="0 0 0 0 0.0627451 0 0 0 0 0.0941176 0 0 0 0 0.156863 0 0 0 0.05 0"/>
<feBlend mode="normal" in2="BackgroundImageFix" result="effect1_dropShadow_400_727"/>
<feBlend mode="normal" in="SourceGraphic" in2="effect1_dropShadow_400_727" result="shape"/>
</filter>
<filter id="filter2_d_400_727" x="0.837838" y="34.4189" width="160.324" height="21.3243" filterUnits="userSpaceOnUse" color-interpolation-filters="sRGB">
<feFlood flood-opacity="0" result="BackgroundImageFix"/>
<feColorMatrix in="SourceAlpha" type="matrix" values="0 0 0 0 0 0 0 0 0 0 0 0 0 0 0 0 0 0 127 0" result="hardAlpha"/>
<feOffset dy="0.581081"/>
<feGaussianBlur stdDeviation="0.581081"/>
<feColorMatrix type="matrix" values="0 0 0 0 0.0627451 0 0 0 0 0.0941176 0 0 0 0 0.156863 0 0 0 0.05 0"/>
<feBlend mode="normal" in2="BackgroundImageFix" result="effect1_dropShadow_400_727"/>
<feBlend mode="normal" in="SourceGraphic" in2="effect1_dropShadow_400_727" result="shape"/>
</filter>
<filter id="filter3_d_400_727" x="0.837838" y="63.4189" width="160.324" height="22.3243" filterUnits="userSpaceOnUse" color-interpolation-filters="sRGB">
<feFlood flood-opacity="0" result="BackgroundImageFix"/>
<feColorMatrix in="SourceAlpha" type="matrix" values="0 0 0 0 0 0 0 0 0 0 0 0 0 0 0 0 0 0 127 0" result="hardAlpha"/>
<feOffset dy="0.581081"/>
<feGaussianBlur stdDeviation="0.581081"/>
<feColorMatrix type="matrix" values="0 0 0 0 0.0627451 0 0 0 0 0.0941176 0 0 0 0 0.156863 0 0 0 0.05 0"/>
<feBlend mode="normal" in2="BackgroundImageFix" result="effect1_dropShadow_400_727"/>
<feBlend mode="normal" in="SourceGraphic" in2="effect1_dropShadow_400_727" result="shape"/>
</filter>
<filter id="filter4_dd_400_727" x="44.4681" y="0.085027" width="23.4612" height="23.4612" filterUnits="userSpaceOnUse" color-interpolation-filters="sRGB">
<feFlood flood-opacity="0" result="BackgroundImageFix"/>
<feColorMatrix in="SourceAlpha" type="matrix" values="0 0 0 0 0 0 0 0 0 0 0 0 0 0 0 0 0 0 127 0" result="hardAlpha"/>
<feOffset dy="0.617399"/>
<feGaussianBlur stdDeviation="0.617399"/>
<feColorMatrix type="matrix" values="0 0 0 0 0.0627451 0 0 0 0 0.0941176 0 0 0 0 0.156863 0 0 0 0.06 0"/>
<feBlend mode="normal" in2="BackgroundImageFix" result="effect1_dropShadow_400_727"/>
<feColorMatrix in="SourceAlpha" type="matrix" values="0 0 0 0 0 0 0 0 0 0 0 0 0 0 0 0 0 0 127 0" result="hardAlpha"/>
<feOffset dy="0.617399"/>
<feGaussianBlur stdDeviation="0.926098"/>
<feColorMatrix type="matrix" values="0 0 0 0 0.0627451 0 0 0 0 0.0941176 0 0 0 0 0.156863 0 0 0 0.1 0"/>
<feBlend mode="normal" in2="effect1_dropShadow_400_727" result="effect2_dropShadow_400_727"/>
<feBlend mode="normal" in="SourceGraphic" in2="effect2_dropShadow_400_727" result="shape"/>
</filter>
</defs>
</svg>
