<svg width="315" height="118" viewBox="0 0 315 118" fill="none" xmlns="http://www.w3.org/2000/svg">
<g filter="url(#filter0_d_488_957)">
<path d="M290.745 33.6275C290.745 41.0129 284.758 47 277.373 47C269.987 47 264 41.0129 264 33.6275C264 26.242 269.987 20.2549 277.373 20.2549C284.758 20.2549 290.745 26.242 290.745 33.6275Z" fill="url(#paint0_linear_488_957)" shape-rendering="crispEdges"/>
</g>
<rect x="80" y="69" width="1" height="59" rx="0.500001" transform="rotate(90 80 69)" fill="#2FB5C0"/>
<g clip-path="url(#clip0_488_957)">
<rect x="4" y="63" width="12" height="12" rx="6" fill="#2FB5C0"/>
<path d="M12.4006 67.1999L9.10059 70.4999L7.60059 68.9999" stroke="white" stroke-linecap="round" stroke-linejoin="round"/>
</g>
<path d="M4.57386 96V90.1818H5.62784V95.1165H8.19034V96H4.57386ZM10.3153 96.0881C10.0388 96.0881 9.78977 96.0388 9.56818 95.9403C9.34848 95.84 9.17424 95.6922 9.04545 95.4972C8.91856 95.3021 8.85511 95.0616 8.85511 94.7756C8.85511 94.5294 8.90057 94.3258 8.99148 94.1648C9.08239 94.0038 9.20644 93.875 9.36364 93.7784C9.52083 93.6818 9.69792 93.6089 9.89489 93.5597C10.0938 93.5085 10.2992 93.4716 10.5114 93.4489C10.767 93.4223 10.9744 93.3987 11.1335 93.3778C11.2926 93.3551 11.4081 93.321 11.4801 93.2756C11.554 93.2282 11.5909 93.1553 11.5909 93.0568V93.0398C11.5909 92.8258 11.5275 92.66 11.4006 92.5426C11.2737 92.4252 11.0909 92.3665 10.8523 92.3665C10.6004 92.3665 10.4006 92.4214 10.2528 92.5312C10.107 92.6411 10.0085 92.7708 9.95739 92.9205L8.99716 92.7841C9.07292 92.5189 9.19792 92.2973 9.37216 92.1193C9.5464 91.9394 9.75947 91.8049 10.0114 91.7159C10.2633 91.625 10.5417 91.5795 10.8466 91.5795C11.0568 91.5795 11.2661 91.6042 11.4744 91.6534C11.6828 91.7027 11.8731 91.7841 12.0455 91.8977C12.2178 92.0095 12.3561 92.1619 12.4602 92.3551C12.5663 92.5483 12.6193 92.7898 12.6193 93.0795V96H11.6307V95.4006H11.5966C11.5341 95.5218 11.446 95.6354 11.3324 95.7415C11.2206 95.8456 11.0795 95.9299 10.9091 95.9943C10.7405 96.0568 10.5426 96.0881 10.3153 96.0881ZM10.5824 95.3324C10.7888 95.3324 10.9678 95.2917 11.1193 95.2102C11.2708 95.1269 11.3873 95.017 11.4688 94.8807C11.5521 94.7443 11.5938 94.5956 11.5938 94.4347V93.9205C11.5616 93.947 11.5066 93.9716 11.429 93.9943C11.3532 94.017 11.268 94.0369 11.1733 94.054C11.0786 94.071 10.9848 94.0862 10.892 94.0994C10.7992 94.1127 10.7188 94.1241 10.6506 94.1335C10.4972 94.1544 10.3598 94.1884 10.2386 94.2358C10.1174 94.2831 10.0218 94.3494 9.9517 94.4347C9.88163 94.518 9.84659 94.6259 9.84659 94.7585C9.84659 94.9479 9.91572 95.0909 10.054 95.1875C10.1922 95.2841 10.3684 95.3324 10.5824 95.3324ZM13.6989 96V90.1818H14.7273V92.358H14.7699C14.8229 92.2519 14.8977 92.1392 14.9943 92.0199C15.0909 91.8987 15.2216 91.7955 15.3864 91.7102C15.5511 91.6231 15.7614 91.5795 16.017 91.5795C16.3542 91.5795 16.6581 91.6657 16.929 91.8381C17.2017 92.0085 17.4176 92.2614 17.5767 92.5966C17.7377 92.9299 17.8182 93.339 17.8182 93.8239C17.8182 94.303 17.7396 94.7102 17.5824 95.0455C17.4252 95.3807 17.2112 95.6364 16.9403 95.8125C16.6695 95.9886 16.3627 96.0767 16.0199 96.0767C15.7699 96.0767 15.5625 96.035 15.3977 95.9517C15.233 95.8684 15.1004 95.768 15 95.6506C14.9015 95.5312 14.8248 95.4186 14.7699 95.3125H14.7102V96H13.6989ZM14.7074 93.8182C14.7074 94.1004 14.7472 94.3475 14.8267 94.5597C14.9081 94.7718 15.0246 94.9375 15.1761 95.0568C15.3295 95.1742 15.5152 95.233 15.733 95.233C15.9602 95.233 16.1506 95.1723 16.304 95.0511C16.4574 94.928 16.5729 94.7604 16.6506 94.5483C16.7301 94.3343 16.7699 94.0909 16.7699 93.8182C16.7699 93.5473 16.7311 93.3068 16.6534 93.0966C16.5758 92.8864 16.4602 92.7216 16.3068 92.6023C16.1534 92.483 15.9621 92.4233 15.733 92.4233C15.5133 92.4233 15.3267 92.4811 15.1733 92.5966C15.0199 92.7121 14.9034 92.8741 14.8239 93.0824C14.7462 93.2907 14.7074 93.536 14.7074 93.8182ZM20.6243 96.0852C20.1868 96.0852 19.8089 95.9943 19.4908 95.8125C19.1745 95.6288 18.9311 95.3693 18.7607 95.0341C18.5902 94.697 18.505 94.3002 18.505 93.8438C18.505 93.3949 18.5902 93.0009 18.7607 92.6619C18.933 92.321 19.1735 92.0559 19.4822 91.8665C19.791 91.6752 20.1536 91.5795 20.5703 91.5795C20.8393 91.5795 21.093 91.6231 21.3317 91.7102C21.5722 91.7955 21.7843 91.928 21.968 92.108C22.1536 92.2879 22.2995 92.517 22.4055 92.7955C22.5116 93.072 22.5646 93.4015 22.5646 93.7841V94.0994H18.9879V93.4062H21.5788C21.5769 93.2093 21.5343 93.0341 21.451 92.8807C21.3677 92.7254 21.2512 92.6032 21.1016 92.5142C20.9538 92.4252 20.7815 92.3807 20.5845 92.3807C20.3743 92.3807 20.1896 92.4318 20.0305 92.5341C19.8714 92.6345 19.7474 92.767 19.6584 92.9318C19.5713 93.0947 19.5268 93.2737 19.5249 93.4688V94.0739C19.5249 94.3277 19.5713 94.5455 19.6641 94.7273C19.7569 94.9072 19.8866 95.0455 20.0533 95.142C20.2199 95.2367 20.415 95.2841 20.6385 95.2841C20.7881 95.2841 20.9235 95.2633 21.0447 95.2216C21.166 95.178 21.2711 95.1146 21.3601 95.0312C21.4491 94.9479 21.5163 94.8447 21.5618 94.7216L22.522 94.8295C22.4614 95.0833 22.3459 95.3049 22.1754 95.4943C22.0069 95.6818 21.791 95.8277 21.5277 95.9318C21.2644 96.0341 20.9633 96.0852 20.6243 96.0852ZM24.4631 90.1818V96H23.4347V90.1818H24.4631ZM27.5504 96V90.1818H29.7322C30.1792 90.1818 30.5542 90.2595 30.8572 90.4148C31.1622 90.5701 31.3923 90.7879 31.5476 91.0682C31.7048 91.3466 31.7834 91.6714 31.7834 92.0426C31.7834 92.4157 31.7038 92.7396 31.5447 93.0142C31.3875 93.2869 31.1555 93.4981 30.8487 93.6477C30.5419 93.7955 30.165 93.8693 29.718 93.8693H28.1641V92.9943H29.576C29.8374 92.9943 30.0514 92.9583 30.218 92.8864C30.3847 92.8125 30.5078 92.7055 30.5874 92.5653C30.6688 92.4233 30.7095 92.2491 30.7095 92.0426C30.7095 91.8362 30.6688 91.66 30.5874 91.5142C30.5059 91.3665 30.3819 91.2547 30.2152 91.179C30.0485 91.1013 29.8336 91.0625 29.5703 91.0625H28.6044V96H27.5504ZM30.5561 93.3636L31.9964 96H30.8203L29.4055 93.3636H30.5561ZM34.5774 96.0852C34.1399 96.0852 33.7621 95.9943 33.4439 95.8125C33.1276 95.6288 32.8842 95.3693 32.7138 95.0341C32.5433 94.697 32.4581 94.3002 32.4581 93.8438C32.4581 93.3949 32.5433 93.0009 32.7138 92.6619C32.8861 92.321 33.1267 92.0559 33.4354 91.8665C33.7441 91.6752 34.1068 91.5795 34.5234 91.5795C34.7924 91.5795 35.0462 91.6231 35.2848 91.7102C35.5253 91.7955 35.7375 91.928 35.9212 92.108C36.1068 92.2879 36.2526 92.517 36.3587 92.7955C36.4647 93.072 36.5178 93.4015 36.5178 93.7841V94.0994H32.9411V93.4062H35.532C35.5301 93.2093 35.4875 93.0341 35.4041 92.8807C35.3208 92.7254 35.2043 92.6032 35.0547 92.5142C34.907 92.4252 34.7346 92.3807 34.5376 92.3807C34.3274 92.3807 34.1428 92.4318 33.9837 92.5341C33.8246 92.6345 33.7005 92.767 33.6115 92.9318C33.5244 93.0947 33.4799 93.2737 33.478 93.4688V94.0739C33.478 94.3277 33.5244 94.5455 33.6172 94.7273C33.71 94.9072 33.8397 95.0455 34.0064 95.142C34.1731 95.2367 34.3681 95.2841 34.5916 95.2841C34.7412 95.2841 34.8767 95.2633 34.9979 95.2216C35.1191 95.178 35.2242 95.1146 35.3132 95.0312C35.4022 94.9479 35.4695 94.8447 35.5149 94.7216L36.4751 94.8295C36.4145 95.0833 36.299 95.3049 36.1286 95.4943C35.96 95.6818 35.7441 95.8277 35.4808 95.9318C35.2176 96.0341 34.9164 96.0852 34.5774 96.0852ZM38.6435 96.0881C38.367 96.0881 38.1179 96.0388 37.8963 95.9403C37.6766 95.84 37.5024 95.6922 37.3736 95.4972C37.2467 95.3021 37.1832 95.0616 37.1832 94.7756C37.1832 94.5294 37.2287 94.3258 37.3196 94.1648C37.4105 94.0038 37.5346 93.875 37.6918 93.7784C37.849 93.6818 38.026 93.6089 38.223 93.5597C38.4219 93.5085 38.6274 93.4716 38.8395 93.4489C39.0952 93.4223 39.3026 93.3987 39.4616 93.3778C39.6207 93.3551 39.7363 93.321 39.8082 93.2756C39.8821 93.2282 39.919 93.1553 39.919 93.0568V93.0398C39.919 92.8258 39.8556 92.66 39.7287 92.5426C39.6018 92.4252 39.419 92.3665 39.1804 92.3665C38.9285 92.3665 38.7287 92.4214 38.581 92.5312C38.4351 92.6411 38.3366 92.7708 38.2855 92.9205L37.3253 92.7841C37.401 92.5189 37.526 92.2973 37.7003 92.1193C37.8745 91.9394 38.0876 91.8049 38.3395 91.7159C38.5914 91.625 38.8698 91.5795 39.1747 91.5795C39.3849 91.5795 39.5942 91.6042 39.8026 91.6534C40.0109 91.7027 40.2012 91.7841 40.3736 91.8977C40.5459 92.0095 40.6842 92.1619 40.7884 92.3551C40.8944 92.5483 40.9474 92.7898 40.9474 93.0795V96H39.9588V95.4006H39.9247C39.8622 95.5218 39.7741 95.6354 39.6605 95.7415C39.5488 95.8456 39.4077 95.9299 39.2372 95.9943C39.0687 96.0568 38.8707 96.0881 38.6435 96.0881ZM38.9105 95.3324C39.117 95.3324 39.2959 95.2917 39.4474 95.2102C39.599 95.1269 39.7154 95.017 39.7969 94.8807C39.8802 94.7443 39.9219 94.5956 39.9219 94.4347V93.9205C39.8897 93.947 39.8348 93.9716 39.7571 93.9943C39.6813 94.017 39.5961 94.0369 39.5014 94.054C39.4067 94.071 39.313 94.0862 39.2202 94.0994C39.1274 94.1127 39.0469 94.1241 38.9787 94.1335C38.8253 94.1544 38.688 94.1884 38.5668 94.2358C38.4455 94.2831 38.3499 94.3494 38.2798 94.4347C38.2098 94.518 38.1747 94.6259 38.1747 94.7585C38.1747 94.9479 38.2438 95.0909 38.3821 95.1875C38.5204 95.2841 38.6965 95.3324 38.9105 95.3324ZM43.6009 96.0767C43.258 96.0767 42.9512 95.9886 42.6804 95.8125C42.4096 95.6364 42.1955 95.3807 42.0384 95.0455C41.8812 94.7102 41.8026 94.303 41.8026 93.8239C41.8026 93.339 41.8821 92.9299 42.0412 92.5966C42.2022 92.2614 42.419 92.0085 42.6918 91.8381C42.9645 91.6657 43.2685 91.5795 43.6037 91.5795C43.8594 91.5795 44.0696 91.6231 44.2344 91.7102C44.3991 91.7955 44.5298 91.8987 44.6264 92.0199C44.723 92.1392 44.7978 92.2519 44.8509 92.358H44.8935V90.1818H45.9247V96H44.9134V95.3125H44.8509C44.7978 95.4186 44.7211 95.5312 44.6207 95.6506C44.5204 95.768 44.3878 95.8684 44.223 95.9517C44.0582 96.035 43.8509 96.0767 43.6009 96.0767ZM43.8878 95.233C44.1056 95.233 44.2912 95.1742 44.4446 95.0568C44.598 94.9375 44.7145 94.7718 44.794 94.5597C44.8736 94.3475 44.9134 94.1004 44.9134 93.8182C44.9134 93.536 44.8736 93.2907 44.794 93.0824C44.7164 92.8741 44.6009 92.7121 44.4474 92.5966C44.2959 92.4811 44.1094 92.4233 43.8878 92.4233C43.6586 92.4233 43.4673 92.483 43.3139 92.6023C43.1605 92.7216 43.045 92.8864 42.9673 93.0966C42.8897 93.3068 42.8509 93.5473 42.8509 93.8182C42.8509 94.0909 42.8897 94.3343 42.9673 94.5483C43.0469 94.7604 43.1634 94.928 43.3168 95.0511C43.4721 95.1723 43.6624 95.233 43.8878 95.233ZM47.6598 97.6364C47.5196 97.6364 47.3899 97.625 47.2706 97.6023C47.1532 97.5814 47.0594 97.5568 46.9893 97.5284L47.228 96.7273C47.3776 96.7708 47.5111 96.7917 47.6286 96.7898C47.746 96.7879 47.8492 96.7509 47.9382 96.679C48.0291 96.6089 48.1058 96.4915 48.1683 96.3267L48.2564 96.0909L46.674 91.6364H47.7649L48.7706 94.9318H48.8161L49.8246 91.6364H50.9183L49.1712 96.5284C49.0897 96.7595 48.9818 96.9574 48.8473 97.1222C48.7128 97.2888 48.5481 97.4157 48.353 97.5028C48.1598 97.5919 47.9287 97.6364 47.6598 97.6364Z" fill="#344054"/>
<rect x="4" y="104" width="52" height="5" rx="2.5" fill="#EAECF0"/>
<rect x="4" y="113" width="34" height="5" rx="2.5" fill="#EAECF0"/>
<g clip-path="url(#clip1_488_957)">
<rect x="84.8584" y="63" width="12" height="12" rx="6" fill="#2FB5C0"/>
<g clip-path="url(#clip2_488_957)">
<path d="M93.259 67.1999L89.959 70.4999L88.459 68.9999" stroke="white" stroke-linecap="round" stroke-linejoin="round"/>
</g>
</g>
<path d="M85.4323 96V90.1818H87.6141C88.0611 90.1818 88.4361 90.2652 88.7391 90.4318C89.044 90.5985 89.2741 90.8277 89.4294 91.1193C89.5866 91.4091 89.6652 91.7386 89.6652 92.108C89.6652 92.4811 89.5866 92.8125 89.4294 93.1023C89.2722 93.392 89.0402 93.6203 88.7334 93.7869C88.4266 93.9517 88.0487 94.0341 87.5999 94.0341H86.1539V93.1676H87.4578C87.7192 93.1676 87.9332 93.1222 88.0999 93.0312C88.2665 92.9403 88.3896 92.8153 88.4692 92.6562C88.5506 92.4972 88.5914 92.3144 88.5914 92.108C88.5914 91.9015 88.5506 91.7197 88.4692 91.5625C88.3896 91.4053 88.2656 91.2831 88.097 91.196C87.9304 91.107 87.7154 91.0625 87.4521 91.0625H86.4862V96H85.4323ZM90.5352 96V91.6364H91.5637V96H90.5352ZM91.0523 91.017C90.8894 91.017 90.7493 90.9631 90.6318 90.8551C90.5144 90.7453 90.4557 90.6136 90.4557 90.4602C90.4557 90.3049 90.5144 90.1733 90.6318 90.0653C90.7493 89.9555 90.8894 89.9006 91.0523 89.9006C91.2171 89.9006 91.3572 89.9555 91.4727 90.0653C91.5902 90.1733 91.6489 90.3049 91.6489 90.4602C91.6489 90.6136 91.5902 90.7453 91.4727 90.8551C91.3572 90.9631 91.2171 91.017 91.0523 91.017ZM94.5246 96.0852C94.089 96.0852 93.7149 95.9896 93.4024 95.7983C93.0918 95.607 92.8522 95.3428 92.6837 95.0057C92.517 94.6667 92.4337 94.2765 92.4337 93.8352C92.4337 93.392 92.5189 93.0009 92.6894 92.6619C92.8598 92.321 93.1003 92.0559 93.411 91.8665C93.7235 91.6752 94.0928 91.5795 94.5189 91.5795C94.8731 91.5795 95.1865 91.6449 95.4593 91.7756C95.7339 91.9044 95.9526 92.0871 96.1155 92.3239C96.2784 92.5587 96.3712 92.8333 96.3939 93.1477H95.411C95.3712 92.9375 95.2765 92.7623 95.1269 92.6222C94.9791 92.4801 94.7812 92.4091 94.5331 92.4091C94.3229 92.4091 94.1382 92.4659 93.9791 92.5795C93.82 92.6913 93.696 92.8523 93.607 93.0625C93.5199 93.2727 93.4763 93.5246 93.4763 93.8182C93.4763 94.1155 93.5199 94.3712 93.607 94.5852C93.6941 94.7973 93.8163 94.9612 93.9735 95.0767C94.1325 95.1903 94.3191 95.2472 94.5331 95.2472C94.6846 95.2472 94.82 95.2187 94.9394 95.1619C95.0606 95.1032 95.1619 95.0189 95.2433 94.9091C95.3248 94.7992 95.3807 94.6657 95.411 94.5085H96.3939C96.3693 94.8172 96.2784 95.0909 96.1212 95.3295C95.964 95.5663 95.75 95.7519 95.4791 95.8864C95.2083 96.0189 94.8901 96.0852 94.5246 96.0852ZM98.1759 94.6307L98.173 93.3892H98.3378L99.906 91.6364H101.108L99.1787 93.7841H98.9656L98.1759 94.6307ZM97.2384 96V90.1818H98.2668V96H97.2384ZM99.977 96L98.5566 94.0142L99.2497 93.2898L101.207 96H99.977ZM104.574 94.1648V91.6364H105.603V96H104.606V95.2244H104.56C104.462 95.4687 104.3 95.6686 104.074 95.8239C103.851 95.9792 103.575 96.0568 103.248 96.0568C102.962 96.0568 102.709 95.9934 102.489 95.8665C102.271 95.7377 102.101 95.5511 101.978 95.3068C101.855 95.0606 101.793 94.7633 101.793 94.4148V91.6364H102.821V94.2557C102.821 94.5322 102.897 94.7519 103.049 94.9148C103.2 95.0777 103.399 95.1591 103.645 95.1591C103.797 95.1591 103.944 95.1222 104.086 95.0483C104.228 94.9744 104.344 94.8646 104.435 94.7188C104.528 94.571 104.574 94.3864 104.574 94.1648ZM106.66 97.6364V91.6364H107.672V92.358H107.731C107.784 92.2519 107.859 92.1392 107.956 92.0199C108.052 91.8987 108.183 91.7955 108.348 91.7102C108.513 91.6231 108.723 91.5795 108.978 91.5795C109.316 91.5795 109.62 91.6657 109.89 91.8381C110.163 92.0085 110.379 92.2614 110.538 92.5966C110.699 92.9299 110.78 93.339 110.78 93.8239C110.78 94.303 110.701 94.7102 110.544 95.0455C110.387 95.3807 110.173 95.6364 109.902 95.8125C109.631 95.9886 109.324 96.0767 108.981 96.0767C108.731 96.0767 108.524 96.035 108.359 95.9517C108.194 95.8684 108.062 95.768 107.961 95.6506C107.863 95.5312 107.786 95.4186 107.731 95.3125H107.689V97.6364H106.66ZM107.669 93.8182C107.669 94.1004 107.709 94.3475 107.788 94.5597C107.87 94.7718 107.986 94.9375 108.138 95.0568C108.291 95.1742 108.477 95.233 108.694 95.233C108.922 95.233 109.112 95.1723 109.265 95.0511C109.419 94.928 109.534 94.7604 109.612 94.5483C109.691 94.3343 109.731 94.0909 109.731 93.8182C109.731 93.5473 109.692 93.3068 109.615 93.0966C109.537 92.8864 109.422 92.7216 109.268 92.6023C109.115 92.483 108.924 92.4233 108.694 92.4233C108.475 92.4233 108.288 92.4811 108.135 92.5966C107.981 92.7121 107.865 92.8741 107.785 93.0824C107.708 93.2907 107.669 93.536 107.669 93.8182Z" fill="#344054"/>
<rect x="84.8584" y="104" width="52" height="5" rx="2.5" fill="#EAECF0"/>
<rect x="84.8584" y="113" width="34" height="5" rx="2.5" fill="#EAECF0"/>
<g clip-path="url(#clip3_488_957)">
<rect x="165.717" y="63" width="12" height="12" rx="6" fill="#2FB5C0"/>
<g clip-path="url(#clip4_488_957)">
<path d="M174.117 67.1999L170.817 70.4999L169.317 68.9999" stroke="white" stroke-linecap="round" stroke-linejoin="round"/>
</g>
</g>
<path d="M167.345 90.1818V96H166.291V90.1818H167.345ZM169.469 93.4432V96H168.441V91.6364H169.423V92.3778H169.475C169.575 92.1335 169.735 91.9394 169.955 91.7955C170.176 91.6515 170.45 91.5795 170.776 91.5795C171.077 91.5795 171.339 91.6439 171.563 91.7727C171.788 91.9015 171.962 92.0881 172.085 92.3324C172.21 92.5767 172.272 92.8731 172.27 93.2216V96H171.242V93.3807C171.242 93.089 171.166 92.8608 171.014 92.696C170.865 92.5312 170.657 92.4489 170.392 92.4489C170.212 92.4489 170.052 92.4886 169.912 92.5682C169.774 92.6458 169.665 92.7585 169.585 92.9062C169.508 93.054 169.469 93.233 169.469 93.4432ZM175.09 91.0653V90.1818H179.732V91.0653H177.933V96H176.888V91.0653H175.09ZM180.128 96V91.6364H181.125V92.3636H181.171C181.25 92.1117 181.387 91.9176 181.58 91.7812C181.775 91.643 181.997 91.5739 182.247 91.5739C182.304 91.5739 182.368 91.5767 182.438 91.5824C182.51 91.5862 182.569 91.5928 182.617 91.6023V92.5483C182.573 92.5331 182.504 92.5199 182.409 92.5085C182.316 92.4953 182.227 92.4886 182.139 92.4886C181.952 92.4886 181.783 92.5294 181.634 92.6108C181.486 92.6903 181.369 92.8011 181.284 92.9432C181.199 93.0852 181.156 93.2491 181.156 93.4347V96H180.128ZM184.477 96.0881C184.201 96.0881 183.952 96.0388 183.73 95.9403C183.511 95.84 183.336 95.6922 183.208 95.4972C183.081 95.3021 183.017 95.0616 183.017 94.7756C183.017 94.5294 183.063 94.3258 183.154 94.1648C183.244 94.0038 183.369 93.875 183.526 93.7784C183.683 93.6818 183.86 93.6089 184.057 93.5597C184.256 93.5085 184.461 93.4716 184.673 93.4489C184.929 93.4223 185.137 93.3987 185.296 93.3778C185.455 93.3551 185.57 93.321 185.642 93.2756C185.716 93.2282 185.753 93.1553 185.753 93.0568V93.0398C185.753 92.8258 185.69 92.66 185.563 92.5426C185.436 92.4252 185.253 92.3665 185.014 92.3665C184.762 92.3665 184.563 92.4214 184.415 92.5312C184.269 92.6411 184.171 92.7708 184.119 92.9205L183.159 92.7841C183.235 92.5189 183.36 92.2973 183.534 92.1193C183.709 91.9394 183.922 91.8049 184.173 91.7159C184.425 91.625 184.704 91.5795 185.009 91.5795C185.219 91.5795 185.428 91.6042 185.637 91.6534C185.845 91.7027 186.035 91.7841 186.208 91.8977C186.38 92.0095 186.518 92.1619 186.622 92.3551C186.728 92.5483 186.781 92.7898 186.781 93.0795V96H185.793V95.4006H185.759C185.696 95.5218 185.608 95.6354 185.494 95.7415C185.383 95.8456 185.242 95.9299 185.071 95.9943C184.903 96.0568 184.705 96.0881 184.477 96.0881ZM184.744 95.3324C184.951 95.3324 185.13 95.2917 185.281 95.2102C185.433 95.1269 185.549 95.017 185.631 94.8807C185.714 94.7443 185.756 94.5956 185.756 94.4347V93.9205C185.724 93.947 185.669 93.9716 185.591 93.9943C185.515 94.017 185.43 94.0369 185.335 94.054C185.241 94.071 185.147 94.0862 185.054 94.0994C184.961 94.1127 184.881 94.1241 184.813 94.1335C184.659 94.1544 184.522 94.1884 184.401 94.2358C184.28 94.2831 184.184 94.3494 184.114 94.4347C184.044 94.518 184.009 94.6259 184.009 94.7585C184.009 94.9479 184.078 95.0909 184.216 95.1875C184.354 95.2841 184.53 95.3324 184.744 95.3324ZM188.844 93.4432V96H187.816V91.6364H188.798V92.3778H188.85C188.95 92.1335 189.11 91.9394 189.33 91.7955C189.551 91.6515 189.825 91.5795 190.151 91.5795C190.452 91.5795 190.714 91.6439 190.938 91.7727C191.163 91.9015 191.337 92.0881 191.46 92.3324C191.585 92.5767 191.647 92.8731 191.645 93.2216V96H190.617V93.3807C190.617 93.089 190.541 92.8608 190.389 92.696C190.24 92.5312 190.032 92.4489 189.767 92.4489C189.587 92.4489 189.427 92.4886 189.287 92.5682C189.149 92.6458 189.04 92.7585 188.96 92.9062C188.883 93.054 188.844 93.233 188.844 93.4432ZM196.139 92.7898L195.202 92.892C195.175 92.7973 195.129 92.7083 195.063 92.625C194.998 92.5417 194.911 92.4744 194.801 92.4233C194.691 92.3722 194.557 92.3466 194.398 92.3466C194.184 92.3466 194.004 92.393 193.858 92.4858C193.714 92.5786 193.643 92.6989 193.645 92.8466C193.643 92.9735 193.69 93.0767 193.784 93.1562C193.881 93.2358 194.04 93.3011 194.262 93.3523L195.006 93.5114C195.419 93.6004 195.726 93.7415 195.926 93.9347C196.129 94.1278 196.231 94.3807 196.233 94.6932C196.231 94.9678 196.151 95.2102 195.992 95.4205C195.834 95.6288 195.616 95.7917 195.335 95.9091C195.055 96.0265 194.733 96.0852 194.369 96.0852C193.835 96.0852 193.405 95.9735 193.08 95.75C192.754 95.5246 192.56 95.2112 192.497 94.8097L193.5 94.7131C193.546 94.91 193.642 95.0587 193.79 95.1591C193.938 95.2595 194.13 95.3097 194.367 95.3097C194.611 95.3097 194.807 95.2595 194.955 95.1591C195.104 95.0587 195.179 94.9347 195.179 94.7869C195.179 94.6619 195.131 94.5587 195.034 94.4773C194.94 94.3958 194.792 94.3333 194.591 94.2898L193.847 94.1335C193.428 94.0464 193.119 93.8996 192.918 93.6932C192.717 93.4848 192.618 93.2216 192.619 92.9034C192.618 92.6345 192.691 92.4015 192.838 92.2045C192.988 92.0057 193.195 91.8523 193.46 91.7443C193.727 91.6345 194.035 91.5795 194.384 91.5795C194.895 91.5795 195.298 91.6884 195.591 91.9062C195.887 92.1241 196.069 92.4186 196.139 92.7898ZM197.081 96V91.6364H198.11V96H197.081ZM197.598 91.017C197.435 91.017 197.295 90.9631 197.178 90.8551C197.06 90.7453 197.002 90.6136 197.002 90.4602C197.002 90.3049 197.06 90.1733 197.178 90.0653C197.295 89.9555 197.435 89.9006 197.598 89.9006C197.763 89.9006 197.903 89.9555 198.019 90.0653C198.136 90.1733 198.195 90.3049 198.195 90.4602C198.195 90.6136 198.136 90.7453 198.019 90.8551C197.903 90.9631 197.763 91.017 197.598 91.017ZM201.346 91.6364V92.4318H198.838V91.6364H201.346ZM199.457 90.5909H200.485V94.6875C200.485 94.8258 200.506 94.9318 200.548 95.0057C200.591 95.0777 200.648 95.1269 200.718 95.1534C200.788 95.1799 200.866 95.1932 200.951 95.1932C201.016 95.1932 201.074 95.1884 201.127 95.179C201.182 95.1695 201.224 95.161 201.252 95.1534L201.426 95.9574C201.371 95.9763 201.292 95.9972 201.19 96.0199C201.089 96.0426 200.966 96.0559 200.82 96.0597C200.563 96.0672 200.331 96.0284 200.124 95.9432C199.918 95.8561 199.754 95.7216 199.633 95.5398C199.514 95.358 199.455 95.1307 199.457 94.858V90.5909Z" fill="#344054"/>
<rect x="165.717" y="104" width="52" height="5" rx="2.5" fill="#EAECF0"/>
<rect x="165.717" y="113" width="34" height="5" rx="2.5" fill="#EAECF0"/>
<g clip-path="url(#clip5_488_957)">
<rect x="246.575" y="63" width="12" height="12" rx="6" fill="#1C6D73"/>
<g clip-path="url(#clip6_488_957)">
<path d="M254.227 67.2001L250.927 70.5001L249.427 69.0001" stroke="white" stroke-width="0.700595" stroke-linecap="round" stroke-linejoin="round"/>
<path d="M255.727 67.2001L252.427 70.5001L250.927 69.0001" stroke="white" stroke-width="0.700595" stroke-linecap="round" stroke-linejoin="round"/>
</g>
</g>
<path d="M249.121 96H247.149V90.1818H249.16C249.738 90.1818 250.234 90.2983 250.649 90.5312C251.066 90.7623 251.386 91.0947 251.609 91.5284C251.833 91.9621 251.945 92.4811 251.945 93.0852C251.945 93.6913 251.832 94.2121 251.606 94.6477C251.383 95.0833 251.06 95.4176 250.638 95.6506C250.217 95.8835 249.712 96 249.121 96ZM248.203 95.0881H249.07C249.475 95.0881 249.813 95.0142 250.084 94.8665C250.355 94.7169 250.558 94.4943 250.695 94.1989C250.831 93.9015 250.899 93.5303 250.899 93.0852C250.899 92.6402 250.831 92.2708 250.695 91.9773C250.558 91.6818 250.356 91.4612 250.089 91.3153C249.824 91.1676 249.495 91.0938 249.101 91.0938H248.203V95.0881ZM254.832 96.0852C254.395 96.0852 254.017 95.9943 253.699 95.8125C253.382 95.6288 253.139 95.3693 252.969 95.0341C252.798 94.697 252.713 94.3002 252.713 93.8438C252.713 93.3949 252.798 93.0009 252.969 92.6619C253.141 92.321 253.382 92.0559 253.69 91.8665C253.999 91.6752 254.362 91.5795 254.778 91.5795C255.047 91.5795 255.301 91.6231 255.54 91.7102C255.78 91.7955 255.992 91.928 256.176 92.108C256.362 92.2879 256.507 92.517 256.614 92.7955C256.72 93.072 256.773 93.4015 256.773 93.7841V94.0994H253.196V93.4062H255.787C255.785 93.2093 255.742 93.0341 255.659 92.8807C255.576 92.7254 255.459 92.6032 255.31 92.5142C255.162 92.4252 254.989 92.3807 254.793 92.3807C254.582 92.3807 254.398 92.4318 254.239 92.5341C254.079 92.6345 253.955 92.767 253.866 92.9318C253.779 93.0947 253.735 93.2737 253.733 93.4688V94.0739C253.733 94.3277 253.779 94.5455 253.872 94.7273C253.965 94.9072 254.095 95.0455 254.261 95.142C254.428 95.2367 254.623 95.2841 254.847 95.2841C254.996 95.2841 255.132 95.2633 255.253 95.2216C255.374 95.178 255.479 95.1146 255.568 95.0312C255.657 94.9479 255.724 94.8447 255.77 94.7216L256.73 94.8295C256.669 95.0833 256.554 95.3049 256.383 95.4943C256.215 95.6818 255.999 95.8277 255.736 95.9318C255.472 96.0341 255.171 96.0852 254.832 96.0852ZM258.671 90.1818V96H257.643V90.1818H258.671ZM259.729 96V91.6364H260.757V96H259.729ZM260.246 91.017C260.083 91.017 259.943 90.9631 259.825 90.8551C259.708 90.7453 259.649 90.6136 259.649 90.4602C259.649 90.3049 259.708 90.1733 259.825 90.0653C259.943 89.9555 260.083 89.9006 260.246 89.9006C260.41 89.9006 260.551 89.9555 260.666 90.0653C260.784 90.1733 260.842 90.3049 260.842 90.4602C260.842 90.6136 260.784 90.7453 260.666 90.8551C260.551 90.9631 260.41 91.017 260.246 91.017ZM265.712 91.6364L264.158 96H263.022L261.468 91.6364H262.565L263.567 94.8778H263.613L264.619 91.6364H265.712ZM268.207 96.0852C267.77 96.0852 267.392 95.9943 267.074 95.8125C266.757 95.6288 266.514 95.3693 266.344 95.0341C266.173 94.697 266.088 94.3002 266.088 93.8438C266.088 93.3949 266.173 93.0009 266.344 92.6619C266.516 92.321 266.757 92.0559 267.065 91.8665C267.374 91.6752 267.737 91.5795 268.153 91.5795C268.422 91.5795 268.676 91.6231 268.915 91.7102C269.155 91.7955 269.367 91.928 269.551 92.108C269.737 92.2879 269.882 92.517 269.989 92.7955C270.095 93.072 270.148 93.4015 270.148 93.7841V94.0994H266.571V93.4062H269.162C269.16 93.2093 269.117 93.0341 269.034 92.8807C268.951 92.7254 268.834 92.6032 268.685 92.5142C268.537 92.4252 268.364 92.3807 268.168 92.3807C267.957 92.3807 267.773 92.4318 267.614 92.5341C267.454 92.6345 267.33 92.767 267.241 92.9318C267.154 93.0947 267.11 93.2737 267.108 93.4688V94.0739C267.108 94.3277 267.154 94.5455 267.247 94.7273C267.34 94.9072 267.47 95.0455 267.636 95.142C267.803 95.2367 267.998 95.2841 268.222 95.2841C268.371 95.2841 268.507 95.2633 268.628 95.2216C268.749 95.178 268.854 95.1146 268.943 95.0312C269.032 94.9479 269.099 94.8447 269.145 94.7216L270.105 94.8295C270.044 95.0833 269.929 95.3049 269.758 95.4943C269.59 95.6818 269.374 95.8277 269.111 95.9318C268.847 96.0341 268.546 96.0852 268.207 96.0852ZM271.018 96V91.6364H272.015V92.3636H272.06C272.14 92.1117 272.276 91.9176 272.469 91.7812C272.664 91.643 272.887 91.5739 273.137 91.5739C273.194 91.5739 273.257 91.5767 273.327 91.5824C273.399 91.5862 273.459 91.5928 273.506 91.6023V92.5483C273.463 92.5331 273.394 92.5199 273.299 92.5085C273.206 92.4953 273.116 92.4886 273.029 92.4886C272.842 92.4886 272.673 92.5294 272.523 92.6108C272.376 92.6903 272.259 92.8011 272.174 92.9432C272.089 93.0852 272.046 93.2491 272.046 93.4347V96H271.018ZM275.942 96.0852C275.504 96.0852 275.126 95.9943 274.808 95.8125C274.492 95.6288 274.248 95.3693 274.078 95.0341C273.908 94.697 273.822 94.3002 273.822 93.8438C273.822 93.3949 273.908 93.0009 274.078 92.6619C274.25 92.321 274.491 92.0559 274.8 91.8665C275.108 91.6752 275.471 91.5795 275.888 91.5795C276.157 91.5795 276.41 91.6231 276.649 91.7102C276.89 91.7955 277.102 91.928 277.285 92.108C277.471 92.2879 277.617 92.517 277.723 92.7955C277.829 93.072 277.882 93.4015 277.882 93.7841V94.0994H274.305V93.4062H276.896C276.894 93.2093 276.852 93.0341 276.768 92.8807C276.685 92.7254 276.569 92.6032 276.419 92.5142C276.271 92.4252 276.099 92.3807 275.902 92.3807C275.692 92.3807 275.507 92.4318 275.348 92.5341C275.189 92.6345 275.065 92.767 274.976 92.9318C274.889 93.0947 274.844 93.2737 274.842 93.4688V94.0739C274.842 94.3277 274.889 94.5455 274.981 94.7273C275.074 94.9072 275.204 95.0455 275.371 95.142C275.537 95.2367 275.732 95.2841 275.956 95.2841C276.105 95.2841 276.241 95.2633 276.362 95.2216C276.483 95.178 276.588 95.1146 276.677 95.0312C276.766 94.9479 276.834 94.8447 276.879 94.7216L277.839 94.8295C277.779 95.0833 277.663 95.3049 277.493 95.4943C277.324 95.6818 277.108 95.8277 276.845 95.9318C276.582 96.0341 276.281 96.0852 275.942 96.0852ZM280.371 96.0767C280.029 96.0767 279.722 95.9886 279.451 95.8125C279.18 95.6364 278.966 95.3807 278.809 95.0455C278.652 94.7102 278.573 94.303 278.573 93.8239C278.573 93.339 278.653 92.9299 278.812 92.5966C278.973 92.2614 279.19 92.0085 279.462 91.8381C279.735 91.6657 280.039 91.5795 280.374 91.5795C280.63 91.5795 280.84 91.6231 281.005 91.7102C281.17 91.7955 281.3 91.8987 281.397 92.0199C281.494 92.1392 281.568 92.2519 281.621 92.358H281.664V90.1818H282.695V96H281.684V95.3125H281.621C281.568 95.4186 281.492 95.5312 281.391 95.6506C281.291 95.768 281.158 95.8684 280.994 95.9517C280.829 96.035 280.621 96.0767 280.371 96.0767ZM280.658 95.233C280.876 95.233 281.062 95.1742 281.215 95.0568C281.369 94.9375 281.485 94.7718 281.565 94.5597C281.644 94.3475 281.684 94.1004 281.684 93.8182C281.684 93.536 281.644 93.2907 281.565 93.0824C281.487 92.8741 281.371 92.7121 281.218 92.5966C281.066 92.4811 280.88 92.4233 280.658 92.4233C280.429 92.4233 280.238 92.483 280.084 92.6023C279.931 92.7216 279.815 92.8864 279.738 93.0966C279.66 93.3068 279.621 93.5473 279.621 93.8182C279.621 94.0909 279.66 94.3343 279.738 94.5483C279.817 94.7604 279.934 94.928 280.087 95.0511C280.243 95.1723 280.433 95.233 280.658 95.233Z" fill="#344054"/>
<rect x="246.575" y="104" width="52" height="5" rx="2.5" fill="#EAECF0"/>
<rect x="246.575" y="113" width="34" height="5" rx="2.5" fill="#EAECF0"/>
<g filter="url(#filter1_d_488_957)">
<rect x="4" y="21" width="159.292" height="25.8333" rx="4" fill="white" shape-rendering="crispEdges"/>
<rect x="4.5" y="21.5" width="158.292" height="24.8333" rx="3.5" stroke="#F3F4F6" shape-rendering="crispEdges"/>
<path d="M10.7173 37.9167V30.6439H13.4446C14.0033 30.6439 14.4721 30.7481 14.8509 30.9564C15.232 31.1648 15.5196 31.4512 15.7138 31.8158C15.9103 32.178 16.0085 32.59 16.0085 33.0516C16.0085 33.518 15.9103 33.9323 15.7138 34.2945C15.5173 34.6567 15.2273 34.942 14.8438 35.1503C14.4602 35.3563 13.9879 35.4593 13.4268 35.4593H11.6193V34.3762H13.2493C13.576 34.3762 13.8435 34.3194 14.0518 34.2057C14.2602 34.0921 14.4141 33.9358 14.5135 33.737C14.6153 33.5381 14.6662 33.3096 14.6662 33.0516C14.6662 32.7936 14.6153 32.5663 14.5135 32.3698C14.4141 32.1733 14.259 32.0206 14.0483 31.9117C13.84 31.8004 13.5713 31.7448 13.2422 31.7448H12.0348V37.9167H10.7173ZM18.568 38.0267C18.2224 38.0267 17.911 37.9652 17.6341 37.8421C17.3594 37.7166 17.1416 37.532 16.9806 37.2881C16.822 37.0443 16.7427 36.7436 16.7427 36.3861C16.7427 36.0784 16.7995 35.8239 16.9132 35.6226C17.0268 35.4214 17.1819 35.2604 17.3784 35.1397C17.5749 35.0189 17.7962 34.9278 18.0424 34.8662C18.291 34.8023 18.5479 34.7561 18.813 34.7277C19.1326 34.6946 19.3919 34.665 19.5907 34.639C19.7896 34.6105 19.934 34.5679 20.024 34.5111C20.1163 34.4519 20.1625 34.3608 20.1625 34.2377V34.2164C20.1625 33.9489 20.0832 33.7417 19.9245 33.5949C19.7659 33.4481 19.5375 33.3748 19.2392 33.3748C18.9243 33.3748 18.6745 33.4434 18.4899 33.5807C18.3076 33.718 18.1845 33.8802 18.1206 34.0672L16.9203 33.8968C17.015 33.5653 17.1712 33.2883 17.389 33.0658C17.6068 32.8409 17.8732 32.6728 18.188 32.5615C18.5029 32.4479 18.8509 32.3911 19.2321 32.3911C19.4949 32.3911 19.7565 32.4219 20.0169 32.4834C20.2773 32.545 20.5152 32.6468 20.7306 32.7888C20.9461 32.9285 21.1189 33.1191 21.2491 33.3605C21.3817 33.602 21.448 33.9039 21.448 34.2661V37.9167H20.2122V37.1674H20.1696C20.0914 37.3189 19.9814 37.4609 19.8393 37.5935C19.6996 37.7237 19.5233 37.8291 19.3102 37.9096C19.0995 37.9877 18.8521 38.0267 18.568 38.0267ZM18.9018 37.0821C19.1599 37.0821 19.3836 37.0312 19.573 36.9294C19.7624 36.8253 19.908 36.688 20.0098 36.5175C20.1139 36.3471 20.166 36.1612 20.166 35.96V35.3172C20.1258 35.3504 20.0571 35.3811 19.96 35.4096C19.8654 35.438 19.7588 35.4628 19.6404 35.4841C19.5221 35.5054 19.4049 35.5244 19.2889 35.5409C19.1729 35.5575 19.0723 35.5717 18.987 35.5836C18.7953 35.6096 18.6236 35.6522 18.4721 35.7114C18.3206 35.7706 18.2011 35.8534 18.1135 35.96C18.0259 36.0641 17.9821 36.1991 17.9821 36.3648C17.9821 36.6016 18.0685 36.7803 18.2413 36.901C18.4141 37.0218 18.6343 37.0821 18.9018 37.0821ZM25.1199 38.0232C24.5753 38.0232 24.1078 37.9036 23.7172 37.6645C23.3289 37.4254 23.0294 37.0952 22.8187 36.6738C22.6104 36.25 22.5062 35.7623 22.5062 35.2107C22.5062 34.6567 22.6127 34.1678 22.8258 33.7441C23.0389 33.3179 23.3395 32.9865 23.7278 32.7498C24.1184 32.5106 24.5801 32.3911 25.1127 32.3911C25.5555 32.3911 25.9473 32.4728 26.2882 32.6361C26.6315 32.7971 26.9049 33.0256 27.1085 33.3215C27.3121 33.615 27.4281 33.9583 27.4565 34.3513H26.2278C26.1781 34.0885 26.0597 33.8695 25.8727 33.6944C25.688 33.5168 25.4406 33.428 25.1305 33.428C24.8677 33.428 24.6369 33.499 24.438 33.6411C24.2392 33.7808 24.0841 33.982 23.9728 34.2448C23.8639 34.5076 23.8095 34.8224 23.8095 35.1894C23.8095 35.5611 23.8639 35.8807 23.9728 36.1482C24.0817 36.4133 24.2344 36.6181 24.4309 36.7625C24.6298 36.9046 24.863 36.9756 25.1305 36.9756C25.3199 36.9756 25.4892 36.9401 25.6383 36.8691C25.7898 36.7957 25.9165 36.6903 26.0183 36.553C26.1201 36.4157 26.1899 36.2488 26.2278 36.0523H27.4565C27.4257 36.4382 27.3121 36.7803 27.1156 37.0786C26.9191 37.3745 26.6516 37.6065 26.313 37.7746C25.9745 37.9403 25.5768 38.0232 25.1199 38.0232ZM29.6839 36.205L29.6804 34.6532H29.8864L31.8466 32.4621H33.3487L30.9375 35.1468H30.6712L29.6839 36.205ZM28.5121 37.9167V30.6439H29.7976V37.9167H28.5121ZM31.9354 37.9167L30.1598 35.4344L31.0263 34.5289L33.473 37.9167H31.9354ZM35.775 38.0267C35.4294 38.0267 35.1181 37.9652 34.8411 37.8421C34.5665 37.7166 34.3487 37.532 34.1877 37.2881C34.0291 37.0443 33.9498 36.7436 33.9498 36.3861C33.9498 36.0784 34.0066 35.8239 34.1202 35.6226C34.2338 35.4214 34.3889 35.2604 34.5854 35.1397C34.7819 35.0189 35.0033 34.9278 35.2495 34.8662C35.498 34.8023 35.7549 34.7561 36.0201 34.7277C36.3397 34.6946 36.5989 34.665 36.7978 34.639C36.9966 34.6105 37.141 34.5679 37.231 34.5111C37.3233 34.4519 37.3695 34.3608 37.3695 34.2377V34.2164C37.3695 33.9489 37.2902 33.7417 37.1316 33.5949C36.973 33.4481 36.7445 33.3748 36.4462 33.3748C36.1313 33.3748 35.8816 33.4434 35.6969 33.5807C35.5146 33.718 35.3915 33.8802 35.3276 34.0672L34.1273 33.8968C34.222 33.5653 34.3783 33.2883 34.5961 33.0658C34.8139 32.8409 35.0802 32.6728 35.3951 32.5615C35.7099 32.4479 36.0579 32.3911 36.4391 32.3911C36.7019 32.3911 36.9635 32.4219 37.2239 32.4834C37.4843 32.545 37.7222 32.6468 37.9377 32.7888C38.1531 32.9285 38.3259 33.1191 38.4561 33.3605C38.5887 33.602 38.655 33.9039 38.655 34.2661V37.9167H37.4192V37.1674H37.3766C37.2985 37.3189 37.1884 37.4609 37.0463 37.5935C36.9067 37.7237 36.7303 37.8291 36.5172 37.9096C36.3065 37.9877 36.0591 38.0267 35.775 38.0267ZM36.1088 37.0821C36.3669 37.0821 36.5906 37.0312 36.78 36.9294C36.9694 36.8253 37.115 36.688 37.2168 36.5175C37.321 36.3471 37.373 36.1612 37.373 35.96V35.3172C37.3328 35.3504 37.2641 35.3811 37.1671 35.4096C37.0724 35.438 36.9658 35.4628 36.8475 35.4841C36.7291 35.5054 36.6119 35.5244 36.4959 35.5409C36.3799 35.5575 36.2793 35.5717 36.1941 35.5836C36.0023 35.6096 35.8307 35.6522 35.6792 35.7114C35.5276 35.7706 35.4081 35.8534 35.3205 35.96C35.2329 36.0641 35.1891 36.1991 35.1891 36.3648C35.1891 36.6016 35.2755 36.7803 35.4483 36.901C35.6212 37.0218 35.8413 37.0821 36.1088 37.0821ZM42.3198 40.0757C41.8581 40.0757 41.4616 40.013 41.1301 39.8875C40.7987 39.7644 40.5324 39.5987 40.3311 39.3904C40.1299 39.182 39.9902 38.9512 39.9121 38.6979L41.0698 38.4174C41.1219 38.5239 41.1976 38.6293 41.2971 38.7334C41.3965 38.84 41.5302 38.9275 41.6983 38.9962C41.8688 39.0672 42.083 39.1027 42.3411 39.1027C42.7057 39.1027 43.0075 39.014 43.2466 38.8364C43.4857 38.6612 43.6053 38.3724 43.6053 37.9699V36.9365H43.5414C43.4751 37.0691 43.378 37.2052 43.2502 37.3449C43.1247 37.4846 42.9578 37.6018 42.7495 37.6965C42.5435 37.7912 42.2843 37.8385 41.9718 37.8385C41.5527 37.8385 41.1728 37.7403 40.8319 37.5438C40.4933 37.3449 40.2234 37.049 40.0222 36.656C39.8233 36.2606 39.7239 35.7659 39.7239 35.1716C39.7239 34.5727 39.8233 34.0672 40.0222 33.6553C40.2234 33.241 40.4945 32.9273 40.8354 32.7142C41.1763 32.4988 41.5563 32.3911 41.9753 32.3911C42.2949 32.3911 42.5577 32.4455 42.7637 32.5544C42.972 32.661 43.1377 32.79 43.2608 32.9415C43.3839 33.0907 43.4775 33.2315 43.5414 33.3641H43.6124V32.4621H44.8801V38.0054C44.8801 38.4718 44.7689 38.8577 44.5463 39.1631C44.3238 39.4685 44.0196 39.697 43.6337 39.8485C43.2478 40 42.8098 40.0757 42.3198 40.0757ZM42.3304 36.83C42.6027 36.83 42.8347 36.7637 43.0265 36.6311C43.2182 36.4986 43.3638 36.308 43.4632 36.0594C43.5627 35.8108 43.6124 35.5125 43.6124 35.1645C43.6124 34.8212 43.5627 34.5206 43.4632 34.2625C43.3662 34.0045 43.2218 33.8044 43.03 33.6624C42.8406 33.518 42.6074 33.4458 42.3304 33.4458C42.044 33.4458 41.8049 33.5203 41.6131 33.6695C41.4213 33.8186 41.2769 34.0234 41.1799 34.2838C41.0828 34.5419 41.0343 34.8355 41.0343 35.1645C41.0343 35.4983 41.0828 35.7907 41.1799 36.0417C41.2793 36.2902 41.4249 36.4844 41.6167 36.624C41.8108 36.7614 42.0487 36.83 42.3304 36.83ZM48.6124 38.0232C48.0655 38.0232 47.5932 37.9096 47.1955 37.6823C46.8001 37.4526 46.4959 37.1283 46.2828 36.7093C46.0698 36.2879 45.9632 35.7919 45.9632 35.2213C45.9632 34.6603 46.0698 34.1678 46.2828 33.7441C46.4983 33.3179 46.7989 32.9865 47.1848 32.7498C47.5707 32.5106 48.0241 32.3911 48.5449 32.3911C48.8811 32.3911 49.1983 32.4455 49.4966 32.5544C49.7973 32.661 50.0624 32.8267 50.2921 33.0516C50.5241 33.2765 50.7064 33.563 50.839 33.911C50.9715 34.2566 51.0378 34.6686 51.0378 35.1468V35.5409H46.5669V34.6745H49.8056C49.8032 34.4283 49.7499 34.2093 49.6458 34.0175C49.5416 33.8234 49.396 33.6707 49.209 33.5594C49.0243 33.4481 48.8089 33.3925 48.5627 33.3925C48.2999 33.3925 48.0691 33.4564 47.8702 33.5843C47.6713 33.7097 47.5163 33.8755 47.405 34.0814C47.2961 34.285 47.2405 34.5087 47.2381 34.7526V35.509C47.2381 35.8262 47.2961 36.0985 47.4121 36.3257C47.5281 36.5507 47.6903 36.7235 47.8986 36.8442C48.1069 36.9626 48.3508 37.0218 48.6301 37.0218C48.8172 37.0218 48.9864 36.9957 49.138 36.9436C49.2895 36.8892 49.4209 36.8099 49.5321 36.7057C49.6434 36.6016 49.7275 36.4725 49.7843 36.3186L50.9846 36.4536C50.9088 36.7708 50.7644 37.0478 50.5513 37.2846C50.3406 37.5189 50.0707 37.7012 49.7417 37.8314C49.4126 37.9593 49.0362 38.0232 48.6124 38.0232ZM58.6151 32.6432C58.5819 32.3331 58.4422 32.0916 58.196 31.9188C57.9522 31.746 57.6349 31.6596 57.2443 31.6596C56.9697 31.6596 56.7341 31.701 56.5376 31.7838C56.3411 31.8667 56.1908 31.9792 56.0866 32.1212C55.9825 32.2632 55.9292 32.4254 55.9268 32.6077C55.9268 32.7592 55.9612 32.8906 56.0298 33.0019C56.1009 33.1132 56.1967 33.2078 56.3175 33.286C56.4382 33.3617 56.572 33.4257 56.7188 33.4777C56.8655 33.5298 57.0135 33.5736 57.1626 33.6091L57.8445 33.7796C58.1191 33.8435 58.383 33.9299 58.6364 34.0388C58.892 34.1477 59.1205 34.285 59.3217 34.4507C59.5253 34.6165 59.6863 34.8165 59.8047 35.0509C59.9231 35.2853 59.9822 35.5599 59.9822 35.8748C59.9822 36.3009 59.8733 36.6761 59.6555 37.0005C59.4377 37.3224 59.1229 37.5746 58.7109 37.7569C58.3014 37.9368 57.8054 38.0267 57.223 38.0267C56.6572 38.0267 56.166 37.9391 55.7493 37.764C55.335 37.5888 55.0107 37.3331 54.7763 36.9969C54.5443 36.6607 54.4188 36.2512 54.3999 35.7682H55.696C55.715 36.0215 55.7931 36.2322 55.9304 36.4003C56.0677 36.5684 56.2464 36.6939 56.4666 36.7767C56.6892 36.8596 56.9377 36.901 57.2124 36.901C57.4988 36.901 57.7498 36.8584 57.9652 36.7732C58.183 36.6856 58.3535 36.5649 58.4766 36.411C58.5997 36.2547 58.6624 36.0724 58.6648 35.8641C58.6624 35.6747 58.6068 35.5185 58.4979 35.3953C58.389 35.2699 58.2363 35.1657 58.0398 35.0828C57.8456 34.9976 57.6184 34.9219 57.358 34.8556L56.5305 34.6425C55.9316 34.4886 55.4581 34.2554 55.1101 33.9429C54.7644 33.6281 54.5916 33.2102 54.5916 32.6894C54.5916 32.2609 54.7076 31.8856 54.9396 31.5637C55.174 31.2417 55.4924 30.9919 55.8949 30.8144C56.2973 30.6345 56.7531 30.5445 57.2621 30.5445C57.7782 30.5445 58.2304 30.6345 58.6186 30.8144C59.0092 30.9919 59.3158 31.2393 59.5384 31.5566C59.7609 31.8714 59.8757 32.2337 59.8828 32.6432H58.6151ZM63.8237 32.4621V33.4564H60.688V32.4621H63.8237ZM61.4622 31.1553H62.7477V36.276C62.7477 36.4489 62.7737 36.5814 62.8258 36.6738C62.8803 36.7637 62.9513 36.8253 63.0389 36.8584C63.1265 36.8916 63.2235 36.9081 63.3301 36.9081C63.4106 36.9081 63.484 36.9022 63.5502 36.8904C63.6189 36.8785 63.671 36.8679 63.7065 36.8584L63.9231 37.8634C63.8545 37.8871 63.7562 37.9131 63.6284 37.9415C63.5029 37.9699 63.349 37.9865 63.1667 37.9912C62.8448 38.0007 62.5547 37.9522 62.2967 37.8456C62.0386 37.7367 61.8339 37.5686 61.6824 37.3414C61.5332 37.1141 61.4598 36.83 61.4622 36.4891V31.1553ZM66.4684 38.0267C66.1228 38.0267 65.8114 37.9652 65.5344 37.8421C65.2598 37.7166 65.042 37.532 64.881 37.2881C64.7224 37.0443 64.6431 36.7436 64.6431 36.3861C64.6431 36.0784 64.6999 35.8239 64.8136 35.6226C64.9272 35.4214 65.0823 35.2604 65.2788 35.1397C65.4753 35.0189 65.6966 34.9278 65.9428 34.8662C66.1914 34.8023 66.4483 34.7561 66.7134 34.7277C67.033 34.6946 67.2923 34.665 67.4911 34.639C67.69 34.6105 67.8344 34.5679 67.9244 34.5111C68.0167 34.4519 68.0629 34.3608 68.0629 34.2377V34.2164C68.0629 33.9489 67.9835 33.7417 67.8249 33.5949C67.6663 33.4481 67.4379 33.3748 67.1396 33.3748C66.8247 33.3748 66.5749 33.4434 66.3903 33.5807C66.208 33.718 66.0849 33.8802 66.021 34.0672L64.8207 33.8968C64.9154 33.5653 65.0716 33.2883 65.2894 33.0658C65.5072 32.8409 65.7736 32.6728 66.0884 32.5615C66.4033 32.4479 66.7513 32.3911 67.1325 32.3911C67.3952 32.3911 67.6568 32.4219 67.9173 32.4834C68.1777 32.545 68.4156 32.6468 68.631 32.7888C68.8465 32.9285 69.0193 33.1191 69.1495 33.3605C69.2821 33.602 69.3484 33.9039 69.3484 34.2661V37.9167H68.1126V37.1674H68.07C67.9918 37.3189 67.8817 37.4609 67.7397 37.5935C67.6 37.7237 67.4237 37.8291 67.2106 37.9096C66.9999 37.9877 66.7525 38.0267 66.4684 38.0267ZM66.8022 37.0821C67.0603 37.0821 67.284 37.0312 67.4734 36.9294C67.6628 36.8253 67.8084 36.688 67.9102 36.5175C68.0143 36.3471 68.0664 36.1612 68.0664 35.96V35.3172C68.0262 35.3504 67.9575 35.3811 67.8604 35.4096C67.7657 35.438 67.6592 35.4628 67.5408 35.4841C67.4225 35.5054 67.3053 35.5244 67.1893 35.5409C67.0733 35.5575 66.9727 35.5717 66.8874 35.5836C66.6957 35.6096 66.524 35.6522 66.3725 35.7114C66.221 35.7706 66.1014 35.8534 66.0138 35.96C65.9263 36.0641 65.8825 36.1991 65.8825 36.3648C65.8825 36.6016 65.9689 36.7803 66.1417 36.901C66.3145 37.0218 66.5347 37.0821 66.8022 37.0821ZM73.3647 32.4621V33.4564H70.229V32.4621H73.3647ZM71.0032 31.1553H72.2887V36.276C72.2887 36.4489 72.3147 36.5814 72.3668 36.6738C72.4213 36.7637 72.4923 36.8253 72.5799 36.8584C72.6675 36.8916 72.7646 36.9081 72.8711 36.9081C72.9516 36.9081 73.025 36.9022 73.0913 36.8904C73.1599 36.8785 73.212 36.8679 73.2475 36.8584L73.4641 37.8634C73.3955 37.8871 73.2972 37.9131 73.1694 37.9415C73.0439 37.9699 72.89 37.9865 72.7077 37.9912C72.3858 38.0007 72.0958 37.9522 71.8377 37.8456C71.5797 37.7367 71.3749 37.5686 71.2234 37.3414C71.0742 37.1141 71.0008 36.83 71.0032 36.4891V31.1553ZM77.9164 35.6226V32.4621H79.2019V37.9167H77.9554V36.9472H77.8986C77.7755 37.2526 77.5731 37.5024 77.2914 37.6965C77.012 37.8906 76.6676 37.9877 76.258 37.9877C75.9005 37.9877 75.5845 37.9084 75.3098 37.7498C75.0376 37.5888 74.8245 37.3556 74.6706 37.0502C74.5167 36.7424 74.4398 36.3707 74.4398 35.9351V32.4621H75.7253V35.7363C75.7253 36.0819 75.82 36.3565 76.0094 36.5601C76.1988 36.7637 76.4474 36.8655 76.7551 36.8655C76.9445 36.8655 77.128 36.8194 77.3056 36.727C77.4831 36.6347 77.6287 36.4974 77.7424 36.3151C77.8584 36.1304 77.9164 35.8996 77.9164 35.6226ZM84.8349 33.9039L83.663 34.0317C83.6299 33.9133 83.5719 33.8021 83.489 33.6979C83.4085 33.5937 83.2996 33.5097 83.1623 33.4458C83.025 33.3819 82.8569 33.3499 82.658 33.3499C82.3905 33.3499 82.1656 33.4079 81.9833 33.5239C81.8034 33.6399 81.7146 33.7902 81.717 33.9749C81.7146 34.1335 81.7726 34.2625 81.891 34.362C82.0117 34.4614 82.2106 34.5431 82.4876 34.607L83.418 34.8059C83.9341 34.9171 84.3176 35.0935 84.5685 35.335C84.8219 35.5765 84.9497 35.8925 84.9521 36.2831C84.9497 36.6264 84.8491 36.9294 84.6502 37.1922C84.4537 37.4526 84.1803 37.6562 83.8299 37.803C83.4795 37.9498 83.0771 38.0232 82.6225 38.0232C81.9549 38.0232 81.4175 37.8835 81.0103 37.6042C80.6031 37.3224 80.3604 36.9306 80.2823 36.4287L81.5359 36.308C81.5927 36.5542 81.7134 36.74 81.8981 36.8655C82.0827 36.991 82.323 37.0537 82.619 37.0537C82.9244 37.0537 83.1694 36.991 83.354 36.8655C83.5411 36.74 83.6346 36.585 83.6346 36.4003C83.6346 36.2441 83.5742 36.115 83.4535 36.0132C83.3351 35.9114 83.1504 35.8333 82.8995 35.7789L81.9691 35.5836C81.4459 35.4747 81.0588 35.2912 80.8079 35.0331C80.5569 34.7727 80.4326 34.4436 80.435 34.0459C80.4326 33.7097 80.5238 33.4186 80.7085 33.1723C80.8955 32.9238 81.1547 32.732 81.4862 32.5971C81.82 32.4597 82.2047 32.3911 82.6403 32.3911C83.2795 32.3911 83.7826 32.5272 84.1495 32.7995C84.5188 33.0717 84.7473 33.4399 84.8349 33.9039Z" fill="#101828"/>
<g style="mix-blend-mode:multiply">
<rect x="96" y="25" width="61.2917" height="17.8333" rx="8.91667" fill="#D3F8DF"/>
<path d="M105.001 35.4167L106.001 35.75C106.001 35.75 108.501 35.25 108.834 35.25C109.167 35.25 109.167 35.5833 108.834 35.9167C108.501 36.25 107.334 37.25 106.334 37.25C105.334 37.25 104.667 36.75 104.001 36.75C103.334 36.75 102.334 36.75 102.334 36.75" stroke="#12B76A" stroke-width="0.85" stroke-linecap="round" stroke-linejoin="round"/>
<path d="M102.334 34.75C102.667 34.4167 103.334 33.9167 104.001 33.9167C104.667 33.9167 106.251 34.5833 106.501 34.9167C106.751 35.25 106.001 35.75 106.001 35.75" stroke="#12B76A" stroke-width="0.85" stroke-linecap="round" stroke-linejoin="round"/>
<path d="M104.334 32.9167V31.5833C104.334 31.3992 104.483 31.25 104.667 31.25H108.667C108.851 31.25 109.001 31.3992 109.001 31.5833V34.25" stroke="#12B76A" stroke-width="0.85" stroke-linecap="round" stroke-linejoin="round"/>
<path d="M107.501 31.25H105.834V32.75H107.501V31.25Z" stroke="#12B76A" stroke-width="0.85" stroke-linecap="round" stroke-linejoin="round"/>
<path d="M116.157 36.4167H114.273V30.5985H116.216C116.786 30.5985 117.276 30.715 117.685 30.9479C118.094 31.179 118.407 31.5114 118.625 31.9451C118.845 32.3769 118.955 32.8949 118.955 33.499C118.955 34.1051 118.844 34.6259 118.622 35.0615C118.403 35.4971 118.085 35.8324 117.668 36.0672C117.251 36.3002 116.747 36.4167 116.157 36.4167ZM115.151 35.6496H116.108C116.551 35.6496 116.92 35.5663 117.213 35.3996C117.507 35.2311 117.727 34.9877 117.872 34.6695C118.018 34.3494 118.091 33.9593 118.091 33.499C118.091 33.0426 118.018 32.6553 117.872 32.3371C117.728 32.0189 117.514 31.7775 117.228 31.6127C116.942 31.4479 116.586 31.3655 116.162 31.3655H115.151V35.6496ZM121.859 36.5047C121.429 36.5047 121.059 36.4129 120.748 36.2292C120.439 36.0436 120.201 35.7831 120.032 35.4479C119.866 35.1108 119.782 34.7159 119.782 34.2632C119.782 33.8163 119.866 33.4223 120.032 33.0814C120.201 32.7405 120.436 32.4744 120.737 32.2831C121.04 32.0918 121.394 31.9962 121.799 31.9962C122.045 31.9962 122.284 32.0369 122.515 32.1184C122.746 32.1998 122.954 32.3276 123.137 32.5019C123.321 32.6761 123.466 32.9025 123.572 33.1809C123.678 33.4574 123.731 33.7936 123.731 34.1894V34.4905H120.262V33.8542H122.899C122.899 33.6307 122.853 33.4328 122.762 33.2604C122.671 33.0862 122.544 32.9489 122.379 32.8485C122.216 32.7481 122.025 32.6979 121.805 32.6979C121.566 32.6979 121.358 32.7566 121.18 32.874C121.004 32.9896 120.867 33.1411 120.771 33.3286C120.676 33.5142 120.629 33.7159 120.629 33.9337V34.4309C120.629 34.7225 120.68 34.9706 120.782 35.1752C120.886 35.3797 121.031 35.536 121.217 35.6439C121.402 35.75 121.619 35.803 121.867 35.803C122.028 35.803 122.175 35.7803 122.308 35.7348C122.44 35.6875 122.555 35.6174 122.652 35.5246C122.748 35.4318 122.822 35.3172 122.873 35.1809L123.677 35.3257C123.613 35.5625 123.497 35.7699 123.331 35.9479C123.166 36.124 122.958 36.2614 122.708 36.3598C122.46 36.4564 122.177 36.5047 121.859 36.5047ZM125.523 30.5985V36.4167H124.674V30.5985H125.523ZM126.666 36.4167V32.053H127.515V36.4167H126.666ZM127.095 31.3797C126.947 31.3797 126.82 31.3305 126.714 31.232C126.61 31.1316 126.558 31.0123 126.558 30.874C126.558 30.7339 126.61 30.6146 126.714 30.5161C126.82 30.4157 126.947 30.3655 127.095 30.3655C127.242 30.3655 127.368 30.4157 127.473 30.5161C127.579 30.6146 127.632 30.7339 127.632 30.874C127.632 31.0123 127.579 31.1316 127.473 31.232C127.368 31.3305 127.242 31.3797 127.095 31.3797ZM132.391 32.053L130.809 36.4167H129.899L128.314 32.053H129.226L130.331 35.411H130.377L131.479 32.053H132.391ZM134.921 36.5047C134.492 36.5047 134.121 36.4129 133.811 36.2292C133.502 36.0436 133.263 35.7831 133.095 35.4479C132.928 35.1108 132.845 34.7159 132.845 34.2632C132.845 33.8163 132.928 33.4223 133.095 33.0814C133.263 32.7405 133.498 32.4744 133.799 32.2831C134.102 32.0918 134.456 31.9962 134.862 31.9962C135.108 31.9962 135.347 32.0369 135.578 32.1184C135.809 32.1998 136.016 32.3276 136.2 32.5019C136.384 32.6761 136.528 32.9025 136.634 33.1809C136.741 33.4574 136.794 33.7936 136.794 34.1894V34.4905H133.325V33.8542H135.961C135.961 33.6307 135.916 33.4328 135.825 33.2604C135.734 33.0862 135.606 32.9489 135.441 32.8485C135.278 32.7481 135.087 32.6979 134.867 32.6979C134.629 32.6979 134.42 32.7566 134.242 32.874C134.066 32.9896 133.93 33.1411 133.833 33.3286C133.739 33.5142 133.691 33.7159 133.691 33.9337V34.4309C133.691 34.7225 133.742 34.9706 133.845 35.1752C133.949 35.3797 134.094 35.536 134.279 35.6439C134.465 35.75 134.682 35.803 134.93 35.803C135.091 35.803 135.238 35.7803 135.37 35.7348C135.503 35.6875 135.617 35.6174 135.714 35.5246C135.811 35.4318 135.884 35.3172 135.936 35.1809L136.74 35.3257C136.675 35.5625 136.56 35.7699 136.393 35.9479C136.228 36.124 136.021 36.2614 135.771 36.3598C135.523 36.4564 135.24 36.5047 134.921 36.5047ZM137.736 36.4167V32.053H138.557V32.7462H138.603C138.682 32.5114 138.822 32.3267 139.023 32.1922C139.226 32.0559 139.455 31.9877 139.71 31.9877C139.764 31.9877 139.826 31.9896 139.898 31.9934C139.972 31.9971 140.03 32.0019 140.071 32.0076V32.8201C140.037 32.8106 139.977 32.8002 139.889 32.7888C139.802 32.7756 139.715 32.7689 139.628 32.7689C139.427 32.7689 139.248 32.8115 139.091 32.8968C138.936 32.9801 138.813 33.0966 138.722 33.2462C138.631 33.3939 138.585 33.5625 138.585 33.7519V36.4167H137.736ZM142.531 36.5047C142.101 36.5047 141.731 36.4129 141.42 36.2292C141.111 36.0436 140.873 35.7831 140.704 35.4479C140.537 35.1108 140.454 34.7159 140.454 34.2632C140.454 33.8163 140.537 33.4223 140.704 33.0814C140.873 32.7405 141.108 32.4744 141.409 32.2831C141.712 32.0918 142.066 31.9962 142.471 31.9962C142.717 31.9962 142.956 32.0369 143.187 32.1184C143.418 32.1998 143.626 32.3276 143.809 32.5019C143.993 32.6761 144.138 32.9025 144.244 33.1809C144.35 33.4574 144.403 33.7936 144.403 34.1894V34.4905H140.934V33.8542H143.571C143.571 33.6307 143.525 33.4328 143.434 33.2604C143.343 33.0862 143.215 32.9489 143.051 32.8485C142.888 32.7481 142.697 32.6979 142.477 32.6979C142.238 32.6979 142.03 32.7566 141.852 32.874C141.676 32.9896 141.539 33.1411 141.443 33.3286C141.348 33.5142 141.301 33.7159 141.301 33.9337V34.4309C141.301 34.7225 141.352 34.9706 141.454 35.1752C141.558 35.3797 141.703 35.536 141.889 35.6439C142.074 35.75 142.291 35.803 142.539 35.803C142.7 35.803 142.847 35.7803 142.98 35.7348C143.112 35.6875 143.227 35.6174 143.323 35.5246C143.42 35.4318 143.494 35.3172 143.545 35.1809L144.349 35.3257C144.285 35.5625 144.169 35.7699 144.002 35.9479C143.838 36.124 143.63 36.2614 143.38 36.3598C143.132 36.4564 142.849 36.5047 142.531 36.5047ZM146.979 36.5019C146.627 36.5019 146.312 36.4119 146.036 36.232C145.761 36.0502 145.545 35.7917 145.388 35.4564C145.233 35.1193 145.155 34.715 145.155 34.2434C145.155 33.7718 145.234 33.3684 145.391 33.0331C145.55 32.6979 145.768 32.4413 146.044 32.2632C146.321 32.0852 146.634 31.9962 146.985 31.9962C147.255 31.9962 147.473 32.0417 147.638 32.1326C147.805 32.2216 147.934 32.3257 148.024 32.4451C148.117 32.5644 148.189 32.6695 148.24 32.7604H148.291V30.5985H149.141V36.4167H148.311V35.7377H148.24C148.189 35.8305 148.115 35.9365 148.019 36.0559C147.924 36.1752 147.793 36.2793 147.627 36.3684C147.46 36.4574 147.244 36.5019 146.979 36.5019ZM147.166 35.7775C147.411 35.7775 147.617 35.7131 147.786 35.5843C147.956 35.4536 148.085 35.2727 148.172 35.0417C148.261 34.8106 148.306 34.5417 148.306 34.2348C148.306 33.9318 148.262 33.6667 148.175 33.4394C148.088 33.2121 147.96 33.035 147.791 32.9081C147.623 32.7812 147.415 32.7178 147.166 32.7178C146.911 32.7178 146.698 32.7841 146.527 32.9167C146.357 33.0492 146.228 33.2301 146.141 33.4593C146.056 33.6884 146.013 33.947 146.013 34.2348C146.013 34.5265 146.057 34.7888 146.144 35.0218C146.231 35.2547 146.36 35.4394 146.53 35.5757C146.702 35.7102 146.915 35.7775 147.166 35.7775Z" fill="#027A48"/>
</g>
</g>
<g clip-path="url(#clip7_488_957)">
<path d="M275.764 39.0981C276.193 39.4764 276.756 39.7059 277.373 39.7059C277.989 39.7059 278.552 39.4764 278.981 39.0981M281.02 31.1961C281.02 30.2288 280.635 29.3012 279.951 28.6172C279.267 27.9333 278.34 27.549 277.373 27.549C276.405 27.549 275.478 27.9333 274.794 28.6172C274.11 29.3012 273.725 30.2288 273.725 31.1961C273.725 33.0744 273.252 34.3605 272.722 35.2112C272.276 35.9287 272.053 36.2875 272.061 36.3875C272.07 36.4984 272.093 36.5406 272.183 36.6069C272.263 36.6667 272.627 36.6667 273.354 36.6667H281.391C282.118 36.6667 282.482 36.6667 282.562 36.6069C282.652 36.5406 282.675 36.4984 282.684 36.3875C282.692 36.2875 282.469 35.9287 282.023 35.2112C281.493 34.3605 281.02 33.0744 281.02 31.1961Z" stroke="#667085" stroke-width="1.6" stroke-linecap="round" stroke-linejoin="round"/>
</g>
<circle cx="287.02" cy="22" r="6.5" fill="#FFBF40" stroke="#FFE08C"/>
<path d="M285.477 19.1818V25H284.423V20.2074H284.389L283.028 21.0767V20.1108L284.474 19.1818H285.477ZM286.955 25V24.2386L288.974 22.2585C289.168 22.0634 289.329 21.8902 289.457 21.7386C289.586 21.5871 289.683 21.4403 289.747 21.2983C289.812 21.1562 289.844 21.0047 289.844 20.8438C289.844 20.66 289.802 20.5028 289.719 20.3722C289.635 20.2396 289.521 20.1373 289.375 20.0653C289.229 19.9934 289.063 19.9574 288.878 19.9574C288.687 19.9574 288.519 19.9972 288.375 20.0767C288.231 20.1544 288.119 20.2652 288.04 20.4091C287.962 20.553 287.923 20.7244 287.923 20.9233H286.92C286.92 20.554 287.005 20.233 287.173 19.9602C287.342 19.6875 287.574 19.4763 287.869 19.3267C288.167 19.1771 288.508 19.1023 288.892 19.1023C289.282 19.1023 289.625 19.1752 289.92 19.321C290.216 19.4669 290.445 19.6667 290.608 19.9205C290.773 20.1742 290.855 20.464 290.855 20.7898C290.855 21.0076 290.813 21.2216 290.73 21.4318C290.647 21.642 290.5 21.875 290.29 22.1307C290.081 22.3864 289.789 22.696 289.412 23.0597L288.409 24.0795V24.1193H290.943V25H286.955Z" fill="white"/>
<defs>
<filter id="filter0_d_488_957" x="240" y="0.254913" width="74.7451" height="74.7451" filterUnits="userSpaceOnUse" color-interpolation-filters="sRGB">
<feFlood flood-opacity="0" result="BackgroundImageFix"/>
<feColorMatrix in="SourceAlpha" type="matrix" values="0 0 0 0 0 0 0 0 0 0 0 0 0 0 0 0 0 0 127 0" result="hardAlpha"/>
<feOffset dy="4"/>
<feGaussianBlur stdDeviation="12"/>
<feComposite in2="hardAlpha" operator="out"/>
<feColorMatrix type="matrix" values="0 0 0 0 0.917647 0 0 0 0 0.92549 0 0 0 0 0.941176 0 0 0 1 0"/>
<feBlend mode="normal" in2="BackgroundImageFix" result="effect1_dropShadow_488_957"/>
<feBlend mode="normal" in="SourceGraphic" in2="effect1_dropShadow_488_957" result="shape"/>
</filter>
<filter id="filter1_d_488_957" x="0" y="21" width="167.292" height="33.8333" filterUnits="userSpaceOnUse" color-interpolation-filters="sRGB">
<feFlood flood-opacity="0" result="BackgroundImageFix"/>
<feColorMatrix in="SourceAlpha" type="matrix" values="0 0 0 0 0 0 0 0 0 0 0 0 0 0 0 0 0 0 127 0" result="hardAlpha"/>
<feOffset dy="4"/>
<feGaussianBlur stdDeviation="2"/>
<feComposite in2="hardAlpha" operator="out"/>
<feColorMatrix type="matrix" values="0 0 0 0 0.952941 0 0 0 0 0.956863 0 0 0 0 0.964706 0 0 0 1 0"/>
<feBlend mode="normal" in2="BackgroundImageFix" result="effect1_dropShadow_488_957"/>
<feBlend mode="normal" in="SourceGraphic" in2="effect1_dropShadow_488_957" result="shape"/>
</filter>
<linearGradient id="paint0_linear_488_957" x1="277.373" y1="20.2549" x2="277.373" y2="47" gradientUnits="userSpaceOnUse">
<stop stop-color="white" stop-opacity="0"/>
<stop offset="1" stop-color="white"/>
</linearGradient>
<clipPath id="clip0_488_957">
<rect x="4" y="63" width="12" height="12" rx="6" fill="white"/>
</clipPath>
<clipPath id="clip1_488_957">
<rect x="84.8584" y="63" width="12" height="12" rx="6" fill="white"/>
</clipPath>
<clipPath id="clip2_488_957">
<rect width="7.2" height="7.2" fill="white" transform="translate(87.2588 65.3999)"/>
</clipPath>
<clipPath id="clip3_488_957">
<rect x="165.717" y="63" width="12" height="12" rx="6" fill="white"/>
</clipPath>
<clipPath id="clip4_488_957">
<rect width="7.2" height="7.2" fill="white" transform="translate(168.117 65.3999)"/>
</clipPath>
<clipPath id="clip5_488_957">
<rect x="246.575" y="63" width="12" height="12" rx="6" fill="white"/>
</clipPath>
<clipPath id="clip6_488_957">
<rect width="7.2" height="7.2" fill="white" transform="translate(248.976 65.4)"/>
</clipPath>
<clipPath id="clip7_488_957">
<rect width="14.5882" height="14.5882" fill="white" transform="translate(270.078 26.3333)"/>
</clipPath>
</defs>
</svg>
