<svg width="356" height="207" viewBox="0 0 356 207" fill="none" xmlns="http://www.w3.org/2000/svg">
<rect x="23.2907" y="15.2907" width="147.419" height="77.4185" rx="4.70925" fill="#F9FAFB" stroke="#F3F4F6" stroke-width="0.581498"/>
<circle cx="40.2154" cy="31.9384" r="5.23348" stroke="#111827" stroke-width="1.163"/>
<circle cx="40.2166" cy="31.9383" r="2.32599" fill="#111827"/>
<path d="M58.5517 29.7021C58.5076 29.3112 58.3259 29.0083 58.0065 28.7935C57.6871 28.576 57.2852 28.4673 56.8006 28.4673C56.4537 28.4673 56.1536 28.5223 55.9002 28.6325C55.6469 28.7398 55.4501 28.8885 55.3097 29.0785C55.172 29.2657 55.1032 29.4791 55.1032 29.7186C55.1032 29.9196 55.15 30.0931 55.2436 30.239C55.3399 30.3849 55.4652 30.5075 55.6194 30.6066C55.7763 30.7029 55.9443 30.7842 56.1233 30.8502C56.3022 30.9136 56.4743 30.9659 56.6395 31.0072L57.4655 31.2219C57.7353 31.288 58.012 31.3775 58.2956 31.4904C58.5792 31.6033 58.8422 31.752 59.0844 31.9364C59.3267 32.1209 59.5222 32.3494 59.6709 32.622C59.8223 32.8946 59.898 33.2208 59.898 33.6008C59.898 34.0799 59.7741 34.5053 59.5263 34.877C59.2813 35.2487 58.9248 35.5419 58.4567 35.7566C57.9914 35.9714 57.4283 36.0788 56.7675 36.0788C56.1343 36.0788 55.5864 35.9783 55.1238 35.7773C54.6613 35.5763 54.2992 35.2913 54.0376 34.9224C53.7761 34.5507 53.6315 34.1102 53.604 33.6008H54.8843C54.9091 33.9064 55.0082 34.1611 55.1816 34.3648C55.3578 34.5658 55.5822 34.7159 55.8548 34.815C56.1301 34.9114 56.4316 34.9596 56.7593 34.9596C57.12 34.9596 57.4407 34.9031 57.7216 34.7902C58.0051 34.6746 58.2282 34.5149 58.3906 34.3112C58.5531 34.1047 58.6343 33.8637 58.6343 33.5884C58.6343 33.3379 58.5627 33.1327 58.4195 32.973C58.2791 32.8134 58.0877 32.6812 57.8455 32.5766C57.6059 32.4719 57.3347 32.3797 57.0319 32.2999L56.0324 32.0273C55.3551 31.8428 54.8182 31.5716 54.4217 31.2137C54.028 30.8558 53.8311 30.3822 53.8311 29.793C53.8311 29.3056 53.9633 28.8803 54.2276 28.5168C54.4919 28.1534 54.8499 27.8712 55.3014 27.6702C55.7529 27.4664 56.2623 27.3646 56.8295 27.3646C57.4022 27.3646 57.9074 27.4651 58.3452 27.6661C58.7857 27.867 59.1326 28.1438 59.3859 28.4962C59.6392 28.8458 59.7714 29.2478 59.7824 29.7021H58.5517ZM62.5588 32.1718V35.9384H61.3239V27.4802H62.5422V30.6272H62.6207C62.7694 30.2858 62.9965 30.0146 63.3022 29.8136C63.6078 29.6126 64.007 29.5121 64.4998 29.5121C64.9349 29.5121 65.3148 29.6016 65.6397 29.7806C65.9674 29.9596 66.2207 30.2266 66.3996 30.5818C66.5813 30.9342 66.6722 31.3748 66.6722 31.9034V35.9384H65.4373V32.0521C65.4373 31.5868 65.3176 31.2261 65.078 30.97C64.8385 30.7112 64.5054 30.5818 64.0786 30.5818C63.7867 30.5818 63.5252 30.6438 63.2939 30.7676C63.0654 30.8915 62.885 31.0733 62.7529 31.3128C62.6235 31.5496 62.5588 31.8359 62.5588 32.1718ZM68.3201 35.9384V29.5947H69.5549V35.9384H68.3201ZM68.9437 28.6159C68.7289 28.6159 68.5445 28.5444 68.3903 28.4012C68.2388 28.2553 68.1631 28.0818 68.1631 27.8808C68.1631 27.6771 68.2388 27.5036 68.3903 27.3604C68.5445 27.2145 68.7289 27.1415 68.9437 27.1415C69.1584 27.1415 69.3415 27.2145 69.493 27.3604C69.6471 27.5036 69.7242 27.6771 69.7242 27.8808C69.7242 28.0818 69.6471 28.2553 69.493 28.4012C69.3415 28.5444 69.1584 28.6159 68.9437 28.6159ZM71.2162 38.3172V29.5947H72.4221V30.6231H72.5254C72.597 30.4909 72.7002 30.3381 72.8351 30.1647C72.97 29.9912 73.1573 29.8398 73.3968 29.7104C73.6363 29.5782 73.953 29.5121 74.3467 29.5121C74.8588 29.5121 75.3159 29.6415 75.7178 29.9004C76.1198 30.1592 76.4351 30.5322 76.6636 31.0196C76.8949 31.5069 77.0105 32.0934 77.0105 32.7789C77.0105 33.4645 76.8963 34.0523 76.6677 34.5424C76.4392 35.0298 76.1253 35.4056 75.7261 35.6699C75.3269 35.9315 74.8712 36.0623 74.3591 36.0623C73.9736 36.0623 73.6584 35.9976 73.4133 35.8681C73.171 35.7387 72.9811 35.5873 72.8434 35.4139C72.7057 35.2404 72.5997 35.0862 72.5254 34.9513H72.451V38.3172H71.2162ZM72.4263 32.7665C72.4263 33.2126 72.491 33.6036 72.6204 33.9395C72.7498 34.2754 72.937 34.5383 73.182 34.7283C73.4271 34.9155 73.7272 35.0091 74.0824 35.0091C74.4513 35.0091 74.7597 34.9114 75.0075 34.7159C75.2553 34.5176 75.4425 34.2492 75.5692 33.9105C75.6986 33.5719 75.7633 33.1906 75.7633 32.7665C75.7633 32.348 75.6999 31.9722 75.5733 31.6391C75.4494 31.3059 75.2622 31.043 75.0116 30.8502C74.7638 30.6575 74.4541 30.5612 74.0824 30.5612C73.7244 30.5612 73.4216 30.6534 73.1738 30.8379C72.9287 31.0223 72.7429 31.2798 72.6162 31.6102C72.4896 31.9406 72.4263 32.326 72.4263 32.7665ZM81.571 35.9384V27.4802H86.8161V28.5788H82.8472V31.1559H86.4402V32.2503H82.8472V35.9384H81.571ZM88.2068 35.9384V29.5947H89.4004V30.6025H89.4665C89.5821 30.261 89.7858 29.9926 90.0777 29.7971C90.3723 29.5989 90.7054 29.4998 91.0771 29.4998C91.1542 29.4998 91.2451 29.5025 91.3497 29.508C91.4571 29.5135 91.5411 29.5204 91.6017 29.5287V30.7098C91.5521 30.6961 91.464 30.6809 91.3373 30.6644C91.2107 30.6451 91.084 30.6355 90.9574 30.6355C90.6655 30.6355 90.4053 30.6974 90.1768 30.8213C89.951 30.9425 89.7721 31.1118 89.6399 31.3293C89.5078 31.5441 89.4417 31.7891 89.4417 32.0645V35.9384H88.2068ZM95.1152 36.0664C94.5205 36.0664 94.0015 35.9301 93.5582 35.6575C93.1149 35.3849 92.7708 35.0036 92.5257 34.5135C92.2807 34.0234 92.1582 33.4507 92.1582 32.7955C92.1582 32.1374 92.2807 31.562 92.5257 31.0691C92.7708 30.5763 93.1149 30.1936 93.5582 29.921C94.0015 29.6484 94.5205 29.5121 95.1152 29.5121C95.7099 29.5121 96.2289 29.6484 96.6722 29.921C97.1155 30.1936 97.4597 30.5763 97.7047 31.0691C97.9497 31.562 98.0723 32.1374 98.0723 32.7955C98.0723 33.4507 97.9497 34.0234 97.7047 34.5135C97.4597 35.0036 97.1155 35.3849 96.6722 35.6575C96.2289 35.9301 95.7099 36.0664 95.1152 36.0664ZM95.1193 35.0298C95.5048 35.0298 95.8242 34.9279 96.0775 34.7241C96.3308 34.5204 96.518 34.2492 96.6392 33.9105C96.7631 33.5719 96.825 33.1988 96.825 32.7913C96.825 32.3866 96.7631 32.0149 96.6392 31.6762C96.518 31.3348 96.3308 31.0609 96.0775 30.8544C95.8242 30.6479 95.5048 30.5446 95.1193 30.5446C94.7311 30.5446 94.409 30.6479 94.1529 30.8544C93.8996 31.0609 93.711 31.3348 93.5871 31.6762C93.466 32.0149 93.4054 32.3866 93.4054 32.7913C93.4054 33.1988 93.466 33.5719 93.5871 33.9105C93.711 34.2492 93.8996 34.5204 94.1529 34.7241C94.409 34.9279 94.7311 35.0298 95.1193 35.0298ZM99.4506 35.9384V29.5947H100.636V30.6272H100.714C100.847 30.2776 101.063 30.005 101.363 29.8095C101.663 29.6113 102.022 29.5121 102.441 29.5121C102.865 29.5121 103.22 29.6113 103.506 29.8095C103.795 30.0077 104.009 30.2803 104.146 30.6272H104.212C104.364 30.2886 104.605 30.0188 104.935 29.8178C105.266 29.614 105.659 29.5121 106.116 29.5121C106.692 29.5121 107.161 29.6925 107.525 30.0532C107.891 30.4138 108.074 30.9576 108.074 31.6845V35.9384H106.839V31.8001C106.839 31.3706 106.722 31.0595 106.488 30.8668C106.254 30.674 105.975 30.5777 105.65 30.5777C105.248 30.5777 104.935 30.7016 104.712 30.9494C104.489 31.1944 104.378 31.5097 104.378 31.8951V35.9384H103.147V31.7217C103.147 31.3775 103.04 31.1008 102.825 30.8915C102.61 30.6823 102.331 30.5777 101.986 30.5777C101.752 30.5777 101.536 30.6396 101.338 30.7635C101.143 30.8847 100.984 31.054 100.863 31.2715C100.745 31.489 100.685 31.7409 100.685 32.0273V35.9384H99.4506Z" fill="#111827"/>
<g clip-path="url(#clip0_482_698)">
<path d="M59 57C62.3137 57 65 54.3137 65 51C65 47.6863 62.3137 45 59 45C55.6863 45 53 47.6863 53 51C53 54.3137 55.6863 57 59 57Z" fill="#F0F0F0"/>
<path d="M65.0007 51C65.0007 48.6212 63.6164 46.5659 61.6094 45.5954V56.4046C63.6164 55.4341 65.0007 53.3788 65.0007 51Z" fill="#D80027"/>
<path d="M53 51C53 53.3788 54.3843 55.4341 56.3913 56.4046V45.5954C54.3843 46.5659 53 48.6212 53 51Z" fill="#D80027"/>
<path d="M60.0425 51.7827L61.086 51.2609L60.5643 51.0001V50.4783L59.5208 51.0001L60.0425 49.9566H59.5208L58.9991 49.174L58.4773 49.9566H57.9556L58.4773 51.0001L57.4338 50.4783V51.0001L56.9121 51.2609L57.9556 51.7827L57.6947 52.3044H58.7382V53.087H59.2599V52.3044H60.3034L60.0425 51.7827Z" fill="#D80027"/>
</g>
<path d="M75.733 50H74.8523C74.8002 49.7467 74.709 49.5241 74.5788 49.3324C74.451 49.1406 74.2947 48.9796 74.1101 48.8494C73.9278 48.7169 73.7254 48.6174 73.5028 48.5511C73.2803 48.4848 73.0483 48.4517 72.8068 48.4517C72.3665 48.4517 71.9676 48.563 71.6101 48.7855C71.255 49.008 70.9721 49.3359 70.7614 49.7692C70.553 50.2024 70.4489 50.7339 70.4489 51.3636C70.4489 51.9934 70.553 52.5249 70.7614 52.9581C70.9721 53.3913 71.255 53.7192 71.6101 53.9418C71.9676 54.1643 72.3665 54.2756 72.8068 54.2756C73.0483 54.2756 73.2803 54.2424 73.5028 54.1761C73.7254 54.1098 73.9278 54.0116 74.1101 53.8814C74.2947 53.7488 74.451 53.5866 74.5788 53.3949C74.709 53.2008 74.8002 52.9782 74.8523 52.7273H75.733C75.6667 53.099 75.5459 53.4316 75.3707 53.7251C75.1955 54.0187 74.9777 54.2685 74.7173 54.4744C74.4569 54.678 74.1645 54.8331 73.8402 54.9396C73.5182 55.0462 73.1738 55.0994 72.8068 55.0994C72.1866 55.0994 71.6349 54.9479 71.152 54.6449C70.669 54.3419 70.2891 53.911 70.0121 53.3523C69.7351 52.7936 69.5966 52.1307 69.5966 51.3636C69.5966 50.5966 69.7351 49.9337 70.0121 49.375C70.2891 48.8163 70.669 48.3854 71.152 48.0824C71.6349 47.7794 72.1866 47.6278 72.8068 47.6278C73.1738 47.6278 73.5182 47.6811 73.8402 47.7876C74.1645 47.8942 74.4569 48.0504 74.7173 48.2564C74.9777 48.46 75.1955 48.7086 75.3707 49.0021C75.5459 49.2933 75.6667 49.6259 75.733 50ZM78.6475 55.1278C78.3019 55.1278 77.9882 55.0627 77.7065 54.9325C77.4248 54.8 77.2011 54.6094 77.0353 54.3608C76.8696 54.1098 76.7868 53.8068 76.7868 53.4517C76.7868 53.1392 76.8483 52.8859 76.9714 52.6918C77.0945 52.4953 77.2591 52.3414 77.465 52.2301C77.671 52.1188 77.8983 52.036 78.1468 51.9815C78.3978 51.9247 78.6499 51.8797 78.9032 51.8466C79.2347 51.804 79.5034 51.772 79.7093 51.7507C79.9177 51.727 80.0692 51.688 80.1639 51.6335C80.2609 51.5791 80.3095 51.4844 80.3095 51.3494V51.321C80.3095 50.9706 80.2136 50.6984 80.0218 50.5043C79.8324 50.3101 79.5448 50.2131 79.1589 50.2131C78.7588 50.2131 78.4451 50.3007 78.2179 50.4759C77.9906 50.651 77.8308 50.8381 77.7385 51.0369L76.943 50.7528C77.085 50.4214 77.2744 50.1634 77.5112 49.9787C77.7503 49.7917 78.0107 49.6615 78.2924 49.5881C78.5765 49.5123 78.8559 49.4744 79.1305 49.4744C79.3057 49.4744 79.5069 49.4957 79.7342 49.5384C79.9638 49.5786 80.1852 49.6626 80.3983 49.7905C80.6137 49.9183 80.7924 50.1113 80.9345 50.3693C81.0765 50.6274 81.1475 50.973 81.1475 51.4062V55H80.3095V54.2614H80.2669C80.21 54.3797 80.1154 54.5064 79.9828 54.6413C79.8502 54.7763 79.6738 54.8911 79.4537 54.9858C79.2335 55.0805 78.9648 55.1278 78.6475 55.1278ZM78.7754 54.375C79.1068 54.375 79.3862 54.3099 79.6135 54.1797C79.8431 54.0495 80.0159 53.8814 80.1319 53.6754C80.2503 53.4695 80.3095 53.2528 80.3095 53.0256V52.2585C80.274 52.3011 80.1958 52.3402 80.0751 52.3757C79.9567 52.4089 79.8194 52.4384 79.6632 52.4645C79.5093 52.4882 79.359 52.5095 79.2122 52.5284C79.0678 52.545 78.9506 52.5592 78.8606 52.571C78.6428 52.5994 78.4392 52.6456 78.2498 52.7095C78.0628 52.7711 77.9113 52.8646 77.7953 52.9901C77.6816 53.1132 77.6248 53.2812 77.6248 53.4943C77.6248 53.7855 77.7325 54.0057 77.948 54.1548C78.1658 54.3016 78.4416 54.375 78.7754 54.375ZM83.5153 51.7188V55H82.6772V49.5455H83.4869V50.3977H83.5579C83.6857 50.1207 83.8799 49.8982 84.1403 49.7301C84.4007 49.5597 84.7369 49.4744 85.1488 49.4744C85.5181 49.4744 85.8413 49.5502 86.1183 49.7017C86.3952 49.8509 86.6107 50.0781 86.7646 50.3835C86.9184 50.6866 86.9954 51.0701 86.9954 51.5341V55H86.1573V51.5909C86.1573 51.1624 86.046 50.8286 85.8235 50.5895C85.601 50.348 85.2956 50.2273 84.9073 50.2273C84.6398 50.2273 84.4007 50.2853 84.19 50.4013C83.9817 50.5173 83.8171 50.6866 83.6964 50.9091C83.5756 51.1316 83.5153 51.4015 83.5153 51.7188ZM90.1319 55.1278C89.7863 55.1278 89.4726 55.0627 89.1909 54.9325C88.9092 54.8 88.6854 54.6094 88.5197 54.3608C88.354 54.1098 88.2711 53.8068 88.2711 53.4517C88.2711 53.1392 88.3327 52.8859 88.4558 52.6918C88.5789 52.4953 88.7434 52.3414 88.9494 52.2301C89.1554 52.1188 89.3826 52.036 89.6312 51.9815C89.8822 51.9247 90.1343 51.8797 90.3876 51.8466C90.719 51.804 90.9877 51.772 91.1937 51.7507C91.402 51.727 91.5536 51.688 91.6483 51.6335C91.7453 51.5791 91.7939 51.4844 91.7939 51.3494V51.321C91.7939 50.9706 91.698 50.6984 91.5062 50.5043C91.3168 50.3101 91.0292 50.2131 90.6433 50.2131C90.2432 50.2131 89.9295 50.3007 89.7022 50.4759C89.475 50.651 89.3152 50.8381 89.2228 51.0369L88.4274 50.7528C88.5694 50.4214 88.7588 50.1634 88.9956 49.9787C89.2347 49.7917 89.4951 49.6615 89.7768 49.5881C90.0609 49.5123 90.3403 49.4744 90.6149 49.4744C90.7901 49.4744 90.9913 49.4957 91.2186 49.5384C91.4482 49.5786 91.6696 49.6626 91.8826 49.7905C92.0981 49.9183 92.2768 50.1113 92.4189 50.3693C92.5609 50.6274 92.6319 50.973 92.6319 51.4062V55H91.7939V54.2614H91.7512C91.6944 54.3797 91.5997 54.5064 91.4672 54.6413C91.3346 54.7763 91.1582 54.8911 90.938 54.9858C90.7179 55.0805 90.4492 55.1278 90.1319 55.1278ZM90.2598 54.375C90.5912 54.375 90.8706 54.3099 91.0978 54.1797C91.3275 54.0495 91.5003 53.8814 91.6163 53.6754C91.7347 53.4695 91.7939 53.2528 91.7939 53.0256V52.2585C91.7583 52.3011 91.6802 52.3402 91.5595 52.3757C91.4411 52.4089 91.3038 52.4384 91.1475 52.4645C90.9937 52.4882 90.8433 52.5095 90.6966 52.5284C90.5521 52.545 90.435 52.5592 90.345 52.571C90.1272 52.5994 89.9236 52.6456 89.7342 52.7095C89.5472 52.7711 89.3957 52.8646 89.2797 52.9901C89.166 53.1132 89.1092 53.2812 89.1092 53.4943C89.1092 53.7855 89.2169 54.0057 89.4324 54.1548C89.6502 54.3016 89.926 54.375 90.2598 54.375ZM96.2212 55.1136C95.7667 55.1136 95.3654 54.9988 95.0174 54.7692C94.6694 54.5372 94.3971 54.2105 94.2006 53.7891C94.0041 53.3653 93.9059 52.8646 93.9059 52.2869C93.9059 51.714 94.0041 51.2169 94.2006 50.7955C94.3971 50.3741 94.6706 50.0485 95.021 49.8189C95.3713 49.5893 95.7762 49.4744 96.2354 49.4744C96.5906 49.4744 96.8711 49.5336 97.0771 49.652C97.2854 49.768 97.444 49.9006 97.5529 50.0497C97.6642 50.1965 97.7506 50.3172 97.8121 50.4119H97.8832V47.7273H98.7212V55H97.9116V54.1619H97.8121C97.7506 54.2614 97.663 54.3868 97.5494 54.5384C97.4357 54.6875 97.2736 54.8213 97.0629 54.9396C96.8522 55.0556 96.5716 55.1136 96.2212 55.1136ZM96.3349 54.3608C96.671 54.3608 96.9551 54.2732 97.1871 54.098C97.4192 53.9205 97.5955 53.6754 97.7163 53.3629C97.837 53.0481 97.8974 52.6847 97.8974 52.2727C97.8974 51.8655 97.8382 51.5092 97.7198 51.2038C97.6014 50.8961 97.4263 50.657 97.1942 50.4865C96.9622 50.3137 96.6758 50.2273 96.3349 50.2273C95.9798 50.2273 95.6838 50.3184 95.4471 50.5007C95.2127 50.6806 95.0363 50.9257 94.918 51.2358C94.802 51.5436 94.744 51.8892 94.744 52.2727C94.744 52.661 94.8031 53.0137 94.9215 53.331C95.0423 53.6458 95.2198 53.8968 95.4542 54.0838C95.6909 54.2685 95.9845 54.3608 96.3349 54.3608ZM101.978 55.1278C101.632 55.1278 101.318 55.0627 101.037 54.9325C100.755 54.8 100.531 54.6094 100.365 54.3608C100.2 54.1098 100.117 53.8068 100.117 53.4517C100.117 53.1392 100.178 52.8859 100.301 52.6918C100.425 52.4953 100.589 52.3414 100.795 52.2301C101.001 52.1188 101.228 52.036 101.477 51.9815C101.728 51.9247 101.98 51.8797 102.233 51.8466C102.565 51.804 102.833 51.772 103.039 51.7507C103.248 51.727 103.399 51.688 103.494 51.6335C103.591 51.5791 103.64 51.4844 103.64 51.3494V51.321C103.64 50.9706 103.544 50.6984 103.352 50.5043C103.163 50.3101 102.875 50.2131 102.489 50.2131C102.089 50.2131 101.775 50.3007 101.548 50.4759C101.321 50.651 101.161 50.8381 101.069 51.0369L100.273 50.7528C100.415 50.4214 100.605 50.1634 100.841 49.9787C101.08 49.7917 101.341 49.6615 101.623 49.5881C101.907 49.5123 102.186 49.4744 102.461 49.4744C102.636 49.4744 102.837 49.4957 103.064 49.5384C103.294 49.5786 103.515 49.6626 103.728 49.7905C103.944 49.9183 104.123 50.1113 104.265 50.3693C104.407 50.6274 104.478 50.973 104.478 51.4062V55H103.64V54.2614H103.597C103.54 54.3797 103.445 54.5064 103.313 54.6413C103.18 54.7763 103.004 54.8911 102.784 54.9858C102.564 55.0805 102.295 55.1278 101.978 55.1278ZM102.105 54.375C102.437 54.375 102.716 54.3099 102.944 54.1797C103.173 54.0495 103.346 53.8814 103.462 53.6754C103.58 53.4695 103.64 53.2528 103.64 53.0256V52.2585C103.604 52.3011 103.526 52.3402 103.405 52.3757C103.287 52.4089 103.15 52.4384 102.993 52.4645C102.839 52.4882 102.689 52.5095 102.542 52.5284C102.398 52.545 102.281 52.5592 102.191 52.571C101.973 52.5994 101.769 52.6456 101.58 52.7095C101.393 52.7711 101.241 52.8646 101.125 52.9901C101.012 53.1132 100.955 53.2812 100.955 53.4943C100.955 53.7855 101.063 54.0057 101.278 54.1548C101.496 54.3016 101.772 54.375 102.105 54.375Z" fill="#4B5563"/>
<rect x="179.291" y="15.2907" width="147.419" height="77.4185" rx="4.70925" fill="#F9FAFB" stroke="#F3F4F6" stroke-width="0.581498"/>
<g clip-path="url(#clip1_482_698)">
<path d="M194.978 32.5815C195.942 32.5815 196.723 31.8005 196.723 30.837C196.723 29.8736 195.942 29.0925 194.978 29.0925C194.015 29.0925 193.234 29.8736 193.234 30.837C193.234 31.8005 194.015 32.5815 194.978 32.5815Z" stroke="#101828" stroke-width="1.163" stroke-linecap="round" stroke-linejoin="round"/>
<path d="M194.978 37.815C197.304 35.489 199.63 33.4062 199.63 30.837C199.63 28.2678 197.547 26.185 194.978 26.185C192.409 26.185 190.326 28.2678 190.326 30.837C190.326 33.4062 192.652 35.489 194.978 37.815Z" stroke="#101828" stroke-width="1.163" stroke-linecap="round" stroke-linejoin="round"/>
</g>
<path d="M213.313 29.7638C213.269 29.3728 213.088 29.0699 212.768 28.8552C212.449 28.6377 212.047 28.5289 211.562 28.5289C211.215 28.5289 210.915 28.584 210.662 28.6941C210.409 28.8015 210.212 28.9502 210.071 29.1401C209.934 29.3274 209.865 29.5407 209.865 29.7803C209.865 29.9813 209.912 30.1547 210.005 30.3007C210.102 30.4466 210.227 30.5691 210.381 30.6682C210.538 30.7646 210.706 30.8458 210.885 30.9119C211.064 30.9752 211.236 31.0275 211.401 31.0688L212.227 31.2836C212.497 31.3497 212.774 31.4392 213.057 31.552C213.341 31.6649 213.604 31.8136 213.846 31.9981C214.088 32.1825 214.284 32.4111 214.433 32.6836C214.584 32.9562 214.66 33.2825 214.66 33.6624C214.66 34.1415 214.536 34.5669 214.288 34.9386C214.043 35.3103 213.686 35.6035 213.218 35.8183C212.753 36.033 212.19 36.1404 211.529 36.1404C210.896 36.1404 210.348 36.0399 209.886 35.8389C209.423 35.6379 209.061 35.353 208.799 34.984C208.538 34.6123 208.393 34.1718 208.366 33.6624H209.646C209.671 33.9681 209.77 34.2227 209.943 34.4265C210.12 34.6275 210.344 34.7775 210.617 34.8767C210.892 34.973 211.193 35.0212 211.521 35.0212C211.882 35.0212 212.202 34.9648 212.483 34.8519C212.767 34.7362 212.99 34.5765 213.152 34.3728C213.315 34.1663 213.396 33.9254 213.396 33.6501C213.396 33.3995 213.324 33.1944 213.181 33.0347C213.041 32.875 212.849 32.7428 212.607 32.6382C212.368 32.5336 212.096 32.4414 211.794 32.3615L210.794 32.0889C210.117 31.9045 209.58 31.6333 209.183 31.2753C208.79 30.9174 208.593 30.4438 208.593 29.8546C208.593 29.3673 208.725 28.9419 208.989 28.5785C209.254 28.215 209.612 27.9328 210.063 27.7318C210.515 27.5281 211.024 27.4262 211.591 27.4262C212.164 27.4262 212.669 27.5267 213.107 27.7277C213.547 27.9287 213.894 28.2054 214.148 28.5578C214.401 28.9075 214.533 29.3095 214.544 29.7638H213.313ZM217.32 32.2335V36H216.086V27.5418H217.304V30.6889H217.382C217.531 30.3475 217.758 30.0763 218.064 29.8753C218.369 29.6743 218.769 29.5738 219.262 29.5738C219.697 29.5738 220.077 29.6633 220.401 29.8422C220.729 30.0212 220.982 30.2883 221.161 30.6434C221.343 30.9959 221.434 31.4364 221.434 31.965V36H220.199V32.1137C220.199 31.6484 220.079 31.2877 219.84 31.0317C219.6 30.7729 219.267 30.6434 218.84 30.6434C218.548 30.6434 218.287 30.7054 218.056 30.8293C217.827 30.9532 217.647 31.1349 217.515 31.3744C217.385 31.6112 217.32 31.8976 217.32 32.2335ZM223.082 36V29.6564H224.317V36H223.082ZM223.705 28.6776C223.491 28.6776 223.306 28.606 223.152 28.4628C223.001 28.3169 222.925 28.1434 222.925 27.9425C222.925 27.7387 223.001 27.5653 223.152 27.4221C223.306 27.2762 223.491 27.2032 223.705 27.2032C223.92 27.2032 224.103 27.2762 224.255 27.4221C224.409 27.5653 224.486 27.7387 224.486 27.9425C224.486 28.1434 224.409 28.3169 224.255 28.4628C224.103 28.606 223.92 28.6776 223.705 28.6776ZM225.978 38.3789V29.6564H227.184V30.6847H227.287C227.359 30.5526 227.462 30.3998 227.597 30.2263C227.732 30.0529 227.919 29.9014 228.159 29.772C228.398 29.6399 228.715 29.5738 229.108 29.5738C229.621 29.5738 230.078 29.7032 230.48 29.962C230.882 30.2208 231.197 30.5939 231.425 31.0812C231.657 31.5686 231.772 32.155 231.772 32.8406C231.772 33.5262 231.658 34.114 231.429 34.6041C231.201 35.0914 230.887 35.4672 230.488 35.7316C230.089 35.9931 229.633 36.1239 229.121 36.1239C228.735 36.1239 228.42 36.0592 228.175 35.9298C227.933 35.8004 227.743 35.649 227.605 35.4755C227.467 35.302 227.361 35.1479 227.287 35.0129H227.213V38.3789H225.978ZM227.188 32.8282C227.188 33.2742 227.253 33.6652 227.382 34.0011C227.511 34.337 227.699 34.5999 227.944 34.7899C228.189 34.9771 228.489 35.0708 228.844 35.0708C229.213 35.0708 229.521 34.973 229.769 34.7775C230.017 34.5793 230.204 34.3108 230.331 33.9722C230.46 33.6335 230.525 33.2522 230.525 32.8282C230.525 32.4097 230.462 32.0339 230.335 31.7007C230.211 31.3676 230.024 31.1046 229.773 30.9119C229.526 30.7192 229.216 30.6228 228.844 30.6228C228.486 30.6228 228.183 30.715 227.936 30.8995C227.69 31.084 227.505 31.3414 227.378 31.6718C227.251 32.0022 227.188 32.3877 227.188 32.8282ZM235.916 28.6404V27.5418H242.462V28.6404H239.823V36H238.551V28.6404H235.916ZM245.561 36.128C244.966 36.128 244.447 35.9917 244.004 35.7192C243.561 35.4466 243.217 35.0653 242.972 34.5752C242.727 34.0851 242.604 33.5124 242.604 32.8571C242.604 32.1991 242.727 31.6236 242.972 31.1308C243.217 30.6379 243.561 30.2552 244.004 29.9827C244.447 29.7101 244.966 29.5738 245.561 29.5738C246.156 29.5738 246.675 29.7101 247.118 29.9827C247.561 30.2552 247.906 30.6379 248.151 31.1308C248.396 31.6236 248.518 32.1991 248.518 32.8571C248.518 33.5124 248.396 34.0851 248.151 34.5752C247.906 35.0653 247.561 35.4466 247.118 35.7192C246.675 35.9917 246.156 36.128 245.561 36.128ZM245.565 35.0914C245.951 35.0914 246.27 34.9895 246.523 34.7858C246.777 34.582 246.964 34.3108 247.085 33.9722C247.209 33.6335 247.271 33.2605 247.271 32.853C247.271 32.4482 247.209 32.0765 247.085 31.7379C246.964 31.3965 246.777 31.1225 246.523 30.916C246.27 30.7095 245.951 30.6063 245.565 30.6063C245.177 30.6063 244.855 30.7095 244.599 30.916C244.346 31.1225 244.157 31.3965 244.033 31.7379C243.912 32.0765 243.851 32.4482 243.851 32.853C243.851 33.2605 243.912 33.6335 244.033 33.9722C244.157 34.3108 244.346 34.582 244.599 34.7858C244.855 34.9895 245.177 35.0914 245.565 35.0914Z" fill="#111827"/>
<rect x="208" y="66" width="62" height="8" rx="1.163" fill="#E5E7EB"/>
<rect x="53" y="66" width="62" height="8" rx="1.163" fill="#E5E7EB"/>
<g clip-path="url(#clip2_482_698)">
<path d="M214 57C217.314 57 220 54.3137 220 51C220 47.6863 217.314 45 214 45C210.686 45 208 47.6863 208 51C208 54.3137 210.686 57 214 57Z" fill="#F0F0F0"/>
<path d="M213.74 50.9999H220.001C220.001 50.4584 219.929 49.9337 219.794 49.4347H213.74V50.9999Z" fill="#D80027"/>
<path d="M213.74 47.8695H219.12C218.753 47.2702 218.284 46.7404 217.736 46.3043H213.74V47.8695Z" fill="#D80027"/>
<path d="M214.001 57C215.413 57 216.711 56.5119 217.735 55.6956H210.266C211.291 56.5119 212.588 57 214.001 57Z" fill="#D80027"/>
<path d="M208.881 54.1304H219.12C219.415 53.6493 219.643 53.1233 219.794 52.5652H208.207C208.357 53.1233 208.586 53.6493 208.881 54.1304Z" fill="#D80027"/>
<path d="M210.779 45.937H211.326L210.817 46.3065L211.012 46.9043L210.503 46.5349L209.995 46.9043L210.162 46.3879C209.715 46.7609 209.322 47.1979 208.999 47.6848H209.174L208.85 47.92C208.8 48.0041 208.751 48.0896 208.705 48.1764L208.86 48.6522L208.571 48.4426C208.499 48.5945 208.434 48.7498 208.375 48.9084L208.545 49.4326H209.174L208.665 49.8021L208.86 50.4L208.351 50.0305L208.046 50.2519C208.016 50.497 208 50.7466 208 51H214C214 47.6863 214 47.2957 214 45C212.815 45 211.71 45.3438 210.779 45.937ZM211.012 50.4L210.503 50.0305L209.995 50.4L210.189 49.8021L209.68 49.4326H210.309L210.503 48.8348L210.697 49.4326H211.326L210.817 49.8021L211.012 50.4ZM210.817 48.0543L211.012 48.6522L210.503 48.2827L209.995 48.6522L210.189 48.0543L209.68 47.6848H210.309L210.503 47.0869L210.697 47.6848H211.326L210.817 48.0543ZM213.164 50.4L212.655 50.0305L212.147 50.4L212.341 49.8021L211.832 49.4326H212.461L212.655 48.8348L212.85 49.4326H213.478L212.97 49.8021L213.164 50.4ZM212.97 48.0543L213.164 48.6522L212.655 48.2827L212.147 48.6522L212.341 48.0543L211.832 47.6848H212.461L212.655 47.0869L212.85 47.6848H213.478L212.97 48.0543ZM212.97 46.3065L213.164 46.9043L212.655 46.5349L212.147 46.9043L212.341 46.3065L211.832 45.937H212.461L212.655 45.3391L212.85 45.937H213.478L212.97 46.3065Z" fill="#0052B4"/>
</g>
<path d="M229.653 47.7273H230.534V52.5426C230.534 53.0398 230.417 53.4837 230.183 53.8743C229.951 54.2625 229.623 54.5691 229.199 54.794C228.775 55.0166 228.278 55.1278 227.707 55.1278C227.137 55.1278 226.64 55.0166 226.216 54.794C225.792 54.5691 225.463 54.2625 225.229 53.8743C224.997 53.4837 224.881 53.0398 224.881 52.5426V47.7273H225.761V52.4716C225.761 52.8267 225.839 53.1428 225.996 53.4197C226.152 53.6944 226.375 53.911 226.663 54.0696C226.955 54.2259 227.303 54.304 227.707 54.304C228.112 54.304 228.46 54.2259 228.751 54.0696C229.043 53.911 229.265 53.6944 229.419 53.4197C229.575 53.1428 229.653 52.8267 229.653 52.4716V47.7273ZM236.27 49.5455C236.227 49.1856 236.055 48.9062 235.752 48.7074C235.449 48.5085 235.077 48.4091 234.637 48.4091C234.315 48.4091 234.033 48.4612 233.791 48.5653C233.552 48.6695 233.365 48.8127 233.23 48.995C233.098 49.1773 233.031 49.3845 233.031 49.6165C233.031 49.8106 233.078 49.9775 233.17 50.1172C233.265 50.2545 233.385 50.3693 233.532 50.4616C233.679 50.5516 233.833 50.6262 233.994 50.6854C234.155 50.7422 234.303 50.7884 234.438 50.8239L235.176 51.0227C235.366 51.0724 235.576 51.1411 235.808 51.2287C236.043 51.3163 236.267 51.4358 236.48 51.5874C236.695 51.7365 236.873 51.9283 237.012 52.1626C237.152 52.397 237.222 52.6847 237.222 53.0256C237.222 53.4186 237.119 53.7737 236.913 54.0909C236.709 54.4081 236.411 54.6603 236.018 54.8473C235.627 55.0343 235.153 55.1278 234.594 55.1278C234.073 55.1278 233.622 55.0438 233.241 54.8757C232.862 54.7076 232.564 54.4732 232.346 54.1726C232.131 53.8719 232.009 53.5227 231.98 53.125H232.889C232.913 53.3996 233.005 53.6269 233.166 53.8068C233.33 53.9844 233.536 54.117 233.784 54.2045C234.035 54.2898 234.305 54.3324 234.594 54.3324C234.93 54.3324 235.232 54.2779 235.499 54.169C235.767 54.0578 235.979 53.9039 236.135 53.7074C236.291 53.5085 236.369 53.2765 236.369 53.0114C236.369 52.7699 236.302 52.5734 236.167 52.4219C236.032 52.2704 235.855 52.1473 235.634 52.0526C235.414 51.9579 235.176 51.875 234.921 51.804L234.026 51.5483C233.458 51.3849 233.008 51.1518 232.676 50.8487C232.345 50.5457 232.179 50.1491 232.179 49.6591C232.179 49.2519 232.289 48.8968 232.509 48.5938C232.732 48.2884 233.03 48.0516 233.404 47.8835C233.781 47.7131 234.201 47.6278 234.665 47.6278C235.134 47.6278 235.55 47.7119 235.915 47.88C236.28 48.0457 236.568 48.273 236.781 48.5618C236.997 48.8506 237.11 49.1785 237.122 49.5455H236.27ZM238.968 55H238.045L240.715 47.7273H241.624L244.295 55H243.371L241.198 48.8778H241.141L238.968 55ZM239.309 52.1591H243.031V52.9403H239.309V52.1591Z" fill="#4B5563"/>
<g filter="url(#filter0_d_482_698)">
<circle cx="175.124" cy="54.7093" r="12.2115" fill="white"/>
</g>
<path d="M180.089 51.7651L178.047 49.7441C177.843 49.5421 177.536 49.5421 177.332 49.7441C177.128 49.9462 177.128 50.2494 177.332 50.4515L178.506 51.6135H172.073C171.767 51.6135 171.562 51.8156 171.562 52.1188C171.562 52.4219 171.767 52.6241 172.073 52.6241H178.506L177.332 53.7861C177.128 53.9882 177.128 54.2914 177.332 54.4935C177.536 54.6955 177.843 54.6955 178.047 54.4935L180.089 52.4725C180.293 52.2703 180.293 51.9672 180.089 51.7651L180.089 51.7651Z" fill="#374151"/>
<path d="M178.177 56.7964H171.744L172.918 55.6344C173.122 55.4323 173.122 55.1291 172.918 54.9271C172.714 54.725 172.407 54.725 172.203 54.9271L170.161 56.948C169.957 57.1501 169.957 57.4533 170.161 57.6554L172.203 59.6764C172.407 59.8784 172.714 59.8784 172.918 59.6764C173.122 59.4743 173.122 59.1711 172.918 58.969L171.744 57.8071H178.177C178.483 57.8071 178.688 57.605 178.688 57.3018C178.688 56.9986 178.483 56.7965 178.177 56.7965V56.7964Z" fill="#374151"/>
<g filter="url(#filter1_f_482_698)">
<rect x="35.5317" y="92.4018" width="291.83" height="77.6925" rx="4.5" transform="rotate(-3.76337 35.5317 92.4018)" fill="white" stroke="#E5E7EB"/>
<path d="M58.9972 111.475L54.2453 114.539M54.2453 114.539L49.133 112.124M54.2453 114.539L54.6079 120.052M59.6224 116.551L59.3126 111.841C59.2996 111.642 59.293 111.543 59.2579 111.456C59.2268 111.379 59.1797 111.31 59.1197 111.253C59.052 111.188 58.9619 111.146 58.7817 111.061L54.331 108.958C54.1604 108.877 54.0752 108.837 53.9868 108.825C53.9087 108.814 53.8291 108.819 53.7531 108.84C53.6671 108.864 53.5878 108.915 53.4293 109.017L49.2924 111.685C49.1249 111.793 49.0412 111.847 48.9825 111.92C48.9305 111.984 48.8928 112.059 48.8721 112.139C48.8486 112.23 48.8552 112.329 48.8682 112.528L49.1781 117.238C49.1911 117.437 49.1977 117.536 49.2328 117.623C49.2639 117.7 49.311 117.769 49.3709 117.826C49.4387 117.89 49.5288 117.933 49.709 118.018L54.1597 120.121C54.3302 120.202 54.4155 120.242 54.5039 120.254C54.582 120.265 54.6616 120.26 54.7376 120.239C54.8236 120.215 54.9029 120.164 55.0614 120.062L59.1983 117.394C59.3657 117.286 59.4495 117.232 59.5082 117.159C59.5602 117.095 59.5978 117.02 59.6186 116.94C59.6421 116.849 59.6355 116.75 59.6224 116.551Z" stroke="#111827" stroke-width="1.163" stroke-linecap="round" stroke-linejoin="round"/>
<path d="M56.7607 112.917L51.3477 110.359" stroke="black" stroke-width="1.163" stroke-linecap="round" stroke-linejoin="round"/>
<path d="M72.3943 111.104C72.3247 110.717 72.1235 110.427 71.7907 110.234C71.4577 110.038 71.0495 109.955 70.5659 109.987C70.2198 110.01 69.9239 110.085 69.6784 110.211C69.4327 110.335 69.246 110.496 69.1184 110.695C68.9933 110.891 68.9386 111.108 68.9543 111.347C68.9675 111.548 69.0256 111.718 69.1286 111.857C69.2343 111.997 69.3674 112.111 69.5277 112.199C69.6907 112.285 69.8636 112.355 70.0465 112.41C70.2292 112.461 70.4044 112.502 70.5719 112.532L71.4102 112.692C71.6838 112.741 71.9658 112.812 72.2562 112.906C72.5466 113 72.8187 113.131 73.0726 113.299C73.3265 113.467 73.5365 113.682 73.7028 113.945C73.8718 114.207 73.9687 114.527 73.9937 114.906C74.0251 115.384 73.9294 115.817 73.7065 116.204C73.4864 116.591 73.1499 116.907 72.6969 117.152C72.2467 117.397 71.6919 117.541 71.0326 117.584C70.4007 117.626 69.8473 117.562 69.3726 117.392C68.8978 117.221 68.5179 116.961 68.2326 116.61C67.9473 116.256 67.7741 115.826 67.7132 115.32L68.9907 115.235C69.0355 115.539 69.1511 115.786 69.3376 115.978C69.5266 116.167 69.7604 116.302 70.0389 116.383C70.3199 116.461 70.6239 116.49 70.9509 116.468C71.3108 116.445 71.6271 116.367 71.8999 116.236C72.1753 116.102 72.3874 115.928 72.5361 115.714C72.6847 115.497 72.7499 115.252 72.7318 114.977C72.7154 114.727 72.6305 114.527 72.4771 114.377C72.3265 114.227 72.1269 114.108 71.8783 114.019C71.6324 113.93 71.3557 113.856 71.0483 113.796L70.0331 113.59C69.3451 113.45 68.7916 113.215 68.3725 112.884C67.9561 112.553 67.7286 112.093 67.6899 111.505C67.6579 111.019 67.7619 110.586 68.0018 110.206C68.2417 109.826 68.5803 109.52 69.0177 109.29C69.4549 109.057 69.9565 108.922 70.5224 108.885C71.0939 108.847 71.6046 108.915 72.0546 109.086C72.5074 109.258 72.8717 109.511 73.1476 109.846C73.4233 110.179 73.5816 110.571 73.6224 111.024L72.3943 111.104ZM76.5549 113.306L76.8021 117.064L75.5699 117.145L75.0147 108.705L76.2304 108.625L76.437 111.766L76.5153 111.761C76.6413 111.41 76.8501 111.125 77.1419 110.904C77.4336 110.683 77.8254 110.557 78.3172 110.525C78.7513 110.496 79.1363 110.56 79.4722 110.718C79.8109 110.875 80.0812 111.124 80.2831 111.467C80.4875 111.807 80.6071 112.241 80.6418 112.768L80.9067 116.794L79.6745 116.875L79.4194 112.997C79.3888 112.533 79.2457 112.181 78.9898 111.941C78.7338 111.699 78.3929 111.591 77.9671 111.62C77.6758 111.639 77.4189 111.718 77.1963 111.856C76.9764 111.995 76.8083 112.188 76.6922 112.436C76.5786 112.681 76.5328 112.971 76.5549 113.306ZM82.551 116.686L82.1346 110.356L83.3668 110.275L83.7831 116.605L82.551 116.686ZM82.6926 109.339C82.4783 109.353 82.2896 109.293 82.1263 109.161C81.9656 109.025 81.8787 108.857 81.8655 108.656C81.8521 108.453 81.9163 108.275 82.058 108.122C82.2023 107.966 82.3816 107.881 82.5958 107.867C82.8101 107.853 82.9976 107.914 83.1583 108.05C83.3216 108.182 83.4099 108.35 83.4232 108.554C83.4364 108.754 83.3709 108.932 83.2266 109.088C83.0849 109.241 82.9069 109.324 82.6926 109.339ZM85.597 118.87L85.0245 110.166L86.2278 110.087L86.2953 111.113L86.3983 111.106C86.4611 110.97 86.5541 110.81 86.6773 110.629C86.8006 110.447 86.9774 110.283 87.208 110.138C87.4383 109.991 87.7499 109.904 88.1428 109.878C88.6538 109.845 89.1184 109.944 89.5365 110.176C89.9546 110.407 90.2936 110.759 90.5537 111.23C90.8164 111.701 90.9703 112.279 91.0153 112.963C91.0603 113.647 90.9849 114.241 90.789 114.745C90.593 115.247 90.3044 115.642 89.9234 115.932C89.5422 116.219 89.0961 116.38 88.5851 116.413C88.2005 116.439 87.8816 116.395 87.6286 116.282C87.3784 116.169 87.1789 116.03 87.0301 115.866C86.8814 115.702 86.7655 115.555 86.6824 115.425L86.6082 115.43L86.8292 118.789L85.597 118.87ZM86.4401 113.252C86.4694 113.697 86.5596 114.083 86.7108 114.409C86.862 114.736 87.0661 114.986 87.323 115.16C87.5798 115.33 87.8854 115.404 88.2399 115.381C88.608 115.356 88.9093 115.239 89.1437 115.027C89.378 114.813 89.5472 114.533 89.6513 114.187C89.7582 113.84 89.7978 113.456 89.7699 113.033C89.7425 112.615 89.6546 112.244 89.5064 111.92C89.3609 111.596 89.1568 111.346 88.8941 111.17C88.6342 110.994 88.3188 110.918 87.9479 110.942C87.5908 110.966 87.2946 111.078 87.0594 111.278C86.827 111.478 86.6585 111.747 86.5538 112.085C86.4491 112.423 86.4112 112.812 86.4401 113.252ZM92.6032 116.025L92.1869 109.695L93.3696 109.617L93.4374 110.647L93.5157 110.642C93.6246 110.285 93.8224 109.999 94.109 109.784C94.3954 109.566 94.7475 109.444 95.1651 109.416C95.5882 109.388 95.9491 109.464 96.2478 109.643C96.5493 109.822 96.7801 110.08 96.9403 110.417L97.0062 110.413C97.1351 110.065 97.3578 109.78 97.6742 109.558C97.9906 109.333 98.3767 109.205 98.8328 109.175C99.407 109.137 99.8873 109.286 100.274 109.622C100.663 109.958 100.881 110.489 100.929 111.214L101.208 115.459L99.9758 115.54L99.7042 111.411C99.676 110.982 99.5388 110.679 99.2926 110.502C99.0464 110.325 98.7613 110.248 98.4371 110.269C98.036 110.295 97.7323 110.439 97.526 110.701C97.3195 110.96 97.229 111.282 97.2543 111.667L97.5196 115.702L96.2916 115.782L96.0148 111.575C95.9922 111.231 95.8669 110.962 95.6389 110.768C95.4108 110.573 95.1251 110.487 94.7817 110.509C94.5482 110.525 94.3366 110.601 94.1469 110.737C93.9598 110.871 93.8129 111.05 93.7063 111.275C93.6025 111.5 93.5599 111.755 93.5787 112.041L93.8354 115.944L92.6032 116.025ZM105.596 115.299C104.972 115.34 104.426 115.242 103.958 115.005C103.493 114.765 103.122 114.41 102.845 113.94C102.571 113.467 102.413 112.902 102.37 112.245C102.327 111.597 102.41 111.017 102.62 110.507C102.832 109.996 103.147 109.588 103.565 109.282C103.987 108.975 104.491 108.803 105.079 108.764C105.436 108.741 105.787 108.777 106.129 108.873C106.472 108.969 106.785 109.135 107.069 109.37C107.352 109.605 107.583 109.92 107.764 110.313C107.944 110.704 108.053 111.187 108.091 111.761L108.12 112.198L103.088 112.529L103.027 111.606L106.851 111.354C106.83 111.03 106.745 110.747 106.597 110.506C106.448 110.262 106.25 110.075 106.001 109.945C105.755 109.815 105.473 109.761 105.154 109.782C104.808 109.804 104.512 109.909 104.265 110.097C104.02 110.281 103.837 110.514 103.715 110.795C103.595 111.073 103.546 111.37 103.566 111.686L103.614 112.408C103.642 112.831 103.739 113.186 103.907 113.473C104.078 113.759 104.303 113.972 104.583 114.111C104.862 114.247 105.182 114.304 105.541 114.28C105.775 114.264 105.986 114.218 106.174 114.139C106.361 114.058 106.521 113.945 106.652 113.801C106.784 113.657 106.88 113.484 106.941 113.281L108.121 113.415C108.05 113.764 107.902 114.076 107.678 114.35C107.455 114.622 107.168 114.841 106.814 115.007C106.464 115.171 106.058 115.268 105.596 115.299ZM110.656 111.063L110.903 114.821L109.671 114.902L109.254 108.572L110.437 108.495L110.505 109.525L110.583 109.52C110.707 109.175 110.917 108.891 111.214 108.667C111.514 108.443 111.901 108.315 112.377 108.284C112.808 108.256 113.192 108.322 113.528 108.482C113.864 108.639 114.133 108.889 114.335 109.231C114.536 109.574 114.655 110.006 114.689 110.528L114.954 114.555L113.722 114.636L113.466 110.758C113.436 110.299 113.293 109.948 113.037 109.706C112.781 109.461 112.444 109.352 112.027 109.379C111.741 109.398 111.491 109.476 111.276 109.615C111.065 109.753 110.902 109.946 110.789 110.193C110.678 110.438 110.633 110.728 110.656 111.063ZM119.145 107.922L119.21 108.911L115.752 109.138L115.687 108.149L119.145 107.922ZM116.515 106.572L117.747 106.491L118.141 112.478C118.156 112.717 118.204 112.895 118.283 113.011C118.363 113.125 118.46 113.2 118.575 113.236C118.694 113.27 118.82 113.282 118.955 113.273C119.053 113.267 119.14 113.254 119.213 113.236C119.286 113.217 119.343 113.202 119.384 113.191L119.673 114.195C119.604 114.227 119.504 114.261 119.374 114.297C119.244 114.336 119.08 114.363 118.882 114.379C118.559 114.406 118.253 114.368 117.964 114.266C117.676 114.163 117.437 113.991 117.248 113.75C117.058 113.509 116.95 113.197 116.925 112.815L116.515 106.572ZM126.826 113.774L124.094 113.953L123.539 105.514L126.358 105.328C127.185 105.274 127.906 105.396 128.522 105.695C129.137 105.991 129.624 106.443 129.981 107.052C130.341 107.657 130.55 108.398 130.607 109.274C130.665 110.154 130.554 110.92 130.274 111.573C129.997 112.226 129.568 112.742 128.986 113.123C128.403 113.5 127.684 113.717 126.826 113.774ZM125.294 112.757L126.683 112.666C127.326 112.623 127.853 112.467 128.262 112.198C128.672 111.925 128.968 111.551 129.149 111.076C129.33 110.597 129.398 110.024 129.355 109.357C129.311 108.695 129.168 108.14 128.926 107.692C128.687 107.244 128.352 106.915 127.922 106.703C127.491 106.491 126.968 106.406 126.353 106.446L124.886 106.542L125.294 112.757ZM135.107 113.357C134.483 113.398 133.937 113.301 133.469 113.064C133.004 112.824 132.633 112.469 132.356 111.999C132.082 111.526 131.924 110.961 131.881 110.304C131.838 109.656 131.921 109.076 132.13 108.566C132.342 108.055 132.658 107.647 133.076 107.341C133.498 107.034 134.002 106.862 134.59 106.823C134.947 106.799 135.297 106.836 135.64 106.932C135.983 107.028 136.296 107.194 136.579 107.429C136.863 107.664 137.094 107.979 137.275 108.372C137.455 108.763 137.564 109.246 137.602 109.82L137.63 110.257L132.599 110.588L132.538 109.665L136.362 109.413C136.341 109.089 136.256 108.806 136.108 108.565C135.959 108.321 135.761 108.134 135.512 108.004C135.266 107.874 134.984 107.819 134.665 107.84C134.319 107.863 134.023 107.968 133.776 108.155C133.531 108.34 133.348 108.573 133.225 108.854C133.106 109.132 133.056 109.429 133.077 109.745L133.125 110.466C133.152 110.89 133.25 111.245 133.418 111.531C133.589 111.818 133.814 112.031 134.093 112.17C134.373 112.306 134.692 112.362 135.052 112.339C135.286 112.323 135.497 112.276 135.685 112.198C135.872 112.116 136.032 112.004 136.163 111.86C136.294 111.716 136.391 111.543 136.452 111.34L137.632 111.474C137.561 111.823 137.413 112.135 137.188 112.409C136.966 112.68 136.678 112.899 136.325 113.066C135.975 113.23 135.568 113.327 135.107 113.357ZM141.72 106.437L141.785 107.426L138.327 107.653L138.262 106.664L141.72 106.437ZM139.09 105.087L140.322 105.006L140.716 110.994C140.732 111.233 140.779 111.41 140.858 111.526C140.938 111.64 141.035 111.715 141.151 111.751C141.269 111.785 141.395 111.797 141.53 111.788C141.629 111.782 141.715 111.769 141.788 111.751C141.861 111.732 141.918 111.717 141.959 111.706L142.248 112.71C142.179 112.742 142.079 112.776 141.949 112.812C141.819 112.851 141.655 112.878 141.458 112.894C141.134 112.921 140.828 112.883 140.54 112.781C140.251 112.678 140.012 112.506 139.823 112.265C139.633 112.024 139.526 111.712 139.5 111.33L139.09 105.087ZM145.351 112.696C144.949 112.722 144.582 112.672 144.248 112.545C143.914 112.415 143.643 112.214 143.434 111.94C143.229 111.667 143.112 111.323 143.085 110.908C143.061 110.551 143.111 110.252 143.233 110.013C143.355 109.773 143.529 109.578 143.753 109.428C143.978 109.278 144.232 109.159 144.516 109.071C144.8 108.984 145.091 108.912 145.388 108.857C145.764 108.788 146.069 108.732 146.304 108.689C146.538 108.643 146.707 108.584 146.809 108.511C146.912 108.438 146.959 108.327 146.949 108.179L146.947 108.15C146.923 107.79 146.803 107.518 146.587 107.333C146.374 107.149 146.068 107.07 145.669 107.096C145.254 107.123 144.934 107.237 144.707 107.436C144.482 107.633 144.332 107.846 144.256 108.075L143.081 107.887C143.193 107.493 143.373 107.17 143.621 106.916C143.872 106.659 144.167 106.466 144.506 106.336C144.845 106.204 145.205 106.125 145.587 106.1C145.84 106.083 146.11 106.096 146.397 106.137C146.686 106.176 146.96 106.266 147.217 106.406C147.478 106.546 147.697 106.757 147.876 107.038C148.054 107.316 148.158 107.685 148.189 108.147L148.465 112.35L147.262 112.43L147.205 111.564L147.155 111.567C147.086 111.732 146.977 111.896 146.828 112.061C146.679 112.225 146.482 112.366 146.239 112.484C145.996 112.603 145.699 112.673 145.351 112.696ZM145.553 111.689C145.894 111.667 146.181 111.58 146.414 111.43C146.649 111.279 146.823 111.091 146.935 110.866C147.05 110.638 147.099 110.398 147.083 110.148L147.029 109.332C146.988 109.379 146.906 109.426 146.782 109.473C146.66 109.517 146.521 109.558 146.363 109.596C146.206 109.631 146.052 109.664 145.902 109.696C145.753 109.725 145.627 109.75 145.526 109.771C145.289 109.817 145.074 109.882 144.881 109.966C144.691 110.051 144.541 110.164 144.432 110.306C144.325 110.446 144.279 110.625 144.293 110.845C144.313 111.15 144.441 111.373 144.677 111.515C144.912 111.654 145.204 111.712 145.553 111.689ZM150.106 112.242L149.69 105.913L150.922 105.831L151.338 112.161L150.106 112.242ZM150.248 104.895C150.034 104.909 149.845 104.85 149.682 104.717C149.521 104.581 149.434 104.413 149.421 104.213C149.407 104.009 149.472 103.831 149.613 103.678C149.758 103.523 149.937 103.438 150.151 103.424C150.365 103.41 150.553 103.47 150.714 103.606C150.877 103.739 150.965 103.907 150.979 104.11C150.992 104.311 150.926 104.489 150.782 104.645C150.64 104.797 150.462 104.881 150.248 104.895ZM153.673 103.531L154.228 111.971L152.996 112.052L152.441 103.612L153.673 103.531ZM160.315 106.766L159.211 107.037C159.155 106.897 159.072 106.766 158.962 106.644C158.854 106.521 158.713 106.424 158.537 106.353C158.361 106.282 158.145 106.254 157.89 106.271C157.541 106.294 157.255 106.392 157.032 106.564C156.808 106.733 156.705 106.94 156.721 107.184C156.735 107.396 156.824 107.561 156.989 107.68C157.154 107.799 157.414 107.888 157.768 107.947L158.789 108.112C159.38 108.208 159.828 108.387 160.132 108.649C160.436 108.91 160.603 109.265 160.633 109.712C160.658 110.092 160.57 110.437 160.37 110.748C160.172 111.056 159.884 111.307 159.504 111.5C159.128 111.693 158.684 111.807 158.173 111.84C157.465 111.887 156.876 111.774 156.409 111.501C155.941 111.225 155.638 110.811 155.499 110.257L156.678 109.997C156.773 110.303 156.941 110.528 157.182 110.672C157.423 110.813 157.729 110.872 158.1 110.848C158.504 110.821 158.821 110.716 159.052 110.532C159.282 110.346 159.39 110.131 159.373 109.886C159.36 109.688 159.275 109.527 159.118 109.402C158.964 109.277 158.733 109.19 158.426 109.142L157.339 108.977C156.74 108.881 156.289 108.696 155.987 108.42C155.687 108.145 155.522 107.782 155.493 107.331C155.468 106.958 155.551 106.624 155.742 106.33C155.932 106.036 156.206 105.798 156.564 105.618C156.922 105.434 157.338 105.327 157.813 105.295C158.497 105.25 159.046 105.363 159.458 105.634C159.87 105.902 160.156 106.28 160.315 106.766Z" fill="#111827"/>
<g filter="url(#filter2_d_482_698)">
<rect x="49.5" y="130.138" width="96.4001" height="23.304" rx="4.65198" transform="rotate(-3.76337 49.5 130.138)" fill="white"/>
<rect x="49.8092" y="130.409" width="95.8186" height="22.7225" rx="4.36123" transform="rotate(-3.76337 49.8092 130.409)" stroke="#D0D5DD" stroke-width="0.581498"/>
<path d="M50.0191 133.6C49.9032 131.838 51.238 130.315 53.0005 130.199L72.4387 128.92L73.9272 151.55L54.4891 152.828C52.7265 152.944 51.2037 151.609 51.0878 149.847L50.0191 133.6Z" fill="white"/>
<path d="M50.0191 133.6C49.9032 131.838 51.238 130.315 53.0005 130.199L72.4387 128.92L73.9272 151.55L54.4891 152.828C52.7265 152.944 51.2037 151.609 51.0878 149.847L50.0191 133.6Z" stroke="#D0D5DD" stroke-width="0.581498"/>
<path d="M58.4834 141.202L65.2529 140.757" stroke="#101828" stroke-width="1.163" stroke-linecap="round" stroke-linejoin="round"/>
<mask id="path-33-inside-1_482_698" fill="white">
<path d="M72.71 128.611L122.483 125.337L124.012 148.591L74.2395 151.865L72.71 128.611Z"/>
</mask>
<path d="M72.71 128.611L122.483 125.337L124.012 148.591L74.2395 151.865L72.71 128.611Z" fill="#F9FAFB"/>
<path d="M72.7481 129.191L122.521 125.917L122.444 124.757L72.6718 128.031L72.7481 129.191ZM123.974 148.011L74.2014 151.284L74.2777 152.445L124.05 149.171L123.974 148.011Z" fill="#D0D5DD" mask="url(#path-33-inside-1_482_698)"/>
<path d="M95.5573 141.885C95.1221 141.913 94.7293 141.864 94.3788 141.737C94.0305 141.61 93.7476 141.42 93.5301 141.167C93.3146 140.912 93.1865 140.608 93.1456 140.255L93.9764 140.2C94.0083 140.417 94.0954 140.6 94.2377 140.75C94.3798 140.897 94.5603 141.006 94.7792 141.078C94.998 141.15 95.2371 141.177 95.4964 141.16C95.7866 141.141 96.0404 141.074 96.2579 140.958C96.4755 140.842 96.642 140.69 96.7577 140.501C96.8733 140.312 96.9233 140.099 96.9077 139.862C96.8913 139.614 96.8154 139.399 96.6799 139.218C96.5442 139.035 96.3542 138.897 96.1097 138.805C95.8653 138.713 95.5716 138.678 95.2287 138.701L94.688 138.737L94.6403 138.011L95.181 137.976C95.4492 137.958 95.6811 137.894 95.877 137.784C96.075 137.674 96.2254 137.527 96.3281 137.344C96.4331 137.16 96.4777 136.95 96.4621 136.713C96.4471 136.484 96.3834 136.288 96.2712 136.126C96.159 135.963 96.0074 135.841 95.8166 135.758C95.6279 135.676 95.4094 135.643 95.1611 135.659C94.9281 135.675 94.7111 135.732 94.5102 135.831C94.3113 135.928 94.1522 136.061 94.0331 136.23C93.9139 136.397 93.8561 136.593 93.8599 136.818L93.0686 136.87C93.0585 136.515 93.1447 136.198 93.3273 135.919C93.5096 135.638 93.7574 135.412 94.0707 135.241C94.3862 135.07 94.7384 134.972 95.1274 134.946C95.545 134.919 95.9089 134.98 96.2189 135.129C96.5288 135.277 96.773 135.483 96.9515 135.747C97.13 136.011 97.2298 136.302 97.2507 136.621C97.2758 137.001 97.1971 137.332 97.0147 137.613C96.8345 137.894 96.5775 138.098 96.2436 138.224L96.2471 138.276C96.6781 138.319 97.023 138.478 97.2818 138.755C97.5405 139.029 97.6839 139.38 97.7121 139.809C97.7362 140.176 97.6579 140.512 97.4771 140.818C97.2984 141.121 97.0431 141.367 96.7112 141.557C96.3793 141.747 95.9947 141.856 95.5573 141.885ZM98.9317 140.179L98.8875 139.507L101.546 134.617L102.034 134.585L102.102 135.626L101.773 135.648L99.7641 139.343L99.7676 139.396L103.763 139.133L103.811 139.858L98.9317 140.179ZM102.201 141.355L102.096 139.766L102.076 139.453L101.757 134.603L102.535 134.552L102.979 141.304L102.201 141.355Z" fill="#101828"/>
<path d="M122.792 125.608L142.23 124.33C143.992 124.214 145.515 125.548 145.631 127.311L146.7 143.558C146.816 145.32 145.481 146.843 143.718 146.959L124.28 148.238L122.792 125.608Z" fill="white"/>
<path d="M122.792 125.608L142.23 124.33C143.992 124.214 145.515 125.548 145.631 127.311L146.7 143.558C146.816 145.32 145.481 146.843 143.718 146.959L124.28 148.238L122.792 125.608Z" stroke="#D0D5DD" stroke-width="0.581498"/>
<path d="M134.628 132.794L135.073 139.563M131.466 136.401L138.235 135.956" stroke="#101828" stroke-width="1.163" stroke-linecap="round" stroke-linejoin="round"/>
</g>
<g filter="url(#filter3_d_482_698)">
<g clip-path="url(#clip3_482_698)">
<rect x="154.216" y="123.25" width="65.1278" height="23.2599" rx="3.48899" transform="rotate(-3.76337 154.216 123.25)" fill="white"/>
<g clip-path="url(#clip4_482_698)">
<path d="M172.983 138.332L171.453 132.023L163.769 132.571L163.119 138.981L172.983 138.332Z" stroke="#667085" stroke-width="1.0467" stroke-linejoin="round"/>
<circle cx="167.535" cy="130.386" r="1.65727" transform="rotate(-3.76337 167.535 130.386)" stroke="#667085" stroke-width="1.0467"/>
</g>
<path d="M183.522 136.076C183.135 136.102 182.781 136.048 182.461 135.914C182.141 135.781 181.879 135.586 181.675 135.33C181.47 135.074 181.348 134.776 181.308 134.434L182.099 134.382C182.15 134.685 182.305 134.929 182.564 135.113C182.826 135.294 183.129 135.374 183.474 135.351C183.751 135.333 183.993 135.252 184.2 135.108C184.409 134.964 184.567 134.775 184.676 134.54C184.786 134.303 184.831 134.041 184.812 133.753C184.793 133.459 184.711 133.2 184.566 132.978C184.423 132.753 184.235 132.581 184.002 132.462C183.769 132.343 183.509 132.291 183.221 132.308C183.014 132.32 182.804 132.365 182.591 132.446C182.377 132.524 182.204 132.618 182.07 132.728L181.299 132.686L181.489 129.336L184.997 129.105L185.044 129.831L182.222 130.016L182.116 132.023L182.156 132.021C182.287 131.902 182.454 131.799 182.658 131.713C182.863 131.627 183.078 131.576 183.304 131.561C183.717 131.534 184.092 131.609 184.428 131.785C184.766 131.959 185.039 132.211 185.246 132.539C185.455 132.868 185.574 133.251 185.603 133.688C185.631 134.119 185.56 134.51 185.389 134.861C185.22 135.21 184.973 135.493 184.65 135.711C184.326 135.926 183.95 136.048 183.522 136.076ZM190.012 128.776L190.456 135.527L189.678 135.579L189.234 128.827L190.012 128.776ZM191.987 135.427L191.543 128.675L192.321 128.624L192.485 131.116L192.551 131.112C192.602 131.02 192.674 130.903 192.766 130.76C192.86 130.615 192.999 130.482 193.183 130.362C193.37 130.239 193.627 130.167 193.957 130.145C194.384 130.117 194.766 130.199 195.106 130.391C195.445 130.583 195.719 130.868 195.927 131.247C196.135 131.627 196.257 132.082 196.292 132.614C196.327 133.15 196.266 133.621 196.11 134.027C195.953 134.43 195.72 134.75 195.411 134.986C195.102 135.221 194.737 135.352 194.315 135.38C193.989 135.401 193.725 135.364 193.523 135.27C193.32 135.172 193.161 135.058 193.047 134.927C192.932 134.793 192.843 134.682 192.78 134.593L192.687 134.599L192.738 135.377L191.987 135.427ZM192.585 132.845C192.61 133.227 192.689 133.561 192.82 133.846C192.951 134.128 193.13 134.345 193.356 134.496C193.582 134.644 193.851 134.708 194.163 134.688C194.489 134.666 194.754 134.563 194.961 134.377C195.169 134.189 195.319 133.945 195.409 133.645C195.502 133.344 195.536 133.012 195.513 132.652C195.489 132.296 195.413 131.979 195.285 131.7C195.158 131.419 194.979 131.203 194.748 131.05C194.52 130.895 194.24 130.828 193.911 130.85C193.594 130.871 193.334 130.969 193.129 131.143C192.924 131.316 192.776 131.548 192.685 131.841C192.593 132.132 192.56 132.466 192.585 132.845Z" fill="#101828"/>
</g>
<rect x="154.525" y="123.521" width="64.5463" height="22.6784" rx="3.19824" transform="rotate(-3.76337 154.525 123.521)" stroke="#D0D5DD" stroke-width="0.581498"/>
</g>
<g filter="url(#filter4_d_482_698)">
<g clip-path="url(#clip5_482_698)">
<rect x="230.927" y="118.204" width="45.3568" height="23.2599" rx="3.48899" transform="rotate(-3.76337 230.927 118.204)" fill="white"/>
<rect x="238.424" y="125.869" width="31.4009" height="6.97797" rx="3.48899" transform="rotate(-3.76337 238.424 125.869)" fill="#E5E7EB"/>
</g>
<rect x="231.236" y="118.475" width="44.7753" height="22.6784" rx="3.19824" transform="rotate(-3.76337 231.236 118.475)" stroke="#D0D5DD" stroke-width="0.581498"/>
</g>
</g>
<g filter="url(#filter5_d_482_698)">
<rect x="24.5317" y="104.419" width="303" height="74" rx="4.5" transform="rotate(-3.76337 24.5317 104.419)" fill="white" stroke="#F3F4F6"/>
<g clip-path="url(#clip6_482_698)">
<path d="M47.421 122.41L42.6692 125.475M42.6692 125.475L37.5568 123.059M42.6692 125.475L43.0318 130.987M48.0463 127.486L47.7365 122.776C47.7234 122.578 47.7168 122.478 47.6817 122.391C47.6506 122.315 47.6035 122.246 47.5436 122.188C47.4758 122.124 47.3857 122.081 47.2056 121.996L42.7548 119.893C42.5843 119.813 42.499 119.772 42.4107 119.76C42.3325 119.749 42.253 119.755 42.1769 119.776C42.0909 119.799 42.0117 119.85 41.8531 119.953L37.7162 122.62C37.5488 122.728 37.465 122.782 37.4063 122.855C37.3543 122.92 37.3167 122.994 37.2959 123.075C37.2725 123.165 37.279 123.265 37.2921 123.463L37.6019 128.173C37.615 128.372 37.6215 128.472 37.6566 128.558C37.6877 128.635 37.7348 128.704 37.7948 128.761C37.8626 128.826 37.9526 128.868 38.1328 128.953L42.5835 131.056C42.7541 131.137 42.8394 131.177 42.9277 131.19C43.0058 131.2 43.0854 131.195 43.1615 131.174C43.2474 131.151 43.3267 131.099 43.4852 130.997L47.6221 128.329C47.7896 128.221 47.8733 128.167 47.9321 128.094C47.984 128.03 48.0217 127.955 48.0424 127.875C48.0659 127.785 48.0594 127.685 48.0463 127.486Z" stroke="#111827" stroke-width="1.163" stroke-linecap="round" stroke-linejoin="round"/>
<path d="M45.1845 123.853L39.7715 121.295" stroke="black" stroke-width="1.163" stroke-linecap="round" stroke-linejoin="round"/>
</g>
<path d="M60.8181 122.04C60.7485 121.653 60.5473 121.362 60.2145 121.169C59.8816 120.973 59.4733 120.891 58.9898 120.923C58.6436 120.946 58.3478 121.02 58.1022 121.147C57.8565 121.27 57.6698 121.432 57.5422 121.631C57.4171 121.826 57.3624 122.044 57.3782 122.283C57.3913 122.483 57.4494 122.653 57.5524 122.793C57.6582 122.932 57.7912 123.046 57.9516 123.135C58.1145 123.221 58.2874 123.291 58.4703 123.345C58.6531 123.396 58.8282 123.437 58.9958 123.468L59.8341 123.628C60.1076 123.676 60.3896 123.747 60.68 123.841C60.9704 123.935 61.2425 124.066 61.4964 124.235C61.7503 124.403 61.9604 124.618 62.1266 124.88C62.2956 125.142 62.3926 125.463 62.4175 125.842C62.4489 126.32 62.3532 126.753 62.1304 127.14C61.9103 127.527 61.5737 127.843 61.1208 128.088C60.6705 128.333 60.1158 128.477 59.4564 128.52C58.8245 128.562 58.2712 128.497 57.7964 128.327C57.3217 128.157 56.9417 127.896 56.6565 127.545C56.3711 127.192 56.1979 126.761 56.137 126.255L57.4145 126.171C57.4593 126.474 57.575 126.722 57.7614 126.914C57.9504 127.103 58.1842 127.238 58.4627 127.319C58.7438 127.397 59.0478 127.425 59.3747 127.404C59.7346 127.38 60.051 127.303 60.3238 127.172C60.5992 127.038 60.8112 126.864 60.9599 126.65C61.1085 126.433 61.1737 126.187 61.1556 125.912C61.1392 125.662 61.0543 125.462 60.901 125.313C60.7504 125.162 60.5507 125.043 60.3021 124.955C60.0562 124.866 59.7796 124.792 59.4721 124.732L58.4569 124.526C57.769 124.386 57.2154 124.151 56.7963 123.819C56.3799 123.488 56.1524 123.028 56.1137 122.441C56.0818 121.954 56.1857 121.521 56.4256 121.141C56.6655 120.761 57.0041 120.456 57.4415 120.226C57.8787 119.993 58.3803 119.858 58.9462 119.821C59.5177 119.783 60.0284 119.85 60.4785 120.022C60.9312 120.194 61.2956 120.447 61.5714 120.782C61.8472 121.114 62.0054 121.507 62.0462 121.959L60.8181 122.04ZM64.9787 124.241L65.2259 128L63.9937 128.081L63.4386 119.641L64.6543 119.561L64.8608 122.701L64.9391 122.696C65.0651 122.346 65.2739 122.06 65.5657 121.839C65.8575 121.619 66.2492 121.492 66.741 121.46C67.1751 121.431 67.5601 121.496 67.896 121.653C68.2347 121.81 68.505 122.06 68.7069 122.403C68.9114 122.742 69.0309 123.176 69.0656 123.704L69.3305 127.73L68.0983 127.811L67.8432 123.933C67.8127 123.469 67.6695 123.117 67.4137 122.877C67.1576 122.634 66.8167 122.527 66.3909 122.555C66.0997 122.574 65.8427 122.653 65.6201 122.792C65.4002 122.931 65.2322 123.124 65.116 123.371C65.0024 123.616 64.9567 123.906 64.9787 124.241ZM70.9748 127.622L70.5584 121.292L71.7906 121.211L72.207 127.541L70.9748 127.622ZM71.1164 120.274C70.9022 120.288 70.7134 120.229 70.5501 120.096C70.3894 119.96 70.3025 119.792 70.2893 119.592C70.2759 119.388 70.3401 119.21 70.4818 119.058C70.6261 118.902 70.8054 118.817 71.0197 118.803C71.234 118.789 71.4215 118.85 71.5821 118.985C71.7454 119.118 71.8337 119.286 71.8471 119.489C71.8603 119.69 71.7947 119.868 71.6505 120.024C71.5087 120.177 71.3307 120.26 71.1164 120.274ZM74.0208 129.805L73.4483 121.102L74.6516 121.022L74.7191 122.049L74.8222 122.042C74.8849 121.905 74.9779 121.746 75.1012 121.564C75.2244 121.382 75.4013 121.219 75.6318 121.074C75.8622 120.926 76.1738 120.84 76.5666 120.814C77.0776 120.78 77.5422 120.879 77.9603 121.111C78.3784 121.343 78.7175 121.695 78.9775 122.166C79.2403 122.637 79.3941 123.215 79.4391 123.899C79.4841 124.583 79.4087 125.177 79.2128 125.681C79.0168 126.182 78.7283 126.578 78.3472 126.868C77.966 127.155 77.5199 127.315 77.0089 127.349C76.6243 127.374 76.3055 127.33 76.0525 127.217C75.8022 127.104 75.6027 126.965 75.4539 126.801C75.3052 126.637 75.1893 126.49 75.1063 126.361L75.0321 126.366L75.253 129.724L74.0208 129.805ZM74.864 124.187C74.8932 124.632 74.9835 125.018 75.1346 125.345C75.2858 125.671 75.4899 125.922 75.7469 126.095C76.0037 126.266 76.3093 126.339 76.6637 126.316C77.0318 126.292 77.3331 126.174 77.5676 125.963C77.8018 125.749 77.971 125.469 78.0752 125.122C78.1821 124.776 78.2216 124.391 78.1938 123.968C78.1663 123.551 78.0784 123.18 77.9302 122.856C77.7847 122.531 77.5806 122.281 77.318 122.105C77.058 121.929 76.7426 121.853 76.3717 121.878C76.0146 121.901 75.7184 122.013 75.4833 122.214C75.2509 122.414 75.0823 122.683 74.9776 123.021C74.8729 123.359 74.835 123.748 74.864 124.187ZM81.0271 126.96L80.6107 120.63L81.7934 120.553L81.8612 121.583L81.9395 121.578C82.0484 121.22 82.2462 120.934 82.5328 120.719C82.8193 120.502 83.1713 120.379 83.5889 120.352C84.012 120.324 84.3729 120.4 84.6717 120.579C84.9731 120.757 85.2039 121.015 85.3641 121.353L85.43 121.348C85.5589 121 85.7816 120.715 86.0981 120.493C86.4144 120.268 86.8006 120.141 87.2566 120.111C87.8308 120.073 88.3111 120.222 88.6974 120.558C89.0865 120.894 89.3049 121.424 89.3526 122.15L89.6318 126.394L88.3996 126.475L88.128 122.346C88.0998 121.918 87.9626 121.615 87.7164 121.438C87.4703 121.261 87.1851 121.183 86.8609 121.204C86.4598 121.231 86.1561 121.375 85.9498 121.637C85.7434 121.896 85.6528 122.218 85.6781 122.603L85.9435 126.637L84.7154 126.718L84.4386 122.51C84.416 122.167 84.2907 121.898 84.0627 121.703C83.8347 121.508 83.5489 121.422 83.2055 121.445C82.972 121.46 82.7604 121.536 82.5707 121.673C82.3836 121.807 82.2367 121.986 82.1301 122.211C82.0263 122.436 81.9837 122.691 82.0025 122.977L82.2592 126.879L81.0271 126.96ZM94.0199 126.234C93.3962 126.275 92.8503 126.177 92.3822 125.94C91.9167 125.701 91.5457 125.346 91.2692 124.875C90.9952 124.402 90.8367 123.837 90.7935 123.181C90.7508 122.532 90.8341 121.953 91.0434 121.443C91.2554 120.932 91.5706 120.523 91.9892 120.217C92.4106 119.911 92.9152 119.738 93.5031 119.7C93.8603 119.676 94.2103 119.712 94.5533 119.809C94.8962 119.905 95.2093 120.07 95.4924 120.306C95.7755 120.541 96.0073 120.855 96.1877 121.249C96.3679 121.64 96.4769 122.123 96.5147 122.697L96.5434 123.134L91.5116 123.465L91.4509 122.541L95.2752 122.29C95.2539 121.966 95.1691 121.683 95.0208 121.442C94.8723 121.198 94.6737 121.011 94.4251 120.881C94.1793 120.751 93.897 120.696 93.5783 120.717C93.2321 120.74 92.9355 120.845 92.6885 121.032C92.444 121.217 92.2607 121.449 92.1384 121.731C92.0188 122.009 91.9693 122.306 91.9901 122.622L92.0376 123.343C92.0654 123.766 92.1632 124.121 92.3311 124.408C92.5017 124.695 92.7268 124.908 93.0064 125.047C93.2857 125.183 93.6054 125.239 93.9653 125.215C94.1988 125.2 94.4095 125.153 94.5975 125.074C94.7853 124.993 94.9448 124.881 95.0761 124.737C95.2074 124.593 95.3036 124.42 95.3647 124.217L96.5448 124.35C96.474 124.7 96.3262 125.012 96.1014 125.286C95.8792 125.557 95.5915 125.776 95.2382 125.943C94.8875 126.107 94.4814 126.204 94.0199 126.234ZM99.0794 121.998L99.3266 125.757L98.0944 125.838L97.678 119.508L98.8608 119.43L98.9285 120.46L99.0068 120.455C99.1304 120.11 99.3407 119.826 99.6378 119.602C99.9376 119.379 100.325 119.251 100.8 119.22C101.232 119.191 101.616 119.257 101.952 119.417C102.288 119.574 102.556 119.824 102.758 120.167C102.96 120.51 103.078 120.942 103.113 121.464L103.378 125.49L102.145 125.571L101.89 121.693C101.86 121.235 101.717 120.884 101.461 120.641C101.205 120.396 100.868 120.287 100.45 120.315C100.165 120.333 99.9145 120.412 99.7001 120.55C99.4885 120.688 99.3259 120.881 99.2125 121.129C99.1017 121.373 99.0573 121.663 99.0794 121.998ZM107.569 118.857L107.634 119.846L104.176 120.074L104.111 119.085L107.569 118.857ZM104.938 117.507L106.171 117.426L106.565 123.414C106.58 123.653 106.628 123.831 106.707 123.947C106.786 124.06 106.884 124.135 106.999 124.172C107.117 124.205 107.244 124.218 107.378 124.209C107.477 124.202 107.563 124.19 107.637 124.171C107.71 124.153 107.767 124.138 107.808 124.127L108.097 125.13C108.027 125.162 107.928 125.196 107.798 125.233C107.668 125.272 107.504 125.299 107.306 125.315C106.982 125.341 106.676 125.304 106.388 125.201C106.1 125.099 105.861 124.927 105.671 124.685C105.482 124.444 105.374 124.132 105.349 123.751L104.938 117.507ZM115.25 124.709L112.518 124.889L111.963 116.449L114.782 116.264C115.609 116.209 116.33 116.332 116.946 116.63C117.561 116.927 118.048 117.379 118.405 117.987C118.765 118.593 118.974 119.334 119.031 120.21C119.089 121.089 118.978 121.855 118.698 122.508C118.421 123.161 117.991 123.678 117.409 124.058C116.827 124.436 116.107 124.653 115.25 124.709ZM113.718 123.693L115.107 123.601C115.75 123.559 116.276 123.403 116.686 123.133C117.096 122.861 117.392 122.487 117.573 122.011C117.754 121.533 117.822 120.96 117.778 120.292C117.735 119.63 117.592 119.075 117.35 118.628C117.111 118.18 116.776 117.85 116.346 117.638C115.915 117.427 115.392 117.341 114.777 117.382L113.309 117.478L113.718 123.693ZM123.531 124.293C122.907 124.334 122.361 124.236 121.893 123.999C121.428 123.759 121.057 123.404 120.78 122.934C120.506 122.461 120.348 121.896 120.304 121.24C120.262 120.591 120.345 120.012 120.554 119.501C120.766 118.991 121.081 118.582 121.5 118.276C121.921 117.97 122.426 117.797 123.014 117.759C123.371 117.735 123.721 117.771 124.064 117.867C124.407 117.963 124.72 118.129 125.003 118.364C125.286 118.6 125.518 118.914 125.699 119.308C125.879 119.699 125.988 120.181 126.026 120.756L126.054 121.192L121.022 121.523L120.962 120.6L124.786 120.349C124.765 120.025 124.68 119.742 124.532 119.5C124.383 119.256 124.185 119.069 123.936 118.94C123.69 118.809 123.408 118.755 123.089 118.776C122.743 118.799 122.446 118.904 122.199 119.091C121.955 119.275 121.772 119.508 121.649 119.789C121.53 120.068 121.48 120.365 121.501 120.681L121.548 121.402C121.576 121.825 121.674 122.18 121.842 122.467C122.013 122.754 122.238 122.967 122.517 123.106C122.797 123.242 123.116 123.298 123.476 123.274C123.71 123.259 123.92 123.212 124.108 123.133C124.296 123.052 124.456 122.939 124.587 122.796C124.718 122.652 124.814 122.478 124.876 122.276L126.056 122.409C125.985 122.759 125.837 123.071 125.612 123.345C125.39 123.616 125.102 123.835 124.749 124.002C124.398 124.165 123.992 124.263 123.531 124.293ZM130.144 117.372L130.209 118.361L126.751 118.589L126.686 117.6L130.144 117.372ZM127.514 116.022L128.746 115.941L129.14 121.929C129.155 122.168 129.203 122.346 129.282 122.462C129.361 122.575 129.459 122.65 129.574 122.687C129.692 122.72 129.819 122.733 129.953 122.724C130.052 122.717 130.138 122.705 130.212 122.686C130.285 122.668 130.342 122.653 130.383 122.642L130.672 123.645C130.603 123.677 130.503 123.712 130.373 123.748C130.243 123.787 130.079 123.814 129.881 123.83C129.558 123.856 129.252 123.819 128.963 123.716C128.675 123.614 128.436 123.442 128.246 123.2C128.057 122.959 127.949 122.647 127.924 122.266L127.514 116.022ZM133.774 123.632C133.373 123.658 133.006 123.608 132.672 123.481C132.338 123.351 132.066 123.149 131.858 122.876C131.652 122.603 131.536 122.258 131.509 121.844C131.485 121.486 131.535 121.188 131.657 120.948C131.779 120.708 131.952 120.513 132.177 120.363C132.402 120.213 132.656 120.095 132.94 120.007C133.224 119.919 133.514 119.848 133.812 119.792C134.188 119.723 134.493 119.667 134.728 119.624C134.962 119.579 135.13 119.519 135.233 119.446C135.336 119.373 135.383 119.263 135.373 119.114L135.371 119.085C135.347 118.726 135.227 118.453 135.011 118.269C134.797 118.084 134.491 118.005 134.093 118.031C133.678 118.059 133.357 118.172 133.13 118.372C132.906 118.569 132.756 118.782 132.68 119.01L131.505 118.822C131.617 118.429 131.797 118.105 132.045 117.852C132.296 117.595 132.591 117.402 132.93 117.272C133.269 117.139 133.629 117.06 134.011 117.035C134.264 117.019 134.534 117.031 134.821 117.073C135.11 117.112 135.384 117.201 135.641 117.342C135.901 117.482 136.121 117.692 136.299 117.973C136.478 118.251 136.582 118.621 136.612 119.082L136.889 123.286L135.686 123.365L135.629 122.5L135.579 122.503C135.51 122.668 135.401 122.832 135.252 122.996C135.102 123.161 134.906 123.302 134.663 123.42C134.419 123.538 134.123 123.609 133.774 123.632ZM133.977 122.625C134.318 122.602 134.605 122.516 134.838 122.365C135.073 122.215 135.247 122.027 135.359 121.801C135.474 121.573 135.523 121.334 135.507 121.084L135.453 120.268C135.412 120.315 135.329 120.362 135.206 120.408C135.084 120.452 134.945 120.493 134.787 120.531C134.63 120.566 134.476 120.6 134.326 120.632C134.176 120.661 134.051 120.686 133.95 120.706C133.713 120.752 133.498 120.817 133.305 120.902C133.115 120.986 132.965 121.099 132.856 121.242C132.749 121.381 132.703 121.561 132.717 121.781C132.737 122.086 132.865 122.309 133.101 122.451C133.336 122.59 133.628 122.648 133.977 122.625ZM138.53 123.178L138.114 116.848L139.346 116.767L139.762 123.097L138.53 123.178ZM138.672 115.83C138.458 115.845 138.269 115.785 138.105 115.652C137.945 115.517 137.858 115.349 137.845 115.148C137.831 114.945 137.895 114.767 138.037 114.614C138.181 114.458 138.361 114.373 138.575 114.359C138.789 114.345 138.977 114.406 139.137 114.542C139.301 114.674 139.389 114.842 139.402 115.046C139.416 115.246 139.35 115.424 139.206 115.58C139.064 115.733 138.886 115.816 138.672 115.83ZM142.097 114.467L142.652 122.907L141.42 122.988L140.865 114.548L142.097 114.467ZM148.739 117.701L147.635 117.973C147.579 117.833 147.495 117.702 147.385 117.579C147.278 117.457 147.136 117.36 146.961 117.288C146.785 117.217 146.569 117.19 146.314 117.207C145.965 117.23 145.679 117.327 145.456 117.499C145.232 117.668 145.128 117.875 145.145 118.12C145.158 118.331 145.248 118.497 145.413 118.615C145.578 118.734 145.838 118.823 146.192 118.883L147.213 119.047C147.804 119.144 148.252 119.323 148.556 119.584C148.86 119.845 149.027 120.2 149.057 120.648C149.081 121.027 148.994 121.372 148.794 121.683C148.596 121.992 148.307 122.242 147.928 122.436C147.552 122.629 147.108 122.742 146.597 122.776C145.888 122.822 145.3 122.709 144.832 122.436C144.365 122.161 144.061 121.746 143.923 121.193L145.102 120.933C145.197 121.238 145.364 121.463 145.606 121.607C145.847 121.749 146.153 121.807 146.524 121.783C146.928 121.756 147.245 121.651 147.476 121.468C147.706 121.282 147.813 121.066 147.797 120.822C147.784 120.624 147.699 120.463 147.542 120.338C147.388 120.213 147.157 120.126 146.85 120.077L145.763 119.913C145.164 119.817 144.713 119.631 144.41 119.356C144.111 119.08 143.946 118.717 143.917 118.267C143.892 117.893 143.975 117.559 144.165 117.265C144.356 116.971 144.63 116.734 144.988 116.553C145.345 116.37 145.762 116.262 146.237 116.231C146.921 116.186 147.469 116.299 147.882 116.57C148.294 116.838 148.58 117.215 148.739 117.701Z" fill="#111827"/>
<g filter="url(#filter6_d_482_698)">
<rect x="37.8203" y="140.363" width="91.8767" height="23.304" rx="4.65198" transform="rotate(-3.76337 37.8203 140.363)" fill="white"/>
<rect x="38.1295" y="140.634" width="91.2952" height="22.7225" rx="4.36123" transform="rotate(-3.76337 38.1295 140.634)" stroke="#D0D5DD" stroke-width="0.581498"/>
<path d="M38.3394 143.825C38.2235 142.063 39.5583 140.54 41.3209 140.424L60.759 139.145L62.2475 161.775L42.8094 163.053C41.0469 163.169 39.5241 161.834 39.4081 160.072L38.3394 143.825Z" fill="white"/>
<path d="M38.3394 143.825C38.2235 142.063 39.5583 140.54 41.3209 140.424L60.759 139.145L62.2475 161.775L42.8094 163.053C41.0469 163.169 39.5241 161.834 39.4081 160.072L38.3394 143.825Z" stroke="#D0D5DD" stroke-width="0.581498"/>
<path d="M46.8037 151.427L53.5732 150.982" stroke="#101828" stroke-width="1.163" stroke-linecap="round" stroke-linejoin="round"/>
<mask id="path-54-inside-2_482_698" fill="white">
<path d="M61.0303 138.836L106.289 135.859L107.819 159.113L62.5599 162.09L61.0303 138.836Z"/>
</mask>
<path d="M61.0303 138.836L106.289 135.859L107.819 159.113L62.5599 162.09L61.0303 138.836Z" fill="#F9FAFB"/>
<path d="M61.0684 139.416L106.327 136.439L106.251 135.279L60.9921 138.256L61.0684 139.416ZM107.781 158.532L62.5217 161.509L62.598 162.67L107.857 159.693L107.781 158.532Z" fill="#D0D5DD" mask="url(#path-54-inside-2_482_698)"/>
<path d="M84.7556 145.178L85.1997 151.93L84.3821 151.984L83.9944 146.089L83.9548 146.091L82.3784 147.294L82.3237 146.464L83.938 145.232L84.7556 145.178Z" fill="#101828"/>
<path d="M106.598 136.13L126.036 134.851C127.799 134.735 129.322 136.07 129.438 137.833L130.506 154.08C130.622 155.842 129.287 157.365 127.525 157.481L108.087 158.76L106.598 136.13Z" fill="white"/>
<path d="M106.598 136.13L126.036 134.851C127.799 134.735 129.322 136.07 129.438 137.833L130.506 154.08C130.622 155.842 129.287 157.365 127.525 157.481L108.087 158.76L106.598 136.13Z" stroke="#D0D5DD" stroke-width="0.581498"/>
<path d="M118.435 143.316L118.88 150.085M115.272 146.923L122.042 146.478" stroke="#101828" stroke-width="1.163" stroke-linecap="round" stroke-linejoin="round"/>
</g>
<g filter="url(#filter7_d_482_698)">
<g clip-path="url(#clip7_482_698)">
<rect x="137.622" y="133.798" width="65.1278" height="23.2599" rx="3.48899" transform="rotate(-3.76337 137.622 133.798)" fill="white"/>
<g clip-path="url(#clip8_482_698)">
<path d="M156.389 148.881L154.859 142.571L147.175 143.119L146.525 149.529L156.389 148.881Z" stroke="#667085" stroke-width="1.0467" stroke-linejoin="round"/>
<circle cx="150.942" cy="140.935" r="1.65727" transform="rotate(-3.76337 150.942 140.935)" stroke="#667085" stroke-width="1.0467"/>
</g>
<path d="M166.928 146.625C166.541 146.65 166.188 146.596 165.868 146.463C165.548 146.329 165.285 146.134 165.081 145.879C164.876 145.623 164.754 145.324 164.714 144.982L165.505 144.93C165.556 145.234 165.711 145.477 165.971 145.661C166.232 145.843 166.535 145.922 166.88 145.899C167.157 145.881 167.399 145.8 167.606 145.656C167.815 145.512 167.974 145.323 168.082 145.088C168.192 144.852 168.238 144.589 168.219 144.301C168.199 144.007 168.117 143.748 167.972 143.526C167.83 143.302 167.642 143.13 167.409 143.01C167.176 142.891 166.915 142.84 166.627 142.856C166.42 142.868 166.21 142.914 165.997 142.994C165.784 143.072 165.61 143.166 165.476 143.276L164.705 143.234L164.895 139.884L168.403 139.654L168.451 140.379L165.629 140.565L165.522 142.571L165.562 142.569C165.693 142.45 165.861 142.347 166.065 142.261C166.269 142.175 166.484 142.124 166.71 142.109C167.124 142.082 167.498 142.157 167.834 142.333C168.172 142.508 168.445 142.759 168.652 143.087C168.861 143.416 168.98 143.799 169.009 144.236C169.037 144.667 168.966 145.058 168.795 145.409C168.626 145.758 168.38 146.041 168.056 146.259C167.733 146.474 167.356 146.596 166.928 146.625ZM173.418 139.324L173.862 146.076L173.084 146.127L172.64 139.375L173.418 139.324ZM175.393 145.975L174.949 139.223L175.727 139.172L175.891 141.664L175.957 141.66C176.008 141.568 176.08 141.451 176.172 141.308C176.266 141.163 176.405 141.03 176.59 140.91C176.776 140.787 177.034 140.715 177.363 140.693C177.79 140.665 178.173 140.747 178.512 140.939C178.851 141.131 179.125 141.416 179.333 141.795C179.541 142.175 179.663 142.63 179.698 143.162C179.733 143.698 179.673 144.169 179.516 144.575C179.359 144.978 179.126 145.298 178.818 145.535C178.508 145.769 178.143 145.9 177.721 145.928C177.396 145.949 177.132 145.913 176.929 145.818C176.726 145.721 176.567 145.606 176.453 145.475C176.338 145.341 176.249 145.23 176.186 145.141L176.094 145.148L176.145 145.926L175.393 145.975ZM175.991 143.393C176.017 143.775 176.095 144.109 176.226 144.394C176.357 144.677 176.536 144.893 176.762 145.044C176.988 145.192 177.257 145.256 177.569 145.236C177.895 145.214 178.161 145.111 178.367 144.925C178.575 144.737 178.725 144.493 178.815 144.194C178.908 143.892 178.943 143.561 178.919 143.2C178.896 142.844 178.819 142.527 178.691 142.248C178.564 141.967 178.385 141.751 178.155 141.598C177.926 141.443 177.647 141.377 177.317 141.398C177.001 141.419 176.74 141.517 176.535 141.691C176.33 141.864 176.182 142.097 176.091 142.39C176 142.68 175.966 143.015 175.991 143.393Z" fill="#101828"/>
</g>
<rect x="137.931" y="134.069" width="64.5463" height="22.6784" rx="3.19824" transform="rotate(-3.76337 137.931 134.069)" stroke="#D0D5DD" stroke-width="0.581498"/>
</g>
<g filter="url(#filter8_d_482_698)">
<g clip-path="url(#clip9_482_698)">
<rect x="210.733" y="128.989" width="45.3568" height="23.2599" rx="3.48899" transform="rotate(-3.76337 210.733 128.989)" fill="white"/>
<rect x="218.23" y="136.654" width="31.4009" height="6.97797" rx="3.48899" transform="rotate(-3.76337 218.23 136.654)" fill="#E5E7EB"/>
</g>
<rect x="211.043" y="129.26" width="44.7753" height="22.6784" rx="3.19824" transform="rotate(-3.76337 211.043 129.26)" stroke="#D0D5DD" stroke-width="0.581498"/>
</g>
</g>
<defs>
<filter id="filter0_d_482_698" x="151.494" y="31.6608" width="47.2599" height="47.2599" filterUnits="userSpaceOnUse" color-interpolation-filters="sRGB">
<feFlood flood-opacity="0" result="BackgroundImageFix"/>
<feColorMatrix in="SourceAlpha" type="matrix" values="0 0 0 0 0 0 0 0 0 0 0 0 0 0 0 0 0 0 127 0" result="hardAlpha"/>
<feMorphology radius="0.581498" operator="erode" in="SourceAlpha" result="effect1_dropShadow_482_698"/>
<feOffset dy="0.581498"/>
<feGaussianBlur stdDeviation="6"/>
<feColorMatrix type="matrix" values="0 0 0 0 0 0 0 0 0 0 0 0 0 0 0 0 0 0 0.1 0"/>
<feBlend mode="normal" in2="BackgroundImageFix" result="effect1_dropShadow_482_698"/>
<feBlend mode="normal" in="SourceGraphic" in2="effect1_dropShadow_482_698" result="shape"/>
</filter>
<filter id="filter1_f_482_698" x="21.3174" y="59.0327" width="324.729" height="125.109" filterUnits="userSpaceOnUse" color-interpolation-filters="sRGB">
<feFlood flood-opacity="0" result="BackgroundImageFix"/>
<feBlend mode="normal" in="SourceGraphic" in2="BackgroundImageFix" result="shape"/>
<feGaussianBlur stdDeviation="7" result="effect1_foregroundBlur_482_698"/>
</filter>
<filter id="filter2_d_482_698" x="48.337" y="123.229" width="100.048" height="31.907" filterUnits="userSpaceOnUse" color-interpolation-filters="sRGB">
<feFlood flood-opacity="0" result="BackgroundImageFix"/>
<feColorMatrix in="SourceAlpha" type="matrix" values="0 0 0 0 0 0 0 0 0 0 0 0 0 0 0 0 0 0 127 0" result="hardAlpha"/>
<feOffset dy="0.581498"/>
<feGaussianBlur stdDeviation="0.581498"/>
<feColorMatrix type="matrix" values="0 0 0 0 0.0627451 0 0 0 0 0.0941176 0 0 0 0 0.156863 0 0 0 0.05 0"/>
<feBlend mode="normal" in2="BackgroundImageFix" result="effect1_dropShadow_482_698"/>
<feBlend mode="normal" in="SourceGraphic" in2="effect1_dropShadow_482_698" result="shape"/>
</filter>
<filter id="filter3_d_482_698" x="153.053" y="118.394" width="68.8402" height="29.8105" filterUnits="userSpaceOnUse" color-interpolation-filters="sRGB">
<feFlood flood-opacity="0" result="BackgroundImageFix"/>
<feColorMatrix in="SourceAlpha" type="matrix" values="0 0 0 0 0 0 0 0 0 0 0 0 0 0 0 0 0 0 127 0" result="hardAlpha"/>
<feOffset dy="0.581498"/>
<feGaussianBlur stdDeviation="0.581498"/>
<feColorMatrix type="matrix" values="0 0 0 0 0.0627451 0 0 0 0 0.0941176 0 0 0 0 0.156863 0 0 0 0.05 0"/>
<feBlend mode="normal" in2="BackgroundImageFix" result="effect1_dropShadow_482_698"/>
<feBlend mode="normal" in="SourceGraphic" in2="effect1_dropShadow_482_698" result="shape"/>
</filter>
<filter id="filter4_d_482_698" x="229.764" y="114.645" width="49.1116" height="28.5128" filterUnits="userSpaceOnUse" color-interpolation-filters="sRGB">
<feFlood flood-opacity="0" result="BackgroundImageFix"/>
<feColorMatrix in="SourceAlpha" type="matrix" values="0 0 0 0 0 0 0 0 0 0 0 0 0 0 0 0 0 0 127 0" result="hardAlpha"/>
<feOffset dy="0.581498"/>
<feGaussianBlur stdDeviation="0.581498"/>
<feColorMatrix type="matrix" values="0 0 0 0 0.0627451 0 0 0 0 0.0941176 0 0 0 0 0.156863 0 0 0 0.05 0"/>
<feBlend mode="normal" in2="BackgroundImageFix" result="effect1_dropShadow_482_698"/>
<feBlend mode="normal" in="SourceGraphic" in2="effect1_dropShadow_482_698" result="shape"/>
</filter>
<filter id="filter5_d_482_698" x="0.317383" y="64.3172" width="355.632" height="142.157" filterUnits="userSpaceOnUse" color-interpolation-filters="sRGB">
<feFlood flood-opacity="0" result="BackgroundImageFix"/>
<feColorMatrix in="SourceAlpha" type="matrix" values="0 0 0 0 0 0 0 0 0 0 0 0 0 0 0 0 0 0 127 0" result="hardAlpha"/>
<feOffset dy="4"/>
<feGaussianBlur stdDeviation="12"/>
<feComposite in2="hardAlpha" operator="out"/>
<feColorMatrix type="matrix" values="0 0 0 0 0.961085 0 0 0 0 0.961085 0 0 0 0 0.961085 0 0 0 1 0"/>
<feBlend mode="normal" in2="BackgroundImageFix" result="effect1_dropShadow_482_698"/>
<feBlend mode="normal" in="SourceGraphic" in2="effect1_dropShadow_482_698" result="shape"/>
</filter>
<filter id="filter6_d_482_698" x="36.6573" y="133.751" width="95.534" height="31.6101" filterUnits="userSpaceOnUse" color-interpolation-filters="sRGB">
<feFlood flood-opacity="0" result="BackgroundImageFix"/>
<feColorMatrix in="SourceAlpha" type="matrix" values="0 0 0 0 0 0 0 0 0 0 0 0 0 0 0 0 0 0 127 0" result="hardAlpha"/>
<feOffset dy="0.581498"/>
<feGaussianBlur stdDeviation="0.581498"/>
<feColorMatrix type="matrix" values="0 0 0 0 0.0627451 0 0 0 0 0.0941176 0 0 0 0 0.156863 0 0 0 0.05 0"/>
<feBlend mode="normal" in2="BackgroundImageFix" result="effect1_dropShadow_482_698"/>
<feBlend mode="normal" in="SourceGraphic" in2="effect1_dropShadow_482_698" result="shape"/>
</filter>
<filter id="filter7_d_482_698" x="136.459" y="128.942" width="68.8402" height="29.8105" filterUnits="userSpaceOnUse" color-interpolation-filters="sRGB">
<feFlood flood-opacity="0" result="BackgroundImageFix"/>
<feColorMatrix in="SourceAlpha" type="matrix" values="0 0 0 0 0 0 0 0 0 0 0 0 0 0 0 0 0 0 127 0" result="hardAlpha"/>
<feOffset dy="0.581498"/>
<feGaussianBlur stdDeviation="0.581498"/>
<feColorMatrix type="matrix" values="0 0 0 0 0.0627451 0 0 0 0 0.0941176 0 0 0 0 0.156863 0 0 0 0.05 0"/>
<feBlend mode="normal" in2="BackgroundImageFix" result="effect1_dropShadow_482_698"/>
<feBlend mode="normal" in="SourceGraphic" in2="effect1_dropShadow_482_698" result="shape"/>
</filter>
<filter id="filter8_d_482_698" x="209.57" y="125.43" width="49.1116" height="28.5128" filterUnits="userSpaceOnUse" color-interpolation-filters="sRGB">
<feFlood flood-opacity="0" result="BackgroundImageFix"/>
<feColorMatrix in="SourceAlpha" type="matrix" values="0 0 0 0 0 0 0 0 0 0 0 0 0 0 0 0 0 0 127 0" result="hardAlpha"/>
<feOffset dy="0.581498"/>
<feGaussianBlur stdDeviation="0.581498"/>
<feColorMatrix type="matrix" values="0 0 0 0 0.0627451 0 0 0 0 0.0941176 0 0 0 0 0.156863 0 0 0 0.05 0"/>
<feBlend mode="normal" in2="BackgroundImageFix" result="effect1_dropShadow_482_698"/>
<feBlend mode="normal" in="SourceGraphic" in2="effect1_dropShadow_482_698" result="shape"/>
</filter>
<clipPath id="clip0_482_698">
<rect width="12" height="12" fill="white" transform="translate(53 45)"/>
</clipPath>
<clipPath id="clip1_482_698">
<rect width="13.9559" height="13.9559" fill="white" transform="translate(188 25.022)"/>
</clipPath>
<clipPath id="clip2_482_698">
<rect width="12" height="12" fill="white" transform="translate(208 45)"/>
</clipPath>
<clipPath id="clip3_482_698">
<rect x="154.216" y="123.25" width="65.1278" height="23.2599" rx="3.48899" transform="rotate(-3.76337 154.216 123.25)" fill="white"/>
</clipPath>
<clipPath id="clip4_482_698">
<rect width="11.63" height="11.63" fill="white" transform="translate(161.56 128.594) rotate(-3.76337)"/>
</clipPath>
<clipPath id="clip5_482_698">
<rect x="230.927" y="118.204" width="45.3568" height="23.2599" rx="3.48899" transform="rotate(-3.76337 230.927 118.204)" fill="white"/>
</clipPath>
<clipPath id="clip6_482_698">
<rect width="13.9559" height="13.9559" fill="white" transform="translate(35.248 118.97) rotate(-3.76337)"/>
</clipPath>
<clipPath id="clip7_482_698">
<rect x="137.622" y="133.798" width="65.1278" height="23.2599" rx="3.48899" transform="rotate(-3.76337 137.622 133.798)" fill="white"/>
</clipPath>
<clipPath id="clip8_482_698">
<rect width="11.63" height="11.63" fill="white" transform="translate(144.966 139.142) rotate(-3.76337)"/>
</clipPath>
<clipPath id="clip9_482_698">
<rect x="210.733" y="128.989" width="45.3568" height="23.2599" rx="3.48899" transform="rotate(-3.76337 210.733 128.989)" fill="white"/>
</clipPath>
</defs>
</svg>
