<svg width="404" height="192" viewBox="0 0 404 192" fill="none" xmlns="http://www.w3.org/2000/svg">
<rect x="23.2907" y="0.290749" width="147.419" height="77.4185" rx="4.70925" fill="#F9FAFB" stroke="#F3F4F6" stroke-width="0.581498"/>
<circle cx="40.2154" cy="16.9384" r="5.23348" stroke="#111827" stroke-width="1.163"/>
<circle cx="40.2166" cy="16.9383" r="2.32599" fill="#111827"/>
<path d="M58.5517 14.7021C58.5076 14.3112 58.3259 14.0083 58.0065 13.7935C57.6871 13.576 57.2852 13.4673 56.8006 13.4673C56.4537 13.4673 56.1536 13.5223 55.9002 13.6325C55.6469 13.7398 55.4501 13.8885 55.3097 14.0785C55.172 14.2657 55.1032 14.4791 55.1032 14.7186C55.1032 14.9196 55.15 15.0931 55.2436 15.239C55.3399 15.3849 55.4652 15.5075 55.6194 15.6066C55.7763 15.7029 55.9443 15.7842 56.1233 15.8502C56.3022 15.9136 56.4743 15.9659 56.6395 16.0072L57.4655 16.2219C57.7353 16.288 58.012 16.3775 58.2956 16.4904C58.5792 16.6033 58.8422 16.752 59.0844 16.9364C59.3267 17.1209 59.5222 17.3494 59.6709 17.622C59.8223 17.8946 59.898 18.2208 59.898 18.6008C59.898 19.0799 59.7741 19.5053 59.5263 19.877C59.2813 20.2487 58.9248 20.5419 58.4567 20.7566C57.9914 20.9714 57.4283 21.0788 56.7675 21.0788C56.1343 21.0788 55.5864 20.9783 55.1238 20.7773C54.6613 20.5763 54.2992 20.2913 54.0376 19.9224C53.7761 19.5507 53.6315 19.1102 53.604 18.6008H54.8843C54.9091 18.9064 55.0082 19.1611 55.1816 19.3648C55.3578 19.5658 55.5822 19.7159 55.8548 19.815C56.1301 19.9114 56.4316 19.9596 56.7593 19.9596C57.12 19.9596 57.4407 19.9031 57.7216 19.7902C58.0051 19.6746 58.2282 19.5149 58.3906 19.3112C58.5531 19.1047 58.6343 18.8637 58.6343 18.5884C58.6343 18.3379 58.5627 18.1327 58.4195 17.973C58.2791 17.8134 58.0877 17.6812 57.8455 17.5766C57.6059 17.4719 57.3347 17.3797 57.0319 17.2999L56.0324 17.0273C55.3551 16.8428 54.8182 16.5716 54.4217 16.2137C54.028 15.8558 53.8311 15.3822 53.8311 14.793C53.8311 14.3056 53.9633 13.8803 54.2276 13.5168C54.4919 13.1534 54.8499 12.8712 55.3014 12.6702C55.7529 12.4664 56.2623 12.3646 56.8295 12.3646C57.4022 12.3646 57.9074 12.4651 58.3452 12.6661C58.7857 12.867 59.1326 13.1438 59.3859 13.4962C59.6392 13.8458 59.7714 14.2478 59.7824 14.7021H58.5517ZM62.5588 17.1718V20.9384H61.3239V12.4802H62.5422V15.6272H62.6207C62.7694 15.2858 62.9965 15.0146 63.3022 14.8136C63.6078 14.6126 64.007 14.5121 64.4998 14.5121C64.9349 14.5121 65.3148 14.6016 65.6397 14.7806C65.9674 14.9596 66.2207 15.2266 66.3996 15.5818C66.5813 15.9342 66.6722 16.3748 66.6722 16.9034V20.9384H65.4373V17.0521C65.4373 16.5868 65.3176 16.2261 65.078 15.97C64.8385 15.7112 64.5054 15.5818 64.0786 15.5818C63.7867 15.5818 63.5252 15.6438 63.2939 15.7676C63.0654 15.8915 62.885 16.0733 62.7529 16.3128C62.6235 16.5496 62.5588 16.8359 62.5588 17.1718ZM68.3201 20.9384V14.5947H69.5549V20.9384H68.3201ZM68.9437 13.6159C68.7289 13.6159 68.5445 13.5444 68.3903 13.4012C68.2388 13.2553 68.1631 13.0818 68.1631 12.8808C68.1631 12.6771 68.2388 12.5036 68.3903 12.3604C68.5445 12.2145 68.7289 12.1415 68.9437 12.1415C69.1584 12.1415 69.3415 12.2145 69.493 12.3604C69.6471 12.5036 69.7242 12.6771 69.7242 12.8808C69.7242 13.0818 69.6471 13.2553 69.493 13.4012C69.3415 13.5444 69.1584 13.6159 68.9437 13.6159ZM71.2162 23.3172V14.5947H72.4221V15.6231H72.5254C72.597 15.4909 72.7002 15.3381 72.8351 15.1647C72.97 14.9912 73.1573 14.8398 73.3968 14.7104C73.6363 14.5782 73.953 14.5121 74.3467 14.5121C74.8588 14.5121 75.3159 14.6415 75.7178 14.9004C76.1198 15.1592 76.4351 15.5322 76.6636 16.0196C76.8949 16.5069 77.0105 17.0934 77.0105 17.7789C77.0105 18.4645 76.8963 19.0523 76.6677 19.5424C76.4392 20.0298 76.1253 20.4056 75.7261 20.6699C75.3269 20.9315 74.8712 21.0623 74.3591 21.0623C73.9736 21.0623 73.6584 20.9976 73.4133 20.8681C73.171 20.7387 72.9811 20.5873 72.8434 20.4139C72.7057 20.2404 72.5997 20.0862 72.5254 19.9513H72.451V23.3172H71.2162ZM72.4263 17.7665C72.4263 18.2126 72.491 18.6036 72.6204 18.9395C72.7498 19.2754 72.937 19.5383 73.182 19.7283C73.4271 19.9155 73.7272 20.0091 74.0824 20.0091C74.4513 20.0091 74.7597 19.9114 75.0075 19.7159C75.2553 19.5176 75.4425 19.2492 75.5692 18.9105C75.6986 18.5719 75.7633 18.1906 75.7633 17.7665C75.7633 17.348 75.6999 16.9722 75.5733 16.6391C75.4494 16.3059 75.2622 16.043 75.0116 15.8502C74.7638 15.6575 74.4541 15.5612 74.0824 15.5612C73.7244 15.5612 73.4216 15.6534 73.1738 15.8379C72.9287 16.0223 72.7429 16.2798 72.6162 16.6102C72.4896 16.9406 72.4263 17.326 72.4263 17.7665ZM81.571 20.9384V12.4802H86.8161V13.5788H82.8472V16.1559H86.4402V17.2503H82.8472V20.9384H81.571ZM88.2068 20.9384V14.5947H89.4004V15.6025H89.4665C89.5821 15.261 89.7858 14.9926 90.0777 14.7971C90.3723 14.5989 90.7054 14.4998 91.0771 14.4998C91.1542 14.4998 91.2451 14.5025 91.3497 14.508C91.4571 14.5135 91.5411 14.5204 91.6017 14.5287V15.7098C91.5521 15.6961 91.464 15.6809 91.3373 15.6644C91.2107 15.6451 91.084 15.6355 90.9574 15.6355C90.6655 15.6355 90.4053 15.6974 90.1768 15.8213C89.951 15.9425 89.7721 16.1118 89.6399 16.3293C89.5078 16.5441 89.4417 16.7891 89.4417 17.0645V20.9384H88.2068ZM95.1152 21.0664C94.5205 21.0664 94.0015 20.9301 93.5582 20.6575C93.1149 20.3849 92.7708 20.0036 92.5257 19.5135C92.2807 19.0234 92.1582 18.4507 92.1582 17.7955C92.1582 17.1374 92.2807 16.562 92.5257 16.0691C92.7708 15.5763 93.1149 15.1936 93.5582 14.921C94.0015 14.6484 94.5205 14.5121 95.1152 14.5121C95.7099 14.5121 96.2289 14.6484 96.6722 14.921C97.1155 15.1936 97.4597 15.5763 97.7047 16.0691C97.9497 16.562 98.0723 17.1374 98.0723 17.7955C98.0723 18.4507 97.9497 19.0234 97.7047 19.5135C97.4597 20.0036 97.1155 20.3849 96.6722 20.6575C96.2289 20.9301 95.7099 21.0664 95.1152 21.0664ZM95.1193 20.0298C95.5048 20.0298 95.8242 19.9279 96.0775 19.7241C96.3308 19.5204 96.518 19.2492 96.6392 18.9105C96.7631 18.5719 96.825 18.1988 96.825 17.7913C96.825 17.3866 96.7631 17.0149 96.6392 16.6762C96.518 16.3348 96.3308 16.0609 96.0775 15.8544C95.8242 15.6479 95.5048 15.5446 95.1193 15.5446C94.7311 15.5446 94.409 15.6479 94.1529 15.8544C93.8996 16.0609 93.711 16.3348 93.5871 16.6762C93.466 17.0149 93.4054 17.3866 93.4054 17.7913C93.4054 18.1988 93.466 18.5719 93.5871 18.9105C93.711 19.2492 93.8996 19.5204 94.1529 19.7241C94.409 19.9279 94.7311 20.0298 95.1193 20.0298ZM99.4506 20.9384V14.5947H100.636V15.6272H100.714C100.847 15.2776 101.063 15.005 101.363 14.8095C101.663 14.6113 102.022 14.5121 102.441 14.5121C102.865 14.5121 103.22 14.6113 103.506 14.8095C103.795 15.0077 104.009 15.2803 104.146 15.6272H104.212C104.364 15.2886 104.605 15.0188 104.935 14.8178C105.266 14.614 105.659 14.5121 106.116 14.5121C106.692 14.5121 107.161 14.6925 107.525 15.0532C107.891 15.4138 108.074 15.9576 108.074 16.6845V20.9384H106.839V16.8001C106.839 16.3706 106.722 16.0595 106.488 15.8668C106.254 15.674 105.975 15.5777 105.65 15.5777C105.248 15.5777 104.935 15.7016 104.712 15.9494C104.489 16.1944 104.378 16.5097 104.378 16.8951V20.9384H103.147V16.7217C103.147 16.3775 103.04 16.1008 102.825 15.8915C102.61 15.6823 102.331 15.5777 101.986 15.5777C101.752 15.5777 101.536 15.6396 101.338 15.7635C101.143 15.8847 100.984 16.054 100.863 16.2715C100.745 16.489 100.685 16.7409 100.685 17.0273V20.9384H99.4506Z" fill="#111827"/>
<g clip-path="url(#clip0_400_763)">
<path d="M59 42C62.3137 42 65 39.3137 65 36C65 32.6863 62.3137 30 59 30C55.6863 30 53 32.6863 53 36C53 39.3137 55.6863 42 59 42Z" fill="#F0F0F0"/>
<path d="M65.0007 36C65.0007 33.6212 63.6164 31.5658 61.6094 30.5953V41.4046C63.6164 40.4341 65.0007 38.3787 65.0007 36V36Z" fill="#D80027"/>
<path d="M53 36C53 38.3787 54.3843 40.4341 56.3913 41.4046V30.5953C54.3843 31.5658 53 33.6212 53 36Z" fill="#D80027"/>
<path d="M60.0425 36.7826L61.086 36.2609L60.5643 36V35.4783L59.5208 36L60.0425 34.9566H59.5208L58.9991 34.174L58.4773 34.9566H57.9556L58.4773 36L57.4338 35.4783V36L56.9121 36.2609L57.9556 36.7826L57.6947 37.3044H58.7382V38.087H59.2599V37.3044H60.3034L60.0425 36.7826Z" fill="#D80027"/>
</g>
<path d="M75.733 35H74.8523C74.8002 34.7467 74.709 34.5241 74.5788 34.3324C74.451 34.1406 74.2947 33.9796 74.1101 33.8494C73.9278 33.7169 73.7254 33.6174 73.5028 33.5511C73.2803 33.4848 73.0483 33.4517 72.8068 33.4517C72.3665 33.4517 71.9676 33.563 71.6101 33.7855C71.255 34.008 70.9721 34.3359 70.7614 34.7692C70.553 35.2024 70.4489 35.7339 70.4489 36.3636C70.4489 36.9934 70.553 37.5249 70.7614 37.9581C70.9721 38.3913 71.255 38.7192 71.6101 38.9418C71.9676 39.1643 72.3665 39.2756 72.8068 39.2756C73.0483 39.2756 73.2803 39.2424 73.5028 39.1761C73.7254 39.1098 73.9278 39.0116 74.1101 38.8814C74.2947 38.7488 74.451 38.5866 74.5788 38.3949C74.709 38.2008 74.8002 37.9782 74.8523 37.7273H75.733C75.6667 38.099 75.5459 38.4316 75.3707 38.7251C75.1955 39.0187 74.9777 39.2685 74.7173 39.4744C74.4569 39.678 74.1645 39.8331 73.8402 39.9396C73.5182 40.0462 73.1738 40.0994 72.8068 40.0994C72.1866 40.0994 71.6349 39.9479 71.152 39.6449C70.669 39.3419 70.2891 38.911 70.0121 38.3523C69.7351 37.7936 69.5966 37.1307 69.5966 36.3636C69.5966 35.5966 69.7351 34.9337 70.0121 34.375C70.2891 33.8163 70.669 33.3854 71.152 33.0824C71.6349 32.7794 72.1866 32.6278 72.8068 32.6278C73.1738 32.6278 73.5182 32.6811 73.8402 32.7876C74.1645 32.8942 74.4569 33.0504 74.7173 33.2564C74.9777 33.46 75.1955 33.7086 75.3707 34.0021C75.5459 34.2933 75.6667 34.6259 75.733 35ZM78.6475 40.1278C78.3019 40.1278 77.9882 40.0627 77.7065 39.9325C77.4248 39.8 77.2011 39.6094 77.0353 39.3608C76.8696 39.1098 76.7868 38.8068 76.7868 38.4517C76.7868 38.1392 76.8483 37.8859 76.9714 37.6918C77.0945 37.4953 77.2591 37.3414 77.465 37.2301C77.671 37.1188 77.8983 37.036 78.1468 36.9815C78.3978 36.9247 78.6499 36.8797 78.9032 36.8466C79.2347 36.804 79.5034 36.772 79.7093 36.7507C79.9177 36.727 80.0692 36.688 80.1639 36.6335C80.2609 36.5791 80.3095 36.4844 80.3095 36.3494V36.321C80.3095 35.9706 80.2136 35.6984 80.0218 35.5043C79.8324 35.3101 79.5448 35.2131 79.1589 35.2131C78.7588 35.2131 78.4451 35.3007 78.2179 35.4759C77.9906 35.651 77.8308 35.8381 77.7385 36.0369L76.943 35.7528C77.085 35.4214 77.2744 35.1634 77.5112 34.9787C77.7503 34.7917 78.0107 34.6615 78.2924 34.5881C78.5765 34.5123 78.8559 34.4744 79.1305 34.4744C79.3057 34.4744 79.5069 34.4957 79.7342 34.5384C79.9638 34.5786 80.1852 34.6626 80.3983 34.7905C80.6137 34.9183 80.7924 35.1113 80.9345 35.3693C81.0765 35.6274 81.1475 35.973 81.1475 36.4062V40H80.3095V39.2614H80.2669C80.21 39.3797 80.1154 39.5064 79.9828 39.6413C79.8502 39.7763 79.6738 39.8911 79.4537 39.9858C79.2335 40.0805 78.9648 40.1278 78.6475 40.1278ZM78.7754 39.375C79.1068 39.375 79.3862 39.3099 79.6135 39.1797C79.8431 39.0495 80.0159 38.8814 80.1319 38.6754C80.2503 38.4695 80.3095 38.2528 80.3095 38.0256V37.2585C80.274 37.3011 80.1958 37.3402 80.0751 37.3757C79.9567 37.4089 79.8194 37.4384 79.6632 37.4645C79.5093 37.4882 79.359 37.5095 79.2122 37.5284C79.0678 37.545 78.9506 37.5592 78.8606 37.571C78.6428 37.5994 78.4392 37.6456 78.2498 37.7095C78.0628 37.7711 77.9113 37.8646 77.7953 37.9901C77.6816 38.1132 77.6248 38.2812 77.6248 38.4943C77.6248 38.7855 77.7325 39.0057 77.948 39.1548C78.1658 39.3016 78.4416 39.375 78.7754 39.375ZM83.5153 36.7188V40H82.6772V34.5455H83.4869V35.3977H83.5579C83.6857 35.1207 83.8799 34.8982 84.1403 34.7301C84.4007 34.5597 84.7369 34.4744 85.1488 34.4744C85.5181 34.4744 85.8413 34.5502 86.1183 34.7017C86.3952 34.8509 86.6107 35.0781 86.7646 35.3835C86.9184 35.6866 86.9954 36.0701 86.9954 36.5341V40H86.1573V36.5909C86.1573 36.1624 86.046 35.8286 85.8235 35.5895C85.601 35.348 85.2956 35.2273 84.9073 35.2273C84.6398 35.2273 84.4007 35.2853 84.19 35.4013C83.9817 35.5173 83.8171 35.6866 83.6964 35.9091C83.5756 36.1316 83.5153 36.4015 83.5153 36.7188ZM90.1319 40.1278C89.7863 40.1278 89.4726 40.0627 89.1909 39.9325C88.9092 39.8 88.6854 39.6094 88.5197 39.3608C88.354 39.1098 88.2711 38.8068 88.2711 38.4517C88.2711 38.1392 88.3327 37.8859 88.4558 37.6918C88.5789 37.4953 88.7434 37.3414 88.9494 37.2301C89.1554 37.1188 89.3826 37.036 89.6312 36.9815C89.8822 36.9247 90.1343 36.8797 90.3876 36.8466C90.719 36.804 90.9877 36.772 91.1937 36.7507C91.402 36.727 91.5536 36.688 91.6483 36.6335C91.7453 36.5791 91.7939 36.4844 91.7939 36.3494V36.321C91.7939 35.9706 91.698 35.6984 91.5062 35.5043C91.3168 35.3101 91.0292 35.2131 90.6433 35.2131C90.2432 35.2131 89.9295 35.3007 89.7022 35.4759C89.475 35.651 89.3152 35.8381 89.2228 36.0369L88.4274 35.7528C88.5694 35.4214 88.7588 35.1634 88.9956 34.9787C89.2347 34.7917 89.4951 34.6615 89.7768 34.5881C90.0609 34.5123 90.3403 34.4744 90.6149 34.4744C90.7901 34.4744 90.9913 34.4957 91.2186 34.5384C91.4482 34.5786 91.6696 34.6626 91.8826 34.7905C92.0981 34.9183 92.2768 35.1113 92.4189 35.3693C92.5609 35.6274 92.6319 35.973 92.6319 36.4062V40H91.7939V39.2614H91.7512C91.6944 39.3797 91.5997 39.5064 91.4672 39.6413C91.3346 39.7763 91.1582 39.8911 90.938 39.9858C90.7179 40.0805 90.4492 40.1278 90.1319 40.1278ZM90.2598 39.375C90.5912 39.375 90.8706 39.3099 91.0978 39.1797C91.3275 39.0495 91.5003 38.8814 91.6163 38.6754C91.7347 38.4695 91.7939 38.2528 91.7939 38.0256V37.2585C91.7583 37.3011 91.6802 37.3402 91.5595 37.3757C91.4411 37.4089 91.3038 37.4384 91.1475 37.4645C90.9937 37.4882 90.8433 37.5095 90.6966 37.5284C90.5521 37.545 90.435 37.5592 90.345 37.571C90.1272 37.5994 89.9236 37.6456 89.7342 37.7095C89.5472 37.7711 89.3957 37.8646 89.2797 37.9901C89.166 38.1132 89.1092 38.2812 89.1092 38.4943C89.1092 38.7855 89.2169 39.0057 89.4324 39.1548C89.6502 39.3016 89.926 39.375 90.2598 39.375ZM96.2212 40.1136C95.7667 40.1136 95.3654 39.9988 95.0174 39.7692C94.6694 39.5372 94.3971 39.2105 94.2006 38.7891C94.0041 38.3653 93.9059 37.8646 93.9059 37.2869C93.9059 36.714 94.0041 36.2169 94.2006 35.7955C94.3971 35.3741 94.6706 35.0485 95.021 34.8189C95.3713 34.5893 95.7762 34.4744 96.2354 34.4744C96.5906 34.4744 96.8711 34.5336 97.0771 34.652C97.2854 34.768 97.444 34.9006 97.5529 35.0497C97.6642 35.1965 97.7506 35.3172 97.8121 35.4119H97.8832V32.7273H98.7212V40H97.9116V39.1619H97.8121C97.7506 39.2614 97.663 39.3868 97.5494 39.5384C97.4357 39.6875 97.2736 39.8213 97.0629 39.9396C96.8522 40.0556 96.5716 40.1136 96.2212 40.1136ZM96.3349 39.3608C96.671 39.3608 96.9551 39.2732 97.1871 39.098C97.4192 38.9205 97.5955 38.6754 97.7163 38.3629C97.837 38.0481 97.8974 37.6847 97.8974 37.2727C97.8974 36.8655 97.8382 36.5092 97.7198 36.2038C97.6014 35.8961 97.4263 35.657 97.1942 35.4865C96.9622 35.3137 96.6758 35.2273 96.3349 35.2273C95.9798 35.2273 95.6838 35.3184 95.4471 35.5007C95.2127 35.6806 95.0363 35.9257 94.918 36.2358C94.802 36.5436 94.744 36.8892 94.744 37.2727C94.744 37.661 94.8031 38.0137 94.9215 38.331C95.0423 38.6458 95.2198 38.8968 95.4542 39.0838C95.6909 39.2685 95.9845 39.3608 96.3349 39.3608ZM101.978 40.1278C101.632 40.1278 101.318 40.0627 101.037 39.9325C100.755 39.8 100.531 39.6094 100.365 39.3608C100.2 39.1098 100.117 38.8068 100.117 38.4517C100.117 38.1392 100.178 37.8859 100.301 37.6918C100.425 37.4953 100.589 37.3414 100.795 37.2301C101.001 37.1188 101.228 37.036 101.477 36.9815C101.728 36.9247 101.98 36.8797 102.233 36.8466C102.565 36.804 102.833 36.772 103.039 36.7507C103.248 36.727 103.399 36.688 103.494 36.6335C103.591 36.5791 103.64 36.4844 103.64 36.3494V36.321C103.64 35.9706 103.544 35.6984 103.352 35.5043C103.163 35.3101 102.875 35.2131 102.489 35.2131C102.089 35.2131 101.775 35.3007 101.548 35.4759C101.321 35.651 101.161 35.8381 101.069 36.0369L100.273 35.7528C100.415 35.4214 100.605 35.1634 100.841 34.9787C101.08 34.7917 101.341 34.6615 101.623 34.5881C101.907 34.5123 102.186 34.4744 102.461 34.4744C102.636 34.4744 102.837 34.4957 103.064 34.5384C103.294 34.5786 103.515 34.6626 103.728 34.7905C103.944 34.9183 104.123 35.1113 104.265 35.3693C104.407 35.6274 104.478 35.973 104.478 36.4062V40H103.64V39.2614H103.597C103.54 39.3797 103.445 39.5064 103.313 39.6413C103.18 39.7763 103.004 39.8911 102.784 39.9858C102.564 40.0805 102.295 40.1278 101.978 40.1278ZM102.105 39.375C102.437 39.375 102.716 39.3099 102.944 39.1797C103.173 39.0495 103.346 38.8814 103.462 38.6754C103.58 38.4695 103.64 38.2528 103.64 38.0256V37.2585C103.604 37.3011 103.526 37.3402 103.405 37.3757C103.287 37.4089 103.15 37.4384 102.993 37.4645C102.839 37.4882 102.689 37.5095 102.542 37.5284C102.398 37.545 102.281 37.5592 102.191 37.571C101.973 37.5994 101.769 37.6456 101.58 37.7095C101.393 37.7711 101.241 37.8646 101.125 37.9901C101.012 38.1132 100.955 38.2812 100.955 38.4943C100.955 38.7855 101.063 39.0057 101.278 39.1548C101.496 39.3016 101.772 39.375 102.105 39.375Z" fill="#4B5563"/>
<rect x="179.291" y="0.290749" width="147.419" height="77.4185" rx="4.70925" fill="#F9FAFB" stroke="#F3F4F6" stroke-width="0.581498"/>
<g clip-path="url(#clip1_400_763)">
<path d="M194.978 17.5815C195.942 17.5815 196.723 16.8005 196.723 15.837C196.723 14.8736 195.942 14.0925 194.978 14.0925C194.015 14.0925 193.234 14.8736 193.234 15.837C193.234 16.8005 194.015 17.5815 194.978 17.5815Z" stroke="#101828" stroke-width="1.163" stroke-linecap="round" stroke-linejoin="round"/>
<path d="M194.978 22.815C197.304 20.489 199.63 18.4063 199.63 15.837C199.63 13.2678 197.547 11.1851 194.978 11.1851C192.409 11.1851 190.326 13.2678 190.326 15.837C190.326 18.4063 192.652 20.489 194.978 22.815Z" stroke="#101828" stroke-width="1.163" stroke-linecap="round" stroke-linejoin="round"/>
</g>
<path d="M213.313 14.7638C213.269 14.3728 213.088 14.0699 212.768 13.8552C212.449 13.6377 212.047 13.5289 211.562 13.5289C211.215 13.5289 210.915 13.584 210.662 13.6941C210.409 13.8015 210.212 13.9502 210.071 14.1401C209.934 14.3274 209.865 14.5407 209.865 14.7803C209.865 14.9813 209.912 15.1547 210.005 15.3007C210.102 15.4466 210.227 15.5691 210.381 15.6682C210.538 15.7646 210.706 15.8458 210.885 15.9119C211.064 15.9752 211.236 16.0275 211.401 16.0688L212.227 16.2836C212.497 16.3497 212.774 16.4392 213.057 16.552C213.341 16.6649 213.604 16.8136 213.846 16.9981C214.088 17.1825 214.284 17.4111 214.433 17.6836C214.584 17.9562 214.66 18.2825 214.66 18.6624C214.66 19.1415 214.536 19.5669 214.288 19.9386C214.043 20.3103 213.686 20.6035 213.218 20.8183C212.753 21.033 212.19 21.1404 211.529 21.1404C210.896 21.1404 210.348 21.0399 209.886 20.8389C209.423 20.6379 209.061 20.353 208.799 19.984C208.538 19.6123 208.393 19.1718 208.366 18.6624H209.646C209.671 18.9681 209.77 19.2227 209.943 19.4265C210.12 19.6275 210.344 19.7775 210.617 19.8767C210.892 19.973 211.193 20.0212 211.521 20.0212C211.882 20.0212 212.202 19.9648 212.483 19.8519C212.767 19.7362 212.99 19.5765 213.152 19.3728C213.315 19.1663 213.396 18.9254 213.396 18.6501C213.396 18.3995 213.324 18.1944 213.181 18.0347C213.041 17.875 212.849 17.7428 212.607 17.6382C212.368 17.5336 212.096 17.4414 211.794 17.3615L210.794 17.0889C210.117 16.9045 209.58 16.6333 209.183 16.2753C208.79 15.9174 208.593 15.4438 208.593 14.8546C208.593 14.3673 208.725 13.9419 208.989 13.5785C209.254 13.215 209.612 12.9328 210.063 12.7318C210.515 12.5281 211.024 12.4262 211.591 12.4262C212.164 12.4262 212.669 12.5267 213.107 12.7277C213.547 12.9287 213.894 13.2054 214.148 13.5578C214.401 13.9075 214.533 14.3095 214.544 14.7638H213.313ZM217.32 17.2335V21H216.086V12.5418H217.304V15.6889H217.382C217.531 15.3475 217.758 15.0763 218.064 14.8753C218.369 14.6743 218.769 14.5738 219.262 14.5738C219.697 14.5738 220.077 14.6633 220.401 14.8422C220.729 15.0212 220.982 15.2883 221.161 15.6434C221.343 15.9959 221.434 16.4364 221.434 16.965V21H220.199V17.1137C220.199 16.6484 220.079 16.2877 219.84 16.0317C219.6 15.7729 219.267 15.6434 218.84 15.6434C218.548 15.6434 218.287 15.7054 218.056 15.8293C217.827 15.9532 217.647 16.1349 217.515 16.3744C217.385 16.6112 217.32 16.8976 217.32 17.2335ZM223.082 21V14.6564H224.317V21H223.082ZM223.705 13.6776C223.491 13.6776 223.306 13.606 223.152 13.4628C223.001 13.3169 222.925 13.1434 222.925 12.9425C222.925 12.7387 223.001 12.5653 223.152 12.4221C223.306 12.2762 223.491 12.2032 223.705 12.2032C223.92 12.2032 224.103 12.2762 224.255 12.4221C224.409 12.5653 224.486 12.7387 224.486 12.9425C224.486 13.1434 224.409 13.3169 224.255 13.4628C224.103 13.606 223.92 13.6776 223.705 13.6776ZM225.978 23.3789V14.6564H227.184V15.6847H227.287C227.359 15.5526 227.462 15.3998 227.597 15.2263C227.732 15.0529 227.919 14.9014 228.159 14.772C228.398 14.6399 228.715 14.5738 229.108 14.5738C229.621 14.5738 230.078 14.7032 230.48 14.962C230.882 15.2208 231.197 15.5939 231.425 16.0812C231.657 16.5686 231.772 17.155 231.772 17.8406C231.772 18.5262 231.658 19.114 231.429 19.6041C231.201 20.0914 230.887 20.4672 230.488 20.7316C230.089 20.9931 229.633 21.1239 229.121 21.1239C228.735 21.1239 228.42 21.0592 228.175 20.9298C227.933 20.8004 227.743 20.649 227.605 20.4755C227.467 20.302 227.361 20.1479 227.287 20.0129H227.213V23.3789H225.978ZM227.188 17.8282C227.188 18.2742 227.253 18.6652 227.382 19.0011C227.511 19.337 227.699 19.5999 227.944 19.7899C228.189 19.9771 228.489 20.0708 228.844 20.0708C229.213 20.0708 229.521 19.973 229.769 19.7775C230.017 19.5793 230.204 19.3108 230.331 18.9722C230.46 18.6335 230.525 18.2522 230.525 17.8282C230.525 17.4097 230.462 17.0339 230.335 16.7007C230.211 16.3676 230.024 16.1046 229.773 15.9119C229.526 15.7192 229.216 15.6228 228.844 15.6228C228.486 15.6228 228.183 15.715 227.936 15.8995C227.69 16.084 227.505 16.3414 227.378 16.6718C227.251 17.0022 227.188 17.3877 227.188 17.8282ZM235.916 13.6404V12.5418H242.462V13.6404H239.823V21H238.551V13.6404H235.916ZM245.561 21.128C244.966 21.128 244.447 20.9917 244.004 20.7192C243.561 20.4466 243.217 20.0653 242.972 19.5752C242.727 19.0851 242.604 18.5124 242.604 17.8571C242.604 17.1991 242.727 16.6236 242.972 16.1308C243.217 15.6379 243.561 15.2552 244.004 14.9827C244.447 14.7101 244.966 14.5738 245.561 14.5738C246.156 14.5738 246.675 14.7101 247.118 14.9827C247.561 15.2552 247.906 15.6379 248.151 16.1308C248.396 16.6236 248.518 17.1991 248.518 17.8571C248.518 18.5124 248.396 19.0851 248.151 19.5752C247.906 20.0653 247.561 20.4466 247.118 20.7192C246.675 20.9917 246.156 21.128 245.561 21.128ZM245.565 20.0914C245.951 20.0914 246.27 19.9895 246.523 19.7858C246.777 19.582 246.964 19.3108 247.085 18.9722C247.209 18.6335 247.271 18.2605 247.271 17.853C247.271 17.4482 247.209 17.0765 247.085 16.7379C246.964 16.3965 246.777 16.1225 246.523 15.916C246.27 15.7095 245.951 15.6063 245.565 15.6063C245.177 15.6063 244.855 15.7095 244.599 15.916C244.346 16.1225 244.157 16.3965 244.033 16.7379C243.912 17.0765 243.851 17.4482 243.851 17.853C243.851 18.2605 243.912 18.6335 244.033 18.9722C244.157 19.3108 244.346 19.582 244.599 19.7858C244.855 19.9895 245.177 20.0914 245.565 20.0914Z" fill="#111827"/>
<rect x="208" y="51" width="62" height="8" rx="1.163" fill="#E5E7EB"/>
<rect x="53" y="51" width="62" height="8" rx="1.163" fill="#E5E7EB"/>
<g clip-path="url(#clip2_400_763)">
<path d="M214 42C217.314 42 220 39.3137 220 36C220 32.6863 217.314 30 214 30C210.686 30 208 32.6863 208 36C208 39.3137 210.686 42 214 42Z" fill="#F0F0F0"/>
<path d="M213.74 35.9999H220.001C220.001 35.4584 219.929 34.9337 219.794 34.4347H213.74V35.9999Z" fill="#D80027"/>
<path d="M213.74 32.8695H219.12C218.753 32.2702 218.284 31.7404 217.736 31.3043H213.74V32.8695Z" fill="#D80027"/>
<path d="M214.001 42C215.413 42 216.711 41.5119 217.735 40.6956H210.266C211.291 41.5119 212.588 42 214.001 42Z" fill="#D80027"/>
<path d="M208.881 39.1304H219.12C219.415 38.6493 219.643 38.1233 219.794 37.5652H208.207C208.357 38.1233 208.586 38.6493 208.881 39.1304V39.1304Z" fill="#D80027"/>
<path d="M210.779 30.937H211.326L210.817 31.3065L211.012 31.9043L210.503 31.5349L209.995 31.9043L210.162 31.3879C209.715 31.7609 209.322 32.1979 208.999 32.6848H209.174L208.85 32.92C208.8 33.0041 208.751 33.0896 208.705 33.1764L208.86 33.6522L208.571 33.4426C208.499 33.5945 208.434 33.7498 208.375 33.9084L208.545 34.4326H209.174L208.665 34.8021L208.86 35.4L208.351 35.0305L208.046 35.2519C208.016 35.497 208 35.7466 208 36H214C214 32.6863 214 32.2957 214 30C212.815 30 211.71 30.3438 210.779 30.937V30.937ZM211.012 35.4L210.503 35.0305L209.995 35.4L210.189 34.8021L209.68 34.4326H210.309L210.503 33.8348L210.697 34.4326H211.326L210.817 34.8021L211.012 35.4ZM210.817 33.0543L211.012 33.6522L210.503 33.2827L209.995 33.6522L210.189 33.0543L209.68 32.6848H210.309L210.503 32.0869L210.697 32.6848H211.326L210.817 33.0543ZM213.164 35.4L212.655 35.0305L212.147 35.4L212.341 34.8021L211.832 34.4326H212.461L212.655 33.8348L212.85 34.4326H213.478L212.97 34.8021L213.164 35.4ZM212.97 33.0543L213.164 33.6522L212.655 33.2827L212.147 33.6522L212.341 33.0543L211.832 32.6848H212.461L212.655 32.0869L212.85 32.6848H213.478L212.97 33.0543ZM212.97 31.3065L213.164 31.9043L212.655 31.5349L212.147 31.9043L212.341 31.3065L211.832 30.937H212.461L212.655 30.3391L212.85 30.937H213.478L212.97 31.3065Z" fill="#0052B4"/>
</g>
<path d="M229.653 32.7273H230.534V37.5426C230.534 38.0398 230.417 38.4837 230.183 38.8743C229.951 39.2625 229.623 39.5691 229.199 39.794C228.775 40.0166 228.278 40.1278 227.707 40.1278C227.137 40.1278 226.64 40.0166 226.216 39.794C225.792 39.5691 225.463 39.2625 225.229 38.8743C224.997 38.4837 224.881 38.0398 224.881 37.5426V32.7273H225.761V37.4716C225.761 37.8267 225.839 38.1428 225.996 38.4197C226.152 38.6944 226.375 38.911 226.663 39.0696C226.955 39.2259 227.303 39.304 227.707 39.304C228.112 39.304 228.46 39.2259 228.751 39.0696C229.043 38.911 229.265 38.6944 229.419 38.4197C229.575 38.1428 229.653 37.8267 229.653 37.4716V32.7273ZM236.27 34.5455C236.227 34.1856 236.055 33.9062 235.752 33.7074C235.449 33.5085 235.077 33.4091 234.637 33.4091C234.315 33.4091 234.033 33.4612 233.791 33.5653C233.552 33.6695 233.365 33.8127 233.23 33.995C233.098 34.1773 233.031 34.3845 233.031 34.6165C233.031 34.8106 233.078 34.9775 233.17 35.1172C233.265 35.2545 233.385 35.3693 233.532 35.4616C233.679 35.5516 233.833 35.6262 233.994 35.6854C234.155 35.7422 234.303 35.7884 234.438 35.8239L235.176 36.0227C235.366 36.0724 235.576 36.1411 235.808 36.2287C236.043 36.3163 236.267 36.4358 236.48 36.5874C236.695 36.7365 236.873 36.9283 237.012 37.1626C237.152 37.397 237.222 37.6847 237.222 38.0256C237.222 38.4186 237.119 38.7737 236.913 39.0909C236.709 39.4081 236.411 39.6603 236.018 39.8473C235.627 40.0343 235.153 40.1278 234.594 40.1278C234.073 40.1278 233.622 40.0438 233.241 39.8757C232.862 39.7076 232.564 39.4732 232.346 39.1726C232.131 38.8719 232.009 38.5227 231.98 38.125H232.889C232.913 38.3996 233.005 38.6269 233.166 38.8068C233.33 38.9844 233.536 39.117 233.784 39.2045C234.035 39.2898 234.305 39.3324 234.594 39.3324C234.93 39.3324 235.232 39.2779 235.499 39.169C235.767 39.0578 235.979 38.9039 236.135 38.7074C236.291 38.5085 236.369 38.2765 236.369 38.0114C236.369 37.7699 236.302 37.5734 236.167 37.4219C236.032 37.2704 235.855 37.1473 235.634 37.0526C235.414 36.9579 235.176 36.875 234.921 36.804L234.026 36.5483C233.458 36.3849 233.008 36.1518 232.676 35.8487C232.345 35.5457 232.179 35.1491 232.179 34.6591C232.179 34.2519 232.289 33.8968 232.509 33.5938C232.732 33.2884 233.03 33.0516 233.404 32.8835C233.781 32.7131 234.201 32.6278 234.665 32.6278C235.134 32.6278 235.55 32.7119 235.915 32.88C236.28 33.0457 236.568 33.273 236.781 33.5618C236.997 33.8506 237.11 34.1785 237.122 34.5455H236.27ZM238.968 40H238.045L240.715 32.7273H241.624L244.295 40H243.371L241.198 33.8778H241.141L238.968 40ZM239.309 37.1591H243.031V37.9403H239.309V37.1591Z" fill="#4B5563"/>
<g filter="url(#filter0_d_400_763)">
<circle cx="175.124" cy="39.7093" r="12.2115" fill="white"/>
</g>
<path d="M180.089 36.7651L178.047 34.7441C177.843 34.5421 177.536 34.5421 177.332 34.7441C177.128 34.9462 177.128 35.2494 177.332 35.4515L178.506 36.6135H172.073C171.767 36.6135 171.562 36.8156 171.562 37.1188C171.562 37.4219 171.767 37.6241 172.073 37.6241H178.506L177.332 38.7861C177.128 38.9882 177.128 39.2914 177.332 39.4935C177.536 39.6955 177.843 39.6955 178.047 39.4935L180.089 37.4725C180.293 37.2703 180.293 36.9672 180.089 36.7651L180.089 36.7651Z" fill="#374151"/>
<path d="M178.177 41.7964H171.744L172.918 40.6344C173.122 40.4323 173.122 40.1291 172.918 39.9271C172.714 39.725 172.407 39.725 172.203 39.9271L170.161 41.948C169.957 42.1501 169.957 42.4533 170.161 42.6554L172.203 44.6764C172.407 44.8784 172.714 44.8784 172.918 44.6764C173.122 44.4743 173.122 44.1711 172.918 43.969L171.744 42.8071H178.177C178.483 42.8071 178.688 42.605 178.688 42.3018C178.688 41.9986 178.483 41.7965 178.177 41.7965V41.7964Z" fill="#374151"/>
<g filter="url(#filter1_f_400_763)">
<rect x="66.5317" y="79.4018" width="317.967" height="77.6925" rx="4.5" transform="rotate(-3.76337 66.5317 79.4018)" fill="white" stroke="#E5E7EB"/>
<path d="M89.9972 98.4749L85.2453 101.539M85.2453 101.539L80.133 99.1237M85.2453 101.539L85.6079 107.052M90.6224 103.551L90.3126 98.8409C90.2996 98.6421 90.293 98.5427 90.2579 98.4559C90.2268 98.3792 90.1797 98.31 90.1197 98.2529C90.052 98.1884 89.9619 98.1459 89.7817 98.0607L85.331 95.9577C85.1604 95.8771 85.0752 95.8368 84.9868 95.8246C84.9087 95.8139 84.8291 95.8191 84.7531 95.84C84.6671 95.8637 84.5878 95.9148 84.4293 96.017L80.2924 98.6849C80.1249 98.7929 80.0412 98.8469 79.9825 98.9197C79.9305 98.9842 79.8928 99.0589 79.8721 99.1391C79.8486 99.2297 79.8552 99.3291 79.8682 99.5279L80.1781 104.238C80.1911 104.437 80.1977 104.536 80.2328 104.623C80.2639 104.699 80.311 104.769 80.3709 104.826C80.4387 104.89 80.5288 104.933 80.709 105.018L85.1597 107.121C85.3302 107.202 85.4155 107.242 85.5039 107.254C85.582 107.265 85.6616 107.26 85.7376 107.239C85.8236 107.215 85.9029 107.164 86.0614 107.062L90.1983 104.394C90.3657 104.286 90.4495 104.232 90.5082 104.159C90.5602 104.095 90.5978 104.02 90.6186 103.94C90.6421 103.849 90.6355 103.75 90.6224 103.551Z" stroke="#111827" stroke-width="1.163" stroke-linecap="round" stroke-linejoin="round"/>
<path d="M87.7607 99.917L82.3477 97.3593" stroke="black" stroke-width="1.163" stroke-linecap="round" stroke-linejoin="round"/>
<path d="M103.394 98.1045C103.325 97.7172 103.123 97.4269 102.791 97.2336C102.458 97.0375 102.049 96.9554 101.566 96.9872C101.22 97.01 100.924 97.0846 100.678 97.2111C100.433 97.3349 100.246 97.4962 100.118 97.695C99.9933 97.8908 99.9386 98.1083 99.9543 98.3473C99.9675 98.5478 100.026 98.7179 100.129 98.8573C100.234 98.9966 100.367 99.1106 100.528 99.1994C100.691 99.2853 100.864 99.3553 101.046 99.4095C101.229 99.4609 101.404 99.5018 101.572 99.5322L102.41 99.6923C102.684 99.7405 102.966 99.8116 103.256 99.9057C103.547 99.9997 103.819 100.131 104.073 100.299C104.326 100.467 104.537 100.682 104.703 100.945C104.872 101.207 104.969 101.527 104.994 101.906C105.025 102.384 104.929 102.817 104.707 103.204C104.486 103.591 104.15 103.907 103.697 104.152C103.247 104.397 102.692 104.541 102.033 104.584C101.401 104.626 100.847 104.562 100.373 104.392C99.8978 104.221 99.5179 103.961 99.2326 103.61C98.9473 103.256 98.7741 102.826 98.7132 102.319L99.9907 102.235C100.036 102.539 100.151 102.786 100.338 102.978C100.527 103.167 100.76 103.302 101.039 103.383C101.32 103.461 101.624 103.49 101.951 103.468C102.311 103.445 102.627 103.367 102.9 103.236C103.175 103.102 103.387 102.928 103.536 102.714C103.685 102.497 103.75 102.252 103.732 101.977C103.715 101.727 103.63 101.527 103.477 101.377C103.327 101.227 103.127 101.108 102.878 101.019C102.632 100.93 102.356 100.856 102.048 100.796L101.033 100.59C100.345 100.45 99.7916 100.215 99.3725 99.8838C98.9561 99.5525 98.7286 99.0929 98.6899 98.505C98.6579 98.0187 98.7619 97.5855 99.0018 97.2055C99.2417 96.8255 99.5803 96.5204 100.018 96.2902C100.455 96.0573 100.956 95.9222 101.522 95.885C102.094 95.8474 102.605 95.9145 103.055 96.0863C103.507 96.258 103.872 96.5113 104.148 96.8464C104.423 97.1786 104.582 97.5711 104.622 98.0237L103.394 98.1045ZM107.555 100.306L107.802 104.064L106.57 104.145L106.015 95.7054L107.23 95.6254L107.437 98.7656L107.515 98.7605C107.641 98.4101 107.85 98.1245 108.142 97.9039C108.434 97.6833 108.825 97.5568 109.317 97.5245C109.751 97.4959 110.136 97.5603 110.472 97.7175C110.811 97.8746 111.081 98.1245 111.283 98.4671C111.488 98.8069 111.607 99.2405 111.642 99.768L111.907 103.794L110.674 103.875L110.419 99.9974C110.389 99.5331 110.246 99.181 109.99 98.9413C109.734 98.6987 109.393 98.5915 108.967 98.6195C108.676 98.6386 108.419 98.7176 108.196 98.8564C107.976 98.9951 107.808 99.1882 107.692 99.4359C107.579 99.6807 107.533 99.9707 107.555 100.306ZM113.551 103.686L113.135 97.3562L114.367 97.2751L114.783 103.605L113.551 103.686ZM113.693 96.3385C113.478 96.3526 113.29 96.2933 113.126 96.1606C112.966 96.0249 112.879 95.8568 112.865 95.6562C112.852 95.4529 112.916 95.2749 113.058 95.1221C113.202 94.9663 113.382 94.8814 113.596 94.8673C113.81 94.8532 113.998 94.914 114.158 95.0497C114.322 95.1824 114.41 95.3504 114.423 95.5537C114.436 95.7543 114.371 95.9325 114.227 96.0882C114.085 96.241 113.907 96.3244 113.693 96.3385ZM116.597 105.87L116.024 97.1661L117.228 97.0869L117.295 98.113L117.398 98.1063C117.461 97.9697 117.554 97.8104 117.677 97.6285C117.801 97.4466 117.977 97.2832 118.208 97.1383C118.438 96.9907 118.75 96.904 119.143 96.8782C119.654 96.8446 120.118 96.9437 120.536 97.1755C120.955 97.4074 121.294 97.759 121.554 98.2303C121.816 98.7014 121.97 99.279 122.015 99.9631C122.06 100.647 121.985 101.241 121.789 101.745C121.593 102.247 121.304 102.642 120.923 102.932C120.542 103.219 120.096 103.38 119.585 103.413C119.2 103.439 118.882 103.395 118.629 103.282C118.378 103.169 118.179 103.03 118.03 102.866C117.881 102.702 117.765 102.555 117.682 102.425L117.608 102.43L117.829 105.789L116.597 105.87ZM117.44 100.252C117.469 100.697 117.56 101.083 117.711 101.409C117.862 101.736 118.066 101.986 118.323 102.159C118.58 102.33 118.885 102.404 119.24 102.381C119.608 102.356 119.909 102.239 120.144 102.027C120.378 101.813 120.547 101.533 120.651 101.187C120.758 100.84 120.798 100.456 120.77 100.033C120.742 99.615 120.655 99.2441 120.506 98.92C120.361 98.5957 120.157 98.3456 119.894 98.1697C119.634 97.9937 119.319 97.9179 118.948 97.9423C118.591 97.9658 118.295 98.0777 118.059 98.278C117.827 98.4782 117.658 98.7472 117.554 99.0852C117.449 99.4232 117.411 99.812 117.44 100.252ZM123.603 103.025L123.187 96.6949L124.37 96.6171L124.437 97.6474L124.516 97.6422C124.625 97.2847 124.822 96.9985 125.109 96.7837C125.395 96.5662 125.747 96.4437 126.165 96.4163C126.588 96.3884 126.949 96.464 127.248 96.643C127.549 96.8219 127.78 97.0799 127.94 97.417L128.006 97.4126C128.135 97.0648 128.358 96.7797 128.674 96.5575C128.991 96.3325 129.377 96.205 129.833 96.175C130.407 96.1372 130.887 96.2864 131.274 96.6224C131.663 96.9583 131.881 97.4889 131.929 98.2142L132.208 102.459L130.976 102.54L130.704 98.4106C130.676 97.982 130.539 97.6793 130.293 97.5023C130.046 97.3254 129.761 97.2475 129.437 97.2689C129.036 97.2952 128.732 97.4394 128.526 97.7013C128.32 97.9604 128.229 98.2823 128.254 98.667L128.52 102.701L127.292 102.782L127.015 98.5747C126.992 98.2312 126.867 97.9622 126.639 97.7675C126.411 97.5728 126.125 97.4867 125.782 97.5093C125.548 97.5247 125.337 97.6007 125.147 97.7373C124.96 97.871 124.813 98.0504 124.706 98.2754C124.602 98.5002 124.56 98.7555 124.579 99.0412L124.835 102.944L123.603 103.025ZM136.596 102.299C135.972 102.34 135.426 102.242 134.958 102.005C134.493 101.765 134.122 101.41 133.845 100.94C133.571 100.467 133.413 99.9018 133.37 99.2452C133.327 98.5968 133.41 98.0174 133.62 97.507C133.832 96.9964 134.147 96.5879 134.565 96.2817C134.987 95.9753 135.491 95.8028 136.079 95.7641C136.436 95.7406 136.787 95.7769 137.129 95.873C137.472 95.9691 137.785 96.1348 138.069 96.37C138.352 96.6052 138.583 96.9197 138.764 97.3134C138.944 97.7044 139.053 98.187 139.091 98.7612L139.12 99.1981L134.088 99.5291L134.027 98.6059L137.851 98.3544C137.83 98.0302 137.745 97.7474 137.597 97.5061C137.448 97.262 137.25 97.075 137.001 96.9451C136.755 96.8151 136.473 96.7605 136.154 96.7815C135.808 96.8042 135.512 96.9093 135.265 97.0966C135.02 97.281 134.837 97.5138 134.715 97.795C134.595 98.0733 134.546 98.3704 134.566 98.6864L134.614 99.4075C134.642 99.8306 134.739 100.186 134.907 100.473C135.078 100.759 135.303 100.972 135.583 101.111C135.862 101.247 136.182 101.303 136.541 101.28C136.775 101.264 136.986 101.217 137.174 101.139C137.361 101.058 137.521 100.945 137.652 100.801C137.784 100.657 137.88 100.484 137.941 100.281L139.121 100.415C139.05 100.764 138.902 101.076 138.678 101.35C138.455 101.622 138.168 101.841 137.814 102.007C137.464 102.171 137.058 102.268 136.596 102.299ZM141.656 98.0628L141.903 101.821L140.671 101.902L140.254 95.5723L141.437 95.4945L141.505 96.5247L141.583 96.5196C141.707 96.1748 141.917 95.8906 142.214 95.6669C142.514 95.443 142.901 95.3154 143.377 95.2841C143.808 95.2557 144.192 95.3216 144.528 95.4816C144.864 95.6388 145.133 95.8888 145.335 96.2314C145.536 96.5741 145.655 97.0064 145.689 97.5284L145.954 101.555L144.722 101.636L144.466 97.7578C144.436 97.299 144.293 96.9484 144.037 96.7058C143.781 96.4606 143.444 96.3516 143.027 96.3791C142.741 96.3979 142.491 96.4764 142.276 96.6147C142.065 96.7528 141.902 96.9456 141.789 97.1931C141.678 97.4377 141.633 97.7276 141.656 98.0628ZM150.145 94.9217L150.21 95.9108L146.752 96.1382L146.687 95.1491L150.145 94.9217ZM147.515 93.5716L148.747 93.4905L149.141 99.4784C149.156 99.7175 149.204 99.8951 149.283 100.011C149.363 100.125 149.46 100.2 149.575 100.236C149.694 100.27 149.82 100.282 149.955 100.273C150.053 100.267 150.14 100.254 150.213 100.236C150.286 100.217 150.343 100.202 150.384 100.191L150.673 101.195C150.604 101.227 150.504 101.261 150.374 101.297C150.244 101.336 150.08 101.363 149.882 101.379C149.559 101.406 149.253 101.368 148.964 101.266C148.676 101.163 148.437 100.991 148.248 100.75C148.058 100.509 147.95 100.197 147.925 99.815L147.515 93.5716ZM157.826 100.774L155.094 100.953L154.539 92.5135L157.358 92.3281C158.185 92.2737 158.906 92.396 159.522 92.6949C160.137 92.991 160.624 93.4433 160.981 94.0516C161.341 94.6571 161.55 95.398 161.607 96.2744C161.665 97.1536 161.554 97.9197 161.274 98.5727C160.997 99.2256 160.568 99.7422 159.986 100.123C159.403 100.5 158.684 100.717 157.826 100.774ZM156.294 99.757L157.683 99.6657C158.326 99.6234 158.853 99.4673 159.262 99.1976C159.672 98.925 159.968 98.551 160.149 98.0756C160.33 97.5973 160.398 97.0244 160.355 96.3568C160.311 95.6947 160.168 95.1398 159.926 94.6922C159.687 94.2444 159.352 93.9146 158.922 93.7028C158.491 93.4911 157.968 93.4055 157.353 93.446L155.886 93.5425L156.294 99.757ZM166.107 100.357C165.483 100.398 164.937 100.3 164.469 100.064C164.004 99.8238 163.633 99.4688 163.356 98.9986C163.082 98.5255 162.924 97.9606 162.881 97.304C162.838 96.6556 162.921 96.0762 163.13 95.5658C163.342 95.0552 163.658 94.6468 164.076 94.3406C164.498 94.0342 165.002 93.8616 165.59 93.823C165.947 93.7995 166.297 93.8358 166.64 93.9319C166.983 94.0279 167.296 94.1936 167.579 94.4288C167.863 94.6641 168.094 94.9785 168.275 95.3723C168.455 95.7633 168.564 96.2459 168.602 96.8201L168.63 97.2569L163.599 97.5879L163.538 96.6648L167.362 96.4132C167.341 96.089 167.256 95.8063 167.108 95.5649C166.959 95.3208 166.761 95.1339 166.512 95.004C166.266 94.8739 165.984 94.8194 165.665 94.8403C165.319 94.8631 165.023 94.9681 164.776 95.1555C164.531 95.3399 164.348 95.5727 164.225 95.8539C164.106 96.1321 164.056 96.4293 164.077 96.7452L164.125 97.4664C164.152 97.8895 164.25 98.2445 164.418 98.5315C164.589 98.8182 164.814 99.0311 165.093 99.17C165.373 99.3061 165.692 99.3623 166.052 99.3387C166.286 99.3233 166.497 99.2763 166.685 99.1977C166.872 99.1164 167.032 99.0038 167.163 98.86C167.294 98.7161 167.391 98.5429 167.452 98.3402L168.632 98.4737C168.561 98.8232 168.413 99.1351 168.188 99.4092C167.966 99.6805 167.678 99.8994 167.325 100.066C166.975 100.23 166.568 100.327 166.107 100.357ZM172.72 93.4368L172.785 94.4258L169.327 94.6532L169.262 93.6642L172.72 93.4368ZM170.09 92.0867L171.322 92.0056L171.716 97.9935C171.732 98.2325 171.779 98.4101 171.858 98.5263C171.938 98.6397 172.035 98.7147 172.151 98.7513C172.269 98.7849 172.395 98.7973 172.53 98.7884C172.629 98.7819 172.715 98.7694 172.788 98.7507C172.861 98.7321 172.918 98.7173 172.959 98.7064L173.248 99.7097C173.179 99.7418 173.079 99.776 172.949 99.8121C172.819 99.851 172.655 99.8784 172.458 99.8941C172.134 99.9209 171.828 99.8831 171.54 99.7807C171.251 99.6782 171.012 99.5063 170.823 99.2649C170.633 99.0236 170.526 98.7119 170.5 98.33L170.09 92.0867ZM176.351 99.696C175.949 99.7224 175.582 99.672 175.248 99.545C174.914 99.4152 174.643 99.2137 174.434 98.9405C174.229 98.667 174.112 98.3229 174.085 97.908C174.061 97.5509 174.111 97.2524 174.233 97.0126C174.355 96.7727 174.529 96.5778 174.753 96.4279C174.978 96.2779 175.232 96.1591 175.516 96.0714C175.8 95.9837 176.091 95.9122 176.388 95.8568C176.764 95.7879 177.069 95.7319 177.304 95.6889C177.538 95.6432 177.707 95.5838 177.809 95.5108C177.912 95.4378 177.959 95.3271 177.949 95.1788L177.947 95.1499C177.923 94.79 177.803 94.5179 177.587 94.3334C177.374 94.1488 177.068 94.0696 176.669 94.0958C176.254 94.1231 175.934 94.2366 175.707 94.4364C175.482 94.6333 175.332 94.846 175.256 95.0745L174.081 94.8869C174.193 94.4932 174.373 94.1696 174.621 93.916C174.872 93.6594 175.167 93.4662 175.506 93.3363C175.845 93.2036 176.205 93.1247 176.587 93.0996C176.84 93.083 177.11 93.0956 177.397 93.1374C177.686 93.1763 177.96 93.2659 178.217 93.4063C178.478 93.5464 178.697 93.7569 178.876 94.0376C179.054 94.3156 179.158 94.6854 179.189 95.1469L179.465 99.3504L178.262 99.4295L178.205 98.5641L178.155 98.5674C178.086 98.732 177.977 98.8964 177.828 99.0608C177.679 99.2251 177.482 99.3663 177.239 99.4844C176.996 99.6025 176.699 99.673 176.351 99.696ZM176.553 98.6893C176.894 98.6669 177.181 98.5804 177.414 98.4299C177.649 98.2792 177.823 98.0912 177.935 97.8658C178.05 97.6375 178.099 97.3984 178.083 97.1484L178.029 96.3324C177.988 96.3793 177.906 96.4261 177.782 96.4729C177.66 96.5167 177.521 96.5576 177.363 96.5956C177.206 96.6308 177.052 96.6643 176.902 96.6962C176.753 96.7254 176.627 96.7502 176.526 96.7706C176.289 96.8166 176.074 96.8818 175.881 96.9662C175.691 97.0505 175.541 97.1638 175.432 97.3062C175.325 97.4457 175.279 97.6253 175.293 97.8451C175.313 98.15 175.441 98.3734 175.677 98.5152C175.912 98.6542 176.204 98.7123 176.553 98.6893ZM181.106 99.2424L180.69 92.9125L181.922 92.8315L182.338 99.1614L181.106 99.2424ZM181.248 91.8949C181.034 91.909 180.845 91.8497 180.682 91.7169C180.521 91.5812 180.434 91.4131 180.421 91.2126C180.407 91.0093 180.472 90.8312 180.613 90.6784C180.758 90.5227 180.937 90.4378 181.151 90.4237C181.365 90.4096 181.553 90.4704 181.714 90.606C181.877 90.7388 181.965 90.9068 181.979 91.1101C181.992 91.3107 181.926 91.4888 181.782 91.6445C181.64 91.7973 181.462 91.8808 181.248 91.8949ZM184.673 90.5314L185.228 98.9713L183.996 99.0523L183.441 90.6124L184.673 90.5314ZM191.315 93.7657L190.211 94.037C190.155 93.8972 190.072 93.7661 189.962 93.6436C189.854 93.521 189.713 93.4241 189.537 93.3529C189.361 93.2817 189.145 93.2545 188.89 93.2713C188.541 93.2942 188.255 93.3917 188.032 93.5636C187.808 93.7328 187.705 93.9397 187.721 94.1842C187.735 94.3958 187.824 94.561 187.989 94.6798C188.154 94.7986 188.414 94.8878 188.768 94.9472L189.789 95.1119C190.38 95.2082 190.828 95.387 191.132 95.6485C191.436 95.9099 191.603 96.2646 191.633 96.7124C191.658 97.0915 191.57 97.4367 191.37 97.7478C191.172 98.0561 190.884 98.3068 190.504 98.5001C190.128 98.6932 189.684 98.8065 189.173 98.8401C188.465 98.8867 187.876 98.7737 187.409 98.5009C186.941 98.2254 186.638 97.8108 186.499 97.257L187.678 96.9973C187.773 97.3029 187.941 97.5278 188.182 97.6719C188.423 97.8134 188.729 97.8719 189.1 97.8475C189.504 97.8209 189.821 97.7159 190.052 97.5324C190.282 97.3461 190.39 97.1308 190.373 96.8863C190.36 96.6884 190.275 96.5271 190.118 96.4022C189.964 96.2772 189.733 96.1903 189.426 96.1415L188.339 95.9771C187.74 95.8813 187.289 95.6957 186.987 95.4204C186.687 95.1448 186.522 94.7818 186.493 94.3312C186.468 93.9576 186.551 93.6238 186.742 93.3298C186.932 93.0358 187.206 92.7984 187.564 92.6176C187.922 92.4341 188.338 92.3267 188.813 92.2954C189.497 92.2504 190.046 92.3633 190.458 92.6342C190.87 92.9023 191.156 93.2795 191.315 93.7657Z" fill="#111827"/>
<g filter="url(#filter2_d_400_763)">
<rect x="80.5" y="117.138" width="96.4001" height="23.304" rx="4.65198" transform="rotate(-3.76337 80.5 117.138)" fill="white"/>
<rect x="80.8092" y="117.409" width="95.8186" height="22.7225" rx="4.36123" transform="rotate(-3.76337 80.8092 117.409)" stroke="#D0D5DD" stroke-width="0.581498"/>
<path d="M84.0005 117.199L103.439 115.92L104.927 138.55L85.4891 139.828C83.7265 139.944 82.2037 138.609 82.0878 136.847L81.0191 120.6C80.9032 118.837 82.238 117.315 84.0005 117.199Z" fill="white"/>
<path d="M84.0005 117.199L103.439 115.92L104.927 138.55L85.4891 139.828C83.7265 139.944 82.2037 138.609 82.0878 136.847L81.0191 120.6C80.9032 118.837 82.238 117.315 84.0005 117.199Z" stroke="#D0D5DD" stroke-width="0.581498"/>
<path d="M89.4834 128.202L96.2529 127.757" stroke="#101828" stroke-width="1.163" stroke-linecap="round" stroke-linejoin="round"/>
<mask id="path-33-inside-1_400_763" fill="white">
<path d="M103.71 115.611L153.483 112.337L155.012 135.591L105.24 138.865L103.71 115.611Z"/>
</mask>
<path d="M103.71 115.611L153.483 112.337L155.012 135.591L105.24 138.865L103.71 115.611Z" fill="#F9FAFB"/>
<path d="M103.748 116.191L153.521 112.917L153.444 111.757L103.672 115.031L103.748 116.191ZM154.974 135.01L105.201 138.284L105.278 139.445L155.05 136.171L154.974 135.01Z" fill="#D0D5DD" mask="url(#path-33-inside-1_400_763)"/>
<path d="M126.557 128.884C126.122 128.913 125.729 128.864 125.379 128.737C125.03 128.61 124.748 128.42 124.53 128.167C124.315 127.912 124.186 127.608 124.146 127.255L124.976 127.2C125.008 127.417 125.095 127.6 125.238 127.749C125.38 127.897 125.56 128.006 125.779 128.078C125.998 128.15 126.237 128.177 126.496 128.16C126.787 128.141 127.04 128.073 127.258 127.958C127.475 127.842 127.642 127.69 127.758 127.501C127.873 127.312 127.923 127.099 127.908 126.862C127.891 126.614 127.815 126.399 127.68 126.218C127.544 126.035 127.354 125.897 127.11 125.805C126.865 125.713 126.572 125.678 126.229 125.701L125.688 125.737L125.64 125.011L126.181 124.976C126.449 124.958 126.681 124.894 126.877 124.784C127.075 124.674 127.225 124.527 127.328 124.344C127.433 124.16 127.478 123.95 127.462 123.713C127.447 123.484 127.383 123.288 127.271 123.126C127.159 122.963 127.007 122.841 126.817 122.758C126.628 122.676 126.409 122.643 126.161 122.659C125.928 122.674 125.711 122.732 125.51 122.831C125.311 122.928 125.152 123.061 125.033 123.23C124.914 123.397 124.856 123.593 124.86 123.818L124.069 123.87C124.059 123.515 124.145 123.198 124.327 122.919C124.51 122.638 124.757 122.412 125.071 122.241C125.386 122.07 125.738 121.972 126.127 121.946C126.545 121.919 126.909 121.98 127.219 122.129C127.529 122.277 127.773 122.483 127.952 122.747C128.13 123.011 128.23 123.302 128.251 123.621C128.276 124.001 128.197 124.332 128.015 124.613C127.835 124.894 127.578 125.098 127.244 125.224L127.247 125.276C127.678 125.319 128.023 125.478 128.282 125.755C128.54 126.029 128.684 126.38 128.712 126.809C128.736 127.176 128.658 127.512 128.477 127.818C128.298 128.121 128.043 128.367 127.711 128.557C127.379 128.747 126.995 128.856 126.557 128.884ZM129.932 127.179L129.888 126.507L132.546 121.617L133.034 121.585L133.102 122.626L132.773 122.648L130.764 126.343L130.768 126.396L134.763 126.133L134.811 126.858L129.932 127.179ZM133.201 128.355L133.096 126.766L133.076 126.452L132.757 121.603L133.535 121.552L133.979 128.304L133.201 128.355Z" fill="#101828"/>
<path d="M153.792 112.608L173.23 111.329C174.992 111.214 176.515 112.548 176.631 114.311L177.7 130.558C177.816 132.32 176.481 133.843 174.718 133.959L155.28 135.238L153.792 112.608Z" fill="white"/>
<path d="M153.792 112.608L173.23 111.329C174.992 111.214 176.515 112.548 176.631 114.311L177.7 130.558C177.816 132.32 176.481 133.843 174.718 133.959L155.28 135.238L153.792 112.608Z" stroke="#D0D5DD" stroke-width="0.581498"/>
<path d="M165.628 119.794L166.073 126.563M162.466 123.401L169.235 122.956" stroke="#101828" stroke-width="1.163" stroke-linecap="round" stroke-linejoin="round"/>
</g>
<g filter="url(#filter3_d_400_763)">
<g clip-path="url(#clip3_400_763)">
<rect x="185.216" y="110.25" width="65.1278" height="23.2599" rx="3.48899" transform="rotate(-3.76337 185.216 110.25)" fill="white"/>
<g clip-path="url(#clip4_400_763)">
<path d="M203.983 125.332L202.453 119.023L194.769 119.571L194.119 125.981L203.983 125.332Z" stroke="#667085" stroke-width="1.0467" stroke-linejoin="round"/>
<circle cx="198.535" cy="117.386" r="1.65727" transform="rotate(-3.76337 198.535 117.386)" stroke="#667085" stroke-width="1.0467"/>
</g>
<path d="M214.522 123.076C214.135 123.102 213.781 123.048 213.461 122.914C213.141 122.781 212.879 122.586 212.675 122.33C212.47 122.074 212.348 121.776 212.308 121.434L213.099 121.382C213.15 121.685 213.305 121.929 213.564 122.113C213.826 122.294 214.129 122.374 214.474 122.351C214.751 122.333 214.993 122.252 215.2 122.108C215.409 121.964 215.567 121.775 215.676 121.54C215.786 121.303 215.831 121.041 215.812 120.753C215.793 120.459 215.711 120.2 215.566 119.978C215.423 119.753 215.235 119.581 215.002 119.462C214.769 119.343 214.509 119.291 214.221 119.308C214.014 119.32 213.804 119.365 213.591 119.446C213.377 119.524 213.204 119.618 213.07 119.728L212.299 119.686L212.489 116.336L215.997 116.105L216.044 116.831L213.222 117.016L213.116 119.023L213.156 119.021C213.287 118.902 213.454 118.799 213.658 118.713C213.863 118.626 214.078 118.576 214.304 118.561C214.717 118.534 215.092 118.609 215.428 118.785C215.766 118.959 216.039 119.211 216.246 119.539C216.455 119.868 216.574 120.25 216.603 120.688C216.631 121.119 216.56 121.51 216.389 121.861C216.22 122.21 215.973 122.493 215.65 122.711C215.326 122.926 214.95 123.048 214.522 123.076ZM221.012 115.776L221.456 122.527L220.678 122.579L220.234 115.827L221.012 115.776ZM222.987 122.427L222.543 115.675L223.321 115.624L223.485 118.116L223.551 118.112C223.602 118.02 223.674 117.903 223.766 117.76C223.86 117.615 223.999 117.482 224.183 117.362C224.37 117.239 224.627 117.167 224.957 117.145C225.384 117.117 225.766 117.199 226.106 117.391C226.445 117.583 226.719 117.868 226.927 118.247C227.135 118.626 227.257 119.082 227.292 119.614C227.327 120.15 227.266 120.621 227.11 121.026C226.953 121.43 226.72 121.75 226.411 121.986C226.102 122.221 225.737 122.352 225.315 122.38C224.989 122.401 224.725 122.364 224.523 122.269C224.32 122.172 224.161 122.058 224.047 121.927C223.932 121.793 223.843 121.682 223.78 121.593L223.687 121.599L223.738 122.377L222.987 122.427ZM223.585 119.844C223.61 120.227 223.689 120.561 223.82 120.846C223.951 121.128 224.13 121.345 224.356 121.496C224.582 121.644 224.851 121.708 225.163 121.688C225.489 121.666 225.754 121.563 225.961 121.377C226.169 121.189 226.319 120.945 226.409 120.645C226.502 120.344 226.536 120.012 226.513 119.652C226.489 119.296 226.413 118.979 226.285 118.7C226.158 118.419 225.979 118.203 225.748 118.05C225.52 117.895 225.24 117.828 224.911 117.85C224.594 117.871 224.334 117.969 224.129 118.143C223.924 118.316 223.776 118.548 223.685 118.841C223.593 119.132 223.56 119.466 223.585 119.844Z" fill="#101828"/>
</g>
<rect x="185.525" y="110.521" width="64.5463" height="22.6784" rx="3.19824" transform="rotate(-3.76337 185.525 110.521)" stroke="#D0D5DD" stroke-width="0.581498"/>
</g>
<g filter="url(#filter4_d_400_763)">
<g clip-path="url(#clip5_400_763)">
<rect x="261.927" y="105.204" width="45.3568" height="23.2599" rx="3.48899" transform="rotate(-3.76337 261.927 105.204)" fill="white"/>
<rect x="269.424" y="112.869" width="31.4009" height="6.97797" rx="3.48899" transform="rotate(-3.76337 269.424 112.869)" fill="#E5E7EB"/>
</g>
<rect x="262.236" y="105.475" width="44.7753" height="22.6784" rx="3.19824" transform="rotate(-3.76337 262.236 105.475)" stroke="#D0D5DD" stroke-width="0.581498"/>
</g>
</g>
<g filter="url(#filter5_d_400_763)">
<rect x="24.5317" y="89.4195" width="303" height="74" rx="4.5" transform="rotate(-3.76337 24.5317 89.4195)" fill="white" stroke="#F3F4F6"/>
<g clip-path="url(#clip6_400_763)">
<path d="M47.421 107.41L42.6692 110.475M42.6692 110.475L37.5568 108.059M42.6692 110.475L43.0318 115.987M48.0463 112.486L47.7365 107.776C47.7234 107.578 47.7168 107.478 47.6817 107.391C47.6506 107.315 47.6035 107.246 47.5436 107.188C47.4758 107.124 47.3857 107.081 47.2056 106.996L42.7548 104.893C42.5843 104.813 42.499 104.772 42.4107 104.76C42.3325 104.749 42.253 104.755 42.1769 104.776C42.0909 104.799 42.0117 104.85 41.8531 104.953L37.7162 107.62C37.5488 107.728 37.465 107.782 37.4063 107.855C37.3543 107.92 37.3167 107.994 37.2959 108.075C37.2725 108.165 37.279 108.265 37.2921 108.463L37.6019 113.173C37.615 113.372 37.6215 113.472 37.6566 113.558C37.6877 113.635 37.7348 113.704 37.7948 113.761C37.8626 113.826 37.9526 113.868 38.1328 113.953L42.5835 116.057C42.7541 116.137 42.8394 116.177 42.9277 116.19C43.0058 116.2 43.0854 116.195 43.1615 116.174C43.2474 116.151 43.3267 116.099 43.4852 115.997L47.6221 113.329C47.7896 113.221 47.8733 113.167 47.9321 113.095C47.984 113.03 48.0217 112.955 48.0424 112.875C48.0659 112.785 48.0594 112.685 48.0463 112.486Z" stroke="#111827" stroke-width="1.163" stroke-linecap="round" stroke-linejoin="round"/>
<path d="M45.1845 108.853L39.7715 106.295" stroke="black" stroke-width="1.163" stroke-linecap="round" stroke-linejoin="round"/>
</g>
<path d="M60.8181 107.04C60.7485 106.653 60.5473 106.362 60.2145 106.169C59.8816 105.973 59.4733 105.891 58.9898 105.923C58.6436 105.946 58.3478 106.02 58.1022 106.147C57.8565 106.27 57.6698 106.432 57.5422 106.631C57.4171 106.826 57.3624 107.044 57.3782 107.283C57.3913 107.483 57.4494 107.653 57.5524 107.793C57.6582 107.932 57.7912 108.046 57.9516 108.135C58.1145 108.221 58.2874 108.291 58.4703 108.345C58.6531 108.396 58.8282 108.437 58.9958 108.468L59.8341 108.628C60.1076 108.676 60.3896 108.747 60.68 108.841C60.9704 108.935 61.2425 109.066 61.4964 109.235C61.7503 109.403 61.9604 109.618 62.1266 109.88C62.2956 110.142 62.3926 110.463 62.4175 110.842C62.4489 111.32 62.3532 111.753 62.1304 112.14C61.9103 112.527 61.5737 112.843 61.1208 113.088C60.6705 113.333 60.1158 113.477 59.4564 113.52C58.8245 113.562 58.2712 113.497 57.7964 113.327C57.3217 113.157 56.9417 112.896 56.6565 112.545C56.3711 112.192 56.1979 111.761 56.137 111.255L57.4145 111.171C57.4593 111.474 57.575 111.722 57.7614 111.914C57.9504 112.103 58.1842 112.238 58.4627 112.319C58.7438 112.397 59.0478 112.425 59.3747 112.404C59.7346 112.38 60.051 112.303 60.3238 112.172C60.5992 112.038 60.8112 111.864 60.9599 111.65C61.1085 111.433 61.1737 111.187 61.1556 110.912C61.1392 110.662 61.0543 110.462 60.901 110.313C60.7504 110.162 60.5507 110.043 60.3021 109.955C60.0562 109.866 59.7796 109.792 59.4721 109.732L58.4569 109.526C57.769 109.386 57.2154 109.151 56.7963 108.819C56.3799 108.488 56.1524 108.028 56.1137 107.441C56.0818 106.954 56.1857 106.521 56.4256 106.141C56.6655 105.761 57.0041 105.456 57.4415 105.226C57.8787 104.993 58.3803 104.858 58.9462 104.821C59.5177 104.783 60.0284 104.85 60.4785 105.022C60.9312 105.194 61.2956 105.447 61.5714 105.782C61.8472 106.114 62.0054 106.507 62.0462 106.959L60.8181 107.04ZM64.9787 109.241L65.2259 113L63.9937 113.081L63.4386 104.641L64.6543 104.561L64.8608 107.701L64.9391 107.696C65.0651 107.346 65.2739 107.06 65.5657 106.839C65.8575 106.619 66.2492 106.492 66.741 106.46C67.1751 106.431 67.5601 106.496 67.896 106.653C68.2347 106.81 68.505 107.06 68.7069 107.403C68.9114 107.742 69.0309 108.176 69.0656 108.704L69.3305 112.73L68.0983 112.811L67.8432 108.933C67.8127 108.469 67.6695 108.117 67.4137 107.877C67.1576 107.634 66.8167 107.527 66.3909 107.555C66.0997 107.574 65.8427 107.653 65.6201 107.792C65.4002 107.931 65.2322 108.124 65.116 108.371C65.0024 108.616 64.9567 108.906 64.9787 109.241ZM70.9748 112.622L70.5584 106.292L71.7906 106.211L72.207 112.541L70.9748 112.622ZM71.1164 105.274C70.9022 105.288 70.7134 105.229 70.5501 105.096C70.3894 104.96 70.3025 104.792 70.2893 104.592C70.2759 104.388 70.3401 104.21 70.4818 104.058C70.6261 103.902 70.8054 103.817 71.0197 103.803C71.234 103.789 71.4215 103.85 71.5821 103.985C71.7454 104.118 71.8337 104.286 71.8471 104.489C71.8603 104.69 71.7947 104.868 71.6505 105.024C71.5087 105.177 71.3307 105.26 71.1164 105.274ZM74.0208 114.805L73.4483 106.102L74.6516 106.022L74.7191 107.049L74.8222 107.042C74.8849 106.905 74.9779 106.746 75.1012 106.564C75.2244 106.382 75.4013 106.219 75.6318 106.074C75.8622 105.926 76.1738 105.84 76.5666 105.814C77.0776 105.78 77.5422 105.879 77.9603 106.111C78.3784 106.343 78.7175 106.695 78.9775 107.166C79.2403 107.637 79.3941 108.215 79.4391 108.899C79.4841 109.583 79.4087 110.177 79.2128 110.681C79.0168 111.182 78.7283 111.578 78.3472 111.868C77.966 112.155 77.5199 112.315 77.0089 112.349C76.6243 112.374 76.3055 112.33 76.0525 112.217C75.8022 112.104 75.6027 111.965 75.4539 111.801C75.3052 111.637 75.1893 111.49 75.1063 111.361L75.0321 111.366L75.253 114.724L74.0208 114.805ZM74.864 109.187C74.8932 109.632 74.9835 110.018 75.1346 110.345C75.2858 110.671 75.4899 110.922 75.7469 111.095C76.0037 111.266 76.3093 111.339 76.6637 111.316C77.0318 111.292 77.3331 111.174 77.5676 110.963C77.8018 110.749 77.971 110.469 78.0752 110.122C78.1821 109.776 78.2216 109.391 78.1938 108.968C78.1663 108.551 78.0784 108.18 77.9302 107.856C77.7847 107.531 77.5806 107.281 77.318 107.105C77.058 106.929 76.7426 106.853 76.3717 106.878C76.0146 106.901 75.7184 107.013 75.4833 107.214C75.2509 107.414 75.0823 107.683 74.9776 108.021C74.8729 108.359 74.835 108.748 74.864 109.187ZM81.0271 111.96L80.6107 105.63L81.7934 105.553L81.8612 106.583L81.9395 106.578C82.0484 106.22 82.2462 105.934 82.5328 105.719C82.8193 105.502 83.1713 105.379 83.5889 105.352C84.012 105.324 84.3729 105.4 84.6717 105.579C84.9731 105.757 85.2039 106.015 85.3641 106.353L85.43 106.348C85.5589 106 85.7816 105.715 86.0981 105.493C86.4144 105.268 86.8006 105.141 87.2566 105.111C87.8308 105.073 88.3111 105.222 88.6974 105.558C89.0865 105.894 89.3049 106.424 89.3526 107.15L89.6318 111.394L88.3996 111.475L88.128 107.346C88.0998 106.918 87.9626 106.615 87.7164 106.438C87.4703 106.261 87.1851 106.183 86.8609 106.204C86.4598 106.231 86.1561 106.375 85.9498 106.637C85.7434 106.896 85.6528 107.218 85.6781 107.603L85.9435 111.637L84.7154 111.718L84.4386 107.51C84.416 107.167 84.2907 106.898 84.0627 106.703C83.8347 106.508 83.5489 106.422 83.2055 106.445C82.972 106.46 82.7604 106.536 82.5707 106.673C82.3836 106.807 82.2367 106.986 82.1301 107.211C82.0263 107.436 81.9837 107.691 82.0025 107.977L82.2592 111.879L81.0271 111.96ZM94.0199 111.234C93.3962 111.275 92.8503 111.177 92.3822 110.94C91.9167 110.701 91.5457 110.346 91.2692 109.875C90.9952 109.402 90.8367 108.837 90.7935 108.181C90.7508 107.532 90.8341 106.953 91.0434 106.443C91.2554 105.932 91.5706 105.523 91.9892 105.217C92.4106 104.911 92.9152 104.738 93.5031 104.7C93.8603 104.676 94.2103 104.712 94.5533 104.809C94.8962 104.905 95.2093 105.07 95.4924 105.306C95.7755 105.541 96.0073 105.855 96.1877 106.249C96.3679 106.64 96.4769 107.123 96.5147 107.697L96.5434 108.134L91.5116 108.465L91.4509 107.541L95.2752 107.29C95.2539 106.966 95.1691 106.683 95.0208 106.442C94.8723 106.198 94.6737 106.011 94.4251 105.881C94.1793 105.751 93.897 105.696 93.5783 105.717C93.2321 105.74 92.9355 105.845 92.6885 106.032C92.444 106.217 92.2607 106.449 92.1384 106.731C92.0188 107.009 91.9693 107.306 91.9901 107.622L92.0376 108.343C92.0654 108.766 92.1632 109.121 92.3311 109.408C92.5017 109.695 92.7268 109.908 93.0064 110.047C93.2857 110.183 93.6054 110.239 93.9653 110.215C94.1988 110.2 94.4095 110.153 94.5975 110.074C94.7853 109.993 94.9448 109.881 95.0761 109.737C95.2074 109.593 95.3036 109.42 95.3647 109.217L96.5448 109.35C96.474 109.7 96.3262 110.012 96.1014 110.286C95.8792 110.557 95.5915 110.776 95.2382 110.943C94.8875 111.107 94.4814 111.204 94.0199 111.234ZM99.0794 106.998L99.3266 110.757L98.0944 110.838L97.678 104.508L98.8608 104.43L98.9285 105.46L99.0068 105.455C99.1304 105.11 99.3407 104.826 99.6378 104.602C99.9376 104.379 100.325 104.251 100.8 104.22C101.232 104.191 101.616 104.257 101.952 104.417C102.288 104.574 102.556 104.824 102.758 105.167C102.96 105.51 103.078 105.942 103.113 106.464L103.378 110.49L102.145 110.571L101.89 106.693C101.86 106.235 101.717 105.884 101.461 105.641C101.205 105.396 100.868 105.287 100.45 105.315C100.165 105.333 99.9145 105.412 99.7001 105.55C99.4885 105.688 99.3259 105.881 99.2125 106.129C99.1017 106.373 99.0573 106.663 99.0794 106.998ZM107.569 103.857L107.634 104.846L104.176 105.074L104.111 104.085L107.569 103.857ZM104.938 102.507L106.171 102.426L106.565 108.414C106.58 108.653 106.628 108.831 106.707 108.947C106.786 109.06 106.884 109.135 106.999 109.172C107.117 109.205 107.244 109.218 107.378 109.209C107.477 109.202 107.563 109.19 107.637 109.171C107.71 109.153 107.767 109.138 107.808 109.127L108.097 110.13C108.027 110.162 107.928 110.196 107.798 110.233C107.668 110.272 107.504 110.299 107.306 110.315C106.982 110.341 106.676 110.304 106.388 110.201C106.1 110.099 105.861 109.927 105.671 109.685C105.482 109.444 105.374 109.132 105.349 108.751L104.938 102.507ZM115.25 109.709L112.518 109.889L111.963 101.449L114.782 101.264C115.609 101.209 116.33 101.332 116.946 101.63C117.561 101.927 118.048 102.379 118.405 102.987C118.765 103.593 118.974 104.334 119.031 105.21C119.089 106.089 118.978 106.855 118.698 107.508C118.421 108.161 117.991 108.678 117.409 109.058C116.827 109.436 116.107 109.653 115.25 109.709ZM113.718 108.693L115.107 108.601C115.75 108.559 116.276 108.403 116.686 108.133C117.096 107.861 117.392 107.487 117.573 107.011C117.754 106.533 117.822 105.96 117.778 105.292C117.735 104.63 117.592 104.075 117.35 103.628C117.111 103.18 116.776 102.85 116.346 102.638C115.915 102.427 115.392 102.341 114.777 102.382L113.309 102.478L113.718 108.693ZM123.531 109.293C122.907 109.334 122.361 109.236 121.893 108.999C121.428 108.759 121.057 108.404 120.78 107.934C120.506 107.461 120.348 106.896 120.304 106.24C120.262 105.591 120.345 105.012 120.554 104.501C120.766 103.991 121.081 103.582 121.5 103.276C121.921 102.97 122.426 102.797 123.014 102.759C123.371 102.735 123.721 102.771 124.064 102.867C124.407 102.963 124.72 103.129 125.003 103.364C125.286 103.6 125.518 103.914 125.699 104.308C125.879 104.699 125.988 105.181 126.026 105.756L126.054 106.192L121.022 106.523L120.962 105.6L124.786 105.349C124.765 105.025 124.68 104.742 124.532 104.5C124.383 104.256 124.185 104.069 123.936 103.94C123.69 103.809 123.408 103.755 123.089 103.776C122.743 103.799 122.446 103.904 122.199 104.091C121.955 104.275 121.772 104.508 121.649 104.789C121.53 105.068 121.48 105.365 121.501 105.681L121.548 106.402C121.576 106.825 121.674 107.18 121.842 107.467C122.013 107.754 122.238 107.967 122.517 108.106C122.797 108.242 123.116 108.298 123.476 108.274C123.71 108.259 123.92 108.212 124.108 108.133C124.296 108.052 124.456 107.939 124.587 107.796C124.718 107.652 124.814 107.478 124.876 107.276L126.056 107.409C125.985 107.759 125.837 108.071 125.612 108.345C125.39 108.616 125.102 108.835 124.749 109.002C124.398 109.165 123.992 109.263 123.531 109.293ZM130.144 102.372L130.209 103.361L126.751 103.589L126.686 102.6L130.144 102.372ZM127.514 101.022L128.746 100.941L129.14 106.929C129.155 107.168 129.203 107.346 129.282 107.462C129.361 107.575 129.459 107.65 129.574 107.687C129.692 107.72 129.819 107.733 129.953 107.724C130.052 107.717 130.138 107.705 130.212 107.686C130.285 107.668 130.342 107.653 130.383 107.642L130.672 108.645C130.603 108.677 130.503 108.712 130.373 108.748C130.243 108.787 130.079 108.814 129.881 108.83C129.558 108.856 129.252 108.819 128.963 108.716C128.675 108.614 128.436 108.442 128.246 108.2C128.057 107.959 127.949 107.647 127.924 107.266L127.514 101.022ZM133.774 108.632C133.373 108.658 133.006 108.608 132.672 108.481C132.338 108.351 132.066 108.149 131.858 107.876C131.652 107.603 131.536 107.258 131.509 106.844C131.485 106.486 131.535 106.188 131.657 105.948C131.779 105.708 131.952 105.513 132.177 105.363C132.402 105.213 132.656 105.095 132.94 105.007C133.224 104.919 133.514 104.848 133.812 104.792C134.188 104.723 134.493 104.667 134.728 104.624C134.962 104.579 135.13 104.519 135.233 104.446C135.336 104.373 135.383 104.263 135.373 104.114L135.371 104.085C135.347 103.726 135.227 103.453 135.011 103.269C134.797 103.084 134.491 103.005 134.093 103.031C133.678 103.059 133.357 103.172 133.13 103.372C132.906 103.569 132.756 103.782 132.68 104.01L131.505 103.822C131.617 103.429 131.797 103.105 132.045 102.852C132.296 102.595 132.591 102.402 132.93 102.272C133.269 102.139 133.629 102.06 134.011 102.035C134.264 102.019 134.534 102.031 134.821 102.073C135.11 102.112 135.384 102.201 135.641 102.342C135.901 102.482 136.121 102.692 136.299 102.973C136.478 103.251 136.582 103.621 136.612 104.082L136.889 108.286L135.686 108.365L135.629 107.5L135.579 107.503C135.51 107.668 135.401 107.832 135.252 107.996C135.102 108.161 134.906 108.302 134.663 108.42C134.419 108.538 134.123 108.609 133.774 108.632ZM133.977 107.625C134.318 107.602 134.605 107.516 134.838 107.365C135.073 107.215 135.247 107.027 135.359 106.801C135.474 106.573 135.523 106.334 135.507 106.084L135.453 105.268C135.412 105.315 135.329 105.362 135.206 105.408C135.084 105.452 134.945 105.493 134.787 105.531C134.63 105.566 134.476 105.6 134.326 105.632C134.176 105.661 134.051 105.686 133.95 105.706C133.713 105.752 133.498 105.817 133.305 105.902C133.115 105.986 132.965 106.099 132.856 106.242C132.749 106.381 132.703 106.561 132.717 106.781C132.737 107.086 132.865 107.309 133.101 107.451C133.336 107.59 133.628 107.648 133.977 107.625ZM138.53 108.178L138.114 101.848L139.346 101.767L139.762 108.097L138.53 108.178ZM138.672 100.83C138.458 100.845 138.269 100.785 138.105 100.652C137.945 100.517 137.858 100.349 137.845 100.148C137.831 99.9448 137.895 99.7668 138.037 99.614C138.181 99.4582 138.361 99.3733 138.575 99.3592C138.789 99.3451 138.977 99.4059 139.137 99.5416C139.301 99.6743 139.389 99.8423 139.402 100.046C139.416 100.246 139.35 100.424 139.206 100.58C139.064 100.733 138.886 100.816 138.672 100.83ZM142.097 99.4669L142.652 107.907L141.42 107.988L140.865 99.548L142.097 99.4669ZM148.739 102.701L147.635 102.973C147.579 102.833 147.495 102.702 147.385 102.579C147.278 102.457 147.136 102.36 146.961 102.288C146.785 102.217 146.569 102.19 146.314 102.207C145.965 102.23 145.679 102.327 145.456 102.499C145.232 102.668 145.128 102.875 145.145 103.12C145.158 103.331 145.248 103.497 145.413 103.615C145.578 103.734 145.838 103.823 146.192 103.883L147.213 104.047C147.804 104.144 148.252 104.323 148.556 104.584C148.86 104.845 149.027 105.2 149.057 105.648C149.081 106.027 148.994 106.372 148.794 106.683C148.596 106.992 148.307 107.242 147.928 107.436C147.552 107.629 147.108 107.742 146.597 107.776C145.888 107.822 145.3 107.709 144.832 107.436C144.365 107.161 144.061 106.746 143.923 106.193L145.102 105.933C145.197 106.238 145.364 106.463 145.606 106.607C145.847 106.749 146.153 106.807 146.524 106.783C146.928 106.756 147.245 106.651 147.476 106.468C147.706 106.282 147.813 106.066 147.797 105.822C147.784 105.624 147.699 105.463 147.542 105.338C147.388 105.213 147.157 105.126 146.85 105.077L145.763 104.913C145.164 104.817 144.713 104.631 144.41 104.356C144.111 104.08 143.946 103.717 143.917 103.267C143.892 102.893 143.975 102.559 144.165 102.265C144.356 101.971 144.63 101.734 144.988 101.553C145.345 101.37 145.762 101.262 146.237 101.231C146.921 101.186 147.469 101.299 147.882 101.57C148.294 101.838 148.58 102.215 148.739 102.701Z" fill="#111827"/>
<g filter="url(#filter6_d_400_763)">
<rect x="37.8203" y="125.363" width="91.8767" height="23.304" rx="4.65198" transform="rotate(-3.76337 37.8203 125.363)" fill="white"/>
<rect x="38.1295" y="125.634" width="91.2952" height="22.7225" rx="4.36123" transform="rotate(-3.76337 38.1295 125.634)" stroke="#D0D5DD" stroke-width="0.581498"/>
<path d="M41.3209 125.424L60.759 124.145L62.2475 146.775L42.8094 148.053C41.0469 148.169 39.5241 146.834 39.4081 145.072L38.3394 128.825C38.2235 127.063 39.5583 125.54 41.3209 125.424Z" fill="white"/>
<path d="M41.3209 125.424L60.759 124.145L62.2475 146.775L42.8094 148.053C41.0469 148.169 39.5241 146.834 39.4081 145.072L38.3394 128.825C38.2235 127.063 39.5583 125.54 41.3209 125.424Z" stroke="#D0D5DD" stroke-width="0.581498"/>
<path d="M46.8037 136.427L53.5732 135.982" stroke="#101828" stroke-width="1.163" stroke-linecap="round" stroke-linejoin="round"/>
<mask id="path-54-inside-2_400_763" fill="white">
<path d="M61.0303 123.836L106.289 120.859L107.819 144.113L62.5599 147.09L61.0303 123.836Z"/>
</mask>
<path d="M61.0303 123.836L106.289 120.859L107.819 144.113L62.5599 147.09L61.0303 123.836Z" fill="#F9FAFB"/>
<path d="M61.0684 124.416L106.327 121.439L106.251 120.279L60.9921 123.256L61.0684 124.416ZM107.781 143.532L62.5217 146.51L62.598 147.67L107.857 144.693L107.781 143.532Z" fill="#D0D5DD" mask="url(#path-54-inside-2_400_763)"/>
<path d="M84.7556 130.178L85.1997 136.93L84.3821 136.984L83.9944 131.089L83.9548 131.092L82.3784 132.295L82.3237 131.464L83.938 130.232L84.7556 130.178Z" fill="#101828"/>
<path d="M106.598 121.13L126.036 119.851C127.799 119.736 129.322 121.07 129.438 122.833L130.506 139.08C130.622 140.842 129.287 142.365 127.525 142.481L108.087 143.76L106.598 121.13Z" fill="white"/>
<path d="M106.598 121.13L126.036 119.851C127.799 119.736 129.322 121.07 129.438 122.833L130.506 139.08C130.622 140.842 129.287 142.365 127.525 142.481L108.087 143.76L106.598 121.13Z" stroke="#D0D5DD" stroke-width="0.581498"/>
<path d="M118.435 128.316L118.88 135.085M115.272 131.923L122.042 131.478" stroke="#101828" stroke-width="1.163" stroke-linecap="round" stroke-linejoin="round"/>
</g>
<g filter="url(#filter7_d_400_763)">
<g clip-path="url(#clip7_400_763)">
<rect x="137.622" y="118.798" width="65.1278" height="23.2599" rx="3.48899" transform="rotate(-3.76337 137.622 118.798)" fill="white"/>
<g clip-path="url(#clip8_400_763)">
<path d="M156.389 133.881L154.859 127.571L147.175 128.119L146.525 134.529L156.389 133.881Z" stroke="#667085" stroke-width="1.0467" stroke-linejoin="round"/>
<circle cx="150.942" cy="125.935" r="1.65727" transform="rotate(-3.76337 150.942 125.935)" stroke="#667085" stroke-width="1.0467"/>
</g>
<path d="M166.928 131.625C166.541 131.65 166.188 131.596 165.868 131.463C165.548 131.329 165.285 131.134 165.081 130.879C164.876 130.623 164.754 130.324 164.714 129.982L165.505 129.93C165.556 130.234 165.711 130.477 165.971 130.661C166.232 130.843 166.535 130.922 166.88 130.899C167.157 130.881 167.399 130.8 167.606 130.656C167.815 130.512 167.974 130.323 168.082 130.088C168.192 129.852 168.238 129.589 168.219 129.301C168.199 129.007 168.117 128.748 167.972 128.526C167.83 128.302 167.642 128.13 167.409 128.01C167.176 127.891 166.915 127.84 166.627 127.856C166.42 127.868 166.21 127.914 165.997 127.994C165.784 128.072 165.61 128.166 165.476 128.277L164.705 128.235L164.895 124.884L168.403 124.654L168.451 125.379L165.629 125.565L165.522 127.572L165.562 127.569C165.693 127.45 165.861 127.347 166.065 127.261C166.269 127.175 166.484 127.124 166.71 127.109C167.124 127.082 167.498 127.157 167.834 127.333C168.172 127.508 168.445 127.759 168.652 128.087C168.861 128.416 168.98 128.799 169.009 129.236C169.037 129.667 168.966 130.058 168.795 130.409C168.626 130.758 168.38 131.041 168.056 131.259C167.733 131.475 167.356 131.596 166.928 131.625ZM173.418 124.324L173.862 131.076L173.084 131.127L172.64 124.375L173.418 124.324ZM175.393 130.975L174.949 124.223L175.727 124.172L175.891 126.664L175.957 126.66C176.008 126.568 176.08 126.451 176.172 126.308C176.266 126.163 176.405 126.03 176.59 125.91C176.776 125.787 177.034 125.715 177.363 125.693C177.79 125.665 178.173 125.747 178.512 125.939C178.851 126.131 179.125 126.416 179.333 126.796C179.541 127.175 179.663 127.63 179.698 128.162C179.733 128.698 179.673 129.169 179.516 129.575C179.359 129.978 179.126 130.298 178.818 130.535C178.508 130.769 178.143 130.9 177.721 130.928C177.396 130.949 177.132 130.913 176.929 130.818C176.726 130.721 176.567 130.606 176.453 130.475C176.338 130.341 176.249 130.23 176.186 130.141L176.094 130.148L176.145 130.926L175.393 130.975ZM175.991 128.393C176.017 128.775 176.095 129.109 176.226 129.394C176.357 129.677 176.536 129.893 176.762 130.044C176.988 130.192 177.257 130.256 177.569 130.236C177.895 130.214 178.161 130.111 178.367 129.925C178.575 129.737 178.725 129.493 178.815 129.194C178.908 128.892 178.943 128.561 178.919 128.2C178.896 127.844 178.819 127.527 178.691 127.248C178.564 126.968 178.385 126.751 178.155 126.598C177.926 126.443 177.647 126.377 177.317 126.398C177.001 126.419 176.74 126.517 176.535 126.692C176.33 126.864 176.182 127.097 176.091 127.39C176 127.68 175.966 128.015 175.991 128.393Z" fill="#101828"/>
</g>
<rect x="137.931" y="119.069" width="64.5463" height="22.6784" rx="3.19824" transform="rotate(-3.76337 137.931 119.069)" stroke="#D0D5DD" stroke-width="0.581498"/>
</g>
<g filter="url(#filter8_d_400_763)">
<g clip-path="url(#clip9_400_763)">
<rect x="210.733" y="113.989" width="45.3568" height="23.2599" rx="3.48899" transform="rotate(-3.76337 210.733 113.989)" fill="white"/>
<rect x="218.23" y="121.654" width="31.4009" height="6.97797" rx="3.48899" transform="rotate(-3.76337 218.23 121.654)" fill="#E5E7EB"/>
</g>
<rect x="211.043" y="114.26" width="44.7753" height="22.6784" rx="3.19824" transform="rotate(-3.76337 211.043 114.26)" stroke="#D0D5DD" stroke-width="0.581498"/>
</g>
</g>
<defs>
<filter id="filter0_d_400_763" x="151.494" y="16.6608" width="47.2599" height="47.2599" filterUnits="userSpaceOnUse" color-interpolation-filters="sRGB">
<feFlood flood-opacity="0" result="BackgroundImageFix"/>
<feColorMatrix in="SourceAlpha" type="matrix" values="0 0 0 0 0 0 0 0 0 0 0 0 0 0 0 0 0 0 127 0" result="hardAlpha"/>
<feMorphology radius="0.581498" operator="erode" in="SourceAlpha" result="effect1_dropShadow_400_763"/>
<feOffset dy="0.581498"/>
<feGaussianBlur stdDeviation="6"/>
<feColorMatrix type="matrix" values="0 0 0 0 0 0 0 0 0 0 0 0 0 0 0 0 0 0 0.1 0"/>
<feBlend mode="normal" in2="BackgroundImageFix" result="effect1_dropShadow_400_763"/>
<feBlend mode="normal" in="SourceGraphic" in2="effect1_dropShadow_400_763" result="shape"/>
</filter>
<filter id="filter1_f_400_763" x="52.3174" y="44.3171" width="350.81" height="126.824" filterUnits="userSpaceOnUse" color-interpolation-filters="sRGB">
<feFlood flood-opacity="0" result="BackgroundImageFix"/>
<feBlend mode="normal" in="SourceGraphic" in2="BackgroundImageFix" result="shape"/>
<feGaussianBlur stdDeviation="7" result="effect1_foregroundBlur_400_763"/>
</filter>
<filter id="filter2_d_400_763" x="79.337" y="110.229" width="100.048" height="31.907" filterUnits="userSpaceOnUse" color-interpolation-filters="sRGB">
<feFlood flood-opacity="0" result="BackgroundImageFix"/>
<feColorMatrix in="SourceAlpha" type="matrix" values="0 0 0 0 0 0 0 0 0 0 0 0 0 0 0 0 0 0 127 0" result="hardAlpha"/>
<feOffset dy="0.581498"/>
<feGaussianBlur stdDeviation="0.581498"/>
<feColorMatrix type="matrix" values="0 0 0 0 0.0627451 0 0 0 0 0.0941176 0 0 0 0 0.156863 0 0 0 0.05 0"/>
<feBlend mode="normal" in2="BackgroundImageFix" result="effect1_dropShadow_400_763"/>
<feBlend mode="normal" in="SourceGraphic" in2="effect1_dropShadow_400_763" result="shape"/>
</filter>
<filter id="filter3_d_400_763" x="184.053" y="105.393" width="68.8402" height="29.8105" filterUnits="userSpaceOnUse" color-interpolation-filters="sRGB">
<feFlood flood-opacity="0" result="BackgroundImageFix"/>
<feColorMatrix in="SourceAlpha" type="matrix" values="0 0 0 0 0 0 0 0 0 0 0 0 0 0 0 0 0 0 127 0" result="hardAlpha"/>
<feOffset dy="0.581498"/>
<feGaussianBlur stdDeviation="0.581498"/>
<feColorMatrix type="matrix" values="0 0 0 0 0.0627451 0 0 0 0 0.0941176 0 0 0 0 0.156863 0 0 0 0.05 0"/>
<feBlend mode="normal" in2="BackgroundImageFix" result="effect1_dropShadow_400_763"/>
<feBlend mode="normal" in="SourceGraphic" in2="effect1_dropShadow_400_763" result="shape"/>
</filter>
<filter id="filter4_d_400_763" x="260.764" y="101.645" width="49.1116" height="28.5128" filterUnits="userSpaceOnUse" color-interpolation-filters="sRGB">
<feFlood flood-opacity="0" result="BackgroundImageFix"/>
<feColorMatrix in="SourceAlpha" type="matrix" values="0 0 0 0 0 0 0 0 0 0 0 0 0 0 0 0 0 0 127 0" result="hardAlpha"/>
<feOffset dy="0.581498"/>
<feGaussianBlur stdDeviation="0.581498"/>
<feColorMatrix type="matrix" values="0 0 0 0 0.0627451 0 0 0 0 0.0941176 0 0 0 0 0.156863 0 0 0 0.05 0"/>
<feBlend mode="normal" in2="BackgroundImageFix" result="effect1_dropShadow_400_763"/>
<feBlend mode="normal" in="SourceGraphic" in2="effect1_dropShadow_400_763" result="shape"/>
</filter>
<filter id="filter5_d_400_763" x="0.317383" y="49.3173" width="355.632" height="142.157" filterUnits="userSpaceOnUse" color-interpolation-filters="sRGB">
<feFlood flood-opacity="0" result="BackgroundImageFix"/>
<feColorMatrix in="SourceAlpha" type="matrix" values="0 0 0 0 0 0 0 0 0 0 0 0 0 0 0 0 0 0 127 0" result="hardAlpha"/>
<feOffset dy="4"/>
<feGaussianBlur stdDeviation="12"/>
<feComposite in2="hardAlpha" operator="out"/>
<feColorMatrix type="matrix" values="0 0 0 0 0.961085 0 0 0 0 0.961085 0 0 0 0 0.961085 0 0 0 1 0"/>
<feBlend mode="normal" in2="BackgroundImageFix" result="effect1_dropShadow_400_763"/>
<feBlend mode="normal" in="SourceGraphic" in2="effect1_dropShadow_400_763" result="shape"/>
</filter>
<filter id="filter6_d_400_763" x="36.6573" y="118.751" width="95.534" height="31.6101" filterUnits="userSpaceOnUse" color-interpolation-filters="sRGB">
<feFlood flood-opacity="0" result="BackgroundImageFix"/>
<feColorMatrix in="SourceAlpha" type="matrix" values="0 0 0 0 0 0 0 0 0 0 0 0 0 0 0 0 0 0 127 0" result="hardAlpha"/>
<feOffset dy="0.581498"/>
<feGaussianBlur stdDeviation="0.581498"/>
<feColorMatrix type="matrix" values="0 0 0 0 0.0627451 0 0 0 0 0.0941176 0 0 0 0 0.156863 0 0 0 0.05 0"/>
<feBlend mode="normal" in2="BackgroundImageFix" result="effect1_dropShadow_400_763"/>
<feBlend mode="normal" in="SourceGraphic" in2="effect1_dropShadow_400_763" result="shape"/>
</filter>
<filter id="filter7_d_400_763" x="136.459" y="113.942" width="68.8402" height="29.8105" filterUnits="userSpaceOnUse" color-interpolation-filters="sRGB">
<feFlood flood-opacity="0" result="BackgroundImageFix"/>
<feColorMatrix in="SourceAlpha" type="matrix" values="0 0 0 0 0 0 0 0 0 0 0 0 0 0 0 0 0 0 127 0" result="hardAlpha"/>
<feOffset dy="0.581498"/>
<feGaussianBlur stdDeviation="0.581498"/>
<feColorMatrix type="matrix" values="0 0 0 0 0.0627451 0 0 0 0 0.0941176 0 0 0 0 0.156863 0 0 0 0.05 0"/>
<feBlend mode="normal" in2="BackgroundImageFix" result="effect1_dropShadow_400_763"/>
<feBlend mode="normal" in="SourceGraphic" in2="effect1_dropShadow_400_763" result="shape"/>
</filter>
<filter id="filter8_d_400_763" x="209.57" y="110.43" width="49.1116" height="28.5128" filterUnits="userSpaceOnUse" color-interpolation-filters="sRGB">
<feFlood flood-opacity="0" result="BackgroundImageFix"/>
<feColorMatrix in="SourceAlpha" type="matrix" values="0 0 0 0 0 0 0 0 0 0 0 0 0 0 0 0 0 0 127 0" result="hardAlpha"/>
<feOffset dy="0.581498"/>
<feGaussianBlur stdDeviation="0.581498"/>
<feColorMatrix type="matrix" values="0 0 0 0 0.0627451 0 0 0 0 0.0941176 0 0 0 0 0.156863 0 0 0 0.05 0"/>
<feBlend mode="normal" in2="BackgroundImageFix" result="effect1_dropShadow_400_763"/>
<feBlend mode="normal" in="SourceGraphic" in2="effect1_dropShadow_400_763" result="shape"/>
</filter>
<clipPath id="clip0_400_763">
<rect width="12" height="12" fill="white" transform="translate(53 30)"/>
</clipPath>
<clipPath id="clip1_400_763">
<rect width="13.9559" height="13.9559" fill="white" transform="translate(188 10.022)"/>
</clipPath>
<clipPath id="clip2_400_763">
<rect width="12" height="12" fill="white" transform="translate(208 30)"/>
</clipPath>
<clipPath id="clip3_400_763">
<rect x="185.216" y="110.25" width="65.1278" height="23.2599" rx="3.48899" transform="rotate(-3.76337 185.216 110.25)" fill="white"/>
</clipPath>
<clipPath id="clip4_400_763">
<rect width="11.63" height="11.63" fill="white" transform="translate(192.56 115.594) rotate(-3.76337)"/>
</clipPath>
<clipPath id="clip5_400_763">
<rect x="261.927" y="105.204" width="45.3568" height="23.2599" rx="3.48899" transform="rotate(-3.76337 261.927 105.204)" fill="white"/>
</clipPath>
<clipPath id="clip6_400_763">
<rect width="13.9559" height="13.9559" fill="white" transform="translate(35.248 103.97) rotate(-3.76337)"/>
</clipPath>
<clipPath id="clip7_400_763">
<rect x="137.622" y="118.798" width="65.1278" height="23.2599" rx="3.48899" transform="rotate(-3.76337 137.622 118.798)" fill="white"/>
</clipPath>
<clipPath id="clip8_400_763">
<rect width="11.63" height="11.63" fill="white" transform="translate(144.966 124.142) rotate(-3.76337)"/>
</clipPath>
<clipPath id="clip9_400_763">
<rect x="210.733" y="113.989" width="45.3568" height="23.2599" rx="3.48899" transform="rotate(-3.76337 210.733 113.989)" fill="white"/>
</clipPath>
</defs>
</svg>
