<svg width="309" height="123" viewBox="0 0 309 123" fill="none" xmlns="http://www.w3.org/2000/svg">
<rect x="2" width="30" height="30" rx="4" fill="#111827"/>
<path d="M7.32054 12.1883C6.82926 12.1883 6.35808 11.9931 6.00979 11.6449C5.66171 11.2968 5.46498 10.8245 5.46289 10.3313H11.277C11.77 10.3306 12.2429 10.5269 12.5915 10.8768C12.94 11.2267 13.1355 11.7018 13.1348 12.1967L7.32054 12.1883ZM28.5397 15.4296V19.1136C28.5397 19.2595 28.482 19.3995 28.3794 19.5028C28.2765 19.6059 28.1371 19.664 27.9918 19.664H26.5449C26.3817 20.3089 25.9399 20.8467 25.3406 21.1302C24.7412 21.414 24.0469 21.414 23.4476 21.1302C22.8483 20.8467 22.4063 20.3089 22.243 19.664H16.4535C16.2915 20.3095 15.8502 20.8485 15.2506 21.1328C14.6512 21.4172 13.9563 21.4172 13.3568 21.1328C12.7574 20.8485 12.3161 20.3095 12.1541 19.664H11.1239C10.8211 19.664 10.5759 19.4176 10.5759 19.1136V17.042H16.0395V15.9414C16.0391 15.3574 15.8673 14.7867 15.5458 14.3003C15.224 13.8139 14.7668 13.4336 14.2313 13.2065V12.1884C14.229 11.4033 13.9168 10.651 13.363 10.0966C12.8095 9.54202 12.0594 9.23072 11.2773 9.23072H23.4515C23.6482 9.22988 23.8301 9.33505 23.9283 9.50592L26.5507 14.0841L28.2358 14.94C28.4211 15.0323 28.5388 15.2219 28.5398 15.4297L28.5397 15.4296ZM15.4365 19.1136C15.4386 18.8132 15.3217 18.5244 15.1114 18.3107C14.9013 18.097 14.6149 17.9761 14.3157 17.9746C14.0166 17.9732 13.7291 18.0913 13.5169 18.3029C13.3045 18.5145 13.1848 18.8023 13.1841 19.1027C13.1833 19.4031 13.3016 19.6913 13.513 19.904C13.7243 20.1168 14.0111 20.2363 14.3103 20.2363C14.6073 20.2356 14.8921 20.1172 15.1028 19.9071C15.3138 19.697 15.4335 19.4119 15.4365 19.1136ZM25.5197 19.1136C25.522 18.813 25.4047 18.5237 25.1942 18.3101C24.9835 18.0964 24.6967 17.9757 24.3973 17.9746C24.0977 17.9736 23.8103 18.0924 23.5983 18.3048C23.3863 18.5172 23.2671 18.8057 23.2673 19.1063C23.2675 19.4071 23.3871 19.6953 23.5995 19.9073C23.8119 20.1193 24.0996 20.2377 24.399 20.2362C24.6952 20.2341 24.9785 20.1151 25.1881 19.9052C25.3978 19.6953 25.517 19.411 25.5197 19.1136ZM14.943 15.9414C14.9439 15.4464 14.7484 14.9714 14.3997 14.6215C14.0512 14.2716 13.5783 14.0751 13.0854 14.0759H7.27071C7.27071 14.5707 7.4666 15.0451 7.81488 15.395C8.16337 15.7448 8.63584 15.9415 9.12857 15.9415L14.943 15.9414Z" fill="white"/>
<rect x="46" width="63.1818" height="30" rx="15" fill="#F3F4F6"/>
<path d="M66.5897 22.4997C66.4667 22.4993 66.3459 22.4658 66.2389 22.4022L59.7957 18.6521V18.6522C59.6851 18.5871 59.5931 18.4923 59.529 18.3777C59.4647 18.263 59.4308 18.1325 59.4307 17.9996V11.9998C59.4308 11.8669 59.4647 11.7364 59.529 11.6218C59.5931 11.5071 59.6851 11.4123 59.7957 11.3472L66.2389 7.59712V7.59726C66.3477 7.53134 66.4712 7.49673 66.5969 7.49673C66.7225 7.49673 66.846 7.53134 66.9548 7.59726L73.398 11.3474V11.3472C73.6177 11.4837 73.7512 11.7323 73.7488 11.9998V17.9999V17.9998C73.7486 18.1327 73.7147 18.2632 73.6504 18.3779C73.5863 18.4925 73.4943 18.5873 73.3837 18.6524L66.9405 22.4025V22.4024C66.8335 22.4659 66.7127 22.4995 66.5897 22.4999L66.5897 22.4997ZM60.8623 17.5571L66.5897 20.8946L72.3171 17.5571V12.4422L66.5897 9.10465L60.8623 12.4422V17.5571Z" fill="#4B5563"/>
<path d="M66.5899 22.4999C66.4001 22.4999 66.2179 22.421 66.0836 22.2803C65.9494 22.1397 65.874 21.9488 65.874 21.75V15.7498C65.874 15.4819 66.0105 15.2343 66.2319 15.1004C66.4534 14.9664 66.7263 14.9664 66.9479 15.1004C67.1693 15.2343 67.3058 15.4819 67.3058 15.7498V21.75C67.3058 21.9488 67.2304 22.1397 67.0961 22.2803C66.9619 22.421 66.7797 22.4999 66.5899 22.4999Z" fill="#4B5563"/>
<path d="M66.59 16.5002C66.467 16.4998 66.3462 16.4661 66.2392 16.4027L59.796 12.6526C59.5734 12.5185 59.4361 12.2704 59.4355 12.0016C59.4352 11.7327 59.5716 11.4839 59.7935 11.349C60.0156 11.2142 60.2894 11.2136 60.5119 11.3475L66.59 14.8951L72.6825 11.3475C72.9049 11.2136 73.1788 11.2142 73.4008 11.349C73.6229 11.4839 73.7593 11.7327 73.7588 12.0016C73.7583 12.2704 73.6209 12.5185 73.3983 12.6526L66.9551 16.4027C66.844 16.4687 66.7179 16.5024 66.5901 16.5002H66.59Z" fill="#4B5563"/>
<path d="M69.8134 14.625C69.6904 14.6246 69.5696 14.5911 69.4626 14.5275L63.0194 10.7774V10.7775C62.7968 10.6448 62.6588 10.3979 62.6572 10.1297C62.6557 9.8615 62.7907 9.6128 63.0116 9.47713C63.2325 9.34159 63.5057 9.3398 63.7282 9.47246L70.1714 13.2226C70.3558 13.332 70.4844 13.5215 70.5226 13.7402C70.5607 13.9587 70.5045 14.1836 70.369 14.3545C70.2334 14.5253 70.0326 14.6243 69.8206 14.625L69.8134 14.625Z" fill="#4B5563"/>
<path d="M80.2356 20V19.1051L83.5964 15.4261C83.9908 14.9953 84.3156 14.6207 84.5708 14.3026C84.8261 13.9811 85.015 13.6795 85.1376 13.3977C85.2636 13.1127 85.3265 12.8144 85.3265 12.5028C85.3265 12.1449 85.2404 11.835 85.068 11.5732C84.899 11.3113 84.667 11.1091 84.372 10.9666C84.077 10.8241 83.7456 10.7528 83.3777 10.7528C82.9866 10.7528 82.6452 10.834 82.3535 10.9964C82.0652 11.1555 81.8414 11.3793 81.6824 11.6676C81.5266 11.956 81.4487 12.294 81.4487 12.6818H80.2754C80.2754 12.0852 80.4129 11.5616 80.688 11.1108C80.9631 10.66 81.3377 10.3087 81.8116 10.0568C82.2889 9.80492 82.8242 9.67898 83.4174 9.67898C84.014 9.67898 84.5427 9.80492 85.0034 10.0568C85.4641 10.3087 85.8253 10.6484 86.0872 11.076C86.349 11.5036 86.4799 11.9792 86.4799 12.5028C86.4799 12.8774 86.412 13.2436 86.2761 13.6016C86.1435 13.9562 85.9115 14.3523 85.5801 14.7898C85.252 15.224 84.7962 15.7543 84.2129 16.3807L81.926 18.8267V18.9062H86.6589V20H80.2356ZM92.0332 20.1392C91.2842 20.1392 90.6461 19.9354 90.1191 19.5277C89.5922 19.1167 89.1895 18.5218 88.911 17.7429C88.6326 16.9607 88.4934 16.0161 88.4934 14.9091C88.4934 13.8087 88.6326 12.8691 88.911 12.0902C89.1928 11.308 89.5971 10.7114 90.1241 10.3004C90.6544 9.88613 91.2908 9.67898 92.0332 9.67898C92.7756 9.67898 93.4103 9.88613 93.9373 10.3004C94.4676 10.7114 94.872 11.308 95.1504 12.0902C95.4321 12.8691 95.573 13.8087 95.573 14.9091C95.573 16.0161 95.4338 16.9607 95.1554 17.7429C94.877 18.5218 94.4743 19.1167 93.9473 19.5277C93.4203 19.9354 92.7823 20.1392 92.0332 20.1392ZM92.0332 19.0455C92.7756 19.0455 93.3523 18.6875 93.7633 17.9716C94.1743 17.2557 94.3798 16.2348 94.3798 14.9091C94.3798 14.0275 94.2853 13.2768 94.0964 12.657C93.9108 12.0372 93.6423 11.5649 93.291 11.2401C92.943 10.9152 92.5237 10.7528 92.0332 10.7528C91.2974 10.7528 90.7224 11.1158 90.3081 11.8416C89.8938 12.5642 89.6866 13.5866 89.6866 14.9091C89.6866 15.7907 89.7794 16.5398 89.965 17.1562C90.1506 17.7727 90.4174 18.2417 90.7654 18.5632C91.1168 18.8847 91.5394 19.0455 92.0332 19.0455Z" fill="#111827"/>
<g filter="url(#filter0_d_400_1010)">
<rect x="2" y="48" width="148.375" height="23.2745" rx="4.6549" fill="white"/>
<rect x="2.29093" y="48.2909" width="147.793" height="22.6926" rx="4.36397" stroke="#D0D5DD" stroke-width="0.581862"/>
<g clip-path="url(#clip0_400_1010)">
<path d="M21.2324 58.4706H10.7324M18.3158 53.8039V56.1372M13.6491 53.8039V56.1372M13.5324 65.4706H18.4324C19.4125 65.4706 19.9026 65.4706 20.2769 65.2798C20.6062 65.112 20.8739 64.8443 21.0417 64.515C21.2324 64.1407 21.2324 63.6507 21.2324 62.6706V57.7706C21.2324 56.7905 21.2324 56.3004 21.0417 55.9261C20.8739 55.5968 20.6062 55.3291 20.2769 55.1613C19.9026 54.9706 19.4125 54.9706 18.4324 54.9706H13.5324C12.5523 54.9706 12.0623 54.9706 11.6879 55.1613C11.3587 55.3291 11.0909 55.5968 10.9232 55.9261C10.7324 56.3004 10.7324 56.7905 10.7324 57.7706V62.6706C10.7324 63.6507 10.7324 64.1407 10.9232 64.515C11.0909 64.8443 11.3587 65.112 11.6879 65.2798C12.0623 65.4706 12.5523 65.4706 13.5324 65.4706Z" stroke="#475467" stroke-width="1.2" stroke-linecap="round" stroke-linejoin="round"/>
</g>
<rect x="30.9824" y="56.1372" width="64.0047" height="7" rx="3.5" fill="#E5E7EB"/>
</g>
<g filter="url(#filter1_d_400_1010)">
<rect x="158.521" y="48" width="148.375" height="23.2745" rx="4.6549" fill="white"/>
<rect x="158.812" y="48.2909" width="147.793" height="22.6926" rx="4.36397" stroke="#D0D5DD" stroke-width="0.581862"/>
<g clip-path="url(#clip1_400_1010)">
<path d="M172.503 56.1372V59.6372L174.837 60.8039M178.337 59.6372C178.337 62.8589 175.725 65.4706 172.503 65.4706C169.282 65.4706 166.67 62.8589 166.67 59.6372C166.67 56.4156 169.282 53.8039 172.503 53.8039C175.725 53.8039 178.337 56.4156 178.337 59.6372Z" stroke="#475467" stroke-width="1.2" stroke-linecap="round" stroke-linejoin="round"/>
</g>
<rect x="187.503" y="56.1372" width="64.0047" height="7" rx="3.5" fill="#E5E7EB"/>
</g>
<path d="M2.65088 88.2744V82.35H4.76261C5.22352 82.35 5.60537 82.4339 5.90815 82.6017C6.21093 82.7695 6.43753 82.999 6.58795 83.2902C6.73838 83.5795 6.81359 83.9054 6.81359 84.2679C6.81359 84.6324 6.73741 84.9603 6.58506 85.2515C6.43463 85.5408 6.20707 85.7703 5.90236 85.94C5.59958 86.1078 5.2187 86.1916 4.75971 86.1916H3.30754V85.4337H4.67872C4.96992 85.4337 5.20617 85.3836 5.38745 85.2833C5.56873 85.1811 5.7018 85.0422 5.78665 84.8667C5.87151 84.6913 5.91393 84.4917 5.91393 84.2679C5.91393 84.0442 5.87151 83.8456 5.78665 83.672C5.7018 83.4985 5.56776 83.3625 5.38455 83.2641C5.20327 83.1658 4.96414 83.1166 4.66714 83.1166H3.54475V88.2744H2.65088ZM7.79207 88.2744V83.8311H8.65701V88.2744H7.79207ZM8.22888 83.1455C8.07846 83.1455 7.94925 83.0954 7.84125 82.9951C7.73518 82.8929 7.68215 82.7714 7.68215 82.6306C7.68215 82.4879 7.73518 82.3664 7.84125 82.2661C7.94925 82.1639 8.07846 82.1128 8.22888 82.1128C8.37931 82.1128 8.50755 82.1639 8.61362 82.2661C8.72162 82.3664 8.77562 82.4879 8.77562 82.6306C8.77562 82.7714 8.72162 82.8929 8.61362 82.9951C8.50755 83.0954 8.37931 83.1455 8.22888 83.1455ZM11.6923 88.3641C11.2622 88.3641 10.8919 88.2667 10.5814 88.0719C10.2729 87.8752 10.0357 87.6043 9.86981 87.2591C9.70396 86.9139 9.62103 86.5185 9.62103 86.073C9.62103 85.6218 9.70589 85.2235 9.8756 84.8783C10.0453 84.5312 10.2844 84.2602 10.593 84.0654C10.9016 83.8707 11.2651 83.7733 11.6836 83.7733C12.0211 83.7733 12.3219 83.836 12.5861 83.9613C12.8503 84.0847 13.0634 84.2583 13.2254 84.482C13.3894 84.7057 13.4868 84.967 13.5176 85.266H12.6758C12.6295 85.0577 12.5235 84.8783 12.3576 84.7279C12.1937 84.5775 11.9738 84.5023 11.698 84.5023C11.457 84.5023 11.2458 84.5659 11.0645 84.6932C10.8852 84.8185 10.7454 84.9979 10.6451 85.2312C10.5448 85.4627 10.4947 85.7365 10.4947 86.0528C10.4947 86.3768 10.5438 86.6564 10.6422 86.8917C10.7405 87.127 10.8794 87.3092 11.0587 87.4384C11.24 87.5676 11.4531 87.6322 11.698 87.6322C11.862 87.6322 12.0105 87.6024 12.1435 87.5426C12.2785 87.4809 12.3914 87.3931 12.482 87.2793C12.5746 87.1655 12.6392 87.0286 12.6758 86.8686H13.5176C13.4868 87.1559 13.3932 87.4124 13.237 87.638C13.0808 87.8637 12.8716 88.0411 12.6093 88.1703C12.3489 88.2995 12.0433 88.3641 11.6923 88.3641ZM15.2381 86.7673L15.2323 85.7114H15.3827L17.1531 83.8311H18.1887L16.1696 85.9718H16.0336L15.2381 86.7673ZM14.4426 88.2744V82.35H15.3075V88.2744H14.4426ZM17.2486 88.2744L15.6575 86.1627L16.2535 85.5581L18.3102 88.2744H17.2486ZM25.0121 82.35H25.9088V86.2466C25.9088 86.6612 25.8114 87.0286 25.6167 87.3488C25.4219 87.667 25.148 87.9177 24.7951 88.1009C24.4422 88.2822 24.0285 88.3728 23.5541 88.3728C23.0816 88.3728 22.6689 88.2822 22.316 88.1009C21.9631 87.9177 21.6892 87.667 21.4945 87.3488C21.2997 87.0286 21.2023 86.6612 21.2023 86.2466V82.35H22.0962V86.1743C22.0962 86.4423 22.155 86.6805 22.2726 86.8888C22.3922 87.0971 22.5609 87.261 22.7788 87.3806C22.9968 87.4982 23.2552 87.557 23.5541 87.557C23.855 87.557 24.1143 87.4982 24.3323 87.3806C24.5521 87.261 24.7199 87.0971 24.8356 86.8888C24.9533 86.6805 25.0121 86.4423 25.0121 86.1743V82.35ZM27.139 89.9407V83.8311H27.9837V84.5514H28.056C28.1061 84.4589 28.1785 84.3518 28.273 84.2303C28.3675 84.1088 28.4986 84.0028 28.6664 83.9121C28.8342 83.8196 29.0559 83.7733 29.3317 83.7733C29.6904 83.7733 30.0106 83.8639 30.2921 84.0452C30.5737 84.2265 30.7945 84.4878 30.9546 84.8291C31.1166 85.1705 31.1976 85.5813 31.1976 86.0615C31.1976 86.5417 31.1175 86.9534 30.9575 87.2967C30.7974 87.638 30.5775 87.9013 30.2979 88.0864C30.0183 88.2696 29.6991 88.3612 29.3404 88.3612C29.0704 88.3612 28.8496 88.3159 28.678 88.2253C28.5082 88.1346 28.3752 88.0286 28.2787 87.9071C28.1823 87.7856 28.1081 87.6776 28.056 87.5831H28.0039V89.9407H27.139ZM27.9866 86.0528C27.9866 86.3652 28.0319 86.6391 28.1225 86.8743C28.2132 87.1096 28.3443 87.2938 28.516 87.4269C28.6876 87.558 28.8978 87.6236 29.1466 87.6236C29.405 87.6236 29.621 87.5551 29.7946 87.4182C29.9681 87.2793 30.0993 87.0913 30.188 86.8541C30.2786 86.6169 30.3239 86.3498 30.3239 86.0528C30.3239 85.7597 30.2796 85.4964 30.1909 85.2631C30.1041 85.0297 29.973 84.8455 29.7975 84.7105C29.6239 84.5755 29.4069 84.508 29.1466 84.508C28.8959 84.508 28.6837 84.5726 28.5102 84.7019C28.3385 84.8311 28.2084 85.0114 28.1196 85.2428C28.0309 85.4742 27.9866 85.7442 27.9866 86.0528ZM34.8924 88.2744H33.9435L36.0755 82.35H37.1082L39.2402 88.2744H38.2914L36.6165 83.4261H36.5702L34.8924 88.2744ZM35.0515 85.9544H38.1294V86.7066H35.0515V85.9544ZM41.6181 88.3612C41.2594 88.3612 40.9393 88.2696 40.6577 88.0864C40.3781 87.9013 40.1582 87.638 39.9981 87.2967C39.84 86.9534 39.7609 86.5417 39.7609 86.0615C39.7609 85.5813 39.841 85.1705 40.001 84.8291C40.163 84.4878 40.3848 84.2265 40.6664 84.0452C40.9479 83.8639 41.2671 83.7733 41.6239 83.7733C41.8997 83.7733 42.1214 83.8196 42.2892 83.9121C42.4589 84.0028 42.5901 84.1088 42.6826 84.2303C42.7771 84.3518 42.8504 84.4589 42.9025 84.5514H42.9546V82.35H43.8195V88.2744H42.9748V87.5831H42.9025C42.8504 87.6776 42.7752 87.7856 42.6768 87.9071C42.5804 88.0286 42.4474 88.1346 42.2776 88.2253C42.1079 88.3159 41.8881 88.3612 41.6181 88.3612ZM41.809 87.6236C42.0578 87.6236 42.268 87.558 42.4396 87.4269C42.6132 87.2938 42.7443 87.1096 42.8331 86.8743C42.9237 86.6391 42.969 86.3652 42.969 86.0528C42.969 85.7442 42.9247 85.4742 42.836 85.2428C42.7472 85.0114 42.6171 84.8311 42.4454 84.7019C42.2738 84.5726 42.0616 84.508 41.809 84.508C41.5487 84.508 41.3317 84.5755 41.1581 84.7105C40.9846 84.8455 40.8534 85.0297 40.7647 85.2631C40.6779 85.4964 40.6345 85.7597 40.6345 86.0528C40.6345 86.3498 40.6789 86.6169 40.7676 86.8541C40.8563 87.0913 40.9875 87.2793 41.161 87.4182C41.3365 87.5551 41.5525 87.6236 41.809 87.6236ZM46.7173 88.3612C46.3586 88.3612 46.0385 88.2696 45.7569 88.0864C45.4773 87.9013 45.2574 87.638 45.0974 87.2967C44.9392 86.9534 44.8602 86.5417 44.8602 86.0615C44.8602 85.5813 44.9402 85.1705 45.1003 84.8291C45.2623 84.4878 45.4841 84.2265 45.7656 84.0452C46.0472 83.8639 46.3663 83.7733 46.7231 83.7733C46.9989 83.7733 47.2207 83.8196 47.3885 83.9121C47.5582 84.0028 47.6893 84.1088 47.7819 84.2303C47.8764 84.3518 47.9497 84.4589 48.0017 84.5514H48.0538V82.35H48.9187V88.2744H48.0741V87.5831H48.0017C47.9497 87.6776 47.8745 87.7856 47.7761 87.9071C47.6797 88.0286 47.5466 88.1346 47.3769 88.2253C47.2072 88.3159 46.9873 88.3612 46.7173 88.3612ZM46.9083 87.6236C47.157 87.6236 47.3673 87.558 47.5389 87.4269C47.7125 87.2938 47.8436 87.1096 47.9323 86.8743C48.0229 86.6391 48.0683 86.3652 48.0683 86.0528C48.0683 85.7442 48.0239 85.4742 47.9352 85.2428C47.8465 85.0114 47.7163 84.8311 47.5447 84.7019C47.373 84.5726 47.1609 84.508 46.9083 84.508C46.6479 84.508 46.431 84.5755 46.2574 84.7105C46.0838 84.8455 45.9527 85.0297 45.864 85.2631C45.7772 85.4964 45.7338 85.7597 45.7338 86.0528C45.7338 86.3498 45.7782 86.6169 45.8669 86.8541C45.9556 87.0913 46.0867 87.2793 46.2603 87.4182C46.4358 87.5551 46.6518 87.6236 46.9083 87.6236ZM50.1532 88.2744V83.8311H50.9893V84.537H51.0355C51.1165 84.2978 51.2592 84.1098 51.4637 83.9729C51.67 83.834 51.9034 83.7646 52.1637 83.7646C52.2177 83.7646 52.2814 83.7665 52.3546 83.7704C52.4299 83.7742 52.4887 83.7791 52.5311 83.7848V84.6122C52.4964 84.6025 52.4347 84.5919 52.346 84.5804C52.2573 84.5669 52.1685 84.5601 52.0798 84.5601C51.8754 84.5601 51.6932 84.6035 51.5331 84.6903C51.375 84.7751 51.2496 84.8937 51.157 85.0461C51.0645 85.1965 51.0182 85.3682 51.0182 85.561V88.2744H50.1532ZM55.0355 88.3641C54.5978 88.3641 54.2207 88.2706 53.9045 88.0835C53.5901 87.8945 53.3471 87.6294 53.1755 87.288C53.0058 86.9447 52.9209 86.5426 52.9209 86.0817C52.9209 85.6266 53.0058 85.2255 53.1755 84.8783C53.3471 84.5312 53.5862 84.2602 53.8929 84.0654C54.2014 83.8707 54.5621 83.7733 54.9748 83.7733C55.2255 83.7733 55.4685 83.8147 55.7038 83.8977C55.939 83.9806 56.1502 84.1108 56.3373 84.2882C56.5244 84.4656 56.6719 84.6961 56.7799 84.9796C56.8879 85.2611 56.9419 85.6034 56.9419 86.0065V86.3131H53.4098V85.6652H56.0943C56.0943 85.4376 56.048 85.2361 55.9554 85.0606C55.8629 84.8831 55.7327 84.7433 55.5649 84.6411C55.3991 84.5389 55.2043 84.4878 54.9806 84.4878C54.7376 84.4878 54.5254 84.5476 54.3442 84.6671C54.1648 84.7848 54.026 84.9391 53.9276 85.13C53.8312 85.319 53.783 85.5244 53.783 85.7462V86.2524C53.783 86.5494 53.835 86.802 53.9392 87.0103C54.0452 87.2186 54.1928 87.3777 54.3818 87.4876C54.5708 87.5956 54.7916 87.6496 55.0442 87.6496C55.2081 87.6496 55.3576 87.6265 55.4926 87.5802C55.6276 87.532 55.7443 87.4606 55.8426 87.3661C55.941 87.2716 56.0162 87.1549 56.0683 87.0161L56.8869 87.1636C56.8213 87.4047 56.7037 87.6159 56.534 87.7971C56.3662 87.9765 56.155 88.1163 55.9005 88.2166C55.6478 88.3149 55.3595 88.3641 55.0355 88.3641ZM61.2311 84.9159L60.4472 85.0548C60.4144 84.9545 60.3623 84.859 60.291 84.7684C60.2216 84.6778 60.1271 84.6035 60.0075 84.5456C59.8879 84.4878 59.7385 84.4589 59.5591 84.4589C59.3142 84.4589 59.1098 84.5138 58.9458 84.6238C58.7819 84.7318 58.7 84.8716 58.7 85.0432C58.7 85.1917 58.7549 85.3113 58.8649 85.4019C58.9748 85.4926 59.1522 85.5668 59.3971 85.6247L60.103 85.7867C60.5118 85.8812 60.8165 86.0268 61.0171 86.2235C61.2176 86.4202 61.3179 86.6757 61.3179 86.99C61.3179 87.2562 61.2408 87.4934 61.0865 87.7017C60.9342 87.908 60.7211 88.07 60.4472 88.1877C60.1753 88.3053 59.86 88.3641 59.5013 88.3641C59.0037 88.3641 58.5978 88.2581 58.2834 88.0459C57.9691 87.8318 57.7762 87.5281 57.7048 87.1347L58.5409 87.0074C58.5929 87.2253 58.7 87.3902 58.862 87.5021C59.024 87.612 59.2351 87.667 59.4955 87.667C59.779 87.667 60.0056 87.6081 60.1753 87.4905C60.345 87.3709 60.4298 87.2253 60.4298 87.0537C60.4298 86.9148 60.3778 86.7982 60.2736 86.7037C60.1714 86.6092 60.0143 86.5378 59.8021 86.4896L59.05 86.3247C58.6354 86.2302 58.3287 86.0798 58.1301 85.8734C57.9334 85.6671 57.835 85.4058 57.835 85.0895C57.835 84.8272 57.9083 84.5977 58.0549 84.401C58.2014 84.2043 58.4039 84.051 58.6624 83.9411C58.9208 83.8292 59.2168 83.7733 59.5504 83.7733C60.0306 83.7733 60.4086 83.8774 60.6844 84.0857C60.9602 84.292 61.1424 84.5688 61.2311 84.9159ZM65.5985 84.9159L64.8146 85.0548C64.7818 84.9545 64.7297 84.859 64.6584 84.7684C64.5889 84.6778 64.4944 84.6035 64.3749 84.5456C64.2553 84.4878 64.1058 84.4589 63.9265 84.4589C63.6816 84.4589 63.4771 84.5138 63.3132 84.6238C63.1493 84.7318 63.0673 84.8716 63.0673 85.0432C63.0673 85.1917 63.1223 85.3113 63.2322 85.4019C63.3422 85.4926 63.5196 85.5668 63.7645 85.6247L64.4703 85.7867C64.8792 85.8812 65.1839 86.0268 65.3845 86.2235C65.585 86.4202 65.6853 86.6757 65.6853 86.99C65.6853 87.2562 65.6082 87.4934 65.4539 87.7017C65.3015 87.908 65.0884 88.07 64.8146 88.1877C64.5427 88.3053 64.2273 88.3641 63.8686 88.3641C63.3711 88.3641 62.9651 88.2581 62.6508 88.0459C62.3364 87.8318 62.1436 87.5281 62.0722 87.1347L62.9082 87.0074C62.9603 87.2253 63.0673 87.3902 63.2293 87.5021C63.3913 87.612 63.6025 87.667 63.8629 87.667C64.1463 87.667 64.3729 87.6081 64.5427 87.4905C64.7124 87.3709 64.7972 87.2253 64.7972 87.0537C64.7972 86.9148 64.7452 86.7982 64.641 86.7037C64.5388 86.6092 64.3816 86.5378 64.1695 86.4896L63.4174 86.3247C63.0027 86.2302 62.6961 86.0798 62.4975 85.8734C62.3008 85.6671 62.2024 85.4058 62.2024 85.0895C62.2024 84.8272 62.2757 84.5977 62.4222 84.401C62.5688 84.2043 62.7713 84.051 63.0297 83.9411C63.2882 83.8292 63.5842 83.7733 63.9178 83.7733C64.398 83.7733 64.776 83.8774 65.0518 84.0857C65.3276 84.292 65.5098 84.5688 65.5985 84.9159Z" fill="#344054"/>
<rect x="2.29093" y="97.384" width="304.313" height="25.0554" rx="3.20024" fill="white"/>
<rect x="2.29093" y="97.384" width="304.313" height="25.0554" rx="3.20024" stroke="#2FB5C0" stroke-width="0.581862"/>
<g clip-path="url(#clip2_400_1010)">
<path d="M15.984 109.534C16.978 109.534 17.804 108.722 17.804 107.714C17.804 106.706 16.992 105.894 15.984 105.894C14.99 105.894 14.1641 106.706 14.1641 107.714C14.1641 108.722 14.99 109.534 15.984 109.534ZM15.984 107.028C16.362 107.028 16.6841 107.336 16.6841 107.728C16.6841 108.12 16.376 108.428 15.984 108.428C15.592 108.428 15.284 108.12 15.284 107.728C15.284 107.336 15.606 107.028 15.984 107.028Z" fill="#2FB5C0"/>
<path d="M15.9834 116.016C18.7834 116.016 20.9113 114.882 20.9113 113.37C20.9113 112.474 20.1553 111.69 18.8814 111.214L18.9373 111.158C20.5473 109.478 20.5473 106.762 18.9373 105.082C18.1393 104.256 17.1034 103.808 15.9834 103.808C14.8634 103.808 13.8274 104.256 13.0434 105.082C11.4334 106.762 11.4334 109.478 13.0434 111.158L13.0993 111.214C11.8253 111.69 11.0694 112.474 11.0694 113.37C11.0554 114.882 13.1834 116.016 15.9833 116.016H15.9834ZM13.8414 105.852C14.4154 105.25 15.1714 104.928 15.9834 104.928C16.7954 104.928 17.5514 105.25 18.1254 105.852C19.3154 107.098 19.3154 109.128 18.1254 110.374L15.9834 112.6L13.8414 110.374C12.6514 109.128 12.6514 107.098 13.8414 105.852ZM13.9535 112.11L15.5774 113.804C15.6895 113.916 15.8294 113.972 15.9834 113.972C16.1375 113.972 16.2775 113.916 16.3894 113.804L18.0134 112.11C19.1754 112.432 19.7914 112.978 19.7914 113.37C19.7914 114 18.3494 114.896 15.9832 114.896C13.6312 114.896 12.175 114.014 12.175 113.37C12.1752 112.964 12.7912 112.432 13.9532 112.11H13.9535Z" fill="#2FB5C0"/>
</g>
<rect x="30.9824" y="106.412" width="96" height="7" rx="3.5" fill="#E5E7EB"/>
<rect x="134.982" y="106.412" width="36" height="7" rx="3.5" fill="#E5E7EB"/>
<rect x="288.204" y="104.203" width="11.4181" height="11.4181" rx="5.70907" fill="#EBF8F9"/>
<rect x="288.204" y="104.203" width="11.4181" height="11.4181" rx="5.70907" stroke="#2FB5C0" stroke-width="0.581861"/>
<circle cx="293.913" cy="109.912" r="2.25" fill="#2FB5C0"/>
<defs>
<filter id="filter0_d_400_1010" x="0.836275" y="47.4181" width="150.702" height="25.6019" filterUnits="userSpaceOnUse" color-interpolation-filters="sRGB">
<feFlood flood-opacity="0" result="BackgroundImageFix"/>
<feColorMatrix in="SourceAlpha" type="matrix" values="0 0 0 0 0 0 0 0 0 0 0 0 0 0 0 0 0 0 127 0" result="hardAlpha"/>
<feOffset dy="0.581862"/>
<feGaussianBlur stdDeviation="0.581862"/>
<feColorMatrix type="matrix" values="0 0 0 0 0.0627451 0 0 0 0 0.0941176 0 0 0 0 0.156863 0 0 0 0.05 0"/>
<feBlend mode="normal" in2="BackgroundImageFix" result="effect1_dropShadow_400_1010"/>
<feBlend mode="normal" in="SourceGraphic" in2="effect1_dropShadow_400_1010" result="shape"/>
</filter>
<filter id="filter1_d_400_1010" x="157.357" y="47.4181" width="150.702" height="25.6019" filterUnits="userSpaceOnUse" color-interpolation-filters="sRGB">
<feFlood flood-opacity="0" result="BackgroundImageFix"/>
<feColorMatrix in="SourceAlpha" type="matrix" values="0 0 0 0 0 0 0 0 0 0 0 0 0 0 0 0 0 0 127 0" result="hardAlpha"/>
<feOffset dy="0.581862"/>
<feGaussianBlur stdDeviation="0.581862"/>
<feColorMatrix type="matrix" values="0 0 0 0 0.0627451 0 0 0 0 0.0941176 0 0 0 0 0.156863 0 0 0 0.05 0"/>
<feBlend mode="normal" in2="BackgroundImageFix" result="effect1_dropShadow_400_1010"/>
<feBlend mode="normal" in="SourceGraphic" in2="effect1_dropShadow_400_1010" result="shape"/>
</filter>
<clipPath id="clip0_400_1010">
<rect width="14" height="14" fill="white" transform="translate(8.98242 52.6372)"/>
</clipPath>
<clipPath id="clip1_400_1010">
<rect width="14" height="14" fill="white" transform="translate(165.503 52.6372)"/>
</clipPath>
<clipPath id="clip2_400_1010">
<rect width="14" height="14" fill="white" transform="translate(8.98242 102.912)"/>
</clipPath>
</defs>
</svg>
