<svg width="334" height="205" viewBox="0 0 334 205" fill="none" xmlns="http://www.w3.org/2000/svg">
<g clip-path="url(#clip0_482_874)">
<rect x="11" y="38.5302" width="138.306" height="188.906" rx="4.30141" transform="rotate(-9.08191 11 38.5302)" fill="#F3F4F6"/>
<g filter="url(#filter0_d_482_874)">
<rect x="43.6235" y="192.735" width="122.048" height="23.6222" rx="4.30141" transform="rotate(-9.08191 43.6235 192.735)" fill="white"/>
<g clip-path="url(#clip1_482_874)">
<path d="M90.2744 195.41L83.6483 196.469C83.4455 196.501 83.264 196.613 83.1435 196.779C83.023 196.946 82.9735 197.153 83.0059 197.356L83.4541 200.159C83.4865 200.362 83.5981 200.543 83.7645 200.664C83.9307 200.784 84.1381 200.834 84.3409 200.801L84.8505 200.72L84.9727 201.484C85.0052 201.687 85.1168 201.869 85.2831 201.989C85.4494 202.11 85.6567 202.159 85.8595 202.127L89.9371 201.475C90.1399 201.443 90.3215 201.331 90.442 201.165C90.5624 200.998 90.6119 200.791 90.5795 200.588L90.4573 199.824L90.967 199.742C91.1698 199.71 91.3513 199.598 91.4718 199.432C91.5923 199.266 91.6418 199.058 91.6093 198.855L91.1612 196.052C91.1288 195.849 91.0172 195.668 90.8508 195.547C90.6845 195.427 90.4772 195.377 90.2744 195.41L90.2744 195.41ZM89.5193 200.496L85.9514 201.067L85.6663 199.283L89.2342 198.712L89.5193 200.496ZM89.1328 194.808L84.5455 195.541L84.4233 194.777C84.3909 194.574 84.4403 194.367 84.5608 194.201C84.6812 194.034 84.8628 193.923 85.0656 193.89L88.1238 193.401C88.3266 193.369 88.5339 193.418 88.7002 193.539C88.8665 193.659 88.9781 193.841 89.0105 194.044L89.1328 194.808Z" fill="#4B5563"/>
</g>
<rect x="95.2319" y="193.181" width="33.1698" height="6.44968" rx="3.22484" transform="rotate(-9.08 95.2319 193.181)" fill="#E5E7EB"/>
</g>
<rect x="20.3701" y="47.2809" width="121.44" height="141.679" transform="rotate(-9.08191 20.3701 47.2809)" fill="white"/>
<rect x="25.465" y="50.9716" width="112.542" height="132.782" transform="rotate(-9.08191 25.465 50.9716)" fill="white" stroke="#9CA3AF" stroke-width="2.15071"/>
<rect x="92.4155" y="140.475" width="3.93703" height="17.7166" transform="rotate(-9.08191 92.4155 140.475)" fill="#6B7280"/>
<rect x="97.6016" y="139.646" width="7.87406" height="17.7166" transform="rotate(-9.08191 97.6016 139.646)" fill="#6B7280"/>
<rect x="106.673" y="138.196" width="3.93703" height="17.7166" transform="rotate(-9.08191 106.673 138.196)" fill="#6B7280"/>
<rect x="118.336" y="136.331" width="2.62469" height="17.7166" transform="rotate(-9.08191 118.336 136.331)" fill="#6B7280"/>
<rect x="111.855" y="137.367" width="5.24937" height="17.7166" transform="rotate(-9.08191 111.855 137.367)" fill="#6B7280"/>
<rect x="122.222" y="135.71" width="3.93703" height="17.7166" transform="rotate(-9.08191 122.222 135.71)" fill="#6B7280"/>
<rect x="127.405" y="134.882" width="7.87406" height="17.7166" transform="rotate(-9.08191 127.405 134.882)" fill="#6B7280"/>
<rect x="136.477" y="133.432" width="1.96852" height="17.7166" transform="rotate(-9.08191 136.477 133.432)" fill="#6B7280"/>
<rect x="139.717" y="132.914" width="0.656172" height="17.7166" transform="rotate(-9.08191 139.717 132.914)" fill="#6B7280"/>
<rect x="52.8926" y="146.793" width="3.93703" height="17.7166" transform="rotate(-9.08191 52.8926 146.793)" fill="#6B7280"/>
<rect x="58.0752" y="145.964" width="7.87406" height="17.7166" transform="rotate(-9.08191 58.0752 145.964)" fill="#6B7280"/>
<rect x="67.146" y="144.514" width="3.93703" height="17.7166" transform="rotate(-9.08191 67.146 144.514)" fill="#6B7280"/>
<rect x="78.8101" y="142.65" width="2.62469" height="17.7166" transform="rotate(-9.08191 78.8101 142.65)" fill="#6B7280"/>
<rect x="72.3301" y="143.686" width="5.24937" height="17.7166" transform="rotate(-9.08191 72.3301 143.686)" fill="#6B7280"/>
<rect x="82.6987" y="142.028" width="8.53023" height="17.7166" transform="rotate(-9.08191 82.6987 142.028)" fill="#6B7280"/>
<line x1="30.3399" y1="76.3657" x2="141.787" y2="58.551" stroke="#9CA3AF" stroke-width="0.537677"/>
<g clip-path="url(#clip2_482_874)">
<path fill-rule="evenodd" clip-rule="evenodd" d="M42.1652 56.097C42.9841 55.7549 43.9038 56.3073 43.9863 57.1911C44.8728 57.1497 45.5481 57.9834 45.3234 58.842C46.1726 59.1069 46.521 60.1192 46.0152 60.8507C46.7226 61.3901 46.7039 62.4604 45.9783 62.9747C46.4576 63.7217 46.073 64.7235 45.2172 64.9581C45.412 65.824 44.7081 66.6339 43.8236 66.5616C43.7102 67.444 42.7741 67.963 41.9656 67.5918C41.5573 68.3821 40.5 68.5494 39.8673 67.9242C39.2133 68.5272 38.1626 68.323 37.7819 67.519C36.9628 67.8612 36.0434 67.3087 35.9607 66.425C35.0741 66.4664 34.399 65.6328 34.6237 64.7741C33.7745 64.5092 33.4259 63.4971 33.9318 62.7654C33.2245 62.226 33.2429 61.1557 33.9687 60.6413C33.4896 59.894 33.8738 58.8927 34.7299 58.6579C34.5352 57.7919 35.2389 56.9824 36.1236 57.0544C36.2369 56.1721 37.1732 55.653 37.9815 56.0243C38.3898 55.234 39.4472 55.0666 40.0798 55.6918C40.7338 55.0888 41.7847 55.293 42.1653 56.097L42.1652 56.097ZM41.9463 56.6675C42.6835 56.3594 43.5113 56.8568 43.5855 57.6522C44.3834 57.615 44.9914 58.3654 44.789 59.1382C45.5534 59.3766 45.867 60.2878 45.4117 60.9463C46.0485 61.4318 46.0316 62.3952 45.3785 62.8583C45.8099 63.5306 45.4638 64.4324 44.6935 64.6436C44.8689 65.423 44.2352 66.1519 43.439 66.0868C43.3369 66.8811 42.4944 67.3483 41.7666 67.0143C41.399 67.7256 40.4473 67.8762 39.8779 67.3134C39.2891 67.8562 38.3433 67.6724 38.0007 66.9488C37.2635 67.2567 36.4359 66.7594 36.3615 65.964C35.5634 66.0013 34.9556 65.251 35.1579 64.4779C34.3936 64.2395 34.0798 63.3285 34.5352 62.6699C33.8986 62.1843 33.9152 61.221 34.5685 60.7579C34.1373 60.0853 34.4831 59.184 35.2536 58.9725C35.0784 58.193 35.7118 57.4644 36.5082 57.5293C36.6103 56.7351 37.453 56.2678 38.1806 56.6021C38.548 55.8906 39.4998 55.7399 40.0693 56.3027C40.658 55.76 41.6039 55.9437 41.9465 56.6676L41.9463 56.6675Z" fill="#6B7280"/>
<path fill-rule="evenodd" clip-rule="evenodd" d="M41.7857 57.0843C42.463 56.8013 43.2238 57.2582 43.2921 57.9891C44.0254 57.955 44.5839 58.6445 44.3981 59.3547C45.1006 59.5737 45.3886 60.411 44.9703 61.0161C45.5554 61.4622 45.54 62.3475 44.9397 62.7731C45.3361 63.3909 45.018 64.2195 44.3101 64.4137C44.4713 65.13 43.8889 65.7998 43.1573 65.74C43.0634 66.4698 42.2892 66.8991 41.6204 66.5921C41.2827 67.2458 40.4081 67.3842 39.8848 66.8671C39.3438 67.3658 38.4747 67.197 38.1597 66.5319C37.4822 66.8149 36.7217 66.358 36.6533 65.627C35.9199 65.6612 35.3616 64.9717 35.5473 64.2614C34.845 64.0423 34.5567 63.2051 34.9751 62.5999C34.39 62.1537 34.4053 61.2685 35.0057 60.8429C34.6095 60.2248 34.9272 59.3966 35.6353 59.2023C35.4742 58.486 36.0563 57.8164 36.7881 57.876C36.882 57.1463 37.6564 56.7169 38.325 57.024C38.6627 56.3703 39.5373 56.2317 40.0606 56.7489C40.6016 56.2502 41.4708 56.4191 41.7857 57.0842L41.7857 57.0843Z" fill="#6B7280"/>
</g>
<line x1="40.5933" y1="140.512" x2="152.04" y2="122.698" stroke="#9CA3AF" stroke-width="0.537677"/>
<rect x="57.1826" y="53.0767" width="50.5252" height="5.24937" transform="rotate(-9.08191 57.1826 53.0767)" fill="#E5E7EB"/>
<rect x="67.4951" y="59.4021" width="32.8086" height="5.24937" transform="rotate(-9.08191 67.4951 59.4021)" fill="#E5E7EB"/>
<rect x="53.9912" y="78.8377" width="50.5252" height="5.24937" transform="rotate(-9.08191 53.9912 78.8377)" fill="#E5E7EB"/>
<rect x="55.4414" y="87.909" width="19.029" height="5.24937" transform="rotate(-9.08191 55.4414 87.909)" fill="#E5E7EB"/>
<rect x="77.4722" y="84.3874" width="19.029" height="5.24937" transform="rotate(-9.08191 77.4722 84.3874)" fill="#E5E7EB"/>
<circle cx="44.7248" cy="85.3028" r="4.92129" transform="rotate(-9.08191 44.7248 85.3028)" fill="#E5E7EB"/>
<g filter="url(#filter1_d_482_874)">
<g clip-path="url(#clip3_482_874)">
<rect x="183.297" y="131.488" width="139.319" height="41.8654" rx="7.62335" transform="rotate(-9.08191 183.297 131.488)" fill="white"/>
<g clip-path="url(#clip4_482_874)">
<path d="M222.923 143.109L211.18 144.987C210.82 145.044 210.498 145.242 210.285 145.537C210.071 145.831 209.984 146.199 210.041 146.558L210.835 151.527C210.893 151.886 211.091 152.208 211.385 152.421C211.68 152.635 212.048 152.722 212.407 152.665L213.31 152.521L213.527 153.876C213.584 154.235 213.782 154.557 214.077 154.77C214.372 154.984 214.739 155.071 215.099 155.014L222.325 153.859C222.685 153.801 223.006 153.603 223.22 153.309C223.433 153.014 223.521 152.647 223.464 152.287L223.247 150.932L224.15 150.788C224.51 150.73 224.832 150.532 225.045 150.238C225.259 149.943 225.346 149.576 225.289 149.216L224.495 144.248C224.437 143.888 224.239 143.567 223.945 143.353C223.65 143.14 223.282 143.052 222.923 143.109L222.923 143.109ZM221.585 152.124L215.261 153.135L214.756 149.973L221.079 148.963L221.585 152.124ZM220.9 142.043L212.77 143.343L212.553 141.988C212.496 141.628 212.583 141.261 212.797 140.966C213.01 140.672 213.332 140.474 213.691 140.416L219.111 139.55C219.471 139.492 219.838 139.58 220.133 139.794C220.428 140.007 220.626 140.329 220.683 140.688L220.9 142.043Z" fill="#4B5563"/>
</g>
<path d="M234.188 148.602L232.657 139.021L236.249 138.447C236.985 138.329 237.625 138.368 238.168 138.563C238.714 138.757 239.153 139.074 239.485 139.513C239.821 139.949 240.037 140.471 240.134 141.079C240.232 141.693 240.19 142.26 240.007 142.778C239.825 143.297 239.503 143.734 239.041 144.089C238.58 144.441 237.979 144.676 237.24 144.794L234.859 145.175L234.631 143.748L236.778 143.405C237.208 143.336 237.549 143.205 237.799 143.011C238.05 142.818 238.22 142.58 238.309 142.297C238.401 142.013 238.42 141.702 238.366 141.362C238.311 141.022 238.196 140.733 238.021 140.496C237.849 140.258 237.612 140.089 237.312 139.99C237.014 139.887 236.648 139.871 236.215 139.94L234.624 140.194L235.924 148.325L234.188 148.602ZM242.591 147.259L241.443 140.073L243.085 139.811L243.276 141.009L243.351 140.997C243.416 140.561 243.589 140.205 243.871 139.93C244.156 139.651 244.504 139.478 244.916 139.413C245.01 139.398 245.115 139.386 245.232 139.377C245.351 139.364 245.451 139.359 245.532 139.362L245.781 140.92C245.705 140.907 245.588 140.903 245.429 140.909C245.272 140.912 245.122 140.924 244.979 140.947C244.67 140.997 244.403 141.108 244.178 141.282C243.956 141.452 243.793 141.665 243.69 141.921C243.588 142.177 243.56 142.458 243.609 142.764L244.285 146.988L242.591 147.259ZM247.814 146.424L246.666 139.238L248.359 138.968L249.508 146.153L247.814 146.424ZM247.354 138.083C247.086 138.125 246.841 138.073 246.619 137.927C246.397 137.777 246.265 137.575 246.225 137.323C246.184 137.067 246.246 136.835 246.411 136.626C246.576 136.414 246.792 136.287 247.06 136.244C247.331 136.201 247.577 136.254 247.796 136.405C248.018 136.552 248.149 136.753 248.19 137.009C248.23 137.261 248.168 137.493 248.004 137.705C247.842 137.913 247.625 138.039 247.354 138.083ZM252.27 141.394L252.943 145.604L251.249 145.875L250.101 138.689L251.719 138.431L251.914 139.652L251.999 139.638C252.1 139.209 252.312 138.848 252.636 138.553C252.963 138.257 253.395 138.067 253.931 137.981C254.427 137.902 254.876 137.939 255.278 138.092C255.683 138.245 256.019 138.506 256.286 138.876C256.556 139.246 256.735 139.717 256.824 140.292L257.555 144.867L255.862 145.138L255.172 140.824C255.096 140.344 254.911 139.988 254.618 139.757C254.328 139.525 253.965 139.444 253.528 139.514C253.232 139.561 252.979 139.669 252.769 139.836C252.562 140.001 252.412 140.215 252.32 140.479C252.231 140.743 252.214 141.048 252.27 141.394ZM261.716 136.833L261.926 138.143L257.795 138.803L257.586 137.493L261.716 136.833ZM258.33 135.608L260.024 135.338L261.102 142.084C261.138 142.311 261.201 142.48 261.289 142.591C261.379 142.698 261.486 142.764 261.608 142.789C261.731 142.815 261.862 142.816 262.002 142.794C262.108 142.777 262.204 142.753 262.289 142.724C262.377 142.694 262.443 142.669 262.488 142.649L262.985 143.927C262.899 143.973 262.775 144.028 262.613 144.092C262.454 144.156 262.254 144.21 262.015 144.255C261.593 144.335 261.201 144.332 260.838 144.246C260.476 144.157 260.17 143.979 259.923 143.711C259.679 143.443 259.522 143.085 259.453 142.635L258.33 135.608ZM267.624 143.258L266.092 133.677L267.828 133.399L269.127 141.525L273.347 140.851L273.579 142.306L267.624 143.258ZM277.101 141.891C276.646 141.964 276.223 141.949 275.832 141.845C275.444 141.737 275.118 141.54 274.855 141.252C274.595 140.965 274.427 140.585 274.351 140.114C274.287 139.709 274.308 139.362 274.415 139.073C274.523 138.784 274.693 138.539 274.926 138.338C275.16 138.138 275.432 137.971 275.744 137.838C276.058 137.702 276.386 137.587 276.73 137.494C277.144 137.383 277.479 137.289 277.735 137.213C277.991 137.134 278.173 137.047 278.279 136.953C278.388 136.856 278.43 136.726 278.404 136.564L278.4 136.536C278.343 136.183 278.195 135.927 277.955 135.767C277.715 135.607 277.399 135.559 277.006 135.622C276.591 135.688 276.277 135.831 276.062 136.051C275.851 136.27 275.723 136.51 275.678 136.769L274.061 136.798C274.116 136.341 274.264 135.943 274.504 135.604C274.743 135.262 275.059 134.985 275.45 134.772C275.841 134.556 276.287 134.407 276.79 134.327C277.136 134.272 277.487 134.257 277.843 134.284C278.199 134.31 278.534 134.394 278.847 134.536C279.161 134.674 279.428 134.889 279.651 135.18C279.876 135.47 280.027 135.853 280.104 136.331L280.872 141.14L279.244 141.4L279.087 140.413L279.03 140.422C278.959 140.638 278.844 140.848 278.685 141.053C278.528 141.254 278.318 141.43 278.055 141.581C277.793 141.728 277.476 141.831 277.101 141.891ZM277.342 140.577C277.682 140.522 277.966 140.408 278.194 140.234C278.422 140.057 278.585 139.845 278.683 139.599C278.784 139.353 278.814 139.097 278.771 138.832L278.636 137.985C278.59 138.037 278.506 138.092 278.384 138.15C278.265 138.208 278.13 138.263 277.979 138.316C277.827 138.369 277.677 138.419 277.528 138.465C277.378 138.511 277.249 138.551 277.139 138.584C276.892 138.659 276.675 138.751 276.488 138.861C276.3 138.971 276.16 139.106 276.067 139.264C275.974 139.42 275.945 139.607 275.98 139.825C276.029 140.137 276.181 140.354 276.434 140.477C276.687 140.6 276.99 140.633 277.342 140.577ZM282.65 140.856L281.118 131.275L282.812 131.004L283.385 134.588L283.455 134.576C283.514 134.388 283.608 134.182 283.736 133.961C283.863 133.736 284.051 133.531 284.3 133.347C284.548 133.161 284.883 133.034 285.304 132.966C285.859 132.877 286.382 132.939 286.873 133.152C287.367 133.361 287.79 133.72 288.14 134.23C288.493 134.737 288.733 135.389 288.86 136.188C288.987 136.977 288.964 137.668 288.794 138.262C288.623 138.855 288.338 139.332 287.938 139.694C287.539 140.055 287.057 140.281 286.492 140.371C286.081 140.437 285.728 140.423 285.435 140.329C285.142 140.235 284.897 140.105 284.701 139.938C284.507 139.767 284.351 139.602 284.233 139.442L284.134 139.457L284.315 140.589L282.65 140.856ZM283.736 136.997C283.811 137.462 283.941 137.859 284.128 138.187C284.318 138.515 284.553 138.757 284.834 138.914C285.118 139.067 285.439 139.114 285.798 139.057C286.172 138.997 286.469 138.847 286.69 138.607C286.91 138.364 287.056 138.058 287.128 137.688C287.203 137.315 287.205 136.904 287.133 136.454C287.061 136.008 286.934 135.623 286.751 135.297C286.568 134.971 286.334 134.73 286.05 134.574C285.766 134.418 285.435 134.37 285.058 134.43C284.696 134.488 284.404 134.632 284.182 134.863C283.96 135.094 283.811 135.391 283.735 135.755C283.661 136.119 283.662 136.533 283.736 136.997ZM294.077 139.173C293.356 139.288 292.71 139.238 292.138 139.022C291.569 138.803 291.1 138.44 290.731 137.933C290.362 137.422 290.117 136.791 289.997 136.04C289.878 135.301 289.915 134.63 290.107 134.026C290.301 133.42 290.627 132.92 291.085 132.527C291.543 132.13 292.116 131.877 292.802 131.768C293.244 131.697 293.674 131.702 294.09 131.782C294.508 131.86 294.892 132.022 295.242 132.27C295.595 132.517 295.896 132.856 296.144 133.287C296.391 133.714 296.565 134.243 296.666 134.873L296.749 135.392L290.859 136.334L290.677 135.192L294.943 134.51C294.888 134.186 294.772 133.909 294.594 133.678C294.416 133.445 294.192 133.274 293.922 133.167C293.656 133.059 293.36 133.031 293.036 133.083C292.69 133.139 292.399 133.271 292.164 133.482C291.928 133.689 291.759 133.94 291.656 134.235C291.555 134.526 291.529 134.832 291.577 135.154L291.737 136.15C291.803 136.568 291.937 136.915 292.138 137.19C292.338 137.461 292.588 137.655 292.888 137.77C293.187 137.882 293.521 137.909 293.889 137.85C294.135 137.811 294.353 137.741 294.542 137.64C294.73 137.537 294.886 137.404 295.011 137.244C295.135 137.083 295.219 136.895 295.261 136.681L296.871 136.606C296.838 137.04 296.706 137.435 296.475 137.792C296.247 138.145 295.93 138.442 295.524 138.683C295.117 138.92 294.635 139.084 294.077 139.173ZM298.844 128.441L300.375 138.022L298.682 138.293L297.15 128.712L298.844 128.441Z" fill="#344054"/>
</g>
</g>
<path d="M128.502 179.081C125.857 181.905 123.416 184.497 120.993 187.125C120.476 187.673 120.026 188.291 119.55 188.83C119.228 189.205 118.773 189.442 118.281 189.49C117.788 189.538 117.296 189.395 116.907 189.09C116.696 188.962 116.512 188.793 116.366 188.594C116.22 188.395 116.115 188.168 116.056 187.928C115.998 187.688 115.988 187.439 116.027 187.195C116.066 186.951 116.153 186.717 116.283 186.507C116.658 185.726 117.141 185.002 117.717 184.356C119.977 181.737 122.271 179.147 124.837 176.225C123.763 175.734 122.647 175.34 121.503 175.046C115.365 174.012 109.063 174.638 103.248 176.858C101.592 177.651 100.013 178.596 98.5331 179.682C97.3575 180.406 96.1032 180.987 95.051 179.64C93.9988 178.294 94.7329 177.182 95.6603 176.171C97.9079 173.943 100.716 172.363 103.788 171.6C109.598 169.765 115.759 169.323 121.773 170.31C124.298 170.925 126.781 171.704 129.205 172.644C130.552 171.76 132.146 170.659 133.783 169.627C144.178 163.074 155.504 158.803 167.265 155.663C175.247 153.522 183.298 151.956 191.315 150.124C192.251 149.991 193.126 149.578 193.824 148.939C192.082 148.559 190.321 148.211 188.598 147.777C187.649 147.602 186.735 147.275 185.891 146.807C185.409 146.534 185.051 146.085 184.893 145.555C184.734 145.024 184.787 144.452 185.041 143.96C185.25 143.513 185.623 143.164 186.082 142.985C186.541 142.805 187.052 142.809 187.508 142.996C192.699 144.108 197.895 145.183 203.091 146.281C203.837 146.416 204.57 146.615 205.283 146.875C207.242 147.692 207.754 149.227 206.658 151.071C206.261 151.72 205.79 152.32 205.254 152.859C202.837 155.5 200.399 158.113 197.94 160.698C197.58 161.101 197.18 161.466 196.748 161.79C196.327 162.144 195.792 162.332 195.243 162.321C194.694 162.309 194.167 162.099 193.761 161.728C193.542 161.562 193.359 161.354 193.223 161.115C193.086 160.876 193 160.612 192.969 160.339C192.937 160.066 192.962 159.789 193.041 159.526C193.119 159.262 193.25 159.018 193.426 158.806C194.459 157.352 195.662 156.019 196.626 154.372C174.382 158.259 152.483 162.973 133.072 175.831C133.364 176.573 133.705 177.294 134.092 177.991C138.442 184.818 138.51 191.935 135.386 199.123C131.134 208.9 123.487 215.177 113.717 219.006C109.579 220.667 105.14 221.443 100.684 221.285C88.6343 220.694 79.6209 212.585 77.8173 200.677C75.3634 184.085 87.1957 166.083 102.884 162.573C104.15 162.308 105.441 162.177 106.735 162.181C108.035 162.174 109.137 162.721 109.172 164.222C109.206 165.555 108.212 166.07 107.088 166.331C105.48 166.536 103.888 166.845 102.32 167.257C89.3576 171.706 80.257 187.304 82.6899 200.759C83.3388 204.924 85.3891 208.743 88.5021 211.585C91.6151 214.427 95.6045 216.123 99.8113 216.391C112.515 217.461 127.338 207.883 131.545 195.777C132.8 192.404 133.023 188.733 132.185 185.233C131.725 182.811 130.42 180.631 128.502 179.081Z" fill="#E5E7EB"/>
<rect x="58.3428" y="106.051" width="50.5252" height="5.24937" transform="rotate(-9.08191 58.3428 106.051)" fill="#E5E7EB"/>
<rect x="59.792" y="115.123" width="34.7771" height="5.24937" transform="rotate(-9.08191 59.792 115.123)" fill="#E5E7EB"/>
<circle cx="49.0768" cy="112.516" r="4.92129" transform="rotate(-9.08191 49.0768 112.516)" fill="#E5E7EB"/>
</g>
<defs>
<filter id="filter0_d_482_874" x="42.5482" y="172.933" width="126.397" height="44.7416" filterUnits="userSpaceOnUse" color-interpolation-filters="sRGB">
<feFlood flood-opacity="0" result="BackgroundImageFix"/>
<feColorMatrix in="SourceAlpha" type="matrix" values="0 0 0 0 0 0 0 0 0 0 0 0 0 0 0 0 0 0 127 0" result="hardAlpha"/>
<feOffset dy="0.537677"/>
<feGaussianBlur stdDeviation="0.537677"/>
<feColorMatrix type="matrix" values="0 0 0 0 0.0627451 0 0 0 0 0.0941176 0 0 0 0 0.156863 0 0 0 0.05 0"/>
<feBlend mode="normal" in2="BackgroundImageFix" result="effect1_dropShadow_482_874"/>
<feBlend mode="normal" in="SourceGraphic" in2="effect1_dropShadow_482_874" result="shape"/>
</filter>
<filter id="filter1_d_482_874" x="161.184" y="89.2266" width="188.407" height="107.558" filterUnits="userSpaceOnUse" color-interpolation-filters="sRGB">
<feFlood flood-opacity="0" result="BackgroundImageFix"/>
<feColorMatrix in="SourceAlpha" type="matrix" values="0 0 0 0 0 0 0 0 0 0 0 0 0 0 0 0 0 0 127 0" result="hardAlpha"/>
<feOffset dy="1.84277"/>
<feGaussianBlur stdDeviation="11.0566"/>
<feColorMatrix type="matrix" values="0 0 0 0 0.0627451 0 0 0 0 0.0941176 0 0 0 0 0.156863 0 0 0 0.05 0"/>
<feBlend mode="normal" in2="BackgroundImageFix" result="effect1_dropShadow_482_874"/>
<feBlend mode="normal" in="SourceGraphic" in2="effect1_dropShadow_482_874" result="shape"/>
</filter>
<clipPath id="clip0_482_874">
<rect width="334" height="205" rx="14" fill="white"/>
</clipPath>
<clipPath id="clip1_482_874">
<rect width="8.60283" height="8.60283" fill="white" transform="translate(82.3193 194.155) rotate(-9.08191)"/>
</clipPath>
<clipPath id="clip2_482_874">
<rect width="13.1234" height="13.1234" fill="white" transform="translate(32.458 56.3645) rotate(-9.08191)"/>
</clipPath>
<clipPath id="clip3_482_874">
<rect x="183.297" y="131.488" width="139.319" height="41.8654" rx="7.62335" transform="rotate(-9.08191 183.297 131.488)" fill="white"/>
</clipPath>
<clipPath id="clip4_482_874">
<rect width="15.2467" height="15.2467" fill="white" transform="translate(208.825 140.886) rotate(-9.08191)"/>
</clipPath>
</defs>
</svg>
