<svg width="338" height="246" viewBox="0 0 338 246" fill="none" xmlns="http://www.w3.org/2000/svg">
<rect y="46.5303" width="138.306" height="188.906" rx="4.30141" transform="rotate(-9.08191 0 46.5303)" fill="#F3F4F6"/>
<g filter="url(#filter0_d_400_962)">
<rect x="32.6235" y="200.736" width="122.048" height="23.6222" rx="4.30141" transform="rotate(-9.08191 32.6235 200.736)" fill="white"/>
<g clip-path="url(#clip0_400_962)">
<path d="M79.2744 203.41L72.6483 204.469C72.4455 204.501 72.264 204.613 72.1435 204.779C72.023 204.946 71.9735 205.153 72.0059 205.356L72.4541 208.159C72.4865 208.362 72.5981 208.543 72.7645 208.664C72.9307 208.784 73.1381 208.834 73.3409 208.802L73.8505 208.72L73.9727 209.485C74.0052 209.687 74.1168 209.869 74.2831 209.989C74.4494 210.11 74.6567 210.159 74.8595 210.127L78.9371 209.475C79.1399 209.443 79.3215 209.331 79.442 209.165C79.5624 208.998 79.6119 208.791 79.5795 208.588L79.4573 207.824L79.967 207.742C80.1698 207.71 80.3513 207.598 80.4718 207.432C80.5923 207.266 80.6418 207.058 80.6093 206.856L80.1612 204.052C80.1288 203.849 80.0172 203.668 79.8508 203.547C79.6845 203.427 79.4772 203.377 79.2744 203.41L79.2744 203.41ZM78.5193 208.496L74.9514 209.067L74.6663 207.283L78.2342 206.713L78.5193 208.496ZM78.1328 202.808L73.5455 203.542L73.4233 202.777C73.3909 202.574 73.4403 202.367 73.5608 202.201C73.6812 202.034 73.8628 201.923 74.0656 201.89L77.1238 201.401C77.3266 201.369 77.5339 201.418 77.7002 201.539C77.8665 201.659 77.9781 201.841 78.0105 202.044L78.1328 202.808Z" fill="#4B5563"/>
</g>
<rect x="84.2319" y="201.181" width="33.1698" height="6.44968" rx="3.22484" transform="rotate(-9.08 84.2319 201.181)" fill="#E5E7EB"/>
</g>
<rect x="9.37012" y="55.2809" width="121.44" height="141.679" transform="rotate(-9.08191 9.37012 55.2809)" fill="white"/>
<rect x="14.465" y="58.9717" width="112.542" height="132.782" transform="rotate(-9.08191 14.465 58.9717)" fill="white" stroke="#9CA3AF" stroke-width="2.15071"/>
<rect x="81.4155" y="148.475" width="3.93703" height="17.7166" transform="rotate(-9.08191 81.4155 148.475)" fill="#6B7280"/>
<rect x="86.6016" y="147.646" width="7.87406" height="17.7166" transform="rotate(-9.08191 86.6016 147.646)" fill="#6B7280"/>
<rect x="95.6733" y="146.196" width="3.93703" height="17.7166" transform="rotate(-9.08191 95.6733 146.196)" fill="#6B7280"/>
<rect x="107.336" y="144.332" width="2.62469" height="17.7166" transform="rotate(-9.08191 107.336 144.332)" fill="#6B7280"/>
<rect x="100.855" y="145.367" width="5.24937" height="17.7166" transform="rotate(-9.08191 100.855 145.367)" fill="#6B7280"/>
<rect x="111.222" y="143.71" width="3.93703" height="17.7166" transform="rotate(-9.08191 111.222 143.71)" fill="#6B7280"/>
<rect x="116.405" y="142.882" width="7.87406" height="17.7166" transform="rotate(-9.08191 116.405 142.882)" fill="#6B7280"/>
<rect x="125.477" y="141.432" width="1.96852" height="17.7166" transform="rotate(-9.08191 125.477 141.432)" fill="#6B7280"/>
<rect x="128.717" y="140.914" width="0.656172" height="17.7166" transform="rotate(-9.08191 128.717 140.914)" fill="#6B7280"/>
<rect x="41.8926" y="154.793" width="3.93703" height="17.7166" transform="rotate(-9.08191 41.8926 154.793)" fill="#6B7280"/>
<rect x="47.0752" y="153.964" width="7.87406" height="17.7166" transform="rotate(-9.08191 47.0752 153.964)" fill="#6B7280"/>
<rect x="56.146" y="152.514" width="3.93703" height="17.7166" transform="rotate(-9.08191 56.146 152.514)" fill="#6B7280"/>
<rect x="67.8101" y="150.65" width="2.62469" height="17.7166" transform="rotate(-9.08191 67.8101 150.65)" fill="#6B7280"/>
<rect x="61.3301" y="151.686" width="5.24937" height="17.7166" transform="rotate(-9.08191 61.3301 151.686)" fill="#6B7280"/>
<rect x="71.6987" y="150.028" width="8.53023" height="17.7166" transform="rotate(-9.08191 71.6987 150.028)" fill="#6B7280"/>
<line x1="19.3399" y1="84.3658" x2="130.787" y2="66.5511" stroke="#9CA3AF" stroke-width="0.537677"/>
<g clip-path="url(#clip1_400_962)">
<path fill-rule="evenodd" clip-rule="evenodd" d="M31.1652 64.0971C31.9841 63.755 32.9038 64.3075 32.9863 65.1912C33.8728 65.1498 34.5481 65.9835 34.3234 66.8421C35.1726 67.107 35.521 68.1193 35.0152 68.8508C35.7226 69.3902 35.7039 70.4605 34.9783 70.9748C35.4576 71.7218 35.073 72.7236 34.2172 72.9582C34.412 73.8241 33.7081 74.634 32.8236 74.5617C32.7102 75.4441 31.7741 75.9631 30.9656 75.5919C30.5573 76.3822 29.5 76.5495 28.8673 75.9243C28.2133 76.5273 27.1626 76.3231 26.7819 75.5191C25.9628 75.8613 25.0434 75.3088 24.9607 74.4251C24.0741 74.4665 23.399 73.6329 23.6237 72.7742C22.7745 72.5093 22.4259 71.4972 22.9318 70.7655C22.2245 70.2261 22.2429 69.1558 22.9687 68.6414C22.4896 67.8941 22.8738 66.8928 23.7299 66.658C23.5352 65.792 24.2389 64.9825 25.1236 65.0545C25.2369 64.1722 26.1732 63.6531 26.9815 64.0244C27.3898 63.2341 28.4472 63.0667 29.0798 63.692C29.7338 63.089 30.7847 63.2931 31.1653 64.0971L31.1652 64.0971ZM30.9463 64.6676C31.6835 64.3595 32.5113 64.8569 32.5855 65.6523C33.3834 65.6151 33.9914 66.3655 33.789 67.1383C34.5534 67.3767 34.867 68.2879 34.4117 68.9464C35.0485 69.4319 35.0316 70.3953 34.3785 70.8584C34.8099 71.5307 34.4638 72.4325 33.6935 72.6437C33.8689 73.4231 33.2352 74.152 32.439 74.0869C32.3369 74.8812 31.4944 75.3484 30.7666 75.0144C30.399 75.7257 29.4473 75.8763 28.8779 75.3135C28.2891 75.8563 27.3433 75.6725 27.0007 74.9489C26.2635 75.2568 25.4359 74.7595 25.3615 73.9641C24.5634 74.0014 23.9556 73.2511 24.1579 72.478C23.3936 72.2396 23.0798 71.3286 23.5352 70.67C22.8986 70.1844 22.9152 69.2212 23.5685 68.758C23.1373 68.0854 23.4831 67.1841 24.2536 66.9726C24.0784 66.1931 24.7118 65.4645 25.5082 65.5294C25.6103 64.7352 26.453 64.2679 27.1806 64.6022C27.548 63.8908 28.4998 63.74 29.0693 64.3028C29.658 63.7601 30.6039 63.9438 30.9465 64.6677L30.9463 64.6676Z" fill="#6B7280"/>
<path fill-rule="evenodd" clip-rule="evenodd" d="M30.7857 65.0844C31.463 64.8014 32.2238 65.2584 32.2921 65.9892C33.0254 65.9551 33.5839 66.6446 33.3981 67.3548C34.1006 67.5738 34.3886 68.4111 33.9703 69.0162C34.5554 69.4623 34.54 70.3476 33.9397 70.7732C34.3361 71.391 34.018 72.2197 33.3101 72.4138C33.4713 73.1301 32.8889 73.7999 32.1573 73.7401C32.0634 74.47 31.2892 74.8992 30.6204 74.5922C30.2827 75.246 29.4081 75.3843 28.8848 74.8672C28.3438 75.3659 27.4747 75.1971 27.1597 74.532C26.4822 74.815 25.7217 74.3581 25.6533 73.6271C24.9199 73.6613 24.3616 72.9718 24.5473 72.2615C23.845 72.0424 23.5567 71.2052 23.9751 70.6C23.39 70.1538 23.4053 69.2686 24.0057 68.843C23.6095 68.2249 23.9272 67.3967 24.6353 67.2024C24.4742 66.4862 25.0563 65.8165 25.7881 65.8761C25.882 65.1464 26.6564 64.717 27.325 65.0241C27.6627 64.3704 28.5373 64.2318 29.0606 64.749C29.6016 64.2504 30.4708 64.4192 30.7857 65.0843L30.7857 65.0844Z" fill="#6B7280"/>
</g>
<line x1="29.5933" y1="148.513" x2="141.04" y2="130.698" stroke="#9CA3AF" stroke-width="0.537677"/>
<rect x="46.1826" y="61.0768" width="50.5252" height="5.24937" transform="rotate(-9.08191 46.1826 61.0768)" fill="#E5E7EB"/>
<rect x="56.4951" y="67.4022" width="32.8086" height="5.24937" transform="rotate(-9.08191 56.4951 67.4022)" fill="#E5E7EB"/>
<rect x="42.9912" y="86.8378" width="50.5252" height="5.24937" transform="rotate(-9.08191 42.9912 86.8378)" fill="#E5E7EB"/>
<rect x="44.4414" y="95.9091" width="19.029" height="5.24937" transform="rotate(-9.08191 44.4414 95.9091)" fill="#E5E7EB"/>
<rect x="66.4722" y="92.3875" width="19.029" height="5.24937" transform="rotate(-9.08191 66.4722 92.3875)" fill="#E5E7EB"/>
<circle cx="33.7248" cy="93.3028" r="4.92129" transform="rotate(-9.08191 33.7248 93.3028)" fill="#E5E7EB"/>
<g filter="url(#filter1_d_400_962)">
<g clip-path="url(#clip2_400_962)">
<rect x="172.297" y="139.488" width="139.319" height="41.8654" rx="7.62335" transform="rotate(-9.08191 172.297 139.488)" fill="white"/>
<g clip-path="url(#clip3_400_962)">
<path d="M211.923 151.11L200.18 152.987C199.82 153.044 199.498 153.242 199.285 153.537C199.071 153.831 198.984 154.199 199.041 154.558L199.835 159.527C199.893 159.886 200.091 160.208 200.385 160.421C200.68 160.635 201.048 160.722 201.407 160.665L202.31 160.521L202.527 161.876C202.584 162.235 202.782 162.557 203.077 162.77C203.372 162.984 203.739 163.071 204.099 163.014L211.325 161.859C211.685 161.801 212.006 161.604 212.22 161.309C212.433 161.014 212.521 160.647 212.464 160.287L212.247 158.932L213.15 158.788C213.51 158.73 213.832 158.533 214.045 158.238C214.259 157.943 214.346 157.576 214.289 157.216L213.495 152.248C213.437 151.889 213.239 151.567 212.945 151.353C212.65 151.14 212.282 151.052 211.923 151.11L211.923 151.11ZM210.585 160.124L204.261 161.135L203.756 157.974L210.079 156.963L210.585 160.124ZM209.9 150.043L201.77 151.343L201.553 149.988C201.496 149.629 201.583 149.261 201.797 148.966C202.01 148.672 202.332 148.474 202.691 148.416L208.111 147.55C208.471 147.492 208.838 147.58 209.133 147.794C209.428 148.007 209.626 148.329 209.683 148.688L209.9 150.043Z" fill="#4B5563"/>
</g>
<path d="M223.188 156.602L221.657 147.022L225.249 146.447C225.985 146.33 226.625 146.368 227.168 146.563C227.714 146.757 228.153 147.074 228.485 147.513C228.821 147.949 229.037 148.471 229.134 149.079C229.232 149.693 229.19 150.26 229.007 150.779C228.825 151.297 228.503 151.734 228.041 152.089C227.58 152.441 226.979 152.676 226.24 152.795L223.859 153.175L223.631 151.748L225.778 151.405C226.208 151.336 226.549 151.205 226.799 151.012C227.05 150.818 227.22 150.58 227.309 150.297C227.401 150.013 227.42 149.702 227.366 149.362C227.311 149.022 227.196 148.733 227.021 148.496C226.849 148.258 226.612 148.089 226.312 147.99C226.014 147.887 225.648 147.871 225.215 147.94L223.624 148.194L224.924 156.325L223.188 156.602ZM231.591 155.259L230.443 148.074L232.085 147.811L232.276 149.009L232.351 148.997C232.416 148.561 232.589 148.205 232.871 147.93C233.156 147.651 233.504 147.479 233.916 147.413C234.01 147.398 234.115 147.386 234.232 147.377C234.351 147.364 234.451 147.359 234.532 147.362L234.781 148.92C234.705 148.907 234.588 148.903 234.429 148.909C234.272 148.912 234.122 148.925 233.979 148.948C233.67 148.997 233.403 149.108 233.178 149.282C232.956 149.452 232.793 149.665 232.69 149.921C232.588 150.177 232.56 150.458 232.609 150.764L233.285 154.988L231.591 155.259ZM236.814 154.424L235.666 147.239L237.359 146.968L238.508 154.154L236.814 154.424ZM236.354 146.083C236.086 146.126 235.841 146.074 235.619 145.927C235.397 145.777 235.265 145.575 235.225 145.323C235.184 145.067 235.246 144.835 235.411 144.626C235.576 144.414 235.792 144.287 236.06 144.244C236.331 144.201 236.577 144.254 236.796 144.405C237.018 144.552 237.149 144.753 237.19 145.009C237.23 145.261 237.168 145.494 237.004 145.705C236.842 145.914 236.625 146.039 236.354 146.083ZM241.27 149.394L241.943 153.604L240.249 153.875L239.101 146.69L240.719 146.431L240.914 147.652L240.999 147.638C241.1 147.21 241.312 146.848 241.636 146.553C241.963 146.258 242.395 146.067 242.931 145.981C243.427 145.902 243.876 145.939 244.278 146.092C244.683 146.245 245.019 146.506 245.286 146.876C245.556 147.246 245.735 147.718 245.824 148.292L246.555 152.867L244.862 153.138L244.172 148.825C244.096 148.344 243.911 147.988 243.618 147.757C243.328 147.525 242.965 147.444 242.528 147.514C242.232 147.561 241.979 147.669 241.769 147.837C241.562 148.001 241.412 148.215 241.32 148.479C241.231 148.743 241.214 149.048 241.27 149.394ZM250.716 144.833L250.926 146.143L246.795 146.803L246.586 145.493L250.716 144.833ZM247.33 143.608L249.024 143.338L250.102 150.084C250.138 150.311 250.201 150.48 250.289 150.591C250.379 150.698 250.486 150.764 250.608 150.79C250.731 150.815 250.862 150.816 251.002 150.794C251.108 150.777 251.204 150.753 251.289 150.724C251.377 150.694 251.443 150.669 251.488 150.649L251.985 151.927C251.899 151.973 251.775 152.028 251.613 152.092C251.454 152.156 251.254 152.21 251.015 152.255C250.593 152.335 250.201 152.332 249.838 152.246C249.476 152.157 249.17 151.979 248.923 151.711C248.679 151.443 248.522 151.085 248.453 150.635L247.33 143.608ZM256.624 151.258L255.092 141.677L256.828 141.399L258.127 149.525L262.347 148.851L262.579 150.306L256.624 151.258ZM266.101 149.891C265.646 149.964 265.223 149.949 264.832 149.845C264.444 149.737 264.118 149.54 263.855 149.253C263.595 148.965 263.427 148.585 263.351 148.114C263.287 147.709 263.308 147.362 263.415 147.073C263.523 146.784 263.693 146.539 263.926 146.339C264.16 146.138 264.432 145.971 264.744 145.838C265.058 145.702 265.386 145.587 265.73 145.494C266.144 145.383 266.479 145.289 266.735 145.213C266.991 145.134 267.173 145.047 267.279 144.953C267.388 144.856 267.43 144.726 267.404 144.564L267.4 144.536C267.343 144.184 267.195 143.927 266.955 143.767C266.715 143.607 266.399 143.559 266.006 143.622C265.591 143.688 265.277 143.831 265.062 144.051C264.851 144.27 264.723 144.51 264.678 144.769L263.061 144.798C263.116 144.341 263.264 143.943 263.504 143.604C263.743 143.262 264.059 142.985 264.45 142.772C264.841 142.556 265.287 142.408 265.79 142.327C266.136 142.272 266.487 142.257 266.843 142.284C267.199 142.31 267.534 142.394 267.847 142.536C268.161 142.674 268.428 142.889 268.651 143.18C268.876 143.47 269.027 143.854 269.104 144.331L269.872 149.14L268.244 149.4L268.087 148.413L268.03 148.422C267.959 148.638 267.844 148.848 267.685 149.053C267.528 149.254 267.318 149.43 267.055 149.581C266.793 149.728 266.476 149.832 266.101 149.891ZM266.342 148.577C266.682 148.522 266.966 148.408 267.194 148.234C267.422 148.057 267.585 147.846 267.683 147.6C267.784 147.353 267.814 147.097 267.771 146.832L267.636 145.985C267.59 146.038 267.506 146.093 267.384 146.15C267.265 146.208 267.13 146.263 266.979 146.316C266.827 146.369 266.677 146.419 266.528 146.465C266.378 146.511 266.249 146.551 266.139 146.585C265.892 146.659 265.675 146.752 265.488 146.861C265.3 146.971 265.16 147.106 265.067 147.264C264.974 147.42 264.945 147.607 264.98 147.825C265.029 148.137 265.181 148.355 265.434 148.477C265.687 148.6 265.99 148.633 266.342 148.577ZM271.65 148.856L270.118 139.275L271.812 139.004L272.385 142.588L272.455 142.576C272.514 142.388 272.608 142.183 272.736 141.961C272.863 141.736 273.051 141.531 273.3 141.348C273.548 141.161 273.883 141.034 274.304 140.966C274.859 140.878 275.382 140.939 275.873 141.152C276.367 141.361 276.79 141.72 277.14 142.231C277.493 142.737 277.733 143.39 277.86 144.188C277.987 144.977 277.964 145.668 277.794 146.262C277.623 146.855 277.338 147.332 276.938 147.694C276.539 148.055 276.057 148.281 275.492 148.371C275.081 148.437 274.728 148.423 274.435 148.329C274.142 148.235 273.897 148.105 273.701 147.938C273.507 147.767 273.351 147.602 273.233 147.442L273.134 147.457L273.315 148.589L271.65 148.856ZM272.736 144.997C272.811 145.462 272.941 145.859 273.128 146.187C273.318 146.515 273.553 146.757 273.834 146.914C274.118 147.067 274.439 147.115 274.798 147.057C275.172 146.997 275.469 146.847 275.69 146.607C275.91 146.364 276.056 146.058 276.128 145.688C276.203 145.315 276.205 144.904 276.133 144.455C276.061 144.009 275.934 143.623 275.751 143.297C275.568 142.971 275.334 142.73 275.05 142.574C274.766 142.418 274.435 142.37 274.058 142.431C273.696 142.488 273.404 142.633 273.182 142.863C272.96 143.094 272.811 143.391 272.735 143.755C272.661 144.119 272.662 144.533 272.736 144.997ZM283.077 147.173C282.356 147.288 281.71 147.238 281.138 147.022C280.569 146.803 280.1 146.44 279.731 145.933C279.362 145.422 279.117 144.792 278.997 144.04C278.878 143.301 278.915 142.63 279.107 142.027C279.301 141.42 279.627 140.92 280.085 140.527C280.543 140.13 281.116 139.877 281.802 139.768C282.244 139.697 282.674 139.702 283.09 139.783C283.508 139.86 283.892 140.022 284.242 140.27C284.595 140.517 284.896 140.856 285.144 141.287C285.391 141.714 285.565 142.243 285.666 142.873L285.749 143.392L279.859 144.334L279.677 143.192L283.943 142.51C283.888 142.187 283.772 141.909 283.594 141.679C283.416 141.445 283.192 141.274 282.922 141.167C282.656 141.059 282.36 141.031 282.036 141.083C281.69 141.139 281.399 141.271 281.164 141.482C280.928 141.689 280.759 141.94 280.656 142.235C280.555 142.526 280.529 142.832 280.577 143.154L280.737 144.15C280.803 144.568 280.937 144.915 281.138 145.19C281.338 145.462 281.588 145.655 281.888 145.77C282.187 145.882 282.521 145.909 282.889 145.85C283.135 145.811 283.353 145.741 283.542 145.64C283.73 145.537 283.886 145.404 284.011 145.244C284.135 145.083 284.219 144.896 284.261 144.681L285.871 144.606C285.838 145.04 285.706 145.435 285.475 145.792C285.247 146.145 284.93 146.442 284.524 146.683C284.117 146.92 283.635 147.084 283.077 147.173ZM287.844 136.441L289.375 146.022L287.682 146.293L286.15 136.712L287.844 136.441Z" fill="#344054"/>
</g>
</g>
<path d="M117.502 187.081C114.857 189.905 112.416 192.497 109.993 195.125C109.476 195.673 109.026 196.291 108.55 196.83C108.228 197.206 107.773 197.442 107.281 197.49C106.788 197.539 106.296 197.395 105.907 197.09C105.696 196.962 105.512 196.794 105.366 196.594C105.22 196.395 105.115 196.169 105.056 195.928C104.998 195.688 104.988 195.439 105.027 195.195C105.066 194.951 105.153 194.717 105.283 194.507C105.658 193.726 106.141 193.002 106.717 192.356C108.977 189.737 111.271 187.147 113.837 184.226C112.763 183.734 111.647 183.34 110.503 183.046C104.365 182.012 98.0626 182.638 92.2476 184.858C90.5917 185.651 89.0133 186.596 87.5331 187.682C86.3575 188.406 85.1032 188.987 84.051 187.64C82.9988 186.294 83.7329 185.183 84.6603 184.171C86.9079 181.943 89.7161 180.364 92.7877 179.601C98.5984 177.765 104.759 177.323 110.773 178.31C113.298 178.925 115.781 179.704 118.205 180.644C119.552 179.76 121.146 178.659 122.783 177.627C133.178 171.074 144.504 166.803 156.265 163.663C164.247 161.522 172.298 159.956 180.315 158.125C181.251 157.991 182.126 157.578 182.824 156.939C181.082 156.559 179.321 156.211 177.598 155.777C176.649 155.602 175.735 155.275 174.891 154.807C174.409 154.534 174.051 154.085 173.893 153.555C173.734 153.024 173.787 152.452 174.041 151.96C174.25 151.513 174.623 151.164 175.082 150.985C175.541 150.805 176.052 150.81 176.508 150.996C181.699 152.108 186.895 153.183 192.091 154.281C192.837 154.417 193.57 154.615 194.283 154.875C196.242 155.692 196.754 157.227 195.658 159.071C195.261 159.72 194.79 160.32 194.254 160.859C191.837 163.5 189.399 166.113 186.94 168.699C186.58 169.101 186.18 169.467 185.748 169.791C185.327 170.144 184.792 170.332 184.243 170.321C183.694 170.309 183.167 170.099 182.762 169.729C182.542 169.563 182.359 169.354 182.223 169.115C182.086 168.876 182 168.612 181.969 168.339C181.937 168.066 181.962 167.789 182.041 167.526C182.119 167.262 182.25 167.018 182.426 166.806C183.459 165.352 184.662 164.019 185.626 162.372C163.382 166.259 141.483 170.973 122.072 183.832C122.364 184.573 122.705 185.294 123.092 185.991C127.442 192.818 127.51 199.936 124.386 207.123C120.134 216.9 112.487 223.177 102.717 227.006C98.5794 228.667 94.14 229.443 89.6844 229.285C77.6343 228.694 68.6209 220.585 66.8173 208.678C64.3634 192.085 76.1957 174.084 91.8839 170.573C93.1504 170.308 94.4411 170.177 95.7349 170.181C97.0355 170.174 98.1373 170.721 98.1721 172.222C98.206 173.555 97.2124 174.07 96.088 174.331C94.4803 174.536 92.8876 174.845 91.3203 175.257C78.3576 179.706 69.257 195.305 71.6899 208.759C72.3388 212.924 74.3891 216.743 77.5021 219.585C80.6151 222.428 84.6045 224.123 88.8113 224.391C101.515 225.461 116.338 215.883 120.545 203.777C121.8 200.404 122.023 196.733 121.185 193.233C120.725 190.811 119.42 188.631 117.502 187.081Z" fill="#E5E7EB"/>
<rect x="47.3428" y="114.051" width="50.5252" height="5.24937" transform="rotate(-9.08191 47.3428 114.051)" fill="#E5E7EB"/>
<rect x="48.792" y="123.123" width="34.7771" height="5.24937" transform="rotate(-9.08191 48.792 123.123)" fill="#E5E7EB"/>
<circle cx="38.0768" cy="120.517" r="4.92129" transform="rotate(-9.08191 38.0768 120.517)" fill="#E5E7EB"/>
<defs>
<filter id="filter0_d_400_962" x="31.5482" y="180.933" width="126.397" height="44.7416" filterUnits="userSpaceOnUse" color-interpolation-filters="sRGB">
<feFlood flood-opacity="0" result="BackgroundImageFix"/>
<feColorMatrix in="SourceAlpha" type="matrix" values="0 0 0 0 0 0 0 0 0 0 0 0 0 0 0 0 0 0 127 0" result="hardAlpha"/>
<feOffset dy="0.537677"/>
<feGaussianBlur stdDeviation="0.537677"/>
<feColorMatrix type="matrix" values="0 0 0 0 0.0627451 0 0 0 0 0.0941176 0 0 0 0 0.156863 0 0 0 0.05 0"/>
<feBlend mode="normal" in2="BackgroundImageFix" result="effect1_dropShadow_400_962"/>
<feBlend mode="normal" in="SourceGraphic" in2="effect1_dropShadow_400_962" result="shape"/>
</filter>
<filter id="filter1_d_400_962" x="150.184" y="97.2267" width="188.407" height="107.558" filterUnits="userSpaceOnUse" color-interpolation-filters="sRGB">
<feFlood flood-opacity="0" result="BackgroundImageFix"/>
<feColorMatrix in="SourceAlpha" type="matrix" values="0 0 0 0 0 0 0 0 0 0 0 0 0 0 0 0 0 0 127 0" result="hardAlpha"/>
<feOffset dy="1.84277"/>
<feGaussianBlur stdDeviation="11.0566"/>
<feColorMatrix type="matrix" values="0 0 0 0 0.0627451 0 0 0 0 0.0941176 0 0 0 0 0.156863 0 0 0 0.05 0"/>
<feBlend mode="normal" in2="BackgroundImageFix" result="effect1_dropShadow_400_962"/>
<feBlend mode="normal" in="SourceGraphic" in2="effect1_dropShadow_400_962" result="shape"/>
</filter>
<clipPath id="clip0_400_962">
<rect width="8.60283" height="8.60283" fill="white" transform="translate(71.3193 202.155) rotate(-9.08191)"/>
</clipPath>
<clipPath id="clip1_400_962">
<rect width="13.1234" height="13.1234" fill="white" transform="translate(21.458 64.3646) rotate(-9.08191)"/>
</clipPath>
<clipPath id="clip2_400_962">
<rect x="172.297" y="139.488" width="139.319" height="41.8654" rx="7.62335" transform="rotate(-9.08191 172.297 139.488)" fill="white"/>
</clipPath>
<clipPath id="clip3_400_962">
<rect width="15.2467" height="15.2467" fill="white" transform="translate(197.825 148.886) rotate(-9.08191)"/>
</clipPath>
</defs>
</svg>
