<svg width="297" height="85" viewBox="0 0 297 85" fill="none" xmlns="http://www.w3.org/2000/svg">
<g style="mix-blend-mode:multiply">
<rect width="76" height="18" rx="9" fill="#D3F8DF"/>
<path d="M12.1668 10.875L13.4168 11.2917C13.4168 11.2917 16.5418 10.6667 16.9585 10.6667C17.3752 10.6667 17.3752 11.0834 16.9585 11.5C16.5418 11.9167 15.0835 13.1667 13.8335 13.1667C12.5835 13.1667 11.7502 12.5417 10.9168 12.5417C10.0835 12.5417 8.8335 12.5417 8.8335 12.5417" stroke="#12B76A" stroke-linecap="round" stroke-linejoin="round"/>
<path d="M8.8335 10.0417C9.25016 9.625 10.0835 9 10.9168 9C11.7502 9 13.7293 9.83333 14.0418 10.25C14.3543 10.6667 13.4168 11.2917 13.4168 11.2917" stroke="#12B76A" stroke-linecap="round" stroke-linejoin="round"/>
<path d="M11.3335 7.74999V6.08332C11.3335 5.8532 11.52 5.66666 11.7502 5.66666H16.7502C16.9803 5.66666 17.1668 5.8532 17.1668 6.08332V9.41666" stroke="#12B76A" stroke-linecap="round" stroke-linejoin="round"/>
<path d="M15.2918 5.66666H13.2085V7.54166H15.2918V5.66666Z" stroke="#12B76A" stroke-linecap="round" stroke-linejoin="round"/>
<path d="M25.5606 12.5H23.2062V5.22727H25.6352C26.3478 5.22727 26.9598 5.37287 27.4711 5.66406C27.9825 5.95289 28.3743 6.36837 28.6466 6.91051C28.9212 7.45028 29.0585 8.09777 29.0585 8.85298C29.0585 9.61056 28.92 10.2616 28.643 10.8061C28.3684 11.3506 27.9707 11.7696 27.4498 12.0632C26.929 12.3544 26.2993 12.5 25.5606 12.5ZM24.3035 11.5412H25.5003C26.0542 11.5412 26.5147 11.437 26.8817 11.2287C27.2486 11.018 27.5232 10.7138 27.7055 10.3161C27.8878 9.91596 27.979 9.42827 27.979 8.85298C27.979 8.28243 27.8878 7.7983 27.7055 7.40057C27.5256 7.00284 27.2569 6.70099 26.8994 6.49503C26.5419 6.28906 26.098 6.18608 25.5677 6.18608H24.3035V11.5412ZM32.6887 12.6101C32.1512 12.6101 31.6884 12.4953 31.3002 12.2656C30.9143 12.0336 30.616 11.7081 30.4053 11.2891C30.1969 10.8677 30.0928 10.3741 30.0928 9.80824C30.0928 9.24953 30.1969 8.7571 30.4053 8.33097C30.616 7.90483 30.9095 7.57221 31.286 7.3331C31.6647 7.09399 32.1075 6.97443 32.6141 6.97443C32.9218 6.97443 33.2201 7.02533 33.509 7.12713C33.7978 7.22893 34.057 7.38873 34.2867 7.60653C34.5163 7.82434 34.6974 8.10724 34.83 8.45526C34.9626 8.8009 35.0289 9.22112 35.0289 9.71591V10.0923H30.6929V9.29688H33.9884C33.9884 9.01752 33.9316 8.77012 33.8179 8.55469C33.7043 8.33688 33.5445 8.16525 33.3385 8.03977C33.1349 7.9143 32.8958 7.85156 32.6212 7.85156C32.3229 7.85156 32.0625 7.92495 31.8399 8.07173C31.6198 8.21615 31.4493 8.40554 31.3286 8.63991C31.2102 8.87192 31.151 9.12405 31.151 9.39631V10.0178C31.151 10.3823 31.2149 10.6925 31.3428 10.9482C31.473 11.2038 31.6541 11.3991 31.8861 11.5341C32.1181 11.6667 32.3892 11.733 32.6993 11.733C32.9005 11.733 33.084 11.7045 33.2497 11.6477C33.4155 11.5885 33.5587 11.5009 33.6794 11.3849C33.8002 11.2689 33.8925 11.1257 33.9564 10.9553L34.9614 11.1364C34.8809 11.4323 34.7365 11.6915 34.5281 11.9141C34.3222 12.1342 34.0629 12.3059 33.7504 12.429C33.4403 12.5497 33.0864 12.6101 32.6887 12.6101ZM37.2687 5.22727V12.5H36.2069V5.22727H37.2687ZM38.6972 12.5V7.04545H39.759V12.5H38.6972ZM39.2334 6.20384C39.0487 6.20384 38.8901 6.14228 38.7575 6.01918C38.6273 5.8937 38.5622 5.74455 38.5622 5.57173C38.5622 5.39654 38.6273 5.2474 38.7575 5.12429C38.8901 4.99882 39.0487 4.93608 39.2334 4.93608C39.4181 4.93608 39.5755 4.99882 39.7057 5.12429C39.8383 5.2474 39.9046 5.39654 39.9046 5.57173C39.9046 5.74455 39.8383 5.8937 39.7057 6.01918C39.5755 6.14228 39.4181 6.20384 39.2334 6.20384ZM45.8536 7.04545L43.8756 12.5H42.7393L40.7577 7.04545H41.8976L43.279 11.2429H43.3358L44.7137 7.04545H45.8536ZM49.0168 12.6101C48.4794 12.6101 48.0165 12.4953 47.6283 12.2656C47.2424 12.0336 46.9441 11.7081 46.7334 11.2891C46.5251 10.8677 46.4209 10.3741 46.4209 9.80824C46.4209 9.24953 46.5251 8.7571 46.7334 8.33097C46.9441 7.90483 47.2377 7.57221 47.6141 7.3331C47.9929 7.09399 48.4356 6.97443 48.9422 6.97443C49.25 6.97443 49.5483 7.02533 49.8371 7.12713C50.1259 7.22893 50.3852 7.38873 50.6148 7.60653C50.8444 7.82434 51.0255 8.10724 51.1581 8.45526C51.2907 8.8009 51.357 9.22112 51.357 9.71591V10.0923H47.021V9.29688H50.3165C50.3165 9.01752 50.2597 8.77012 50.146 8.55469C50.0324 8.33688 49.8726 8.16525 49.6666 8.03977C49.463 7.9143 49.2239 7.85156 48.9493 7.85156C48.651 7.85156 48.3906 7.92495 48.1681 8.07173C47.9479 8.21615 47.7774 8.40554 47.6567 8.63991C47.5383 8.87192 47.4791 9.12405 47.4791 9.39631V10.0178C47.4791 10.3823 47.5431 10.6925 47.6709 10.9482C47.8011 11.2038 47.9822 11.3991 48.2142 11.5341C48.4462 11.6667 48.7173 11.733 49.0274 11.733C49.2287 11.733 49.4121 11.7045 49.5779 11.6477C49.7436 11.5885 49.8868 11.5009 50.0075 11.3849C50.1283 11.2689 50.2206 11.1257 50.2845 10.9553L51.2895 11.1364C51.209 11.4323 51.0646 11.6915 50.8563 11.9141C50.6503 12.1342 50.3911 12.3059 50.0786 12.429C49.7684 12.5497 49.4145 12.6101 49.0168 12.6101ZM52.5351 12.5V7.04545H53.5613V7.91193H53.6182C53.7176 7.61837 53.8928 7.38755 54.1437 7.21946C54.397 7.04901 54.6835 6.96378 55.0031 6.96378C55.0694 6.96378 55.1475 6.96615 55.2375 6.97088C55.3298 6.97562 55.402 6.98153 55.4541 6.98864V8.00426C55.4115 7.99242 55.3357 7.9794 55.2268 7.9652C55.1179 7.94863 55.009 7.94034 54.9001 7.94034C54.6492 7.94034 54.4255 7.99361 54.229 8.10014C54.0348 8.20431 53.8809 8.34991 53.7673 8.53693C53.6537 8.72159 53.5969 8.93229 53.5969 9.16903V12.5H52.5351ZM58.5285 12.6101C57.9911 12.6101 57.5283 12.4953 57.14 12.2656C56.7541 12.0336 56.4558 11.7081 56.2451 11.2891C56.0368 10.8677 55.9326 10.3741 55.9326 9.80824C55.9326 9.24953 56.0368 8.7571 56.2451 8.33097C56.4558 7.90483 56.7494 7.57221 57.1258 7.3331C57.5046 7.09399 57.9473 6.97443 58.4539 6.97443C58.7617 6.97443 59.06 7.02533 59.3488 7.12713C59.6376 7.22893 59.8969 7.38873 60.1265 7.60653C60.3561 7.82434 60.5373 8.10724 60.6698 8.45526C60.8024 8.8009 60.8687 9.22112 60.8687 9.71591V10.0923H56.5328V9.29688H59.8282C59.8282 9.01752 59.7714 8.77012 59.6578 8.55469C59.5441 8.33688 59.3843 8.16525 59.1784 8.03977C58.9748 7.9143 58.7356 7.85156 58.461 7.85156C58.1627 7.85156 57.9023 7.92495 57.6798 8.07173C57.4596 8.21615 57.2892 8.40554 57.1684 8.63991C57.05 8.87192 56.9909 9.12405 56.9909 9.39631V10.0178C56.9909 10.3823 57.0548 10.6925 57.1826 10.9482C57.3128 11.2038 57.4939 11.3991 57.7259 11.5341C57.9579 11.6667 58.229 11.733 58.5392 11.733C58.7404 11.733 58.9239 11.7045 59.0896 11.6477C59.2553 11.5885 59.3985 11.5009 59.5193 11.3849C59.64 11.2689 59.7323 11.1257 59.7963 10.9553L60.8012 11.1364C60.7207 11.4323 60.5763 11.6915 60.368 11.9141C60.162 12.1342 59.9028 12.3059 59.5903 12.429C59.2802 12.5497 58.9262 12.6101 58.5285 12.6101ZM64.0887 12.6065C63.6483 12.6065 63.2554 12.4941 62.9097 12.2692C62.5664 12.0419 62.2965 11.7187 62.1001 11.2997C61.9059 10.8783 61.8089 10.3729 61.8089 9.78338C61.8089 9.19389 61.9071 8.68963 62.1036 8.2706C62.3025 7.85156 62.5747 7.53078 62.9204 7.30824C63.266 7.0857 63.6578 6.97443 64.0958 6.97443C64.4343 6.97443 64.7066 7.03125 64.9126 7.14489C65.1209 7.25616 65.2819 7.38636 65.3955 7.53551C65.5115 7.68466 65.6015 7.81605 65.6654 7.92969H65.7293V5.22727H66.7911V12.5H65.7542V11.6513H65.6654C65.6015 11.7673 65.5091 11.8999 65.3884 12.049C65.27 12.1982 65.1067 12.3284 64.8983 12.4396C64.69 12.5509 64.4201 12.6065 64.0887 12.6065ZM64.3231 11.701C64.6285 11.701 64.8865 11.6205 65.0972 11.4595C65.3103 11.2962 65.4713 11.0701 65.5802 10.7812C65.6914 10.4924 65.7471 10.1562 65.7471 9.77273C65.7471 9.39394 65.6926 9.0625 65.5837 8.77841C65.4748 8.49432 65.315 8.27296 65.1043 8.11435C64.8936 7.95573 64.6332 7.87642 64.3231 7.87642C64.0035 7.87642 63.7371 7.95928 63.5241 8.125C63.311 8.29072 63.15 8.51681 63.0411 8.80327C62.9346 9.08973 62.8813 9.41288 62.8813 9.77273C62.8813 10.1373 62.9358 10.4652 63.0447 10.7564C63.1536 11.0476 63.3145 11.2784 63.5276 11.4489C63.743 11.617 64.0082 11.701 64.3231 11.701Z" fill="#027A48"/>
</g>
<rect x="250" y="36" width="1.00001" height="240" rx="0.500005" transform="rotate(90 250 36)" fill="#2FB5C0"/>
<g clip-path="url(#clip0_400_1050)">
<rect y="30" width="12" height="12" rx="6" fill="#2FB5C0"/>
<path d="M8.40059 34.1999L5.10059 37.4999L3.60059 35.9999" stroke="white" stroke-linecap="round" stroke-linejoin="round"/>
</g>
<path d="M0.573864 63V57.1818H1.62784V62.1165H4.19034V63H0.573864ZM6.31534 63.0881C6.03883 63.0881 5.78977 63.0388 5.56818 62.9403C5.34848 62.84 5.17424 62.6922 5.04545 62.4972C4.91856 62.3021 4.85511 62.0616 4.85511 61.7756C4.85511 61.5294 4.90057 61.3258 4.99148 61.1648C5.08239 61.0038 5.20644 60.875 5.36364 60.7784C5.52083 60.6818 5.69792 60.6089 5.89489 60.5597C6.09375 60.5085 6.29924 60.4716 6.51136 60.4489C6.76705 60.4223 6.97443 60.3987 7.13352 60.3778C7.29261 60.3551 7.40814 60.321 7.48011 60.2756C7.55398 60.2282 7.59091 60.1553 7.59091 60.0568V60.0398C7.59091 59.8258 7.52746 59.66 7.40057 59.5426C7.27367 59.4252 7.09091 59.3665 6.85227 59.3665C6.60038 59.3665 6.40057 59.4214 6.25284 59.5312C6.10701 59.6411 6.00852 59.7708 5.95739 59.9205L4.99716 59.7841C5.07292 59.5189 5.19792 59.2973 5.37216 59.1193C5.5464 58.9394 5.75947 58.8049 6.01136 58.7159C6.26326 58.625 6.54167 58.5795 6.84659 58.5795C7.05682 58.5795 7.2661 58.6042 7.47443 58.6534C7.68277 58.7027 7.87311 58.7841 8.04545 58.8977C8.2178 59.0095 8.35606 59.1619 8.46023 59.3551C8.56629 59.5483 8.61932 59.7898 8.61932 60.0795V63H7.63068V62.4006H7.59659C7.53409 62.5218 7.44602 62.6354 7.33239 62.7415C7.22064 62.8456 7.07955 62.9299 6.90909 62.9943C6.74053 63.0568 6.54261 63.0881 6.31534 63.0881ZM6.58239 62.3324C6.78883 62.3324 6.9678 62.2917 7.11932 62.2102C7.27083 62.1269 7.38731 62.017 7.46875 61.8807C7.55208 61.7443 7.59375 61.5956 7.59375 61.4347V60.9205C7.56155 60.947 7.50663 60.9716 7.42898 60.9943C7.35322 61.017 7.26799 61.0369 7.1733 61.054C7.0786 61.071 6.98485 61.0862 6.89205 61.0994C6.79924 61.1127 6.71875 61.1241 6.65057 61.1335C6.49716 61.1544 6.35985 61.1884 6.23864 61.2358C6.11742 61.2831 6.02178 61.3494 5.9517 61.4347C5.88163 61.518 5.84659 61.6259 5.84659 61.7585C5.84659 61.9479 5.91572 62.0909 6.05398 62.1875C6.19223 62.2841 6.36837 62.3324 6.58239 62.3324ZM9.69886 63V57.1818H10.7273V59.358H10.7699C10.8229 59.2519 10.8977 59.1392 10.9943 59.0199C11.0909 58.8987 11.2216 58.7955 11.3864 58.7102C11.5511 58.6231 11.7614 58.5795 12.017 58.5795C12.3542 58.5795 12.6581 58.6657 12.929 58.8381C13.2017 59.0085 13.4176 59.2614 13.5767 59.5966C13.7377 59.9299 13.8182 60.339 13.8182 60.8239C13.8182 61.303 13.7396 61.7102 13.5824 62.0455C13.4252 62.3807 13.2112 62.6364 12.9403 62.8125C12.6695 62.9886 12.3627 63.0767 12.0199 63.0767C11.7699 63.0767 11.5625 63.035 11.3977 62.9517C11.233 62.8684 11.1004 62.768 11 62.6506C10.9015 62.5312 10.8248 62.4186 10.7699 62.3125H10.7102V63H9.69886ZM10.7074 60.8182C10.7074 61.1004 10.7472 61.3475 10.8267 61.5597C10.9081 61.7718 11.0246 61.9375 11.1761 62.0568C11.3295 62.1742 11.5152 62.233 11.733 62.233C11.9602 62.233 12.1506 62.1723 12.304 62.0511C12.4574 61.928 12.5729 61.7604 12.6506 61.5483C12.7301 61.3343 12.7699 61.0909 12.7699 60.8182C12.7699 60.5473 12.7311 60.3068 12.6534 60.0966C12.5758 59.8864 12.4602 59.7216 12.3068 59.6023C12.1534 59.483 11.9621 59.4233 11.733 59.4233C11.5133 59.4233 11.3267 59.4811 11.1733 59.5966C11.0199 59.7121 10.9034 59.8741 10.8239 60.0824C10.7462 60.2907 10.7074 60.536 10.7074 60.8182ZM16.6243 63.0852C16.1868 63.0852 15.8089 62.9943 15.4908 62.8125C15.1745 62.6288 14.9311 62.3693 14.7607 62.0341C14.5902 61.697 14.505 61.3002 14.505 60.8438C14.505 60.3949 14.5902 60.0009 14.7607 59.6619C14.933 59.321 15.1735 59.0559 15.4822 58.8665C15.791 58.6752 16.1536 58.5795 16.5703 58.5795C16.8393 58.5795 17.093 58.6231 17.3317 58.7102C17.5722 58.7955 17.7843 58.928 17.968 59.108C18.1536 59.2879 18.2995 59.517 18.4055 59.7955C18.5116 60.072 18.5646 60.4015 18.5646 60.7841V61.0994H14.9879V60.4062H17.5788C17.5769 60.2093 17.5343 60.0341 17.451 59.8807C17.3677 59.7254 17.2512 59.6032 17.1016 59.5142C16.9538 59.4252 16.7815 59.3807 16.5845 59.3807C16.3743 59.3807 16.1896 59.4318 16.0305 59.5341C15.8714 59.6345 15.7474 59.767 15.6584 59.9318C15.5713 60.0947 15.5268 60.2737 15.5249 60.4688V61.0739C15.5249 61.3277 15.5713 61.5455 15.6641 61.7273C15.7569 61.9072 15.8866 62.0455 16.0533 62.142C16.2199 62.2367 16.415 62.2841 16.6385 62.2841C16.7881 62.2841 16.9235 62.2633 17.0447 62.2216C17.166 62.178 17.2711 62.1146 17.3601 62.0312C17.4491 61.9479 17.5163 61.8447 17.5618 61.7216L18.522 61.8295C18.4614 62.0833 18.3459 62.3049 18.1754 62.4943C18.0069 62.6818 17.791 62.8277 17.5277 62.9318C17.2644 63.0341 16.9633 63.0852 16.6243 63.0852ZM20.4631 57.1818V63H19.4347V57.1818H20.4631ZM23.5504 63V57.1818H25.7322C26.1792 57.1818 26.5542 57.2595 26.8572 57.4148C27.1622 57.5701 27.3923 57.7879 27.5476 58.0682C27.7048 58.3466 27.7834 58.6714 27.7834 59.0426C27.7834 59.4157 27.7038 59.7396 27.5447 60.0142C27.3875 60.2869 27.1555 60.4981 26.8487 60.6477C26.5419 60.7955 26.165 60.8693 25.718 60.8693H24.1641V59.9943H25.576C25.8374 59.9943 26.0514 59.9583 26.218 59.8864C26.3847 59.8125 26.5078 59.7055 26.5874 59.5653C26.6688 59.4233 26.7095 59.2491 26.7095 59.0426C26.7095 58.8362 26.6688 58.66 26.5874 58.5142C26.5059 58.3665 26.3819 58.2547 26.2152 58.179C26.0485 58.1013 25.8336 58.0625 25.5703 58.0625H24.6044V63H23.5504ZM26.5561 60.3636L27.9964 63H26.8203L25.4055 60.3636H26.5561ZM30.5774 63.0852C30.1399 63.0852 29.7621 62.9943 29.4439 62.8125C29.1276 62.6288 28.8842 62.3693 28.7138 62.0341C28.5433 61.697 28.4581 61.3002 28.4581 60.8438C28.4581 60.3949 28.5433 60.0009 28.7138 59.6619C28.8861 59.321 29.1267 59.0559 29.4354 58.8665C29.7441 58.6752 30.1068 58.5795 30.5234 58.5795C30.7924 58.5795 31.0462 58.6231 31.2848 58.7102C31.5253 58.7955 31.7375 58.928 31.9212 59.108C32.1068 59.2879 32.2526 59.517 32.3587 59.7955C32.4647 60.072 32.5178 60.4015 32.5178 60.7841V61.0994H28.9411V60.4062H31.532C31.5301 60.2093 31.4875 60.0341 31.4041 59.8807C31.3208 59.7254 31.2043 59.6032 31.0547 59.5142C30.907 59.4252 30.7346 59.3807 30.5376 59.3807C30.3274 59.3807 30.1428 59.4318 29.9837 59.5341C29.8246 59.6345 29.7005 59.767 29.6115 59.9318C29.5244 60.0947 29.4799 60.2737 29.478 60.4688V61.0739C29.478 61.3277 29.5244 61.5455 29.6172 61.7273C29.71 61.9072 29.8397 62.0455 30.0064 62.142C30.1731 62.2367 30.3681 62.2841 30.5916 62.2841C30.7412 62.2841 30.8767 62.2633 30.9979 62.2216C31.1191 62.178 31.2242 62.1146 31.3132 62.0312C31.4022 61.9479 31.4695 61.8447 31.5149 61.7216L32.4751 61.8295C32.4145 62.0833 32.299 62.3049 32.1286 62.4943C31.96 62.6818 31.7441 62.8277 31.4808 62.9318C31.2176 63.0341 30.9164 63.0852 30.5774 63.0852ZM34.6435 63.0881C34.367 63.0881 34.1179 63.0388 33.8963 62.9403C33.6766 62.84 33.5024 62.6922 33.3736 62.4972C33.2467 62.3021 33.1832 62.0616 33.1832 61.7756C33.1832 61.5294 33.2287 61.3258 33.3196 61.1648C33.4105 61.0038 33.5346 60.875 33.6918 60.7784C33.849 60.6818 34.026 60.6089 34.223 60.5597C34.4219 60.5085 34.6274 60.4716 34.8395 60.4489C35.0952 60.4223 35.3026 60.3987 35.4616 60.3778C35.6207 60.3551 35.7363 60.321 35.8082 60.2756C35.8821 60.2282 35.919 60.1553 35.919 60.0568V60.0398C35.919 59.8258 35.8556 59.66 35.7287 59.5426C35.6018 59.4252 35.419 59.3665 35.1804 59.3665C34.9285 59.3665 34.7287 59.4214 34.581 59.5312C34.4351 59.6411 34.3366 59.7708 34.2855 59.9205L33.3253 59.7841C33.401 59.5189 33.526 59.2973 33.7003 59.1193C33.8745 58.9394 34.0876 58.8049 34.3395 58.7159C34.5914 58.625 34.8698 58.5795 35.1747 58.5795C35.3849 58.5795 35.5942 58.6042 35.8026 58.6534C36.0109 58.7027 36.2012 58.7841 36.3736 58.8977C36.5459 59.0095 36.6842 59.1619 36.7884 59.3551C36.8944 59.5483 36.9474 59.7898 36.9474 60.0795V63H35.9588V62.4006H35.9247C35.8622 62.5218 35.7741 62.6354 35.6605 62.7415C35.5488 62.8456 35.4077 62.9299 35.2372 62.9943C35.0687 63.0568 34.8707 63.0881 34.6435 63.0881ZM34.9105 62.3324C35.117 62.3324 35.2959 62.2917 35.4474 62.2102C35.599 62.1269 35.7154 62.017 35.7969 61.8807C35.8802 61.7443 35.9219 61.5956 35.9219 61.4347V60.9205C35.8897 60.947 35.8348 60.9716 35.7571 60.9943C35.6813 61.017 35.5961 61.0369 35.5014 61.054C35.4067 61.071 35.313 61.0862 35.2202 61.0994C35.1274 61.1127 35.0469 61.1241 34.9787 61.1335C34.8253 61.1544 34.688 61.1884 34.5668 61.2358C34.4455 61.2831 34.3499 61.3494 34.2798 61.4347C34.2098 61.518 34.1747 61.6259 34.1747 61.7585C34.1747 61.9479 34.2438 62.0909 34.3821 62.1875C34.5204 62.2841 34.6965 62.3324 34.9105 62.3324ZM39.6009 63.0767C39.258 63.0767 38.9512 62.9886 38.6804 62.8125C38.4096 62.6364 38.1955 62.3807 38.0384 62.0455C37.8812 61.7102 37.8026 61.303 37.8026 60.8239C37.8026 60.339 37.8821 59.9299 38.0412 59.5966C38.2022 59.2614 38.419 59.0085 38.6918 58.8381C38.9645 58.6657 39.2685 58.5795 39.6037 58.5795C39.8594 58.5795 40.0696 58.6231 40.2344 58.7102C40.3991 58.7955 40.5298 58.8987 40.6264 59.0199C40.723 59.1392 40.7978 59.2519 40.8509 59.358H40.8935V57.1818H41.9247V63H40.9134V62.3125H40.8509C40.7978 62.4186 40.7211 62.5312 40.6207 62.6506C40.5204 62.768 40.3878 62.8684 40.223 62.9517C40.0582 63.035 39.8509 63.0767 39.6009 63.0767ZM39.8878 62.233C40.1056 62.233 40.2912 62.1742 40.4446 62.0568C40.598 61.9375 40.7145 61.7718 40.794 61.5597C40.8736 61.3475 40.9134 61.1004 40.9134 60.8182C40.9134 60.536 40.8736 60.2907 40.794 60.0824C40.7164 59.8741 40.6009 59.7121 40.4474 59.5966C40.2959 59.4811 40.1094 59.4233 39.8878 59.4233C39.6586 59.4233 39.4673 59.483 39.3139 59.6023C39.1605 59.7216 39.045 59.8864 38.9673 60.0966C38.8897 60.3068 38.8509 60.5473 38.8509 60.8182C38.8509 61.0909 38.8897 61.3343 38.9673 61.5483C39.0469 61.7604 39.1634 61.928 39.3168 62.0511C39.4721 62.1723 39.6624 62.233 39.8878 62.233ZM43.6598 64.6364C43.5196 64.6364 43.3899 64.625 43.2706 64.6023C43.1532 64.5814 43.0594 64.5568 42.9893 64.5284L43.228 63.7273C43.3776 63.7708 43.5111 63.7917 43.6286 63.7898C43.746 63.7879 43.8492 63.7509 43.9382 63.679C44.0291 63.6089 44.1058 63.4915 44.1683 63.3267L44.2564 63.0909L42.674 58.6364H43.7649L44.7706 61.9318H44.8161L45.8246 58.6364H46.9183L45.1712 63.5284C45.0897 63.7595 44.9818 63.9574 44.8473 64.1222C44.7128 64.2888 44.5481 64.4157 44.353 64.5028C44.1598 64.5919 43.9287 64.6364 43.6598 64.6364Z" fill="#344054"/>
<rect y="71" width="52" height="5" rx="2.5" fill="#EAECF0"/>
<rect y="80" width="34" height="5" rx="2.5" fill="#EAECF0"/>
<g clip-path="url(#clip1_400_1050)">
<rect x="80.8584" y="30" width="12" height="12" rx="6" fill="#2FB5C0"/>
<g clip-path="url(#clip2_400_1050)">
<path d="M89.259 34.1999L85.959 37.4999L84.459 35.9999" stroke="white" stroke-linecap="round" stroke-linejoin="round"/>
</g>
</g>
<path d="M81.4323 63V57.1818H83.6141C84.0611 57.1818 84.4361 57.2652 84.7391 57.4318C85.044 57.5985 85.2741 57.8277 85.4294 58.1193C85.5866 58.4091 85.6652 58.7386 85.6652 59.108C85.6652 59.4811 85.5866 59.8125 85.4294 60.1023C85.2722 60.392 85.0402 60.6203 84.7334 60.7869C84.4266 60.9517 84.0487 61.0341 83.5999 61.0341H82.1539V60.1676H83.4578C83.7192 60.1676 83.9332 60.1222 84.0999 60.0312C84.2665 59.9403 84.3896 59.8153 84.4692 59.6562C84.5506 59.4972 84.5914 59.3144 84.5914 59.108C84.5914 58.9015 84.5506 58.7197 84.4692 58.5625C84.3896 58.4053 84.2656 58.2831 84.097 58.196C83.9304 58.107 83.7154 58.0625 83.4521 58.0625H82.4862V63H81.4323ZM86.5352 63V58.6364H87.5637V63H86.5352ZM87.0523 58.017C86.8894 58.017 86.7493 57.9631 86.6318 57.8551C86.5144 57.7453 86.4557 57.6136 86.4557 57.4602C86.4557 57.3049 86.5144 57.1733 86.6318 57.0653C86.7493 56.9555 86.8894 56.9006 87.0523 56.9006C87.2171 56.9006 87.3572 56.9555 87.4727 57.0653C87.5902 57.1733 87.6489 57.3049 87.6489 57.4602C87.6489 57.6136 87.5902 57.7453 87.4727 57.8551C87.3572 57.9631 87.2171 58.017 87.0523 58.017ZM90.5246 63.0852C90.089 63.0852 89.7149 62.9896 89.4024 62.7983C89.0918 62.607 88.8522 62.3428 88.6837 62.0057C88.517 61.6667 88.4337 61.2765 88.4337 60.8352C88.4337 60.392 88.5189 60.0009 88.6894 59.6619C88.8598 59.321 89.1003 59.0559 89.411 58.8665C89.7235 58.6752 90.0928 58.5795 90.5189 58.5795C90.8731 58.5795 91.1865 58.6449 91.4593 58.7756C91.7339 58.9044 91.9526 59.0871 92.1155 59.3239C92.2784 59.5587 92.3712 59.8333 92.3939 60.1477H91.411C91.3712 59.9375 91.2765 59.7623 91.1269 59.6222C90.9791 59.4801 90.7812 59.4091 90.5331 59.4091C90.3229 59.4091 90.1382 59.4659 89.9791 59.5795C89.82 59.6913 89.696 59.8523 89.607 60.0625C89.5199 60.2727 89.4763 60.5246 89.4763 60.8182C89.4763 61.1155 89.5199 61.3712 89.607 61.5852C89.6941 61.7973 89.8163 61.9612 89.9735 62.0767C90.1325 62.1903 90.3191 62.2472 90.5331 62.2472C90.6846 62.2472 90.82 62.2187 90.9394 62.1619C91.0606 62.1032 91.1619 62.0189 91.2433 61.9091C91.3248 61.7992 91.3807 61.6657 91.411 61.5085H92.3939C92.3693 61.8172 92.2784 62.0909 92.1212 62.3295C91.964 62.5663 91.75 62.7519 91.4791 62.8864C91.2083 63.0189 90.8901 63.0852 90.5246 63.0852ZM94.1759 61.6307L94.173 60.3892H94.3378L95.906 58.6364H97.1077L95.1787 60.7841H94.9656L94.1759 61.6307ZM93.2384 63V57.1818H94.2668V63H93.2384ZM95.977 63L94.5566 61.0142L95.2497 60.2898L97.2071 63H95.977ZM100.574 61.1648V58.6364H101.603V63H100.606V62.2244H100.56C100.462 62.4687 100.3 62.6686 100.074 62.8239C99.8508 62.9792 99.5753 63.0568 99.2476 63.0568C98.9616 63.0568 98.7088 62.9934 98.4891 62.8665C98.2713 62.7377 98.1008 62.5511 97.9777 62.3068C97.8546 62.0606 97.7931 61.7633 97.7931 61.4148V58.6364H98.8215V61.2557C98.8215 61.5322 98.8972 61.7519 99.0487 61.9148C99.2003 62.0777 99.3991 62.1591 99.6453 62.1591C99.7968 62.1591 99.9436 62.1222 100.086 62.0483C100.228 61.9744 100.344 61.8646 100.435 61.7188C100.528 61.571 100.574 61.3864 100.574 61.1648ZM102.66 64.6364V58.6364H103.672V59.358H103.731C103.784 59.2519 103.859 59.1392 103.956 59.0199C104.052 58.8987 104.183 58.7955 104.348 58.7102C104.513 58.6231 104.723 58.5795 104.978 58.5795C105.316 58.5795 105.62 58.6657 105.89 58.8381C106.163 59.0085 106.379 59.2614 106.538 59.5966C106.699 59.9299 106.78 60.339 106.78 60.8239C106.78 61.303 106.701 61.7102 106.544 62.0455C106.387 62.3807 106.173 62.6364 105.902 62.8125C105.631 62.9886 105.324 63.0767 104.981 63.0767C104.731 63.0767 104.524 63.035 104.359 62.9517C104.194 62.8684 104.062 62.768 103.961 62.6506C103.863 62.5312 103.786 62.4186 103.731 62.3125H103.689V64.6364H102.66ZM103.669 60.8182C103.669 61.1004 103.709 61.3475 103.788 61.5597C103.87 61.7718 103.986 61.9375 104.138 62.0568C104.291 62.1742 104.477 62.233 104.694 62.233C104.922 62.233 105.112 62.1723 105.265 62.0511C105.419 61.928 105.534 61.7604 105.612 61.5483C105.691 61.3343 105.731 61.0909 105.731 60.8182C105.731 60.5473 105.692 60.3068 105.615 60.0966C105.537 59.8864 105.422 59.7216 105.268 59.6023C105.115 59.483 104.924 59.4233 104.694 59.4233C104.475 59.4233 104.288 59.4811 104.135 59.5966C103.981 59.7121 103.865 59.8741 103.785 60.0824C103.708 60.2907 103.669 60.536 103.669 60.8182Z" fill="#344054"/>
<rect x="80.8584" y="71" width="52" height="5" rx="2.5" fill="#EAECF0"/>
<rect x="80.8584" y="80" width="34" height="5" rx="2.5" fill="#EAECF0"/>
<g clip-path="url(#clip3_400_1050)">
<rect x="161.717" y="30" width="12" height="12" rx="6" fill="#2FB5C0"/>
<g clip-path="url(#clip4_400_1050)">
<path d="M170.117 34.1999L166.817 37.4999L165.317 35.9999" stroke="white" stroke-linecap="round" stroke-linejoin="round"/>
</g>
</g>
<path d="M163.345 57.1818V63H162.291V57.1818H163.345ZM165.469 60.4432V63H164.441V58.6364H165.423V59.3778H165.475C165.575 59.1335 165.735 58.9394 165.955 58.7955C166.176 58.6515 166.45 58.5795 166.776 58.5795C167.077 58.5795 167.339 58.6439 167.563 58.7727C167.788 58.9015 167.962 59.0881 168.085 59.3324C168.21 59.5767 168.272 59.8731 168.27 60.2216V63H167.242V60.3807C167.242 60.089 167.166 59.8608 167.014 59.696C166.865 59.5312 166.657 59.4489 166.392 59.4489C166.212 59.4489 166.052 59.4886 165.912 59.5682C165.774 59.6458 165.665 59.7585 165.585 59.9062C165.508 60.054 165.469 60.233 165.469 60.4432ZM171.09 58.0653V57.1818H175.732V58.0653H173.933V63H172.888V58.0653H171.09ZM176.128 63V58.6364H177.125V59.3636H177.171C177.25 59.1117 177.387 58.9176 177.58 58.7812C177.775 58.643 177.997 58.5739 178.247 58.5739C178.304 58.5739 178.368 58.5767 178.438 58.5824C178.51 58.5862 178.569 58.5928 178.617 58.6023V59.5483C178.573 59.5331 178.504 59.5199 178.409 59.5085C178.316 59.4953 178.227 59.4886 178.139 59.4886C177.952 59.4886 177.783 59.5294 177.634 59.6108C177.486 59.6903 177.369 59.8011 177.284 59.9432C177.199 60.0852 177.156 60.2491 177.156 60.4347V63H176.128ZM180.477 63.0881C180.201 63.0881 179.952 63.0388 179.73 62.9403C179.511 62.84 179.336 62.6922 179.208 62.4972C179.081 62.3021 179.017 62.0616 179.017 61.7756C179.017 61.5294 179.063 61.3258 179.154 61.1648C179.244 61.0038 179.369 60.875 179.526 60.7784C179.683 60.6818 179.86 60.6089 180.057 60.5597C180.256 60.5085 180.461 60.4716 180.673 60.4489C180.929 60.4223 181.137 60.3987 181.296 60.3778C181.455 60.3551 181.57 60.321 181.642 60.2756C181.716 60.2282 181.753 60.1553 181.753 60.0568V60.0398C181.753 59.8258 181.69 59.66 181.563 59.5426C181.436 59.4252 181.253 59.3665 181.014 59.3665C180.762 59.3665 180.563 59.4214 180.415 59.5312C180.269 59.6411 180.171 59.7708 180.119 59.9205L179.159 59.7841C179.235 59.5189 179.36 59.2973 179.534 59.1193C179.709 58.9394 179.922 58.8049 180.173 58.7159C180.425 58.625 180.704 58.5795 181.009 58.5795C181.219 58.5795 181.428 58.6042 181.637 58.6534C181.845 58.7027 182.035 58.7841 182.208 58.8977C182.38 59.0095 182.518 59.1619 182.622 59.3551C182.728 59.5483 182.781 59.7898 182.781 60.0795V63H181.793V62.4006H181.759C181.696 62.5218 181.608 62.6354 181.494 62.7415C181.383 62.8456 181.242 62.9299 181.071 62.9943C180.903 63.0568 180.705 63.0881 180.477 63.0881ZM180.744 62.3324C180.951 62.3324 181.13 62.2917 181.281 62.2102C181.433 62.1269 181.549 62.017 181.631 61.8807C181.714 61.7443 181.756 61.5956 181.756 61.4347V60.9205C181.724 60.947 181.669 60.9716 181.591 60.9943C181.515 61.017 181.43 61.0369 181.335 61.054C181.241 61.071 181.147 61.0862 181.054 61.0994C180.961 61.1127 180.881 61.1241 180.813 61.1335C180.659 61.1544 180.522 61.1884 180.401 61.2358C180.28 61.2831 180.184 61.3494 180.114 61.4347C180.044 61.518 180.009 61.6259 180.009 61.7585C180.009 61.9479 180.078 62.0909 180.216 62.1875C180.354 62.2841 180.53 62.3324 180.744 62.3324ZM184.844 60.4432V63H183.816V58.6364H184.798V59.3778H184.85C184.95 59.1335 185.11 58.9394 185.33 58.7955C185.551 58.6515 185.825 58.5795 186.151 58.5795C186.452 58.5795 186.714 58.6439 186.938 58.7727C187.163 58.9015 187.337 59.0881 187.46 59.3324C187.585 59.5767 187.647 59.8731 187.645 60.2216V63H186.617V60.3807C186.617 60.089 186.541 59.8608 186.389 59.696C186.24 59.5312 186.032 59.4489 185.767 59.4489C185.587 59.4489 185.427 59.4886 185.287 59.5682C185.149 59.6458 185.04 59.7585 184.96 59.9062C184.883 60.054 184.844 60.233 184.844 60.4432ZM192.139 59.7898L191.202 59.892C191.175 59.7973 191.129 59.7083 191.063 59.625C190.998 59.5417 190.911 59.4744 190.801 59.4233C190.691 59.3722 190.557 59.3466 190.398 59.3466C190.184 59.3466 190.004 59.393 189.858 59.4858C189.714 59.5786 189.643 59.6989 189.645 59.8466C189.643 59.9735 189.69 60.0767 189.784 60.1562C189.881 60.2358 190.04 60.3011 190.262 60.3523L191.006 60.5114C191.419 60.6004 191.726 60.7415 191.926 60.9347C192.129 61.1278 192.231 61.3807 192.233 61.6932C192.231 61.9678 192.151 62.2102 191.992 62.4205C191.834 62.6288 191.616 62.7917 191.335 62.9091C191.055 63.0265 190.733 63.0852 190.369 63.0852C189.835 63.0852 189.405 62.9735 189.08 62.75C188.754 62.5246 188.56 62.2112 188.497 61.8097L189.5 61.7131C189.546 61.91 189.642 62.0587 189.79 62.1591C189.938 62.2595 190.13 62.3097 190.367 62.3097C190.611 62.3097 190.807 62.2595 190.955 62.1591C191.104 62.0587 191.179 61.9347 191.179 61.7869C191.179 61.6619 191.131 61.5587 191.034 61.4773C190.94 61.3958 190.792 61.3333 190.591 61.2898L189.847 61.1335C189.428 61.0464 189.119 60.8996 188.918 60.6932C188.717 60.4848 188.618 60.2216 188.619 59.9034C188.618 59.6345 188.691 59.4015 188.838 59.2045C188.988 59.0057 189.195 58.8523 189.46 58.7443C189.727 58.6345 190.035 58.5795 190.384 58.5795C190.895 58.5795 191.298 58.6884 191.591 58.9062C191.887 59.1241 192.069 59.4186 192.139 59.7898ZM193.081 63V58.6364H194.11V63H193.081ZM193.598 58.017C193.435 58.017 193.295 57.9631 193.178 57.8551C193.06 57.7453 193.002 57.6136 193.002 57.4602C193.002 57.3049 193.06 57.1733 193.178 57.0653C193.295 56.9555 193.435 56.9006 193.598 56.9006C193.763 56.9006 193.903 56.9555 194.019 57.0653C194.136 57.1733 194.195 57.3049 194.195 57.4602C194.195 57.6136 194.136 57.7453 194.019 57.8551C193.903 57.9631 193.763 58.017 193.598 58.017ZM197.346 58.6364V59.4318H194.838V58.6364H197.346ZM195.457 57.5909H196.485V61.6875C196.485 61.8258 196.506 61.9318 196.548 62.0057C196.591 62.0777 196.648 62.1269 196.718 62.1534C196.788 62.1799 196.866 62.1932 196.951 62.1932C197.016 62.1932 197.074 62.1884 197.127 62.179C197.182 62.1695 197.224 62.161 197.252 62.1534L197.426 62.9574C197.371 62.9763 197.292 62.9972 197.19 63.0199C197.089 63.0426 196.966 63.0559 196.82 63.0597C196.563 63.0672 196.331 63.0284 196.124 62.9432C195.918 62.8561 195.754 62.7216 195.633 62.5398C195.514 62.358 195.455 62.1307 195.457 61.858V57.5909Z" fill="#344054"/>
<rect x="161.717" y="71" width="52" height="5" rx="2.5" fill="#EAECF0"/>
<rect x="161.717" y="80" width="34" height="5" rx="2.5" fill="#EAECF0"/>
<g clip-path="url(#clip5_400_1050)">
<rect x="242.575" y="30" width="12" height="12" rx="6" fill="#1C6D73"/>
<g clip-path="url(#clip6_400_1050)">
<path d="M250.226 34.2001L246.926 37.5001L245.426 36.0001" stroke="white" stroke-width="0.700595" stroke-linecap="round" stroke-linejoin="round"/>
<path d="M251.726 34.2001L248.426 37.5001L246.926 36.0001" stroke="white" stroke-width="0.700595" stroke-linecap="round" stroke-linejoin="round"/>
</g>
</g>
<path d="M245.12 63H243.149V57.1818H245.16C245.738 57.1818 246.234 57.2983 246.649 57.5312C247.065 57.7623 247.385 58.0947 247.609 58.5284C247.832 58.9621 247.944 59.4811 247.944 60.0852C247.944 60.6913 247.831 61.2121 247.606 61.6477C247.382 62.0833 247.06 62.4176 246.637 62.6506C246.217 62.8835 245.711 63 245.12 63ZM244.203 62.0881H245.069C245.474 62.0881 245.812 62.0142 246.083 61.8665C246.354 61.7169 246.558 61.4943 246.694 61.1989C246.83 60.9015 246.899 60.5303 246.899 60.0852C246.899 59.6402 246.83 59.2708 246.694 58.9773C246.558 58.6818 246.356 58.4612 246.089 58.3153C245.824 58.1676 245.494 58.0938 245.1 58.0938H244.203V62.0881ZM250.832 63.0852C250.394 63.0852 250.016 62.9943 249.698 62.8125C249.382 62.6288 249.139 62.3693 248.968 62.0341C248.798 61.697 248.712 61.3002 248.712 60.8438C248.712 60.3949 248.798 60.0009 248.968 59.6619C249.141 59.321 249.381 59.0559 249.69 58.8665C249.998 58.6752 250.361 58.5795 250.778 58.5795C251.047 58.5795 251.301 58.6231 251.539 58.7102C251.78 58.7955 251.992 58.928 252.176 59.108C252.361 59.2879 252.507 59.517 252.613 59.7955C252.719 60.072 252.772 60.4015 252.772 60.7841V61.0994H249.195V60.4062H251.786C251.784 60.2093 251.742 60.0341 251.659 59.8807C251.575 59.7254 251.459 59.6032 251.309 59.5142C251.161 59.4252 250.989 59.3807 250.792 59.3807C250.582 59.3807 250.397 59.4318 250.238 59.5341C250.079 59.6345 249.955 59.767 249.866 59.9318C249.779 60.0947 249.734 60.2737 249.732 60.4688V61.0739C249.732 61.3277 249.779 61.5455 249.872 61.7273C249.964 61.9072 250.094 62.0455 250.261 62.142C250.427 62.2367 250.623 62.2841 250.846 62.2841C250.996 62.2841 251.131 62.2633 251.252 62.2216C251.373 62.178 251.479 62.1146 251.568 62.0312C251.657 61.9479 251.724 61.8447 251.769 61.7216L252.73 61.8295C252.669 62.0833 252.553 62.3049 252.383 62.4943C252.214 62.6818 251.998 62.8277 251.735 62.9318C251.472 63.0341 251.171 63.0852 250.832 63.0852ZM254.671 57.1818V63H253.642V57.1818H254.671ZM255.728 63V58.6364H256.757V63H255.728ZM256.245 58.017C256.082 58.017 255.942 57.9631 255.825 57.8551C255.707 57.7453 255.649 57.6136 255.649 57.4602C255.649 57.3049 255.707 57.1733 255.825 57.0653C255.942 56.9555 256.082 56.9006 256.245 56.9006C256.41 56.9006 256.55 56.9555 256.666 57.0653C256.783 57.1733 256.842 57.3049 256.842 57.4602C256.842 57.6136 256.783 57.7453 256.666 57.8551C256.55 57.9631 256.41 58.017 256.245 58.017ZM261.712 58.6364L260.158 63H259.021L257.467 58.6364H258.564L259.567 61.8778H259.612L260.618 58.6364H261.712ZM264.207 63.0852C263.769 63.0852 263.391 62.9943 263.073 62.8125C262.757 62.6288 262.514 62.3693 262.343 62.0341C262.173 61.697 262.087 61.3002 262.087 60.8438C262.087 60.3949 262.173 60.0009 262.343 59.6619C262.516 59.321 262.756 59.0559 263.065 58.8665C263.373 58.6752 263.736 58.5795 264.153 58.5795C264.422 58.5795 264.676 58.6231 264.914 58.7102C265.155 58.7955 265.367 58.928 265.551 59.108C265.736 59.2879 265.882 59.517 265.988 59.7955C266.094 60.072 266.147 60.4015 266.147 60.7841V61.0994H262.57V60.4062H265.161C265.159 60.2093 265.117 60.0341 265.034 59.8807C264.95 59.7254 264.834 59.6032 264.684 59.5142C264.536 59.4252 264.364 59.3807 264.167 59.3807C263.957 59.3807 263.772 59.4318 263.613 59.5341C263.454 59.6345 263.33 59.767 263.241 59.9318C263.154 60.0947 263.109 60.2737 263.107 60.4688V61.0739C263.107 61.3277 263.154 61.5455 263.247 61.7273C263.339 61.9072 263.469 62.0455 263.636 62.142C263.802 62.2367 263.998 62.2841 264.221 62.2841C264.371 62.2841 264.506 62.2633 264.627 62.2216C264.748 62.178 264.854 62.1146 264.943 62.0312C265.032 61.9479 265.099 61.8447 265.144 61.7216L266.105 61.8295C266.044 62.0833 265.928 62.3049 265.758 62.4943C265.589 62.6818 265.373 62.8277 265.11 62.9318C264.847 63.0341 264.546 63.0852 264.207 63.0852ZM267.017 63V58.6364H268.014V59.3636H268.06C268.139 59.1117 268.276 58.9176 268.469 58.7812C268.664 58.643 268.886 58.5739 269.136 58.5739C269.193 58.5739 269.257 58.5767 269.327 58.5824C269.399 58.5862 269.458 58.5928 269.506 58.6023V59.5483C269.462 59.5331 269.393 59.5199 269.298 59.5085C269.206 59.4953 269.116 59.4886 269.029 59.4886C268.841 59.4886 268.672 59.5294 268.523 59.6108C268.375 59.6903 268.259 59.8011 268.173 59.9432C268.088 60.0852 268.046 60.2491 268.046 60.4347V63H267.017ZM271.941 63.0852C271.504 63.0852 271.126 62.9943 270.808 62.8125C270.491 62.6288 270.248 62.3693 270.078 62.0341C269.907 61.697 269.822 61.3002 269.822 60.8438C269.822 60.3949 269.907 60.0009 270.078 59.6619C270.25 59.321 270.49 59.0559 270.799 58.8665C271.108 58.6752 271.471 58.5795 271.887 58.5795C272.156 58.5795 272.41 58.6231 272.649 58.7102C272.889 58.7955 273.101 58.928 273.285 59.108C273.471 59.2879 273.616 59.517 273.722 59.7955C273.828 60.072 273.882 60.4015 273.882 60.7841V61.0994H270.305V60.4062H272.896C272.894 60.2093 272.851 60.0341 272.768 59.8807C272.685 59.7254 272.568 59.6032 272.418 59.5142C272.271 59.4252 272.098 59.3807 271.901 59.3807C271.691 59.3807 271.507 59.4318 271.347 59.5341C271.188 59.6345 271.064 59.767 270.975 59.9318C270.888 60.0947 270.844 60.2737 270.842 60.4688V61.0739C270.842 61.3277 270.888 61.5455 270.981 61.7273C271.074 61.9072 271.203 62.0455 271.37 62.142C271.537 62.2367 271.732 62.2841 271.955 62.2841C272.105 62.2841 272.24 62.2633 272.362 62.2216C272.483 62.178 272.588 62.1146 272.677 62.0312C272.766 61.9479 272.833 61.8447 272.879 61.7216L273.839 61.8295C273.778 62.0833 273.663 62.3049 273.492 62.4943C273.324 62.6818 273.108 62.8277 272.845 62.9318C272.581 63.0341 272.28 63.0852 271.941 63.0852ZM276.371 63.0767C276.028 63.0767 275.721 62.9886 275.45 62.8125C275.18 62.6364 274.966 62.3807 274.808 62.0455C274.651 61.7102 274.573 61.303 274.573 60.8239C274.573 60.339 274.652 59.9299 274.811 59.5966C274.972 59.2614 275.189 59.0085 275.462 58.8381C275.735 58.6657 276.038 58.5795 276.374 58.5795C276.629 58.5795 276.84 58.6231 277.004 58.7102C277.169 58.7955 277.3 58.8987 277.396 59.0199C277.493 59.1392 277.568 59.2519 277.621 59.358H277.663V57.1818H278.695V63H277.683V62.3125H277.621C277.568 62.4186 277.491 62.5312 277.391 62.6506C277.29 62.768 277.158 62.8684 276.993 62.9517C276.828 63.035 276.621 63.0767 276.371 63.0767ZM276.658 62.233C276.876 62.233 277.061 62.1742 277.215 62.0568C277.368 61.9375 277.485 61.7718 277.564 61.5597C277.644 61.3475 277.683 61.1004 277.683 60.8182C277.683 60.536 277.644 60.2907 277.564 60.0824C277.486 59.8741 277.371 59.7121 277.217 59.5966C277.066 59.4811 276.879 59.4233 276.658 59.4233C276.429 59.4233 276.237 59.483 276.084 59.6023C275.931 59.7216 275.815 59.8864 275.737 60.0966C275.66 60.3068 275.621 60.5473 275.621 60.8182C275.621 61.0909 275.66 61.3343 275.737 61.5483C275.817 61.7604 275.933 61.928 276.087 62.0511C276.242 62.1723 276.432 62.233 276.658 62.233Z" fill="#344054"/>
<rect x="242.575" y="71" width="52" height="5" rx="2.5" fill="#EAECF0"/>
<rect x="242.575" y="80" width="34" height="5" rx="2.5" fill="#EAECF0"/>
<defs>
<clipPath id="clip0_400_1050">
<rect y="30" width="12" height="12" rx="6" fill="white"/>
</clipPath>
<clipPath id="clip1_400_1050">
<rect x="80.8584" y="30" width="12" height="12" rx="6" fill="white"/>
</clipPath>
<clipPath id="clip2_400_1050">
<rect width="7.2" height="7.2" fill="white" transform="translate(83.2588 32.3999)"/>
</clipPath>
<clipPath id="clip3_400_1050">
<rect x="161.717" y="30" width="12" height="12" rx="6" fill="white"/>
</clipPath>
<clipPath id="clip4_400_1050">
<rect width="7.2" height="7.2" fill="white" transform="translate(164.117 32.3999)"/>
</clipPath>
<clipPath id="clip5_400_1050">
<rect x="242.575" y="30" width="12" height="12" rx="6" fill="white"/>
</clipPath>
<clipPath id="clip6_400_1050">
<rect width="7.2" height="7.2" fill="white" transform="translate(244.975 32.4)"/>
</clipPath>
</defs>
</svg>
