<svg width="162" height="146" viewBox="0 0 162 146" fill="none" xmlns="http://www.w3.org/2000/svg">
<g filter="url(#filter0_d_16_2701)">
<rect x="2" y="98" width="158" height="20" rx="4.64865" fill="#2FB5C0"/>
<rect x="2.29054" y="98.2905" width="157.419" height="19.4189" rx="4.35811" stroke="#2FB5C0" stroke-width="0.581081"/>
<rect x="60.9531" y="105.676" width="40.0946" height="4.64865" rx="2.32432" fill="white"/>
</g>
<g filter="url(#filter1_d_16_2701)">
<rect x="2" y="124" width="158" height="20" rx="4.64865" fill="white"/>
<rect x="2.29054" y="124.291" width="157.419" height="19.4189" rx="4.35811" stroke="#E5E7EB" stroke-width="0.581081"/>
<rect x="57.4658" y="131.676" width="30.7973" height="4.64865" rx="2.32432" fill="#26919A"/>
<path d="M94.8486 134H102.596M102.596 134L99.691 131.095M102.596 134L99.691 136.905" stroke="#26919A" stroke-width="0.968468" stroke-linecap="round" stroke-linejoin="round"/>
</g>
<g filter="url(#filter2_d_16_2701)">
<rect x="2" y="35" width="158" height="19" rx="4.64865" fill="white"/>
<rect x="2.29054" y="35.2905" width="157.419" height="18.4189" rx="4.35811" stroke="#D0D5DD" stroke-width="0.581081"/>
<rect x="10.1348" y="42.1757" width="31.3784" height="4.64865" rx="2.32432" fill="#E5E7EB"/>
</g>
<g filter="url(#filter3_d_16_2701)">
<rect x="2" y="64" width="158" height="20" rx="4.64865" fill="white"/>
<rect x="2.29054" y="64.2905" width="157.419" height="19.4189" rx="4.35811" stroke="#D0D5DD" stroke-width="0.581081"/>
<rect x="10.1348" y="71.6757" width="22.0811" height="4.64865" rx="2.32432" fill="#E5E7EB"/>
</g>
<g filter="url(#filter4_dd_16_2701)">
<path d="M49.2136 4.2131C45.3559 8.07081 45.3559 14.3256 49.2136 18.1833C53.0713 22.041 59.3261 22.041 63.1838 18.1833C67.0415 14.3256 67.0415 8.07081 63.1838 4.2131C59.3261 0.355397 53.0713 0.355397 49.2136 4.2131Z" fill="#472F92"/>
<path d="M56.868 6.2419C56.739 6.2419 56.6112 6.19317 56.5124 6.09439C56.3162 5.89815 56.3162 5.57941 56.5124 5.38317L57.2895 4.60478L56.5124 3.82639C56.3162 3.63015 56.3162 3.31141 56.5124 3.11517C56.7087 2.91893 57.0274 2.91893 57.2236 3.11517L58.3576 4.24917C58.5539 4.44541 58.5539 4.76415 58.3576 4.96039L57.2236 6.09439C57.1249 6.19317 56.9971 6.2419 56.868 6.2419Z" fill="#2FB5C0"/>
<path d="M55.5359 19.4284C55.4068 19.4284 55.2777 19.3797 55.1803 19.2809L54.0476 18.1482C53.8513 17.952 53.8513 17.6332 54.0476 17.437L55.1816 16.303C55.3778 16.1068 55.6965 16.1068 55.8928 16.303C56.089 16.4992 56.089 16.818 55.8928 17.0142L55.1157 17.7926L55.8928 18.5697C56.089 18.7659 56.089 19.0847 55.8928 19.2809C55.794 19.3797 55.6663 19.4284 55.5372 19.4284H55.5359Z" fill="#2FB5C0"/>
<path d="M63.0095 9.17503C62.8843 8.75488 62.5564 8.43878 62.1323 8.3321C61.7082 8.2241 61.2709 8.34527 60.9627 8.65347L59.5745 10.0403C59.4534 10.1615 59.402 10.3354 59.4389 10.5026C59.6773 11.609 59.3427 12.7469 58.5433 13.5477C57.3724 14.7186 55.539 14.824 54.243 13.8743L58.5209 9.59649C58.8396 9.27776 58.9884 8.82074 58.9173 8.37556C58.8475 7.92776 58.5762 7.55371 58.1758 7.34956C56.5018 6.49347 54.4854 6.8122 53.1551 8.14244C51.5904 9.70581 51.4798 12.1806 52.8193 13.8743L51.8775 14.8161C51.7643 14.9293 51.6339 14.9372 51.5654 14.932C51.4429 14.9214 51.331 14.8582 51.2572 14.7568C49.5015 12.3215 49.7716 9.01039 51.8973 6.88464C52.951 5.83098 54.3484 5.20142 55.8327 5.10922C56.1106 5.0921 56.3214 4.85371 56.3042 4.57581C56.2871 4.29791 56.0461 4.08454 55.7708 4.1043C54.0402 4.21098 52.4123 4.94459 51.1848 6.1721C48.7074 8.64952 48.3939 12.5059 50.4393 15.3442C50.6856 15.6853 51.0662 15.9 51.4824 15.9342C51.5206 15.9369 51.5575 15.9395 51.5957 15.9395C51.9658 15.9395 52.3227 15.7933 52.5875 15.5286L53.5226 14.5935C55.2163 15.9329 57.6885 15.8236 59.2532 14.2602C60.2291 13.2843 60.6743 11.9211 60.4715 10.5685L61.6726 9.36732C61.7503 9.28961 61.8386 9.29752 61.8834 9.30937C61.9295 9.32122 62.0124 9.35678 62.044 9.46347C62.6828 11.6142 62.0954 13.9336 60.511 15.5181C59.4586 16.5704 58.0612 17.2013 56.5742 17.2935C56.2977 17.3106 56.0856 17.549 56.1027 17.8269C56.1198 18.0942 56.3411 18.2984 56.6045 18.2984C56.6151 18.2984 56.6256 18.2984 56.6361 18.2984C58.3668 18.1917 59.996 17.4568 61.2222 16.2306C63.0687 14.3854 63.7523 11.6827 63.0081 9.17898L63.0095 9.17503ZM53.8676 8.85103C54.5064 8.21225 55.3507 7.87771 56.2094 7.87771C56.7217 7.87771 57.2394 7.99756 57.7188 8.24254C57.8702 8.32025 57.9124 8.45591 57.9242 8.52966C57.9453 8.66137 57.9032 8.78913 57.8096 8.88264L53.5371 13.1539C53.1209 12.5889 52.8956 11.908 52.8956 11.1928C52.8956 10.3077 53.2407 9.47532 53.8663 8.84971L53.8676 8.85103Z" fill="white"/>
</g>
<path d="M71.6427 8.15138C70.0908 8.15138 68.8438 9.31018 68.8438 10.9969C68.8438 12.6835 70.0908 13.8273 71.6198 13.8273C72.8008 13.8273 73.766 13.2919 74.2435 12.1758L72.9634 11.9068C72.5723 12.5629 72.0414 12.6157 71.6198 12.6157C70.9569 12.6157 70.4032 12.1431 70.2635 11.3689H74.3857V10.8863C74.3324 9.25489 73.0853 8.14886 71.6427 8.14886V8.15138ZM70.3092 10.3735C70.482 9.70735 71.1017 9.3856 71.6427 9.3856C72.2167 9.3856 72.7373 9.68724 72.9228 10.3735H70.3092Z" fill="#2FB5C0"/>
<path d="M78.8495 9.50343L77.29 9.19173C76.7262 9.08364 76.5636 8.82724 76.5636 8.46276C76.5636 7.98013 77.0056 7.57291 77.7447 7.57291C78.4838 7.57291 79.0679 8.01281 79.1771 8.68899L80.6503 8.38735C80.3683 7.1104 79.2508 6.31607 77.7777 6.31607C76.076 6.31607 75.0118 7.21849 75.0118 8.50549C75.0118 9.91064 76.0506 10.3832 76.9192 10.5667L78.4584 10.8558C79.1086 10.984 79.3041 11.2303 79.3041 11.6401C79.3041 12.1554 78.8597 12.5525 78.0139 12.5525C77.1681 12.5525 76.5814 12.1981 76.3858 11.3837L74.834 11.6954C75.0194 13.1332 76.3528 13.8295 77.8716 13.8295C79.5962 13.8295 80.7569 12.9597 80.7569 11.5646C80.7569 10.4486 80.0305 9.74977 78.847 9.50343H78.8495Z" fill="#2FB5C0"/>
<path d="M107.9 8.15135C106.351 8.15135 105.102 9.31015 105.102 10.9968C105.102 12.6835 106.349 13.8272 107.878 13.8272C109.061 13.8272 110.026 13.2918 110.504 12.1758L109.224 11.9068C108.835 12.5629 108.302 12.6157 107.88 12.6157C107.217 12.6157 106.666 12.1431 106.524 11.3689H110.646V10.8862C110.593 9.25486 109.346 8.14883 107.9 8.14883V8.15135ZM106.567 10.3734C106.74 9.70732 107.359 9.38557 107.9 9.38557C108.477 9.38557 108.998 9.68721 109.181 10.3734H106.567Z" fill="#2FB5C0"/>
<path d="M86.9793 10.4061C86.9793 9.07637 86.1106 8.15385 84.8102 8.15385C84.094 8.15385 83.5301 8.37756 83.106 8.79735V5.9418H80.8633L81.1376 6.51241C81.2265 6.69842 81.4678 6.84924 81.676 6.84924V12.769H81.3332V13.6714H83.4489V12.769H83.1085V11.301C83.1085 9.99135 83.6419 9.45342 84.4546 9.45342C85.115 9.45342 85.5493 9.95867 85.5493 10.7078V12.7665H85.209V13.6689H87.3247V12.7665H86.9818V10.4061H86.9793Z" fill="#2FB5C0"/>
<path d="M95.0495 8.15128C94.3129 8.15128 93.7135 8.36494 93.2589 8.74199V8.31215H91.0137L91.288 8.88276C91.3769 9.06626 91.6207 9.21708 91.8264 9.21708V14.5888H91.4835V15.4937H93.5992V14.5888H93.2564V13.249C93.711 13.616 94.3079 13.8297 95.047 13.8297C96.4236 13.8297 97.7036 12.6835 97.7036 10.9993C97.7036 9.31511 96.4236 8.15379 95.047 8.15379L95.0495 8.15128ZM94.7981 12.5955C94.0259 12.5955 93.2589 11.9846 93.2589 10.9968C93.2589 10.0089 94.0285 9.3855 94.7981 9.3855C95.6641 9.3855 96.3169 10.0089 96.3169 10.9968C96.3169 11.9846 95.6641 12.5955 94.7981 12.5955Z" fill="#2FB5C0"/>
<path d="M101.736 8.15128C101 8.15128 100.403 8.36494 99.9484 8.74199V8.31215H97.7031L97.9774 8.88276C98.0689 9.06626 98.3102 9.21708 98.5159 9.21708V14.5888H98.173V15.4937H100.289V14.5888H99.9484V13.249C100.403 13.616 101 13.8297 101.736 13.8297C103.113 13.8297 104.393 12.6835 104.393 10.9993C104.393 9.31511 103.113 8.15379 101.736 8.15379V8.15128ZM101.488 12.5955C100.718 12.5955 99.9484 11.9846 99.9484 10.9968C99.9484 10.0089 100.718 9.3855 101.488 9.3855C102.354 9.3855 103.006 10.0089 103.006 10.9968C103.006 11.9846 102.354 12.5955 101.488 12.5955Z" fill="#2FB5C0"/>
<path d="M115.037 8.23685C114.158 8.23685 113.529 8.66669 113.097 9.29008V8.31226H110.852L111.128 8.88287C111.217 9.06637 111.459 9.21719 111.664 9.21719V12.7665H111.324V13.6689H113.437V12.7665H113.097V11.9395C113.097 10.4489 113.704 9.64451 115.027 9.64451H115.342L115.418 8.2821C115.289 8.23685 115.179 8.23685 115.04 8.23685H115.037Z" fill="#2FB5C0"/>
<path d="M89.3921 7.61339C89.8924 7.61339 90.2582 7.25895 90.2582 6.78638C90.2582 6.31381 89.8899 5.93927 89.3921 5.93927C88.8943 5.93927 88.5234 6.33643 88.5234 6.78638C88.5234 7.25895 88.8816 7.61339 89.3921 7.61339Z" fill="#EC1846"/>
<path d="M90.1085 8.30948H87.8633L88.1401 8.88008C88.229 9.06358 88.4703 9.2144 88.676 9.2144V12.7637H88.3332V13.6661H90.4489V12.7637H90.106V8.30948H90.1085Z" fill="#2FB5C0"/>
<defs>
<filter id="filter0_d_16_2701" x="0.837838" y="97.4189" width="160.324" height="22.3243" filterUnits="userSpaceOnUse" color-interpolation-filters="sRGB">
<feFlood flood-opacity="0" result="BackgroundImageFix"/>
<feColorMatrix in="SourceAlpha" type="matrix" values="0 0 0 0 0 0 0 0 0 0 0 0 0 0 0 0 0 0 127 0" result="hardAlpha"/>
<feOffset dy="0.581081"/>
<feGaussianBlur stdDeviation="0.581081"/>
<feColorMatrix type="matrix" values="0 0 0 0 0.0627451 0 0 0 0 0.0941176 0 0 0 0 0.156863 0 0 0 0.05 0"/>
<feBlend mode="normal" in2="BackgroundImageFix" result="effect1_dropShadow_16_2701"/>
<feBlend mode="normal" in="SourceGraphic" in2="effect1_dropShadow_16_2701" result="shape"/>
</filter>
<filter id="filter1_d_16_2701" x="0.837838" y="123.419" width="160.324" height="22.3243" filterUnits="userSpaceOnUse" color-interpolation-filters="sRGB">
<feFlood flood-opacity="0" result="BackgroundImageFix"/>
<feColorMatrix in="SourceAlpha" type="matrix" values="0 0 0 0 0 0 0 0 0 0 0 0 0 0 0 0 0 0 127 0" result="hardAlpha"/>
<feOffset dy="0.581081"/>
<feGaussianBlur stdDeviation="0.581081"/>
<feColorMatrix type="matrix" values="0 0 0 0 0.0627451 0 0 0 0 0.0941176 0 0 0 0 0.156863 0 0 0 0.05 0"/>
<feBlend mode="normal" in2="BackgroundImageFix" result="effect1_dropShadow_16_2701"/>
<feBlend mode="normal" in="SourceGraphic" in2="effect1_dropShadow_16_2701" result="shape"/>
</filter>
<filter id="filter2_d_16_2701" x="0.837838" y="34.4189" width="160.324" height="21.3243" filterUnits="userSpaceOnUse" color-interpolation-filters="sRGB">
<feFlood flood-opacity="0" result="BackgroundImageFix"/>
<feColorMatrix in="SourceAlpha" type="matrix" values="0 0 0 0 0 0 0 0 0 0 0 0 0 0 0 0 0 0 127 0" result="hardAlpha"/>
<feOffset dy="0.581081"/>
<feGaussianBlur stdDeviation="0.581081"/>
<feColorMatrix type="matrix" values="0 0 0 0 0.0627451 0 0 0 0 0.0941176 0 0 0 0 0.156863 0 0 0 0.05 0"/>
<feBlend mode="normal" in2="BackgroundImageFix" result="effect1_dropShadow_16_2701"/>
<feBlend mode="normal" in="SourceGraphic" in2="effect1_dropShadow_16_2701" result="shape"/>
</filter>
<filter id="filter3_d_16_2701" x="0.837838" y="63.4189" width="160.324" height="22.3243" filterUnits="userSpaceOnUse" color-interpolation-filters="sRGB">
<feFlood flood-opacity="0" result="BackgroundImageFix"/>
<feColorMatrix in="SourceAlpha" type="matrix" values="0 0 0 0 0 0 0 0 0 0 0 0 0 0 0 0 0 0 127 0" result="hardAlpha"/>
<feOffset dy="0.581081"/>
<feGaussianBlur stdDeviation="0.581081"/>
<feColorMatrix type="matrix" values="0 0 0 0 0.0627451 0 0 0 0 0.0941176 0 0 0 0 0.156863 0 0 0 0.05 0"/>
<feBlend mode="normal" in2="BackgroundImageFix" result="effect1_dropShadow_16_2701"/>
<feBlend mode="normal" in="SourceGraphic" in2="effect1_dropShadow_16_2701" result="shape"/>
</filter>
<filter id="filter4_dd_16_2701" x="44.4681" y="0.085027" width="23.4612" height="23.4611" filterUnits="userSpaceOnUse" color-interpolation-filters="sRGB">
<feFlood flood-opacity="0" result="BackgroundImageFix"/>
<feColorMatrix in="SourceAlpha" type="matrix" values="0 0 0 0 0 0 0 0 0 0 0 0 0 0 0 0 0 0 127 0" result="hardAlpha"/>
<feOffset dy="0.617399"/>
<feGaussianBlur stdDeviation="0.617399"/>
<feColorMatrix type="matrix" values="0 0 0 0 0.0627451 0 0 0 0 0.0941176 0 0 0 0 0.156863 0 0 0 0.06 0"/>
<feBlend mode="normal" in2="BackgroundImageFix" result="effect1_dropShadow_16_2701"/>
<feColorMatrix in="SourceAlpha" type="matrix" values="0 0 0 0 0 0 0 0 0 0 0 0 0 0 0 0 0 0 127 0" result="hardAlpha"/>
<feOffset dy="0.617399"/>
<feGaussianBlur stdDeviation="0.926098"/>
<feColorMatrix type="matrix" values="0 0 0 0 0.0627451 0 0 0 0 0.0941176 0 0 0 0 0.156863 0 0 0 0.1 0"/>
<feBlend mode="normal" in2="effect1_dropShadow_16_2701" result="effect2_dropShadow_16_2701"/>
<feBlend mode="normal" in="SourceGraphic" in2="effect2_dropShadow_16_2701" result="shape"/>
</filter>
</defs>
</svg>
