<svg width="354" height="152" viewBox="0 0 354 152" fill="none" xmlns="http://www.w3.org/2000/svg">
<g filter="url(#filter0_d_400_880)">
<rect x="14" y="12" width="290" height="37" rx="3.49297" fill="white"/>
</g>
<rect x="123.89" y="16.8188" width="84.4719" height="27.9437" rx="13.9718" fill="#F3F4F6"/>
<line x1="152.124" y1="27.2977" x2="152.124" y2="34.2836" stroke="#E5E7EB" stroke-width="0.582161"/>
<g clip-path="url(#clip0_400_880)">
<path d="M166.709 29.9338C166.709 27.0311 164.356 24.6779 161.453 24.6779C158.55 24.6779 156.197 27.0311 156.197 29.9338C156.197 32.8366 158.55 35.1898 161.453 35.1898" stroke="#6B7280" stroke-width="0.95597" stroke-linecap="round"/>
<path d="M161.554 32.8844C161.152 32.8844 160.794 32.8105 160.48 32.6628C160.167 32.515 159.919 32.3114 159.735 32.052C159.552 31.7925 159.456 31.4952 159.448 31.1599H160.642C160.655 31.3853 160.75 31.5681 160.926 31.7082C161.102 31.8484 161.311 31.9184 161.554 31.9184C161.747 31.9184 161.917 31.8758 162.065 31.7906C162.215 31.7035 162.331 31.5832 162.414 31.4298C162.5 31.2745 162.542 31.0965 162.542 30.8957C162.542 30.6912 162.499 30.5112 162.411 30.3559C162.326 30.2006 162.208 30.0794 162.056 29.9923C161.905 29.9052 161.732 29.8607 161.536 29.8588C161.366 29.8588 161.2 29.8938 161.039 29.9639C160.88 30.034 160.756 30.1296 160.667 30.2508L159.573 30.0548L159.849 26.9866H163.406V27.9923H160.863L160.713 29.4497H160.747C160.849 29.3058 161.003 29.1864 161.21 29.0917C161.416 28.997 161.647 28.9497 161.903 28.9497C162.253 28.9497 162.566 29.0321 162.84 29.1969C163.115 29.3616 163.332 29.588 163.491 29.8758C163.65 30.1618 163.729 30.4914 163.727 30.8645C163.729 31.2565 163.638 31.605 163.454 31.9099C163.272 32.213 163.018 32.4516 162.69 32.6258C162.364 32.7982 161.985 32.8844 161.554 32.8844Z" fill="#6B7280"/>
<path d="M169.272 34.2773C169.168 33.4605 168.743 32.7188 168.092 32.2152C167.44 31.7116 166.615 31.4875 165.798 31.5921C164.982 31.6967 164.24 32.1214 163.736 32.773C163.233 33.4244 163.009 34.2492 163.113 35.066C163.218 35.8828 163.642 36.6246 164.294 37.1282C164.945 37.6318 165.77 37.856 166.587 37.7515C167.127 37.6824 167.64 37.4721 168.074 37.1419C168.508 36.8115 168.847 36.3729 169.057 35.8701C169.267 35.3672 169.342 34.8178 169.272 34.2771L169.272 34.2773ZM166.503 34.6716C166.504 34.7541 166.471 34.8335 166.413 34.8921L165.482 35.8235C165.423 35.8823 165.344 35.9153 165.261 35.9153C165.178 35.9153 165.099 35.8823 165.041 35.8235C164.982 35.7652 164.949 35.6858 164.949 35.6031C164.949 35.5203 164.982 35.4409 165.041 35.3826L165.882 34.5443V33.1191C165.882 33.0082 165.941 32.9057 166.037 32.8503C166.133 32.7948 166.252 32.7948 166.348 32.8503C166.444 32.9057 166.503 33.0082 166.503 33.1191L166.503 34.6716Z" fill="#6B7280"/>
</g>
<line x1="173.082" y1="27.2977" x2="173.082" y2="34.2836" stroke="#E5E7EB" stroke-width="0.582161"/>
<g clip-path="url(#clip1_400_880)">
<path d="M182.494 32.3959C182.494 31.1958 181.816 30.4624 180.137 29.9021C178.937 29.4754 178.443 29.1954 178.443 28.7553C178.443 28.3818 178.74 28.0081 179.657 28.0081C180.202 28.0081 180.641 28.0961 180.989 28.2007C181.174 28.2561 181.376 28.2373 181.546 28.1478C181.716 28.0587 181.84 27.9077 181.888 27.7298L181.896 27.702C181.956 27.4818 181.919 27.2481 181.796 27.0532C181.672 26.8583 181.471 26.7185 181.237 26.6649C180.922 26.5924 180.552 26.5402 180.117 26.5181V25.7194C180.117 25.5194 179.945 25.3572 179.733 25.3572H178.967C178.755 25.3572 178.584 25.5194 178.584 25.7194V26.629C177.128 26.9282 176.284 27.8312 176.284 28.9817C176.284 30.2755 177.314 30.942 178.824 31.4225C179.869 31.7561 180.32 32.0763 180.32 32.5827C180.32 33.1166 179.77 33.4097 178.966 33.4097C178.389 33.4097 177.846 33.2989 177.376 33.1409C177.178 33.0746 176.961 33.0895 176.776 33.1825C176.592 33.2752 176.457 33.4371 176.405 33.6288L176.401 33.6404C176.276 34.1023 176.56 34.5754 177.043 34.7119C177.501 34.8415 178.037 34.9321 178.584 34.956V35.8619C178.584 36.0622 178.756 36.2242 178.967 36.2242H179.734C179.946 36.2242 180.117 36.0622 180.117 35.8619V34.8321C181.65 34.5311 182.494 33.548 182.494 32.3962L182.494 32.3959Z" fill="#6B7280"/>
<path d="M190.255 32.3959C190.255 31.1958 189.578 30.4624 187.898 29.9021C186.699 29.4754 186.205 29.1954 186.205 28.7553C186.205 28.3818 186.501 28.0081 187.418 28.0081C187.964 28.0081 188.403 28.0961 188.751 28.2007C188.936 28.2561 189.137 28.2373 189.308 28.1478C189.477 28.0587 189.601 27.9077 189.65 27.7298L189.657 27.702C189.717 27.4818 189.681 27.2481 189.557 27.0532C189.434 26.8583 189.232 26.7185 188.999 26.6649C188.683 26.5924 188.313 26.5402 187.878 26.5181V25.7194C187.878 25.5194 187.707 25.3572 187.495 25.3572H186.729C186.517 25.3572 186.345 25.5194 186.345 25.7194V26.629C184.89 26.9282 184.046 27.8312 184.046 28.9817C184.046 30.2755 185.076 30.942 186.586 31.4225C187.631 31.7561 188.082 32.0763 188.082 32.5827C188.082 33.1166 187.531 33.4097 186.727 33.4097C186.151 33.4097 185.608 33.2989 185.137 33.1409C184.94 33.0746 184.723 33.0895 184.538 33.1825C184.353 33.2752 184.218 33.4371 184.166 33.6288L184.163 33.6404C184.038 34.1023 184.322 34.5754 184.805 34.7119C185.263 34.8415 185.799 34.9321 186.346 34.956V35.8619C186.346 36.0622 186.517 36.2242 186.729 36.2242H187.495C187.707 36.2242 187.879 36.0622 187.879 35.8619V34.8321C189.412 34.5311 190.256 33.548 190.256 32.3962L190.255 32.3959Z" fill="#6B7280"/>
<path d="M198.017 32.3959C198.017 31.1958 197.339 30.4624 195.66 29.9021C194.461 29.4754 193.967 29.1954 193.967 28.7553C193.967 28.3818 194.263 28.0081 195.18 28.0081C195.726 28.0081 196.165 28.0961 196.512 28.2007C196.697 28.2561 196.899 28.2373 197.069 28.1478C197.239 28.0587 197.363 27.9077 197.412 27.7298L197.419 27.702C197.479 27.4818 197.443 27.2481 197.319 27.0532C197.195 26.8583 196.994 26.7185 196.76 26.6649C196.445 26.5924 196.075 26.5402 195.64 26.5181V25.7194C195.64 25.5194 195.469 25.3572 195.257 25.3572H194.49C194.279 25.3572 194.107 25.5194 194.107 25.7194V26.629C192.652 26.9282 191.808 27.8312 191.808 28.9817C191.808 30.2755 192.838 30.942 194.348 31.4225C195.392 31.7561 195.843 32.0763 195.843 32.5827C195.843 33.1166 195.293 33.4097 194.489 33.4097C193.913 33.4097 193.37 33.2989 192.899 33.1409C192.702 33.0746 192.485 33.0895 192.3 33.1825C192.115 33.2752 191.98 33.4371 191.928 33.6288L191.925 33.6404C191.8 34.1023 192.083 34.5754 192.567 34.7119C193.025 34.8415 193.561 34.9321 194.107 34.956V35.8619C194.107 36.0622 194.279 36.2242 194.491 36.2242H195.257C195.469 36.2242 195.64 36.0622 195.64 35.8619V34.8321C197.173 34.5311 198.017 33.548 198.017 32.3962L198.017 32.3959Z" fill="#6B7280"/>
</g>
<rect x="17.5244" y="15.6545" width="30.2239" height="30.2723" rx="4.65729" fill="#111827"/>
<path d="M22.8842 27.9537C22.3893 27.9537 21.9146 27.7567 21.5637 27.4053C21.213 27.0541 21.0148 26.5775 21.0127 26.0798H26.8702C27.3669 26.0791 27.8433 26.2772 28.1945 26.6303C28.5456 26.9834 28.7426 27.4627 28.7419 27.9622L22.8842 27.9537ZM44.2617 31.2244V34.9418C44.2617 35.089 44.2036 35.2303 44.1002 35.3346C43.9966 35.4386 43.8561 35.4972 43.7097 35.4972H42.2521C42.0876 36.1479 41.6426 36.6906 41.0387 36.9768C40.4349 37.2632 39.7355 37.2632 39.1316 36.9768C38.5278 36.6906 38.0826 36.1479 37.9181 35.4972H32.0853C31.9221 36.1486 31.4775 36.6925 30.8734 36.9793C30.2696 37.2663 29.5695 37.2663 28.9655 36.9793C28.3617 36.6925 27.9171 36.1486 27.7538 35.4972H26.7159C26.4109 35.4972 26.1639 35.2486 26.1639 34.9418V32.8514H31.6683V31.7408C31.6679 31.1516 31.4947 30.5756 31.1708 30.0848C30.8467 29.5941 30.3861 29.2102 29.8465 28.9811V27.9538C29.8442 27.1616 29.5297 26.4024 28.9718 25.843C28.4141 25.2834 27.6585 24.9692 26.8705 24.9692H39.1355C39.3337 24.9684 39.517 25.0745 39.616 25.2469L42.2579 29.8667L43.9556 30.7303C44.1422 30.8235 44.2608 31.0148 44.2619 31.2245L44.2617 31.2244ZM31.0607 34.9418C31.0628 34.6387 30.9451 34.3473 30.7332 34.1316C30.5215 33.916 30.233 33.794 29.9316 33.7925C29.6302 33.791 29.3406 33.9103 29.1269 34.1238C28.9129 34.3373 28.7922 34.6277 28.7916 34.9309C28.7907 35.234 28.9099 35.5248 29.1229 35.7394C29.3358 35.9541 29.6248 36.0747 29.9261 36.0747C30.2254 36.074 30.5122 35.9546 30.7246 35.7425C30.9371 35.5305 31.0578 35.2429 31.0607 34.9418ZM41.2192 34.9418C41.2215 34.6385 41.1034 34.3466 40.8913 34.131C40.679 33.9154 40.39 33.7936 40.0884 33.7925C39.7866 33.7915 39.497 33.9113 39.2834 34.1257C39.0699 34.3401 38.9498 34.6311 38.95 34.9344C38.9502 35.238 39.0707 35.5288 39.2847 35.7427C39.4987 35.9567 39.7885 36.0761 40.0901 36.0746C40.3885 36.0725 40.6739 35.9524 40.8852 35.7406C41.0964 35.5288 41.2165 35.242 41.2192 34.9418ZM30.5636 31.7408C30.5644 31.2414 30.3675 30.762 30.0162 30.4089C29.6651 30.0558 29.1887 29.8576 28.6921 29.8584H22.834C22.834 30.3577 23.0314 30.8364 23.3822 31.1895C23.7333 31.5424 24.2093 31.7409 24.7057 31.7409L30.5636 31.7408Z" fill="white"/>
<rect x="56" y="26" width="48" height="9" rx="4.5" fill="#E5E7EB"/>
<g filter="url(#filter1_d_400_880)">
<rect x="231" y="17.9834" width="62.1915" height="25.615" rx="12.8075" fill="#2FB5C0"/>
<rect x="231.291" y="18.2745" width="61.6093" height="25.0329" rx="12.5164" stroke="#2FB5C0" stroke-width="0.582161"/>
<rect x="241.429" y="28.4623" width="22.7042" height="4.65728" rx="2.32864" fill="#97DAE0"/>
<path d="M282.761 30.7908C282.761 26.9376 279.629 23.8048 275.775 23.8048C271.922 23.8048 268.789 26.9373 268.789 30.7908C268.789 34.6442 271.922 37.7767 275.775 37.7767C279.629 37.7767 282.761 34.6442 282.761 30.7908ZM274.114 34.1588C273.878 33.9235 273.878 33.5558 274.114 33.3352L276.658 30.7909L274.128 28.2613C274.011 28.1436 273.952 27.9966 273.952 27.8495C273.952 27.7024 274.011 27.5554 274.128 27.4377C274.364 27.2024 274.731 27.2024 274.952 27.4377L277.893 30.3791C278.129 30.6144 278.129 30.9821 277.893 31.2027L274.937 34.1588C274.717 34.3795 274.349 34.3795 274.114 34.1588L274.114 34.1588Z" fill="white"/>
</g>
<g filter="url(#filter2_d_400_880)">
<rect x="32" y="55.1892" width="290" height="37.1892" rx="3.49297" fill="white"/>
</g>
<rect x="35.5244" y="58.9302" width="30.2239" height="30.2723" rx="4.65729" fill="#374151"/>
<path d="M40.8842 71.2292C40.3893 71.2292 39.9146 71.0322 39.5637 70.6808C39.213 70.3296 39.0148 69.853 39.0127 69.3553H44.8702C45.3669 69.3547 45.8433 69.5527 46.1945 69.9058C46.5456 70.2589 46.7426 70.7383 46.7419 71.2377L40.8842 71.2292ZM62.2617 74.4999V78.2173C62.2617 78.3646 62.2036 78.5058 62.1002 78.6101C61.9966 78.7141 61.8561 78.7727 61.7097 78.7727H60.2521C60.0876 79.4235 59.6426 79.9661 59.0387 80.2523C58.4349 80.5387 57.7355 80.5387 57.1316 80.2523C56.5278 79.9661 56.0826 79.4235 55.9181 78.7727H50.0853C49.9221 79.4241 49.4775 79.968 48.8734 80.2548C48.2696 80.5419 47.5695 80.5419 46.9655 80.2548C46.3617 79.968 45.9171 79.4241 45.7538 78.7727H44.7159C44.4109 78.7727 44.1639 78.5241 44.1639 78.2174V76.1269H49.6683V75.0164C49.6679 74.4271 49.4947 73.8512 49.1708 73.3604C48.8467 72.8696 48.3861 72.4858 47.8465 72.2566V71.2293C47.8442 70.4371 47.5297 69.6779 46.9718 69.1185C46.4141 68.5589 45.6585 68.2448 44.8705 68.2448H57.1355C57.3337 68.2439 57.517 68.35 57.616 68.5225L60.2579 73.1422L61.9556 74.0058C62.1422 74.099 62.2608 74.2903 62.2619 74.5L62.2617 74.4999ZM49.0607 78.2173C49.0628 77.9142 48.9451 77.6228 48.7332 77.4072C48.5215 77.1915 48.233 77.0695 47.9316 77.068C47.6302 77.0666 47.3406 77.1858 47.1269 77.3993C46.9129 77.6128 46.7922 77.9032 46.7916 78.2064C46.7907 78.5095 46.9099 78.8003 47.1229 79.0149C47.3358 79.2297 47.6248 79.3502 47.9261 79.3502C48.2254 79.3496 48.5122 79.2301 48.7246 79.0181C48.9371 78.806 49.0578 78.5184 49.0607 78.2173ZM59.2192 78.2173C59.2215 77.914 59.1034 77.6221 58.8913 77.4065C58.679 77.1909 58.39 77.0691 58.0884 77.068C57.7866 77.067 57.497 77.1869 57.2834 77.4012C57.0699 77.6156 56.9498 77.9066 56.95 78.2099C56.9502 78.5135 57.0707 78.8043 57.2847 79.0182C57.4987 79.2322 57.7885 79.3516 58.0901 79.3501C58.3885 79.348 58.6739 79.2279 58.8852 79.0161C59.0964 78.8043 59.2165 78.5175 59.2192 78.2173ZM48.5636 75.0163C48.5644 74.5169 48.3675 74.0375 48.0162 73.6845C47.6651 73.3314 47.1887 73.1331 46.6921 73.134H40.834C40.834 73.6332 41.0314 74.1119 41.3822 74.465C41.7333 74.8179 42.2093 75.0164 42.7057 75.0164L48.5636 75.0163Z" fill="white"/>
<rect x="74" y="69" width="51" height="10" rx="5" fill="#E5E7EB"/>
<g filter="url(#filter3_d_400_880)">
<rect x="249" y="61.2588" width="62.1915" height="25.615" rx="12.8075" fill="#2FB5C0"/>
<rect x="249.291" y="61.5499" width="61.6093" height="25.0329" rx="12.5164" stroke="#2FB5C0" stroke-width="0.582161"/>
<rect x="259.429" y="71.7377" width="22.7042" height="4.65728" rx="2.32864" fill="#97DAE0"/>
<path d="M300.761 74.0663C300.761 70.2131 297.629 67.0804 293.775 67.0804C289.922 67.0804 286.789 70.2128 286.789 74.0663C286.789 77.9197 289.922 81.0522 293.775 81.0522C297.629 81.0522 300.761 77.9197 300.761 74.0663ZM292.114 77.4343C291.878 77.199 291.878 76.8313 292.114 76.6107L294.658 74.0664L292.128 71.5368C292.011 71.4191 291.952 71.2721 291.952 71.125C291.952 70.9779 292.011 70.8309 292.128 70.7132C292.364 70.4779 292.731 70.4779 292.952 70.7132L295.893 73.6546C296.129 73.8899 296.129 74.2576 295.893 74.4782L292.937 77.4343C292.717 77.655 292.349 77.655 292.114 77.4343L292.114 77.4343Z" fill="white"/>
</g>
<rect x="145.377" y="60.0945" width="77.8847" height="27.9437" rx="13.9718" fill="#F3F4F6"/>
<line x1="173.612" y1="70.5732" x2="173.612" y2="77.5592" stroke="#E5E7EB" stroke-width="0.582161"/>
<g clip-path="url(#clip2_400_880)">
<path d="M188.198 73.2097C188.198 70.3069 185.845 67.9537 182.942 67.9537C180.04 67.9537 177.687 70.3069 177.687 73.2097C177.687 76.1124 180.04 78.4656 182.942 78.4656" stroke="#6B7280" stroke-width="0.95597" stroke-linecap="round"/>
<path d="M183.007 76.16C182.583 76.16 182.205 76.0871 181.874 75.9412C181.544 75.7935 181.284 75.5909 181.092 75.3333C180.903 75.0738 180.805 74.7746 180.8 74.4356H182.038C182.046 74.5776 182.092 74.7026 182.178 74.8106C182.265 74.9166 182.38 74.999 182.524 75.0577C182.668 75.1164 182.83 75.1458 183.01 75.1458C183.197 75.1458 183.363 75.1126 183.507 75.0464C183.651 74.9801 183.764 74.8882 183.845 74.7708C183.927 74.6534 183.967 74.5179 183.967 74.3645C183.967 74.2092 183.924 74.0719 183.837 73.9526C183.751 73.8314 183.628 73.7367 183.467 73.6685C183.308 73.6003 183.119 73.5662 182.899 73.5662H182.357V72.6628H182.899C183.085 72.6628 183.249 72.6306 183.391 72.5662C183.535 72.5018 183.646 72.4128 183.726 72.2992C183.805 72.1837 183.845 72.0492 183.845 71.8958C183.845 71.75 183.81 71.6221 183.74 71.5123C183.672 71.4005 183.575 71.3134 183.45 71.2509C183.327 71.1884 183.183 71.1571 183.018 71.1571C182.852 71.1571 182.699 71.1875 182.561 71.2481C182.423 71.3068 182.312 71.3911 182.229 71.5009C182.145 71.6107 182.101 71.7395 182.095 71.8873H180.916C180.922 71.552 181.018 71.2566 181.203 71.0009C181.389 70.7452 181.639 70.5454 181.953 70.4015C182.269 70.2556 182.626 70.1827 183.024 70.1827C183.426 70.1827 183.777 70.2556 184.078 70.4015C184.379 70.5473 184.613 70.7443 184.78 70.9924C184.948 71.2386 185.032 71.5151 185.03 71.8219C185.032 72.1477 184.93 72.4195 184.726 72.6373C184.523 72.8551 184.259 72.9933 183.933 73.052V73.0975C184.361 73.1524 184.687 73.3011 184.911 73.5435C185.136 73.784 185.248 74.0852 185.246 74.4469C185.248 74.7784 185.152 75.0729 184.959 75.3304C184.768 75.588 184.503 75.7907 184.166 75.9384C183.829 76.0861 183.443 76.16 183.007 76.16Z" fill="#6B7280"/>
<path d="M190.76 77.553C190.655 76.7362 190.23 75.9945 189.579 75.4909C188.927 74.9873 188.103 74.7632 187.286 74.8678C186.469 74.9724 185.727 75.3971 185.224 76.0487C184.72 76.7001 184.496 77.5249 184.6 78.3417C184.705 79.1585 185.13 79.9003 185.781 80.4039C186.432 80.9075 187.257 81.1317 188.074 81.0272C188.615 80.9581 189.128 80.7478 189.561 80.4175C189.995 80.0872 190.334 79.6486 190.544 79.1458C190.755 78.6429 190.829 78.0935 190.76 77.5528L190.76 77.553ZM187.99 77.9473C187.991 78.0298 187.958 78.1091 187.9 78.1678L186.969 79.0992C186.911 79.158 186.831 79.191 186.748 79.191C186.666 79.191 186.586 79.158 186.528 79.0992C186.469 79.0409 186.436 78.9615 186.436 78.8788C186.436 78.796 186.469 78.7166 186.528 78.6583L187.369 77.82V76.3948C187.369 76.2839 187.429 76.1814 187.525 76.126C187.621 76.0705 187.739 76.0705 187.835 76.126C187.931 76.1814 187.99 76.2839 187.99 76.3948L187.99 77.9473Z" fill="#6B7280"/>
</g>
<line x1="194.57" y1="70.5734" x2="194.57" y2="77.5593" stroke="#E5E7EB" stroke-width="0.582161"/>
<g clip-path="url(#clip3_400_880)">
<path d="M204.176 75.6714C204.176 74.4714 203.499 73.7379 201.819 73.1776C200.62 72.7509 200.126 72.4709 200.126 72.0308C200.126 71.6573 200.422 71.2836 201.339 71.2836C201.885 71.2836 202.324 71.3716 202.672 71.4762C202.857 71.5316 203.058 71.5128 203.228 71.4233C203.398 71.3342 203.522 71.1832 203.571 71.0053L203.578 70.9775C203.638 70.7573 203.602 70.5236 203.478 70.3287C203.355 70.1338 203.153 69.994 202.92 69.9404C202.604 69.8679 202.234 69.8157 201.799 69.7936V68.9949C201.799 68.7949 201.628 68.6327 201.416 68.6327H200.65C200.438 68.6327 200.266 68.7949 200.266 68.9949V69.9045C198.811 70.2037 197.967 71.1067 197.967 72.2572C197.967 73.5511 198.997 74.2175 200.507 74.698C201.551 75.0316 202.003 75.3518 202.003 75.8582C202.003 76.3921 201.452 76.6852 200.648 76.6852C200.072 76.6852 199.529 76.5744 199.058 76.4164C198.861 76.3501 198.644 76.365 198.459 76.458C198.274 76.5507 198.139 76.7127 198.087 76.9043L198.084 76.9159C197.959 77.3778 198.242 77.8509 198.726 77.9874C199.184 78.117 199.72 78.2076 200.266 78.2315V79.1375C200.266 79.3378 200.438 79.4997 200.65 79.4997H201.416C201.628 79.4997 201.799 79.3378 201.799 79.1375V78.1076C203.332 77.8066 204.176 76.8235 204.176 75.6717L204.176 75.6714Z" fill="#6B7280"/>
<path d="M211.938 75.6714C211.938 74.4714 211.26 73.7379 209.581 73.1776C208.382 72.7509 207.888 72.4709 207.888 72.0308C207.888 71.6573 208.184 71.2836 209.101 71.2836C209.646 71.2836 210.086 71.3716 210.433 71.4762C210.618 71.5316 210.82 71.5128 210.99 71.4233C211.16 71.3342 211.284 71.1832 211.332 71.0053L211.34 70.9775C211.4 70.7573 211.364 70.5236 211.24 70.3287C211.116 70.1338 210.915 69.994 210.681 69.9404C210.366 69.8679 209.996 69.8157 209.561 69.7936V68.9949C209.561 68.7949 209.39 68.6327 209.178 68.6327H208.411C208.2 68.6327 208.028 68.7949 208.028 68.9949V69.9045C206.572 70.2037 205.729 71.1067 205.729 72.2572C205.729 73.5511 206.759 74.2175 208.269 74.698C209.313 75.0316 209.764 75.3518 209.764 75.8582C209.764 76.3921 209.214 76.6852 208.41 76.6852C207.833 76.6852 207.291 76.5744 206.82 76.4164C206.623 76.3501 206.405 76.365 206.221 76.458C206.036 76.5507 205.901 76.7127 205.849 76.9043L205.846 76.9159C205.721 77.3778 206.004 77.8509 206.487 77.9874C206.945 78.117 207.482 78.2076 208.028 78.2315V79.1375C208.028 79.3378 208.2 79.4997 208.411 79.4997H209.178C209.39 79.4997 209.561 79.3378 209.561 79.1375V78.1076C211.094 77.8066 211.938 76.8235 211.938 75.6717L211.938 75.6714Z" fill="#6B7280"/>
</g>
<g filter="url(#filter4_d_400_880)">
<rect x="50" y="99" width="290" height="37.1892" rx="3.49297" fill="white"/>
</g>
<rect x="53.5244" y="102.827" width="30.2239" height="30.2723" rx="4.65729" fill="#6B7280"/>
<path d="M58.8842 115.126C58.3893 115.126 57.9146 114.929 57.5637 114.578C57.213 114.227 57.0148 113.75 57.0127 113.252H62.8702C63.3669 113.252 63.8433 113.45 64.1945 113.803C64.5456 114.156 64.7426 114.635 64.7419 115.135L58.8842 115.126ZM80.2617 118.397V122.114C80.2617 122.262 80.2036 122.403 80.1002 122.507C79.9966 122.611 79.8561 122.67 79.7097 122.67H78.2521C78.0876 123.321 77.6426 123.863 77.0387 124.149C76.4349 124.436 75.7355 124.436 75.1316 124.149C74.5278 123.863 74.0826 123.321 73.9181 122.67H68.0853C67.9221 123.321 67.4775 123.865 66.8734 124.152C66.2696 124.439 65.5695 124.439 64.9655 124.152C64.3617 123.865 63.9171 123.321 63.7538 122.67H62.7159C62.4109 122.67 62.1639 122.421 62.1639 122.114V120.024H67.6683V118.913C67.6679 118.324 67.4947 117.748 67.1708 117.257C66.8467 116.767 66.3861 116.383 65.8465 116.154V115.126C65.8442 114.334 65.5297 113.575 64.9718 113.016C64.4141 112.456 63.6585 112.142 62.8705 112.142H75.1355C75.3337 112.141 75.517 112.247 75.616 112.42L78.2579 117.039L79.9556 117.903C80.1422 117.996 80.2608 118.187 80.2619 118.397L80.2617 118.397ZM67.0607 122.114C67.0628 121.811 66.9451 121.52 66.7332 121.304C66.5215 121.089 66.233 120.967 65.9316 120.965C65.6302 120.964 65.3406 121.083 65.1269 121.296C64.9129 121.51 64.7922 121.8 64.7916 122.103C64.7907 122.407 64.9099 122.697 65.1229 122.912C65.3358 123.127 65.6248 123.247 65.9261 123.247C66.2254 123.247 66.5122 123.127 66.7246 122.915C66.9371 122.703 67.0578 122.415 67.0607 122.114ZM77.2192 122.114C77.2215 121.811 77.1034 121.519 76.8913 121.304C76.679 121.088 76.39 120.966 76.0884 120.965C75.7866 120.964 75.497 121.084 75.2834 121.298C75.0699 121.513 74.9498 121.804 74.95 122.107C74.9502 122.411 75.0707 122.701 75.2847 122.915C75.4987 123.129 75.7885 123.249 76.0901 123.247C76.3885 123.245 76.6739 123.125 76.8852 122.913C77.0964 122.701 77.2165 122.415 77.2192 122.114ZM66.5636 118.913C66.5644 118.414 66.3675 117.935 66.0162 117.582C65.6651 117.228 65.1887 117.03 64.6921 117.031H58.834C58.834 117.53 59.0314 118.009 59.3822 118.362C59.7333 118.715 60.2093 118.913 60.7057 118.913L66.5636 118.913Z" fill="white"/>
<rect x="91.8867" y="112.724" width="51.1482" height="8" rx="4" fill="#E5E7EB"/>
<g filter="url(#filter5_d_400_880)">
<rect x="267" y="105.156" width="62.1915" height="25.615" rx="12.8075" fill="#2FB5C0"/>
<rect x="267.291" y="105.447" width="61.6093" height="25.0329" rx="12.5164" stroke="#2FB5C0" stroke-width="0.582161"/>
<rect x="277.429" y="115.635" width="22.7042" height="4.65728" rx="2.32864" fill="#97DAE0"/>
<path d="M318.761 117.963C318.761 114.11 315.629 110.978 311.775 110.978C307.922 110.978 304.789 114.11 304.789 117.963C304.789 121.817 307.922 124.949 311.775 124.949C315.629 124.949 318.761 121.817 318.761 117.963ZM310.114 121.331C309.878 121.096 309.878 120.728 310.114 120.508L312.658 117.964L310.128 115.434C310.011 115.316 309.952 115.169 309.952 115.022C309.952 114.875 310.011 114.728 310.128 114.61C310.364 114.375 310.731 114.375 310.952 114.61L313.893 117.552C314.129 117.787 314.129 118.155 313.893 118.375L310.937 121.332C310.717 121.552 310.349 121.552 310.114 121.332L310.114 121.331Z" fill="white"/>
</g>
<rect x="168.026" y="103.991" width="69.1663" height="27.9437" rx="13.9718" fill="#F3F4F6"/>
<line x1="196.261" y1="114.47" x2="196.261" y2="121.456" stroke="#E5E7EB" stroke-width="0.582161"/>
<g clip-path="url(#clip4_400_880)">
<path d="M210.846 117.106C210.846 114.204 208.493 111.851 205.59 111.851C202.687 111.851 200.334 114.204 200.334 117.106C200.334 120.009 202.687 122.362 205.59 122.362" stroke="#6B7280" stroke-width="0.95597" stroke-linecap="round"/>
<path d="M206.718 114.159V119.977H205.487V115.327H205.453L204.121 116.162V115.071L205.561 114.159H206.718Z" fill="#6B7280"/>
<path d="M213.409 121.45C213.305 120.633 212.88 119.892 212.228 119.388C211.577 118.884 210.752 118.66 209.935 118.765C209.118 118.869 208.377 119.294 207.873 119.946C207.369 120.597 207.145 121.422 207.25 122.239C207.354 123.055 207.779 123.797 208.43 124.301C209.082 124.805 209.907 125.029 210.723 124.924C211.264 124.855 211.777 124.645 212.211 124.315C212.644 123.984 212.983 123.546 213.194 123.043C213.404 122.54 213.478 121.991 213.409 121.45L213.409 121.45ZM210.64 121.844C210.64 121.927 210.608 122.006 210.55 122.065L209.618 122.996C209.56 123.055 209.481 123.088 209.398 123.088C209.315 123.088 209.236 123.055 209.177 122.996C209.119 122.938 209.086 122.859 209.086 122.776C209.086 122.693 209.119 122.614 209.177 122.555L210.019 121.717V120.292C210.019 120.181 210.078 120.078 210.174 120.023C210.27 119.968 210.388 119.968 210.485 120.023C210.581 120.078 210.64 120.181 210.64 120.292L210.64 121.844Z" fill="#6B7280"/>
</g>
<line x1="217.219" y1="114.47" x2="217.219" y2="121.456" stroke="#E5E7EB" stroke-width="0.582161"/>
<g clip-path="url(#clip5_400_880)">
<path d="M226.824 119.568C226.824 118.368 226.146 117.635 224.467 117.075C223.268 116.648 222.773 116.368 222.773 115.928C222.773 115.554 223.07 115.181 223.987 115.181C224.532 115.181 224.971 115.269 225.319 115.373C225.504 115.429 225.706 115.41 225.876 115.32C226.046 115.231 226.17 115.08 226.218 114.902L226.226 114.874C226.286 114.654 226.25 114.421 226.126 114.226C226.002 114.031 225.801 113.891 225.567 113.837C225.252 113.765 224.882 113.713 224.447 113.691V112.892C224.447 112.692 224.275 112.53 224.064 112.53H223.297C223.085 112.53 222.914 112.692 222.914 112.892V113.801C221.458 114.101 220.614 115.004 220.614 116.154C220.614 117.448 221.644 118.115 223.155 118.595C224.199 118.929 224.65 119.249 224.65 119.755C224.65 120.289 224.1 120.582 223.296 120.582C222.719 120.582 222.176 120.471 221.706 120.313C221.508 120.247 221.291 120.262 221.106 120.355C220.922 120.448 220.787 120.61 220.735 120.801L220.731 120.813C220.606 121.275 220.89 121.748 221.373 121.884C221.831 122.014 222.367 122.105 222.914 122.128V123.034C222.914 123.235 223.086 123.397 223.297 123.397H224.064C224.276 123.397 224.447 123.235 224.447 123.034V122.005C225.98 121.704 226.824 120.72 226.824 119.569L226.824 119.568Z" fill="#6B7280"/>
</g>
<defs>
<filter id="filter0_d_400_880" x="0.610296" y="0.93894" width="316.779" height="63.7794" filterUnits="userSpaceOnUse" color-interpolation-filters="sRGB">
<feFlood flood-opacity="0" result="BackgroundImageFix"/>
<feColorMatrix in="SourceAlpha" type="matrix" values="0 0 0 0 0 0 0 0 0 0 0 0 0 0 0 0 0 0 127 0" result="hardAlpha"/>
<feOffset dy="2.32864"/>
<feGaussianBlur stdDeviation="6.69485"/>
<feComposite in2="hardAlpha" operator="out"/>
<feColorMatrix type="matrix" values="0 0 0 0 0.888344 0 0 0 0 0.888344 0 0 0 0 0.888344 0 0 0 0.42 0"/>
<feBlend mode="normal" in2="BackgroundImageFix" result="effect1_dropShadow_400_880"/>
<feBlend mode="normal" in="SourceGraphic" in2="effect1_dropShadow_400_880" result="shape"/>
</filter>
<filter id="filter1_d_400_880" x="229.836" y="17.4012" width="64.5201" height="27.9437" filterUnits="userSpaceOnUse" color-interpolation-filters="sRGB">
<feFlood flood-opacity="0" result="BackgroundImageFix"/>
<feColorMatrix in="SourceAlpha" type="matrix" values="0 0 0 0 0 0 0 0 0 0 0 0 0 0 0 0 0 0 127 0" result="hardAlpha"/>
<feOffset dy="0.582161"/>
<feGaussianBlur stdDeviation="0.582161"/>
<feColorMatrix type="matrix" values="0 0 0 0 0.0627451 0 0 0 0 0.0941176 0 0 0 0 0.156863 0 0 0 0.05 0"/>
<feBlend mode="normal" in2="BackgroundImageFix" result="effect1_dropShadow_400_880"/>
<feBlend mode="normal" in="SourceGraphic" in2="effect1_dropShadow_400_880" result="shape"/>
</filter>
<filter id="filter2_d_400_880" x="18.6103" y="44.1281" width="316.779" height="63.9686" filterUnits="userSpaceOnUse" color-interpolation-filters="sRGB">
<feFlood flood-opacity="0" result="BackgroundImageFix"/>
<feColorMatrix in="SourceAlpha" type="matrix" values="0 0 0 0 0 0 0 0 0 0 0 0 0 0 0 0 0 0 127 0" result="hardAlpha"/>
<feOffset dy="2.32864"/>
<feGaussianBlur stdDeviation="6.69485"/>
<feComposite in2="hardAlpha" operator="out"/>
<feColorMatrix type="matrix" values="0 0 0 0 0.888344 0 0 0 0 0.888344 0 0 0 0 0.888344 0 0 0 0.42 0"/>
<feBlend mode="normal" in2="BackgroundImageFix" result="effect1_dropShadow_400_880"/>
<feBlend mode="normal" in="SourceGraphic" in2="effect1_dropShadow_400_880" result="shape"/>
</filter>
<filter id="filter3_d_400_880" x="247.836" y="60.6766" width="64.5201" height="27.9437" filterUnits="userSpaceOnUse" color-interpolation-filters="sRGB">
<feFlood flood-opacity="0" result="BackgroundImageFix"/>
<feColorMatrix in="SourceAlpha" type="matrix" values="0 0 0 0 0 0 0 0 0 0 0 0 0 0 0 0 0 0 127 0" result="hardAlpha"/>
<feOffset dy="0.582161"/>
<feGaussianBlur stdDeviation="0.582161"/>
<feColorMatrix type="matrix" values="0 0 0 0 0.0627451 0 0 0 0 0.0941176 0 0 0 0 0.156863 0 0 0 0.05 0"/>
<feBlend mode="normal" in2="BackgroundImageFix" result="effect1_dropShadow_400_880"/>
<feBlend mode="normal" in="SourceGraphic" in2="effect1_dropShadow_400_880" result="shape"/>
</filter>
<filter id="filter4_d_400_880" x="36.6103" y="87.9389" width="316.779" height="63.9686" filterUnits="userSpaceOnUse" color-interpolation-filters="sRGB">
<feFlood flood-opacity="0" result="BackgroundImageFix"/>
<feColorMatrix in="SourceAlpha" type="matrix" values="0 0 0 0 0 0 0 0 0 0 0 0 0 0 0 0 0 0 127 0" result="hardAlpha"/>
<feOffset dy="2.32864"/>
<feGaussianBlur stdDeviation="6.69485"/>
<feComposite in2="hardAlpha" operator="out"/>
<feColorMatrix type="matrix" values="0 0 0 0 0.888344 0 0 0 0 0.888344 0 0 0 0 0.888344 0 0 0 0.42 0"/>
<feBlend mode="normal" in2="BackgroundImageFix" result="effect1_dropShadow_400_880"/>
<feBlend mode="normal" in="SourceGraphic" in2="effect1_dropShadow_400_880" result="shape"/>
</filter>
<filter id="filter5_d_400_880" x="265.836" y="104.574" width="64.5201" height="27.9437" filterUnits="userSpaceOnUse" color-interpolation-filters="sRGB">
<feFlood flood-opacity="0" result="BackgroundImageFix"/>
<feColorMatrix in="SourceAlpha" type="matrix" values="0 0 0 0 0 0 0 0 0 0 0 0 0 0 0 0 0 0 127 0" result="hardAlpha"/>
<feOffset dy="0.582161"/>
<feGaussianBlur stdDeviation="0.582161"/>
<feColorMatrix type="matrix" values="0 0 0 0 0.0627451 0 0 0 0 0.0941176 0 0 0 0 0.156863 0 0 0 0.05 0"/>
<feBlend mode="normal" in2="BackgroundImageFix" result="effect1_dropShadow_400_880"/>
<feBlend mode="normal" in="SourceGraphic" in2="effect1_dropShadow_400_880" result="shape"/>
</filter>
<clipPath id="clip0_400_880">
<rect width="13.9718" height="13.9718" fill="white" transform="translate(155.326 23.8048)"/>
</clipPath>
<clipPath id="clip1_400_880">
<rect width="21.734" height="13.9718" fill="white" transform="translate(176.284 23.8049)"/>
</clipPath>
<clipPath id="clip2_400_880">
<rect width="13.9718" height="13.9718" fill="white" transform="translate(176.813 67.0804)"/>
</clipPath>
<clipPath id="clip3_400_880">
<rect width="15.1362" height="13.9718" fill="white" transform="translate(197.771 67.0804)"/>
</clipPath>
<clipPath id="clip4_400_880">
<rect width="13.9718" height="13.9718" fill="white" transform="translate(199.463 110.977)"/>
</clipPath>
<clipPath id="clip5_400_880">
<rect width="6.40376" height="13.9718" fill="white" transform="translate(220.421 110.977)"/>
</clipPath>
</defs>
</svg>
