<svg width="222" height="170" viewBox="0 0 222 170" fill="none" xmlns="http://www.w3.org/2000/svg">
<g clip-path="url(#clip0_248_1374)">
<g filter="url(#filter0_d_248_1374)">
<rect x="5" y="24" width="155" height="174" rx="10" fill="white"/>
<rect x="5.5" y="24.5" width="154" height="173" rx="9.5" stroke="#F3F4F6"/>
</g>
<circle cx="82" cy="24" r="17" fill="#DAD5E9"/>
<path d="M85.4254 26.8931C85.2151 26.8196 84.9839 26.8333 84.7838 26.9312C84.5836 27.0291 84.4308 27.2032 84.3595 27.4143C84.1287 28.0699 83.6358 28.5996 82.9987 28.8771C82.3616 29.1546 81.6379 29.1546 81.0008 28.8771C80.3637 28.5996 79.8708 28.0699 79.64 27.4143C79.5427 27.1307 79.3017 26.9204 79.0076 26.8626C78.7133 26.8049 78.4106 26.9085 78.2135 27.1344C78.0163 27.3603 77.9546 27.6742 78.0517 27.9579C78.4355 29.057 79.2599 29.9462 80.3267 30.4119C81.3935 30.8775 82.6062 30.8775 83.673 30.4119C84.7397 29.9462 85.5642 29.057 85.948 27.9579C86.0201 27.7475 86.0055 27.5169 85.9076 27.3173C85.8095 27.1174 85.6361 26.965 85.4256 26.8931L85.4254 26.8931Z" fill="#402A83"/>
<path d="M91.7865 23.6219V23.2115C91.7865 20.616 90.7554 18.1268 88.9201 16.2918C87.085 14.4565 84.5958 13.4254 82.0004 13.4254C79.405 13.4254 76.9157 14.4565 75.0807 16.2918C73.2454 18.1269 72.2142 20.6161 72.2142 23.2115V23.6219C71.572 23.8032 71.0064 24.1884 70.6028 24.7198C70.1991 25.2512 69.9796 25.8996 69.9775 26.5668V27.6851C69.9773 28.4997 70.3005 29.281 70.876 29.8575C71.4514 30.4342 72.2323 30.7588 73.0467 30.76C73.8614 30.7615 74.6432 30.4395 75.2206 29.8649C76.0469 31.5726 77.4871 32.9056 79.2535 33.5976C81.0198 34.2896 82.9823 34.2896 84.7488 33.5976C86.5151 32.9056 87.9554 31.5726 88.7817 29.8649C89.359 30.4398 90.1407 30.7619 90.9553 30.7607C91.77 30.7592 92.5506 30.4346 93.1261 29.8579C93.7013 29.2813 94.0243 28.4998 94.0237 27.6852V26.5668C94.0216 25.8996 93.8021 25.2512 93.3984 24.7198C92.9948 24.1884 92.4292 23.8032 91.787 23.622L91.7865 23.6219ZM82.0002 15.1027C84.1501 15.1052 86.211 15.9601 87.7314 17.4803C89.2517 19.0005 90.1065 21.0615 90.109 23.2115V23.6219C89.7558 23.7213 89.4236 23.8835 89.1281 24.1007C88.4418 22.11 86.9546 20.4971 85.0259 19.6521C83.0975 18.8072 80.9033 18.8072 78.9749 19.6521C77.0462 20.4971 75.5591 22.11 74.8728 24.1007C74.5773 23.8835 74.2451 23.7213 73.8919 23.6219V23.2115C73.8943 21.0617 74.7493 19.0007 76.2695 17.4803C77.7897 15.96 79.8507 15.1052 82.0007 15.1027H82.0002ZM74.4508 27.6849C74.4508 28.1844 74.1844 28.646 73.7519 28.8957C73.3192 29.1455 72.7863 29.1455 72.3538 28.8957C71.9213 28.646 71.6549 28.1845 71.6549 27.6849V26.5666C71.6549 26.0671 71.9213 25.6055 72.3538 25.3559C72.7863 25.106 73.3192 25.106 73.7519 25.3559C74.1844 25.6055 74.4508 26.0671 74.4508 26.5666V27.6849ZM82.0002 32.4383C80.443 32.4383 78.9495 31.8196 77.8483 30.7185C76.7471 29.6173 76.1285 28.1238 76.1285 26.5666C76.1285 25.0094 76.7471 23.5159 77.8483 22.4147C78.9495 21.3136 80.443 20.6949 82.0002 20.6949C83.5574 20.6949 85.0509 21.3136 86.1521 22.4147C87.2532 23.5159 87.8719 25.0094 87.8719 26.5666C87.87 28.1234 87.251 29.6157 86.1502 30.7166C85.0493 31.8174 83.557 32.4365 82.0002 32.4383ZM92.3454 27.6849C92.3454 28.1844 92.079 28.646 91.6465 28.8957C91.2139 29.1455 90.6811 29.1455 90.2484 28.8957C89.8158 28.646 89.5494 28.1845 89.5494 27.6849V26.5666C89.5494 26.0671 89.8158 25.6055 90.2484 25.3559C90.6811 25.106 91.2139 25.106 91.6465 25.3559C92.079 25.6055 92.3454 26.0671 92.3454 26.5666V27.6849Z" fill="#402A83"/>
<rect x="15" y="66" width="135" height="122" rx="4" fill="#F3F4F6"/>
<g filter="url(#filter1_d_248_1374)">
<rect x="21" y="135" width="123" height="28" rx="4" fill="white"/>
</g>
<path fill-rule="evenodd" clip-rule="evenodd" d="M33.1595 150.128L36.2102 147.077C36.4068 146.88 36.7265 146.88 36.9231 147.077C37.1197 147.274 37.1197 147.593 36.9231 147.79L33.8724 150.841L35.3181 154.986C35.5307 155.595 36.1065 156.003 36.7517 156C37.3964 155.997 37.969 155.586 38.1773 154.976C39.2516 151.825 40.9791 146.759 41.9191 144.001C42.1052 143.455 41.9644 142.851 41.5572 142.443C41.1493 142.036 40.5455 141.895 39.9997 142.081C37.2416 143.021 32.1747 144.749 29.0244 145.823C28.4139 146.031 28.0026 146.604 28 147.248C27.9975 147.894 28.4047 148.469 29.0142 148.682L33.1595 150.128Z" fill="#6B7280"/>
<circle cx="34.5" cy="85.5" r="11.5" fill="#6B7280"/>
<path d="M27.4914 89V81.7273H28.5887V85.2003H28.6775L31.7279 81.7273H33.1093L30.176 85.0014L33.1199 89H31.7989L29.4481 85.7507L28.5887 86.7379V89H27.4914ZM34.132 81.7273H35.4637L37.779 87.3807H37.8643L40.1796 81.7273H41.5113V89H40.4672V83.7372H40.3998L38.2549 88.9893H37.3884L35.2435 83.7337H35.176V89H34.132V81.7273Z" fill="white"/>
<rect x="52" y="81.5" width="33" height="8" rx="4" fill="#D1D5DB"/>
<rect x="91" y="81.5" width="16" height="8" rx="4" fill="#D1D5DB"/>
<rect width="61" height="8" rx="4" transform="matrix(-1 0 0 1 113 109.5)" fill="#D1D5DB"/>
<rect width="26" height="8" rx="4" transform="matrix(-1 0 0 1 113 119.5)" fill="#D1D5DB"/>
<circle cx="130.5" cy="118.5" r="11.5" fill="#6B7280"/>
<path d="M125.147 122V114.727H127.739C128.302 114.727 128.77 114.824 129.142 115.018C129.516 115.213 129.795 115.481 129.98 115.825C130.164 116.165 130.257 116.56 130.257 117.007C130.257 117.452 130.163 117.844 129.976 118.183C129.792 118.519 129.512 118.78 129.138 118.967C128.766 119.154 128.299 119.248 127.735 119.248H125.772V118.303H127.636C127.991 118.303 128.28 118.252 128.502 118.151C128.727 118.049 128.892 117.901 128.996 117.707C129.1 117.513 129.152 117.279 129.152 117.007C129.152 116.732 129.099 116.495 128.993 116.293C128.888 116.092 128.724 115.938 128.499 115.832C128.276 115.723 127.984 115.668 127.622 115.668H126.244V122H125.147ZM128.737 118.719L130.534 122H129.284L127.522 118.719H128.737ZM131.592 122V114.727H136.102V115.672H132.689V117.888H135.779V118.829H132.689V122H131.592Z" fill="white"/>
<path d="M36.6898 47.6H38.1298L41.2738 56H39.8458L39.1738 54.188H35.6578L34.9858 56H33.5458L36.6898 47.6ZM38.6938 52.928L37.4098 49.496L36.1258 52.928H38.6938ZM47.139 54.836C46.859 55.236 46.495 55.556 46.047 55.796C45.599 56.036 45.111 56.156 44.583 56.156C44.151 56.156 43.743 56.076 43.359 55.916C42.975 55.748 42.639 55.52 42.351 55.232C42.071 54.944 41.847 54.608 41.679 54.224C41.519 53.84 41.439 53.432 41.439 53C41.439 52.568 41.519 52.164 41.679 51.788C41.847 51.404 42.071 51.068 42.351 50.78C42.639 50.492 42.975 50.268 43.359 50.108C43.743 49.94 44.151 49.856 44.583 49.856C45.111 49.856 45.595 49.976 46.035 50.216C46.475 50.448 46.839 50.764 47.127 51.164L46.095 51.86C45.903 51.628 45.679 51.448 45.423 51.32C45.167 51.184 44.887 51.116 44.583 51.116C44.319 51.116 44.071 51.168 43.839 51.272C43.615 51.368 43.419 51.5 43.251 51.668C43.083 51.836 42.947 52.036 42.843 52.268C42.747 52.492 42.699 52.736 42.699 53C42.699 53.264 42.747 53.512 42.843 53.744C42.947 53.968 43.083 54.168 43.251 54.344C43.419 54.512 43.615 54.648 43.839 54.752C44.071 54.848 44.319 54.896 44.583 54.896C44.887 54.896 45.167 54.828 45.423 54.692C45.687 54.556 45.911 54.376 46.095 54.152L47.139 54.836ZM53.5257 54.836C53.2457 55.236 52.8817 55.556 52.4337 55.796C51.9857 56.036 51.4977 56.156 50.9697 56.156C50.5377 56.156 50.1297 56.076 49.7457 55.916C49.3617 55.748 49.0257 55.52 48.7377 55.232C48.4577 54.944 48.2337 54.608 48.0657 54.224C47.9057 53.84 47.8257 53.432 47.8257 53C47.8257 52.568 47.9057 52.164 48.0657 51.788C48.2337 51.404 48.4577 51.068 48.7377 50.78C49.0257 50.492 49.3617 50.268 49.7457 50.108C50.1297 49.94 50.5377 49.856 50.9697 49.856C51.4977 49.856 51.9817 49.976 52.4217 50.216C52.8617 50.448 53.2257 50.764 53.5137 51.164L52.4817 51.86C52.2897 51.628 52.0657 51.448 51.8097 51.32C51.5537 51.184 51.2737 51.116 50.9697 51.116C50.7057 51.116 50.4577 51.168 50.2257 51.272C50.0017 51.368 49.8057 51.5 49.6377 51.668C49.4697 51.836 49.3337 52.036 49.2297 52.268C49.1337 52.492 49.0857 52.736 49.0857 53C49.0857 53.264 49.1337 53.512 49.2297 53.744C49.3337 53.968 49.4697 54.168 49.6377 54.344C49.8057 54.512 50.0017 54.648 50.2257 54.752C50.4577 54.848 50.7057 54.896 50.9697 54.896C51.2737 54.896 51.5537 54.828 51.8097 54.692C52.0737 54.556 52.2977 54.376 52.4817 54.152L53.5257 54.836ZM57.3564 56.156C56.9244 56.156 56.5164 56.076 56.1324 55.916C55.7484 55.748 55.4124 55.52 55.1244 55.232C54.8444 54.944 54.6204 54.608 54.4524 54.224C54.2924 53.84 54.2124 53.432 54.2124 53C54.2124 52.568 54.2924 52.164 54.4524 51.788C54.6204 51.404 54.8444 51.068 55.1244 50.78C55.4124 50.492 55.7484 50.268 56.1324 50.108C56.5164 49.94 56.9244 49.856 57.3564 49.856C57.7884 49.856 58.1964 49.94 58.5804 50.108C58.9644 50.268 59.2964 50.492 59.5764 50.78C59.8644 51.068 60.0884 51.404 60.2484 51.788C60.4164 52.164 60.5004 52.568 60.5004 53C60.5004 53.432 60.4164 53.84 60.2484 54.224C60.0884 54.608 59.8644 54.944 59.5764 55.232C59.2964 55.52 58.9644 55.748 58.5804 55.916C58.1964 56.076 57.7884 56.156 57.3564 56.156ZM57.3564 54.896C57.6204 54.896 57.8644 54.848 58.0884 54.752C58.3204 54.648 58.5204 54.512 58.6884 54.344C58.8564 54.168 58.9884 53.968 59.0844 53.744C59.1884 53.512 59.2404 53.264 59.2404 53C59.2404 52.736 59.1884 52.492 59.0844 52.268C58.9884 52.036 58.8564 51.836 58.6884 51.668C58.5204 51.5 58.3204 51.368 58.0884 51.272C57.8644 51.168 57.6204 51.116 57.3564 51.116C57.0924 51.116 56.8444 51.168 56.6124 51.272C56.3884 51.368 56.1884 51.5 56.0124 51.668C55.8444 51.836 55.7084 52.036 55.6044 52.268C55.5084 52.492 55.4604 52.736 55.4604 53C55.4604 53.264 55.5084 53.512 55.6044 53.744C55.7084 53.968 55.8444 54.168 56.0124 54.344C56.1884 54.512 56.3884 54.648 56.6124 54.752C56.8444 54.848 57.0924 54.896 57.3564 54.896ZM61.7166 50H62.9766V53.588C62.9766 53.876 63.0206 54.112 63.1086 54.296C63.2046 54.48 63.3206 54.628 63.4566 54.74C63.5926 54.844 63.7446 54.92 63.9126 54.968C64.0886 55.008 64.2526 55.028 64.4046 55.028C64.5646 55.028 64.7246 55.004 64.8846 54.956C65.0526 54.9 65.2006 54.808 65.3286 54.68C65.4646 54.552 65.5766 54.38 65.6646 54.164C65.7526 53.948 65.7966 53.676 65.7966 53.348V50H67.0566V56H65.7966V55.4C65.5886 55.608 65.3446 55.788 65.0646 55.94C64.7846 56.084 64.4726 56.156 64.1286 56.156C63.9126 56.156 63.6646 56.12 63.3846 56.048C63.1046 55.984 62.8406 55.856 62.5926 55.664C62.3526 55.472 62.1446 55.212 61.9686 54.884C61.8006 54.548 61.7166 54.116 61.7166 53.588V50ZM73.7232 56H72.4632V52.412C72.4632 52.124 72.4152 51.888 72.3192 51.704C72.2312 51.52 72.1152 51.372 71.9712 51.26C71.8352 51.148 71.6832 51.072 71.5152 51.032C71.3472 50.984 71.1832 50.96 71.0232 50.96C70.8712 50.96 70.7112 50.988 70.5432 51.044C70.3832 51.092 70.2352 51.18 70.0992 51.308C69.9632 51.436 69.8512 51.608 69.7632 51.824C69.6832 52.04 69.6432 52.312 69.6432 52.64V56H68.3832V50H69.6432V50.6C69.8432 50.392 70.0832 50.216 70.3632 50.072C70.6432 49.92 70.9592 49.844 71.3112 49.844C71.5272 49.844 71.7752 49.88 72.0552 49.952C72.3352 50.016 72.5952 50.144 72.8352 50.336C73.0832 50.528 73.2912 50.792 73.4592 51.128C73.6352 51.456 73.7232 51.884 73.7232 52.412V56ZM78.17 56C78.09 56.008 77.986 56.012 77.858 56.012C77.738 56.02 77.61 56.024 77.474 56.024C77.338 56.032 77.21 56.036 77.09 56.036C76.97 56.036 76.874 56.036 76.802 56.036C76.578 56.028 76.362 55.996 76.154 55.94C75.946 55.876 75.762 55.772 75.602 55.628C75.45 55.484 75.326 55.288 75.23 55.04C75.142 54.792 75.098 54.484 75.098 54.116V48.308L76.358 48.02V50H77.75V51.14H76.358V54.02C76.358 54.356 76.442 54.588 76.61 54.716C76.778 54.836 77.01 54.896 77.306 54.896C77.402 54.896 77.502 54.892 77.606 54.884C77.71 54.868 77.818 54.852 77.93 54.836L78.17 56ZM86.7757 52.04L89.4037 47.6L89.4397 47.624V47.6H90.7717V56H89.4397V50.012L86.9437 54.224H86.6077L84.0997 50V56.012H82.7677V47.6H84.0997V47.624L84.1477 47.6L86.7757 52.04ZM97.6323 55.988H96.3723V55.58C96.1563 55.756 95.8923 55.896 95.5803 56C95.2763 56.104 94.9283 56.156 94.5363 56.156C94.1043 56.156 93.7283 56.112 93.4083 56.024C93.0963 55.936 92.8403 55.812 92.6403 55.652C92.4403 55.484 92.2923 55.284 92.1963 55.052C92.1003 54.812 92.0522 54.548 92.0522 54.26C92.0443 53.708 92.2243 53.272 92.5923 52.952C92.9603 52.624 93.5603 52.46 94.3923 52.46C94.8403 52.46 95.2403 52.452 95.5923 52.436C95.9443 52.42 96.2043 52.388 96.3723 52.34V52.016C96.3723 51.696 96.2403 51.432 95.9763 51.224C95.7203 51.016 95.3483 50.912 94.8603 50.912C94.4763 50.912 94.1123 50.992 93.7683 51.152C93.4323 51.304 93.1363 51.492 92.8803 51.716L92.3283 50.816C92.6003 50.552 92.9643 50.324 93.4202 50.132C93.8843 49.932 94.4163 49.832 95.0163 49.832C95.4003 49.832 95.7483 49.88 96.0603 49.976C96.3803 50.064 96.6563 50.196 96.8883 50.372C97.1203 50.548 97.3003 50.764 97.4283 51.02C97.5643 51.276 97.6323 51.568 97.6323 51.896V55.988ZM94.8723 55.16C95.3043 55.16 95.6603 55.064 95.9403 54.872C96.2283 54.68 96.3723 54.416 96.3723 54.08V53.156C96.2523 53.22 96.0523 53.268 95.7723 53.3C95.4923 53.332 95.1603 53.348 94.7763 53.348C94.2723 53.348 93.9003 53.416 93.6603 53.552C93.4203 53.68 93.3003 53.912 93.3003 54.248C93.3003 54.56 93.4403 54.792 93.7203 54.944C94.0083 55.088 94.3923 55.16 94.8723 55.16ZM104.321 56H103.061V52.412C103.061 52.124 103.013 51.888 102.917 51.704C102.829 51.52 102.713 51.372 102.569 51.26C102.433 51.148 102.281 51.072 102.113 51.032C101.945 50.984 101.781 50.96 101.621 50.96C101.469 50.96 101.309 50.988 101.141 51.044C100.981 51.092 100.833 51.18 100.697 51.308C100.561 51.436 100.449 51.608 100.361 51.824C100.281 52.04 100.241 52.312 100.241 52.64V56H98.9808V50H100.241V50.6C100.441 50.392 100.681 50.216 100.961 50.072C101.241 49.92 101.557 49.844 101.909 49.844C102.125 49.844 102.373 49.88 102.653 49.952C102.933 50.016 103.193 50.144 103.433 50.336C103.681 50.528 103.889 50.792 104.057 51.128C104.233 51.456 104.321 51.884 104.321 52.412V56ZM110.921 55.988H109.661V55.58C109.445 55.756 109.181 55.896 108.869 56C108.565 56.104 108.217 56.156 107.825 56.156C107.393 56.156 107.017 56.112 106.697 56.024C106.385 55.936 106.129 55.812 105.929 55.652C105.729 55.484 105.581 55.284 105.485 55.052C105.389 54.812 105.341 54.548 105.341 54.26C105.333 53.708 105.513 53.272 105.881 52.952C106.249 52.624 106.849 52.46 107.681 52.46C108.129 52.46 108.529 52.452 108.881 52.436C109.233 52.42 109.493 52.388 109.661 52.34V52.016C109.661 51.696 109.529 51.432 109.265 51.224C109.009 51.016 108.637 50.912 108.149 50.912C107.765 50.912 107.401 50.992 107.057 51.152C106.721 51.304 106.425 51.492 106.169 51.716L105.617 50.816C105.889 50.552 106.253 50.324 106.709 50.132C107.173 49.932 107.705 49.832 108.305 49.832C108.689 49.832 109.037 49.88 109.349 49.976C109.669 50.064 109.945 50.196 110.177 50.372C110.409 50.548 110.589 50.764 110.717 51.02C110.853 51.276 110.921 51.568 110.921 51.896V55.988ZM108.161 55.16C108.593 55.16 108.949 55.064 109.229 54.872C109.517 54.68 109.661 54.416 109.661 54.08V53.156C109.541 53.22 109.341 53.268 109.061 53.3C108.781 53.332 108.449 53.348 108.065 53.348C107.561 53.348 107.189 53.416 106.949 53.552C106.709 53.68 106.589 53.912 106.589 54.248C106.589 54.56 106.729 54.792 107.009 54.944C107.297 55.088 107.681 55.16 108.161 55.16ZM117.015 55.196C116.799 55.476 116.531 55.708 116.211 55.892C115.899 56.068 115.527 56.156 115.095 56.156C114.639 56.156 114.227 56.076 113.859 55.916C113.491 55.756 113.179 55.536 112.923 55.256C112.667 54.968 112.467 54.632 112.323 54.248C112.187 53.864 112.119 53.452 112.119 53.012C112.119 52.564 112.187 52.148 112.323 51.764C112.467 51.38 112.667 51.048 112.923 50.768C113.179 50.48 113.491 50.256 113.859 50.096C114.227 49.936 114.639 49.856 115.095 49.856C115.527 49.856 115.899 49.948 116.211 50.132C116.531 50.308 116.799 50.54 117.015 50.828V50H118.275V55.7C118.275 56.132 118.191 56.524 118.023 56.876C117.863 57.228 117.639 57.528 117.351 57.776C117.063 58.024 116.719 58.216 116.319 58.352C115.927 58.488 115.499 58.556 115.035 58.556C114.683 58.556 114.347 58.52 114.027 58.448C113.715 58.376 113.427 58.276 113.163 58.148C112.899 58.028 112.667 57.876 112.467 57.692C112.267 57.516 112.111 57.32 111.999 57.104L113.079 56.48C113.199 56.72 113.427 56.932 113.763 57.116C114.099 57.3 114.535 57.392 115.071 57.392C115.351 57.392 115.607 57.352 115.839 57.272C116.079 57.192 116.287 57.076 116.463 56.924C116.639 56.78 116.775 56.604 116.871 56.396C116.967 56.188 117.015 55.956 117.015 55.7V55.196ZM115.119 54.98C115.391 54.98 115.643 54.932 115.875 54.836C116.107 54.732 116.307 54.592 116.475 54.416C116.643 54.24 116.775 54.032 116.871 53.792C116.967 53.544 117.015 53.28 117.015 53C117.015 52.72 116.967 52.46 116.871 52.22C116.775 51.98 116.643 51.772 116.475 51.596C116.307 51.42 116.107 51.284 115.875 51.188C115.643 51.092 115.391 51.044 115.119 51.044C114.855 51.044 114.615 51.096 114.399 51.2C114.183 51.304 113.995 51.448 113.835 51.632C113.683 51.808 113.563 52.016 113.475 52.256C113.395 52.488 113.355 52.74 113.355 53.012C113.355 53.284 113.395 53.54 113.475 53.78C113.563 54.012 113.683 54.22 113.835 54.404C113.995 54.58 114.183 54.72 114.399 54.824C114.615 54.928 114.855 54.98 115.119 54.98ZM122.63 49.844C123.078 49.844 123.486 49.928 123.854 50.096C124.222 50.264 124.538 50.492 124.802 50.78C125.066 51.068 125.27 51.404 125.414 51.788C125.566 52.172 125.642 52.58 125.642 53.012C125.642 53.1 125.638 53.18 125.63 53.252C125.622 53.316 125.61 53.388 125.594 53.468H120.746C120.834 53.924 121.054 54.304 121.406 54.608C121.758 54.904 122.206 55.052 122.75 55.052C123.086 55.052 123.402 54.98 123.698 54.836C123.994 54.692 124.214 54.504 124.358 54.272L125.342 54.848C125.07 55.256 124.71 55.576 124.262 55.808C123.822 56.04 123.31 56.156 122.726 56.156C122.238 56.156 121.794 56.076 121.394 55.916C120.994 55.756 120.654 55.536 120.374 55.256C120.094 54.968 119.874 54.632 119.714 54.248C119.562 53.864 119.486 53.448 119.486 53C119.486 52.552 119.562 52.136 119.714 51.752C119.866 51.368 120.078 51.036 120.35 50.756C120.63 50.476 120.962 50.256 121.346 50.096C121.738 49.928 122.166 49.844 122.63 49.844ZM124.442 52.472C124.378 51.992 124.182 51.62 123.854 51.356C123.534 51.084 123.122 50.948 122.618 50.948C122.354 50.948 122.106 50.992 121.874 51.08C121.65 51.16 121.454 51.272 121.286 51.416C121.118 51.552 120.982 51.712 120.878 51.896C120.782 52.08 120.734 52.272 120.734 52.472H124.442ZM129.935 51.2C129.895 51.184 129.855 51.176 129.815 51.176C129.775 51.176 129.735 51.176 129.695 51.176C129.455 51.176 129.227 51.208 129.011 51.272C128.803 51.336 128.615 51.436 128.447 51.572C128.287 51.708 128.159 51.88 128.063 52.088C127.975 52.296 127.931 52.54 127.931 52.82V56H126.671V50H127.931V51.092C128.059 50.804 128.283 50.552 128.603 50.336C128.923 50.112 129.331 50 129.827 50H130.031L129.935 51.2Z" fill="#111827"/>
<g filter="url(#filter2_b_248_1374)">
<rect x="175" y="69" width="42" height="42" rx="12" fill="#EBF8F9"/>
<rect x="174.5" y="68.5" width="43" height="43" rx="12.5" stroke="white"/>
</g>
<path d="M185.017 95.6426L189.295 93.6298C189.709 93.7098 190.131 93.7777 190.557 93.8058C190.397 93.1966 190.312 92.5647 190.312 91.917C190.312 87.3046 194.498 83.5217 199.794 83.1924C198.383 80.4624 195.13 78.6136 191.45 78.6136C186.434 78.6136 182.35 82.0315 182.35 86.2291C182.35 88.1966 183.271 90.1029 184.897 91.5065L184.215 95.0217C184.175 95.2324 184.255 95.4482 184.426 95.5789C184.523 95.6588 184.647 95.6989 184.772 95.6989C184.852 95.6989 184.937 95.6815 185.017 95.6429L185.017 95.6426Z" fill="#217F86"/>
<path d="M209.65 91.9169C209.65 87.714 205.567 84.3014 200.55 84.3014C195.534 84.3014 191.449 87.7138 191.449 91.9169C191.449 96.1145 195.532 99.5323 200.55 99.5323C201.277 99.5323 202.005 99.4589 202.705 99.3165L206.983 101.336C207.063 101.371 207.141 101.387 207.227 101.387C207.352 101.387 207.471 101.347 207.573 101.267C207.744 101.136 207.824 100.92 207.784 100.71L207.107 97.1944C208.752 95.7734 209.65 93.9127 209.65 91.917L209.65 91.9169ZM196 93.4806C195.062 93.4806 194.294 92.718 194.294 91.7742C194.294 90.8359 195.061 90.0678 196 90.0678C196.938 90.0678 197.706 90.8356 197.706 91.7742C197.706 92.7179 196.939 93.4806 196 93.4806ZM200.55 93.4806C199.611 93.4806 198.843 92.718 198.843 91.7742C198.843 90.8359 199.611 90.0678 200.55 90.0678C201.488 90.0678 202.256 90.8356 202.256 91.7742C202.256 92.7179 201.488 93.4806 200.55 93.4806ZM205.101 93.4806C204.162 93.4806 203.394 92.718 203.394 91.7742C203.394 90.8359 204.162 90.0678 205.101 90.0678C206.039 90.0678 206.807 90.8356 206.807 91.7742C206.807 92.7179 206.039 93.4806 205.101 93.4806Z" fill="#217F86"/>
</g>
<defs>
<filter id="filter0_d_248_1374" x="-5" y="18" width="175" height="194" filterUnits="userSpaceOnUse" color-interpolation-filters="sRGB">
<feFlood flood-opacity="0" result="BackgroundImageFix"/>
<feColorMatrix in="SourceAlpha" type="matrix" values="0 0 0 0 0 0 0 0 0 0 0 0 0 0 0 0 0 0 127 0" result="hardAlpha"/>
<feOffset dy="4"/>
<feGaussianBlur stdDeviation="5"/>
<feComposite in2="hardAlpha" operator="out"/>
<feColorMatrix type="matrix" values="0 0 0 0 0.647691 0 0 0 0 0.686302 0 0 0 0 0.768352 0 0 0 0.18 0"/>
<feBlend mode="normal" in2="BackgroundImageFix" result="effect1_dropShadow_248_1374"/>
<feBlend mode="normal" in="SourceGraphic" in2="effect1_dropShadow_248_1374" result="shape"/>
</filter>
<filter id="filter1_d_248_1374" x="17" y="135" width="131" height="36" filterUnits="userSpaceOnUse" color-interpolation-filters="sRGB">
<feFlood flood-opacity="0" result="BackgroundImageFix"/>
<feColorMatrix in="SourceAlpha" type="matrix" values="0 0 0 0 0 0 0 0 0 0 0 0 0 0 0 0 0 0 127 0" result="hardAlpha"/>
<feOffset dy="4"/>
<feGaussianBlur stdDeviation="2"/>
<feComposite in2="hardAlpha" operator="out"/>
<feColorMatrix type="matrix" values="0 0 0 0 0.884662 0 0 0 0 0.89985 0 0 0 0 0.930223 0 0 0 1 0"/>
<feBlend mode="normal" in2="BackgroundImageFix" result="effect1_dropShadow_248_1374"/>
<feBlend mode="normal" in="SourceGraphic" in2="effect1_dropShadow_248_1374" result="shape"/>
</filter>
<filter id="filter2_b_248_1374" x="150" y="44" width="92" height="92" filterUnits="userSpaceOnUse" color-interpolation-filters="sRGB">
<feFlood flood-opacity="0" result="BackgroundImageFix"/>
<feGaussianBlur in="BackgroundImageFix" stdDeviation="12"/>
<feComposite in2="SourceAlpha" operator="in" result="effect1_backgroundBlur_248_1374"/>
<feBlend mode="normal" in="SourceGraphic" in2="effect1_backgroundBlur_248_1374" result="shape"/>
</filter>
<clipPath id="clip0_248_1374">
<rect width="222" height="170" fill="white"/>
</clipPath>
</defs>
</svg>
