<svg width="171" height="162" viewBox="0 0 171 162" fill="none" xmlns="http://www.w3.org/2000/svg">
<g filter="url(#filter0_b_33_14765)">
<rect x="3.8147e-05" y="37.8425" width="99.1035" height="124.456" rx="4.60946" transform="rotate(-3.96602 3.8147e-05 37.8425)" fill="white"/>
<rect x="0.614693" y="38.3775" width="97.9511" height="123.303" rx="4.03328" transform="rotate(-3.96602 0.614693 38.3775)" stroke="url(#paint0_linear_33_14765)" stroke-width="1.15237"/>
</g>
<path d="M17.0776 45.9089C12.9734 45.9836 9.85405 49.5722 10.3465 53.652C10.7657 57.1404 13.8187 59.8004 17.327 59.7346C21.4312 59.6598 24.5655 56.0544 24.0733 51.974C23.6381 48.4871 20.6023 45.8416 17.0776 45.9085L17.0776 45.9089ZM16.2836 56.3063L13.1106 53.5413L14.0659 52.4424L16.1412 54.2508L20.0974 49.717L21.1952 50.6735L16.2836 56.3063Z" fill="#2FB5C0"/>
<rect x="28.4672" y="48.5753" width="50.7041" height="6.9142" rx="1.15237" transform="rotate(-3.96602 28.4672 48.5753)" fill="#E5E7EB"/>
<path d="M18.3527 64.3026C14.2485 64.3774 11.1291 67.966 11.6216 72.0457C12.0408 75.5341 15.0938 78.1941 18.6021 78.1283C22.7063 78.0535 25.8406 74.4481 25.3484 70.3677C24.9132 66.8808 21.8774 64.2353 18.3527 64.3022L18.3527 64.3026ZM17.5587 74.7L14.3857 71.935L15.341 70.8361L17.4163 72.6445L21.3725 68.1107L22.4703 69.0673L17.5587 74.7Z" fill="#2FB5C0"/>
<rect x="29.7424" y="66.969" width="50.7041" height="6.9142" rx="1.15237" transform="rotate(-3.96602 29.7424 66.969)" fill="#E5E7EB"/>
<path d="M19.6283 82.6963C15.5241 82.7711 12.4047 86.3597 12.8972 90.4395C13.3164 93.9278 16.3693 96.5879 19.8777 96.522C23.9819 96.4472 27.1162 92.8418 26.624 88.7614C26.1888 85.2745 23.153 82.629 19.6283 82.696L19.6283 82.6963ZM18.8343 93.0937L15.6613 90.3287L16.6166 89.2298L18.6919 91.0382L22.6481 86.5044L23.7459 87.461L18.8343 93.0937Z" fill="#2FB5C0"/>
<rect x="31.0181" y="85.3627" width="50.7041" height="6.9142" rx="1.15237" transform="rotate(-3.96602 31.0181 85.3627)" fill="#E5E7EB"/>
<path d="M61.4599 125.945C62.3385 138.617 52.7779 149.602 40.1058 150.48C27.4336 151.359 16.4486 141.798 15.5701 129.126C14.6915 116.454 24.2521 105.469 36.9242 104.59C49.5963 103.712 60.5813 113.272 61.4599 125.945ZM27.0425 128.331C27.4818 134.667 32.9743 139.447 39.3104 139.008C45.6464 138.569 50.4267 133.076 49.9874 126.74C49.5482 120.404 44.0557 115.624 37.7196 116.063C31.3835 116.502 26.6032 121.995 27.0425 128.331Z" fill="#D5F0F2"/>
<path d="M36.9242 104.59C41.7697 104.255 46.5971 105.461 50.7147 108.037C54.8322 110.614 58.0285 114.428 59.8453 118.932L49.1802 123.234C48.2717 120.981 46.6736 119.075 44.6148 117.786C42.5561 116.498 40.1423 115.895 37.7196 116.063L36.9242 104.59Z" fill="#2AA3AD"/>
<path d="M59.8453 118.932C61.432 122.866 61.8999 127.162 61.1973 131.345C60.4947 135.528 58.6491 139.435 55.8644 142.635C53.0796 145.835 49.4644 148.202 45.4182 149.475C41.3721 150.748 37.0527 150.877 32.9376 149.849L35.7263 138.692C37.7838 139.206 39.9435 139.142 41.9666 138.505C43.9897 137.869 45.7973 136.685 47.1897 135.085C48.582 133.485 49.5049 131.532 49.8561 129.44C50.2074 127.349 49.9735 125.201 49.1802 123.234L59.8453 118.932Z" fill="#2FB5C0"/>
<path d="M32.9375 149.849C28.2254 148.671 24.0071 146.032 20.8872 142.309L29.7011 134.922C31.261 136.784 33.3702 138.103 35.7263 138.692L32.9375 149.849Z" fill="#59C4CD"/>
<path d="M20.8872 142.309C17.1296 137.825 15.2216 132.079 15.5516 126.238L27.0333 126.887C26.8683 129.807 27.8223 132.68 29.7011 134.922L20.8872 142.309Z" fill="#82D3D9"/>
<g filter="url(#filter1_d_33_14765)">
<rect x="43.3657" y="14.676" width="99.1035" height="124.456" rx="4.60946" fill="white"/>
<rect x="102.136" y="26.1997" width="28.8092" height="5.76183" rx="2.88092" fill="#E5E7EB"/>
<rect x="102.136" y="36.571" width="21.895" height="5.76183" rx="2.88092" fill="#E5E7EB"/>
<rect x="102.136" y="46.9423" width="16.1331" height="5.76183" rx="2.88092" fill="#9CA3AF"/>
<rect x="52.5845" y="26.1997" width="40.3328" height="27.6568" rx="3.4571" fill="#E5E7EB"/>
<rect x="51.4322" y="64.2278" width="82.9704" height="6.9142" rx="1.15237" fill="#E5E7EB"/>
<rect x="51.4323" y="75.7514" width="27.6568" height="11.5237" rx="1.15237" fill="#E5E7EB"/>
<rect x="83.6987" y="75.7514" width="31.1139" height="11.5237" rx="1.15237" fill="#E5E7EB"/>
<rect x="119.422" y="75.7514" width="14.9808" height="11.5237" rx="1.15237" fill="#E5E7EB"/>
<rect x="51.4323" y="91.8846" width="27.6568" height="11.5237" rx="1.15237" fill="#E5E7EB"/>
<rect x="83.6987" y="91.8846" width="31.1139" height="11.5237" rx="1.15237" fill="#E5E7EB"/>
<rect x="119.422" y="91.8846" width="14.9808" height="11.5237" rx="1.15237" fill="#E5E7EB"/>
<rect x="83.6982" y="109.746" width="19.5902" height="9.21893" rx="1.15237" fill="#DAD5E9"/>
<path d="M126.387 128.76H128.432C128.896 128.76 129.281 128.285 129.281 127.696V125.234L129.706 125.092C133.173 124 134.402 121.014 134.402 118.793C134.402 114.679 131.57 112.969 128.794 111.834C126.188 110.756 125.356 110.103 125.356 109.138C125.356 108.272 126.154 107.407 127.945 107.407C129.916 107.407 131.151 108.109 131.677 108.414C131.791 108.478 131.91 108.514 132.028 108.514C132.357 108.514 132.657 108.273 132.799 107.904L133.609 105.754C133.705 105.506 133.717 105.208 133.637 104.945C133.563 104.676 133.405 104.463 133.201 104.342C132.227 103.768 131.167 103.398 129.972 103.221L129.474 103.143V101.008C129.474 100.426 129.094 99.9511 128.624 99.9511H126.613C126.148 99.9511 125.763 100.427 125.763 101.008V103.384L125.338 103.519C122.54 104.406 120.869 106.655 120.869 109.528C120.869 113.316 123.865 115.005 126.805 116.161C129.518 117.268 129.887 118.226 129.887 119.02C129.887 120.247 128.618 121.141 126.873 121.141C125.389 121.141 123.792 120.665 122.602 119.871C122.478 119.785 122.341 119.743 122.2 119.743C122.109 119.743 122.018 119.764 121.928 119.8C121.707 119.899 121.525 120.105 121.429 120.374L120.647 122.552C120.472 123.056 120.619 123.637 121.004 123.907C121.996 124.624 123.468 125.156 125.032 125.376L125.536 125.439V127.695C125.537 128.285 125.916 128.76 126.387 128.76L126.387 128.76Z" fill="#472F92"/>
</g>
<g style="mix-blend-mode:multiply">
<rect x="122.879" y="2" width="47.4379" height="20.2189" rx="10.1095" fill="#DDFCE7"/>
<path d="M133.485 15.6095V7.22862H138.683V8.31715H134.75V10.8707H138.31V11.9551H134.75V15.6095H133.485ZM140.238 15.6095V7.22862H143.225C143.874 7.22862 144.413 7.34048 144.841 7.56418C145.272 7.78789 145.594 8.09753 145.807 8.49311C146.02 8.88597 146.126 9.3402 146.126 9.85582C146.126 10.3687 146.018 10.8202 145.803 11.2103C145.59 11.5977 145.268 11.8992 144.837 12.1147C144.409 12.3302 143.87 12.438 143.221 12.438H140.958V11.3495H143.106C143.515 11.3495 143.848 11.2908 144.105 11.1735C144.364 11.0562 144.553 10.8857 144.674 10.662C144.794 10.4383 144.854 10.1696 144.854 9.85582C144.854 9.53936 144.792 9.26518 144.669 9.03329C144.549 8.80139 144.36 8.62407 144.101 8.5013C143.844 8.3758 143.507 8.31306 143.09 8.31306H141.502V15.6095H140.238ZM144.375 11.8283L146.445 15.6095H145.005L142.975 11.8283H144.375ZM147.665 15.6095V7.22862H152.919V8.31715H148.929V10.8707H152.645V11.9551H148.929V14.5209H152.968V15.6095H147.665ZM154.608 15.6095V7.22862H159.863V8.31715H155.873V10.8707H159.589V11.9551H155.873V14.5209H159.912V15.6095H154.608Z" fill="#22C55E"/>
</g>
<defs>
<filter id="filter0_b_33_14765" x="-4.30184" y="26.6861" width="116.078" height="139.616" filterUnits="userSpaceOnUse" color-interpolation-filters="sRGB">
<feFlood flood-opacity="0" result="BackgroundImageFix"/>
<feGaussianBlur in="BackgroundImageFix" stdDeviation="2.30473"/>
<feComposite in2="SourceAlpha" operator="in" result="effect1_backgroundBlur_33_14765"/>
<feBlend mode="normal" in="SourceGraphic" in2="effect1_backgroundBlur_33_14765" result="shape"/>
</filter>
<filter id="filter1_d_33_14765" x="25.3657" y="0.676025" width="135.103" height="160.456" filterUnits="userSpaceOnUse" color-interpolation-filters="sRGB">
<feFlood flood-opacity="0" result="BackgroundImageFix"/>
<feColorMatrix in="SourceAlpha" type="matrix" values="0 0 0 0 0 0 0 0 0 0 0 0 0 0 0 0 0 0 127 0" result="hardAlpha"/>
<feOffset dy="4"/>
<feGaussianBlur stdDeviation="9"/>
<feComposite in2="hardAlpha" operator="out"/>
<feColorMatrix type="matrix" values="0 0 0 0 0.898039 0 0 0 0 0.905882 0 0 0 0 0.921569 0 0 0 0.54 0"/>
<feBlend mode="normal" in2="BackgroundImageFix" result="effect1_dropShadow_33_14765"/>
<feBlend mode="normal" in="SourceGraphic" in2="effect1_dropShadow_33_14765" result="shape"/>
</filter>
<linearGradient id="paint0_linear_33_14765" x1="4.17996" y1="158.341" x2="65.9857" y2="63.4221" gradientUnits="userSpaceOnUse">
<stop stop-color="#EBECEE"/>
<stop offset="1" stop-color="#F5F7FB"/>
</linearGradient>
</defs>
</svg>
